<?xml version="1.0" encoding="utf-8"?>
<svg xmlns="http://www.w3.org/2000/svg" version="1.1" preserveAspectRatio="none" viewBox="0 0 100 100">
<g id="telo">
	<path vector-effect="non-scaling-stroke"  fill="#FFFFFF" stroke="#000000" stroke-width="3" stroke-miterlimit="10" d="M54.4,19.3c7.4-6.4,14.6-15.1,24.9-13
		c12.8,2.6,13.5,16.3,6.9,25.2c9.6,2.9,11.9,18.2,2.2,23.2c6.2,8.1,9.3,18,4.4,28.7c-5,11-20.5,11.4-30,10.1
		C52.7,92.1,44,84.2,33.4,83c-7.4-0.9-22.1,0.5-27.2,7.4c-0.5-19.2-4.8-44.1,4.2-62C19.8,9.6,40,7.9,54.4,19.3z"/>
	<path vector-effect="non-scaling-stroke"  fill="#FFFFFF" stroke="#000000" stroke-width="3" stroke-miterlimit="10" d="M61,25.7c2.1-2.9,4.9-8.4,8.9-8.5
		c3.8-0.2,6.6,3.6,3.9,8c-5.6,9.2-15.3-1.9-19.4-5.9"/>
	<path vector-effect="non-scaling-stroke"  fill="none" stroke="#000000" stroke-width="3" stroke-miterlimit="10" d="M86.2,31.5C70.4,47.2,51.8,24.4,34.4,32
		C13.7,41,11.5,66.5,9.5,87.1"/>
	<path vector-effect="non-scaling-stroke"  fill="none" stroke="#000000" stroke-width="3" stroke-miterlimit="10" d="M88.4,54.7c-16.6,8.9-29.9-1.4-46.5,0.9
		C25.4,57.9,14.7,76.3,6.2,90.5"/>
</g>
</svg>
