<svg xmlns="http://www.w3.org/2000/svg" viewBox="-2 -2 151.752 286.108" preserveAspectRatio="none"><g id="kepeken-tall" stroke="#000" stroke-width="5" stroke-miterlimit="10"><path d="M2.5 37c0-25.65 8.33-34.5 18.605-34.5 14.45 0 16.436 21.527 16.436 33.598.002-12.07-.18-33.598 16.077-33.598s16.436 21.527 16.436 33.598c0-12.07 6.325-33.598 22.582-33.598s12.498 39.233 12.498 39.233c10.373-10.15 28.355-20.452 36.81-11.176 9.835 10.79-4.965 39.05-9.34 45.062l-.046 176.313c0 11.97-9.705 27.676-21.676 27.676H24.177c-11.97 0-21.676-15.706-21.676-27.677V37z" fill="#FFF" stroke-linecap="round" stroke-linejoin="round"/><path d="M132.556 75.523C115.874 92.628 93.58 103.248 67.8 103.248c-25.362 0-48.855-10.278-65.476-26.897M51.722 127.956c-19.545-3.32-36.136-12.817-49.398-26.41M132.556 102.903c-12.432 12.225-30.148 20.937-47.902 24.53" fill="none"/><path d="M90.155 100.45c0 19.155-5.683 37.482-21.947 37.482s-21.947-18.056-21.947-37.21" fill="none"/></g><style>ellipse,polygon,polyline,rect,circle,line,path{stroke-width:2;vector-effect:non-scaling-stroke}</style></svg>