<svg xmlns="http://www.w3.org/2000/svg" viewBox="-2 -2 281.992 138.048" preserveAspectRatio="none"><g id="tan-wide" stroke="#000" stroke-width="5" stroke-miterlimit="10"><path d="M34.762 131.548c-17.818 0-32.262-14.444-32.262-32.262V34.762C2.5 16.944 16.944 2.5 34.762 2.5h154.3c35.635 0 64.523 28.888 64.523 64.524s-28.888 64.524-64.524 64.524H34.763z" fill="#FFF"/><path d="M256.362 67.087c0-26.988-9.68-48.866-21.624-48.866-9.425 0-17.436 13.63-20.398 32.64l11.174 16.227-11.174 16.228c2.962 19.01 10.973 32.638 20.398 32.638 11.942 0 21.624-21.878 21.624-48.866z" fill="#FFF" stroke-linecap="round" stroke-linejoin="round"/><path d="M249.995 54.177h-4.41c-6.68 0-12.093 5.78-12.093 12.91s5.414 12.91 12.093 12.91h4.41" fill="none" stroke-linecap="round" stroke-linejoin="round"/><ellipse cx="261.897" cy="67.087" rx="13.594" ry="28.903" fill="#FFF" stroke-linecap="round" stroke-linejoin="round"/></g><style>ellipse,polygon,polyline,rect,circle,line,path{stroke-width:2;vector-effect:non-scaling-stroke}</style></svg>