<svg xmlns="http://www.w3.org/2000/svg" viewBox="-2 -2 254.658 138.048" preserveAspectRatio="none"><g stroke="#000" stroke-width="5" stroke-linecap="round" stroke-linejoin="round" stroke-miterlimit="10" id="sama-wide"><g fill="#FFF"><path d="M243.503 78.928c1.534 8.562 4.12 15.52 4.12 23.797 0 11.768-6.68 17.702-14.922 17.702-8.24 0-14.92-6.33-14.92-17.702 0-7.97 3.665-12.976 5.86-21.79M223.512 52.574c-2.205-8.552-5.732-13.57-5.732-21.25 0-11.176 6.68-17.703 14.92-17.703 8.242 0 14.922 8.406 14.922 17.703 0 6.577-2.616 14.293-4.146 23.497M233.672 26.564s-2.44 5.334-2.44 11.8M233.7 107.484s-2.495-5.456-2.495-12.07"/></g><path d="M189.818 131.548c17.818 0 32.262-14.444 32.262-32.262v-12.1c14.403 0 26.078-9.028 26.078-20.164s-11.676-20.164-26.078-20.164V34.762c0-17.818-14.444-32.262-32.262-32.262H34.762C16.944 2.5 2.5 16.944 2.5 34.762v64.524c0 17.818 14.444 32.262 32.262 32.262h155.056z" fill="#FFF"/><path d="M245.298 86.735c-5.157 5.335-12.39 8.653-20.395 8.653-1.064 0-2.114-.06-3.147-.173M221.844 38.823a28.63 28.63 0 0 1 3.06-.163c7.83 0 14.922 3.175 20.055 8.308" fill="none"/></g><style>ellipse,polygon,polyline,rect,circle,line,path{stroke-width:2;vector-effect:non-scaling-stroke}</style></svg>