<?xml version="1.0" encoding="iso-8859-1"?>
<!-- Generator: Adobe Illustrator 22.0.1, SVG Export Plug-In . SVG Version: 6.00 Build 0)  -->
<svg version="1.1" xmlns="http://www.w3.org/2000/svg" xmlns:xlink="http://www.w3.org/1999/xlink" x="0px" y="0px"
	 viewBox="0 0 277.992 134.048" style="enable-background:new 0 0 277.992 134.048;" xml:space="preserve">
<g id="tan-wide">
	<path style="fill:#FFFFFF;stroke:#000000;stroke-width:5;stroke-miterlimit:10;" d="M34.762,131.548
		c-17.818,0-32.262-14.444-32.262-32.262V34.762C2.5,16.944,16.944,2.5,34.762,2.5h154.299c35.636,0,64.524,28.888,64.524,64.524
		s-28.888,64.524-64.524,64.524H34.762z"/>
	<path style="fill:#FFFFFF;stroke:#000000;stroke-width:5;stroke-linecap:round;stroke-linejoin:round;stroke-miterlimit:10;" d="
		M256.362,67.087c0-26.988-9.681-48.866-21.624-48.866c-9.425,0-17.436,13.629-20.398,32.638l11.174,16.228l-11.174,16.228
		c2.962,19.009,10.973,32.638,20.398,32.638C246.68,115.953,256.362,94.075,256.362,67.087z"/>
	<path style="fill:none;stroke:#000000;stroke-width:5;stroke-linecap:round;stroke-linejoin:round;stroke-miterlimit:10;" d="
		M249.995,54.177h-4.41c-6.679,0-12.093,5.78-12.093,12.91s5.414,12.91,12.093,12.91h4.41"/>
	
		<ellipse style="fill:#FFFFFF;stroke:#000000;stroke-width:5;stroke-linecap:round;stroke-linejoin:round;stroke-miterlimit:10;" cx="261.897" cy="67.087" rx="13.594" ry="28.903"/>
</g>
<g id="Layer_1">
</g>
</svg>
