<svg xmlns="http://www.w3.org/2000/svg" viewBox="-2 -2 158.369 228.863" preserveAspectRatio="none">
    <g id="e-tall">
        <path d="M131.123 168.313c14.913 0 17.625 12.1 17.625 27.025s-2.712 27.025-17.625 27.025H95" fill="#FFF"/>
        <path d="M131.176 166.314l1.236.017c.42.016 1.007.06 1.654.11.638.08 1.37.163 2.193.342 1.632.337 3.66.96 5.72 2.288 2.052 1.31 4.03 3.378 5.4 5.936 1.402 2.547 2.272 5.487 2.822 8.554.554 3.074.787 6.297.876 9.595.078 3.31.062 6.677-.246 10.205-.335 3.502-.933 7.145-2.424 10.696-.738 1.768-1.742 3.5-3.064 5.028-1.3 1.542-2.962 2.808-4.737 3.72-1.78.922-3.673 1.447-5.513 1.74-.922.148-1.835.23-2.735.274-.446.01-.89.023-1.332.034l-1.214.003c-3.223.02-6.34-.015-9.294-.027l-8.327-.058c-5.157-.092-9.455-.148-12.464-.253l-4.73-.154v-4l4.73-.154c3.007-.105 7.305-.16 12.463-.254l8.327-.058c2.955-.013 6.07-.048 9.294-.027l1.214.004 1.115-.024a20.195 20.195 0 0 0 2.182-.208c1.432-.222 2.817-.608 4.047-1.244 2.485-1.228 4.362-3.448 5.538-6.263 1.2-2.797 1.785-6.02 2.104-9.238.33-3.212.395-6.518.363-9.652-.04-3.145-.223-6.16-.68-8.91-.453-2.75-1.185-5.234-2.218-7.244-1.025-2.022-2.398-3.492-3.845-4.477-1.45-.992-2.962-1.513-4.257-1.812-.646-.158-1.247-.238-1.767-.32-.515-.05-.92-.096-1.303-.12l-1.235-.048.104-3.998z"/>
        <path d="M132.564 133.043c14.913 0 17.625 12.1 17.625 27.025s-2.713 27.025-17.626 27.025H96.44" fill="#FFF"/>
        <path d="M132.617 131.044l1.236-.016c.42.006 1.01.03 1.66.074.642.072 1.38.143 2.207.31 1.644.32 3.704.907 5.796 2.24 2.08 1.32 4.09 3.41 5.476 5.99 1.426 2.567 2.31 5.528 2.853 8.612.562 3.09.758 6.325.823 9.627.058 3.316-.023 6.685-.374 10.21-.37 3.5-1 7.138-2.517 10.665-.75 1.756-1.765 3.47-3.088 4.976-1.304 1.52-2.96 2.76-4.723 3.647-3.53 1.796-7.492 2.035-10.715 1.912l-17.62-.28-12.465-.283-4.728-.134v-3s1.718-.05 4.727-.134c3.008-.07 7.306-.167 12.464-.284l17.622-.28 1.214-.018 1.126-.044a22.32 22.32 0 0 0 2.205-.243c1.447-.24 2.85-.646 4.09-1.306 2.512-1.277 4.38-3.55 5.53-6.388 1.175-2.82 1.726-6.05 2.01-9.27.29-3.213.288-6.518.236-9.646-.064-3.14-.284-6.14-.734-8.878-.462-2.732-1.178-5.197-2.188-7.186-1.004-2-2.348-3.45-3.767-4.424-1.415-.988-2.897-1.544-4.18-1.86-.64-.17-1.237-.26-1.754-.35-.512-.06-.913-.125-1.296-.16-.805-.05-1.234-.08-1.234-.08l.107-3.998z"/>
        <path d="M132.564 97.774c14.913 0 17.625 12.1 17.625 27.025s-2.713 27.024-17.626 27.024H96.44" fill="#FFF"/>
        <path d="M132.617 95.774l1.236-.016c.42.006 1.01.03 1.66.074.642.07 1.38.143 2.207.31 1.644.32 3.704.907 5.796 2.24 2.08 1.32 4.09 3.41 5.476 5.99 1.426 2.567 2.31 5.528 2.853 8.612.562 3.09.758 6.325.823 9.627.058 3.316-.023 6.685-.374 10.212-.37 3.5-1 7.137-2.517 10.664-.75 1.756-1.765 3.47-3.088 4.976-1.304 1.52-2.96 2.76-4.723 3.646-3.53 1.796-7.492 2.035-10.715 1.912l-17.62-.28-12.465-.282-4.728-.134v-3s1.718-.05 4.727-.134c3.008-.07 7.306-.166 12.464-.283l17.622-.28 1.214-.018 1.126-.044c.742-.047 1.48-.125 2.205-.243 1.447-.24 2.85-.647 4.09-1.307 2.512-1.277 4.38-3.55 5.53-6.388 1.175-2.82 1.726-6.05 2.01-9.27.29-3.214.288-6.518.236-9.647-.064-3.14-.284-6.14-.734-8.877-.462-2.732-1.178-5.197-2.188-7.186-1.004-2-2.348-3.45-3.767-4.424-1.415-.988-2.897-1.544-4.18-1.86-.64-.17-1.237-.26-1.754-.35-.512-.06-.913-.125-1.296-.16-.805-.05-1.234-.08-1.234-.08l.107-4z"/>
        <path d="M132.564 62.504c14.913 0 17.625 12.1 17.625 27.025s-2.713 27.024-17.626 27.024H96.44" fill="#FFF"/>
        <path d="M132.617 60.505l1.236-.016c.42.005 1.01.03 1.66.073.642.07 1.38.143 2.207.31 1.644.32 3.704.907 5.796 2.24 2.08 1.32 4.09 3.41 5.476 5.99 1.426 2.567 2.31 5.528 2.853 8.612.562 3.09.758 6.325.823 9.627.058 3.315-.023 6.684-.374 10.21-.37 3.5-1 7.137-2.517 10.664-.75 1.756-1.765 3.47-3.088 4.976-1.304 1.52-2.96 2.76-4.723 3.646-3.53 1.796-7.492 2.035-10.715 1.91-6.447-.1-12.464-.196-17.62-.278l-12.465-.283-4.728-.134v-3s1.718-.05 4.727-.134c3.008-.07 7.306-.167 12.464-.284l17.622-.28 1.214-.018 1.126-.044a22.32 22.32 0 0 0 2.205-.243c1.447-.24 2.85-.646 4.09-1.306 2.512-1.277 4.38-3.55 5.53-6.388 1.175-2.82 1.726-6.05 2.01-9.27.29-3.214.288-6.52.236-9.647-.064-3.14-.284-6.142-.734-8.88-.462-2.73-1.178-5.196-2.188-7.185-1.004-2-2.348-3.45-3.767-4.424-1.415-.987-2.897-1.543-4.18-1.86-.64-.17-1.237-.26-1.754-.35-.512-.058-.913-.124-1.296-.158l-1.234-.08.107-3.997z"/>
        <path d="M67.638 222.363h46.09c11.93 0 18.716-12.304 18.716-27.483v-54.966 18.322-54.966c0-11.908 1.453-22.027 4.902-27.543 3.45-5.516 14.523-9.1 14.523-27.728V27.226c0-15.178-2.905-24.727-14.835-24.727h-48.65 1.335-61.328C4.532 2.5 2.5 17.002 2.5 47.36v129.225c0 30.357 2.032 45.778 25.892 45.778H89.72"
              fill="#FFF" stroke="#000" stroke-width="5" stroke-miterlimit="10"/>
    </g>
    <style>ellipse,polygon,polyline,rect,circle,line,path{stroke-width:2;vector-effect:non-scaling-stroke}</style>
</svg>