<?xml version="1.0" encoding="utf-8"?>
<!-- Generator: Adobe Illustrator 20.1.0, SVG Export Plug-In . SVG Version: 6.00 Build 0)  -->
<svg version="1.1" id="Layer_1" xmlns="http://www.w3.org/2000/svg" xmlns:xlink="http://www.w3.org/1999/xlink" x="0px" y="0px"
	 viewBox="0 0 272.9 283.3" style="enable-background:new 0 0 272.9 283.3;" xml:space="preserve">
<style type="text/css">
	.st0{fill:#FFFFFF;stroke:#1D1D1B;stroke-width:5;stroke-miterlimit:10;}
	.st1{fill:#FFFFFF;stroke:#1D1D1B;stroke-width:4.5;stroke-linecap:round;stroke-linejoin:round;stroke-miterlimit:10;}
	.st2{fill:#FFFFFF;stroke:#1D1D1B;stroke-width:4;stroke-linecap:round;stroke-linejoin:round;stroke-miterlimit:10;}
	.st3{fill:#1D1D1B;}
</style>
<g>
	<path class="st0" d="M32.5,283.3C14.6,283.3,0,268.8,0,250.8l0-175c0-17.9,14.6-32.5,32.5-32.5h207.9c17.9,0,32.5,14.6,32.5,32.5
		v175c0,17.9-14.6,32.5-32.5,32.5H32.5z"/>
	<path class="st0" d="M171.2,0c18.1,6,30.1,16.6,30.1,28.7c0,18.8-29,34-64.9,34s-64.9-15.2-64.9-34C71.6,16.6,83.7,6,101.8,0
		l17.3,16l17.3-16l17.2,16L171.2,0z"/>
	<path class="st1" d="M88.3,65.7c12.4-6.3,29.4-10.1,48-10.1c18.3,0,35,3.7,47.4,9.8"/>
	<ellipse class="st2" cx="136.3" cy="35.1" rx="15.5" ry="12.4"/>
	<circle class="st3" cx="136.3" cy="35.1" r="5.5"/>
</g>
</svg>
