<svg xmlns="http://www.w3.org/2000/svg" viewBox="-2 -2 139.426 283.968" preserveAspectRatio="none"><g stroke="#000" stroke-width="5" stroke-miterlimit="10" id="poka-tall"><path d="M2.798 61.436c0-32.152 35.315-62.116 71.166-58.664s58.664 31.406 58.664 71.166.298 170.923.298 170.923c0 18.01-14.598 32.608-32.607 32.608H35.106C17.1 277.468 2.5 262.87 2.5 244.86c0 0 .298-151.272.298-183.424z" fill="#FFF"/><path d="M50.36 5.482c13.197 15.187 8.944 40.038 7.03 59.083M68.463 3.567c13.66 15.72 9.258 41.443 7.278 61.156" fill="none" stroke-linecap="round" stroke-linejoin="round"/><ellipse cx="35.296" cy="38.453" rx="11.429" ry="10.958" fill="none" stroke-linecap="round" stroke-linejoin="round"/><ellipse cx="100.13" cy="38.482" rx="11.429" ry="10.958" fill="none" stroke-linecap="round" stroke-linejoin="round"/><path d="M131.547 55.645c-14.712 5.988-37.495 9.83-63.07 9.83-26.477 0-49.963-4.118-64.598-10.473" fill="none" stroke-linecap="round" stroke-linejoin="round"/></g><style>ellipse,polygon,polyline,rect,circle,line,path{stroke-width:2;vector-effect:non-scaling-stroke}</style></svg>