<?xml version="1.0" encoding="iso-8859-1"?>
<!-- Generator: Adobe Illustrator 19.2.0, SVG Export Plug-In . SVG Version: 6.00 Build 0)  -->
<!DOCTYPE svg PUBLIC "-//W3C//DTD SVG 1.1//EN" "http://www.w3.org/Graphics/SVG/1.1/DTD/svg11.dtd">
<svg version="1.1" xmlns="http://www.w3.org/2000/svg" xmlns:xlink="http://www.w3.org/1999/xlink" x="0px" y="0px"
	 viewBox="0 0 271.022 155.35" style="enable-background:new 0 0 271.022 155.35;" xml:space="preserve">
<g id="e-wide">
	<g id="e-wide_1_">
		<g>
			<path style="fill:#FFFFFF;" d="M239.741,115.889c20.688,0,24.451,8.274,24.451,18.481c0,10.206-3.763,18.481-24.451,18.481
				h-50.112"/>
			<path d="M239.767,113.889c0,0,0.472,0,1.358,0c0.875,0.001,2.28,0.031,3.974,0.14c1.713,0.127,3.804,0.334,6.209,0.85
				c2.389,0.537,5.152,1.361,7.89,3.147c1.355,0.896,2.68,2.059,3.765,3.505c1.104,1.432,1.938,3.121,2.503,4.885
				c1.1,3.563,1.225,7.26,0.992,11.013c-0.156,1.915-0.489,3.92-1.222,5.909c-0.739,1.976-1.895,3.929-3.463,5.495
				c-1.544,1.593-3.423,2.782-5.344,3.658c-1.931,0.87-3.923,1.455-5.905,1.867c-3.958,0.809-7.944,1-11.715,0.983
				c-3.719-0.005-7.38-0.01-10.922-0.014c-3.542-0.015-6.966-0.029-10.213-0.042c-3.247-0.001-6.317-0.059-9.151-0.09
				c-5.668-0.057-10.391-0.141-13.697-0.219c-3.306-0.08-5.195-0.126-5.195-0.126v-4c0,0,1.889-0.046,5.195-0.126
				c3.306-0.078,8.029-0.162,13.697-0.219c2.834-0.031,5.904-0.088,9.151-0.09c3.247-0.013,6.671-0.027,10.213-0.042
				c3.542-0.004,7.203-0.009,10.922-0.014c3.66,0.036,7.266-0.142,10.722-0.828c3.425-0.687,6.654-1.96,8.769-4.119
				c2.142-2.122,3.115-5.159,3.402-8.391c0.262-3.292,0.145-6.563-0.652-9.232c-0.792-2.683-2.366-4.692-4.368-6.05
				c-1.986-1.381-4.267-2.17-6.341-2.684c-2.089-0.505-3.998-0.749-5.576-0.906c-1.603-0.142-2.795-0.2-3.691-0.225
				c-0.885-0.023-1.358-0.035-1.358-0.035L239.767,113.889z"/>
		</g>
		<g>
			<path style="fill:#FFFFFF;" d="M241.74,91.77c20.688,0,24.451,8.274,24.451,18.481s-3.763,18.481-24.451,18.481h-50.112"/>
			<path d="M241.766,89.77c0,0,0.473-0.013,1.358-0.038c0.875-0.03,2.284-0.014,3.982,0.066c1.718,0.105,3.824,0.26,6.24,0.785
				c2.403,0.533,5.189,1.354,7.964,3.154c2.783,1.745,5.274,4.896,6.34,8.501c0.546,1.79,0.842,3.644,0.958,5.485
				c0.066,0.932,0.084,1.826,0.077,2.783c-0.006,0.825-0.06,1.886-0.14,2.811c-0.181,1.919-0.545,3.923-1.3,5.906
				c-0.756,1.972-1.928,3.913-3.505,5.462c-1.553,1.575-3.435,2.743-5.355,3.599c-1.931,0.849-3.918,1.413-5.896,1.806
				c-3.95,0.766-7.92,0.932-11.685,0.848c-3.719-0.042-7.38-0.084-10.922-0.125c-7.084-0.09-13.697-0.174-19.364-0.246
				c-11.335-0.202-18.892-0.336-18.892-0.336v-3c0,0,7.557-0.135,18.892-0.336c5.668-0.072,12.28-0.156,19.364-0.246
				c3.542-0.04,7.203-0.082,10.922-0.125c3.666-0.031,7.288-0.233,10.753-0.963c3.433-0.726,6.67-2.045,8.767-4.24
				c2.127-2.156,3.053-5.203,3.281-8.427c0.2-3.287,0.071-6.542-0.748-9.166c-0.794-2.644-2.333-4.589-4.295-5.938
				c-1.949-1.367-4.208-2.16-6.267-2.678c-2.076-0.497-3.97-0.793-5.544-0.972c-1.598-0.171-2.786-0.242-3.682-0.298
				c-0.885-0.047-1.357-0.073-1.357-0.073L241.766,89.77z"/>
		</g>
		<g>
			<path style="fill:#FFFFFF;" d="M241.74,67.652c20.688,0,24.451,8.274,24.451,18.481s-3.763,18.481-24.451,18.481h-50.112"/>
			<path d="M241.766,65.652c0,0,0.473-0.013,1.358-0.038c0.875-0.03,2.284-0.014,3.982,0.066c1.718,0.105,3.824,0.26,6.24,0.785
				c2.403,0.533,5.189,1.354,7.964,3.154c2.783,1.745,5.274,4.896,6.34,8.501c0.546,1.79,0.842,3.644,0.958,5.485
				c0.066,0.932,0.084,1.826,0.077,2.783c-0.006,0.825-0.06,1.886-0.14,2.811c-0.181,1.919-0.545,3.923-1.3,5.906
				c-0.756,1.972-1.928,3.913-3.505,5.462c-1.553,1.575-3.435,2.743-5.355,3.599c-1.931,0.849-3.918,1.413-5.896,1.806
				c-3.95,0.766-7.92,0.932-11.685,0.848c-3.719-0.042-7.38-0.084-10.922-0.125c-7.084-0.09-13.697-0.174-19.364-0.246
				c-11.335-0.202-18.892-0.336-18.892-0.336v-3c0,0,7.557-0.135,18.892-0.336c5.668-0.072,12.28-0.156,19.364-0.246
				c3.542-0.04,7.203-0.082,10.922-0.125c3.666-0.031,7.288-0.233,10.753-0.963c3.433-0.726,6.67-2.045,8.767-4.24
				c2.127-2.156,3.053-5.203,3.281-8.427c0.2-3.287,0.071-6.542-0.748-9.166c-0.794-2.644-2.333-4.589-4.295-5.938
				c-1.949-1.367-4.208-2.16-6.267-2.678c-2.076-0.497-3.97-0.793-5.544-0.972c-1.598-0.171-2.786-0.242-3.682-0.298
				c-0.885-0.048-1.357-0.073-1.357-0.073L241.766,65.652z"/>
		</g>
		<g>
			<path style="fill:#FFFFFF;" d="M241.74,43.533c20.688,0,24.451,8.274,24.451,18.481s-3.763,18.481-24.451,18.481h-50.112"/>
			<path d="M241.766,41.533c0,0,0.473-0.013,1.358-0.038c0.875-0.03,2.284-0.014,3.982,0.066c1.718,0.105,3.824,0.26,6.24,0.785
				c2.403,0.533,5.189,1.354,7.964,3.154c2.783,1.745,5.274,4.896,6.34,8.501c0.546,1.79,0.842,3.644,0.958,5.485
				c0.066,0.932,0.084,1.826,0.077,2.783c-0.006,0.825-0.06,1.887-0.14,2.811c-0.181,1.919-0.545,3.923-1.3,5.906
				c-0.756,1.972-1.928,3.913-3.505,5.462c-1.553,1.575-3.435,2.743-5.355,3.599c-1.931,0.849-3.918,1.413-5.896,1.806
				c-3.95,0.766-7.92,0.932-11.685,0.848c-3.719-0.042-7.38-0.084-10.922-0.125c-7.084-0.09-13.697-0.174-19.364-0.246
				c-11.335-0.202-18.892-0.336-18.892-0.336v-3c0,0,7.557-0.135,18.892-0.336c5.668-0.072,12.28-0.156,19.364-0.246
				c3.542-0.04,7.203-0.082,10.922-0.125c3.666-0.031,7.288-0.233,10.753-0.963c3.433-0.726,6.67-2.045,8.767-4.24
				c2.127-2.156,3.053-5.203,3.281-8.427c0.2-3.287,0.071-6.542-0.748-9.166c-0.794-2.644-2.333-4.589-4.295-5.938
				c-1.949-1.367-4.208-2.16-6.267-2.678c-2.076-0.497-3.97-0.793-5.544-0.972c-1.598-0.171-2.786-0.242-3.682-0.298
				c-0.885-0.048-1.357-0.073-1.357-0.073L241.766,41.533z"/>
		</g>
		<path style="fill:#FFFFFF;stroke:#000000;stroke-width:5;stroke-miterlimit:10;" d="M151.671,152.85h63.937
			c16.551,0,25.965-8.414,25.965-18.794V96.469v12.529V71.41c0-8.143,3.939-17.04,6.801-18.835
			c2.862-1.795,20.148-6.223,20.148-18.961v-12.32c0-10.38-0.409-18.794-16.959-18.794h-71.11h1.852H38.42
			C5.319,2.5,2.5,19.329,2.5,40.088v75.175c0,20.759,2.819,37.588,35.92,37.588h143.885"/>
	</g>
</g>
<g id="Layer_1">
</g>
</svg>
