<?xml version="1.0" encoding="iso-8859-1"?>
<!-- Generator: Adobe Illustrator 22.0.1, SVG Export Plug-In . SVG Version: 6.00 Build 0)  -->
<svg version="1.1" xmlns="http://www.w3.org/2000/svg" xmlns:xlink="http://www.w3.org/1999/xlink" x="0px" y="0px"
	 viewBox="0 0 134.048 163.333" style="enable-background:new 0 0 134.048 163.333;" xml:space="preserve">
<g id="sama">
	<g>
		<path style="fill:#FFFFFF;stroke:#000000;stroke-width:5;stroke-linecap:round;stroke-linejoin:round;stroke-miterlimit:10;" d="
			M78.928,7.156c8.562-1.534,15.519-4.119,23.797-4.119c11.768,0,17.702,6.68,17.702,14.921l0,0c0,8.241-6.329,14.921-17.702,14.921
			c-7.969,0-12.976-3.665-21.791-5.859"/>
		<path style="fill:#FFFFFF;stroke:#000000;stroke-width:5;stroke-linecap:round;stroke-linejoin:round;stroke-miterlimit:10;" d="
			M52.574,27.147c-8.552,2.205-13.57,5.732-21.251,5.732c-11.175,0-17.702-6.68-17.702-14.921l0,0
			c0-8.241,8.405-14.921,17.702-14.921c6.577,0,14.293,2.616,23.497,4.146"/>
		<path style="fill:#FFFFFF;stroke:#000000;stroke-width:5;stroke-linecap:round;stroke-linejoin:round;stroke-miterlimit:10;" d="
			M26.564,16.987c0,0,5.334,2.439,11.8,2.439"/>
		<path style="fill:#FFFFFF;stroke:#000000;stroke-width:5;stroke-linecap:round;stroke-linejoin:round;stroke-miterlimit:10;" d="
			M107.484,16.959c0,0-5.456,2.494-12.069,2.494"/>
		<path style="fill:#FFFFFF;stroke:#000000;stroke-width:5;stroke-linecap:round;stroke-linejoin:round;stroke-miterlimit:10;" d="
			M131.548,60.84c0-17.818-14.444-32.262-32.262-32.262h-12.1c0-14.403-9.028-26.078-20.164-26.078S46.859,14.176,46.859,28.578
			H34.762C16.944,28.578,2.5,43.023,2.5,60.84l0,67.731c0,17.818,14.444,32.262,32.262,32.262h64.524
			c17.818,0,32.262-14.444,32.262-32.262L131.548,60.84L131.548,60.84z"/>
		<path style="fill:none;stroke:#000000;stroke-width:5;stroke-linecap:round;stroke-linejoin:round;stroke-miterlimit:10;" d="
			M86.735,5.36c5.335,5.157,8.653,12.389,8.653,20.395c0,1.064-0.059,2.114-0.173,3.147"/>
		<path style="fill:none;stroke:#000000;stroke-width:5;stroke-linecap:round;stroke-linejoin:round;stroke-miterlimit:10;" d="
			M38.823,28.815c-0.108-1.005-0.163-2.026-0.163-3.059c0-7.832,3.175-14.923,8.308-20.056"/>
	</g>
</g>
<g id="Layer_1">
</g>
</svg>
