<?xml version="1.0" encoding="iso-8859-1"?>
<!-- Generator: Adobe Illustrator 22.0.1, SVG Export Plug-In . SVG Version: 6.00 Build 0)  -->
<svg version="1.1" xmlns="http://www.w3.org/2000/svg" xmlns:xlink="http://www.w3.org/1999/xlink" x="0px" y="0px"
	 viewBox="0 0 134.048 190.667" style="enable-background:new 0 0 134.048 190.667;" xml:space="preserve">
<g id="tan">
	<path style="fill:#FFFFFF;stroke:#000000;stroke-width:5;stroke-miterlimit:10;" d="M131.548,155.905
		c0,17.818-14.444,32.262-32.262,32.262H34.762c-17.818,0-32.262-14.444-32.262-32.262V88.931c0-35.636,28.888-64.524,64.524-64.524
		s64.524,28.888,64.524,64.524V155.905z"/>
	<path style="fill:#FFFFFF;stroke:#000000;stroke-width:5;stroke-linecap:round;stroke-linejoin:round;stroke-miterlimit:10;" d="
		M67.087,21.63c-26.988,0-48.866,9.681-48.866,21.624c0,9.425,13.629,17.436,32.638,20.398l16.228-11.174l16.228,11.174
		c19.009-2.962,32.638-10.973,32.638-20.398C115.953,31.312,94.075,21.63,67.087,21.63z"/>
	<path style="fill:none;stroke:#000000;stroke-width:5;stroke-linecap:round;stroke-linejoin:round;stroke-miterlimit:10;" d="
		M54.177,27.997v4.41c0,6.679,5.78,12.093,12.91,12.093s12.91-5.414,12.91-12.093v-4.41"/>
	
		<ellipse style="fill:#FFFFFF;stroke:#000000;stroke-width:5;stroke-linecap:round;stroke-linejoin:round;stroke-miterlimit:10;" cx="67.087" cy="16.094" rx="28.903" ry="13.594"/>
</g>
<g id="Layer_1">
</g>
</svg>
