<?xml version="1.0" encoding="iso-8859-1"?>
<!-- Generator: Adobe Illustrator 19.2.1, SVG Export Plug-In . SVG Version: 6.00 Build 0)  -->
<!DOCTYPE svg PUBLIC "-//W3C//DTD SVG 1.1//EN" "http://www.w3.org/Graphics/SVG/1.1/DTD/svg11.dtd">
<svg version="1.1" xmlns="http://www.w3.org/2000/svg" xmlns:xlink="http://www.w3.org/1999/xlink" x="0px" y="0px"
	 viewBox="0 0 134.394 177.165" style="enable-background:new 0 0 134.394 177.165;" xml:space="preserve">
<g id="lon">
	<path style="fill:#FFFFFF;stroke:#000000;stroke-width:5;stroke-miterlimit:10;" d="M131.894,142.317
		c0,17.866-14.483,32.348-32.348,32.348H34.848c-17.866,0-32.348-14.483-32.348-32.348V77.62c0-17.866,14.483-32.348,32.348-32.348
		h64.697c17.866,0,32.348,14.483,32.348,32.348V142.317z"/>
	<path style="fill:#FFFFFF;stroke:#000000;stroke-width:5;stroke-linecap:round;stroke-linejoin:round;stroke-miterlimit:10;" d="
		M82.159,22.269c18.877,3.644,30.865,12.551,30.865,25.878c0,16.278-24.98,8.626-45.827,29.473
		C46.35,56.773,21.37,64.425,21.37,48.147c0-13.181,12.375-22.184,30.934-25.952"/>
	
		<ellipse style="fill:#FFFFFF;stroke:#000000;stroke-width:5;stroke-miterlimit:10;" cx="67.197" cy="26.222" rx="14.557" ry="23.722"/>
</g>
<g id="Layer_1">
</g>
</svg>
