<?xml version="1.0" encoding="iso-8859-1"?>
<!-- Generator: Adobe Illustrator 22.0.1, SVG Export Plug-In . SVG Version: 6.00 Build 0)  -->
<svg version="1.1" xmlns="http://www.w3.org/2000/svg" xmlns:xlink="http://www.w3.org/1999/xlink" x="0px" y="0px"
	 viewBox="0 0 135.426 192.643" style="enable-background:new 0 0 135.426 192.643;" xml:space="preserve">
<g id="poka">
	<path style="fill:#FFFFFF;stroke:#000000;stroke-width:5;stroke-miterlimit:10;" d="M2.798,61.436
		c0-32.152,35.315-62.116,71.166-58.664s58.664,31.406,58.664,71.166s0.298,83.598,0.298,83.598
		c0,18.008-14.598,32.607-32.607,32.607H35.107c-18.008,0-32.607-14.598-32.607-32.607C2.5,157.536,2.798,93.588,2.798,61.436z"/>
	<path style="fill:none;stroke:#000000;stroke-width:5;stroke-linecap:round;stroke-linejoin:round;stroke-miterlimit:10;" d="
		M50.36,5.483c13.197,15.187,8.944,40.038,7.031,59.083"/>
	<path style="fill:none;stroke:#000000;stroke-width:5;stroke-linecap:round;stroke-linejoin:round;stroke-miterlimit:10;" d="
		M68.463,3.568c13.661,15.72,9.258,41.443,7.278,61.156"/>
	
		<ellipse style="fill:none;stroke:#000000;stroke-width:5;stroke-linecap:round;stroke-linejoin:round;stroke-miterlimit:10;" cx="35.296" cy="38.453" rx="11.429" ry="10.958"/>
	
		<ellipse style="fill:none;stroke:#000000;stroke-width:5;stroke-linecap:round;stroke-linejoin:round;stroke-miterlimit:10;" cx="100.13" cy="38.482" rx="11.429" ry="10.958"/>
	<path style="fill:none;stroke:#000000;stroke-width:5;stroke-linecap:round;stroke-linejoin:round;stroke-miterlimit:10;" d="
		M131.547,55.645c-14.712,5.988-37.495,9.831-63.069,9.831c-26.478,0-49.964-4.119-64.599-10.474"/>
</g>
<g id="Layer_1">
</g>
</svg>
