<?xml version="1.0" encoding="iso-8859-1"?>
<!-- Generator: Adobe Illustrator 22.0.1, SVG Export Plug-In . SVG Version: 6.00 Build 0)  -->
<svg version="1.1" xmlns="http://www.w3.org/2000/svg" xmlns:xlink="http://www.w3.org/1999/xlink" x="0px" y="0px"
	 viewBox="0 0 290.108 147.752" style="enable-background:new 0 0 290.108 147.752;" xml:space="preserve">
<g id="kepeken-wide">
	<path style="fill:#FFFFFF;stroke:#000000;stroke-width:5;stroke-linecap:round;stroke-linejoin:round;stroke-miterlimit:10;" d="
		M253.107,145.252c25.65,0,34.501-8.33,34.501-18.605c0-14.451-21.527-16.436-33.598-16.436c12.071,0,33.598,0.182,33.598-16.075
		s-21.527-16.436-33.598-16.436c12.071,0,33.598-6.325,33.598-22.582s-39.233-12.498-39.233-12.498
		c10.149-10.373,20.452-28.355,11.176-36.81c-10.79-9.835-39.051,4.965-45.062,9.341L29.176,15.196
		C17.205,15.196,2.5,24.9,2.5,36.872v86.704c0,11.971,14.705,21.676,26.676,21.676H253.107z"/>
	<path style="fill:none;stroke:#000000;stroke-width:5;stroke-miterlimit:10;" d="M187.206,15.196
		c-12.225,12.432-20.937,30.148-24.529,47.902"/>
	<path style="fill:none;stroke:#000000;stroke-width:5;stroke-miterlimit:10;" d="M214.586,15.196
		c-17.105,16.682-27.725,38.977-27.725,64.757c0,25.361,10.278,48.854,26.897,65.475"/>
	<path style="fill:none;stroke:#000000;stroke-width:5;stroke-miterlimit:10;" d="M162.153,96.03
		c3.321,19.545,12.817,36.136,26.409,49.398"/>
	<path style="fill:none;stroke:#000000;stroke-width:5;stroke-miterlimit:10;" d="M189.658,57.597
		c-19.154,0-37.481,5.683-37.481,21.947s18.056,21.947,37.21,21.947"/>
</g>
<g id="Layer_1">
</g>
</svg>
