<svg xmlns="http://www.w3.org/2000/svg" viewBox="-2 -2 138.048 167.333" preserveAspectRatio="none"><g stroke="#000" stroke-width="5" stroke-linecap="round" stroke-linejoin="round" stroke-miterlimit="10" id="sama"><path d="M78.928 7.156c8.562-1.534 15.52-4.12 23.797-4.12 11.768 0 17.702 6.68 17.702 14.922 0 8.24-6.33 14.92-17.702 14.92-7.97 0-12.976-3.664-21.79-5.858M52.574 27.147c-8.552 2.205-13.57 5.732-21.25 5.732-11.176 0-17.703-6.68-17.703-14.922 0-8.24 8.406-14.92 17.703-14.92 6.577 0 14.293 2.615 23.497 4.145M26.564 16.987s5.334 2.44 11.8 2.44M107.484 16.96s-5.456 2.493-12.07 2.493" fill="#FFF"/><path d="M131.548 60.84c0-17.818-14.444-32.262-32.262-32.262h-12.1c0-14.403-9.028-26.078-20.164-26.078S46.86 14.176 46.86 28.578H34.76C16.944 28.578 2.5 43.023 2.5 60.84v67.73c0 17.82 14.444 32.263 32.262 32.263h64.524c17.818 0 32.262-14.444 32.262-32.262V60.84z" fill="#FFF"/><path d="M86.735 5.36c5.335 5.157 8.653 12.39 8.653 20.395 0 1.064-.06 2.114-.173 3.147M38.823 28.815a28.63 28.63 0 0 1-.163-3.06c0-7.83 3.175-14.922 8.308-20.055" fill="none"/></g><style>ellipse,polygon,polyline,rect,circle,line,path{stroke-width:2;vector-effect:non-scaling-stroke}</style></svg>