<?xml version="1.0" encoding="utf-8"?>
<!-- Generator: Adobe Illustrator 20.1.0, SVG Export Plug-In . SVG Version: 6.00 Build 0)  -->
<svg version="1.1" id="Layer_2" xmlns="http://www.w3.org/2000/svg" xmlns:xlink="http://www.w3.org/1999/xlink" x="0px" y="0px"
	 viewBox="0 0 288.8 156.6" style="enable-background:new 0 0 288.8 156.6;" xml:space="preserve">
<style type="text/css">
	.st0{fill:#FFFFFF;stroke:#1D1D1B;stroke-width:5;stroke-miterlimit:10;}
	.st1{fill:#FFFFFF;}
	.st2{fill:#1D1D1B;}
	.st3{fill:#FFFFFF;stroke:#1D1D1B;stroke-width:4;stroke-linecap:round;stroke-linejoin:round;stroke-miterlimit:10;}
</style>
<g>
	<path class="st0" d="M286.6,110.3c0,17.9-14.6,32.5-32.5,32.5h-175c-17.9,0-32.5-14.6-32.5-32.5v-65c0-17.9,14.6-32.5,32.5-32.5
		h175c17.9,0,32.5,14.6,32.5,32.5V110.3z"/>
	<g>
		<g>
			<g>
				<path class="st1" d="M3.3,52.5c6-13.2,16.6-22,28.7-22c18.8,0,34,21.2,34,47.4s-15.2,47.4-34,47.4c-12.1,0-22.6-8.8-28.7-22.1
					l16-12.6l-16-12.7l16-12.5L3.3,52.5z"/>
				<path class="st2" d="M1,51.4c0.5-1,0.9-1.9,1.5-2.9c0.6-1,1.1-2,1.7-2.9c1.2-1.9,2.6-3.7,4-5.4c1.5-1.7,3.1-3.3,4.9-4.7
					c0.9-0.8,1.8-1.4,2.7-2c1-0.6,1.9-1.2,3-1.7c4.1-2.2,8.7-3.3,13.4-3.2c0.5,0,1,0,1.6,0.1l1.8,0.2l1.7,0.3
					c0.6,0.1,1.1,0.3,1.7,0.4c2.2,0.6,4.4,1.5,6.4,2.7c4,2.2,7.4,5.3,10.3,8.8c2.9,3.5,5.1,7.3,6.9,11.4c1.8,4.1,3.1,8.3,3.9,12.6
					c0.9,4.3,1.2,8.7,1.3,13.2c0,1.1,0,2.1-0.1,3.2l-0.1,1.7l-0.1,1.6c-0.2,2.2-0.5,4.4-1,6.5c-0.8,4.3-2.2,8.6-4,12.6
					c-1.8,4-4.1,7.9-7,11.4c-2.9,3.5-6.3,6.5-10.3,8.8c-4,2.2-8.6,3.6-13.2,3.6l-0.2,0l-0.3,0l-0.4,0l-0.8,0l-0.8,0l-0.9-0.1
					c-0.6-0.1-1.2-0.1-1.8-0.2l-1.7-0.4c-2.2-0.6-4.4-1.4-6.5-2.5l-0.8-0.4l-0.7-0.4c-0.5-0.3-1-0.6-1.5-0.9
					c-0.9-0.7-1.9-1.3-2.7-2.1c-1.8-1.4-3.4-3.1-4.9-4.8c-2.9-3.4-5.3-7.3-7.2-11.3l0,0l-0.8-1.8l1.6-1.2L18,89l0,0l0,3.1L1.7,79.8
					l0,0l-2.5-2.1l2.5-1.9L18,63.8l0,0l0,3.1L0.1,53.2L1,51.4z M6.4,51.8l14.1,12l2,1.7l-2,1.5l0,0L4.8,79.8l0-3.9l0,0L20.5,89
					l2,1.6l-2,1.5l0,0l-15.7,13l0.7-3l0,0c1.7,3.7,3.8,7.2,6.3,10.3c1.3,1.5,2.7,3,4.2,4.3c0.7,0.7,1.6,1.2,2.3,1.8
					c0.4,0.3,0.8,0.5,1.2,0.8l0.6,0.4l0.7,0.3c1.7,1,3.6,1.6,5.4,2.2l1.4,0.3c0.5,0.1,0.9,0.1,1.4,0.2l0.7,0.1l0.8,0l0.8,0l0.4,0
					l0.1,0l0,0c0,0,0.1,0,0,0l0.2,0c3.9,0,7.8-1.1,11.2-3c3.5-1.9,6.6-4.6,9.2-7.7c2.6-3.1,4.7-6.7,6.4-10.4
					c1.7-3.8,2.9-7.7,3.7-11.8c0.4-2,0.7-4.1,0.9-6.1l0.1-1.5l0.1-1.5c0.1-1,0.1-2.1,0.1-3.2c0-4.1-0.4-8.3-1.2-12.3
					c-0.8-4.1-2-8-3.7-11.8c-1.7-3.7-3.8-7.3-6.4-10.4c-2.6-3.1-5.7-5.8-9.1-7.7c-3.5-1.9-7.3-3-11.3-3c-3.8,0-7.7,1-11.2,2.9
					c-0.9,0.4-1.7,1-2.5,1.5c-0.8,0.6-1.6,1.1-2.4,1.8c-1.5,1.3-2.9,2.7-4.2,4.3c-1.3,1.6-2.5,3.2-3.5,4.9c-0.6,0.9-1,1.7-1.5,2.6
					C6.7,51,6.5,51.4,6.4,51.8z"/>
			</g>
			<circle class="st3" cx="38.4" cy="78" r="12.4"/>
			<circle class="st2" cx="38.4" cy="78" r="5.5"/>
		</g>
		<g>
			<path class="st1" d="M69,113.1C62.7,104,58.9,91.6,58.9,78c0-13.4,3.7-25.6,9.8-34.6"/>
			<path class="st2" d="M67.7,113.9c0,0-0.7-0.9-1.8-2.6c-0.6-0.8-1.2-1.9-1.9-3.2c-0.3-0.6-0.8-1.3-1.1-2.1
				c-0.3-0.7-0.7-1.5-1.1-2.3c-0.2-0.4-0.4-0.8-0.6-1.2c-0.2-0.4-0.3-0.9-0.5-1.3c-0.3-0.9-0.7-1.8-1-2.8c-0.3-1-0.6-2-0.9-3
				c-0.3-1-0.6-2.1-0.8-3.2c-0.2-1.1-0.4-2.2-0.6-3.3c-0.2-1.1-0.3-2.3-0.4-3.4c-0.3-2.3-0.3-4.7-0.4-7.1l0-0.2l0-0.1l0-0.1l0-0.1
				l0-0.4l0-0.9l0.1-1.7l0.1-1.7c0-0.6,0.1-1.2,0.2-1.8c0.1-1.2,0.2-2.4,0.4-3.5c0.2-1.1,0.4-2.2,0.6-3.3c0.2-1.1,0.4-2.2,0.7-3.2
				c0.3-1,0.5-2,0.8-3c0.3-1,0.7-1.9,1-2.8c0.2-0.5,0.3-0.9,0.5-1.3c0.2-0.4,0.4-0.8,0.5-1.2c0.7-1.6,1.4-3.1,2.1-4.4
				c0.7-1.3,1.3-2.4,1.9-3.2c1.2-1.7,1.8-2.7,1.8-2.7c0.5-0.7,1.4-0.9,2.1-0.4c0.6,0.4,0.8,1.3,0.5,2l-0.1,0.1c0,0-0.5,1-1.5,2.7
				c-0.5,0.8-1,1.9-1.5,3.2c-0.6,1.2-1.1,2.7-1.7,4.2c-0.1,0.4-0.3,0.8-0.5,1.2c-0.1,0.4-0.3,0.8-0.4,1.3c-0.3,0.9-0.5,1.7-0.8,2.7
				c-0.2,0.9-0.4,1.9-0.7,2.9c-0.1,0.5-0.2,1-0.3,1.5c-0.1,0.5-0.2,1-0.3,1.5c-0.2,1-0.3,2.1-0.5,3.1c-0.1,1.1-0.2,2.1-0.3,3.2
				c-0.1,0.5-0.1,1.1-0.2,1.6l-0.1,1.7l-0.1,1.7l0,0.9l0,0.4l0,0.1c0,0,0,0.1,0-0.1l0,0l0,0.1l0,0.2c0.1,2.2,0.1,4.5,0.4,6.6
				c0.1,1.1,0.2,2.2,0.4,3.2c0.2,1.1,0.4,2.1,0.5,3.1c0.1,1,0.4,2,0.6,3c0.2,1,0.4,1.9,0.7,2.9c0.3,0.9,0.6,1.8,0.8,2.7
				c0.1,0.4,0.3,0.9,0.4,1.3c0.2,0.4,0.3,0.8,0.5,1.2c0.6,1.6,1.1,3,1.7,4.2c0.6,1.2,1,2.3,1.6,3.1c1,1.8,1.6,2.8,1.6,2.8
				c0.4,0.7,0.2,1.6-0.6,2C69,114.7,68.2,114.5,67.7,113.9z"/>
		</g>
	</g>
</g>
</svg>
