<svg xmlns="http://www.w3.org/2000/svg" viewBox="-2 -2 294.108 151.752" preserveAspectRatio="none"><g id="kepeken-wide" stroke="#000" stroke-width="5" stroke-miterlimit="10"><path d="M253.107 145.252c25.65 0 34.5-8.33 34.5-18.605 0-14.45-21.526-16.436-33.597-16.436 12.07 0 33.598.183 33.598-16.074S266.08 77.7 254.01 77.7c12.07 0 33.598-6.325 33.598-22.582S248.375 42.62 248.375 42.62c10.15-10.373 20.452-28.355 11.176-36.81-10.79-9.835-39.05 4.965-45.06 9.34l-185.314.046C17.206 15.196 2.5 24.9 2.5 36.872v86.704c0 11.97 14.705 21.676 26.676 21.676h223.93z" fill="#FFF" stroke-linecap="round" stroke-linejoin="round"/><path d="M187.206 15.196c-12.225 12.432-20.937 30.148-24.53 47.902M214.586 15.196C197.48 31.878 186.86 54.173 186.86 79.953c0 25.36 10.28 48.854 26.898 65.475M162.153 96.03c3.32 19.545 12.817 36.136 26.41 49.398" fill="none"/><path d="M189.658 57.597c-19.154 0-37.48 5.683-37.48 21.947s18.055 21.947 37.21 21.947" fill="none"/></g><style>ellipse,polygon,polyline,rect,circle,line,path{stroke-width:2;vector-effect:non-scaling-stroke}</style></svg>