<?xml version="1.0" encoding="iso-8859-1"?>
<!-- Generator: Adobe Illustrator 22.0.1, SVG Export Plug-In . SVG Version: 6.00 Build 0)  -->
<svg version="1.1" xmlns="http://www.w3.org/2000/svg" xmlns:xlink="http://www.w3.org/1999/xlink" x="0px" y="0px"
	 viewBox="0 0 250.658 134.048" style="enable-background:new 0 0 250.658 134.048;" xml:space="preserve">
<g id="sama-wide">
	<g>
		<g>
			<path style="fill:#FFFFFF;stroke:#000000;stroke-width:5;stroke-linecap:round;stroke-linejoin:round;stroke-miterlimit:10;" d="
				M243.503,78.928c1.534,8.562,4.119,15.519,4.119,23.797c0,11.768-6.68,17.702-14.921,17.702l0,0
				c-8.241,0-14.921-6.329-14.921-17.702c0-7.969,3.665-12.976,5.859-21.791"/>
			<path style="fill:#FFFFFF;stroke:#000000;stroke-width:5;stroke-linecap:round;stroke-linejoin:round;stroke-miterlimit:10;" d="
				M223.512,52.574c-2.205-8.552-5.732-13.57-5.732-21.251c0-11.175,6.68-17.702,14.921-17.702l0,0
				c8.241,0,14.921,8.405,14.921,17.702c0,6.577-2.616,14.293-4.146,23.497"/>
			<path style="fill:#FFFFFF;stroke:#000000;stroke-width:5;stroke-linecap:round;stroke-linejoin:round;stroke-miterlimit:10;" d="
				M233.672,26.564c0,0-2.439,5.334-2.439,11.8"/>
			<path style="fill:#FFFFFF;stroke:#000000;stroke-width:5;stroke-linecap:round;stroke-linejoin:round;stroke-miterlimit:10;" d="
				M233.699,107.484c0,0-2.494-5.456-2.494-12.069"/>
		</g>
		<path style="fill:#FFFFFF;stroke:#000000;stroke-width:5;stroke-linecap:round;stroke-linejoin:round;stroke-miterlimit:10;" d="
			M189.818,131.548c17.818,0,32.262-14.444,32.262-32.262v-12.1c14.403,0,26.078-9.028,26.078-20.164s-11.676-20.164-26.078-20.164
			V34.762c0-17.818-14.444-32.262-32.262-32.262l-155.056,0C16.944,2.5,2.5,16.944,2.5,34.762v64.524
			c0,17.818,14.444,32.262,32.262,32.262L189.818,131.548L189.818,131.548z"/>
		<path style="fill:none;stroke:#000000;stroke-width:5;stroke-linecap:round;stroke-linejoin:round;stroke-miterlimit:10;" d="
			M245.298,86.735c-5.157,5.335-12.389,8.653-20.395,8.653c-1.064,0-2.114-0.059-3.147-0.173"/>
		<path style="fill:none;stroke:#000000;stroke-width:5;stroke-linecap:round;stroke-linejoin:round;stroke-miterlimit:10;" d="
			M221.844,38.823c1.005-0.108,2.026-0.163,3.059-0.163c7.832,0,14.923,3.175,20.056,8.308"/>
	</g>
</g>
<g id="Layer_1">
</g>
</svg>
