<?xml version="1.0" encoding="iso-8859-1"?>
<!-- Generator: Adobe Illustrator 19.2.1, SVG Export Plug-In . SVG Version: 6.00 Build 0)  -->
<!DOCTYPE svg PUBLIC "-//W3C//DTD SVG 1.1//EN" "http://www.w3.org/Graphics/SVG/1.1/DTD/svg11.dtd">
<svg version="1.1" xmlns="http://www.w3.org/2000/svg" xmlns:xlink="http://www.w3.org/1999/xlink" x="0px" y="0px"
	 viewBox="0 0 171.242 151.898" style="enable-background:new 0 0 171.242 151.898;" xml:space="preserve">
<g id="tawa">
	<path style="fill:#FFFFFF;stroke:#000000;stroke-width:5;stroke-miterlimit:10;" d="M132.5,116.898c0,17.949-14.551,32.5-32.5,32.5
		H35c-17.949,0-32.5-14.551-32.5-32.5v-65c0-17.949,14.551-32.5,32.5-32.5h65c17.949,0,32.5,14.551,32.5,32.5V116.898z"/>
	<g>
		<path style="fill:#FFFFFF;stroke:#000000;stroke-width:5;stroke-linecap:round;stroke-linejoin:round;stroke-miterlimit:10;" d="
			M150.004,47.034c9.21-3.899,14.238-14.572,9.635-24.326C153.297,9.272,138.84,1.973,119.803,2.53
			C105.765,2.94,82.258,21.545,82.258,21.545s17.396,3.707,26.828,22.36c7.63,15.088,5.295,23.018,15.438,36.407
			c7.545,9.96,18.073,13.194,27,7.162c7.292-4.927,8.12-14.816,2.781-22.718C154.307,64.757,146.118,48.68,150.004,47.034z"/>
		<path style="fill:#FFFFFF;stroke:#000000;stroke-width:5;stroke-linecap:round;stroke-linejoin:round;stroke-miterlimit:10;" d="
			M82.258,21.545c0,0,18.57-13.879,40.099,1.885c20.299,14.864,24.775,9.446,36.266,16.811c9.045,5.797,11.171,15.723,9.688,20.846
			c-2.856,9.868-17.023,19.801-34.737-3.162C115.297,34.233,107.614,19.498,82.258,21.545z"/>
	</g>
</g>
<g id="Layer_1">
</g>
</svg>
