<?xml version="1.0" encoding="iso-8859-1"?>
<!-- Generator: Adobe Illustrator 22.0.1, SVG Export Plug-In . SVG Version: 6.00 Build 0)  -->
<svg version="1.1" xmlns="http://www.w3.org/2000/svg" xmlns:xlink="http://www.w3.org/1999/xlink" x="0px" y="0px"
	 viewBox="0 0 147.752 219.108" style="enable-background:new 0 0 147.752 219.108;" xml:space="preserve">
<g id="kepeken">
	<path style="fill:#FFFFFF;stroke:#000000;stroke-width:5;stroke-linecap:round;stroke-linejoin:round;stroke-miterlimit:10;" d="
		M2.5,37.001C2.5,11.351,10.83,2.5,21.105,2.5c14.451,0,16.436,21.527,16.436,33.598C37.542,24.027,37.36,2.5,53.617,2.5
		s16.436,21.527,16.436,33.598c0-12.071,6.325-33.598,22.582-33.598s12.498,39.233,12.498,39.233
		c10.373-10.149,28.355-20.452,36.81-11.176c9.835,10.79-4.965,39.051-9.341,45.062l-0.045,119.314
		c0,11.971-9.705,21.676-21.676,21.676H24.176c-11.971,0-21.676-9.705-21.676-21.676V37.001z"/>
	<path style="fill:none;stroke:#000000;stroke-width:5;stroke-miterlimit:10;" d="M132.556,75.523
		c-16.682,17.105-38.977,27.725-64.757,27.725c-25.361,0-48.854-10.278-65.475-26.897"/>
	<path style="fill:none;stroke:#000000;stroke-width:5;stroke-miterlimit:10;" d="M51.722,127.956
		c-19.545-3.321-36.136-12.817-49.398-26.409"/>
	<path style="fill:none;stroke:#000000;stroke-width:5;stroke-miterlimit:10;" d="M132.556,102.903
		c-12.432,12.225-30.148,20.937-47.902,24.529"/>
	<path style="fill:none;stroke:#000000;stroke-width:5;stroke-miterlimit:10;" d="M90.155,100.451
		c0,19.154-5.683,37.481-21.947,37.481s-21.947-18.056-21.947-37.21"/>
</g>
<g id="Layer_1">
</g>
</svg>
