<?xml version="1.0" encoding="utf-8"?>
<!-- Generator: Adobe Illustrator 20.1.0, SVG Export Plug-In . SVG Version: 6.00 Build 0)  -->
<svg version="1.1" id="Layer_2" xmlns="http://www.w3.org/2000/svg" xmlns:xlink="http://www.w3.org/1999/xlink" x="0px" y="0px"
	 viewBox="0 0 138 281.7" style="enable-background:new 0 0 138 281.7;" xml:space="preserve">
<style type="text/css">
	.st0{fill:#FFFFFF;stroke:#1D1D1B;stroke-width:5;stroke-miterlimit:10;}
	.st1{fill:#FFFFFF;}
	.st2{fill:#1D1D1B;}
	.st3{fill:#FFFFFF;stroke:#1D1D1B;stroke-width:4;stroke-linecap:round;stroke-linejoin:round;stroke-miterlimit:10;}
	.st4{fill:#FFFFFF;stroke:#1D1D1B;stroke-width:4.5;stroke-linecap:round;stroke-linejoin:round;stroke-miterlimit:10;}
</style>
<g>
	<path class="st0" d="M36.6,283.7c-17.9,0-32.5-14.6-32.5-32.5v-175c0-17.9,14.6-32.5,32.5-32.5h65c17.9,0,32.5,14.6,32.5,32.5v175
		c0,17.9-14.6,32.5-32.5,32.5H36.6z"/>
	<g>
		<path class="st1" d="M94.5,0.4c13.2,6,22,16.6,22,28.7c0,18.8-21.2,34-47.4,34S21.7,47.8,21.7,29c0-12.1,8.8-22.6,22.1-28.7
			l12.6,16l12.7-16l12.5,16L94.5,0.4z"/>
		<path class="st2" d="M95.6-1.9c1,0.5,1.9,0.9,2.9,1.5c1,0.6,2,1.1,2.9,1.7c1.9,1.2,3.7,2.6,5.4,4c1.7,1.5,3.3,3.1,4.7,4.9
			c0.8,0.9,1.4,1.8,2,2.7c0.6,1,1.2,1.9,1.7,3c2.2,4.1,3.3,8.7,3.2,13.4c0,0.5,0,1-0.1,1.6l-0.2,1.8l-0.3,1.7
			c-0.1,0.6-0.3,1.1-0.4,1.7c-0.6,2.2-1.5,4.4-2.7,6.4c-2.2,4-5.3,7.4-8.8,10.3c-3.5,2.9-7.3,5.1-11.4,6.9
			c-4.1,1.8-8.3,3.1-12.6,3.9C77.8,64.6,73.4,65,69,65c-1.1,0-2.1,0-3.2-0.1l-1.7-0.1l-1.6-0.1c-2.2-0.2-4.4-0.5-6.5-1
			c-4.3-0.8-8.6-2.2-12.6-4c-4-1.8-7.9-4.1-11.4-7c-3.5-2.9-6.5-6.3-8.8-10.3c-2.2-4-3.6-8.6-3.6-13.2l0-0.2l0-0.3l0-0.4l0-0.8
			l0-0.8l0.1-0.9c0.1-0.6,0.1-1.2,0.2-1.8l0.4-1.7c0.6-2.2,1.4-4.4,2.5-6.5l0.4-0.8l0.4-0.7c0.3-0.5,0.6-1,0.9-1.5
			c0.7-0.9,1.3-1.9,2.1-2.7c1.4-1.8,3.1-3.4,4.8-4.9c3.4-2.9,7.3-5.3,11.3-7.2l0,0l1.8-0.8l1.2,1.6L58,15.1l0,0l-3.1,0L67.1-1.2l0,0
			l2.1-2.5L71-1.2l12.1,16.3l0,0l-3.1,0L93.8-2.8L95.6-1.9z M95.1,3.5l-12,14.1l-1.7,2l-1.5-2l0,0L67.1,1.9l3.9,0l0,0L58,17.6
			l-1.6,2l-1.5-2l0,0l-13-15.7l3,0.7l0,0C41.1,4.3,37.6,6.4,34.5,9c-1.5,1.3-3,2.7-4.3,4.2c-0.7,0.7-1.2,1.6-1.8,2.3
			c-0.3,0.4-0.5,0.8-0.8,1.2l-0.4,0.6L26.8,18c-1,1.7-1.6,3.6-2.2,5.4l-0.3,1.4c-0.1,0.5-0.1,0.9-0.2,1.4L24,26.9l0,0.8l0,0.8l0,0.4
			l0,0.1l0,0c0,0,0,0.1,0,0l0,0.2c0,3.9,1.1,7.8,3,11.2c1.9,3.5,4.6,6.6,7.7,9.2c3.1,2.6,6.7,4.7,10.4,6.4c3.8,1.7,7.7,2.9,11.8,3.7
			c2,0.4,4.1,0.7,6.1,0.9l1.5,0.1l1.5,0.1c1,0.1,2.1,0.1,3.2,0.1c4.1,0,8.3-0.4,12.3-1.2c4.1-0.8,8-2,11.8-3.7
			c3.7-1.7,7.3-3.8,10.4-6.4c3.1-2.6,5.8-5.7,7.7-9.1c1.9-3.5,3-7.3,3-11.3c0-3.8-1-7.7-2.9-11.2c-0.4-0.9-1-1.7-1.5-2.5
			c-0.6-0.8-1.1-1.6-1.8-2.4c-1.3-1.5-2.7-2.9-4.3-4.2c-1.6-1.3-3.2-2.5-4.9-3.5c-0.9-0.6-1.7-1-2.6-1.5C95.9,3.8,95.5,3.7,95.1,3.5
			z"/>
	</g>
	<circle class="st3" cx="68.9" cy="35.5" r="12.4"/>
	<circle class="st2" cx="68.9" cy="35.5" r="5.5"/>
	<path class="st4" d="M33.9,66.1C43,59.8,55.3,56,69,56c13.4,0,25.6,3.7,34.6,9.8"/>
</g>
</svg>
