<?xml version="1.0" encoding="iso-8859-1"?>
<!-- Generator: Adobe Illustrator 19.2.0, SVG Export Plug-In . SVG Version: 6.00 Build 0)  -->
<!DOCTYPE svg PUBLIC "-//W3C//DTD SVG 1.1//EN" "http://www.w3.org/Graphics/SVG/1.1/DTD/svg11.dtd">
<svg version="1.1" xmlns="http://www.w3.org/2000/svg" xmlns:xlink="http://www.w3.org/1999/xlink" x="0px" y="0px"
	 viewBox="0 0 271 271" style="enable-background:new 0 0 271 271;" xml:space="preserve">
<g id="e-double">
	<g>
		<path style="fill:#FFFFFF;" d="M246.16,210.593c16.059,0,18.979,12.963,18.979,28.953S262.218,268.5,246.16,268.5h-38.898"/>
		<path d="M246.212,208.594c0,0,0.462,0.007,1.328,0.019c0.45,0.016,1.073,0.063,1.763,0.117c0.68,0.086,1.463,0.173,2.339,0.363
			c1.741,0.359,3.903,1.015,6.095,2.422c2.189,1.384,4.302,3.578,5.768,6.304c1.502,2.714,2.437,5.858,3.027,9.141
			c0.594,3.292,0.843,6.748,0.936,10.286c0.08,3.548,0.062,7.167-0.276,10.948c-0.364,3.754-1.023,7.655-2.635,11.438
			c-0.797,1.885-1.894,3.72-3.308,5.335c-1.401,1.627-3.182,2.949-5.072,3.904c-1.899,0.959-3.915,1.5-5.874,1.805
			c-1.933,0.31-3.975,0.325-5.633,0.316c-3.463-0.01-6.811-0.019-9.986-0.028c-3.175-0.021-6.176-0.04-8.947-0.058
			c-5.542-0.092-10.159-0.148-13.392-0.252c-3.233-0.098-5.08-0.153-5.08-0.153v-4c0,0,1.847-0.056,5.08-0.153
			c3.233-0.104,7.85-0.16,13.392-0.252c2.771-0.018,5.772-0.038,8.947-0.058c3.175-0.009,6.523-0.018,9.986-0.028
			c0.433,0.001,0.868,0.002,1.304,0.003l1.214-0.024c0.797-0.032,1.592-0.095,2.37-0.216c1.556-0.236,3.071-0.643,4.424-1.323
			c2.728-1.322,4.799-3.725,6.089-6.763c1.314-3.022,1.957-6.494,2.303-9.96c0.359-3.462,0.427-7.012,0.393-10.388
			c-0.044-3.385-0.243-6.63-0.74-9.597c-0.491-2.965-1.287-5.649-2.416-7.823c-1.119-2.188-2.621-3.785-4.205-4.849
			c-1.583-1.074-3.233-1.632-4.638-1.954c-0.701-0.171-1.353-0.256-1.916-0.343c-0.56-0.053-1.001-0.104-1.416-0.13
			c-0.865-0.032-1.327-0.049-1.327-0.049L246.212,208.594z"/>
	</g>
	<g>
		<path style="fill:#FFFFFF;" d="M247.711,172.806c16.059,0,18.979,12.963,18.979,28.953s-2.921,28.953-18.979,28.953h-38.898"/>
		<path d="M247.764,170.807c0,0,0.462-0.005,1.328-0.014c0.45,0.007,1.076,0.035,1.77,0.081c0.683,0.077,1.47,0.154,2.353,0.333
			c1.752,0.342,3.944,0.962,6.17,2.373c2.216,1.394,4.359,3.611,5.844,6.358c1.526,2.734,2.476,5.899,3.057,9.199
			c0.602,3.307,0.814,6.776,0.883,10.318c0.06,3.553-0.024,7.175-0.404,10.953c-0.398,3.751-1.089,7.647-2.728,11.406
			c-0.81,1.873-1.916,3.69-3.332,5.283c-1.403,1.604-3.177,2.9-5.056,3.831c-1.887,0.935-3.887,1.455-5.83,1.741
			c-1.922,0.291-3.935,0.276-5.6,0.238c-6.927-0.102-13.392-0.197-18.934-0.279c-5.542-0.117-10.159-0.215-13.392-0.283
			c-3.233-0.085-5.08-0.134-5.08-0.134v-3c0,0,1.847-0.049,5.08-0.134c3.233-0.068,7.85-0.166,13.392-0.283
			c5.542-0.082,12.007-0.177,18.934-0.279c1.795-0.012,3.317-0.056,4.922-0.314c1.572-0.254,3.103-0.682,4.468-1.387
			c2.755-1.371,4.818-3.828,6.082-6.887c1.288-3.047,1.898-6.524,2.211-9.993c0.316-3.464,0.319-7.013,0.264-10.383
			c-0.067-3.38-0.304-6.612-0.793-9.564c-0.499-2.947-1.28-5.611-2.386-7.765c-1.099-2.166-2.572-3.741-4.128-4.795
			c-1.55-1.071-3.168-1.664-4.563-2.003c-0.694-0.182-1.342-0.276-1.902-0.373c-0.557-0.061-0.995-0.131-1.409-0.166
			c-0.865-0.054-1.326-0.082-1.326-0.082L247.764,170.807z"/>
	</g>
	<g>
		<path style="fill:#FFFFFF;" d="M247.711,135.02c16.059,0,18.979,12.963,18.979,28.953s-2.921,28.953-18.979,28.953h-38.898"/>
		<path d="M247.764,133.02c0,0,0.462-0.005,1.328-0.014c0.45,0.007,1.076,0.035,1.77,0.081c0.683,0.077,1.47,0.154,2.353,0.333
			c1.752,0.341,3.944,0.962,6.17,2.373c2.216,1.394,4.359,3.61,5.844,6.358c1.526,2.734,2.476,5.898,3.057,9.199
			c0.602,3.307,0.814,6.776,0.883,10.318c0.06,3.553-0.024,7.175-0.404,10.953c-0.398,3.751-1.089,7.647-2.728,11.406
			c-0.81,1.873-1.916,3.69-3.332,5.283c-1.403,1.604-3.177,2.9-5.056,3.831c-1.887,0.935-3.887,1.455-5.83,1.741
			c-1.922,0.291-3.935,0.276-5.6,0.238c-6.927-0.102-13.392-0.197-18.934-0.279c-5.542-0.117-10.159-0.215-13.392-0.283
			c-3.233-0.085-5.08-0.134-5.08-0.134v-3c0,0,1.847-0.049,5.08-0.134c3.233-0.068,7.85-0.166,13.392-0.283
			c5.542-0.082,12.007-0.177,18.934-0.279c1.795-0.012,3.317-0.056,4.922-0.314c1.572-0.254,3.103-0.682,4.468-1.386
			c2.755-1.371,4.818-3.828,6.082-6.888c1.288-3.047,1.898-6.524,2.211-9.993c0.316-3.464,0.319-7.013,0.264-10.383
			c-0.067-3.38-0.304-6.613-0.793-9.564c-0.499-2.948-1.28-5.611-2.386-7.765c-1.099-2.167-2.572-3.741-4.128-4.795
			c-1.55-1.07-3.168-1.664-4.563-2.003c-0.694-0.182-1.342-0.276-1.902-0.373c-0.557-0.061-0.995-0.13-1.409-0.165
			c-0.865-0.054-1.326-0.082-1.326-0.082L247.764,133.02z"/>
	</g>
	<g>
		<path style="fill:#FFFFFF;" d="M247.711,97.233c16.059,0,18.979,12.963,18.979,28.953s-2.921,28.953-18.979,28.953h-38.898"/>
		<path d="M247.764,95.233c0,0,0.462-0.005,1.328-0.014c0.45,0.007,1.076,0.035,1.77,0.081c0.683,0.077,1.47,0.154,2.353,0.333
			c1.752,0.341,3.944,0.962,6.17,2.373c2.216,1.394,4.359,3.61,5.844,6.358c1.526,2.734,2.476,5.898,3.057,9.199
			c0.602,3.307,0.814,6.776,0.883,10.318c0.06,3.553-0.024,7.175-0.404,10.953c-0.398,3.752-1.089,7.647-2.728,11.406
			c-0.81,1.873-1.916,3.69-3.332,5.283c-1.403,1.604-3.177,2.9-5.056,3.831c-1.887,0.935-3.887,1.455-5.83,1.741
			c-1.922,0.291-3.935,0.276-5.6,0.238c-6.927-0.102-13.392-0.197-18.934-0.279c-5.542-0.117-10.159-0.214-13.392-0.283
			c-3.233-0.085-5.08-0.134-5.08-0.134v-3c0,0,1.847-0.049,5.08-0.134c3.233-0.068,7.85-0.166,13.392-0.283
			c5.542-0.082,12.007-0.177,18.934-0.279c1.795-0.012,3.317-0.056,4.922-0.314c1.572-0.254,3.103-0.682,4.468-1.387
			c2.755-1.371,4.818-3.828,6.082-6.887c1.288-3.047,1.898-6.524,2.211-9.993c0.316-3.464,0.319-7.013,0.264-10.383
			c-0.067-3.38-0.304-6.613-0.793-9.564c-0.499-2.947-1.28-5.611-2.386-7.765c-1.099-2.166-2.572-3.741-4.128-4.795
			c-1.55-1.07-3.168-1.664-4.563-2.003c-0.694-0.182-1.342-0.276-1.902-0.373c-0.557-0.061-0.995-0.13-1.409-0.165
			c-0.865-0.054-1.326-0.082-1.326-0.082L247.764,95.233z"/>
	</g>
	<path style="fill:#FFFFFF;stroke:#000000;stroke-width:5;stroke-miterlimit:10;" d="M177.798,268.5h49.629
		c12.847,0,20.154-13.183,20.154-29.444v-58.888v19.629v-58.888c0-12.758,1.565-23.599,5.279-29.509
		c3.714-5.91,15.639-9.75,15.639-29.707V31.944c0-16.262-0.317-29.444-13.164-29.444h-55.197h1.438H30.382
		C4.688,2.5,2.5,16.426,2.5,48.949v181.106c0,32.523,2.188,38.445,27.882,38.445h171.195"/>
</g>
<g id="Layer_1">
</g>
</svg>
