<svg xmlns="http://www.w3.org/2000/svg" viewBox="-2 -2 288.796 156.603" preserveAspectRatio="none">
    <g id="tawa-wide" fill="#FFF" stroke="#000" stroke-width="5" stroke-miterlimit="10">
        <path d="M34.762 150.103C16.944 150.103 2.5 135.66 2.5 117.84V53.318c0-17.818 14.444-32.262 32.262-32.262h154.3c35.635 0 64.523 28.888 64.523 64.524s-28.888 64.523-64.524 64.523H34.763z"/>
        <g stroke-linecap="round" stroke-linejoin="round">
            <path d="M263.558 47.034c9.21-3.9 14.238-14.572 9.635-24.326-6.342-13.436-20.8-20.735-39.836-20.178-14.038.41-37.545 19.015-37.545 19.015s17.396 3.707 26.828 22.36c7.63 15.088 5.295 23.018 15.438 36.407 7.545 9.96 18.073 13.194 27 7.162 7.292-4.927 8.12-14.816 2.78-22.718.003 0-8.186-16.076-4.3-17.722z"/>
            <path d="M195.812 21.545s18.57-13.88 40.1 1.885c20.298 14.864 24.774 9.446 36.265 16.81 9.045 5.798 11.17 15.724 9.688 20.847-2.856 9.868-17.023 19.8-34.737-3.162-18.277-23.692-25.96-38.427-51.316-36.38z"/>
        </g>
    </g>
    <style>ellipse,polygon,polyline,rect,circle,line,path{stroke-width:2;vector-effect:non-scaling-stroke}</style>
</svg>