<svg xmlns="http://www.w3.org/2000/svg" viewBox="-2 -2 283.968 139.426" preserveAspectRatio="none"><g stroke="#000" stroke-width="5" stroke-miterlimit="10" id="poka-wide"><path d="M218.532 2.798c32.152 0 62.116 35.315 58.664 71.166-3.453 35.852-31.406 58.664-71.166 58.664s-170.923.298-170.923.298C17.1 132.926 2.5 118.328 2.5 100.32V35.106C2.5 17.097 17.098 2.5 35.107 2.5c0 0 151.273.298 183.425.298z" fill="#FFF"/><path d="M274.485 50.36c-15.187 13.197-40.038 8.944-59.083 7.03M276.4 68.463c-15.72 13.66-41.443 9.258-61.156 7.278" fill="none" stroke-linecap="round" stroke-linejoin="round"/><ellipse cx="241.515" cy="35.296" rx="10.958" ry="11.429" fill="none" stroke-linecap="round" stroke-linejoin="round"/><ellipse cx="241.486" cy="100.13" rx="10.958" ry="11.429" fill="none" stroke-linecap="round" stroke-linejoin="round"/><path d="M224.323 131.547c-5.988-14.712-9.83-37.495-9.83-63.07 0-26.477 4.118-49.963 10.473-64.598" fill="none" stroke-linecap="round" stroke-linejoin="round"/></g><style>ellipse,polygon,polyline,rect,circle,line,path{stroke-width:2;vector-effect:non-scaling-stroke}</style></svg>