<?xml version="1.0" encoding="iso-8859-1"?>
<!-- Generator: Adobe Illustrator 22.0.1, SVG Export Plug-In . SVG Version: 6.00 Build 0)  -->
<svg version="1.1" xmlns="http://www.w3.org/2000/svg" xmlns:xlink="http://www.w3.org/1999/xlink" x="0px" y="0px"
	 viewBox="0 0 279.968 135.426" style="enable-background:new 0 0 279.968 135.426;" xml:space="preserve">
<g id="poka-wide">
	<g>
		<path style="fill:#FFFFFF;stroke:#000000;stroke-width:5;stroke-miterlimit:10;" d="M218.532,2.798
			c32.152,0,62.116,35.315,58.664,71.166c-3.453,35.852-31.406,58.664-71.166,58.664s-170.923,0.298-170.923,0.298
			c-18.008,0-32.607-14.598-32.607-32.607V35.107C2.5,17.098,17.098,2.5,35.107,2.5C35.107,2.5,186.38,2.798,218.532,2.798z"/>
		<path style="fill:none;stroke:#000000;stroke-width:5;stroke-linecap:round;stroke-linejoin:round;stroke-miterlimit:10;" d="
			M274.485,50.36c-15.187,13.197-40.038,8.944-59.083,7.031"/>
		<path style="fill:none;stroke:#000000;stroke-width:5;stroke-linecap:round;stroke-linejoin:round;stroke-miterlimit:10;" d="
			M276.4,68.463c-15.72,13.661-41.443,9.258-61.156,7.278"/>
		
			<ellipse style="fill:none;stroke:#000000;stroke-width:5;stroke-linecap:round;stroke-linejoin:round;stroke-miterlimit:10;" cx="241.515" cy="35.296" rx="10.958" ry="11.429"/>
		
			<ellipse style="fill:none;stroke:#000000;stroke-width:5;stroke-linecap:round;stroke-linejoin:round;stroke-miterlimit:10;" cx="241.486" cy="100.13" rx="10.958" ry="11.429"/>
		<path style="fill:none;stroke:#000000;stroke-width:5;stroke-linecap:round;stroke-linejoin:round;stroke-miterlimit:10;" d="
			M224.323,131.547c-5.988-14.712-9.831-37.495-9.831-63.069c0-26.478,4.119-49.964,10.474-64.599"/>
	</g>
</g>
<g id="Layer_1">
</g>
</svg>
