<svg xmlns="http://www.w3.org/2000/svg" viewBox="-2 -2 138.048 194.667" preserveAspectRatio="none"><g id="tan" stroke="#000" stroke-width="5" stroke-miterlimit="10"><path d="M131.548 155.905c0 17.818-14.444 32.262-32.262 32.262H34.762c-17.818 0-32.262-14.444-32.262-32.262V88.93c0-35.635 28.888-64.523 64.524-64.523s64.524 28.888 64.524 64.524v66.975z" fill="#FFF"/><path d="M67.087 21.63c-26.988 0-48.866 9.68-48.866 21.624 0 9.425 13.63 17.436 32.64 20.398l16.227-11.174 16.228 11.174c19.01-2.962 32.638-10.973 32.638-20.398 0-11.942-21.878-21.624-48.866-21.624z" fill="#FFF" stroke-linecap="round" stroke-linejoin="round"/><path d="M54.177 27.997v4.41c0 6.68 5.78 12.093 12.91 12.093s12.91-5.414 12.91-12.093v-4.41" fill="none" stroke-linecap="round" stroke-linejoin="round"/><ellipse cx="67.087" cy="16.094" rx="28.903" ry="13.594" fill="#FFF" stroke-linecap="round" stroke-linejoin="round"/></g><style>ellipse,polygon,polyline,rect,circle,line,path{stroke-width:2;vector-effect:non-scaling-stroke}</style></svg>