<?xml version="1.0" encoding="iso-8859-1"?>
<!-- Generator: Adobe Illustrator 19.2.0, SVG Export Plug-In . SVG Version: 6.00 Build 0)  -->
<!DOCTYPE svg PUBLIC "-//W3C//DTD SVG 1.1//EN" "http://www.w3.org/Graphics/SVG/1.1/DTD/svg11.dtd">
<svg version="1.1" xmlns="http://www.w3.org/2000/svg" xmlns:xlink="http://www.w3.org/1999/xlink" x="0px" y="0px"
	 viewBox="0 0 125 125" style="enable-background:new 0 0 125 125;" xml:space="preserve">
<g id="e">
	<g id="e_1_">
		<circle style="fill:#FFFFFF;stroke:#000000;stroke-width:5;stroke-miterlimit:10;" cx="62.5" cy="62.5" r="60"/>
		<g>
			<g>
				<path d="M65,35.5c0,0,0.035,0.844,0.098,2.32c0.04,1.477,0.14,3.586,0.184,6.117c0.041,2.531,0.137,5.484,0.152,8.648
					c0.021,3.164,0.043,6.539,0.065,9.914c-0.023,3.375-0.045,6.75-0.066,9.914c-0.02,3.164-0.111,6.117-0.153,8.648
					c-0.046,2.531-0.143,4.641-0.183,6.117C65.035,88.656,65,89.5,65,89.5c-0.057,1.381-1.223,2.453-2.604,2.396
					C61.089,91.842,60.057,90.783,60,89.5c0,0-0.035-0.844-0.097-2.32c-0.04-1.477-0.138-3.586-0.183-6.117
					c-0.041-2.531-0.133-5.484-0.153-8.648c-0.021-3.164-0.044-6.539-0.066-9.914c0.022-3.375,0.044-6.75,0.065-9.914
					c0.015-3.164,0.111-6.117,0.152-8.648c0.044-2.531,0.144-4.641,0.184-6.117C59.965,36.344,60,35.5,60,35.5
					c0.058-1.381,1.224-2.453,2.605-2.395C63.912,33.16,64.942,34.218,65,35.5z"/>
			</g>
			<g>
				<path d="M35.5,60c0,0,0.844-0.035,2.32-0.097c1.477-0.04,3.586-0.137,6.117-0.183c2.531-0.042,5.484-0.133,8.648-0.153
					c3.164-0.021,6.539-0.044,9.914-0.066c3.375,0.022,6.75,0.044,9.914,0.065c3.164,0.015,6.117,0.111,8.648,0.152
					c2.531,0.044,4.641,0.144,6.117,0.184C88.656,59.965,89.5,60,89.5,60c1.381,0.058,2.453,1.224,2.395,2.605
					C91.84,63.912,90.782,64.942,89.5,65c0,0-0.844,0.035-2.32,0.097c-1.477,0.041-3.586,0.14-6.117,0.185
					c-2.531,0.041-5.484,0.137-8.648,0.152c-3.164,0.021-6.539,0.043-9.914,0.065c-3.375-0.022-6.75-0.045-9.914-0.066
					c-3.164-0.02-6.117-0.111-8.648-0.153c-2.531-0.046-4.641-0.143-6.117-0.183C36.344,65.035,35.5,65,35.5,65
					c-1.381-0.058-2.453-1.223-2.396-2.604C33.159,61.089,34.217,60.057,35.5,60z"/>
			</g>
		</g>
	</g>
</g>
<g id="Layer_1">
</g>
</svg>
