<?xml version="1.0" encoding="iso-8859-1"?>
<!-- Generator: Adobe Illustrator 19.2.0, SVG Export Plug-In . SVG Version: 6.00 Build 0)  -->
<!DOCTYPE svg PUBLIC "-//W3C//DTD SVG 1.1//EN" "http://www.w3.org/Graphics/SVG/1.1/DTD/svg11.dtd">
<svg version="1.1" xmlns="http://www.w3.org/2000/svg" xmlns:xlink="http://www.w3.org/1999/xlink" x="0px" y="0px"
	 viewBox="0 0 125.775 124.999" style="enable-background:new 0 0 125.775 124.999;" xml:space="preserve">
<g id="jen">
	<g id="jen_1_">
		<g>
			<path style="fill:#FFFFFF;" d="M2.554,105.438c0-16.853,26.868-22.407,60.166-22.407s60.427,7.537,60.427,22.796
				c0,10.314-9.313,16.675-20.967,16.675c-13.063,0-21.102-6.773-21.102-17.087c0,9.495-6.532,15.604-18.088,15.604
				c-12.561,0-18.088-6.109-18.088-15.604c0,10.314-8.793,17.087-21.353,17.087C11.895,122.503,2.554,115.752,2.554,105.438z"/>
			<path d="M0.055,105.375l0.023-0.78l0.076-0.972c0.07-0.606,0.166-1.211,0.298-1.812c0.266-1.2,0.675-2.376,1.209-3.482
				c1.067-2.221,2.626-4.125,4.366-5.675c3.516-3.104,7.612-4.99,11.695-6.439c4.106-1.436,8.289-2.388,12.476-3.13
				c4.189-0.734,8.393-1.227,12.595-1.578c4.203-0.35,8.405-0.549,12.604-0.648c4.205-0.086,8.377-0.113,12.601-0.031
				c8.412,0.19,16.841,0.844,25.202,2.344c4.177,0.765,8.342,1.725,12.437,3.084c4.084,1.371,8.143,3.083,11.86,5.702
				c1.847,1.314,3.608,2.877,5.055,4.817c1.441,1.926,2.544,4.272,2.919,6.766c0.203,1.212,0.209,2.571,0.136,3.628
				c-0.083,1.302-0.285,2.431-0.62,3.627c-0.659,2.348-1.84,4.568-3.407,6.416c-3.156,3.734-7.573,5.9-11.98,6.949
				c-2.22,0.531-4.478,0.797-6.723,0.824l-0.872,0.001l-0.78-0.021c-0.512-0.012-1.135-0.057-1.689-0.093
				c-1.114-0.096-2.228-0.23-3.339-0.434c-2.22-0.406-4.429-1.062-6.534-2.046c-2.092-1.004-4.08-2.344-5.736-4.066
				c-1.655-1.715-2.971-3.791-3.768-6.028c-0.812-2.237-1.115-4.592-1.08-6.88l0-0.001c-0.069-1.101,0.768-2.05,1.869-2.119
				c1.101-0.069,2.05,0.768,2.119,1.869l0.001,0.024l0.01,0.226c0.113,2.477-0.246,5.062-1.217,7.506
				c-0.988,2.43-2.639,4.656-4.712,6.301c-2.062,1.673-4.497,2.726-6.927,3.384c-1.22,0.326-2.452,0.558-3.68,0.698
				c-1.242,0.142-2.422,0.209-3.702,0.213c-1.074-0.01-2.425-0.081-3.607-0.21c-1.219-0.131-2.446-0.348-3.668-0.652
				c-2.429-0.615-4.904-1.625-6.993-3.325c-2.107-1.665-3.72-3.984-4.616-6.444c-0.886-2.475-1.164-5.026-1.055-7.469l0-0.001
				c-0.043-1.104,0.816-2.033,1.92-2.076c1.103-0.043,2.033,0.816,2.076,1.92l0.001,0.017l0.004,0.139
				c0.071,2.811-0.5,5.727-1.796,8.336c-1.295,2.608-3.279,4.848-5.588,6.528c-2.31,1.693-4.929,2.844-7.598,3.586
				c-2.675,0.737-5.415,1.084-8.132,1.13c-1.32,0.016-2.755-0.058-4.12-0.223c-1.372-0.166-2.739-0.425-4.087-0.789
				c-2.693-0.729-5.32-1.882-7.674-3.544c-2.34-1.669-4.387-3.879-5.778-6.499c-1.404-2.611-2.096-5.598-2.076-8.503L0.055,105.375z
				 M5.054,105.438c0.003,2.166,0.517,4.263,1.526,6.117c1.003,1.857,2.491,3.466,4.282,4.73c1.784,1.278,3.861,2.221,6.055,2.83
				c1.098,0.304,2.227,0.527,3.371,0.672c1.152,0.146,2.253,0.21,3.468,0.213c2.352,0.014,4.688-0.236,6.917-0.796
				c2.228-0.559,4.332-1.467,6.168-2.702c1.833-1.24,3.353-2.862,4.39-4.762c1.056-1.891,1.616-4.068,1.671-6.325h4l0,0.001
				c0.113,2.073,0.452,4.086,1.231,5.829c0.742,1.754,1.871,3.236,3.366,4.323c1.49,1.085,3.281,1.865,5.236,2.319
				c0.976,0.229,1.984,0.397,3.015,0.493c1.069,0.096,1.979,0.14,3.167,0.139c0.983,0.003,2.065-0.036,3.071-0.141
				c1.021-0.101,2.021-0.279,2.989-0.523c1.941-0.483,3.725-1.302,5.247-2.403c1.521-1.109,2.711-2.586,3.512-4.31
				c0.838-1.713,1.227-3.687,1.34-5.727h4l0,0.001c0.061,1.868,0.393,3.694,1.085,5.347c0.692,1.65,1.69,3.138,2.968,4.376
				c2.569,2.479,6.138,3.92,9.889,4.515c0.94,0.152,1.896,0.245,2.857,0.308c0.484,0.018,0.9,0.046,1.429,0.048l0.78,0.004
				l0.688-0.017c1.914-0.052,3.816-0.279,5.641-0.733c3.651-0.875,7.017-2.69,9.286-5.338c1.133-1.321,1.956-2.856,2.435-4.51
				c0.24-0.803,0.4-1.737,0.454-2.511c0.071-1.018,0.06-1.752-0.064-2.597c-0.453-3.274-2.807-6.178-5.883-8.374
				c-3.078-2.219-6.752-3.845-10.534-5.145c-3.798-1.295-7.753-2.26-11.759-3.013c-8.023-1.488-16.241-2.181-24.466-2.413
				c-4.099-0.119-8.253-0.096-12.37,0.029c-4.123,0.121-8.238,0.341-12.329,0.706c-4.09,0.365-8.16,0.868-12.167,1.594
				c-4.003,0.726-7.953,1.683-11.697,3.027c-3.725,1.345-7.303,3.105-10.022,5.567c-1.352,1.227-2.452,2.629-3.177,4.172
				c-0.364,0.771-0.635,1.577-0.813,2.41c-0.087,0.417-0.149,0.841-0.197,1.269l-0.044,0.584l-0.016,0.78L5.054,105.438z"/>
		</g>
		<g>
			<path style="fill:#FFFFFF;" d="M64.759,11.357c6.12-5.432,15.04-8.854,24.973-8.854c18.453,0,33.412,13.289,33.412,30.349v17.254
				c0,26.29-26.994,47.603-60.292,47.603S2.559,76.396,2.559,50.106v-4.264c0-20.43,20.725-36.992,46.601-36.992
				s46.852,16.562,46.852,36.992"/>
			<path d="M63.469,9.828c0,0,0.288-0.265,0.847-0.779c0.553-0.507,1.58-1.34,2.825-2.229c2.551-1.78,6.608-4.107,12.263-5.522
				c2.817-0.709,6.012-1.211,9.508-1.28l0.658-0.015L89.793,0l0.157,0.003l0.315,0.007c0.422,0.009,0.849,0.019,1.279,0.028
				c0.941,0.06,1.914,0.11,2.846,0.231c1.889,0.22,3.838,0.565,5.808,1.106c3.935,1.077,7.986,2.851,11.749,5.526
				c3.754,2.664,7.232,6.243,9.748,10.706c2.548,4.429,4.034,9.762,4.045,15.278c0.01,5.064,0.02,10.3,0.03,15.682l0.002,1.011
				l0.001,0.507l-0.016,0.592c-0.022,0.679-0.044,1.361-0.066,2.045c-0.069,0.75-0.139,1.501-0.209,2.256
				c-0.078,0.75-0.219,1.459-0.327,2.193c-0.512,2.907-1.349,5.789-2.483,8.577c-2.253,5.594-5.793,10.715-10.078,15.148
				c-4.288,4.454-9.425,8.125-14.965,11.099c-5.574,2.916-11.584,5.136-17.827,6.493c-6.225,1.399-12.704,1.985-19.11,1.808
				c-6.486-0.166-12.915-1.157-19.17-2.93c-6.225-1.832-12.27-4.408-17.753-7.923c-5.483-3.491-10.466-7.825-14.446-12.977
				C5.352,71.325,2.41,65.358,1.008,59.06C0.294,55.932-0.008,52.669,0,49.562l0.002-2.232l0.001-1.113L0.01,45.58l0.018-0.555
				l0.036-1.108l0.11-1.236c0.061-0.843,0.198-1.622,0.325-2.408c1.07-6.305,4.073-12.015,7.938-16.62
				c3.893-4.621,8.661-8.182,13.653-10.831c10.042-5.286,20.966-6.933,30.634-6.34c9.832,0.616,18.554,3.512,25.44,7.596
				c3.437,2.048,6.43,4.362,8.917,6.805c2.482,2.45,4.477,5.001,6.007,7.483c3.052,4.998,4.163,9.597,4.599,12.681
				c0.134,0.774,0.168,1.468,0.223,2.063c0.062,0.595,0.07,1.098,0.076,1.503c0.016,0.809,0.024,1.227,0.024,1.227
				c0.022,1.104-0.855,2.016-1.958,2.038c-1.085,0.021-1.985-0.826-2.036-1.903l-0.006-0.134c0,0-0.017-0.365-0.049-1.071
				c-0.013-0.353-0.029-0.792-0.098-1.309c-0.062-0.518-0.102-1.121-0.238-1.791c-0.447-2.677-1.501-6.637-4.283-10.969
				c-1.372-2.165-3.165-4.406-5.41-6.571c-2.25-2.158-4.974-4.213-8.114-6.035c-6.27-3.631-14.378-6.205-23.324-6.656
				c-4.549-0.236-9.23,0.013-13.993,0.938c-4.742,0.935-9.544,2.495-14.049,4.904c-4.498,2.395-8.74,5.593-12.132,9.637
				c-3.369,4.036-5.906,8.919-6.795,14.229c-0.105,0.664-0.223,1.335-0.264,1.964L5.17,44.079l-0.034,1.108l-0.017,0.555
				l-0.004,0.475l0.001,1.113l0.002,2.232c0.002,2.855,0.267,5.604,0.897,8.37c1.236,5.505,3.825,10.769,7.393,15.375
				c3.573,4.611,8.106,8.553,13.142,11.748c5.034,3.218,10.633,5.594,16.415,7.287c5.797,1.636,11.845,2.555,17.832,2.697
				c6.061,0.16,12.057-0.388,17.861-1.693c5.807-1.263,11.371-3.329,16.502-6.013c5.094-2.74,9.786-6.1,13.646-10.119
				c3.86-4,7.001-8.561,8.97-13.469c0.995-2.446,1.716-4.962,2.171-7.49c0.094-0.631,0.227-1.274,0.291-1.888
				c0.062-0.612,0.123-1.221,0.184-1.829c0.025-0.679,0.049-1.355,0.074-2.03l0.015-0.423l0.001-0.507l0.002-1.011
				c0.01-5.382,0.02-10.617,0.03-15.682c0.001-4.621-1.204-9.027-3.325-12.749c-2.089-3.744-5.02-6.797-8.228-9.091
				c-3.214-2.303-6.709-3.855-10.124-4.804c-1.71-0.477-3.408-0.782-5.058-0.982c-0.837-0.113-1.613-0.15-2.385-0.209
				c-0.428-0.011-0.852-0.022-1.272-0.032L89.838,5.01l-0.157-0.004c0.063,0.002-0.067,0.002-0.091,0.003l-0.586,0.012
				c-3.111,0.034-5.957,0.403-8.462,0.992c-2.505,0.589-4.69,1.317-6.522,2.104c-1.834,0.787-3.312,1.618-4.494,2.316
				c-1.195,0.744-1.952,1.287-2.566,1.749c-0.601,0.464-0.911,0.703-0.911,0.703c-0.875,0.676-2.132,0.515-2.808-0.36
				C62.601,11.698,62.717,10.524,63.469,9.828z"/>
		</g>
		<g>
			<path d="M52.539,30.534c0,0,0.035,0.68,0.098,1.869c0.04,1.189,0.14,2.889,0.184,4.928c0.044,2.039,0.13,4.418,0.159,6.967
				c0.043,2.549,0.049,5.268,0.059,7.986c-0.01,2.719-0.019,5.438-0.061,7.986c-0.032,2.549-0.115,4.928-0.159,6.967
				c-0.046,2.039-0.143,3.738-0.183,4.928c-0.061,1.189-0.097,1.869-0.097,1.869c-0.071,1.381-1.248,2.442-2.629,2.371
				c-1.29-0.067-2.301-1.11-2.371-2.371c0,0-0.035-0.68-0.097-1.869c-0.04-1.189-0.138-2.889-0.183-4.928
				c-0.044-2.039-0.127-4.418-0.159-6.967c-0.042-2.549-0.051-5.268-0.061-7.986c0.01-2.719,0.016-5.438,0.059-7.986
				c0.029-2.549,0.115-4.928,0.159-6.967c0.044-2.039,0.144-3.738,0.184-4.928c0.062-1.189,0.098-1.869,0.098-1.869
				c0.072-1.381,1.25-2.442,2.63-2.37C51.458,28.231,52.469,29.274,52.539,30.534z"/>
		</g>
		<g>
			<path d="M28.289,49.784c0,0,0.68-0.035,1.869-0.097c1.189-0.04,2.889-0.137,4.928-0.183c2.039-0.044,4.418-0.126,6.967-0.159
				c2.549-0.042,5.268-0.051,7.986-0.061c2.719,0.01,5.438,0.016,7.986,0.059c2.549,0.029,4.928,0.115,6.967,0.159
				c2.039,0.044,3.738,0.144,4.928,0.184c1.189,0.062,1.869,0.098,1.869,0.098c1.381,0.072,2.442,1.25,2.37,2.63
				c-0.067,1.289-1.11,2.299-2.37,2.37c0,0-0.68,0.035-1.869,0.097c-1.189,0.04-2.889,0.14-4.928,0.184s-4.418,0.13-6.967,0.159
				c-2.549,0.042-5.268,0.049-7.986,0.059c-2.719-0.01-5.438-0.019-7.986-0.061c-2.549-0.032-4.928-0.115-6.967-0.159
				c-2.039-0.046-3.738-0.143-4.928-0.183c-1.189-0.062-1.869-0.096-1.869-0.096c-1.381-0.072-2.442-1.249-2.371-2.629
				C25.985,50.865,27.028,49.854,28.289,49.784z"/>
		</g>
		<path style="fill:none;stroke:#000000;stroke-width:3.5;stroke-linecap:round;stroke-linejoin:round;stroke-miterlimit:10;" d="
			M93.682,34.169c0,0,5.302-1.644,10.069-2.213"/>
		<path style="fill:none;stroke:#000000;stroke-width:3.5;stroke-linecap:round;stroke-linejoin:round;stroke-miterlimit:10;" d="
			M89.562,24.78c0,0,6.692-2.778,10.975-3.671"/>
	</g>
</g>
<g id="Layer_1">
</g>
</svg>
