<?xml version="1.0" encoding="iso-8859-1"?>
<!-- Generator: Adobe Illustrator 19.2.0, SVG Export Plug-In . SVG Version: 6.00 Build 0)  -->
<!DOCTYPE svg PUBLIC "-//W3C//DTD SVG 1.1//EN" "http://www.w3.org/Graphics/SVG/1.1/DTD/svg11.dtd">
<svg version="1.1" xmlns="http://www.w3.org/2000/svg" xmlns:xlink="http://www.w3.org/1999/xlink" x="0px" y="0px"
	 viewBox="0 0 125.012 125.915" style="enable-background:new 0 0 125.012 125.915;" xml:space="preserve">
<g id="on">
	<g id="on_1_">
		<g>
			<path style="fill:#FFFFFF;" d="M2.5,106.224c0-16.982,26.738-22.579,59.875-22.579s60.134,7.595,60.134,22.971
				c0,10.393-9.268,16.803-20.866,16.803c-13,0-21-6.825-21-17.217c0,9.568-6.5,15.724-18,15.724c-12.5,0-18-6.156-18-15.724
				c0,10.393-8.75,17.217-21.25,17.217C11.796,123.419,2.5,116.617,2.5,106.224z"/>
			<path d="M0.001,106.162l0.023-0.779l0.074-0.966c0.068-0.604,0.162-1.206,0.29-1.805c0.259-1.196,0.658-2.37,1.181-3.476
				c1.045-2.222,2.579-4.14,4.302-5.708c3.481-3.138,7.564-5.056,11.636-6.527c4.095-1.458,8.271-2.423,12.451-3.175
				c4.183-0.744,8.38-1.244,12.576-1.598c4.197-0.354,8.394-0.555,12.586-0.655c4.199-0.086,8.366-0.114,12.583-0.028
				c8.4,0.195,16.819,0.862,25.165,2.391c4.17,0.779,8.327,1.756,12.41,3.142c4.07,1.4,8.118,3.14,11.8,5.814
				c1.829,1.34,3.566,2.933,4.979,4.896c1.415,1.947,2.455,4.311,2.801,6.794c0.186,1.24,0.184,2.506,0.102,3.615
				c-0.094,1.28-0.289,2.416-0.629,3.603c-0.662,2.338-1.837,4.547-3.391,6.4c-3.134,3.737-7.539,5.927-11.945,6.98
				c-2.218,0.534-4.476,0.801-6.72,0.823l-0.421,0.003l-0.252,0.001l-0.195-0.005l-0.779-0.021
				c-0.524-0.018-1.141-0.057-1.694-0.099c-1.113-0.094-2.227-0.241-3.337-0.445c-2.218-0.419-4.424-1.088-6.519-2.094
				c-2.086-1.019-4.051-2.393-5.689-4.125c-1.632-1.734-2.917-3.818-3.694-6.054c-0.796-2.234-1.084-4.581-1.051-6.861l0-0.001
				c-0.069-1.102,0.768-2.05,1.87-2.119c1.101-0.069,2.05,0.768,2.119,1.87l0.001,0.025l0.01,0.224
				c0.111,2.474-0.236,5.054-1.187,7.502c-0.968,2.435-2.595,4.673-4.652,6.346c-2.049,1.696-4.483,2.772-6.916,3.443
				c-1.222,0.334-2.456,0.568-3.686,0.711c-1.245,0.145-2.427,0.213-3.709,0.218c-1.074-0.01-2.43-0.082-3.613-0.215
				c-1.222-0.132-2.451-0.354-3.674-0.666c-2.433-0.628-4.909-1.662-6.983-3.387c-2.094-1.689-3.672-4.029-4.552-6.488
				c-0.866-2.477-1.135-5.023-1.027-7.464l0-0.001h4c0.07,2.806-0.484,5.716-1.757,8.333c-1.272,2.616-3.233,4.876-5.527,6.582
				c-2.296,1.719-4.914,2.89-7.584,3.645c-2.677,0.751-5.422,1.106-8.143,1.151c-1.321,0.017-2.761-0.06-4.127-0.229
				c-1.374-0.169-2.743-0.434-4.092-0.805c-2.694-0.742-5.32-1.916-7.66-3.604c-2.328-1.692-4.351-3.925-5.719-6.553
				c-1.381-2.62-2.054-5.6-2.035-8.498L0.001,106.162z M5,106.224c0.003,2.174,0.508,4.283,1.505,6.15
				c0.991,1.87,2.463,3.494,4.241,4.774c1.769,1.296,3.838,2.252,6.027,2.87c1.095,0.309,2.222,0.535,3.364,0.683
				c1.151,0.148,2.249,0.214,3.464,0.217c2.35,0.015,4.684-0.241,6.907-0.811c2.223-0.568,4.319-1.488,6.141-2.741
				c1.818-1.259,3.323-2.895,4.347-4.809c1.044-1.904,1.593-4.091,1.648-6.355l0.001-0.049c0.027-1.104,0.944-1.977,2.048-1.95
				c1.087,0.027,1.95,0.918,1.951,1.999l0,0.001c0.114,2.077,0.446,4.099,1.216,5.855c0.735,1.764,1.846,3.268,3.33,4.368
				c1.478,1.1,3.258,1.893,5.208,2.355c0.973,0.233,1.979,0.405,3.01,0.501c1.069,0.098,1.975,0.143,3.165,0.142
				c0.981,0.003,2.063-0.037,3.068-0.144c1.02-0.104,2.018-0.282,2.983-0.532c1.936-0.491,3.71-1.323,5.221-2.439
				c1.505-1.128,2.686-2.617,3.475-4.355c0.828-1.726,1.208-3.709,1.323-5.754h4l0,0.001c0.075,3.755,1.453,7.271,3.988,9.767
				c2.538,2.5,6.076,3.979,9.813,4.588c0.938,0.15,1.888,0.255,2.847,0.316c0.484,0.025,0.904,0.046,1.419,0.053l0.779,0.005
				l0.195,0.001c-0.023-0.002,0.096-0.004,0.138-0.006l0.358-0.01c1.909-0.047,3.805-0.275,5.624-0.73
				c3.64-0.877,6.987-2.702,9.245-5.357c1.124-1.327,1.948-2.862,2.433-4.518c0.246-0.808,0.399-1.732,0.463-2.523
				c0.076-0.961,0.075-1.785-0.042-2.603c-0.402-3.296-2.702-6.223-5.731-8.456c-3.034-2.255-6.689-3.905-10.451-5.229
				c-3.78-1.317-7.723-2.299-11.718-3.064c-8.002-1.515-16.205-2.219-24.415-2.457c-4.092-0.122-8.239-0.099-12.349,0.026
				c-4.116,0.122-8.224,0.343-12.307,0.712c-4.083,0.369-8.145,0.878-12.142,1.613c-3.993,0.735-7.932,1.703-11.66,3.066
				c-3.708,1.362-7.264,3.146-9.95,5.63c-1.336,1.238-2.419,2.649-3.131,4.2c-0.357,0.775-0.624,1.584-0.798,2.42
				c-0.084,0.419-0.146,0.844-0.192,1.273l-0.043,0.588L5,106.286L5,106.224z"/>
		</g>
		
			<ellipse style="fill:#FFFFFF;stroke:#000000;stroke-width:5;stroke-miterlimit:10;" cx="62.505" cy="50.468" rx="60" ry="47.968"/>
		<g>
			<circle style="fill:#FFFFFF;stroke:#000000;stroke-width:5;stroke-miterlimit:10;" cx="62.505" cy="48.068" r="19.5"/>
			<circle cx="62.505" cy="47.21" r="7.5"/>
		</g>
	</g>
</g>
<g id="Layer_1">
</g>
</svg>
