<?xml version="1.0" encoding="iso-8859-1"?>
<!-- Generator: Adobe Illustrator 19.2.0, SVG Export Plug-In . SVG Version: 6.00 Build 0)  -->
<!DOCTYPE svg PUBLIC "-//W3C//DTD SVG 1.1//EN" "http://www.w3.org/Graphics/SVG/1.1/DTD/svg11.dtd">
<svg version="1.1" xmlns="http://www.w3.org/2000/svg" xmlns:xlink="http://www.w3.org/1999/xlink" x="0px" y="0px"
	 viewBox="0 0 75.139 125.001" style="enable-background:new 0 0 75.139 125.001;" xml:space="preserve">
<g id="san">
	<g id="san_1_">
		<g>
			<path style="fill:#FFFFFF;" d="M72.079,111.405c0,6.127-5.144,11.094-11.49,11.094s-11.49-4.967-11.49-11.094
				c0,6.127-5.144,10.3-11.49,10.3s-11.49-4.173-11.49-10.3c0,6.127-5.144,11.094-11.49,11.094s-11.49-4.967-11.49-11.094
				l0.43-5.924c0-16.855,15.234-22.409,34.114-22.409s34.262,7.538,34.262,22.798L72.079,111.405z"/>
			<path d="M74.501,105.768l0.077,5.703l0.008,0.555l-0.033,0.743c-0.04,0.462-0.102,0.911-0.186,1.363
				c-0.171,0.901-0.436,1.785-0.788,2.633c-0.727,1.687-1.808,3.207-3.124,4.462c-1.311,1.265-2.896,2.223-4.58,2.871
				c-1.692,0.639-3.501,0.933-5.283,0.902l-0.615-0.033l-0.711-0.066c-0.457-0.057-0.887-0.128-1.326-0.222
				c-0.87-0.19-1.725-0.456-2.539-0.811c-1.625-0.714-3.121-1.719-4.329-3c-1.213-1.27-2.173-2.772-2.783-4.398
				c-0.582-1.635-0.844-3.375-0.689-5.059l-0.001-0.005H50.6c0.167,1.632-0.071,3.358-0.701,4.961
				c-0.639,1.599-1.674,3.053-2.962,4.196c-1.276,1.163-2.805,1.999-4.392,2.569c-1.598,0.555-3.274,0.807-4.931,0.824l-0.585-0.016
				l-0.652-0.041c-0.431-0.037-0.834-0.084-1.251-0.153c-0.825-0.137-1.647-0.33-2.444-0.612c-1.588-0.569-3.117-1.403-4.394-2.566
				c-1.289-1.143-2.323-2.596-2.964-4.194c-0.631-1.603-0.871-3.328-0.704-4.961l-0.001-0.008h3.001
				c0.174,1.684-0.087,3.429-0.66,5.072c-0.6,1.635-1.554,3.153-2.782,4.417c-1.217,1.278-2.717,2.283-4.348,2.994
				c-1.637,0.7-3.419,1.067-5.201,1.111l-0.616-0.006l-0.716-0.04c-0.46-0.039-0.895-0.093-1.341-0.17
				c-0.884-0.155-1.757-0.393-2.6-0.713c-1.684-0.642-3.264-1.598-4.587-2.849c-1.323-1.248-2.408-2.764-3.147-4.449
				c-0.749-1.681-1.116-3.536-1.1-5.367l0-0.048c0-0.046,0.003-0.096,0.006-0.142l0.486-5.92l-0.007,0.185
				c0.019-2.219,0.281-4.482,0.905-6.691c0.63-2.204,1.633-4.336,2.968-6.228c1.342-1.888,3.011-3.513,4.843-4.821
				c1.832-1.318,3.818-2.32,5.839-3.119c4.053-1.594,8.247-2.383,12.407-2.822c4.17-0.445,8.308-0.547,12.467-0.437
				c4.196,0.132,8.359,0.656,12.491,1.634c4.11,1.012,8.197,2.547,11.868,5.039c1.826,1.247,3.544,2.733,4.984,4.508
				c1.443,1.766,2.628,3.787,3.436,5.956c0.793,2.175,1.182,4.473,1.263,6.739L74.501,105.768z M69.474,112.345l-0.012-0.878
				l-0.087-6.098c-0.02-1.8-0.31-3.559-0.841-5.234c-0.544-1.671-1.373-3.245-2.44-4.679c-1.063-1.439-2.402-2.702-3.869-3.834
				c-2.955-2.261-6.53-3.859-10.272-4.927c-3.74-1.106-7.701-1.602-11.631-1.797c-3.972-0.18-7.993,0.003-11.903,0.534
				c-1.957,0.268-3.886,0.663-5.767,1.161c-1.879,0.504-3.71,1.126-5.432,1.919c-3.454,1.563-6.442,3.845-8.385,6.767
				c-1.917,2.942-2.752,6.503-2.703,10.202l-0.003,0.126l-0.004,0.059l-0.374,5.928l0.007-0.189
				c0.033,2.241,0.964,4.436,2.629,6.007c0.822,0.784,1.785,1.44,2.852,1.879c0.532,0.221,1.087,0.393,1.655,0.511
				c0.281,0.059,0.579,0.104,0.854,0.137l0.39,0.038l0.493,0.021c2.345,0.079,4.708-0.725,6.555-2.26
				c0.918-0.769,1.711-1.709,2.294-2.785c0.613-1.067,0.967-2.277,1.14-3.55l0.046-0.337c0.11-0.814,0.86-1.385,1.674-1.274
				c0.792,0.107,1.353,0.823,1.281,1.612l-0.001,0.006c0.167,1.237,0.516,2.389,1.093,3.395c0.563,1.011,1.343,1.871,2.255,2.57
				c0.923,0.684,1.969,1.232,3.104,1.565c0.565,0.169,1.145,0.31,1.738,0.394c0.292,0.044,0.604,0.074,0.888,0.094l0.423,0.021
				l0.491,0.006c2.421,0.014,4.807-0.693,6.643-2.084c0.911-0.699,1.691-1.56,2.253-2.571c0.577-1.006,0.924-2.158,1.091-3.395
				l0.045-0.334c0.11-0.814,0.859-1.385,1.673-1.275c0.792,0.107,1.353,0.822,1.283,1.61l0,0.004
				c0.155,1.273,0.509,2.488,1.114,3.561c0.574,1.083,1.362,2.039,2.295,2.801c0.938,0.754,1.984,1.36,3.11,1.726
				c0.561,0.186,1.133,0.33,1.715,0.412c0.288,0.042,0.591,0.069,0.869,0.085l0.395,0.011l0.493-0.006
				c2.349-0.068,4.587-1.03,6.238-2.594c0.828-0.778,1.495-1.716,1.95-2.739c0.239-0.507,0.426-1.038,0.557-1.584
				C69.393,112.839,69.436,112.59,69.474,112.345z"/>
		</g>
		<g>
			<ellipse style="fill:#FFFFFF;" cx="37.569" cy="79.252" rx="30.5" ry="19.845"/>
			<path d="M4.825,79.078c0,0,0.054-0.622,0.155-1.789c-0.002-0.257,0.133-0.723,0.218-1.142c0.105-0.437,0.221-0.914,0.345-1.43
				c0.155-0.484,0.367-0.952,0.572-1.479c0.106-0.259,0.216-0.527,0.329-0.802c0.144-0.256,0.291-0.52,0.443-0.792
				c1.177-2.191,3.083-4.542,5.697-6.564c2.602-2.039,5.853-3.814,9.575-5.144c3.723-1.328,7.926-2.194,12.399-2.442
				c1.141-0.024,2.203-0.089,3.45-0.077c1.118,0.048,2.179,0.018,3.38,0.13c1.188,0.126,2.427,0.176,3.6,0.402
				c0.594,0.096,1.191,0.193,1.791,0.289c0.599,0.102,1.191,0.265,1.791,0.396c2.403,0.518,4.783,1.354,7.136,2.343
				c2.337,1.045,4.608,2.357,6.739,3.963c2.086,1.668,4.016,3.667,5.473,6.088c1.459,2.405,2.379,5.283,2.4,8.223l-0.14,2.043
				c-0.094,0.691-0.298,1.513-0.467,2.258c-0.437,1.436-0.973,2.746-1.712,3.97c-1.437,2.449-3.356,4.483-5.438,6.187
				c-2.126,1.641-4.398,2.989-6.741,4.07c-2.359,1.024-4.749,1.895-7.164,2.446c-0.603,0.139-1.199,0.31-1.802,0.42
				c-0.604,0.105-1.205,0.209-1.803,0.313c-1.193,0.243-2.394,0.302-3.574,0.445c-1.182,0.128-2.357,0.117-3.515,0.178l-0.217,0.008
				l-0.108,0.004l-0.054,0.002l-0.135-0.002l-0.411-0.015l-0.818-0.03c-0.544-0.02-1.084-0.04-1.62-0.059
				c-4.649-0.288-8.794-1.189-12.571-2.558c-3.754-1.357-7.016-3.2-9.605-5.307c-2.606-2.084-4.491-4.486-5.642-6.709
				c-0.148-0.275-0.293-0.543-0.433-0.803c-0.11-0.279-0.216-0.55-0.319-0.812c-0.198-0.528-0.407-1.014-0.55-1.485
				c-0.213-0.969-0.446-1.784-0.516-2.465c-0.094-1.369-0.144-2.099-0.144-2.099L4.825,79.078z M9.319,79.252
				c0,0,0.046,0.515,0.134,1.482c0.053,0.482,0.254,1.057,0.396,1.746c0.11,0.337,0.279,0.687,0.426,1.068
				c0.076,0.19,0.154,0.386,0.234,0.588c0.111,0.192,0.224,0.389,0.341,0.591c0.881,1.634,2.357,3.496,4.546,5.183
				c2.171,1.695,4.985,3.246,8.286,4.423c0.829,0.282,1.694,0.529,2.564,0.806c0.892,0.211,1.802,0.427,2.727,0.646
				c0.94,0.152,1.897,0.306,2.868,0.463c0.964,0.082,1.903,0.197,2.924,0.267c0.537,0.016,1.077,0.031,1.62,0.047l0.818,0.024
				l0.411,0.012c0.091,0.001-0.065,0-0.032-0.001l0.049-0.001l0.098-0.003l0.195-0.005c1.041-0.046,2.102-0.017,3.164-0.121
				c1.058-0.118,2.143-0.15,3.21-0.359c0.536-0.086,1.075-0.172,1.617-0.259c0.541-0.09,1.069-0.239,1.609-0.356
				c2.162-0.46,4.272-1.21,6.344-2.073c2.049-0.916,4.001-2.051,5.793-3.39c1.737-1.39,3.276-3.007,4.382-4.838
				c0.571-0.896,0.978-1.913,1.288-2.851c0.094-0.473,0.245-0.856,0.34-1.396l0.078-0.933l0.039-0.467l0.02-0.234l0.01-0.117
				l0.005-0.058c-0.001,0.058,0.01-0.213-0.002,0.116c0.004-2.075-0.606-4.132-1.697-5.988c-1.087-1.86-2.615-3.512-4.347-4.937
				c-1.787-1.374-3.74-2.546-5.795-3.497c-2.077-0.898-4.198-1.683-6.372-2.176c-0.542-0.125-1.075-0.282-1.619-0.381
				c-0.545-0.094-1.088-0.189-1.629-0.283c-1.087-0.226-2.133-0.267-3.183-0.402c-1.042-0.119-2.217-0.108-3.299-0.168
				c-0.954-0.014-2.068,0.064-3.073,0.088c-4.103,0.257-7.927,1.082-11.254,2.298c-3.333,1.205-6.159,2.824-8.316,4.586
				c-2.18,1.748-3.635,3.66-4.49,5.327c-0.114,0.207-0.224,0.407-0.332,0.603c-0.077,0.206-0.152,0.405-0.224,0.598
				c-0.139,0.384-0.305,0.75-0.403,1.074c-0.063,0.314-0.128,0.6-0.193,0.862C9.54,77.144,9.435,77.3,9.435,77.634
				c-0.08,1.168-0.123,1.792-0.123,1.792L9.319,79.252z"/>
		</g>
		<g>
			<ellipse style="fill:#FFFFFF;" cx="37.569" cy="58.566" rx="30.5" ry="19.845"/>
			<path d="M4.825,58.392c0,0,0.054-0.622,0.155-1.789c-0.002-0.257,0.133-0.723,0.218-1.142c0.105-0.437,0.221-0.914,0.345-1.43
				c0.155-0.484,0.367-0.952,0.572-1.478c0.106-0.259,0.216-0.527,0.329-0.802c0.144-0.256,0.291-0.52,0.443-0.792
				c1.177-2.191,3.083-4.542,5.697-6.565c2.602-2.038,5.853-3.814,9.575-5.144c3.723-1.328,7.926-2.194,12.399-2.442
				c1.141-0.024,2.203-0.089,3.45-0.077c1.118,0.048,2.179,0.018,3.38,0.13c1.188,0.126,2.427,0.176,3.6,0.402
				c0.594,0.096,1.191,0.192,1.791,0.289c0.599,0.102,1.191,0.264,1.791,0.396c2.403,0.518,4.783,1.354,7.136,2.343
				c2.337,1.046,4.608,2.357,6.739,3.963c2.086,1.668,4.016,3.667,5.473,6.088c1.459,2.405,2.379,5.283,2.4,8.223l-0.14,2.043
				c-0.094,0.691-0.298,1.512-0.467,2.258c-0.437,1.436-0.973,2.746-1.712,3.97c-1.437,2.449-3.356,4.483-5.438,6.187
				c-2.126,1.641-4.398,2.989-6.741,4.07c-2.359,1.024-4.749,1.895-7.164,2.446c-0.603,0.139-1.199,0.31-1.802,0.42
				c-0.604,0.105-1.205,0.209-1.803,0.313c-1.193,0.243-2.394,0.303-3.574,0.445c-1.182,0.128-2.357,0.116-3.515,0.178l-0.217,0.008
				l-0.108,0.004l-0.054,0.002l-0.135-0.002l-0.411-0.015l-0.818-0.03c-0.544-0.02-1.084-0.04-1.62-0.059
				c-4.649-0.288-8.794-1.189-12.571-2.558c-3.754-1.357-7.016-3.2-9.605-5.307c-2.606-2.084-4.491-4.486-5.642-6.709
				c-0.148-0.275-0.293-0.543-0.433-0.803c-0.11-0.279-0.216-0.55-0.319-0.812c-0.198-0.529-0.407-1.014-0.55-1.485
				c-0.213-0.969-0.446-1.784-0.516-2.465c-0.094-1.369-0.144-2.099-0.144-2.099L4.825,58.392z M9.319,58.566
				c0,0,0.046,0.515,0.134,1.482c0.053,0.482,0.254,1.057,0.396,1.746c0.11,0.337,0.279,0.687,0.426,1.068
				c0.076,0.19,0.154,0.386,0.234,0.588c0.111,0.192,0.224,0.389,0.341,0.591c0.881,1.634,2.357,3.496,4.546,5.183
				c2.171,1.695,4.985,3.246,8.286,4.423c0.829,0.282,1.694,0.529,2.564,0.806c0.892,0.211,1.802,0.427,2.727,0.646
				c0.94,0.152,1.897,0.306,2.868,0.463c0.964,0.082,1.903,0.197,2.924,0.267c0.537,0.016,1.077,0.031,1.62,0.047l0.818,0.024
				l0.411,0.012c0.091,0.001-0.065,0-0.032,0l0.049-0.001l0.098-0.003l0.195-0.005c1.041-0.046,2.102-0.017,3.164-0.121
				c1.058-0.118,2.143-0.15,3.21-0.359c0.536-0.086,1.075-0.172,1.617-0.259c0.541-0.09,1.069-0.239,1.609-0.356
				c2.162-0.46,4.272-1.21,6.344-2.073c2.049-0.916,4.001-2.051,5.793-3.39c1.737-1.39,3.276-3.007,4.382-4.838
				c0.571-0.896,0.978-1.913,1.288-2.851c0.094-0.473,0.245-0.856,0.34-1.396l0.078-0.934l0.039-0.467l0.02-0.233l0.01-0.117
				l0.005-0.058c-0.001,0.058,0.01-0.213-0.002,0.116c0.004-2.075-0.606-4.132-1.697-5.988c-1.087-1.86-2.615-3.512-4.347-4.937
				c-1.787-1.374-3.74-2.546-5.795-3.497c-2.077-0.898-4.198-1.683-6.372-2.176c-0.542-0.125-1.075-0.282-1.619-0.381
				c-0.545-0.095-1.088-0.189-1.629-0.283c-1.087-0.226-2.133-0.267-3.183-0.402c-1.042-0.119-2.217-0.108-3.299-0.168
				c-0.954-0.014-2.068,0.064-3.073,0.088c-4.103,0.257-7.927,1.082-11.254,2.298c-3.333,1.205-6.159,2.824-8.316,4.586
				c-2.18,1.748-3.635,3.661-4.49,5.328c-0.114,0.207-0.224,0.407-0.332,0.603c-0.077,0.205-0.152,0.405-0.224,0.598
				c-0.139,0.384-0.305,0.75-0.403,1.074c-0.063,0.314-0.128,0.6-0.193,0.862c-0.053,0.286-0.157,0.442-0.157,0.777
				c-0.08,1.168-0.123,1.792-0.123,1.792L9.319,58.566z"/>
		</g>
		<g>
			<ellipse style="fill:#FFFFFF;" cx="37.569" cy="32.585" rx="35.32" ry="30.086"/>
			<path d="M75.135,32.719c0,0-0.053,0.802-0.152,2.306c0.001,0.705-0.237,1.797-0.448,2.998c-0.167,1.252-0.654,2.494-1.085,3.963
				c-1.069,2.841-2.767,6.168-5.481,9.369c-2.697,3.199-6.372,6.252-10.883,8.614c-4.505,2.362-9.85,4.013-15.625,4.537
				c-0.722,0.048-1.451,0.066-2.184,0.099l-1.103,0.043L37.62,64.67l-0.619-0.018c-0.708-0.027-1.421-0.054-2.138-0.082
				c-0.361-0.017-0.712-0.02-1.084-0.049l-1.156-0.14c-0.773-0.097-1.55-0.194-2.332-0.292c-0.767-0.13-1.514-0.313-2.278-0.469
				c-1.535-0.27-3.02-0.807-4.541-1.258c-5.968-2.1-11.798-5.638-16.19-10.823c-2.162-2.591-4.084-5.494-5.303-8.75
				c-0.365-0.786-0.545-1.646-0.823-2.468c-0.122-0.417-0.264-0.829-0.369-1.251l-0.24-1.285c-0.134-0.861-0.374-1.709-0.387-2.585
				l-0.084-1.307l-0.04-0.654l-0.02-0.327l-0.01-0.164l-0.005-0.082c0-0.087-0.007,0.079-0.001-0.215l0.131-2.407l0.033-0.602
				c0.019-0.208,0.068-0.444,0.101-0.664l0.227-1.344l0.238-1.343c0.103-0.431,0.24-0.84,0.359-1.261
				c0.271-0.827,0.444-1.691,0.803-2.483c1.194-3.277,3.097-6.211,5.248-8.837C11.51,8.257,17.349,4.636,23.352,2.462
				c1.529-0.469,3.024-1.024,4.571-1.312c0.768-0.165,1.527-0.357,2.292-0.494c0.77-0.104,1.536-0.208,2.298-0.311l1.141-0.152
				c0.38-0.034,0.762-0.042,1.141-0.064c0.759-0.036,1.514-0.072,2.264-0.107l0.281-0.013l0.14-0.006L37.55,0l0.175,0.004
				l0.529,0.024l1.052,0.048c0.703,0.036,1.385,0.055,2.092,0.105c1.483,0.211,2.998,0.331,4.391,0.635
				c1.386,0.33,2.777,0.548,4.083,1.014c0.659,0.208,1.312,0.414,1.959,0.618c0.647,0.206,1.257,0.5,1.878,0.743
				c0.615,0.259,1.231,0.5,1.828,0.769c0.582,0.302,1.158,0.602,1.729,0.898c4.551,2.4,8.229,5.527,10.901,8.791
				c2.694,3.261,4.358,6.629,5.396,9.494c0.414,1.472,0.891,2.759,1.031,3.946c0.191,1.173,0.417,2.163,0.415,2.986
				c0.085,1.636,0.13,2.508,0.13,2.508L75.135,32.719z M70.639,32.585c0,0-0.05-0.732-0.143-2.105
				c0.003-0.692-0.215-1.518-0.383-2.499c-0.117-0.994-0.557-2.066-0.907-3.299c-0.914-2.395-2.347-5.221-4.692-7.982
				c-2.329-2.757-5.54-5.431-9.53-7.519c-0.5-0.258-1.006-0.518-1.517-0.781c-0.526-0.233-1.071-0.438-1.612-0.663
				c-0.548-0.21-1.082-0.471-1.654-0.646c-0.572-0.176-1.149-0.354-1.731-0.532c-1.149-0.412-2.387-0.584-3.61-0.875
				c-1.23-0.263-2.446-0.334-3.694-0.529c-0.67-0.045-1.379-0.06-2.074-0.092L38.038,5.02L37.51,4.999
				c-0.118-0.002,0.086,0,0.043,0.001L37.49,5.002l-0.125,0.005l-0.25,0.01c-0.666,0.026-1.336,0.051-2.01,0.077
				c-0.337,0.016-0.676,0.017-1.014,0.044l-1.011,0.128c-0.676,0.084-1.356,0.168-2.04,0.253c-0.678,0.115-1.35,0.283-2.03,0.421
				c-1.375,0.233-2.692,0.723-4.05,1.116c-5.309,1.866-10.453,5.003-14.242,9.482c-1.862,2.237-3.517,4.715-4.541,7.465
				c-0.317,0.664-0.453,1.39-0.693,2.081c-0.103,0.349-0.228,0.701-0.316,1.048L4.982,28.16l-0.198,1.027
				c-0.031,0.176-0.076,0.333-0.096,0.524l-0.039,0.601l-0.154,2.406c0.009-0.244,0.005-0.028,0.008-0.065l0.004,0.069l0.008,0.137
				l0.016,0.275l0.031,0.55l0.058,1.1c-0.008,0.739,0.205,1.451,0.306,2.177l0.185,1.085c0.086,0.356,0.206,0.705,0.306,1.058
				c0.233,0.696,0.362,1.427,0.673,2.096c0.999,2.772,2.634,5.28,4.486,7.552c3.766,4.548,8.919,7.769,14.263,9.708
				c1.366,0.412,2.694,0.919,4.08,1.17c0.685,0.146,1.369,0.323,2.045,0.446c0.672,0.091,1.341,0.182,2.007,0.272l0.995,0.14
				c0.346,0.031,0.716,0.038,1.071,0.059c0.716,0.034,1.429,0.068,2.137,0.102l0.442,0.019l0.503-0.024l1.002-0.047
				c0.665-0.035,1.328-0.052,1.983-0.098c5.236-0.51,10.045-2.033,14.061-4.168c4.03-2.125,7.244-4.874,9.548-7.696
				c2.325-2.821,3.725-5.688,4.607-8.108c0.333-1.235,0.762-2.353,0.853-3.282c0.148-0.954,0.355-1.677,0.35-2.487
				c0.079-1.505,0.121-2.308,0.121-2.308L70.639,32.585z"/>
		</g>
		<g>
			<path d="M42.694,35.888c0.258,3.181-2.132,5.949-5.338,6.183c-3.207,0.234-6.016-2.155-6.274-5.335s2.132-5.949,5.338-6.183
				S42.435,32.708,42.694,35.888z"/>
			<g>
				<path d="M57.024,36.035c-0.606,0.858-1.196,1.598-1.828,2.357c-0.627,0.75-1.277,1.48-1.951,2.188
					c-1.351,1.414-2.788,2.758-4.355,3.975c-1.562,1.219-3.249,2.325-5.098,3.201c-1.839,0.878-3.858,1.533-5.983,1.739l-0.397,0.04
					l-0.169,0.013l-0.088,0.002l-0.175,0.005l-0.711,0.018c-0.573-0.017-1.157-0.038-1.671-0.113
					c-1.059-0.13-2.099-0.361-3.087-0.698c-1.99-0.653-3.795-1.644-5.448-2.779c-1.644-1.15-3.148-2.447-4.525-3.848
					c-0.689-0.701-1.35-1.425-1.982-2.175c-0.638-0.763-1.223-1.495-1.831-2.372c-0.413-0.596-0.397-1.363-0.022-1.933l0,0
					c0.577-0.873,1.13-1.599,1.736-2.358c0.601-0.744,1.228-1.466,1.883-2.165c1.308-1.398,2.731-2.705,4.287-3.875
					c3.092-2.322,6.845-4.162,11.044-4.371c0.24-0.006,0.429-0.028,0.711-0.021l0.825,0.019c0.529,0.04,1.036,0.068,1.543,0.155
					c1.017,0.137,2.003,0.385,2.962,0.683c1.918,0.603,3.705,1.465,5.373,2.466c1.673,0.998,3.224,2.148,4.692,3.38
					c0.733,0.618,1.442,1.261,2.129,1.929c0.696,0.68,1.336,1.331,2.024,2.128c0.599,0.693,0.624,1.687,0.118,2.402L57.024,36.035z
					 M52.767,35.035c-0.223-0.234-0.434-0.482-0.658-0.705c-0.614-0.611-1.251-1.201-1.907-1.767
					c-1.314-1.127-2.694-2.173-4.146-3.06c-1.448-0.892-2.967-1.638-4.526-2.147c-0.779-0.251-1.567-0.46-2.358-0.573
					c-0.391-0.075-0.799-0.097-1.177-0.133l-0.542-0.023c-0.174-0.012-0.441,0.009-0.657,0.012c-0.76,0.026-1.575,0.13-2.35,0.316
					c-0.784,0.175-1.561,0.422-2.32,0.737c-1.524,0.613-2.981,1.476-4.353,2.479c-1.373,1.007-2.664,2.161-3.862,3.414
					c-0.6,0.626-1.178,1.276-1.731,1.945c-0.542,0.659-1.099,1.384-1.535,2.028h0l-0.022-1.933c0.465,0.655,1.052,1.384,1.624,2.048
					c0.581,0.674,1.19,1.326,1.82,1.952c1.259,1.253,2.616,2.391,4.049,3.37c1.439,0.963,2.961,1.765,4.537,2.26
					c0.785,0.259,1.585,0.422,2.381,0.511c0.414,0.057,0.766,0.054,1.127,0.073l0.691-0.025l0.175-0.007l0.088-0.004
					c-0.028,0.002,0.078-0.004-0.06,0.003l0.009-0.001l0.019-0.002l0.038-0.004l0.3-0.035c3.217-0.358,6.338-2.069,9.073-4.251
					c1.377-1.092,2.668-2.325,3.886-3.628c0.608-0.653,1.196-1.328,1.761-2.019C52.354,35.597,52.554,35.309,52.767,35.035z"/>
			</g>
			<g>
				<path d="M10.621,11.454c0,0,0.861-0.278,2.369-0.764c0.739-0.254,1.736-0.492,2.827-0.802c1.105-0.296,2.348-0.562,3.72-0.841
					c0.69-0.118,1.409-0.241,2.154-0.369c0.752-0.09,1.53-0.182,2.33-0.277c0.802-0.082,1.635-0.109,2.482-0.166
					c0.85-0.029,1.723-0.014,2.61-0.015c1.775,0.093,3.619,0.224,5.467,0.617c1.852,0.348,3.71,0.896,5.492,1.647
					c1.789,0.731,3.507,1.662,5.065,2.77c1.563,1.098,2.993,2.336,4.236,3.66c2.483,2.661,4.255,5.58,5.451,8.196
					c0.599,1.311,1.062,2.549,1.425,3.661c0.363,1.113,0.615,2.103,0.809,2.923c0.173,0.825,0.307,1.475,0.371,1.924
					c0.072,0.448,0.111,0.687,0.111,0.687c0.176,1.09-0.565,2.117-1.656,2.293s-2.117-0.565-2.293-1.656
					c-0.001-0.007-0.002-0.014-0.003-0.021l-0.013-0.092c0,0-0.03-0.208-0.087-0.599c-0.047-0.392-0.157-0.963-0.295-1.691
					c-0.159-0.724-0.366-1.603-0.67-2.594c-0.304-0.99-0.696-2.094-1.205-3.262c-1.018-2.333-2.535-4.922-4.65-7.27
					c-1.06-1.169-2.278-2.258-3.612-3.231c-1.329-0.982-2.802-1.813-4.351-2.477c-1.542-0.683-3.166-1.195-4.81-1.532
					c-1.635-0.381-3.3-0.525-4.909-0.64c-0.81-0.01-1.607-0.04-2.389-0.027c-0.783,0.042-1.55,0.051-2.296,0.114
					c-0.746,0.076-1.472,0.149-2.175,0.221c-0.7,0.108-1.377,0.212-2.027,0.312c-1.291,0.24-2.49,0.473-3.519,0.731
					c-1.035,0.277-1.917,0.462-2.682,0.709c-1.516,0.46-2.382,0.723-2.382,0.723c-0.793,0.241-1.63-0.207-1.871-1
					C9.407,12.533,9.845,11.705,10.621,11.454z"/>
			</g>
		</g>
	</g>
</g>
<g id="Layer_1">
</g>
</svg>
