<?xml version="1.0" encoding="iso-8859-1"?>
<!-- Generator: Adobe Illustrator 19.2.0, SVG Export Plug-In . SVG Version: 6.00 Build 0)  -->
<!DOCTYPE svg PUBLIC "-//W3C//DTD SVG 1.1//EN" "http://www.w3.org/Graphics/SVG/1.1/DTD/svg11.dtd">
<svg version="1.1" xmlns="http://www.w3.org/2000/svg" xmlns:xlink="http://www.w3.org/1999/xlink" x="0px" y="0px"
	 viewBox="0 0 65 125" style="enable-background:new 0 0 65 125;" xml:space="preserve">
<g id="li">
	<g id="li_1_">
		<g>
			<path style="fill:#FFFFFF;stroke:#000000;stroke-width:5;stroke-miterlimit:10;" d="M32.5,2.5c-16.569,0-30,13.431-30,30
				c0,33.137,16.193,90,30,90s30-56.863,30-90C62.5,15.931,49.069,2.5,32.5,2.5z"/>
			<g>
				<path d="M33.374,91.986c0,0-0.359,0.051-0.988,0.141c-0.623,0.084-1.507,0.179-2.572,0.272c-2.128,0.172-4.981,0.276-7.86,0.09
					c-0.719-0.047-1.441-0.128-2.151-0.192c-0.71-0.107-1.411-0.192-2.088-0.313c-0.676-0.145-1.333-0.257-1.952-0.417
					c-0.618-0.174-1.205-0.328-1.743-0.493c-0.535-0.198-1.025-0.379-1.46-0.539c-0.438-0.146-0.8-0.367-1.108-0.503
					c-0.611-0.299-0.96-0.47-0.96-0.47c-0.992-0.486-1.402-1.684-0.916-2.676s1.684-1.402,2.676-0.916
					c0.021,0.01,0.042,0.021,0.063,0.032l0.193,0.104c0,0,0.268,0.145,0.736,0.397c0.242,0.117,0.501,0.307,0.862,0.441
					c0.351,0.149,0.747,0.316,1.179,0.499c0.454,0.151,0.945,0.314,1.465,0.487c0.526,0.163,1.105,0.286,1.692,0.442
					c0.596,0.135,1.225,0.239,1.858,0.365c0.645,0.087,1.298,0.191,1.958,0.264c2.644,0.292,5.346,0.319,7.365,0.247
					c1.009-0.043,1.851-0.094,2.432-0.146c0.575-0.055,0.903-0.087,0.903-0.087l0.059-0.006c0.824-0.079,1.557,0.524,1.636,1.349
					C34.732,91.158,34.161,91.873,33.374,91.986z"/>
			</g>
			<g>
				<path d="M35.665,105.513c0,0-0.316,0.046-0.87,0.126c-0.548,0.076-1.324,0.161-2.259,0.246
					c-1.869,0.157-4.374,0.256-6.908,0.099c-0.633-0.039-1.269-0.108-1.894-0.164c-0.626-0.092-1.244-0.165-1.841-0.271
					c-0.597-0.126-1.177-0.223-1.724-0.363c-0.547-0.153-1.065-0.298-1.543-0.432c-0.474-0.174-0.909-0.333-1.295-0.474
					c-0.388-0.129-0.711-0.323-0.985-0.443c-0.543-0.265-0.854-0.416-0.854-0.416c-0.993-0.484-1.406-1.681-0.922-2.674
					c0.484-0.993,1.681-1.406,2.674-0.922c0.025,0.012,0.049,0.025,0.074,0.038l0.189,0.103c0,0,0.229,0.125,0.63,0.343
					c0.207,0.101,0.428,0.266,0.738,0.382c0.302,0.129,0.643,0.275,1.014,0.434c0.392,0.132,0.816,0.274,1.265,0.425
					c0.455,0.143,0.957,0.251,1.464,0.388c0.516,0.119,1.063,0.211,1.612,0.323c0.56,0.077,1.127,0.17,1.701,0.236
					c2.299,0.262,4.654,0.294,6.414,0.237c0.879-0.034,1.613-0.076,2.119-0.12c0.5-0.046,0.785-0.073,0.785-0.073l0.06-0.006
					c0.825-0.076,1.555,0.53,1.631,1.355C37.016,104.688,36.448,105.397,35.665,105.513z"/>
			</g>
		</g>
		<g>
			<g>
				<path d="M2.667,35.749l43.5-0.25c1.381-0.008,2.506,1.105,2.514,2.486c0.008,1.381-1.105,2.507-2.486,2.514
					c-0.005,0-0.024,0-0.029,0l-43.5-0.25c-1.243-0.007-2.244-1.02-2.237-2.263C0.437,36.753,1.437,35.757,2.667,35.749z"/>
			</g>
			<g>
				<circle cx="30.892" cy="51.442" r="4.876"/>
				<circle cx="30.892" cy="24.557" r="4.876"/>
			</g>
		</g>
	</g>
</g>
<g id="Layer_1">
</g>
</svg>
