<?xml version="1.0" encoding="iso-8859-1"?>
<!-- Generator: Adobe Illustrator 19.2.0, SVG Export Plug-In . SVG Version: 6.00 Build 0)  -->
<!DOCTYPE svg PUBLIC "-//W3C//DTD SVG 1.1//EN" "http://www.w3.org/Graphics/SVG/1.1/DTD/svg11.dtd">
<svg version="1.1" xmlns="http://www.w3.org/2000/svg" xmlns:xlink="http://www.w3.org/1999/xlink" x="0px" y="0px"
	 viewBox="0 0 125.125 124.996" style="enable-background:new 0 0 125.125 124.996;" xml:space="preserve">
<g id="ten">
	<g id="ten_1_">
		<g>
			<path style="fill:#FFFFFF;" d="M2.5,105.436c0-16.853,26.738-22.407,59.875-22.407s60.134,7.537,60.134,22.796
				c0,10.314-9.268,16.675-20.866,16.675c-13,0-21-6.773-21-17.087c0,9.495-6.5,15.604-18,15.604c-12.5,0-18-6.109-18-15.604
				c0,10.314-8.75,17.087-21.25,17.087C11.796,122.5,2.5,115.749,2.5,105.436z"/>
			<path d="M0.001,105.373l0.023-0.777l0.075-0.967c0.07-0.604,0.164-1.206,0.294-1.805c0.263-1.196,0.666-2.367,1.195-3.471
				c1.056-2.216,2.601-4.12,4.33-5.673c3.493-3.109,7.573-5.002,11.64-6.455c4.09-1.44,8.259-2.395,12.43-3.138
				c4.175-0.736,8.363-1.23,12.551-1.581c4.188-0.351,8.376-0.55,12.56-0.649c4.19-0.085,8.348-0.113,12.557-0.03
				c8.383,0.191,16.783,0.848,25.114,2.355c4.162,0.768,8.312,1.732,12.391,3.097c4.067,1.378,8.11,3.096,11.804,5.729
				c1.835,1.32,3.582,2.891,5.012,4.835c1.428,1.929,2.503,4.277,2.866,6.761c0.196,1.22,0.199,2.539,0.122,3.614
				c-0.086,1.291-0.285,2.419-0.622,3.608c-0.659,2.338-1.834,4.548-3.392,6.393c-3.139,3.725-7.54,5.895-11.935,6.943
				c-2.213,0.531-4.465,0.796-6.703,0.822c-0.293,0-0.531,0.01-0.868,0l-0.777-0.021c-0.515-0.015-1.134-0.057-1.686-0.095
				c-1.11-0.095-2.222-0.233-3.329-0.437c-2.214-0.409-4.415-1.07-6.511-2.058c-2.084-1.009-4.058-2.357-5.703-4.079
				c-1.642-1.718-2.942-3.792-3.729-6.023c-0.804-2.229-1.1-4.576-1.065-6.854l0-0.001c-0.069-1.101,0.768-2.05,1.869-2.119
				c1.101-0.069,2.05,0.768,2.119,1.869l0.001,0.024l0.01,0.226c0.112,2.469-0.241,5.046-1.201,7.485
				c-0.977,2.426-2.615,4.651-4.677,6.303c-2.052,1.678-4.48,2.737-6.904,3.398c-1.218,0.328-2.447,0.561-3.672,0.701
				c-1.24,0.143-2.418,0.21-3.695,0.215c-1.071-0.01-2.42-0.081-3.599-0.212c-1.217-0.131-2.441-0.349-3.66-0.656
				c-2.424-0.618-4.893-1.635-6.971-3.341c-2.096-1.67-3.692-3.992-4.579-6.445c-0.876-2.469-1.149-5.012-1.041-7.447l0-0.001h4
				c0.071,2.802-0.492,5.708-1.775,8.313c-1.282,2.605-3.253,4.846-5.55,6.533c-2.299,1.698-4.91,2.855-7.572,3.599
				c-2.669,0.74-5.403,1.09-8.114,1.135c-1.317,0.016-2.75-0.059-4.111-0.225c-1.369-0.166-2.734-0.427-4.078-0.793
				c-2.686-0.732-5.306-1.89-7.648-3.558c-2.329-1.674-4.362-3.887-5.741-6.504C0.664,111.307-0.02,108.33,0,105.436L0.001,105.373z
				 M5,105.436c0.003,2.161,0.512,4.256,1.513,6.108c0.995,1.856,2.472,3.464,4.251,4.731c1.771,1.281,3.839,2.226,6.024,2.836
				c1.093,0.305,2.218,0.528,3.357,0.674c1.148,0.146,2.244,0.211,3.455,0.214c2.344,0.015,4.671-0.238,6.891-0.799
				c2.219-0.56,4.312-1.471,6.138-2.708c1.82-1.244,3.33-2.865,4.358-4.763c1.048-1.889,1.602-4.063,1.657-6.315l0.001-0.049
				c0.027-1.104,0.944-1.977,2.048-1.95c1.087,0.027,1.95,0.918,1.951,1.999l0,0.001c0.113,2.068,0.449,4.078,1.222,5.819
				c0.737,1.752,1.855,3.236,3.34,4.325c1.48,1.087,3.26,1.869,5.207,2.325c0.972,0.23,1.976,0.399,3.003,0.495
				c1.065,0.096,1.971,0.141,3.157,0.14c0.979,0.003,2.057-0.036,3.06-0.141c1.017-0.102,2.013-0.279,2.977-0.525
				c1.932-0.484,3.706-1.306,5.219-2.408c1.509-1.112,2.692-2.589,3.485-4.312c0.831-1.712,1.216-3.683,1.33-5.718h4l0,0.001
				c0.062,1.862,0.389,3.684,1.075,5.333c0.685,1.647,1.672,3.135,2.94,4.373c2.548,2.479,6.093,3.93,9.826,4.528
				c0.936,0.151,1.887,0.248,2.844,0.31c0.482,0.021,0.899,0.045,1.42,0.05l0.778,0.004l0.687-0.016
				c1.906-0.05,3.8-0.277,5.616-0.729c3.635-0.873,6.982-2.686,9.239-5.328c1.126-1.319,1.946-2.848,2.426-4.497
				c0.242-0.802,0.399-1.729,0.456-2.507c0.072-0.992,0.066-1.759-0.055-2.59c-0.431-3.27-2.755-6.173-5.803-8.377
				c-3.051-2.226-6.706-3.856-10.469-5.161c-3.779-1.3-7.718-2.269-11.707-3.023c-7.991-1.494-16.178-2.189-24.372-2.423
				c-4.084-0.12-8.223-0.097-12.324,0.028c-4.108,0.121-8.208,0.341-12.284,0.706c-4.075,0.365-8.13,0.869-12.121,1.597
				c-3.987,0.727-7.92,1.686-11.647,3.033c-3.707,1.348-7.265,3.111-9.962,5.574c-1.341,1.227-2.431,2.627-3.148,4.168
				c-0.36,0.77-0.629,1.574-0.804,2.405c-0.086,0.416-0.148,0.839-0.194,1.266l-0.043,0.584L5,105.498L5,105.436z"/>
		</g>
		
			<ellipse style="fill:#FFFFFF;stroke:#000000;stroke-width:5;stroke-miterlimit:10;" cx="62.625" cy="50.103" rx="60" ry="47.603"/>
		
			<line style="fill:none;stroke:#000000;stroke-width:4.5;stroke-linecap:round;stroke-linejoin:round;stroke-miterlimit:10;" x1="62.625" y1="15.723" x2="62.625" y2="2.5"/>
		<g>
			<path style="fill:#FFFFFF;" d="M36.019,22.021c7.718-3.902,16.841-6.299,26.616-6.299c9.893,0,19.118,2.31,26.894,6.299"/>
			<path d="M35.252,20.449c0,0,0.191-0.104,0.548-0.298c0.361-0.192,0.864-0.485,1.594-0.831c1.432-0.698,3.442-1.656,5.992-2.539
				c1.27-0.442,2.659-0.892,4.149-1.292c1.488-0.409,3.074-0.79,4.736-1.069c1.658-0.304,3.387-0.521,5.149-0.689
				c1.775-0.169,3.534-0.237,5.388-0.254c1.688,0.02,3.587,0.108,5.322,0.265c1.759,0.175,3.488,0.381,5.145,0.684
				c1.661,0.28,3.248,0.653,4.737,1.059c1.493,0.391,2.881,0.846,4.155,1.282c1.274,0.438,2.416,0.908,3.42,1.342
				c0.999,0.446,1.865,0.843,2.565,1.199c0.708,0.337,1.242,0.65,1.612,0.847c0.368,0.202,0.565,0.309,0.565,0.309
				c0.848,0.464,1.159,1.528,0.695,2.376c-0.444,0.811-1.436,1.131-2.264,0.752l-0.029-0.014c0,0-0.763-0.352-2.118-0.913
				c-1.348-0.577-3.313-1.307-5.712-2.041c-1.202-0.359-2.509-0.732-3.913-1.041c-1.399-0.327-2.891-0.596-4.436-0.853
				c-1.545-0.263-3.157-0.432-4.796-0.574c-1.667-0.125-3.234-0.182-5.013-0.183c-1.613,0.003-3.323,0.037-4.948,0.175
				c-1.637,0.135-3.247,0.313-4.79,0.577c-3.092,0.494-5.945,1.174-8.346,1.914c-2.394,0.737-4.383,1.471-5.71,2.032
				c-0.659,0.266-1.219,0.511-1.59,0.674c-0.373,0.162-0.572,0.249-0.572,0.249c-0.887,0.386-1.919-0.021-2.305-0.908
				C34.117,21.849,34.466,20.878,35.252,20.449z"/>
		</g>
		<g>
			<g>
				<path d="M64.926,35.734c0,0,0.033,0.697,0.089,1.917c0.037,1.22,0.129,2.962,0.169,5.053c0.037,2.091,0.125,4.53,0.139,7.144
					c0.019,2.614,0.039,5.401,0.059,8.189c-0.021,2.788-0.041,5.576-0.061,8.189c-0.019,2.614-0.102,5.053-0.14,7.144
					c-0.042,2.091-0.131,3.833-0.168,5.053c-0.056,1.22-0.089,1.917-0.089,1.917c-0.058,1.266-1.132,2.244-2.398,2.186
					c-1.191-0.055-2.128-1.019-2.186-2.186c0,0-0.032-0.697-0.089-1.917c-0.037-1.219-0.126-2.962-0.168-5.053
					c-0.038-2.091-0.122-4.53-0.14-7.144c-0.019-2.614-0.04-5.401-0.061-8.189c0.02-2.788,0.04-5.575,0.059-8.189
					c0.014-2.614,0.102-5.053,0.139-7.144c0.04-2.091,0.132-3.833,0.169-5.053c0.057-1.219,0.089-1.917,0.089-1.917
					c0.059-1.266,1.133-2.244,2.399-2.185C63.932,33.605,64.868,34.568,64.926,35.734z"/>
			</g>
			<g>
				<path d="M37.968,55.745c0,0,0.771-0.032,2.12-0.089c1.349-0.037,3.276-0.126,5.589-0.168c2.313-0.038,5.011-0.122,7.901-0.14
					c2.891-0.019,5.974-0.04,9.058-0.061c3.083,0.02,6.167,0.041,9.058,0.06c2.891,0.014,5.589,0.102,7.901,0.139
					c2.313,0.041,4.24,0.132,5.589,0.169c1.349,0.057,2.12,0.09,2.12,0.09c1.266,0.053,2.248,1.123,2.195,2.388
					c-0.051,1.198-1.02,2.142-2.195,2.195c0,0-0.771,0.032-2.12,0.089c-1.349,0.037-3.276,0.129-5.589,0.169
					c-2.313,0.037-5.011,0.125-7.901,0.14c-2.891,0.019-5.974,0.039-9.058,0.059c-3.083-0.021-6.167-0.041-9.058-0.061
					c-2.891-0.019-5.589-0.102-7.901-0.14c-2.313-0.042-4.24-0.131-5.589-0.168c-1.349-0.056-2.12-0.089-2.12-0.089
					c-1.266-0.053-2.249-1.122-2.196-2.387C35.822,56.743,36.791,55.797,37.968,55.745z"/>
			</g>
		</g>
	</g>
</g>
<g id="Layer_1">
</g>
</svg>
