<?xml version="1.0" encoding="iso-8859-1"?>
<!-- Generator: Adobe Illustrator 19.2.0, SVG Export Plug-In . SVG Version: 6.00 Build 0)  -->
<!DOCTYPE svg PUBLIC "-//W3C//DTD SVG 1.1//EN" "http://www.w3.org/Graphics/SVG/1.1/DTD/svg11.dtd">
<svg version="1.1" xmlns="http://www.w3.org/2000/svg" xmlns:xlink="http://www.w3.org/1999/xlink" x="0px" y="0px"
	 viewBox="0 0 70.018 125.03" style="enable-background:new 0 0 70.018 125.03;" xml:space="preserve">
<g id="na">
	<g id="na_1_">
		<g>
			<path style="fill:#FFFFFF;" d="M32.763,2.526c10.902,0,19.985,8.025,19.985,17.925c0,5.94-3.195,11.19-8.096,14.451
				c9.154,0.643,16.366,7.577,16.366,16.054c0,6.489-4.232,12.067-10.318,14.622c9.959,4.88,16.818,15.113,16.818,26.951
				c0,16.569-12.247,30-28.815,30c-25.038,0-36.185-26.738-36.185-59.875v-30.13C2.518,15.957,16.194,2.526,32.763,2.526z"/>
			<path d="M32.878,0.003c1.006,0.06,1.872,0.027,3.088,0.219c1.172,0.116,2.213,0.389,3.282,0.634
				c1.043,0.332,2.103,0.629,3.099,1.096c1.024,0.4,1.979,0.956,2.941,1.49c0.923,0.605,1.846,1.211,2.683,1.941
				c0.44,0.337,0.844,0.717,1.235,1.113c0.392,0.394,0.809,0.762,1.148,1.208c0.352,0.433,0.719,0.853,1.051,1.301l0.934,1.395
				c0.554,0.973,1.113,1.952,1.493,3.018c0.213,0.522,0.409,1.049,0.538,1.601c0.132,0.549,0.328,1.081,0.398,1.642l0.253,1.672
				l0.068,1.686l0.014,0.421l-0.021,0.448l-0.041,0.734c-0.07,0.573-0.113,1.209-0.23,1.738c-0.171,1.106-0.514,2.176-0.89,3.219
				c-1.58,4.173-4.642,7.592-8.296,9.779l-0.005,0.003l-0.847-3.203c1.001,0.055,2.01,0.107,3.002,0.311
				c0.502,0.069,0.994,0.187,1.484,0.32c0.491,0.127,0.988,0.241,1.464,0.426c0.97,0.317,1.894,0.755,2.814,1.207l1.331,0.775
				c0.437,0.27,0.847,0.585,1.271,0.879c0.82,0.624,1.622,1.291,2.32,2.064c0.37,0.366,0.71,0.761,1.026,1.179
				c0.328,0.407,0.654,0.816,0.927,1.267c0.596,0.864,1.072,1.811,1.498,2.775c0.187,0.494,0.397,0.981,0.557,1.485l0.419,1.534
				l0.25,1.572c0.068,0.525,0.068,1.057,0.101,1.585l0.017,0.397l-0.015,0.439l-0.031,0.689c-0.027,0.475-0.116,1.1-0.188,1.639
				c-0.205,1.04-0.462,2.07-0.846,3.054c-0.358,0.993-0.839,1.935-1.388,2.825c-0.544,0.895-1.178,1.724-1.857,2.506
				c-0.699,0.764-1.43,1.495-2.238,2.13c-0.796,0.649-1.662,1.2-2.544,1.703c-0.881,0.508-1.812,0.914-2.755,1.27l-0.013,0.006
				l0.093-3.186c4.743,2.12,8.956,5.48,12.134,9.672c3.216,4.174,5.247,9.239,6.052,14.47l0.24,1.974l0.101,1.985l0.012,0.249
				l0.006,0.124c-0.001,0.072,0.006-0.073-0.001,0.177l-0.002,0.058l-0.018,0.459l-0.037,0.918
				c-0.034,0.622-0.028,1.201-0.095,1.859l-0.265,2.036l-0.14,1.017l-0.218,0.969l-0.449,1.935
				c-0.164,0.641-0.403,1.263-0.603,1.895c-1.659,5.046-4.681,9.638-8.619,13.248c-0.468,0.478-0.998,0.886-1.528,1.294
				c-0.53,0.407-1.047,0.833-1.591,1.219l-1.697,1.071c-0.285,0.175-0.563,0.362-0.854,0.525l-0.898,0.448l-1.799,0.888
				l-1.877,0.704l-0.94,0.348c-0.316,0.105-0.644,0.176-0.965,0.265l-1.938,0.502c-0.648,0.156-1.313,0.219-1.97,0.331
				c-0.66,0.08-1.314,0.243-1.979,0.249l-1.989,0.097l-0.497,0.023l-0.249,0.011l-0.062,0.003c0.055,0.002-0.145-0.001-0.145-0.001
				l-0.115-0.004l-0.918-0.031c-1.16-0.007-2.606-0.165-3.937-0.33l-1.961-0.347c-0.65-0.14-1.293-0.319-1.939-0.48
				c-5.147-1.421-9.902-4.276-13.618-8.02c-3.722-3.748-6.57-8.187-8.696-12.839c-1.088-2.322-1.997-4.708-2.775-7.122
				c-0.801-2.41-1.436-4.858-1.996-7.316c-1.097-4.921-1.805-9.898-2.193-14.882c-0.215-2.492-0.316-4.987-0.391-7.48
				c-0.053-2.508-0.049-4.972-0.047-7.412L0.002,44.062l-0.001-7.351L0,33.035l0-0.459l0.024-0.588l0.047-0.918
				c0.036-0.617,0.052-1.213,0.104-1.847c0.366-2.778,0.88-5.394,1.86-7.864c0.867-2.52,2.202-4.841,3.634-7.071
				c3.049-4.343,7.091-7.991,11.783-10.479C22.16,1.358,27.454,0.032,32.763,0L32.878,0.003z M32.763,5.052
				C28.264,5.084,23.801,6.203,19.81,8.27c-3.973,2.106-7.398,5.205-9.985,8.872c-1.2,1.892-2.343,3.843-3.065,5.971
				c-0.179,0.53-0.428,1.039-0.555,1.585l-0.424,1.626c-0.169,0.547-0.243,1.074-0.319,1.601l-0.258,1.581
				c-0.05,0.586-0.068,1.216-0.104,1.822l-0.047,0.918l-0.012,0.229L5.036,32.59l-0.003,0.057c0.006-0.24,0.002-0.034,0.003-0.072
				l0,0.459l-0.001,3.676l-0.001,7.351L5.032,58.765c-0.004,2.461-0.007,4.899,0.043,7.291c0.072,2.405,0.167,4.809,0.374,7.2
				c0.371,4.787,1.048,9.537,2.083,14.185c0.528,2.319,1.124,4.621,1.869,6.863c0.723,2.25,1.563,4.453,2.555,6.569
				c1.938,4.254,4.491,8.179,7.68,11.395c3.194,3.21,7.121,5.548,11.425,6.749c0.543,0.132,1.081,0.286,1.628,0.405l1.658,0.294
				c1.1,0.125,2.09,0.268,3.383,0.281l0.918,0.031l0.115,0.004c0.038,0.001-0.124-0.002-0.03-0.002l0.053-0.003l0.21-0.012
				l0.42-0.024l1.682-0.089c0.564-0.001,1.108-0.155,1.663-0.222c0.55-0.099,1.111-0.147,1.652-0.283l1.617-0.431
				c0.268-0.075,0.543-0.132,0.806-0.222l0.78-0.299l1.563-0.59l1.491-0.752l0.747-0.372c0.242-0.137,0.47-0.298,0.706-0.444
				l1.409-0.896c0.451-0.326,0.876-0.688,1.317-1.027c0.441-0.341,0.883-0.679,1.268-1.085l1.204-1.16
				c0.39-0.398,0.73-0.843,1.1-1.26c0.768-0.814,1.349-1.778,2.006-2.681c0.326-0.454,0.562-0.967,0.85-1.447
				c0.262-0.494,0.587-0.956,0.789-1.481c0.446-1.029,0.954-2.031,1.277-3.111c0.174-0.534,0.389-1.055,0.533-1.599l0.398-1.642
				l0.199-0.82l0.115-0.803l0.244-1.605c0.069-0.558,0.074-1.209,0.114-1.809l0.048-0.918l0.024-0.459l0.003-0.057
				c-0.004,0.212-0.002,0.029-0.003,0.062l-0.002-0.105l-0.005-0.211l-0.036-1.688l-0.157-1.68c-0.548-4.469-2.197-8.8-4.764-12.552
				c-2.589-3.736-6.074-6.874-10.121-9.101l-0.059-0.032c-0.85-0.468-1.16-1.537-0.692-2.387c0.196-0.356,0.498-0.617,0.844-0.766
				l0.011-0.005c0.74-0.388,1.466-0.792,2.148-1.257c0.679-0.467,1.337-0.963,1.922-1.531c0.613-0.537,1.156-1.142,1.67-1.76
				c0.495-0.635,0.95-1.295,1.326-1.995c0.185-0.351,0.378-0.698,0.522-1.066c0.173-0.356,0.312-0.723,0.438-1.095
				c0.27-0.739,0.433-1.507,0.569-2.274c0.025-0.375,0.094-0.66,0.116-1.103l0.025-0.69l0.006-0.172l0.003-0.086l0.002-0.043
				l0-0.011c-0.001,0.037,0.002-0.098-0.002,0.081l-0.001-0.018l-0.019-0.292c-0.033-0.389-0.028-0.782-0.082-1.167l-0.189-1.154
				l-0.3-1.131c-0.115-0.373-0.273-0.733-0.404-1.102c-0.31-0.719-0.663-1.424-1.096-2.087c-0.191-0.347-0.435-0.661-0.677-0.977
				c-0.228-0.326-0.48-0.635-0.761-0.922c-0.523-0.604-1.12-1.148-1.733-1.671c-0.323-0.243-0.628-0.511-0.963-0.741l-1.023-0.667
				c-0.716-0.393-1.438-0.779-2.205-1.081c-0.37-0.185-0.765-0.304-1.155-0.44c-0.389-0.143-0.782-0.274-1.189-0.36
				c-0.801-0.229-1.626-0.347-2.454-0.497l-0.196-0.036c-0.947-0.171-1.575-1.078-1.404-2.025c0.088-0.485,0.373-0.889,0.753-1.143
				l0.004-0.003c2.85-2.158,5.051-5.073,6.053-8.325c0.228-0.817,0.435-1.637,0.53-2.475c0.077-0.432,0.066-0.78,0.112-1.179
				l0.009-0.735l0.002-0.184l0.001-0.092l0.001-0.046l0-0.023l0-0.011c-0.003,0.155-0.001,0.037-0.002,0.069l-0.028-0.313
				l-0.102-1.247l-0.246-1.224c-0.061-0.412-0.241-0.797-0.35-1.196c-0.106-0.402-0.272-0.784-0.45-1.162
				c-0.299-0.776-0.737-1.496-1.161-2.214l-0.723-1.031c-0.259-0.332-0.549-0.641-0.819-0.964c-0.259-0.333-0.589-0.606-0.884-0.909
				c-0.296-0.304-0.603-0.596-0.946-0.852c-0.64-0.564-1.361-1.026-2.073-1.501c-0.751-0.411-1.484-0.863-2.289-1.176
				c-0.774-0.379-1.611-0.606-2.427-0.884c-0.84-0.193-1.695-0.426-2.478-0.503c-0.717-0.157-1.82-0.156-2.768-0.217L32.763,5.052z"
				/>
		</g>
		<path style="fill:#FFFFFF;stroke:#000000;stroke-width:5;stroke-miterlimit:10;" d="M25.518,50.957"/>
		<g>
			<ellipse transform="matrix(0.9962 -0.0867 0.0867 0.9962 -6.8786 2.8008)" cx="28.822" cy="80.632" rx="5.053" ry="5.288"/>
			<g>
				<path d="M46.539,80.258c-0.514,0.784-1.013,1.458-1.55,2.153c-0.532,0.686-1.085,1.354-1.659,2.006
					c-1.15,1.302-2.382,2.543-3.733,3.682c-1.349,1.138-2.812,2.185-4.44,3.03c-1.619,0.844-3.419,1.5-5.345,1.718l-0.36,0.042
					l-0.09,0.01l-0.154,0.009l-0.155,0.006l-0.628,0.023c-0.528-0.01-1.065-0.027-1.528-0.094c-0.96-0.119-1.902-0.33-2.789-0.645
					c-1.786-0.611-3.388-1.528-4.841-2.573c-1.45-1.052-2.758-2.24-3.96-3.506c-0.6-0.635-1.174-1.289-1.723-1.966
					c-0.555-0.688-1.061-1.344-1.592-2.138c-0.387-0.577-0.378-1.304-0.04-1.861h0c0.487-0.798,0.952-1.456,1.463-2.15
					c0.507-0.68,1.038-1.341,1.593-1.984c1.109-1.286,2.326-2.494,3.664-3.595c1.343-1.092,2.814-2.08,4.448-2.836
					c0.811-0.386,1.673-0.696,2.559-0.938c0.894-0.25,1.786-0.398,2.762-0.464c0.21-0.009,0.381-0.028,0.624-0.029l0.755,0.01
					c0.485,0.03,0.939,0.055,1.398,0.131c0.919,0.122,1.806,0.348,2.665,0.623c1.719,0.554,3.305,1.349,4.776,2.264
					c1.477,0.913,2.836,1.959,4.121,3.076c0.641,0.56,1.26,1.141,1.86,1.744c0.609,0.615,1.163,1.198,1.769,1.923
					c0.564,0.675,0.594,1.619,0.136,2.318L46.539,80.258z M42.302,79.336c-0.168-0.181-0.324-0.373-0.491-0.545
					c-0.529-0.545-1.077-1.073-1.642-1.58c-1.131-1.01-2.322-1.948-3.575-2.744c-1.249-0.801-2.56-1.47-3.903-1.921
					c-0.67-0.224-1.348-0.406-2.025-0.503c-0.334-0.063-0.687-0.082-1.003-0.109l-0.452-0.017c-0.16-0.005-0.391,0.013-0.583,0.019
					c-0.629,0.035-1.338,0.133-1.996,0.313c-0.668,0.175-1.332,0.399-1.979,0.698c-1.299,0.578-2.537,1.378-3.702,2.3
					c-1.161,0.931-2.254,1.982-3.262,3.122c-0.505,0.569-0.99,1.158-1.454,1.762c-0.453,0.594-0.921,1.251-1.281,1.823h0
					l-0.04-1.861c0.396,0.575,0.904,1.228,1.396,1.819c0.5,0.602,1.025,1.184,1.568,1.744c1.088,1.117,2.255,2.144,3.494,3.019
					c1.24,0.869,2.555,1.585,3.908,2.026c0.675,0.231,1.359,0.368,2.039,0.445c0.357,0.048,0.647,0.042,0.946,0.057l0.611-0.03
					l0.155-0.008l0.039-0.002l0.019-0.001c0.07-0.005-0.084,0.006-0.066,0.004l0.008-0.001l0.064-0.009l0.256-0.035
					c2.741-0.358,5.41-1.961,7.725-3.969c1.166-1.007,2.257-2.132,3.282-3.321c0.512-0.595,1.006-1.208,1.479-1.834
					C41.998,79.784,42.144,79.555,42.302,79.336z"/>
			</g>
			<g>
				<path d="M2.144,48.235c0,0,0.896-0.173,2.464-0.476c0.797-0.134,1.695-0.389,2.902-0.447c0.588-0.05,1.213-0.103,1.872-0.158
					c0.658-0.04,1.359-0.153,2.07-0.099c0.715,0.021,1.46,0.042,2.231,0.064c0.386,0.012,0.778,0.024,1.176,0.036
					c0.397,0.039,0.797,0.109,1.204,0.163c0.814,0.118,1.651,0.24,2.506,0.364c0.85,0.152,1.696,0.425,2.568,0.641
					c0.435,0.116,0.873,0.233,1.315,0.351c0.438,0.13,0.858,0.323,1.293,0.484c0.859,0.348,1.748,0.658,2.607,1.052
					c0.837,0.442,1.681,0.887,2.528,1.335c0.433,0.209,0.833,0.472,1.227,0.748l1.194,0.808l1.192,0.812l1.1,0.926l1.094,0.925
					c0.37,0.302,0.727,0.615,1.043,0.966c0.656,0.68,1.307,1.355,1.95,2.022c0.606,0.698,1.152,1.433,1.716,2.133
					c0.272,0.358,0.571,0.692,0.812,1.062c0.24,0.37,0.478,0.737,0.713,1.1c0.456,0.734,0.96,1.42,1.343,2.148
					c0.746,1.466,1.542,2.813,2.034,4.167c0.273,0.665,0.534,1.302,0.783,1.908c0.227,0.614,0.388,1.216,0.568,1.771
					c0.347,1.116,0.662,2.086,0.803,2.916c0.347,1.644,0.546,2.583,0.546,2.583c0.228,1.08-0.462,2.141-1.542,2.369
					c-1.08,0.228-2.141-0.462-2.369-1.542c-0.001-0.007-0.003-0.014-0.004-0.021l-0.037-0.188c0,0-0.165-0.849-0.455-2.335
					c-0.11-0.752-0.384-1.631-0.68-2.644c-0.154-0.504-0.287-1.052-0.483-1.611c-0.216-0.551-0.444-1.131-0.681-1.736
					c-0.418-1.237-1.126-2.459-1.773-3.802c-0.333-0.667-0.783-1.289-1.182-1.961c-0.206-0.332-0.415-0.668-0.625-1.007
					c-0.211-0.339-0.479-0.641-0.718-0.969c-0.5-0.638-0.979-1.314-1.514-1.954c-0.569-0.61-1.145-1.228-1.726-1.85
					c-0.278-0.324-0.595-0.61-0.924-0.885l-0.97-0.847l-0.973-0.853l-1.06-0.743l-1.059-0.745c-0.348-0.256-0.703-0.501-1.09-0.691
					c-0.753-0.415-1.504-0.828-2.248-1.239c-0.765-0.367-1.561-0.654-2.326-0.982c-0.388-0.152-0.762-0.335-1.154-0.459
					c-0.396-0.112-0.79-0.222-1.18-0.332c-0.784-0.206-1.54-0.473-2.307-0.622c-0.773-0.125-1.529-0.247-2.264-0.366
					c-0.369-0.056-0.73-0.129-1.09-0.17c-0.363-0.016-0.72-0.032-1.072-0.048c-0.703-0.033-1.383-0.064-2.036-0.095
					c-0.659-0.066-1.263,0.034-1.85,0.057c-0.585,0.037-1.139,0.072-1.66,0.105c-1.023,0.01-2.012,0.261-2.79,0.379
					c-1.573,0.276-2.472,0.433-2.472,0.433c-0.816,0.143-1.593-0.402-1.737-1.219C0.806,49.16,1.343,48.39,2.144,48.235z"/>
			</g>
		</g>
	</g>
</g>
<g id="Layer_1">
</g>
</svg>
