<?xml version="1.0" encoding="iso-8859-1"?>
<!-- Generator: Adobe Illustrator 19.2.0, SVG Export Plug-In . SVG Version: 6.00 Build 0)  -->
<!DOCTYPE svg PUBLIC "-//W3C//DTD SVG 1.1//EN" "http://www.w3.org/Graphics/SVG/1.1/DTD/svg11.dtd">
<svg version="1.1" xmlns="http://www.w3.org/2000/svg" xmlns:xlink="http://www.w3.org/1999/xlink" x="0px" y="0px"
	 viewBox="0 0 125 125" style="enable-background:new 0 0 125 125;" xml:space="preserve">
<g id="tu">
	<g id="tu_1_">
		<circle style="fill:#FFFFFF;stroke:#000000;stroke-width:5;stroke-miterlimit:10;" cx="62.5" cy="62.5" r="60"/>
		
			<line style="fill:none;stroke:#000000;stroke-width:4.5;stroke-linecap:round;stroke-linejoin:round;stroke-miterlimit:10;" x1="62.5" y1="19.166" x2="62.5" y2="2.5"/>
		<g>
			<path style="fill:#FFFFFF;" d="M35.894,27.105c7.718-4.918,16.841-7.939,26.616-7.939c9.893,0,19.118,2.912,26.894,7.939"/>
			<path d="M34.977,25.614c0,0,0.183-0.124,0.527-0.356c0.351-0.23,0.824-0.577,1.537-1c0.694-0.438,1.539-0.92,2.514-1.465
				c0.496-0.26,1.023-0.536,1.579-0.827c0.567-0.27,1.163-0.555,1.793-0.835c1.266-0.546,2.649-1.122,4.152-1.625
				c1.496-0.523,3.104-0.995,4.796-1.367c1.687-0.397,3.461-0.671,5.268-0.895c1.825-0.214,3.626-0.307,5.548-0.325
				c1.71,0.019,3.692,0.139,5.465,0.338c1.804,0.225,3.574,0.504,5.263,0.888c3.385,0.744,6.427,1.875,8.958,2.969
				c0.626,0.291,1.225,0.57,1.796,0.835c0.557,0.292,1.085,0.568,1.581,0.828c0.976,0.55,1.822,1.033,2.5,1.465
				c0.69,0.41,1.199,0.785,1.557,1.021c0.355,0.241,0.544,0.37,0.544,0.37c0.799,0.544,1.006,1.633,0.461,2.432
				c-0.521,0.765-1.543,0.987-2.33,0.526l-0.032-0.019c0,0-0.737-0.434-2.053-1.136c-0.652-0.361-1.465-0.759-2.398-1.209
				c-0.943-0.43-2.014-0.894-3.194-1.369c-1.188-0.454-2.48-0.932-3.879-1.334c-1.391-0.428-2.885-0.773-4.432-1.113
				c-1.549-0.332-3.171-0.565-4.823-0.75c-1.69-0.16-3.241-0.243-5.068-0.245c-1.614,0.004-3.351,0.06-4.986,0.235
				c-1.648,0.184-3.27,0.41-4.815,0.754c-1.546,0.336-3.036,0.699-4.427,1.126c-1.398,0.406-2.69,0.888-3.878,1.345
				c-1.181,0.476-2.253,0.941-3.198,1.372c-0.937,0.449-1.752,0.847-2.391,1.195c-0.64,0.329-1.188,0.643-1.546,0.842
				c-0.362,0.202-0.556,0.31-0.556,0.31c-0.845,0.471-1.912,0.168-2.383-0.677C33.982,27.12,34.235,26.119,34.977,25.614z"/>
		</g>
		<g>
			<path d="M60.455,122.5L60,72.921c-0.013-1.381,1.096-2.51,2.477-2.523c1.381-0.013,2.51,1.096,2.523,2.477
				c0,0.011,0,0.035,0,0.046L64.545,122.5c-0.01,1.13-0.935,2.037-2.064,2.027C61.365,124.516,60.465,123.612,60.455,122.5z"/>
		</g>
		<g>
			<path d="M41.055,119.248c0,0-0.112-9.431-0.281-23.579c-0.026-3.537-0.054-7.368-0.083-11.421
				c-0.015-2.026-0.03-4.108-0.045-6.236c-0.005-1.064-0.011-2.139-0.016-3.225l-0.001-0.407l0.02-0.531l0.039-0.819l0.041-0.825
				l0.136-0.973c0.159-1.336,0.482-2.517,0.85-3.731c0.217-0.593,0.423-1.195,0.661-1.785c0.275-0.574,0.551-1.15,0.828-1.728
				c1.216-2.256,2.841-4.323,4.797-6.056c1.953-1.734,4.237-3.132,6.711-4.08c1.231-0.491,2.523-0.828,3.825-1.082
				c0.657-0.094,1.312-0.227,1.973-0.279l0.995-0.054l0.498-0.025l0.249-0.012l0.124-0.006l0.062-0.003c0.077,0-0.085-0.005,0.189,0
				l1.766,0.093c0.615,0.046,1.37,0.183,2.045,0.281c1.354,0.263,2.608,0.594,3.851,1.087c2.474,0.948,4.758,2.346,6.711,4.08
				c1.955,1.733,3.581,3.8,4.797,6.056c1.216,2.259,1.979,4.716,2.329,7.175l0.136,0.921l0.049,0.924
				c0.024,0.598,0.075,1.27,0.06,1.78c-0.005,1.086-0.011,2.161-0.016,3.225c-0.015,2.128-0.031,4.209-0.045,6.236
				c-0.029,4.052-0.057,7.884-0.083,11.421c-0.169,14.147-0.281,23.579-0.281,23.579c-0.013,1.104-0.919,1.989-2.024,1.976
				c-1.088-0.013-1.962-0.895-1.976-1.976c0,0-0.112-9.431-0.281-23.579c-0.026-3.537-0.054-7.368-0.083-11.421
				c-0.015-2.026-0.03-4.108-0.045-6.236c-0.005-1.064-0.011-2.139-0.016-3.225c0.012-0.575-0.041-0.992-0.059-1.489l-0.037-0.721
				l-0.114-0.715c-0.282-1.909-0.877-3.81-1.829-5.557c-0.953-1.745-2.225-3.344-3.749-4.68c-1.522-1.338-3.296-2.41-5.209-3.133
				c-0.94-0.376-1.976-0.633-2.93-0.817c-0.49-0.059-0.894-0.165-1.453-0.207l-1.766-0.085c0.237,0.007,0.038,0.003,0.078,0.006
				l-0.048,0.003l-0.096,0.005l-0.193,0.01l-0.385,0.019l-0.771,0.035c-0.513,0.036-1.016,0.146-1.525,0.209
				c-1.005,0.194-2.005,0.444-2.956,0.822c-1.913,0.722-3.686,1.795-5.209,3.133c-1.524,1.336-2.795,2.936-3.749,4.68l-0.649,1.337
				l-0.517,1.382c-0.284,0.928-0.551,1.908-0.654,2.769l-0.114,0.662l-0.045,0.82l-0.043,0.819l-0.011,0.204l-0.005,0.102
				l-0.003,0.051c0.006-0.228,0.002-0.034,0.003-0.072l-0.001,0.407c-0.005,1.086-0.011,2.161-0.016,3.225
				c-0.015,2.128-0.031,4.209-0.045,6.236c-0.029,4.052-0.057,7.884-0.083,11.421c-0.169,14.147-0.281,23.579-0.281,23.579
				c-0.013,1.104-0.919,1.989-2.024,1.976C41.944,121.211,41.069,120.33,41.055,119.248z"/>
		</g>
	</g>
</g>
<g id="Layer_1">
</g>
</svg>
