<?xml version="1.0" encoding="iso-8859-1"?>
<!-- Generator: Adobe Illustrator 19.2.0, SVG Export Plug-In . SVG Version: 6.00 Build 0)  -->
<!DOCTYPE svg PUBLIC "-//W3C//DTD SVG 1.1//EN" "http://www.w3.org/Graphics/SVG/1.1/DTD/svg11.dtd">
<svg version="1.1" xmlns="http://www.w3.org/2000/svg" xmlns:xlink="http://www.w3.org/1999/xlink" x="0px" y="0px"
	 viewBox="0 0 124.982 125.018" style="enable-background:new 0 0 124.982 125.018;" xml:space="preserve">
<g id="pu">
	<g id="pu_1_">
		<g>
			<path style="fill:#FFFFFF;" d="M47.127,36.109c7.991-5.35,18.432-8.589,29.858-8.589c25.129,0,45.5,15.67,45.5,35
				c0,33.137-26.863,60-60,60s-60-26.863-60-60s26.863-60,60-60h0.125c27.407,0,50.375,16.25,49.125,37"/>
			<path d="M46.318,34.846c0,0,0.362-0.243,1.064-0.713c0.688-0.458,1.854-1.194,3.315-1.995c2.947-1.636,7.511-3.701,13.66-5.119
				c3.072-0.697,6.534-1.217,10.329-1.423c0.957-0.026,1.899-0.087,2.926-0.07c0.954,0.007,1.92,0.009,2.983,0.075
				c2.091,0.086,4.184,0.315,6.37,0.644c4.349,0.686,8.933,1.879,13.509,3.853c4.569,1.959,9.166,4.676,13.244,8.45
				c4.064,3.75,7.63,8.6,9.643,14.406c0.983,2.9,1.547,6.016,1.612,9.192l0.011,0.298c0.003-0.006,0.002,0.176,0,0.206l-0.003,0.136
				l-0.013,0.547l-0.027,1.098c-0.012,0.726-0.033,1.466-0.105,2.265c-0.061,0.781-0.122,1.566-0.184,2.353
				c-0.097,0.769-0.194,1.541-0.292,2.315c-0.46,3.086-1.087,6.199-2.031,9.264c-0.938,3.065-2.106,6.099-3.516,9.062
				c-2.886,5.884-6.682,11.509-11.457,16.379c-9.45,9.798-22.643,16.701-36.876,18.431c-1.771,0.252-3.561,0.361-5.351,0.455
				l-2.753,0.062l-2.59-0.065c-3.643-0.166-7.238-0.634-10.769-1.404c-7.081-1.52-13.887-4.378-20.018-8.268
				C16.682,107.534,7.341,95.307,2.987,81.673C-1.404,68.038-0.854,53.21,3.981,40.46C8.786,27.673,17.66,17.091,28.113,10.262
				c10.445-6.91,22.326-10.133,33.202-10.25c10.854-0.197,20.793,2.091,28.86,5.806c4.042,1.852,7.613,4.083,10.652,6.515
				c3.026,2.45,5.479,5.133,7.39,7.788c1.927,2.653,3.184,5.358,4.045,7.769c0.871,2.418,1.251,4.594,1.427,6.351
				c0.041,0.44,0.08,0.854,0.116,1.243c0.01,0.389,0.019,0.753,0.027,1.09c0.025,0.673,0.022,1.238-0.019,1.692
				c-0.054,0.907-0.081,1.375-0.081,1.375c-0.065,1.101-1.011,1.941-2.112,1.875c-1.048-0.062-1.859-0.921-1.879-1.953l-0.003-0.163
				c0,0-0.007-0.404-0.019-1.185c0.006-0.39-0.022-0.874-0.076-1.445c-0.023-0.286-0.047-0.594-0.073-0.925
				c-0.05-0.328-0.104-0.677-0.16-1.049c-0.449-2.946-1.717-7.282-5.109-11.841c-3.357-4.537-8.83-9.203-16.224-12.574
				c-7.363-3.377-16.583-5.5-26.669-5.295C51.395,5.2,40.534,8.213,30.925,14.528C21.31,20.78,13.132,30.5,8.697,42.239
				c-2.204,5.855-3.509,12.186-3.667,18.625c-0.224,6.468,0.728,13.009,2.718,19.278c4.001,12.53,12.6,23.794,23.934,30.92
				c5.641,3.578,11.897,6.208,18.408,7.604c3.257,0.711,6.56,1.134,9.822,1.289l2.59,0.065l2.418-0.064
				c1.648-0.091,3.296-0.192,4.924-0.428c13.084-1.614,25.185-7.983,33.861-17.001c4.4-4.466,7.894-9.634,10.56-15.033
				c2.606-5.437,4.327-11.144,5.128-16.832c0.091-0.712,0.182-1.422,0.273-2.129c0.056-0.697,0.112-1.39,0.167-2.082
				c0.068-0.673,0.092-1.404,0.105-2.145l0.029-1.098l0.014-0.547l0.004-0.137c0.002-0.061,0,0.03-0.001-0.067l-0.007-0.248
				c-0.027-2.646-0.462-5.243-1.259-7.694c-1.637-4.901-4.646-9.153-8.215-12.52c-3.584-3.374-7.688-5.928-11.831-7.808
				c-4.149-1.892-8.365-3.084-12.392-3.803c-2.009-0.344-4.008-0.603-5.883-0.716c-0.919-0.081-1.902-0.104-2.861-0.13
				c-0.885-0.033-1.821-0.007-2.702-0.007c-3.556,0.093-6.813,0.488-9.709,1.059c-5.803,1.155-10.11,3.005-12.938,4.393
				c-1.435,0.714-2.418,1.276-3.156,1.722c-0.721,0.441-1.093,0.668-1.093,0.668c-0.707,0.432-1.63,0.21-2.063-0.497
				C45.453,36.187,45.655,35.292,46.318,34.846z"/>
		</g>
		<circle cx="70.36" cy="16.645" r="4.125"/>
		<circle cx="84.235" cy="17.769" r="4"/>
		<g>
			<path d="M23.481,108.268l32.294-32.805c0.872-0.886,2.296-0.897,3.182-0.025c0.886,0.872,0.897,2.296,0.025,3.182
				c-0.007,0.007-0.022,0.022-0.028,0.028l-32.872,32.226c-0.726,0.712-1.892,0.7-2.603-0.026
				C22.774,110.131,22.779,108.982,23.481,108.268z"/>
		</g>
		<g>
			<path d="M10.925,93.789c0,0,6.268-6.397,15.67-15.992c2.361-2.388,4.919-4.976,7.624-7.713c1.353-1.368,2.742-2.774,4.162-4.211
				c0.711-0.718,1.43-1.443,2.155-2.175l0.547-0.549l0.597-0.581c0.342-0.341,0.836-0.763,1.294-1.153
				c3.599-2.954,8.327-4.824,13.245-4.935c4.905-0.159,9.962,1.475,13.871,4.632c0.96,0.77,1.911,1.692,2.673,2.572
				c0.873,1.002,1.575,1.975,2.219,3.065c1.271,2.149,2.157,4.511,2.604,6.93c0.907,4.845,0.067,9.858-2.102,13.99
				c-1.072,2.073-2.475,3.927-4.053,5.5c-1.439,1.418-2.846,2.806-4.216,4.157c-2.744,2.698-5.339,5.248-7.734,7.602
				c-4.778,4.72-8.816,8.598-11.62,11.335c-2.81,2.73-4.416,4.291-4.416,4.291c-0.713,0.693-1.853,0.677-2.546-0.037
				c-0.681-0.701-0.675-1.816,0.003-2.511c0,0,1.564-1.603,4.3-4.407c2.743-2.798,6.629-6.827,11.359-11.596
				c2.359-2.39,4.915-4.979,7.619-7.718c1.354-1.367,2.744-2.772,4.165-4.208c1.276-1.286,2.385-2.766,3.235-4.428
				c1.719-3.306,2.366-7.313,1.63-11.148c-0.363-1.915-1.071-3.771-2.077-5.456c-0.489-0.832-1.112-1.67-1.71-2.351
				c-0.71-0.804-1.373-1.444-2.152-2.084c-3.062-2.492-7.033-3.806-10.943-3.698c-3.917,0.071-7.694,1.544-10.591,3.897
				c-1.37,1.137-2.858,2.751-4.3,4.128c-1.44,1.417-2.848,2.804-4.219,4.154c-2.742,2.7-5.335,5.252-7.728,7.608
				c-9.614,9.383-16.024,15.638-16.024,15.638c-0.712,0.694-1.851,0.68-2.546-0.031C10.238,95.605,10.244,94.486,10.925,93.789z"/>
		</g>
	</g>
</g>
<g id="Layer_1">
</g>
</svg>
