<?xml version="1.0" encoding="iso-8859-1"?>
<!-- Generator: Adobe Illustrator 19.2.0, SVG Export Plug-In . SVG Version: 6.00 Build 0)  -->
<!DOCTYPE svg PUBLIC "-//W3C//DTD SVG 1.1//EN" "http://www.w3.org/Graphics/SVG/1.1/DTD/svg11.dtd">
<svg version="1.1" xmlns="http://www.w3.org/2000/svg" xmlns:xlink="http://www.w3.org/1999/xlink" x="0px" y="0px"
	 viewBox="0 0 125 125" style="enable-background:new 0 0 125 125;" xml:space="preserve">
<g id="ki">
	<g id="ki_1_">
		<g>
			<path style="fill:#FFFFFF;" d="M120.499,92.625c0,16.5-11.374,29.875-27.874,29.875S62.75,109.125,62.75,92.625
				s13.375-31.876,29.875-31.876S120.499,76.125,120.499,92.625z"/>
			<path d="M122.998,92.679c0,0-0.003,0.184-0.009,0.539c-0.013,0.37,0.003,0.843-0.054,1.631c-0.081,1.537-0.271,3.657-0.912,6.367
				c-0.639,2.686-1.719,5.924-3.699,9.283c-1.951,3.358-4.888,6.811-8.91,9.512c-3.987,2.72-9.093,4.574-14.566,4.901
				c-1.349,0.085-2.794,0.059-4.094-0.03c-1.471-0.115-2.848-0.286-4.253-0.593c-2.796-0.603-5.564-1.605-8.175-2.983
				c-2.608-1.385-5.066-3.133-7.284-5.187c-2.189-2.084-4.173-4.44-5.781-7.078c-0.797-1.322-1.508-2.702-2.149-4.121
				c-0.627-1.427-1.136-2.909-1.562-4.42c-0.412-1.515-0.703-3.066-0.907-4.63c-0.07-0.785-0.171-1.57-0.184-2.36l-0.02-0.592
				l-0.009-0.354l0.004-0.275l0.017-1.101c0.075-1.617,0.217-3.208,0.506-4.747c0.301-1.545,0.678-3.075,1.189-4.557
				c0.993-2.969,2.357-5.803,4.083-8.364c3.417-5.139,8.116-9.326,13.465-11.878c5.336-2.583,11.26-3.441,16.645-2.664
				c5.415,0.761,10.21,3.139,13.833,6.142c3.629,3.029,6.261,6.513,8.103,9.836c1.871,3.32,2.96,6.488,3.631,9.139
				c0.675,2.656,0.884,4.814,0.99,6.277c0.068,0.732,0.065,1.297,0.085,1.677c0.013,0.38,0.02,0.576,0.02,0.576L122.998,92.679z
				 M117.999,92.625c0,0-0.001-0.171-0.003-0.501c-0.008-0.331,0.012-0.823-0.031-1.462c-0.044-1.28-0.205-3.162-0.682-5.515
				c-0.471-2.349-1.285-5.183-2.783-8.186c-1.501-2.981-3.705-6.159-6.869-8.763c-3.13-2.607-7.209-4.654-11.834-5.203
				c-4.61-0.603-9.654,0.222-14.191,2.535c-4.555,2.281-8.581,6.008-11.477,10.541c-1.447,2.266-2.647,4.722-3.486,7.304
				c-0.842,2.559-1.354,5.316-1.523,7.931l-0.039,1.1l-0.01,0.275c0.003-0.031,0.003,0.137,0.005,0.196l0.008,0.508
				c-0.009,0.679,0.046,1.354,0.077,2.032c0.121,1.35,0.313,2.694,0.614,4.016c0.623,2.634,1.589,5.198,2.973,7.512
				c2.718,4.656,6.882,8.348,11.519,10.473c2.309,1.085,4.727,1.811,7.131,2.204c1.195,0.204,2.426,0.33,3.538,0.383
				c1.284,0.049,2.4,0.032,3.568-0.073c4.608-0.327,8.772-1.888,12.033-4.152c3.286-2.251,5.683-5.121,7.363-7.908
				c1.684-2.801,2.629-5.546,3.195-7.84c0.568-2.286,0.755-4.208,0.828-5.413c0.055-0.584,0.049-1.168,0.063-1.508
				c0.009-0.355,0.014-0.539,0.014-0.539L117.999,92.625z"/>
		</g>
		<g>
			<path style="fill:#FFFFFF;" d="M92.874,92.625c0,16.5-11.374,29.875-27.874,29.875s-29.875-13.375-29.875-29.875
				s13.375-38.881,29.875-38.881S92.874,76.125,92.874,92.625z"/>
			<path d="M95.048,92.719c0,0-0.026,0.774-0.074,2.224c0.009,0.692-0.127,1.692-0.264,2.837c-0.097,1.17-0.404,2.412-0.703,3.831
				c-0.72,2.798-1.882,6.179-4.056,9.643c-2.153,3.453-5.364,6.965-9.71,9.626c-2.198,1.261-4.623,2.403-7.283,3.052
				c-1.311,0.408-2.686,0.593-4.078,0.806c-0.694,0.14-1.402,0.12-2.112,0.173l-1.07,0.054l-0.538,0.026l-0.135,0.007l-0.191-0.004
				l-0.062-0.004l-0.249-0.015c-1.347-0.103-2.602-0.092-4.187-0.397c-0.747-0.136-1.542-0.211-2.259-0.411
				c-0.724-0.187-1.445-0.401-2.171-0.604c-2.85-0.973-5.697-2.214-8.243-4.022c-5.154-3.487-9.438-8.547-12.03-14.522
				c-1.223-3.017-2.02-6.22-2.38-9.492l-0.14-2.466l-0.017-0.309c-0.002-0.073-0.008-0.055-0.006-0.202l0.003-0.145l0.011-0.58
				c0.011-0.393,0.003-0.753,0.039-1.19c0.078-1.712,0.301-3.282,0.567-4.9c1.167-6.394,3.58-12.469,6.938-17.886
				c3.35-5.401,7.748-10.222,13.269-13.372c1.373-0.791,2.841-1.414,4.329-1.947c1.514-0.471,3.053-0.859,4.624-1.009
				c0.388-0.062,0.782-0.068,1.174-0.083l0.586-0.02l0.292-0.009l0.073-0.002l0.164,0.005l0.129,0.007
				c0.698,0.04,1.327,0.041,2.191,0.173c1.633,0.191,3.034,0.583,4.454,1.086c2.776,1.062,5.225,2.581,7.272,4.334
				c2.056,1.75,3.79,3.661,5.288,5.594c2.954,3.902,5.053,7.833,6.545,11.459c1.48,3.632,2.411,6.932,2.997,9.694
				c0.588,2.763,0.817,4.992,0.915,6.518c0.065,0.761,0.065,1.352,0.081,1.748c0.012,0.396,0.018,0.601,0.018,0.601L95.048,92.719z
				 M90.698,92.625c0,0-0.002-0.182-0.006-0.535c-0.008-0.353,0.004-0.876-0.043-1.563c-0.062-1.37-0.229-3.394-0.722-5.942
				c-0.485-2.546-1.289-5.622-2.65-8.987c-1.384-3.337-3.212-7.057-5.984-10.485c-2.714-3.424-6.41-6.624-10.887-8.132
				c-1.095-0.352-2.314-0.674-3.398-0.772c-0.487-0.09-1.234-0.095-1.916-0.121l-0.129-0.004c0.023,0-0.142-0.004,0.034,0
				l-0.057,0.003l-0.226,0.013l-0.453,0.024c-0.302,0.02-0.607,0.013-0.909,0.063c-1.218,0.101-2.43,0.404-3.642,0.762
				c-1.196,0.425-2.395,0.91-3.544,1.563c-4.634,2.565-8.63,6.831-11.764,11.707c-3.143,4.888-5.464,10.495-6.607,16.271
				c-0.257,1.432-0.482,2.932-0.562,4.311c-0.037,0.334-0.036,0.748-0.052,1.127l-0.018,0.579l-0.005,0.145
				c-0.001-0.051,0.003,0.063,0.005,0.087l0.013,0.27l0.094,2.158c0.267,2.865,0.95,5.672,2.033,8.305
				c1.147,2.605,2.652,5.016,4.436,7.159c1.828,2.109,3.984,3.866,6.268,5.283c0.584,0.333,1.167,0.664,1.746,0.994
				c0.607,0.273,1.211,0.545,1.812,0.815c0.589,0.296,1.217,0.49,1.835,0.694c0.623,0.186,1.215,0.459,1.85,0.575
				c0.627,0.145,1.251,0.276,1.866,0.433c0.617,0.162,1.203,0.183,1.798,0.288c1.102,0.229,2.557,0.213,3.863,0.279l0.249,0.01
				l0.062,0.002c0.134,0.004-0.112-0.002-0.066-0.003l0.114-0.006l0.454-0.024l0.903-0.046c0.597-0.046,1.202-0.015,1.778-0.139
				c1.163-0.182,2.318-0.321,3.403-0.666c2.219-0.523,4.204-1.488,6.051-2.481c3.625-2.149,6.363-5.031,8.255-7.923
				c1.905-2.903,2.969-5.801,3.646-8.22c0.279-1.228,0.581-2.332,0.668-3.264c0.132-0.943,0.279-1.713,0.287-2.476
				c0.077-1.449,0.118-2.222,0.118-2.222L90.698,92.625z"/>
		</g>
		<path style="fill:#FFFFFF;stroke:#000000;stroke-width:5;stroke-linecap:round;stroke-linejoin:round;stroke-miterlimit:10;" d="
			M88.67,80.5c26.33,0,33.83-12.25,33.83-39c0-21.539-17.834-39-39.833-39H62.5c-33.137,0-60,26.863-60,60v30
			c0,16.569,13.431,30,30,30h-0.042c16.569,0,30-13.431,30-30V80.562L88.67,80.5z"/>
		<g>
			<path d="M64.75,2.5L65,54.25c0.007,1.381-1.107,2.505-2.488,2.512c-1.381,0.007-2.505-1.107-2.512-2.488V54.25L60.25,2.5
				c0.006-1.243,1.018-2.245,2.261-2.239C63.746,0.267,64.744,1.268,64.75,2.5z"/>
		</g>
		<g>
			<circle cx="42.695" cy="35.392" r="5.942"/>
			<circle cx="82.305" cy="35.392" r="5.942"/>
		</g>
	</g>
</g>
<g id="Layer_1">
</g>
</svg>
