<?xml version="1.0" encoding="iso-8859-1"?>
<!-- Generator: Adobe Illustrator 19.2.0, SVG Export Plug-In . SVG Version: 6.00 Build 0)  -->
<!DOCTYPE svg PUBLIC "-//W3C//DTD SVG 1.1//EN" "http://www.w3.org/Graphics/SVG/1.1/DTD/svg11.dtd">
<svg version="1.1" xmlns="http://www.w3.org/2000/svg" xmlns:xlink="http://www.w3.org/1999/xlink" x="0px" y="0px"
	 viewBox="0 0 125.127 125.028" style="enable-background:new 0 0 125.127 125.028;" xml:space="preserve">
<g id="pan">
	<g id="pan_1_">
		<g>
			<path style="fill:#FFFFFF;" d="M2.5,105.467c0-16.853,26.738-22.407,59.875-22.407s60.134,7.537,60.134,22.796
				c0,10.314-9.268,16.675-20.866,16.675c-13,0-21-6.773-21-17.087c0,9.495-6.5,15.604-18,15.604c-12.5,0-18-6.109-18-15.604
				c0,10.314-8.75,17.087-21.25,17.087C11.796,122.531,2.5,115.781,2.5,105.467z"/>
			<path d="M0.001,105.404l0.023-0.777l0.075-0.967c0.07-0.604,0.164-1.206,0.294-1.805c0.263-1.196,0.666-2.367,1.195-3.471
				c1.056-2.216,2.601-4.12,4.33-5.673c3.493-3.109,7.573-5.002,11.64-6.455c4.09-1.44,8.259-2.395,12.43-3.138
				c4.175-0.736,8.363-1.23,12.551-1.581c4.188-0.351,8.376-0.55,12.56-0.649c4.19-0.085,8.348-0.113,12.557-0.03
				c8.383,0.191,16.783,0.848,25.114,2.355c4.162,0.768,8.312,1.732,12.391,3.097c4.067,1.378,8.11,3.096,11.804,5.729
				c1.835,1.32,3.582,2.891,5.012,4.835c1.428,1.929,2.503,4.277,2.866,6.761c0.196,1.22,0.199,2.539,0.122,3.614
				c-0.086,1.291-0.285,2.419-0.622,3.608c-0.659,2.338-1.834,4.548-3.392,6.393c-3.139,3.725-7.54,5.895-11.935,6.943
				c-2.213,0.531-4.465,0.796-6.703,0.822c-0.293,0-0.531,0.01-0.868,0l-0.777-0.021c-0.515-0.015-1.134-0.057-1.686-0.095
				c-1.11-0.095-2.222-0.233-3.329-0.437c-2.214-0.409-4.415-1.07-6.511-2.058c-2.084-1.009-4.058-2.357-5.703-4.079
				c-1.642-1.718-2.942-3.792-3.729-6.023c-0.804-2.229-1.1-4.576-1.065-6.854l0-0.001c-0.069-1.101,0.768-2.05,1.869-2.119
				c1.101-0.069,2.05,0.768,2.119,1.869l0.001,0.024l0.01,0.226c0.112,2.469-0.241,5.046-1.201,7.485
				c-0.977,2.426-2.615,4.651-4.677,6.303c-2.052,1.678-4.48,2.737-6.904,3.398c-1.218,0.328-2.447,0.561-3.672,0.701
				c-1.24,0.143-2.418,0.21-3.695,0.215c-1.071-0.01-2.42-0.081-3.599-0.212c-1.217-0.131-2.441-0.349-3.66-0.656
				c-2.424-0.618-4.893-1.635-6.971-3.341c-2.096-1.67-3.692-3.992-4.579-6.445c-0.876-2.469-1.149-5.012-1.041-7.447l0-0.001
				c-0.043-1.104,0.816-2.033,1.92-2.076c1.103-0.043,2.033,0.816,2.076,1.92l0.001,0.017l0.004,0.14
				c0.071,2.802-0.492,5.708-1.775,8.313c-1.282,2.605-3.253,4.846-5.55,6.533c-2.299,1.698-4.91,2.855-7.572,3.599
				c-2.669,0.74-5.403,1.09-8.114,1.135c-1.317,0.016-2.75-0.059-4.111-0.225c-1.369-0.166-2.734-0.427-4.078-0.793
				c-2.686-0.732-5.306-1.89-7.648-3.558c-2.329-1.674-4.362-3.887-5.741-6.504c-1.391-2.608-2.075-5.584-2.054-8.479L0.001,105.404
				z M5,105.467c0.003,2.161,0.512,4.256,1.513,6.108c0.995,1.856,2.472,3.464,4.251,4.731c1.771,1.281,3.839,2.226,6.024,2.836
				c1.093,0.305,2.218,0.528,3.357,0.674c1.148,0.146,2.244,0.211,3.455,0.214c2.344,0.015,4.671-0.238,6.891-0.799
				c2.219-0.56,4.312-1.471,6.138-2.708c1.82-1.244,3.33-2.865,4.358-4.763c1.048-1.889,1.602-4.063,1.657-6.315h4l0,0.001
				c0.113,2.068,0.449,4.078,1.222,5.819c0.737,1.752,1.855,3.236,3.34,4.325c1.48,1.087,3.26,1.869,5.207,2.325
				c0.972,0.23,1.976,0.399,3.003,0.495c1.065,0.096,1.971,0.141,3.157,0.14c0.979,0.003,2.057-0.036,3.06-0.141
				c1.017-0.102,2.013-0.279,2.977-0.525c1.932-0.484,3.706-1.306,5.219-2.408c1.509-1.112,2.692-2.589,3.485-4.312
				c0.831-1.712,1.216-3.683,1.33-5.718h4l0,0.001c0.062,1.862,0.389,3.684,1.075,5.333c0.685,1.647,1.672,3.135,2.94,4.373
				c2.548,2.479,6.093,3.93,9.826,4.528c0.936,0.151,1.887,0.248,2.844,0.31c0.482,0.021,0.899,0.045,1.42,0.05l0.778,0.004
				l0.687-0.016c1.906-0.05,3.8-0.277,5.616-0.729c3.635-0.873,6.982-2.686,9.239-5.328c1.126-1.319,1.946-2.848,2.426-4.497
				c0.242-0.802,0.399-1.729,0.456-2.507c0.072-0.992,0.066-1.759-0.055-2.59c-0.431-3.27-2.755-6.173-5.803-8.377
				c-3.051-2.226-6.706-3.856-10.469-5.161c-3.779-1.3-7.718-2.269-11.707-3.023c-7.991-1.494-16.178-2.189-24.372-2.423
				c-4.084-0.12-8.223-0.097-12.324,0.028c-4.108,0.121-8.208,0.341-12.284,0.706c-4.075,0.365-8.13,0.869-12.121,1.597
				c-3.987,0.727-7.92,1.686-11.647,3.033c-3.707,1.348-7.265,3.111-9.962,5.574c-1.341,1.227-2.431,2.627-3.148,4.168
				c-0.36,0.77-0.629,1.574-0.804,2.405c-0.086,0.416-0.148,0.839-0.194,1.266l-0.043,0.584L5,105.53L5,105.467z"/>
		</g>
		<g>
			<path style="fill:#FFFFFF;" d="M47.268,29.181c7.991-4.244,18.432-6.815,29.858-6.815c25.129,0,45.5,12.432,45.5,27.768
				c0,26.29-26.863,47.603-60,47.603s-60-21.313-60-47.603s26.863-47.603,60-47.603h0.125c27.407,0,50.375,12.893,49.125,29.355"/>
			<path d="M46.588,27.843c0,0,0.35-0.188,1.029-0.553c0.659-0.352,1.779-0.926,3.164-1.536c2.792-1.275,7.051-2.808,12.649-3.958
				c2.799-0.567,5.934-1.024,9.367-1.275c1.719-0.107,3.504-0.194,5.371-0.173c0.453,0.002,0.91,0.005,1.371,0.008
				c0.479,0.017,0.963,0.034,1.45,0.051c0.982,0.022,1.95,0.107,2.947,0.169c3.97,0.325,8.193,0.944,12.542,2.112
				c4.349,1.145,8.847,2.813,13.207,5.313c2.177,1.25,4.319,2.711,6.336,4.448c2.017,1.732,3.91,3.757,5.466,6.144
				c1.576,2.363,2.77,5.127,3.326,8.114c0.113,0.748,0.242,1.504,0.267,2.269l0.047,1.15l-0.032,1.089
				c-0.008,1.288-0.158,2.834-0.325,4.307c-0.764,5.777-2.839,11.51-5.989,16.693c-3.169,5.18-7.395,9.782-12.267,13.662
				c-9.82,7.7-22.186,12.451-35.037,13.863c-3.224,0.384-6.439,0.499-9.738,0.481l-2.37-0.052l-2.481-0.148
				c-0.834-0.037-1.631-0.151-2.449-0.223c-0.814-0.073-1.626-0.168-2.435-0.294c-6.492-0.855-12.889-2.642-18.963-5.214
				c-6.049-2.63-11.763-6.121-16.737-10.506c-4.975-4.37-9.169-9.694-12.035-15.683c-2.878-5.98-4.315-12.628-4.108-19.171
				c0.168-6.526,1.98-12.915,4.942-18.482c2.977-5.578,7.028-10.357,11.538-14.313c4.549-3.923,9.548-7.066,14.703-9.442
				c5.145-2.414,10.446-4.042,15.653-5.136c5.218-1.052,10.355-1.528,15.28-1.556c9.813-0.044,18.812,1.503,26.429,4.091
				c3.811,1.295,7.281,2.857,10.34,4.628c3.046,1.792,5.677,3.792,7.817,5.904c4.325,4.216,6.349,8.986,6.853,12.292
				c0.273,1.661,0.29,2.956,0.25,3.818c-0.037,0.864-0.097,1.304-0.097,1.304l-0.01,0.071c-0.149,1.094-1.157,1.861-2.251,1.712
				c-1.037-0.141-1.779-1.06-1.728-2.086c0,0,0.018-0.352-0.009-1.029c-0.029-0.675-0.094-1.677-0.388-2.946
				c-0.313-1.261-0.834-2.793-1.787-4.459c-0.95-1.667-2.35-3.439-4.2-5.207c-1.852-1.765-4.188-3.486-6.95-5.044
				c-2.748-1.583-5.924-3.012-9.453-4.202c-7.055-2.383-15.527-3.836-24.795-3.773c-4.611,0.037-9.411,0.492-14.272,1.481
				c-4.848,1.033-9.771,2.555-14.534,4.771c-4.772,2.186-9.371,5.074-13.522,8.637c-4.113,3.595-7.763,7.9-10.419,12.85
				c-2.64,4.95-4.229,10.524-4.391,16.274C4.979,54.811,6.231,60.642,8.78,65.943c2.541,5.31,6.299,10.112,10.837,14.095
				c4.534,3.997,9.796,7.221,15.404,9.66c5.633,2.382,11.594,4.055,17.664,4.852c0.756,0.118,1.515,0.208,2.277,0.275
				c0.757,0.066,1.528,0.177,2.273,0.208l2.247,0.137l2.359,0.052c3.001,0.011,6.078-0.102,9.071-0.468
				c12.017-1.336,23.49-5.828,32.452-12.869c4.455-3.535,8.276-7.692,11.111-12.305c2.815-4.618,4.643-9.656,5.325-14.719
				c0.134-1.242,0.277-2.397,0.292-3.805l0.031-0.927l-0.036-0.858c-0.015-0.572-0.113-1.136-0.184-1.699
				c-0.392-2.243-1.264-4.39-2.518-6.318c-2.473-3.897-6.21-6.888-10.065-9.183c-3.898-2.281-8.002-3.931-12.029-5.084
				c-4.025-1.178-7.985-1.849-11.725-2.238c-7.511-0.725-14.129-0.286-19.464,0.634c-5.342,0.916-9.394,2.279-12.08,3.332
				c-1.367,0.532-2.306,0.959-3.021,1.299c-0.694,0.333-1.053,0.505-1.053,0.505c-0.747,0.359-1.643,0.044-2.002-0.703
				C45.597,29.09,45.887,28.222,46.588,27.843z"/>
		</g>
		<ellipse cx="70.5" cy="13.738" rx="4.125" ry="3.273"/>
		<ellipse cx="84.375" cy="14.63" rx="4" ry="3.174"/>
		<path d="M64.574,69.619c-0.286,3.422-3.333,6.051-6.806,5.871c-3.472-0.18-6.055-3.1-5.769-6.522
			c0.286-3.422,3.333-6.051,6.806-5.871C62.278,63.276,64.861,66.197,64.574,69.619z"/>
		<g>
			<path d="M85.179,71.228c-0.827,0.916-1.645,1.721-2.507,2.521c-0.854,0.799-1.734,1.565-2.647,2.296
				c-0.9,0.744-1.845,1.439-2.808,2.111c-0.958,0.678-1.963,1.298-2.981,1.9c-0.507,0.304-1.047,0.562-1.569,0.844
				c-0.519,0.288-1.061,0.54-1.615,0.773c-1.079,0.515-2.23,0.901-3.377,1.289c-0.577,0.186-1.184,0.304-1.775,0.457l-0.893,0.211
				l-0.92,0.124c-0.616,0.066-1.221,0.195-1.846,0.203l-1.875,0.017l-0.234,0.001l-0.117,0l-0.165-0.013l-0.026-0.003l-0.052-0.006
				l-0.416-0.051L58.524,83.8l-0.832-0.103c-0.289-0.045-0.628-0.141-0.94-0.211c-0.628-0.16-1.288-0.298-1.884-0.493l-1.724-0.643
				c-0.582-0.201-1.102-0.513-1.654-0.766c-0.552-0.257-1.087-0.538-1.592-0.861c-1.051-0.592-2.022-1.282-2.988-1.977
				c-0.931-0.731-1.865-1.462-2.721-2.266c-0.443-0.388-0.87-0.791-1.278-1.21c-0.415-0.413-0.835-0.822-1.225-1.257
				c-0.8-0.853-1.565-1.733-2.294-2.646c-0.742-0.921-1.414-1.817-2.112-2.874c-0.493-0.747-0.401-1.71,0.165-2.35l0.005-0.005
				c0.833-0.941,1.623-1.732,2.478-2.542c0.842-0.803,1.71-1.575,2.612-2.312c0.889-0.75,1.823-1.452,2.775-2.13
				c0.948-0.685,1.942-1.312,2.951-1.923c0.502-0.308,1.037-0.571,1.555-0.857c0.514-0.292,1.052-0.548,1.602-0.786
				c1.071-0.524,2.214-0.92,3.355-1.318c0.574-0.191,1.177-0.315,1.766-0.473l0.89-0.219l0.917-0.133
				c0.614-0.072,1.218-0.207,1.842-0.22l1.874-0.034L62.3,53.19l0.117-0.001l0.243,0.021l0.416,0.047l0.833,0.094l0.833,0.094
				c0.29,0.043,0.63,0.135,0.943,0.203c0.631,0.154,1.294,0.288,1.894,0.478l1.734,0.628c0.586,0.197,1.11,0.503,1.667,0.752
				c0.556,0.253,1.096,0.53,1.606,0.848c1.061,0.585,2.042,1.267,3.019,1.955c0.942,0.724,1.887,1.449,2.755,2.248
				c0.449,0.386,0.881,0.786,1.296,1.203c0.421,0.411,0.848,0.817,1.243,1.25c0.812,0.849,1.59,1.725,2.331,2.636
				c0.756,0.92,1.438,1.808,2.158,2.877c0.573,0.851,0.468,1.959-0.19,2.687L85.179,71.228z M80.554,69.532
				c-0.268-0.358-0.518-0.737-0.794-1.078c-0.66-0.829-1.358-1.632-2.083-2.405c-0.353-0.397-0.733-0.765-1.107-1.138
				c-0.369-0.38-0.753-0.742-1.149-1.089c-0.768-0.725-1.594-1.366-2.414-2.014c-0.845-0.605-1.691-1.21-2.586-1.712
				c-0.434-0.281-0.886-0.518-1.347-0.73c-0.461-0.208-0.903-0.484-1.378-0.642l-1.411-0.53c-0.462-0.151-0.9-0.232-1.349-0.361
				c-0.232-0.055-0.427-0.131-0.689-0.174l-0.832-0.103l-0.832-0.103l-0.416-0.051l-0.052-0.006l-0.026-0.003
				c-0.126-0.011,0.157,0.012,0.124,0.01h-0.012l-0.092,0.001l-0.185,0.003l-1.477,0.011c-0.493,0-0.988,0.116-1.483,0.165
				l-0.743,0.094l-0.738,0.178c-0.491,0.129-0.988,0.218-1.475,0.376c-0.971,0.333-1.947,0.65-2.89,1.103
				c-0.479,0.2-0.952,0.417-1.412,0.675c-0.461,0.251-0.936,0.473-1.388,0.745c-0.909,0.538-1.811,1.092-2.681,1.708
				c-0.872,0.608-1.735,1.24-2.56,1.923c-0.836,0.668-1.647,1.373-2.428,2.104c-0.777,0.716-1.57,1.505-2.226,2.23l0.17-2.354
				c0.542,0.801,1.215,1.693,1.886,2.502c0.673,0.827,1.384,1.626,2.121,2.395c0.359,0.395,0.745,0.76,1.126,1.131
				c0.375,0.378,0.764,0.737,1.166,1.081c0.78,0.719,1.617,1.355,2.448,1.997c0.856,0.599,1.712,1.197,2.617,1.691
				c0.439,0.277,0.896,0.509,1.361,0.717c0.466,0.204,0.911,0.475,1.391,0.628l1.421,0.515c0.466,0.146,0.907,0.221,1.359,0.345
				c0.233,0.052,0.43,0.126,0.692,0.166l0.833,0.094l0.833,0.094l0.416,0.047l0.052,0.006l0.026,0.003
				c0.126,0.011-0.157-0.013-0.124-0.01l0.012,0l0.092-0.002l0.185-0.005l1.476-0.029c0.492-0.006,0.986-0.128,1.479-0.182
				l0.74-0.103l0.734-0.186c0.488-0.135,0.982-0.229,1.466-0.391c0.964-0.344,1.933-0.671,2.867-1.132
				c0.475-0.204,0.944-0.426,1.399-0.688c0.457-0.255,0.926-0.481,1.374-0.757c0.899-0.546,1.791-1.107,2.651-1.73
				c0.862-0.615,1.714-1.254,2.528-1.943c0.824-0.674,1.624-1.384,2.393-2.12C79.937,70.19,80.237,69.851,80.554,69.532z"/>
		</g>
		<g>
			<path d="M1.599,49.377c0,0,0.28-0.277,0.806-0.797c0.276-0.26,0.558-0.579,0.997-0.958c0.432-0.377,0.928-0.811,1.484-1.297
				c0.569-0.442,1.199-0.932,1.884-1.465c0.713-0.491,1.475-1.038,2.317-1.576c1.693-1.059,3.653-2.176,5.885-3.187
				c2.234-0.996,4.703-1.98,7.395-2.746c2.687-0.776,5.57-1.412,8.586-1.85c3.027-0.41,6.146-0.619,9.377-0.615
				c1.512,0.008,3.209,0.076,4.82,0.224c1.617,0.14,3.238,0.338,4.845,0.626c6.436,1.093,12.698,3.334,18.016,6.489
				c5.339,3.116,9.7,7.156,12.604,11.297c1.462,2.062,2.57,4.133,3.366,6.055c0.811,1.918,1.27,3.7,1.562,5.177
				c0.142,0.741,0.256,1.406,0.305,1.992c0.068,0.584,0.123,1.081,0.127,1.487c0.032,0.811,0.049,1.243,0.049,1.243
				c0.049,1.241-0.917,2.287-2.158,2.336c-1.241,0.049-2.287-0.917-2.336-2.158l-0.001-0.021l-0.005-0.156
				c0,0-0.011-0.355-0.031-1.022c0.003-0.334-0.041-0.743-0.091-1.225c-0.032-0.484-0.123-1.034-0.233-1.65
				c-0.229-1.227-0.588-2.717-1.258-4.349c-0.655-1.634-1.581-3.421-2.834-5.233c-2.484-3.636-6.335-7.323-11.184-10.227
				c-4.823-2.94-10.599-5.094-16.586-6.181c-1.494-0.287-3.005-0.489-4.515-0.637c-1.515-0.154-2.947-0.234-4.538-0.262
				c-2.977-0.035-5.967,0.131-8.805,0.485c-2.842,0.383-5.556,0.953-8.083,1.653c-2.533,0.69-4.846,1.588-6.938,2.493
				c-2.089,0.919-3.914,1.938-5.489,2.898c-0.782,0.489-1.487,0.985-2.149,1.428c-0.632,0.481-1.213,0.923-1.738,1.322
				c-0.488,0.416-0.924,0.788-1.303,1.111c-0.38,0.314-0.711,0.674-0.975,0.918c-0.531,0.514-0.814,0.788-0.814,0.788
				c-0.669,0.649-1.737,0.632-2.386-0.037C0.93,51.088,0.943,50.027,1.599,49.377z"/>
		</g>
	</g>
</g>
<g id="Layer_1">
</g>
</svg>
