<?xml version="1.0" encoding="iso-8859-1"?>
<!-- Generator: Adobe Illustrator 19.2.0, SVG Export Plug-In . SVG Version: 6.00 Build 0)  -->
<!DOCTYPE svg PUBLIC "-//W3C//DTD SVG 1.1//EN" "http://www.w3.org/Graphics/SVG/1.1/DTD/svg11.dtd">
<svg version="1.1" xmlns="http://www.w3.org/2000/svg" xmlns:xlink="http://www.w3.org/1999/xlink" x="0px" y="0px"
	 viewBox="0 0 125 125" style="enable-background:new 0 0 125 125;" xml:space="preserve">
<g id="a">
	<g id="a_1_">
		<circle style="fill:#FFFFFF;stroke:#000000;stroke-width:5;stroke-miterlimit:10;" cx="62.5" cy="62.5" r="60"/>
		<g>
			<path d="M5.809,37.815c0,0,0.269-0.244,0.772-0.702c0.217-0.215,0.639-0.542,1.108-0.906c0.475-0.39,1.009-0.727,1.611-1.119
				c1.22-0.744,2.755-1.576,4.607-2.209c1.844-0.649,3.979-1.159,6.314-1.428c4.673-0.552,10.123-0.107,15.625,1.4
				c5.503,1.506,11.057,4.051,16.087,7.37c2.517,1.656,4.905,3.502,7.112,5.476c1.114,0.988,2.149,1.995,3.185,3.06
				c0.484,0.516,0.96,0.993,1.441,1.532c0.48,0.542,0.956,1.081,1.429,1.615c3.633,4.288,6.493,8.715,8.528,12.726
				c2.059,4.002,3.305,7.574,4.032,10.115c0.348,1.277,0.604,2.286,0.737,2.987c0.145,0.697,0.223,1.069,0.223,1.069l-3.683,0.707
				c0,0-0.076-0.338-0.217-0.971c-0.128-0.635-0.377-1.559-0.712-2.729c-0.702-2.33-1.901-5.634-3.88-9.357
				c-1.955-3.73-4.703-7.858-8.164-11.836c-0.435-0.48-0.875-0.964-1.317-1.451c-0.445-0.488-0.959-0.99-1.44-1.49
				c-0.93-0.93-1.94-1.89-2.979-2.784c-2.078-1.809-4.321-3.494-6.675-4.998c-4.705-3.015-9.87-5.29-14.892-6.591
				c-5.021-1.304-9.881-1.607-13.856-1.08c-1.989,0.256-3.753,0.709-5.239,1.253c-1.497,0.531-2.679,1.208-3.617,1.792
				c-0.458,0.309-0.882,0.582-1.163,0.828c-0.307,0.245-0.56,0.419-0.826,0.686c-0.498,0.464-0.763,0.712-0.763,0.712L5.809,37.815z
				"/>
		</g>
		<ellipse transform="matrix(0.0684 -0.9977 0.9977 0.0684 -35.3103 118.9963)" cx="46.065" cy="78.406" rx="6.748" ry="6.748"/>
		<g>
			<path d="M78.289,80.465c-0.891,1.012-1.784,1.916-2.725,2.806c-0.932,0.891-1.897,1.745-2.897,2.56
				c-0.491,0.418-1.001,0.814-1.519,1.201c-0.513,0.393-1.026,0.786-1.567,1.145c-1.051,0.757-2.168,1.431-3.283,2.106
				c-1.156,0.616-2.293,1.264-3.522,1.764c-1.188,0.571-2.474,0.955-3.733,1.385c-1.31,0.307-2.602,0.676-3.967,0.784
				c-1.339,0.235-2.722,0.139-4.088,0.15l-1.975-0.264c-0.583-0.046-1.302-0.251-1.988-0.427c-1.429-0.313-2.629-0.852-3.889-1.334
				c-1.188-0.598-2.41-1.154-3.509-1.882c-1.149-0.662-2.187-1.46-3.248-2.228c-1.012-0.821-2.027-1.641-2.964-2.534
				c-0.487-0.43-0.942-0.889-1.396-1.348c-0.461-0.454-0.912-0.916-1.341-1.397c-0.879-0.944-1.719-1.921-2.521-2.932
				c-0.815-1.018-1.562-2.011-2.327-3.169c-0.498-0.753-0.406-1.726,0.163-2.374c0.916-1.042,1.791-1.924,2.738-2.821
				c0.932-0.891,1.897-1.744,2.897-2.56c0.491-0.418,1.001-0.814,1.519-1.201c0.513-0.393,1.026-0.786,1.567-1.145
				c1.051-0.757,2.168-1.431,3.283-2.106c1.156-0.615,2.293-1.264,3.522-1.764c1.188-0.571,2.474-0.955,3.733-1.385
				c1.31-0.307,2.602-0.676,3.967-0.784c0.675-0.08,1.345-0.19,2.034-0.158l1.027,0.002l0.514,0.003l0.257,0.002l0.128,0.001
				l0.064,0.001l0.032,0h0.016l0.146,0.013c1.251,0.195,2.387,0.24,3.833,0.677c1.429,0.313,2.629,0.852,3.889,1.334
				c1.188,0.598,2.41,1.154,3.509,1.882c1.149,0.662,2.187,1.46,3.248,2.228c1.012,0.821,2.026,1.641,2.964,2.534
				c0.487,0.43,0.942,0.889,1.396,1.348c0.461,0.454,0.912,0.916,1.341,1.397c0.879,0.944,1.719,1.921,2.521,2.932
				c0.815,1.018,1.562,2.011,2.327,3.169c0.498,0.754,0.408,1.726-0.162,2.373L78.289,80.465z M74.168,78.974
				c-0.382-0.522-0.754-1.071-1.158-1.572c-0.741-0.934-1.521-1.841-2.333-2.713c-0.397-0.446-0.813-0.871-1.237-1.288
				c-0.418-0.423-0.836-0.847-1.281-1.238c-0.86-0.821-1.779-1.559-2.693-2.304c-0.951-0.683-1.882-1.406-2.889-1.981
				c-0.972-0.649-2.023-1.113-3.045-1.638c-1.059-0.399-2.135-0.876-3.142-1.087c-0.925-0.337-2.288-0.433-3.488-0.615
				c0.256,0.027,0.064,0.007,0.117,0.013h-0.013H52.98l-0.052,0l-0.104,0l-0.209,0.001l-0.417,0.001l-0.834-0.002
				c-0.556-0.036-1.114,0.065-1.671,0.131c-1.12,0.078-2.221,0.405-3.329,0.654c-1.085,0.38-2.189,0.696-3.241,1.207
				c-1.076,0.432-2.097,1.021-3.133,1.567c-1.007,0.613-2.018,1.219-2.982,1.915c-0.494,0.326-0.966,0.689-1.438,1.051
				c-0.477,0.355-0.947,0.72-1.401,1.107c-0.924,0.752-1.82,1.545-2.681,2.369c-0.857,0.807-1.727,1.695-2.45,2.517l0.163-2.373
				c0.604,0.913,1.345,1.911,2.083,2.828c0.741,0.934,1.521,1.841,2.333,2.713c0.397,0.446,0.813,0.871,1.237,1.288
				c0.418,0.423,0.836,0.847,1.281,1.238c0.86,0.821,1.779,1.559,2.693,2.304c0.951,0.683,1.882,1.406,2.889,1.98
				c0.972,0.65,2.023,1.113,3.045,1.638c1.059,0.399,2.135,0.876,3.142,1.086c0.515,0.136,0.983,0.309,1.643,0.365l1.714,0.237
				c1.113-0.029,2.224,0.077,3.34-0.131c1.12-0.078,2.221-0.405,3.329-0.654c1.085-0.38,2.189-0.696,3.241-1.207
				c1.076-0.432,2.097-1.021,3.133-1.567c1.007-0.613,2.018-1.219,2.982-1.915c0.494-0.326,0.966-0.689,1.438-1.051
				c0.477-0.355,0.947-0.72,1.401-1.107c0.924-0.752,1.82-1.545,2.681-2.369C73.278,79.929,73.718,79.44,74.168,78.974z"/>
		</g>
	</g>
</g>
<g id="Layer_1">
</g>
</svg>
