<?xml version="1.0" encoding="iso-8859-1"?>
<!-- Generator: Adobe Illustrator 19.2.0, SVG Export Plug-In . SVG Version: 6.00 Build 0)  -->
<!DOCTYPE svg PUBLIC "-//W3C//DTD SVG 1.1//EN" "http://www.w3.org/Graphics/SVG/1.1/DTD/svg11.dtd">
<svg version="1.1" xmlns="http://www.w3.org/2000/svg" xmlns:xlink="http://www.w3.org/1999/xlink" x="0px" y="0px"
	 viewBox="0 0 75.137 124.998" style="enable-background:new 0 0 75.137 124.998;" xml:space="preserve">
<g id="so">
	<g id="so_1_">
		<g>
			<ellipse style="fill:#FFFFFF;" cx="37.567" cy="97.846" rx="30.5" ry="24.653"/>
			<path d="M4.822,97.705c0,0,0.048-0.677,0.137-1.946c-0.003-0.581,0.233-1.569,0.42-2.599c0.053-0.263,0.108-0.536,0.165-0.819
				c0.084-0.261,0.17-0.531,0.26-0.81c0.182-0.555,0.376-1.146,0.58-1.77c0.994-2.42,2.566-5.216,4.996-7.853
				c2.416-2.637,5.646-5.104,9.539-6.995c3.89-1.89,8.447-3.188,13.347-3.595c0.613-0.024,1.231-0.048,1.853-0.073l0.935-0.034
				l0.47-0.017l0.532,0.014c0.598,0.021,1.2,0.042,1.805,0.063l0.91,0.032l0.984,0.111c0.658,0.077,1.319,0.155,1.984,0.233
				c0.663,0.084,1.291,0.245,1.943,0.366c1.304,0.219,2.58,0.619,3.874,0.996c2.554,0.848,5.114,1.902,7.488,3.391
				c1.227,0.673,2.332,1.568,3.483,2.398c1.069,0.944,2.18,1.852,3.131,2.951c1.953,2.122,3.684,4.563,4.809,7.334
				c1.155,2.747,1.798,5.741,1.852,8.762c0,2.793-0.637,6.107-1.765,8.798c-1.101,2.794-2.814,5.267-4.757,7.424
				c-0.946,1.117-2.055,2.043-3.122,3.005c-1.149,0.847-2.255,1.762-3.484,2.454c-2.378,1.528-4.949,2.619-7.52,3.503
				c-1.302,0.395-2.588,0.812-3.902,1.049c-0.654,0.129-1.299,0.3-1.952,0.39c-0.654,0.085-1.305,0.169-1.953,0.253l-0.969,0.123
				l-0.969,0.047c-0.644,0.03-1.285,0.059-1.922,0.088l-0.239,0.01l-0.119,0.005l-0.06,0.003l-0.159-0.003l-0.446-0.02l-0.888-0.039
				c-0.591-0.027-1.178-0.053-1.761-0.079c-1.266-0.166-2.549-0.278-3.747-0.504c-0.592-0.125-1.18-0.249-1.763-0.372
				c-0.585-0.112-1.16-0.25-1.719-0.433c-1.123-0.343-2.242-0.633-3.287-1.086c-0.528-0.208-1.051-0.414-1.569-0.618
				c-0.514-0.215-1.001-0.482-1.494-0.718c-3.931-1.926-7.168-4.466-9.561-7.17c-2.412-2.698-3.954-5.538-4.916-7.983
				c-0.861-2.495-1.231-4.554-1.338-5.962c-0.076-1.412-0.116-2.166-0.116-2.166L4.822,97.705z M9.317,97.846
				c0,0,0.044,0.601,0.127,1.729c0.099,1.124,0.433,2.755,1.142,4.746c0.816,1.95,2.093,4.236,4.133,6.447
				c2.028,2.207,4.79,4.325,8.178,5.969c0.427,0.199,0.843,0.43,1.289,0.611c0.45,0.173,0.904,0.347,1.363,0.523
				c0.902,0.391,1.882,0.628,2.858,0.922c0.485,0.159,0.987,0.275,1.5,0.366c0.509,0.104,1.022,0.209,1.54,0.315
				c1.029,0.187,2.045,0.258,3.09,0.408c0.582,0.022,1.168,0.045,1.758,0.067l0.889,0.033l0.446,0.017
				c0.11,0.002-0.086,0-0.047-0.001l0.052-0.002l0.105-0.004l0.209-0.008c0.559-0.02,1.121-0.039,1.687-0.059l0.851-0.028
				l0.849-0.101c0.568-0.066,1.139-0.133,1.713-0.199c0.573-0.07,1.135-0.219,1.708-0.323c1.154-0.188,2.272-0.546,3.411-0.873
				c2.239-0.746,4.482-1.659,6.527-2.948c1.069-0.576,2.002-1.352,2.996-2.053c0.901-0.807,1.858-1.572,2.648-2.496
				c1.64-1.78,3.075-3.793,3.978-6.035c0.936-2.303,1.424-4.38,1.502-7.023c-0.024-4.829-1.982-9.601-5.342-13.184
				c-0.785-0.942-1.739-1.724-2.639-2.55c-0.993-0.72-1.926-1.515-2.998-2.11c-2.05-1.327-4.304-2.279-6.559-3.06
				c-1.147-0.344-2.275-0.72-3.44-0.925c-0.575-0.113-1.154-0.271-1.718-0.347c-0.563-0.073-1.124-0.146-1.681-0.219l-0.834-0.113
				l-0.91-0.043c-0.605-0.028-1.206-0.056-1.804-0.084l-0.364-0.015l-0.423,0.02l-0.842,0.038c-0.559,0.025-1.115,0.05-1.667,0.074
				c-4.401,0.399-8.455,1.592-11.871,3.281c-3.426,1.68-6.194,3.871-8.199,6.144c-2.023,2.271-3.268,4.6-4.053,6.577
				c-0.155,0.508-0.302,0.988-0.441,1.441c-0.07,0.225-0.139,0.444-0.205,0.655c-0.035,0.204-0.069,0.401-0.102,0.591
				c-0.071,0.378-0.136,0.728-0.196,1.049c-0.028,0.166-0.07,0.3-0.084,0.47c-0.01,0.177-0.019,0.345-0.027,0.504
				c-0.069,1.27-0.106,1.948-0.106,1.948L9.317,97.846z"/>
		</g>
		<g>
			<ellipse style="fill:#FFFFFF;" cx="37.567" cy="72.149" rx="30.5" ry="24.653"/>
			<path d="M4.822,72.009c0,0,0.048-0.677,0.137-1.946c-0.003-0.581,0.233-1.569,0.42-2.599c0.053-0.263,0.108-0.536,0.165-0.819
				c0.084-0.261,0.17-0.531,0.26-0.809c0.182-0.556,0.376-1.146,0.58-1.77c0.994-2.42,2.566-5.215,4.996-7.853
				c2.416-2.637,5.646-5.104,9.539-6.995c3.89-1.89,8.447-3.188,13.347-3.595c0.613-0.024,1.231-0.048,1.853-0.073l0.935-0.034
				l0.47-0.017l0.532,0.014c0.598,0.021,1.2,0.042,1.805,0.063l0.91,0.032l0.984,0.111c0.658,0.077,1.319,0.155,1.984,0.233
				c0.663,0.084,1.291,0.245,1.943,0.366c1.304,0.219,2.58,0.619,3.874,0.996c2.554,0.848,5.114,1.902,7.488,3.391
				c1.227,0.673,2.332,1.568,3.483,2.397c1.069,0.944,2.18,1.852,3.131,2.951c1.953,2.122,3.684,4.563,4.809,7.334
				c0.342,0.663,0.526,1.396,0.768,2.104l0.343,1.071c0.09,0.364,0.152,0.736,0.228,1.104c0.118,0.742,0.346,1.47,0.362,2.227
				l0.078,1.128l0.037,0.564l0.018,0.282l0.009,0.141l0.004,0.071c-0.001,0.086,0.007-0.093,0,0.211l-0.115,2.032l-0.031,0.511
				l-0.099,0.585l-0.207,1.171c-0.074,0.387-0.137,0.786-0.227,1.162l-0.333,1.077c-0.236,0.712-0.413,1.45-0.749,2.119
				c-1.101,2.794-2.814,5.267-4.757,7.424c-0.946,1.117-2.055,2.043-3.122,3.005c-1.149,0.848-2.255,1.762-3.484,2.454
				c-2.378,1.527-4.949,2.619-7.52,3.503c-1.302,0.395-2.588,0.812-3.902,1.049c-0.654,0.129-1.299,0.3-1.952,0.39
				c-0.654,0.085-1.305,0.169-1.953,0.253l-0.969,0.123l-0.969,0.047c-0.644,0.03-1.285,0.059-1.922,0.088l-0.239,0.01l-0.119,0.005
				l-0.06,0.002l-0.159-0.003l-0.446-0.02l-0.888-0.039c-0.591-0.027-1.178-0.053-1.761-0.079c-1.266-0.166-2.549-0.278-3.747-0.504
				c-0.592-0.125-1.18-0.249-1.763-0.372c-0.585-0.112-1.16-0.25-1.719-0.433c-1.123-0.343-2.242-0.633-3.287-1.086
				c-0.528-0.208-1.051-0.414-1.569-0.618c-0.514-0.215-1.001-0.482-1.494-0.718c-3.931-1.926-7.168-4.466-9.561-7.17
				c-2.412-2.698-3.954-5.538-4.916-7.983c-0.861-2.495-1.231-4.554-1.338-5.962c-0.076-1.412-0.116-2.166-0.116-2.166L4.822,72.009
				z M9.317,72.149c0,0,0.044,0.601,0.127,1.729c0.099,1.124,0.433,2.755,1.142,4.746c0.816,1.95,2.093,4.236,4.133,6.447
				c2.028,2.207,4.79,4.325,8.178,5.969c0.427,0.199,0.843,0.43,1.289,0.611c0.45,0.173,0.904,0.347,1.363,0.523
				c0.902,0.391,1.882,0.628,2.858,0.922c0.485,0.159,0.987,0.275,1.5,0.367c0.509,0.104,1.022,0.209,1.54,0.315
				c1.029,0.187,2.045,0.258,3.09,0.408c0.582,0.022,1.168,0.045,1.758,0.067l0.889,0.033l0.446,0.017
				c0.11,0.002-0.086,0-0.047-0.001l0.052-0.002l0.105-0.004l0.209-0.008c0.559-0.02,1.121-0.039,1.687-0.059l0.851-0.028
				l0.849-0.101c0.568-0.066,1.139-0.133,1.713-0.199c0.573-0.07,1.135-0.219,1.708-0.323c1.154-0.188,2.272-0.546,3.411-0.873
				c2.239-0.745,4.482-1.659,6.527-2.948c1.069-0.576,2.002-1.352,2.996-2.053c0.901-0.807,1.858-1.572,2.648-2.496
				c1.64-1.78,3.075-3.793,3.978-6.035c0.289-0.536,0.421-1.127,0.62-1.696l0.283-0.859c0.069-0.281,0.108-0.554,0.167-0.832
				l0.171-0.828l0.09-0.414l0.037-0.504l0.139-2.031c-0.01,0.262-0.005,0.04-0.008,0.084l-0.004-0.056l-0.007-0.113l-0.014-0.226
				l-0.027-0.451l-0.049-0.904c0.006-0.607-0.192-1.19-0.272-1.787c-0.057-0.296-0.098-0.596-0.166-0.89l-0.273-0.865
				c-0.192-0.573-0.318-1.169-0.601-1.711c-0.878-2.264-2.296-4.31-3.927-6.125c-0.785-0.942-1.739-1.724-2.639-2.55
				c-0.993-0.72-1.926-1.515-2.998-2.11c-2.05-1.327-4.304-2.279-6.559-3.061c-1.147-0.344-2.275-0.72-3.44-0.925
				c-0.575-0.113-1.154-0.271-1.718-0.347c-0.563-0.073-1.124-0.147-1.681-0.219l-0.834-0.113l-0.91-0.043
				c-0.605-0.028-1.206-0.056-1.804-0.084l-0.364-0.015l-0.423,0.02l-0.842,0.038c-0.559,0.025-1.115,0.049-1.667,0.074
				c-4.401,0.399-8.455,1.592-11.871,3.281c-3.426,1.68-6.194,3.871-8.199,6.144c-2.023,2.271-3.268,4.6-4.053,6.577
				c-0.155,0.508-0.302,0.989-0.441,1.441c-0.07,0.225-0.139,0.444-0.205,0.655c-0.035,0.204-0.069,0.401-0.102,0.591
				c-0.071,0.378-0.136,0.728-0.196,1.049c-0.028,0.166-0.07,0.3-0.084,0.47c-0.01,0.177-0.019,0.345-0.027,0.504
				C9.35,71.612,9.313,72.29,9.313,72.29L9.317,72.149z"/>
		</g>
		<g>
			<ellipse style="fill:#FFFFFF;" cx="37.567" cy="39.874" rx="35.32" ry="37.375"/>
			<path d="M75.135,39.982c0,0-0.048,0.891-0.138,2.561c-0.029,0.422-0.034,0.874-0.089,1.407c-0.08,0.552-0.168,1.154-0.262,1.805
				c-0.099,0.65-0.205,1.348-0.318,2.093c-0.177,0.713-0.365,1.47-0.563,2.271c-0.331,1.619-1.035,3.315-1.687,5.189
				c-0.417,0.902-0.85,1.841-1.3,2.815c-0.442,0.978-1.069,1.905-1.626,2.907c-2.395,3.906-5.797,7.939-10.37,11.295
				c-4.56,3.347-10.402,5.814-16.854,6.645c-0.8,0.152-1.625,0.118-2.444,0.184l-1.237,0.062l-0.621,0.03
				c0.07,0.003-0.184-0.001-0.184-0.001l-0.073-0.004l-0.147-0.007l-0.294-0.014c-1.579-0.09-3.114-0.083-4.904-0.428l-1.305-0.205
				c-0.441-0.06-0.872-0.142-1.281-0.267c-0.834-0.223-1.671-0.448-2.513-0.673c-0.846-0.212-1.641-0.593-2.47-0.886
				c-0.824-0.309-1.653-0.617-2.431-1.047c-6.417-3.038-12.055-8.142-15.951-14.461l-1.398-2.415
				c-0.421-0.83-0.791-1.688-1.187-2.534c-0.187-0.428-0.408-0.843-0.566-1.283l-0.466-1.325c-0.287-0.891-0.671-1.755-0.875-2.673
				c-1.05-3.616-1.467-7.386-1.581-11.15l0.118-2.781c0.028-0.452,0.02-0.876,0.077-1.351l0.194-1.439
				c0.149-0.95,0.228-1.939,0.445-2.855l0.656-2.748c0.197-0.922,0.575-1.791,0.855-2.687L2.8,24.679
				c0.154-0.443,0.373-0.861,0.557-1.292c0.391-0.853,0.755-1.717,1.171-2.554l1.384-2.437c3.861-6.381,9.494-11.572,15.951-14.694
				c0.783-0.44,1.617-0.759,2.447-1.078c0.835-0.304,1.636-0.694,2.49-0.917c0.85-0.235,1.696-0.469,2.537-0.702
				c0.835-0.264,1.71-0.323,2.558-0.491c1.699-0.356,3.413-0.383,5.099-0.486l0.316-0.017l0.158-0.009L37.547,0
				c0,0,0.303,0.008,0.209,0.006l0.586,0.033l1.167,0.065l1.16,0.065c0.378,0.014,0.768,0.041,1.203,0.122
				c1.675,0.277,3.382,0.476,4.886,0.963c0.769,0.22,1.543,0.403,2.288,0.655c0.733,0.285,1.461,0.568,2.182,0.849l1.076,0.423
				l1.021,0.518c0.676,0.347,1.345,0.691,2.009,1.032c0.658,0.349,1.256,0.787,1.877,1.171c0.605,0.408,1.239,0.765,1.801,1.207
				c4.612,3.405,8.005,7.511,10.363,11.475c0.55,1.016,1.168,1.955,1.602,2.943c0.441,0.984,0.866,1.933,1.274,2.844
				c0.634,1.891,1.319,3.6,1.633,5.229c0.19,0.805,0.369,1.566,0.538,2.283c0.103,0.729,0.199,1.412,0.288,2.047
				c0.087,0.635,0.168,1.223,0.241,1.762c0.05,0.541,0.053,1.035,0.078,1.476c0.073,1.765,0.111,2.707,0.111,2.707L75.135,39.982z
				 M70.637,39.874c0,0-0.046-0.841-0.133-2.417c-0.027-0.393-0.031-0.835-0.082-1.316c-0.073-0.479-0.153-1.001-0.239-1.566
				c-0.085-0.564-0.176-1.171-0.274-1.819c-0.159-0.634-0.329-1.308-0.507-2.021c-0.287-1.445-0.93-2.947-1.5-4.617
				c-0.371-0.801-0.758-1.635-1.159-2.5c-0.389-0.87-0.955-1.687-1.446-2.578c-2.127-3.463-5.144-7.028-9.167-9.983
				c-0.49-0.385-1.047-0.685-1.574-1.038c-0.542-0.33-1.06-0.715-1.634-1.012c-0.577-0.292-1.159-0.586-1.747-0.882l-0.884-0.448
				l-0.934-0.356c-0.624-0.24-1.253-0.483-1.887-0.727c-0.644-0.213-1.315-0.361-1.978-0.55c-1.342-0.433-2.658-0.543-4.002-0.79
				c-0.318-0.071-0.696-0.096-1.09-0.109l-1.16-0.059l-1.167-0.059l-0.587-0.03C37.344,4.994,37.6,4.998,37.55,5l-0.068,0.003
				l-0.136,0.007l-0.273,0.014c-1.453,0.086-2.936,0.079-4.4,0.383c-0.731,0.142-1.49,0.171-2.21,0.401
				c-0.728,0.194-1.46,0.39-2.195,0.586c-0.741,0.179-1.433,0.524-2.159,0.776c-0.721,0.268-1.448,0.532-2.128,0.914
				c-5.622,2.654-10.609,7.151-14.07,12.756l-1.244,2.141c-0.373,0.738-0.698,1.502-1.053,2.252
				c-0.166,0.38-0.368,0.747-0.506,1.139l-0.412,1.179c-0.253,0.793-0.605,1.558-0.782,2.377l-0.604,2.437
				c-0.204,0.813-0.258,1.611-0.401,2.417l-0.187,1.208c-0.057,0.409-0.056,0.88-0.087,1.318l-0.137,2.565
				c0.083,3.364,0.415,6.736,1.326,9.969c0.17,0.823,0.516,1.592,0.762,2.391l0.403,1.188c0.135,0.395,0.334,0.764,0.497,1.147
				c0.349,0.757,0.669,1.527,1.037,2.272l1.23,2.163c3.426,5.666,8.408,10.251,14.069,12.989c0.685,0.392,1.417,0.667,2.145,0.945
				c0.732,0.263,1.431,0.617,2.179,0.806c0.743,0.206,1.483,0.411,2.22,0.615c0.369,0.119,0.734,0.19,1.096,0.239l1.085,0.181
				c1.373,0.315,3.035,0.342,4.595,0.441l0.294,0.017l0.147,0.009l0.073,0.004c0.048,0.003-0.156-0.007-0.037-0.005l0.552-0.032
				l1.098-0.063c0.727-0.065,1.46-0.026,2.168-0.171c5.714-0.775,10.877-2.972,14.923-5.977c4.062-3.003,7.07-6.642,9.16-10.162
				c0.483-0.905,1.041-1.733,1.422-2.614c0.392-0.875,0.769-1.718,1.132-2.529c0.552-1.687,1.176-3.201,1.446-4.656
				c0.17-0.717,0.331-1.395,0.482-2.033c0.087-0.631,0.168-1.222,0.244-1.772c0.078-0.549,0.151-1.057,0.218-1.523
				c0.046-0.488,0.048-0.973,0.071-1.385c0.069-1.671,0.107-2.562,0.107-2.562L70.637,39.874z"/>
		</g>
		<g>
			<circle style="fill:#FFFFFF;stroke:#000000;stroke-width:4;stroke-miterlimit:10;" cx="37.692" cy="39.582" r="15.25"/>
			<circle cx="37.692" cy="39.106" r="6.06"/>
		</g>
	</g>
</g>
<g id="Layer_1">
</g>
</svg>
