<?xml version="1.0" encoding="iso-8859-1"?>
<!-- Generator: Adobe Illustrator 19.2.0, SVG Export Plug-In . SVG Version: 6.00 Build 0)  -->
<!DOCTYPE svg PUBLIC "-//W3C//DTD SVG 1.1//EN" "http://www.w3.org/Graphics/SVG/1.1/DTD/svg11.dtd">
<svg version="1.1" xmlns="http://www.w3.org/2000/svg" xmlns:xlink="http://www.w3.org/1999/xlink" x="0px" y="0px"
	 viewBox="0 0 125.011 124.996" style="enable-background:new 0 0 125.011 124.996;" xml:space="preserve">
<g id="kin">
	<g id="kin_1_">
		<g>
			<path style="fill:#FFFFFF;" d="M2.5,105.436c0-16.853,26.738-22.407,59.875-22.407s60.134,7.537,60.134,22.796
				c0,10.314-9.268,16.675-20.866,16.675c-13,0-21-6.773-21-17.087c0,9.495-6.5,15.604-18,15.604c-12.5,0-18-6.109-18-15.604
				c0,10.314-8.75,17.087-21.25,17.087C11.796,122.5,2.5,115.749,2.5,105.436z"/>
			<path d="M0.001,105.373l0.023-0.777l0.075-0.967c0.07-0.604,0.164-1.206,0.294-1.805c0.263-1.196,0.666-2.367,1.195-3.471
				c1.056-2.216,2.601-4.12,4.33-5.673c3.493-3.109,7.573-5.002,11.64-6.455c4.09-1.44,8.259-2.395,12.43-3.138
				c4.175-0.736,8.363-1.23,12.551-1.581c4.188-0.351,8.376-0.55,12.56-0.649c4.19-0.085,8.348-0.113,12.557-0.03
				c8.383,0.191,16.783,0.848,25.114,2.355c4.162,0.768,8.312,1.732,12.391,3.097c4.067,1.378,8.11,3.096,11.804,5.729
				c1.835,1.32,3.582,2.891,5.012,4.835c1.428,1.929,2.503,4.277,2.866,6.761c0.196,1.22,0.199,2.539,0.122,3.614
				c-0.086,1.291-0.285,2.419-0.622,3.608c-0.659,2.338-1.834,4.548-3.392,6.393c-3.139,3.725-7.54,5.895-11.935,6.943
				c-2.213,0.531-4.465,0.796-6.703,0.822c-0.293,0-0.531,0.01-0.868,0l-0.777-0.021c-0.515-0.015-1.134-0.057-1.686-0.095
				c-1.11-0.095-2.222-0.233-3.329-0.437c-2.214-0.409-4.415-1.07-6.511-2.058c-2.084-1.009-4.058-2.357-5.703-4.079
				c-1.642-1.718-2.942-3.792-3.729-6.023c-0.804-2.229-1.1-4.576-1.065-6.854l0-0.001c-0.069-1.101,0.768-2.05,1.869-2.119
				c1.101-0.069,2.05,0.768,2.119,1.869l0.001,0.024l0.01,0.226c0.112,2.469-0.241,5.046-1.201,7.485
				c-0.977,2.426-2.615,4.651-4.677,6.303c-2.052,1.678-4.48,2.737-6.904,3.398c-1.218,0.328-2.447,0.561-3.672,0.701
				c-1.24,0.143-2.418,0.21-3.695,0.215c-1.071-0.01-2.42-0.081-3.599-0.212c-1.217-0.131-2.441-0.349-3.66-0.656
				c-2.424-0.618-4.893-1.635-6.971-3.341c-2.096-1.67-3.692-3.992-4.579-6.445c-0.876-2.469-1.149-5.012-1.041-7.447l0-0.001h4
				c0.071,2.802-0.492,5.708-1.775,8.313c-1.282,2.605-3.253,4.846-5.55,6.533c-2.299,1.698-4.91,2.855-7.572,3.599
				c-2.669,0.74-5.403,1.09-8.114,1.135c-1.317,0.016-2.75-0.059-4.111-0.225c-1.369-0.166-2.734-0.427-4.078-0.793
				c-2.686-0.732-5.306-1.89-7.648-3.558c-2.329-1.674-4.362-3.887-5.741-6.504C0.664,111.307-0.02,108.33,0,105.436L0.001,105.373z
				 M5,105.436c0.003,2.161,0.512,4.256,1.513,6.108c0.995,1.856,2.472,3.464,4.251,4.731c1.771,1.281,3.839,2.226,6.024,2.836
				c1.093,0.305,2.218,0.528,3.357,0.674c1.148,0.146,2.244,0.211,3.455,0.214c2.344,0.015,4.671-0.238,6.891-0.799
				c2.219-0.56,4.312-1.471,6.138-2.708c1.82-1.244,3.33-2.865,4.358-4.763c1.048-1.889,1.602-4.063,1.657-6.315l0.001-0.049
				c0.027-1.104,0.944-1.977,2.048-1.95c1.087,0.027,1.95,0.918,1.951,1.999l0,0.001c0.113,2.068,0.449,4.078,1.222,5.819
				c0.737,1.752,1.855,3.236,3.34,4.325c1.48,1.087,3.26,1.869,5.207,2.325c0.972,0.23,1.976,0.399,3.003,0.495
				c1.065,0.096,1.971,0.141,3.157,0.14c0.979,0.003,2.057-0.036,3.06-0.141c1.017-0.102,2.013-0.279,2.977-0.525
				c1.932-0.484,3.706-1.306,5.219-2.408c1.509-1.112,2.692-2.589,3.485-4.312c0.831-1.712,1.216-3.683,1.33-5.718h4l0,0.001
				c0.062,1.862,0.389,3.684,1.075,5.333c0.685,1.647,1.672,3.135,2.94,4.373c2.548,2.479,6.093,3.93,9.826,4.528
				c0.936,0.151,1.887,0.248,2.844,0.31c0.482,0.021,0.899,0.045,1.42,0.05l0.778,0.004l0.687-0.016
				c1.906-0.05,3.8-0.277,5.616-0.729c3.635-0.873,6.982-2.686,9.239-5.328c1.126-1.319,1.946-2.848,2.426-4.497
				c0.242-0.802,0.399-1.729,0.456-2.507c0.072-0.992,0.066-1.759-0.055-2.59c-0.431-3.27-2.755-6.173-5.803-8.377
				c-3.051-2.226-6.706-3.856-10.469-5.161c-3.779-1.3-7.718-2.269-11.707-3.023c-7.991-1.494-16.178-2.189-24.372-2.423
				c-4.084-0.12-8.223-0.097-12.324,0.028c-4.108,0.121-8.208,0.341-12.284,0.706c-4.075,0.365-8.13,0.869-12.121,1.597
				c-3.987,0.727-7.92,1.686-11.647,3.033c-3.707,1.348-7.265,3.111-9.962,5.574c-1.341,1.227-2.431,2.627-3.148,4.168
				c-0.36,0.77-0.629,1.574-0.804,2.405c-0.086,0.416-0.148,0.839-0.194,1.266l-0.043,0.584L5,105.498L5,105.436z"/>
		</g>
		<g>
			<path style="fill:#FFFFFF;" d="M120.504,74.004c0,13.09-11.374,23.702-27.874,23.702S62.755,87.094,62.755,74.004
				s13.375-25.29,29.875-25.29S120.504,60.913,120.504,74.004z"/>
			<path d="M123.003,74.072c0,0-0.004,0.164-0.011,0.482c-0.007,0.316-0.007,0.764-0.074,1.516
				c-0.115,1.423-0.382,3.393-1.192,5.847c-0.831,2.421-2.228,5.272-4.528,7.994c-2.273,2.733-5.474,5.26-9.365,7.085
				c-3.88,1.851-8.447,2.94-13.257,3.156c-0.602,0.028-1.207,0.014-1.816,0.021c-0.592-0.02-1.189-0.041-1.789-0.061
				c-1.282-0.086-2.524-0.193-3.765-0.4c-2.488-0.412-4.995-1.056-7.44-2c-2.445-0.939-4.835-2.145-7.101-3.624
				c-2.241-1.513-4.383-3.271-6.233-5.377c-0.912-1.062-1.765-2.19-2.539-3.387c-0.759-1.208-1.414-2.494-1.951-3.841
				c-0.544-1.344-0.94-2.76-1.192-4.205c-0.144-0.72-0.21-1.454-0.274-2.186l-0.043-1.175l0.02-0.984
				c0.036-0.677,0.09-1.553,0.207-2.238c0.091-0.729,0.252-1.442,0.406-2.157c0.358-1.417,0.862-2.783,1.454-4.098
				c1.208-2.617,2.812-5.008,4.716-7.061c3.792-4.134,8.574-7.06,13.53-8.773c4.962-1.737,10.115-2.22,14.87-1.787
				c4.792,0.463,9.211,1.912,12.881,4.002c3.657,2.117,6.593,4.761,8.733,7.486c2.175,2.709,3.534,5.489,4.376,7.866
				c0.826,2.392,1.113,4.388,1.25,5.74c0.076,0.678,0.09,1.202,0.104,1.555c0.014,0.353,0.021,0.535,0.021,0.535L123.003,74.072z
				 M118.004,74.004c0,0-0.002-0.146-0.005-0.429c-0.002-0.283,0.002-0.703-0.043-1.25c-0.064-1.095-0.275-2.702-0.838-4.694
				c-0.58-1.982-1.566-4.353-3.274-6.748c-1.705-2.377-4.127-4.788-7.311-6.599c-3.162-1.816-7.027-3.119-11.237-3.423
				c-4.226-0.323-8.757,0.207-13.064,1.829c-4.303,1.592-8.394,4.248-11.527,7.813c-1.56,1.779-2.905,3.758-3.868,5.9
				c-0.954,2.122-1.568,4.466-1.72,6.679c-0.129,2.394,0.123,4.662,0.902,6.886c0.762,2.2,1.942,4.292,3.491,6.087
				c1.537,1.803,3.356,3.377,5.363,4.621c1,0.628,2.038,1.184,3.091,1.689c1.074,0.465,2.149,0.905,3.252,1.244
				c2.19,0.719,4.431,1.149,6.633,1.388c1.105,0.13,2.202,0.196,3.231,0.233c0.557,0.001,1.111,0.002,1.662,0.004
				c0.534-0.026,1.065-0.029,1.59-0.071c4.199-0.234,8.083-1.211,11.3-2.787c3.229-1.559,5.787-3.644,7.643-5.795
				c1.861-2.162,2.977-4.403,3.656-6.307c0.654-1.907,0.889-3.543,0.981-4.566c0.056-0.474,0.067-0.969,0.075-1.289
				c0.01-0.318,0.015-0.482,0.015-0.482L118.004,74.004z"/>
		</g>
		<g>
			<path style="fill:#FFFFFF;" d="M92.879,74.004c0,13.09-11.374,23.702-27.874,23.702S35.131,87.094,35.131,74.004
				s13.375-30.847,29.875-30.847S92.879,60.913,92.879,74.004z"/>
			<path d="M95.052,74.123c0,0-0.03,0.685-0.085,1.969c-0.01,0.164-0.008,0.323-0.028,0.517c-0.029,0.204-0.06,0.419-0.093,0.644
				c-0.069,0.45-0.144,0.941-0.224,1.472c-0.063,0.547-0.231,1.061-0.379,1.635c-0.17,0.564-0.28,1.188-0.533,1.801
				c-0.838,2.513-2.391,5.409-4.816,8.177c-0.588,0.708-1.305,1.331-1.989,2.027c-0.72,0.654-1.521,1.255-2.32,1.902
				c-0.86,0.55-1.715,1.171-2.651,1.693c-0.956,0.477-1.891,1.074-2.938,1.461c-4.095,1.781-8.888,2.748-13.907,2.779l-0.216-0.001
				l-0.11-0.006l-0.221-0.011l-0.444-0.023l-0.891-0.047c-0.615-0.048-1.155-0.025-1.841-0.133
				c-1.309-0.184-2.682-0.291-3.942-0.639c-0.641-0.151-1.286-0.304-1.934-0.457c-0.635-0.203-1.274-0.406-1.915-0.611l-0.96-0.315
				l-0.941-0.389c-0.626-0.265-1.261-0.513-1.884-0.796c-2.464-1.205-4.879-2.62-7.093-4.398c-2.203-1.788-4.218-3.896-5.846-6.344
				c-1.647-2.433-2.78-5.276-3.354-8.23l-0.218-1.112l-0.084-1.131l-0.078-1.133l-0.019-0.284l-0.005-0.071
				c0-0.078-0.007,0.074,0-0.192l0.007-0.128l0.028-0.513c0.047-0.694,0.051-1.346,0.134-2.075l0.377-2.294
				c1.265-5.814,3.998-11.049,7.604-15.479c3.552-4.47,8.133-8.056,13.24-10.295c0.621-0.316,1.282-0.538,1.944-0.75
				c0.66-0.218,1.316-0.434,1.97-0.649c0.678-0.138,1.353-0.276,2.025-0.413c0.672-0.139,1.339-0.284,2.023-0.302
				c0.68-0.042,1.356-0.084,2.028-0.125l0.503-0.027c-0.012-0.003,0.336,0.009,0.216,0.006l0.057,0.004l0.114,0.009l0.228,0.017
				l0.907,0.069c0.609,0.052,1.188,0.076,1.811,0.151c0.675,0.132,1.348,0.26,2.011,0.409c1.372,0.234,2.497,0.76,3.692,1.163
				c0.601,0.185,1.133,0.509,1.686,0.772c0.546,0.276,1.088,0.551,1.625,0.823c1,0.657,2.012,1.266,2.929,1.954
				c0.881,0.73,1.814,1.374,2.594,2.142c3.21,2.987,5.636,6.188,7.385,9.25c1.738,3.072,2.821,5.973,3.573,8.407
				c0.683,2.462,0.999,4.473,1.119,5.861c0.086,1.397,0.132,2.142,0.132,2.142L95.052,74.123z M90.703,74.004
				c0,0-0.026-0.624-0.076-1.795c-0.076-1.171-0.31-2.906-0.861-5.083c-0.617-2.156-1.52-4.772-3.071-7.533
				c-1.57-2.727-3.648-5.697-6.56-8.22c-0.698-0.664-1.523-1.191-2.297-1.815c-0.818-0.558-1.707-1.032-2.576-1.563
				c-0.463-0.207-0.929-0.416-1.4-0.627c-0.474-0.198-0.927-0.464-1.434-0.587c-0.987-0.278-2.008-0.708-2.981-0.808
				c-0.492-0.084-0.982-0.191-1.478-0.295c-0.561-0.06-1.186-0.076-1.782-0.117l-0.908-0.053l-0.228-0.013l-0.114-0.007
				l-0.057-0.003c-0.159-0.006,0.152,0.004,0.102,0.005l-0.411,0.034c-0.549,0.043-1.1,0.091-1.655,0.119
				c-0.559,0-1.108,0.122-1.662,0.234c-0.555,0.105-1.113,0.211-1.674,0.317c-0.547,0.177-1.096,0.354-1.647,0.533
				c-0.555,0.168-1.111,0.343-1.64,0.613c-0.538,0.242-1.078,0.485-1.62,0.729c-0.539,0.251-1.041,0.593-1.568,0.885
				c-1.071,0.559-2.033,1.328-3.039,2.036c-1.928,1.534-3.792,3.244-5.397,5.219c-3.283,3.861-5.808,8.596-6.96,13.491l-0.334,1.758
				c-0.087,0.628-0.106,1.352-0.162,2.023l-0.035,0.512l-0.009,0.128c0.007-0.223,0.004-0.029,0.007-0.064l0.004,0.057l0.014,0.229
				l0.052,0.915l0.047,0.916l0.169,0.901c0.417,2.401,1.314,4.742,2.718,6.771c1.37,2.045,3.089,3.844,4.997,5.389
				c1.984,1.454,4.114,2.668,6.34,3.576c0.561,0.214,1.134,0.395,1.695,0.594l0.841,0.292l0.861,0.222
				c0.571,0.147,1.139,0.294,1.705,0.441c0.576,0.101,1.149,0.201,1.719,0.3c1.15,0.237,2.231,0.28,3.316,0.423
				c0.511,0.084,1.179,0.052,1.755,0.083c0.561,0.014,1.119,0.027,1.673,0.041c4.41-0.022,8.506-0.888,11.98-2.324
				c0.898-0.304,1.673-0.802,2.488-1.179c0.791-0.421,1.501-0.929,2.233-1.367c0.66-0.529,1.339-1.008,1.944-1.531
				c0.565-0.564,1.178-1.055,1.667-1.625c2.029-2.219,3.344-4.529,4.064-6.551c0.223-0.49,0.31-0.997,0.463-1.45
				c0.129-0.458,0.289-0.895,0.331-1.278c0.071-0.388,0.137-0.748,0.197-1.077c0.032-0.165,0.063-0.322,0.092-0.472
				c0.023-0.161,0.026-0.344,0.039-0.5c0.084-1.283,0.129-1.967,0.129-1.967L90.703,74.004z"/>
		</g>
		<path style="fill:#FFFFFF;stroke:#000000;stroke-width:5;stroke-linecap:round;stroke-linejoin:round;stroke-miterlimit:10;" d="
			M88.676,64.384c26.33,0,33.83-9.719,33.83-30.942c0-17.089-17.834-30.942-39.833-30.942H62.505c-33.137,0-60,21.313-60,47.603
			v23.802c0,13.145,13.431,23.802,30,23.802h-0.042c16.569,0,30-10.656,30-23.802v-9.471L88.676,64.384z"/>
		<g>
			<path d="M64.755,2.5l0.25,41.058c0.008,1.381-1.104,2.507-2.485,2.515c-1.381,0.008-2.507-1.104-2.515-2.485
				c0-0.006,0-0.025,0-0.031L60.255,2.5c0.008-1.243,1.021-2.244,2.264-2.236C63.752,0.271,64.747,1.271,64.755,2.5z"/>
		</g>
		<g>
			<circle cx="42.7" cy="28.823" r="5.942"/>
			<circle cx="82.31" cy="28.823" r="5.942"/>
		</g>
	</g>
</g>
<g id="Layer_1">
</g>
</svg>
