<svg xmlns="http://www.w3.org/2000/svg" viewBox="-2 -2 129 129"><g id="lipu"><path d="M50.375 60.477c0 13.22-9.125 24.938-23.938 24.938C11.75 85.415 2.5 75.72 2.5 62.5c0-33.137 26.863-60 60-60 21.93 0 39.708 16.25 39.708 36.25S88.316 79.42 88.316 79.42c4.185-1.586 9.89-2.985 14.788-2.985 10.712 0 19.396 5.815 19.396 19.067 0 16.57-11.25 26.998-33.002 26.998H24.437c-10.528 0-19.063-7.534-19.063-18.062 0-4.948.828-9.67 3.976-13.845s6.4-7.176 6.4-7.176" fill="#FFF" stroke="#000" stroke-width="5" stroke-linecap="round" stroke-linejoin="round" stroke-miterlimit="10"/><path d="M53 122.25c0-12 17.25-43.75 17.25-43.75 7.25-14.25 8.42-26.828.142-34.142C61.5 36.5 41 34.25 28 62" fill="none" stroke="#000" stroke-width="5" stroke-linecap="round" stroke-linejoin="round" stroke-miterlimit="10"/><circle cx="21.253" cy="46.249" r="3.099"/><circle cx="32.749" cy="31.622" r="3.099"/><circle cx="50.25" cy="23.999" r="3.099"/></g><style>path{stroke-width:2;vector-effect:non-scaling-stroke}</style></svg>