<svg xmlns="http://www.w3.org/2000/svg" viewBox="0 0 80 80" width="168" height="168">
  <title>
    soko
  </title>
  <g stroke-width="2" fill="none">
    <path fill="#231f20" stroke="#231f20" d="M47.49 70.01c-3.3 5.52-12.7 5.55-18.02 3.96q-3.48-1.05-5.61-4.93a.43.43 0 0 0-.68-.09c-1.56 1.58-3.45 3.59-5.58 4.17-5.52 1.49-9.53-2.04-10.89-7.05q-3.2-11.81-3.89-22.4c-.41-6.3-.14-13.45 2.53-19.25q5.77-12.59 16.93-17.48c7.74-3.4 17.25-5.53 25.26-2.39q7.97 3.12 13.54 8.62c5.85 5.77 12.14 12.91 14.63 20.9q1.8 5.78 3.19 14.56 1.62 10.27-3.23 18.87c-1.99 3.52-4.79 5.13-8.5 6.15-7.03 1.93-13.81 1.91-19.01-3.71q-.38-.42-.67.07ZM24.41 42q1.84-3.65 6.48-3.97c5.47-.37 11.65 5.18 13.69 10.1 2.28 5.5 4.77 11.91 4.31 18a2.61 2.59-69.9 0 0 1.06 2.3c2.84 2.07 6.39 3.89 10.03 3.8 4.08-.11 10.81-1.4 13.13-5.17 4.09-6.63 4.64-12.63 3.25-20.1q-1-5.34-2.17-9.71c-2.13-8.01-7.14-14.38-12.93-20.36-4.67-4.83-11.09-9.55-17.48-10.79-8.03-1.57-16.11.62-23.24 4.5q-6.51 3.53-10.25 9.98c-1.82 3.14-3.68 6.08-4.21 9.79-1.59 11.16.06 21.73 2.73 32.55 1.53 6.23 5.92 11.4 11.95 4.92 3.45-3.7 2.54-8.33 1.6-12.89-.85-4.15.28-9.43 2.05-12.95Zm5.1-.94c-5.26.79-5.02 11.84-4.24 15.38q.98 4.5.3 9.02-.08.5.14.95c1.43 3.05 3.31 5.36 6.85 5.64 6.63.51 15.18.27 13.48-9.37-1.32-7.48-5.59-23.27-16.53-21.62Z"/>
    <path fill="#fff" d="M24.41 42c-1.77 3.52-2.9 8.8-2.05 12.95.94 4.56 1.85 9.19-1.6 12.89-6.03 6.48-10.42 1.31-11.95-4.92C6.14 52.1 4.49 41.53 6.08 30.37c.53-3.71 2.39-6.65 4.21-9.79q3.74-6.45 10.25-9.98c7.13-3.88 15.21-6.07 23.24-4.5 6.39 1.24 12.81 5.96 17.48 10.79 5.79 5.98 10.8 12.35 12.93 20.36q1.17 4.37 2.17 9.71c1.39 7.47.84 13.47-3.25 20.1-2.32 3.77-9.05 5.06-13.13 5.17-3.64.09-7.19-1.73-10.03-3.8a2.61 2.59-69.9 0 1-1.06-2.3c.46-6.09-2.03-12.5-4.31-18-2.04-4.92-8.22-10.47-13.69-10.1q-4.64.32-6.48 3.97Zm8.882-21.298a5.16 3.92 11.2 0 0-4.3-4.847 5.16 3.92 11.2 0 0-5.824 2.843 5.16 3.92 11.2 0 0 4.3 4.847 5.16 3.92 11.2 0 0 5.824-2.843ZM18.66 26.41C9.51 22.2 1.46 37.27 11.5 41.44q1.86.77 4.22.31c4.37-.86 8.51-1.84 8.05-7.57q-.45-5.62-5.11-7.77Z"/>
    <path fill="#231f20" d="M33.292 20.702a5.16 3.92 11.2 0 1-5.823 2.843 5.16 3.92 11.2 0 1-4.3-4.847 5.16 3.92 11.2 0 1 5.822-2.843 5.16 3.92 11.2 0 1 4.3 4.847Zm-2.478-.32a2.59 1.36 13.9 0 0-2.187-1.942 2.59 1.36 13.9 0 0-2.841.698 2.59 1.36 13.9 0 0 2.187 1.942 2.59 1.36 13.9 0 0 2.841-.698Z"/>
    <ellipse fill="#fff" transform="rotate(13.9 -66.9 125.96)" rx="2.59" ry="1.36"/>
    <path fill="#231f20" d="M11.5 41.44C1.46 37.27 9.51 22.2 18.66 26.41q4.66 2.15 5.11 7.77c.46 5.73-3.68 6.71-8.05 7.57q-2.36.46-4.22-.31Zm1.16-2.04 6.56-.87a2.54 2.54 0 0 0 2.19-2.85l-.23-1.73a6.59 5.85 82.5 0 0-6.66-5.77 6.59 5.85 82.5 0 0-4.94 7.29l.23 1.74a2.54 2.54 0 0 0 2.85 2.19Z"/>
    <path fill="#fff" d="M12.66 39.4a2.54 2.54 0 0 1-2.85-2.19l-.23-1.74a6.59 5.85 82.5 0 1 4.94-7.29 6.59 5.85 82.5 0 1 6.66 5.77l.23 1.73a2.54 2.54 0 0 1-2.19 2.85l-6.56.87ZM25.27 56.44c-.78-3.54-1.02-14.59 4.24-15.38 10.94-1.65 15.21 14.14 16.53 21.62 1.7 9.64-6.85 9.88-13.48 9.37-3.54-.28-5.42-2.59-6.85-5.64q-.22-.45-.14-.95.68-4.52-.3-9.02Z"/>
  </g>
</svg>
