<svg xmlns="http://www.w3.org/2000/svg" viewBox="-2 -2 129.001 137.002" preserveAspectRatio="none"><g id="lawa" stroke="#000" stroke-linecap="round" stroke-linejoin="round" stroke-miterlimit="10"><path d="M13.25 69.502C10.493 64.306 9.5 59.434 9.5 53.42c0-42.75 41.75-39.67 53-50.92 11.26 11.26 53 8.17 53 50.92 0 5.925-1.482 10.948-4.164 16.082" fill="#FFF" stroke-width="5"/><path d="M62.333 130.502H34.5c-16.568 0-32-13.43-32-30v-3.688c0-18.507 13-33.646 29.77-38.487C41.5 55.585 44 51.252 44 47.502v-10.25c0-10.217 8.283-18.5 18.5-18.5 10.218 0 18.5 8.283 18.5 18.5v10.25c0 3.75 2.5 8.083 11.73 10.825 16.77 4.84 29.77 19.98 29.77 38.487v3.688c0 16.57-15.432 30-32 30H62.333z" fill="#FFF" stroke-width="5"/><circle cx="62.501" cy="91.002" r="20.5" fill="none" stroke-width="4"/></g><style>ellipse,polygon,polyline,rect,circle,line,path{stroke-width:2;vector-effect:non-scaling-stroke}</style></svg>