<svg xmlns="http://www.w3.org/2000/svg" viewBox="-2 -2 129 129" preserveAspectRatio="none"><g id="lape" stroke="#000" stroke-miterlimit="10"><path d="M54.5 19.833h38c16.57 0 30 13.43 30 30V62.5c0 33.137-26.863 60-60 60s-60-26.863-60-60V49.833c0-13.086 8.187-24.27 20.25-28.333" fill="#FFF" stroke-width="5"/><path d="M66.833 91.833c-24.3 0-44-19.7-44-44v-29.5c0-8.745 7.09-15.833 15.833-15.833S54.5 9.59 54.5 18.333v16.5c0 13.99 11.342 25.333 25.333 25.333h-.167C88.41 60.166 95.5 67.256 95.5 76s-7.09 15.833-15.833 15.833H66.833z" fill="#FFF" stroke-width="5"/><path d="M76.167 75.875c-23.333 0-37.458-15.744-37.458-35.718v-20.99" fill="none" stroke-width="4.5" stroke-linecap="round" stroke-linejoin="round"/><path fill="none" stroke-width="4" stroke-linecap="round" stroke-linejoin="round" d="M53.333 89.833l-4.5 16.334M38 81L27.833 91.833M26.5 66.667l-11.333 5.166M22.667 51.167L11.833 52.5"/></g><style>ellipse,polygon,polyline,rect,circle,line,path{stroke-width:2;vector-effect:non-scaling-stroke}</style></svg>