<?xml version="1.0" encoding="iso-8859-1"?>
<!-- Generator: Adobe Illustrator 19.2.0, SVG Export Plug-In . SVG Version: 6.00 Build 0)  -->
<!DOCTYPE svg PUBLIC "-//W3C//DTD SVG 1.1//EN" "http://www.w3.org/Graphics/SVG/1.1/DTD/svg11.dtd">
<svg version="1.1" xmlns="http://www.w3.org/2000/svg" xmlns:xlink="http://www.w3.org/1999/xlink" x="0px" y="0px"
	 viewBox="0 0 125 125" style="enable-background:new 0 0 125 125;" xml:space="preserve">
<g id="linja">
	<g id="linja_1_">
		<g id="Layer_4">
			<circle style="fill:#FFFFFF;" cx="62.5" cy="62.5" r="44.345"/>
		</g>
		<g id="Layer_3">
			<circle style="fill:#FFFFFF;" cx="62.5" cy="62.5" r="44.345"/>
			
				<path id="Path" style="fill:#FFFFFF;stroke:#000000;stroke-width:5;stroke-linecap:round;stroke-linejoin:round;stroke-miterlimit:10;" d="
				M47.508,14.124C22.352,15.913,2.5,36.888,2.5,62.5c0,33.137,26.863,60,60,60s60-26.863,60-60s-23.78-60-56.917-60
				C56.287,2.5,47.5,6,47.5,16.833c0,9.297,10.559,15.517,16.333,18.667c6.417,3.5,18,10.838,18,25.67s-9.464,21.167-22.167,21.167
				s-23-8.667-23-21.167c0-7.364,4.969-14.334,12.333-14.334s13.333,4.414,13.333,14.334"/>
		</g>
	</g>
</g>
<g id="Layer_1">
</g>
</svg>
