<svg xmlns="http://www.w3.org/2000/svg" viewBox="-2 -2 133.5 129.358" preserveAspectRatio="none"><g id="jaki"><path d="M59.155 81.833c3.618 0 6.552 2.595 6.552 5.796 0 1.6-.733 3.048-1.92 4.097L51.018 103c-1.2 1.235-2.98 2.016-4.965 2.016-3.618 0-6.552-2.595-6.552-5.796V87.63c0-3.202 2.933-5.797 6.552-5.797h13.103z" fill="#FFF" stroke="#000" stroke-width="4.5" stroke-miterlimit="10"/><path d="M78.41 90.587c4.03-.35 7.55 2.254 7.86 5.82.155 1.78-.52 3.466-1.74 4.75L71.403 114.95c-1.218 1.49-3.124 2.533-5.335 2.726-4.03.35-7.548-2.254-7.86-5.82L57.084 98.95c-.31-3.565 2.704-6.74 6.734-7.09l14.594-1.273z" fill="#FFF" stroke="#000" stroke-width="4.5" stroke-miterlimit="10"/><path d="M107.757 87.813c5.383-.153 8.802 1.71 8.937 6.47.167 5.874-20.148 25.364-20.148 25.364-1.735 1.886-4.348 3.123-7.3 3.207-5.384.153-9.857-3.583-9.992-8.345l-.49-17.244c-.135-4.762 4.12-8.745 9.5-8.898l19.493-.555z" fill="#FFF" stroke="#000" stroke-width="5" stroke-miterlimit="10"/><path d="M40.75 82.583c12.136 10.527 29.09 23 46.417 23H97c16.57 0 30-18.18 30-34.75V32.5c0-16.57-13.43-30-30-30l-29.833.333c-33.045 0-59.833 26.788-59.833 59.833V70c0 10.585 8.58 19.167 19.167 19.167S45.668 84.5 45.668 57.833" fill="#FFF" stroke="#000" stroke-width="5" stroke-linecap="round" stroke-linejoin="round" stroke-miterlimit="10"/><path fill="none" stroke="#000" stroke-width="4" stroke-linecap="round" stroke-linejoin="round" stroke-miterlimit="10" d="M91.36 23.414L64.66 62.95M105.087 28.588L74.657 73.64M104.642 54.59l-5.955 8.818M67.778 33.014l-3.095 4.582M2 53.66c3.564-4.885 9.5-9.073 16.75-10.327 6.735-1.165 11.456-.387 16.226 1.77M4.81 32.934C9.605 30.2 16.115 28.932 22.622 30.6c6.045 1.55 9.685 3.964 12.85 7.543"/><ellipse transform="rotate(-50.89 27.278 56.19)" cx="27.275" cy="56.188" rx="4.482" ry="4.135"/><path d="M34.976 45.102s2.51 9.774-2.16 15.52-14.752 5.284-14.752 5.284-2.51-9.774 2.16-15.52 14.752-5.284 14.752-5.284z" fill="none" stroke="#000" stroke-width="3" stroke-linecap="round" stroke-linejoin="round" stroke-miterlimit="10"/></g><style>ellipse,polygon,polyline,rect,circle,line,path{stroke-width:2;vector-effect:non-scaling-stroke}</style></svg>