<svg xmlns="http://www.w3.org/2000/svg" viewBox="-2 -2 129 129"><g id="mama"><path d="M60.667 40.742c10.217 0 18.5 7.76 18.5 17.333s-8.283 17.333-18.5 17.333-18.5-7.76-18.5-17.333c0 9.573-8.283 17.333-18.5 17.333s-18.5-7.76-18.5-17.333c0-9.576 7.333-17.333 22.5-17.333C12 40.742 2.5 34.502 2.5 22.622 2.5 12.062 8.5 2.5 23.622 2.5H62.5c33.137 0 60 26.863 60 60v30c0 16.57-13.43 30-30 30H24.437c-10.528 0-19.063-7.534-19.063-18.062 0-4.948 1.485-9.247 3.976-13.845 3.482-6.426 8.15-14.426 8.15-14.426" fill="#FFF" stroke="#000" stroke-width="5" stroke-linecap="round" stroke-linejoin="round" stroke-miterlimit="10"/><path fill="none" stroke="#000" stroke-width="3.5" stroke-linecap="round" stroke-linejoin="round" stroke-miterlimit="10" d="M19.492 19.076l34.29-5.16M24.55 26.62l34.29-5.16"/><ellipse transform="rotate(-25.435 42.582 99.955)" cx="42.583" cy="99.957" rx="3.534" ry="2.615"/></g><style>path{stroke-width:2;vector-effect:non-scaling-stroke}</style></svg>