<svg xmlns="http://www.w3.org/2000/svg" viewBox="-2 -2 129.04500000000002 129.25" preserveAspectRatio="none"><g id="loje"><circle cx="62.689" cy="57.199" r="54.037" fill="#FFF"/><path d="M80.162 72.455c0-11.704 9.488-21.19 21.19-21.19s21.192 9.487 21.192 21.19L122.5 92.75c0 16.57-13.43 30-30 30h-60c-16.57 0-30-13.43-30-30V72.455c0-11.704 9.488-21.19 21.19-21.19s21.192 9.487 21.192 21.19c0-9.742 7.898-17.64 17.64-17.64s17.64 7.898 17.64 17.64z" fill="#FFF" stroke="#000" stroke-width="5" stroke-linecap="round" stroke-linejoin="round" stroke-miterlimit="10"/><path d="M7.522 57.5c0-30.376 24.624-55 55-55s55 24.624 55 55" fill="none" stroke="#000" stroke-width="5" stroke-linecap="round" stroke-linejoin="round" stroke-miterlimit="10"/><path fill="none" stroke="#000" stroke-width="3.5" stroke-linecap="round" stroke-linejoin="round" stroke-miterlimit="10" d="M70.523 56.817V3.25"/><path fill="none" stroke="#000" stroke-width="3" stroke-linecap="round" stroke-linejoin="round" stroke-miterlimit="10" d="M62.522 54.815V3.25"/><path fill="none" stroke="#000" stroke-width="3.5" stroke-linecap="round" stroke-linejoin="round" stroke-miterlimit="10" d="M54.522 56.817V3.25M29.14 24.75l16.38 19.232M45.52 24.75L29.14 43.982M79.526 24.75l16.38 19.232M95.906 24.75l-16.38 19.232"/></g><style>ellipse,polygon,polyline,rect,circle,line,path{stroke-width:2;vector-effect:non-scaling-stroke}</style></svg>