<?xml version="1.0" encoding="iso-8859-1"?>
<!-- Generator: Adobe Illustrator 19.2.0, SVG Export Plug-In . SVG Version: 6.00 Build 0)  -->
<!DOCTYPE svg PUBLIC "-//W3C//DTD SVG 1.1//EN" "http://www.w3.org/Graphics/SVG/1.1/DTD/svg11.dtd">
<svg version="1.1" xmlns="http://www.w3.org/2000/svg" xmlns:xlink="http://www.w3.org/1999/xlink" x="0px" y="0px"
	 viewBox="0 0 124.854 129.28" style="enable-background:new 0 0 124.854 129.28;" xml:space="preserve">
<g id="kili">
	<g id="kili_1_">
		
			<ellipse transform="matrix(0.7796 -0.6263 0.6263 0.7796 -26.6157 53.356)" style="fill:#FFFFFF;stroke:#000000;stroke-width:5;stroke-miterlimit:10;" cx="62.494" cy="64.49" rx="63.889" ry="53"/>
		<g>
			<path style="fill:#FFFFFF;" d="M57.063,9.057c10.942,14.092,5.453,30.606-8.639,41.548S16.973,62.774,6.031,48.682
				c-3.647-4.697-5.314-14.704-0.616-18.352s13.35-0.365,16.998,4.333c-3.647-4.697-4.684-13.894,0.013-17.541
				s13.35-0.365,16.998,4.333c-3.647-4.697-4.684-13.894,0.013-17.541S53.416,4.36,57.063,9.057z"/>
			<path d="M59.115,7.63l1.19,1.73l0.595,0.865c0.196,0.311,0.385,0.682,0.576,1.021l1.129,2.086l0.868,2.13
				c1.06,2.865,1.752,5.929,1.735,9.013c0.032,3.068-0.39,6.154-1.375,9.023c-0.934,2.881-2.239,5.628-3.908,8.097
				c-0.77,1.285-1.733,2.415-2.629,3.598c-0.469,0.572-0.983,1.104-1.473,1.656c-0.494,0.55-0.985,1.102-1.531,1.595l-1.598,1.522
				c-0.538,0.5-1.122,0.944-1.681,1.418l-0.848,0.7l-0.212,0.175l-0.106,0.087l-0.168,0.128l-0.424,0.309l-1.697,1.237
				c-0.532,0.417-1.227,0.811-1.848,1.213c-0.64,0.388-1.269,0.826-1.922,1.169c-1.31,0.681-2.591,1.419-3.976,1.964
				c-2.701,1.224-5.599,2.063-8.565,2.571c-2.964,0.557-6.055,0.52-9.083,0.129c-3.052-0.365-5.999-1.456-8.721-2.863l-2.003-1.146
				L9.586,55.7c-0.638-0.432-1.193-0.952-1.749-1.473c-0.55-0.524-1.14-1.017-1.654-1.572l-1.492-1.707L4.32,50.519l-0.186-0.214
				l-0.046-0.054l-0.023-0.027l-0.09-0.121l-0.076-0.107l-0.612-0.871L2.61,47.983c-0.204-0.374-0.36-0.723-0.541-1.087
				c-0.331-0.726-0.639-1.456-0.878-2.205c-0.516-1.487-0.858-3.02-1.048-4.594c-0.184-1.573-0.215-3.189,0.05-4.854
				c0.261-1.652,0.787-3.386,1.885-4.964c0.305-0.378,0.542-0.793,0.926-1.119l0.543-0.506l0.276-0.247l0.035-0.031
				c-0.136,0.095,0.225-0.166,0.197-0.144l0.056-0.035l0.111-0.07l0.445-0.279c0.168-0.098,0.242-0.172,0.524-0.301
				c0.472-0.224,0.986-0.47,1.446-0.622c1.763-0.591,3.535-0.647,5.179-0.462c1.653,0.185,3.207,0.638,4.671,1.244
				c2.908,1.243,5.523,3.085,7.505,5.729l-3.16,2.454l-0.006-0.009c-0.286-0.364-0.583-0.729-0.858-1.104
				c-0.244-0.386-0.497-0.773-0.727-1.167l-0.625-1.209l-0.532-1.243l-0.422-1.279l-0.333-1.305c-0.185-0.88-0.329-1.772-0.4-2.682
				c-0.149-1.816-0.006-3.703,0.554-5.594c0.28-0.944,0.71-1.877,1.265-2.767c0.27-0.445,0.635-0.854,0.962-1.272
				c0.173-0.204,0.386-0.38,0.581-0.569l0.301-0.276l0.152-0.136l0.076-0.068l0.038-0.034l0.019-0.017l0.01-0.008l0.174-0.125
				c0.356-0.222,0.62-0.418,1.051-0.661c0.529-0.255,1.129-0.561,1.632-0.708c0.999-0.316,2.01-0.501,2.993-0.537
				c1.971-0.073,3.833,0.257,5.556,0.852c0.863,0.294,1.692,0.656,2.498,1.053l1.182,0.646l1.135,0.726l1.072,0.824l1.016,0.905
				c0.325,0.322,0.637,0.662,0.95,0.994c0.294,0.36,0.575,0.737,0.856,1.105l-3.16,2.453l-0.003-0.004
				c-0.284-0.378-0.581-0.755-0.849-1.143c-0.243-0.396-0.504-0.79-0.728-1.196c-0.443-0.814-0.821-1.652-1.147-2.508l-0.421-1.305
				l-0.331-1.331l-0.238-1.356l-0.142-1.379c-0.024-0.465-0.028-0.934-0.037-1.402c0.013-0.471,0.058-0.947,0.09-1.421
				c0.055-0.476,0.147-0.957,0.225-1.436c0.109-0.48,0.251-0.961,0.383-1.441c0.182-0.477,0.367-0.955,0.58-1.426
				c0.263-0.46,0.492-0.934,0.807-1.372c0.343-0.423,0.627-0.889,1.047-1.259l0.607-0.57l0.154-0.14l0.039-0.035l0.019-0.017
				L38.102,1.8l0.064-0.041l0.256-0.165c0.4-0.335,2.124-1.181,2.999-1.29c0.529-0.149,1.043-0.207,1.558-0.251
				c0.523-0.071,1.018-0.053,1.517-0.043c0.507-0.007,0.983,0.06,1.464,0.119c0.488,0.045,0.95,0.145,1.411,0.246
				c0.469,0.088,0.92,0.211,1.362,0.35c0.449,0.128,0.893,0.265,1.316,0.441c0.866,0.318,1.691,0.71,2.501,1.128
				c0.808,0.422,1.583,0.902,2.343,1.409l1.11,0.816l1.066,0.9c0.345,0.32,0.679,0.662,1.016,0.994
				c0.325,0.358,0.638,0.739,0.953,1.111L59.115,7.63z M55.089,10.591L54.446,9.86l-0.733-0.703L52.91,8.493l-0.86-0.618
				c-0.598-0.386-1.206-0.758-1.844-1.082c-0.636-0.319-1.285-0.622-1.947-0.855c-0.328-0.136-0.658-0.244-0.991-0.339
				c-0.331-0.111-0.663-0.205-0.994-0.267c-0.331-0.077-0.662-0.156-0.985-0.183c-0.325-0.042-0.653-0.099-0.961-0.089
				c-0.313-0.009-0.631-0.032-0.916,0.015c-0.297,0.021-0.591,0.043-0.845,0.125l-0.401,0.086c-0.081,0.04-0.154,0.073-0.236,0.098
				l-0.124,0.032c-0.047,0.015-0.069-0.006-0.173,0.07l-0.515,0.325L40.86,5.972l-0.064,0.041l-0.008,0.005
				c-0.17,0.119,0.222-0.157,0.18-0.127l-0.009,0.008l-0.018,0.017l-0.071,0.066L40.58,6.235c-0.215,0.146-0.343,0.403-0.534,0.589
				c-0.171,0.211-0.294,0.478-0.457,0.708L39.22,8.35l-0.276,0.905c-0.057,0.322-0.136,0.638-0.187,0.966
				c-0.03,0.336-0.078,0.668-0.101,1.008l-0.029,1.035l0.049,1.05l0.125,1.054l0.2,1.048l0.27,1.032
				c0.201,0.682,0.441,1.347,0.725,1.988c0.144,0.318,0.314,0.615,0.468,0.928l0.537,0.861l0.002,0.003
				c0.689,0.856,0.553,2.109-0.304,2.798c-0.797,0.641-1.938,0.568-2.648-0.137l-0.209-0.207l-0.706-0.7l-0.769-0.662l-0.83-0.608
				l-0.88-0.551l-0.911-0.506l-0.941-0.445c-0.639-0.268-1.287-0.507-1.944-0.689c-1.311-0.353-2.638-0.557-3.849-0.462
				c-0.606,0.038-1.17,0.151-1.687,0.318c-0.261,0.076-0.36,0.17-0.566,0.217c-0.264,0.141-0.645,0.417-0.962,0.618
				c-0.039,0.027,0.308-0.22,0.159-0.113l-0.004,0.004l-0.008,0.008l-0.017,0.017l-0.034,0.033l-0.068,0.065l-0.139,0.128
				c-0.09,0.089-0.198,0.155-0.28,0.256c-0.149,0.218-0.34,0.391-0.48,0.626c-0.29,0.46-0.539,0.978-0.727,1.555
				c-0.393,1.15-0.525,2.486-0.509,3.843c0.013,0.682,0.084,1.368,0.184,2.054l0.197,1.023l0.264,1.008l0.316,0.989l0.383,0.956
				l0.45,0.909l0.503,0.858l0.004,0.006c0.667,0.88,0.494,2.134-0.387,2.801c-0.839,0.635-2.017,0.508-2.703-0.267l-0.071-0.08
				c-1.531-1.738-3.74-3.091-6.013-3.924c-2.271-0.781-4.769-1.097-6.571-0.393c-0.198,0.078-0.309,0.158-0.48,0.208
				c-0.051-0.009-0.248,0.149-0.378,0.231l-0.434,0.295L6.847,32.38l-0.054,0.037c-0.047,0.032,0.3-0.212,0.147-0.102l-0.013,0.014
				L6.819,32.44l-0.223,0.212c-0.173,0.112-0.257,0.344-0.401,0.5c-0.5,0.729-0.836,1.732-0.995,2.836
				c-0.174,1.104-0.138,2.316,0.005,3.518c0.132,1.205,0.388,2.425,0.781,3.586c0.178,0.587,0.414,1.152,0.656,1.701
				c0.129,0.263,0.255,0.556,0.384,0.797l0.376,0.674l0.586,0.853l0.075,0.108c0.068,0.093-0.072-0.096-0.05-0.068l0.02,0.023
				l0.039,0.046l0.157,0.183l0.314,0.367l1.25,1.473c0.429,0.478,0.92,0.885,1.374,1.334c0.459,0.445,0.916,0.893,1.441,1.248
				l1.517,1.148l1.633,0.956c2.218,1.172,4.595,2.114,7.117,2.437c2.501,0.351,5.086,0.435,7.637-0.036
				c2.547-0.417,5.083-1.115,7.491-2.188c1.231-0.466,2.384-1.127,3.564-1.723c0.59-0.301,1.112-0.669,1.673-0.998
				c0.555-0.355,1.097-0.63,1.673-1.072l1.707-1.223l0.427-0.306l0.327-0.273l0.766-0.644c0.504-0.436,1.036-0.843,1.518-1.3
				l1.431-1.387c0.493-0.448,0.926-0.948,1.363-1.445c0.433-0.499,0.894-0.977,1.306-1.491c0.779-1.059,1.638-2.068,2.295-3.199
				c1.454-2.18,2.544-4.559,3.315-7c0.822-2.437,1.109-4.994,1.058-7.507c-0.008-2.527-0.618-5.01-1.519-7.366l-0.734-1.751
				l-0.89-1.597c-0.154-0.269-0.274-0.53-0.452-0.809L56.223,12.2l-1.212-1.715L55.089,10.591z"/>
		</g>
		<path style="fill:none;stroke:#000000;stroke-width:5;stroke-linecap:round;stroke-linejoin:round;stroke-miterlimit:10;" d="
			M85.017,114.7c0.996,3.831,1.124,7.949,0.211,12.08"/>
		<path style="fill:none;stroke:#000000;stroke-width:5;stroke-linecap:round;stroke-linejoin:round;stroke-miterlimit:10;" d="
			M110.235,95.084c3.831,0.996,7.949,1.124,12.08,0.211"/>
		
			<line style="fill:none;stroke:#000000;stroke-width:5;stroke-linecap:round;stroke-linejoin:round;stroke-miterlimit:10;" x1="97.299" y1="104.565" x2="105.852" y2="113.118"/>
	</g>
</g>
<g id="Layer_1">
</g>
</svg>
