<?xml version="1.0" encoding="iso-8859-1"?>
<!-- Generator: Adobe Illustrator 19.2.0, SVG Export Plug-In . SVG Version: 6.00 Build 0)  -->
<!DOCTYPE svg PUBLIC "-//W3C//DTD SVG 1.1//EN" "http://www.w3.org/Graphics/SVG/1.1/DTD/svg11.dtd">
<svg version="1.1" xmlns="http://www.w3.org/2000/svg" xmlns:xlink="http://www.w3.org/1999/xlink" x="0px" y="0px"
	 viewBox="0 0 124.99 124.999" style="enable-background:new 0 0 124.99 124.999;" xml:space="preserve">
<g id="mije">
	<g id="mije_1_">
		<g>
			<path style="fill:#FFFFFF;" d="M109.274,82.612c8.873,4.329,13.224,8.933,13.224,15.055c0,13.715-26.863,24.833-60,24.833
				s-60-11.118-60-24.833c0-5.997,4.136-10.498,12.688-14.789"/>
			<path d="M110.178,80.828c0,0,0.161,0.072,0.474,0.212c0.317,0.146,0.769,0.332,1.388,0.636c1.267,0.632,3.083,1.517,5.272,3.052
				c1.086,0.779,2.284,1.689,3.459,2.921c1.161,1.228,2.318,2.773,3.142,4.702c0.814,1.933,1.207,4.197,1.027,6.5
				c-0.212,2.464-1.15,4.781-2.513,6.83c-2.761,4.094-6.887,7.047-11.361,9.46c-4.511,2.396-9.5,4.247-14.746,5.691
				c-10.507,2.856-22.029,4.157-33.519,4.168c-11.489,0.032-23.015-1.213-33.534-4.007c-5.252-1.412-10.252-3.215-14.782-5.56
				c-4.499-2.356-8.643-5.228-11.525-9.186c-1.425-1.965-2.469-4.257-2.813-6.628c-0.094-0.588-0.134-1.18-0.145-1.761L0,97.748
				l0.002-0.215l0.01-0.175l0.02-0.349c0.019-0.249,0.012-0.422,0.053-0.729c0.15-1.229,0.363-2.261,0.741-3.248
				c0.707-1.984,1.807-3.61,2.937-4.884c1.15-1.271,2.329-2.225,3.402-3.036c2.169-1.579,3.988-2.502,5.218-3.126
				c1.236-0.608,1.906-0.896,1.906-0.896l1.794,3.575c0,0-0.587,0.346-1.688,0.995c-1.086,0.656-2.66,1.656-4.433,3.068
				c-1.706,1.445-3.672,3.354-4.507,5.914C5.218,95.267,5.121,96,5.044,96.582c-0.026,0.145-0.02,0.436-0.031,0.649L5.002,97.58
				l-0.005,0.175c-0.003,0.115,0.002-0.106,0.002-0.072L5,97.717l0.003,0.067c0.009,0.358,0.032,0.721,0.094,1.086
				c0.215,1.461,0.878,2.98,1.941,4.44c2.126,2.941,5.69,5.52,9.775,7.619c4.106,2.116,8.804,3.788,13.777,5.13
				c9.967,2.685,21.098,3.941,32.202,3.94c11.103-0.043,22.229-1.351,32.175-4.093c4.966-1.363,9.643-3.084,13.72-5.238
				c4.051-2.142,7.565-4.785,9.562-7.772c0.994-1.468,1.581-3.048,1.705-4.443c0.12-1.545-0.071-2.998-0.566-4.25
				c-0.5-1.259-1.268-2.361-2.12-3.321c-0.833-0.977-1.785-1.785-2.67-2.491c-1.805-1.385-3.412-2.369-4.472-2.995
				c-1.145-0.652-1.755-0.999-1.755-0.999L110.178,80.828z"/>
		</g>
		<g>
			<g>
				<path style="fill:#FFFFFF;" d="M97.744,22.733c15.001,4.842,24.754,17.02,24.754,33.104c0,26.694-26.863,43.33-60,43.33
					s-60-16.636-60-43.33c0-16.014,9.683-28.293,24.574-33.153c-1.312-2.04-2.074-4.482-2.074-7.088
					c0-7.232,5.863-13.095,13.095-13.095s13.095,5.863,13.095,13.095c0-6.246,5.063-11.461,11.31-11.461s11.28,4.991,11.28,11.461
					c0-7.22,5.893-13.095,13.125-13.095s13.095,5.863,13.095,13.095C99.998,18.228,99.081,20.679,97.744,22.733z"/>
				<path d="M101.286,21.397c4.256,1.698,8.359,4.069,11.832,7.181c4.239,3.763,7.574,8.597,9.548,13.929
					c1.995,5.311,2.636,11.128,2.187,16.602c-0.423,5.735-2.174,11.189-4.97,16.114c-2.836,4.886-6.683,9.103-11.061,12.513
					c-2.194,1.702-4.509,3.228-6.907,4.591c-2.412,1.335-4.898,2.511-7.434,3.551c-2.548,1.007-5.14,1.882-7.766,2.622
					c-2.634,0.702-5.285,1.341-7.968,1.784c-5.355,0.953-10.782,1.347-16.195,1.38c-1.416-0.03-2.632-0.014-4.033-0.088
					c-1.374-0.057-2.742-0.127-4.087-0.251c-2.704-0.209-5.399-0.563-8.077-1.022c-2.682-0.445-5.335-1.074-7.97-1.773
					c-2.625-0.744-5.222-1.603-7.768-2.614c-2.537-1.036-5.028-2.202-7.44-3.537c-2.399-1.36-4.718-2.877-6.917-4.574
					c-4.377-3.409-8.249-7.602-11.089-12.487C2.366,70.431,0.578,64.9,0.158,59.279c-0.475-5.592,0.157-11.319,2.126-16.663
					c1.947-5.338,5.241-10.192,9.449-13.99c4.202-3.817,9.253-6.583,14.562-8.32l-1.327,3.729l-0.005-0.009
					c-1.321-2.023-2.165-4.359-2.436-6.764c-0.067-0.62-0.104-1.163-0.096-1.851c0.011-0.274,0.002-0.456,0.031-0.819
					c0.022-0.328,0.046-0.659,0.088-0.949c0.15-1.202,0.433-2.391,0.859-3.528c0.848-2.275,2.227-4.348,4.015-5.981
					c1.779-1.638,3.941-2.867,6.27-3.528c1.163-0.333,2.363-0.531,3.567-0.59C37.585,0.01,37.811,0,38.216,0.003
					c0.271,0.014,0.466,0.012,0.8,0.04c0.669,0.051,1.244,0.123,1.838,0.242c2.369,0.447,4.613,1.476,6.51,2.93
					c1.885,1.473,3.41,3.38,4.423,5.524c1.022,2.143,1.468,4.53,1.402,6.856h-4.001l0-0.006c-0.04-1.748,0.266-3.516,0.901-5.163
					c0.647-1.642,1.619-3.154,2.843-4.435C54.152,4.704,55.65,3.68,57.29,2.97c0.821-0.354,1.679-0.625,2.557-0.807
					c0.439-0.09,0.882-0.158,1.328-0.206l0.67-0.053l0.335-0.011l0.168-0.005l0.084-0.002l0.042-0.001l0.152,0.003l1.116,0.061
					c0.463,0.057,0.953,0.132,1.425,0.209c0.443,0.101,0.869,0.219,1.302,0.333c0.423,0.143,0.841,0.303,1.259,0.459l1.207,0.583
					l1.141,0.702c0.356,0.269,0.718,0.532,1.063,0.814c0.325,0.306,0.658,0.603,0.968,0.922c0.292,0.336,0.598,0.661,0.87,1.012
					c0.256,0.363,0.532,0.713,0.764,1.091c0.467,0.755,0.866,1.549,1.182,2.373c0.304,0.831,0.523,1.684,0.673,2.547
					c0.053,0.434,0.117,0.867,0.152,1.3l0.032,1.301h-4l0-0.002c-0.065-2.334,0.387-4.73,1.42-6.874
					c1.023-2.146,2.558-4.051,4.451-5.522c1.904-1.452,4.155-2.477,6.531-2.92c1.161-0.223,2.454-0.322,3.546-0.259
					c1.32,0.068,2.441,0.266,3.631,0.605c2.33,0.676,4.497,1.909,6.27,3.565c1.787,1.645,3.154,3.734,3.995,6.018
					c0.414,1.144,0.696,2.336,0.838,3.543c0.074,0.603,0.102,1.21,0.109,1.815c-0.006,0.388-0.004,0.499-0.033,0.903
					c-0.02,0.352-0.059,0.641-0.097,0.952C102.243,18.816,101.83,20.144,101.286,21.397z M95.649,21.368
					c0.915-1.445,1.527-3.032,1.713-4.612c0.018-0.193,0.043-0.409,0.047-0.564c0.012-0.102,0.015-0.499,0.018-0.619
					c-0.008-0.41-0.025-0.819-0.077-1.224c-0.098-0.81-0.287-1.607-0.565-2.373c-1.122-3.059-3.72-5.573-6.866-6.513
					c-0.757-0.236-1.65-0.388-2.358-0.438c-0.937-0.057-1.684-0.023-2.523,0.106C83.408,5.38,81.841,6.034,80.483,7
					c-1.358,0.966-2.521,2.237-3.323,3.722c-0.82,1.474-1.301,3.146-1.382,4.871v0.001c0,1.103-0.894,1.997-1.997,1.997
					c-1.045,0-1.903-0.803-1.99-1.826l-0.014-0.171l-0.076-0.931l-0.159-0.912c-0.141-0.599-0.326-1.181-0.566-1.74
					c-0.241-0.557-0.527-1.09-0.86-1.593c-0.34-0.498-0.727-0.958-1.147-1.386c-0.216-0.207-0.449-0.396-0.669-0.598L67.583,7.9
					l-0.766-0.461l-0.809-0.38l-0.843-0.297l-0.865-0.211l-0.785-0.119L62.4,6.382l-0.009,0c-0.103-0.003,0.131,0.003,0.104,0.003
					l-0.014,0l-0.028,0.001l-0.056,0.001l-0.111,0.002l-0.223,0.004l-0.444,0.03c-0.295,0.03-0.589,0.071-0.881,0.128
					c-0.582,0.114-1.153,0.288-1.703,0.518c-1.103,0.456-2.107,1.152-2.973,1.992c-1.722,1.699-2.788,4.068-2.873,6.53l0,0.004
					c0.017,1.104-0.865,2.012-1.968,2.028c-1.081,0.016-1.975-0.829-2.026-1.902l-0.006-0.127c-0.08-1.723-0.557-3.393-1.369-4.866
					c-0.795-1.484-1.949-2.755-3.3-3.721c-1.351-0.966-2.91-1.622-4.535-1.873c-0.401-0.071-0.835-0.104-1.176-0.122
					C38.637,4.999,38.324,5.005,38.089,5l-0.564,0.02c-0.82,0.053-1.629,0.198-2.41,0.433c-3.14,0.926-5.747,3.418-6.88,6.464
					c-0.288,0.76-0.476,1.555-0.58,2.362c-0.032,0.211-0.041,0.386-0.057,0.563c-0.022,0.142-0.019,0.467-0.028,0.699
					c0,0.324,0.007,0.795,0.047,1.182c0.15,1.626,0.688,3.213,1.553,4.601l0.004,0.006l0.027,0.044
					c0.722,1.178,0.353,2.718-0.825,3.44c-0.166,0.102-0.352,0.185-0.529,0.245c-4.72,1.545-9.129,3.976-12.754,7.27
					c-3.632,3.281-6.439,7.421-8.115,12.01C5.285,48.918,4.72,53.943,5.14,58.86c0.367,4.924,1.918,9.686,4.357,13.952
					c2.476,4.257,5.887,7.974,9.834,11.049c1.983,1.529,4.091,2.91,6.287,4.156c2.211,1.223,4.509,2.299,6.86,3.26
					c2.363,0.938,4.785,1.739,7.241,2.436c2.469,0.652,4.96,1.246,7.49,1.665c2.526,0.433,5.073,0.768,7.635,0.965
					c1.286,0.119,2.554,0.182,3.819,0.236c1.236,0.071,2.663,0.057,3.887,0.086c5.145-0.033,10.292-0.406,15.339-1.305
					c2.53-0.417,5.019-1.02,7.487-1.676c2.458-0.693,4.874-1.51,7.238-2.443c2.35-0.965,4.643-2.05,6.854-3.273
					c2.194-1.249,4.297-2.636,6.276-4.17c3.948-3.076,7.334-6.814,9.808-11.07c1.218-2.137,2.203-4.397,2.929-6.74
					c0.383-1.166,0.643-2.368,0.901-3.568l0.295-1.821c0.084-0.602,0.119-1.186,0.185-1.78c0.413-5.039-0.171-9.971-1.88-14.566
					c-1.698-4.577-4.535-8.694-8.193-11.946c-3.671-3.271-8.041-5.65-12.853-7.21c-1.297-0.421-2.008-1.813-1.587-3.11
					c0.064-0.197,0.151-0.381,0.256-0.55L95.649,21.368z"/>
			</g>
		</g>
	</g>
</g>
<g id="Layer_1">
</g>
</svg>
