<svg xmlns="http://www.w3.org/2000/svg" viewBox="-2 -2 129 129.074"><g id="ike" fill="#FFF" stroke="#000" stroke-miterlimit="10"><path d="M107.5 96.676c8.284 0 15 5.797 15 12.95 0 7.15-6.716 12.948-15 12.948s-15-5.797-15-12.95c0 7.152-6.716 12.95-15 12.95s-15-5.797-15-12.95c0 7.152-6.716 12.95-15 12.95s-15-5.797-15-12.95c0 7.152-6.716 12.95-15 12.95s-15-5.797-15-12.95c0-7.15 6.716-12.948 15-12.948" stroke-width="5" stroke-linejoin="round"/><path d="M92.5 16.5c16.57 0 30 13.43 30 30v30.75c0 16.57-13.43 30-30 30h-60c-16.57 0-30-13.43-30-30V46.5c0-16.57 13.43-30 30-30 0 0 5.75 55.5 29.75 55.5S92.5 16.5 92.5 16.5z" stroke-width="5"/><circle cx="49.312" cy="18.936" r="8.188" stroke-width="3.5"/><circle cx="49.312" cy="39.314" r="8.188" stroke-width="3.5"/><circle cx="75.562" cy="18.936" r="8.188" stroke-width="3.5"/><circle cx="75.562" cy="39.314" r="8.188" stroke-width="3.5"/><path d="M62.5 81C44.028 81 29 65.974 29 47.5v-36a9 9 0 0 1 18 0v36C47 56.05 53.953 63 62.5 63S78 56.048 78 47.5v-36a9 9 0 0 1 18 0v36C96 65.973 80.972 81 62.5 81z" stroke-width="5"/><circle cx="36.75" cy="90.666" r="6.5" stroke-width="3"/><circle cx="88.25" cy="90.666" r="6.5" stroke-width="3"/><circle cx="62.5" cy="93.668" r="6.5" stroke-width="3"/></g><style>path{stroke-width:2;vector-effect:non-scaling-stroke}</style></svg>