<?xml version="1.0" encoding="UTF-8"?>
<svg id="Layer_1" xmlns="http://www.w3.org/2000/svg" version="1.1" viewBox="0 0 168 168">
  <!-- Generator: Adobe Illustrator 30.1.0, SVG Export Plug-In . SVG Version: 2.1.1 Build 136)  -->
  <defs>
    <style>
      .st0 {
        fill: none;
        stroke: #000;
        stroke-miterlimit: 10;
        stroke-width: 2px;
      }
    </style>
  </defs>
  <g id="soko">
    <path class="st0" d="M161.23,83.44v38.55c0,21.29-6.6,36.18-38.55,35.55-14.64-.29-22.55-11.66-22.55-11.66,0,0-11.28,9.36-21.99,10.31-18.88,1.67-28.16-13.69-28.16-13.69,0,0-7.17,9.2-14.17,11.34-20.36,6.22-28.79-10.55-28.79-31.84v-38.55C7.03,40.85,41.55,6.34,84.13,6.34s77.1,34.52,77.1,77.1Z"/>
    <ellipse class="st0" cx="59.74" cy="41.83" rx="8.49" ry="6.63"/>
    <circle class="st0" cx="32.39" cy="71.22" r="15.14"/>
    <path class="st0" d="M49.99,142.51s-3.45-35.59,0-46.05c4.11-12.47,13.86-13.38,20.04-13.52,14.1-.31,20.23,12.39,22.35,20.3,2.82,10.51,7.75,42.63,7.75,42.63"/>
  </g>
</svg>