<?xml version="1.0" encoding="iso-8859-1"?>
<!-- Generator: Adobe Illustrator 19.2.1, SVG Export Plug-In . SVG Version: 6.00 Build 0)  -->
<!DOCTYPE svg PUBLIC "-//W3C//DTD SVG 1.1//EN" "http://www.w3.org/Graphics/SVG/1.1/DTD/svg11.dtd">
<svg version="1.1" xmlns="http://www.w3.org/2000/svg" xmlns:xlink="http://www.w3.org/1999/xlink" x="0px" y="0px"
	 viewBox="0 0 265.207 34.25" style="enable-background:new 0 0 265.207 34.25;" xml:space="preserve">
<g id="period">
	<path style="fill:#FFFFFF;stroke:#000000;stroke-width:5;stroke-miterlimit:10;" d="M262.707,22.562
		c0,5.074-3.526,9.188-7.875,9.188H10.375c-4.349,0-7.875-4.113-7.875-9.188l0,0c0-5.074,3.526-9.188,7.875-9.188h244.457
		C259.181,13.375,262.707,17.488,262.707,22.562L262.707,22.562z"/>
	<path style="fill:#FFFFFF;stroke:#000000;stroke-width:5;stroke-miterlimit:10;" d="M262.707,11.688
		c0,5.074-3.526,9.188-7.875,9.188H10.375c-4.349,0-7.875-4.113-7.875-9.188l0,0C2.5,6.613,6.026,2.5,10.375,2.5h244.457
		C259.181,2.5,262.707,6.613,262.707,11.688L262.707,11.688z"/>
</g>
<g id="Layer_1">
</g>
</svg>
