<svg xmlns="http://www.w3.org/2000/svg" viewBox="-2 -2 129 129"><g id="suno" stroke="#000" stroke-width="5" stroke-miterlimit="10"><circle cx="62.5" cy="62.5" r="60" fill="#FFF"/><circle cx="62.5" cy="62.5" r="18" fill="#FFF"/><path d="M62.68 2.298C69.093 7.77 73.16 15.91 73.16 25.003c0 7.56-2.813 14.465-7.45 19.723M2.625 61.944C8.09 55.748 16.09 51.84 25.003 51.84a29.725 29.725 0 0 1 20.224 7.9M61.944 122.375c-6.196-5.467-10.103-13.466-10.103-22.378 0-7.38 2.68-14.133 7.12-19.34M122.706 62.675c-5.472 6.416-13.615 10.485-22.71 10.485-7.648 0-14.625-2.88-19.905-7.61" fill="none"/></g><style>path{stroke-width:2;vector-effect:non-scaling-stroke}</style></svg>