<svg xmlns="http://www.w3.org/2000/svg" viewBox="-2 -2 128.75 129.25"><g id="moli"><path fill="#FFF" d="M46.252 27.907h76.498v42.468H46.252z"/><path d="M116.044 70.417c-3.558 29.6-27.518 52.333-56.544 52.333-31.48 0-57-26.92-57-60.125S28.02 2.5 59.5 2.5c19.456 0 36.635 10.282 46.92 25.976" fill="#FFF" stroke="#000" stroke-width="5" stroke-miterlimit="10"/><path fill="none" stroke="#000" stroke-width="3.5" stroke-miterlimit="10" d="M75.625 56.417h47.125"/><path d="M71.25 70.375h51.5V28.5H49.703c-14.027 0-25.398 11.995-25.398 26.79s11.37 26.792 25.398 26.792 25.922-11.707 25.922-25.665v-13.96h47.125" fill="none" stroke="#000" stroke-width="4" stroke-linecap="round" stroke-linejoin="round" stroke-miterlimit="10"/><path fill="#FFF" stroke="#000" stroke-width="4" stroke-linecap="round" stroke-linejoin="round" stroke-miterlimit="10" d="M37.75 44.375l21 21M58.75 44.375l-21 21"/></g><style>path{stroke-width:2;vector-effect:non-scaling-stroke}</style></svg>