<?xml version="1.0" encoding="iso-8859-1"?>
<!-- Generator: Adobe Illustrator 19.2.0, SVG Export Plug-In . SVG Version: 6.00 Build 0)  -->
<!DOCTYPE svg PUBLIC "-//W3C//DTD SVG 1.1//EN" "http://www.w3.org/Graphics/SVG/1.1/DTD/svg11.dtd">
<svg version="1.1" xmlns="http://www.w3.org/2000/svg" xmlns:xlink="http://www.w3.org/1999/xlink" x="0px" y="0px"
	 viewBox="0 0 125.172 125.002" style="enable-background:new 0 0 125.172 125.002;" xml:space="preserve">
<g id="weka">
	<g id="weka_1_">
		<g>
			<path style="fill:#FFFFFF;" d="M122.616,104.833c0,9.757-6.716,17.667-15,17.667s-15-7.91-15-17.667
				c0,9.757-6.716,17.667-15,17.667s-15-7.91-15-17.667c0,0-5.333,17.667-30,17.667c-16.569,0-30-13.431-30-30l0-72.333
				c0-9.757,6.716-17.667,15-17.667s15,7.91,15,17.667c0-9.757,6.716-17.667,15-17.667s15,7.91,15,17.667
				c0,0,5.333-17.667,30-17.667c16.569,0,30,13.431,30,30V104.833z"/>
			<path d="M125.113,104.941l-0.064,1.604c-0.033,0.558-0.135,1.238-0.209,1.85c-0.197,1.229-0.451,2.378-0.835,3.535
				c-0.16,0.583-0.401,1.14-0.629,1.702c-0.211,0.568-0.491,1.109-0.772,1.649c-0.262,0.549-0.584,1.068-0.917,1.582
				c-0.311,0.526-0.68,1.017-1.061,1.501c-0.361,0.497-0.784,0.949-1.212,1.396c-0.408,0.464-0.882,0.87-1.352,1.278
				c-0.939,0.816-1.989,1.52-3.103,2.115c-1.114,0.597-2.314,1.043-3.547,1.373c-0.618,0.155-1.255,0.241-1.883,0.356
				c-0.635,0.059-1.275,0.084-1.913,0.118l-0.95-0.063c-0.275-0.024-0.515-0.029-0.82-0.068c-0.672-0.119-1.381-0.225-2.014-0.394
				c-1.225-0.346-2.412-0.806-3.511-1.415c-1.099-0.606-2.131-1.32-3.05-2.142c-0.46-0.412-0.926-0.818-1.321-1.286
				c-0.415-0.451-0.824-0.906-1.171-1.406c-0.369-0.484-0.727-0.974-1.026-1.499c-0.321-0.513-0.631-1.029-0.881-1.576
				c-0.27-0.537-0.537-1.074-0.736-1.638c-0.215-0.558-0.446-1.109-0.592-1.687c-0.351-1.138-0.578-2.305-0.737-3.474
				c-0.054-0.587-0.139-1.172-0.162-1.759l-0.029-1.76h4l0,0l0,1.763c-0.018,0.588-0.101,1.174-0.151,1.763
				c-0.153,1.171-0.374,2.343-0.72,3.486c-0.144,0.58-0.377,1.133-0.592,1.693c-0.2,0.566-0.467,1.105-0.737,1.644
				c-0.25,0.549-0.561,1.067-0.882,1.582c-0.3,0.527-0.658,1.019-1.028,1.505c-0.348,0.501-0.758,0.958-1.174,1.412
				c-0.398,0.469-0.868,0.873-1.332,1.284c-0.927,0.82-1.966,1.53-3.07,2.132c-1.105,0.604-2.297,1.059-3.525,1.399
				c-0.616,0.16-1.251,0.251-1.877,0.371c-0.316,0.04-0.636,0.051-0.954,0.076l-0.478,0.03l-0.239,0.014l-0.12,0.007l-0.06,0.003
				l-0.03,0.002l-0.015,0.001l-0.164-0.004c-0.543-0.04-1.049-0.062-1.621-0.116c-0.673-0.115-1.383-0.219-2.018-0.384
				c-1.228-0.34-2.42-0.795-3.525-1.399c-1.105-0.602-2.143-1.312-3.07-2.132c-0.463-0.411-0.934-0.815-1.332-1.284
				c-0.416-0.453-0.826-0.91-1.174-1.412c-0.37-0.486-0.729-0.978-1.028-1.505c-0.321-0.515-0.632-1.033-0.882-1.582
				c-0.27-0.539-0.538-1.078-0.737-1.644c-0.215-0.56-0.448-1.112-0.592-1.693c-0.345-1.143-0.566-2.315-0.72-3.486
				c-0.051-0.589-0.133-1.175-0.151-1.763l0-1.763l3.915,0.578l0,0c-0.212,0.707-0.418,1.206-0.651,1.777
				c-0.241,0.544-0.486,1.085-0.762,1.606c-0.544,1.046-1.168,2.04-1.825,3.013c-1.335,1.936-2.966,3.64-4.712,5.21
				c-3.572,3.059-7.865,5.206-12.326,6.427c-1.123,0.26-2.237,0.619-3.372,0.789l-3.408,0.503c-1.137,0.103-2.275,0.133-3.414,0.2
				l-0.854,0.039l-0.427,0.019L32.672,125l-0.053,0.002l-0.177-0.005l-0.203-0.01l-1.623-0.079
				c-1.029-0.004-2.278-0.209-3.482-0.391c-1.237-0.137-2.322-0.505-3.474-0.777c-0.575-0.127-1.127-0.326-1.677-0.533l-1.655-0.604
				c-1.089-0.437-2.128-0.992-3.192-1.49c-4.128-2.247-7.752-5.394-10.57-9.151c-2.822-3.754-4.83-8.126-5.817-12.729
				c-0.213-1.155-0.38-2.322-0.547-3.484c-0.06-1.163-0.139-2.368-0.169-3.499L0.022,85.75L0,72.754l0.071-51.986l0.001-0.406
				l0.003-0.312l0.009-0.203l0.036-0.811l0.039-0.816l0.117-0.955c0.075-0.643,0.165-1.276,0.311-1.857
				c0.132-0.595,0.248-1.194,0.449-1.774c0.695-2.341,1.783-4.585,3.266-6.577c1.48-1.989,3.365-3.729,5.589-4.984
				c2.215-1.259,4.781-2.001,7.367-2.053l0.242-0.012l0.06-0.003c0.086,0.001-0.107-0.007,0.208,0.002l0.101,0.007l0.405,0.028
				l0.81,0.055c0.234,0,0.653,0.093,0.975,0.142l1.03,0.192c0.641,0.167,1.24,0.368,1.855,0.565
				c0.584,0.259,1.182,0.498,1.748,0.788c2.254,1.19,4.203,2.857,5.694,4.823c1.502,1.959,2.607,4.169,3.318,6.473
				c0.683,2.313,1.003,4.715,0.91,7.087h-4l0,0l0-1.763c0.018-0.588,0.101-1.174,0.151-1.763c0.153-1.171,0.374-2.343,0.72-3.486
				c0.144-0.58,0.377-1.133,0.592-1.693c0.2-0.566,0.467-1.105,0.737-1.644c0.25-0.549,0.561-1.067,0.882-1.582
				c0.3-0.527,0.658-1.019,1.028-1.505c0.348-0.501,0.758-0.958,1.174-1.412c0.398-0.469,0.868-0.873,1.332-1.284
				c0.927-0.82,1.966-1.53,3.07-2.132c1.105-0.604,2.297-1.059,3.525-1.399c0.616-0.16,1.251-0.251,1.877-0.371
				c0.316-0.04,0.636-0.051,0.954-0.076l0.478-0.03l0.239-0.014l0.12-0.007l0.06-0.003l0.03-0.002l0.015-0.001l0.164,0.004
				c0.543,0.04,1.049,0.062,1.621,0.116c0.673,0.115,1.383,0.219,2.018,0.384c1.228,0.34,2.42,0.795,3.525,1.399
				c1.105,0.602,2.143,1.312,3.07,2.132c0.463,0.411,0.934,0.815,1.332,1.284c0.416,0.453,0.826,0.91,1.174,1.412
				c0.37,0.486,0.729,0.978,1.028,1.505c0.321,0.515,0.632,1.033,0.882,1.582c0.27,0.539,0.538,1.078,0.737,1.644
				c0.215,0.56,0.448,1.112,0.592,1.693c0.345,1.143,0.566,2.315,0.72,3.486c0.051,0.589,0.133,1.175,0.151,1.763l0,1.763
				l-3.915-0.578l0,0c0.171-0.546,0.313-0.929,0.492-1.36c0.165-0.425,0.353-0.83,0.546-1.23c0.373-0.812,0.814-1.578,1.266-2.338
				c0.47-0.747,0.941-1.496,1.489-2.189c0.51-0.723,1.087-1.391,1.682-2.044c2.382-2.611,5.263-4.752,8.383-6.372
				c3.11-1.687,6.52-2.616,9.909-3.296c1.709-0.231,3.42-0.586,5.133-0.605l2.571-0.131l0.321-0.016l0.08-0.004L92.615,0
				l0.165,0.005l0.153,0.008l0.611,0.03l1.222,0.061c0.416,0.029,0.794,0.021,1.242,0.08l1.362,0.197
				c0.904,0.141,1.836,0.246,2.671,0.496c0.853,0.231,1.722,0.409,2.559,0.691l2.492,0.91c3.258,1.38,6.288,3.275,8.95,5.596
				c0.641,0.607,1.341,1.155,1.927,1.817l1.779,1.965l1.591,2.121c0.524,0.711,0.941,1.496,1.413,2.243
				c1.766,3.063,3.038,6.407,3.766,9.873l0.404,2.623c0.136,0.874,0.121,1.762,0.184,2.643c0.018,0.435,0.052,0.897,0.056,1.31
				l0.001,1.223l0.002,2.446l0.007,9.785l-0.019,19.57l-0.038,39.14L125.113,104.941z M120.116,104.833l-0.037-39.14l-0.019-19.57
				l0.007-9.785l0.002-2.446l0.001-1.223c-0.003-0.402-0.035-0.754-0.05-1.133c-0.057-0.744-0.03-1.497-0.149-2.234l-0.334-2.214
				c-0.613-2.921-1.679-5.741-3.163-8.33c-0.402-0.629-0.743-1.297-1.188-1.897l-1.339-1.797l-1.503-1.662
				c-0.49-0.566-1.091-1.02-1.628-1.539c-2.249-1.966-4.806-3.573-7.554-4.747l-2.103-0.772c-0.706-0.242-1.442-0.384-2.161-0.586
				c-0.73-0.226-1.427-0.286-2.132-0.406L95.709,5.18c-0.359-0.054-0.801-0.051-1.198-0.079L93.29,5.038L92.68,5.007l-0.153-0.008
				C92.571,4.999,92.375,4.994,92.615,5l-0.036,0.001l-0.072,0.003l-0.289,0.012l-2.317,0.089c-1.558-0.013-3.057,0.297-4.583,0.472
				c-2.994,0.554-5.958,1.341-8.634,2.708c-2.699,1.305-5.183,3.039-7.264,5.189c-0.523,0.535-1.046,1.071-1.501,1.666
				c-0.495,0.564-0.918,1.18-1.348,1.793c-0.409,0.621-0.818,1.255-1.154,1.91c-0.177,0.326-0.349,0.653-0.494,0.983
				c-0.154,0.313-0.304,0.693-0.392,0.92l0,0c-0.282,1.058-1.369,1.687-2.428,1.405c-0.822-0.219-1.385-0.924-1.463-1.723
				l-0.024-0.259l-0.138-1.446c-0.05-0.479-0.155-0.951-0.227-1.425c-0.193-0.938-0.434-1.865-0.774-2.751
				c-0.137-0.455-0.34-0.882-0.528-1.314c-0.172-0.441-0.404-0.849-0.631-1.258c-0.209-0.421-0.47-0.807-0.733-1.19
				c-0.244-0.398-0.535-0.756-0.831-1.11c-0.276-0.372-0.6-0.694-0.923-1.016c-0.303-0.344-0.652-0.631-0.994-0.925
				c-0.682-0.59-1.433-1.08-2.212-1.492c-0.78-0.414-1.604-0.707-2.441-0.932c-0.401-0.097-0.757-0.13-1.134-0.22
				c-0.492-0.042-1.057-0.06-1.583-0.091c0.294,0.009,0.076,0.003,0.139,0.005l-0.01,0.001l-0.02,0.001l-0.04,0.003L47.454,5.01
				l-0.162,0.01l-0.323,0.017c-0.215,0.014-0.432,0.012-0.647,0.036c-0.423,0.086-0.854,0.131-1.275,0.234
				c-0.837,0.225-1.661,0.518-2.441,0.932c-0.779,0.412-1.53,0.902-2.212,1.492c-0.342,0.294-0.691,0.581-0.994,0.925
				c-0.323,0.322-0.647,0.645-0.923,1.016c-0.295,0.353-0.587,0.712-0.831,1.11c-0.264,0.383-0.524,0.769-0.733,1.19
				c-0.228,0.409-0.46,0.818-0.631,1.258c-0.188,0.432-0.392,0.859-0.528,1.314c-0.34,0.886-0.581,1.812-0.774,2.751
				c-0.071,0.474-0.176,0.945-0.227,1.425l-0.138,1.446v0c0,1.104-0.895,1.999-1.999,1.999c-1.067,0-1.939-0.837-1.996-1.89
				l-0.006-0.109c-0.203-3.911-1.53-7.734-3.928-10.607c-1.204-1.418-2.618-2.628-4.22-3.423c-0.4-0.195-0.818-0.344-1.222-0.526
				c-0.42-0.116-0.853-0.255-1.258-0.358l-0.569-0.095c-0.214-0.027-0.319-0.094-0.63-0.095l-0.811-0.041l-0.406-0.02l-0.101-0.005
				C17.753,5.005,17.525,5,17.578,5.003l-0.041,0.003l-0.163,0.012c-3.504,0.068-6.841,2.056-9.022,5.045
				c-1.1,1.486-1.929,3.2-2.458,5.01c-0.159,0.445-0.24,0.913-0.342,1.375c-0.12,0.471-0.174,0.911-0.225,1.345l-0.092,0.656
				l-0.036,0.806l-0.033,0.812l-0.008,0.203c0.004-0.202,0.001-0.027,0.002-0.059l0,0.051l0,0.102l0.001,0.406l0.071,51.986
				L5.209,85.75l-0.011,6.498l0.133,2.991c0.145,0.978,0.28,1.96,0.451,2.934c0.82,3.874,2.497,7.557,4.867,10.733
				c2.367,3.178,5.418,5.851,8.896,7.762c0.901,0.413,1.772,0.893,2.691,1.264l1.396,0.512c0.463,0.178,0.927,0.352,1.414,0.455
				c0.955,0.222,1.933,0.563,2.858,0.653c0.938,0.141,1.823,0.336,2.966,0.349l1.622,0.085l0.203,0.011
				c-0.04-0.001,0.16,0.005-0.076-0.001l0.048-0.002l0.096-0.004l0.384-0.017l0.769-0.034c1.024-0.049,2.055-0.057,3.074-0.134
				l3.026-0.406c1.01-0.133,1.971-0.443,2.96-0.651c3.889-1.036,7.561-2.753,10.669-5.232c1.506-1.289,2.933-2.681,4.146-4.259
				c0.59-0.797,1.16-1.613,1.656-2.468c0.25-0.425,0.472-0.864,0.7-1.294c0.206-0.419,0.43-0.915,0.552-1.239l0,0
				c0.282-1.058,1.369-1.687,2.428-1.405c0.822,0.219,1.385,0.924,1.463,1.723l0.024,0.259l0.138,1.446
				c0.05,0.479,0.155,0.951,0.227,1.425c0.193,0.938,0.434,1.865,0.774,2.751c0.137,0.455,0.34,0.882,0.528,1.314
				c0.172,0.441,0.404,0.849,0.631,1.258c0.209,0.421,0.47,0.807,0.733,1.19c0.244,0.398,0.535,0.756,0.831,1.11
				c0.276,0.372,0.6,0.694,0.923,1.016c0.303,0.344,0.652,0.631,0.994,0.925c0.682,0.59,1.433,1.08,2.212,1.492
				c0.78,0.414,1.604,0.707,2.441,0.932c0.401,0.097,0.757,0.13,1.134,0.22c0.492,0.042,1.057,0.06,1.583,0.091
				c-0.294-0.009-0.076-0.003-0.139-0.005l0.01-0.001l0.02-0.001l0.04-0.003l0.081-0.005l0.162-0.01l0.323-0.017
				c0.215-0.014,0.432-0.012,0.647-0.036c0.423-0.086,0.854-0.131,1.275-0.234c0.837-0.225,1.661-0.518,2.441-0.932
				c0.779-0.412,1.53-0.902,2.212-1.492c0.342-0.294,0.691-0.581,0.994-0.925c0.323-0.322,0.647-0.645,0.923-1.016
				c0.295-0.353,0.587-0.712,0.831-1.11c0.264-0.383,0.524-0.769,0.733-1.19c0.228-0.409,0.46-0.818,0.631-1.258
				c0.188-0.432,0.392-0.859,0.528-1.314c0.34-0.886,0.581-1.812,0.774-2.751c0.071-0.474,0.176-0.945,0.227-1.425l0.138-1.446v0
				c0-1.103,0.894-1.997,1.997-1.997c1.05,0,1.911,0.81,1.991,1.84l0.012,0.157l0.109,1.448c0.046,0.48,0.148,0.953,0.216,1.429
				c0.187,0.942,0.422,1.873,0.757,2.763c0.135,0.458,0.34,0.886,0.528,1.32c0.172,0.442,0.404,0.853,0.632,1.264
				c0.209,0.423,0.47,0.811,0.735,1.196c0.244,0.4,0.537,0.76,0.833,1.115c0.277,0.374,0.602,0.698,0.926,1.022
				c0.305,0.345,0.659,0.63,1.005,0.924c0.689,0.588,1.448,1.075,2.232,1.482c0.786,0.41,1.615,0.697,2.455,0.916
				c0.403,0.094,0.76,0.124,1.138,0.211l1.435,0.077l1.291-0.089c0.422-0.092,0.851-0.142,1.269-0.249
				c0.832-0.235,1.649-0.536,2.419-0.958c0.769-0.419,1.51-0.915,2.18-1.509c0.335-0.297,0.68-0.583,0.973-0.931
				c0.311-0.328,0.622-0.656,0.885-1.032c0.285-0.356,0.565-0.715,0.798-1.114c0.252-0.383,0.501-0.77,0.699-1.19
				c0.216-0.408,0.436-0.815,0.596-1.253c0.175-0.43,0.37-0.852,0.491-1.305c0.301-0.872,0.51-1.822,0.659-2.702
				c0.049-0.451,0.134-0.828,0.17-1.338l0.073-1.604L120.116,104.833z"/>
		</g>
		<g>
			<path style="fill:#FFFFFF;" d="M2.616,60.503c30.5,4.497,36.002-8.001,59.002-8.001c18.409,0,30.998,10.34,30.998,28.749v24.332"
				/>
			<path d="M2.814,59.016c0,0,0.513,0.063,1.475,0.18c0.974,0.132,2.351,0.265,4.108,0.415c1.771,0.113,3.924,0.26,6.383,0.223
				c2.459-0.027,5.224-0.185,8.205-0.596c2.98-0.426,6.162-1.136,9.492-2.159c3.337-1.005,6.829-2.315,10.597-3.502
				c3.76-1.186,7.811-2.179,12-2.651c4.192-0.451,8.443-0.581,12.786-0.012c4.293,0.571,8.572,1.824,12.399,3.941
				c3.835,2.09,7.127,5.122,9.449,8.619c2.343,3.496,3.702,7.383,4.376,11.094c0.346,1.86,0.493,3.686,0.557,5.445
				c0.027,0.895,0.033,1.73,0.029,2.525c0.001,0.807,0.002,1.598,0.003,2.373c-0.035,12.403-0.058,20.672-0.058,20.672
				c-0.003,1.105-0.901,1.998-2.006,1.994c-1.101-0.003-1.991-0.895-1.994-1.994c0,0-0.023-8.269-0.058-20.672
				c0.001-0.775,0.002-1.567,0.003-2.373c0.006-0.818,0-1.625-0.021-2.402c-0.054-1.58-0.18-3.21-0.482-4.845
				c-0.587-3.268-1.755-6.601-3.73-9.563c-1.961-2.963-4.715-5.529-8.026-7.346c-3.3-1.837-7.086-2.973-10.977-3.5
				c-3.858-0.547-7.935-0.501-11.832-0.123c-3.911,0.392-7.689,1.261-11.333,2.358c-3.642,1.094-7.188,2.372-10.67,3.375
				c-3.476,1.02-6.879,1.738-10.044,2.147c-3.169,0.407-6.095,0.509-8.673,0.473c-2.581-0.02-4.813-0.223-6.648-0.383
				c-1.844-0.199-3.292-0.375-4.236-0.525c-0.959-0.139-1.47-0.214-1.47-0.214c-0.82-0.119-1.388-0.88-1.27-1.7
				C1.264,59.482,2.008,58.919,2.814,59.016z"/>
		</g>
		<g>
			<path style="fill:#FFFFFF;" d="M62.616,105.583V93.336c0-11.107-6.25-16.838-14.812-16.838c-10.697,0-24.938,7.25-45.188,0.5"/>
			<path d="M60.616,105.583c0,0,0.019-5.195,0.046-12.989c-0.039-1.78-0.269-3.757-0.872-5.658
				c-0.596-1.906-1.588-3.763-3.071-5.231c-1.47-1.477-3.432-2.529-5.638-3.017c-1.094-0.241-2.277-0.369-3.412-0.358l-0.961,0.02
				L45.824,78.4c-0.615,0.047-1.233,0.106-1.856,0.181c-2.494,0.305-5.031,0.792-7.563,1.248c-2.53,0.458-5.058,0.896-7.532,1.189
				c-4.951,0.602-9.677,0.663-13.68,0.254c-4.008-0.391-7.287-1.141-9.54-1.768c-1.127-0.316-2.006-0.582-2.599-0.785
				c-0.595-0.193-0.913-0.297-0.913-0.297c-0.788-0.256-1.219-1.102-0.963-1.89c0.253-0.779,1.082-1.209,1.862-0.972l0.05,0.015
				c0,0,0.304,0.092,0.873,0.266c0.566,0.183,1.405,0.421,2.478,0.701c2.145,0.556,5.253,1.207,9.033,1.509
				c3.779,0.317,8.22,0.185,12.955-0.475c2.37-0.332,4.817-0.756,7.327-1.241c2.51-0.475,5.087-0.998,7.763-1.351
				c0.67-0.087,1.347-0.158,2.029-0.216l1.063-0.067l0.986-0.029c1.459-0.027,2.863,0.113,4.276,0.408
				c2.807,0.587,5.489,1.968,7.485,3.945c2.018,1.963,3.316,4.394,4.073,6.741c0.766,2.368,1.044,4.638,1.111,6.758
				c0.044,7.835,0.074,13.058,0.074,13.058c0.006,1.105-0.884,2.005-1.989,2.011s-2.005-0.884-2.011-1.989L60.616,105.583z"/>
		</g>
		<g>
			<path style="fill:#FFFFFF;stroke:#000000;stroke-width:4;stroke-linecap:round;stroke-linejoin:round;stroke-miterlimit:10;" d="
				M106.379,28.675c0,0-5.036,13.004-17.538,22.415"/>
			
				<line style="fill:none;stroke:#000000;stroke-width:4;stroke-linecap:round;stroke-linejoin:round;stroke-miterlimit:10;" x1="90.005" y1="31.797" x2="108.486" y2="51.03"/>
		</g>
	</g>
</g>
<g id="Layer_1">
</g>
</svg>
