<svg xmlns="http://www.w3.org/2000/svg" viewBox="-2 -2 129.137 128.79399999999998"><g id="mu" stroke="#000" stroke-miterlimit="10"><path d="M55.43 19.294c5.213.797 8.86 4.96 8.072 9.4-.906 5.1-5.525 7.564-10.74 6.767" fill="#FFF" stroke-width="4" stroke-linecap="round" stroke-linejoin="round"/><path d="M52.762 35.46c5.214.798 8.456 5.394 7.667 9.834-.907 5.1-6.287 7.13-11.5 6.333" fill="#FFF" stroke-width="4" stroke-linecap="round" stroke-linejoin="round"/><path d="M49.095 51.627c5.214.797 8.79 4.893 8 9.333-.906 5.1-5.286 7.797-10.5 7M85.103 22.003c-5.228-.706-10.174 3.615-10.174 8.125 0 5.167 4.938 7.432 10.166 8.138" fill="#FFF" stroke-width="4" stroke-linecap="round" stroke-linejoin="round"/><path d="M85.095 38.265c-5.228-.706-10.67 3.38-11.167 7.862-.57 5.147 4.606 8.34 9.833 9.047" fill="#FFF" stroke-width="4" stroke-linecap="round" stroke-linejoin="round"/><path d="M83.762 55.127c-5.228-.706-11.005 2.184-11.5 6.667-.57 5.147 2.918 8.857 8.146 9.562" fill="#FFF" stroke-width="4" stroke-linecap="round" stroke-linejoin="round"/><path d="M100.93 20.96c23.666 27 21.666 71.334 21.666 71.334 0 16.57-13.43 30-30 30h-60c-16.57 0-30-13.43-30-30 0 0-3-34 24.667-71.667 0 0 10.59-10.333 14.59-8.667s8.486.265 7.077 9.966c-1.41 9.7-17.37 75.368 12.777 72.034 30.147-3.333 32.147-68.667 31.814-74.667-.334-6 7.41 1.668 7.41 1.668z" fill="#FFF" stroke-width="5"/><path d="M40.262 17.294s-10.424 9.402-15 .667c-3.667-7 4-12.666 12.167-14.666 9.343-2.288 18.832.333 18.832 8.333s-2.667 20.333-5.333 32C48.26 55.294 38.26 89.96 62.93 89.96s22.332-61 22.332-71 6-11.666 8.667-11.666c2.666 0 7.332 0 7.332 11.333S99.93 56.293 91.93 76.293 75.594 99.627 61.26 99.627s-25.667-7-26.333-30c-.668-23 7-42.666 5.332-52.333z" fill="#FFF" stroke-width="5" stroke-linecap="round" stroke-linejoin="round"/><path d="M15.595 72.544s11.123 4.03 14.15 16.262c2.35 9.488-7.546 18.17-7.546 18.17s-8.605-8.18-8.605-25.93 18.25-24.502 21.75-24.502" fill="none" stroke-width="4" stroke-linecap="round" stroke-linejoin="round"/><path fill="none" stroke-width="5" d="M13.845 86.794l15.25-.5"/></g><style>path{stroke-width:2;vector-effect:non-scaling-stroke}</style></svg>