<?xml version="1.0" encoding="iso-8859-1"?>
<!-- Generator: Adobe Illustrator 19.2.0, SVG Export Plug-In . SVG Version: 6.00 Build 0)  -->
<!DOCTYPE svg PUBLIC "-//W3C//DTD SVG 1.1//EN" "http://www.w3.org/Graphics/SVG/1.1/DTD/svg11.dtd">
<svg version="1.1" xmlns="http://www.w3.org/2000/svg" xmlns:xlink="http://www.w3.org/1999/xlink" x="0px" y="0px"
	 viewBox="0 0 125.045 125.25" style="enable-background:new 0 0 125.045 125.25;" xml:space="preserve">
<g id="walo">
	<g id="walo_2_">
		<circle style="fill:#FFFFFF;" cx="62.587" cy="57.239" r="54.935"/>
		<g>
			<path style="fill:#FFFFFF;stroke:#000000;stroke-width:5;stroke-linecap:round;stroke-linejoin:round;stroke-miterlimit:10;" d="
				M80.162,72.455c0-11.704,9.488-21.191,21.191-21.191s21.191,9.488,21.191,21.191L122.5,92.75c0,16.569-13.431,30-30,30h-60
				c-16.569,0-30-13.431-30-30V72.455c0-11.704,9.488-21.191,21.191-21.191s21.191,9.488,21.191,21.191
				c0-9.742,7.898-17.64,17.64-17.64S80.162,62.713,80.162,72.455z"/>
		</g>
		<path style="fill:none;stroke:#000000;stroke-width:5;stroke-linecap:round;stroke-linejoin:round;stroke-miterlimit:10;" d="
			M7.522,57.5c0-30.376,24.624-55,55-55s55,24.624,55,55"/>
		<g>
			<circle cx="37.272" cy="33.377" r="5.375"/>
			<circle cx="62.522" cy="33.377" r="5.375"/>
			<circle cx="87.772" cy="33.377" r="5.375"/>
		</g>
	</g>
</g>
<g id="Layer_1">
</g>
</svg>
