<svg xmlns="http://www.w3.org/2000/svg" viewBox="-2 -2 129.04500000000002 129.25" preserveAspectRatio="none"><g id="pimeja"><circle cx="62.848" cy="57.826" r="55.326" fill="#FFF"/><path d="M7.522 57.5c0-30.376 24.624-55 55-55s55 24.624 55 55" fill="none" stroke="#000" stroke-width="5" stroke-linecap="round" stroke-linejoin="round" stroke-miterlimit="10"/><path d="M80.162 72.455c0-11.704 9.488-21.19 21.19-21.19s21.192 9.487 21.192 21.19L122.5 92.75c0 16.57-13.43 30-30 30h-60c-16.57 0-30-13.43-30-30V72.455c0-11.704 9.488-21.19 21.19-21.19s21.192 9.487 21.192 21.19c0-9.742 7.898-17.64 17.64-17.64s17.64 7.898 17.64 17.64z" fill="#FFF" stroke="#000" stroke-width="5" stroke-linecap="round" stroke-linejoin="round" stroke-miterlimit="10"/><path d="M94.168 52.54C79.736 45.642 67.216 32.85 62.61 17.28c-4.606 15.57-17.126 28.362-31.56 35.26" fill="none" stroke="#000" stroke-width="4" stroke-linecap="round" stroke-linejoin="round" stroke-miterlimit="10"/><path d="M22.618 51.027C25.8 31.862 42.455 17.25 62.522 17.25c20.114 0 36.8 14.68 39.926 33.91" fill="none" stroke="#000" stroke-width="4" stroke-linecap="round" stroke-linejoin="round" stroke-miterlimit="10"/></g><style>ellipse,polygon,polyline,rect,circle,line,path{stroke-width:2;vector-effect:non-scaling-stroke}</style></svg>