<svg xmlns="http://www.w3.org/2000/svg" viewBox="-2 -2 129 129"><g id="seme" stroke="#000" stroke-miterlimit="10"><circle cx="62.5" cy="62.5" r="60" fill="#FFF" stroke-width="5"/><path d="M121.444 49.605c-3.214.788-6.812 1.23-10.61 1.23-13.624 0-24.668-5.672-24.668-12.668S97.21 25.5 110.833 25.5M121.444 73.73c-3.214-.79-6.812-1.23-10.61-1.23-13.624 0-24.668 5.67-24.668 12.667 0 6.996 11.044 12.667 24.667 12.667" fill="none" stroke-width="5"/><path d="M58.985 80.094c0 7.958-6.45 14.41-14.41 14.41s-14.408-6.452-14.408-14.41 4.1-11.924 14.41-18.594 14.408-10.637 14.408-18.594-6.45-14.41-14.41-14.41-14.408 6.452-14.408 14.41" fill="none" stroke-width="4.5" stroke-linecap="round" stroke-linejoin="round"/></g><style>path{stroke-width:2;vector-effect:non-scaling-stroke}</style></svg>