<?xml version="1.0" encoding="iso-8859-1"?>
<!-- Generator: Adobe Illustrator 19.2.0, SVG Export Plug-In . SVG Version: 6.00 Build 0)  -->
<!DOCTYPE svg PUBLIC "-//W3C//DTD SVG 1.1//EN" "http://www.w3.org/Graphics/SVG/1.1/DTD/svg11.dtd">
<svg version="1.1" xmlns="http://www.w3.org/2000/svg" xmlns:xlink="http://www.w3.org/1999/xlink" x="0px" y="0px"
	 viewBox="0 0 125 125.25" style="enable-background:new 0 0 125 125.25;" xml:space="preserve">
<g id="jo">
	<g id="jo_1_">
		<path style="fill:#FFFFFF;stroke:#000000;stroke-width:5;stroke-miterlimit:10;" d="M122.5,73.25c0,29.271-26.863,49.5-60,49.5
			s-60-20.229-60-49.5s-0.25-53,60-53C122.5,20.25,122.5,43.979,122.5,73.25z"/>
		<path style="fill:none;stroke:#000000;stroke-width:4;stroke-linecap:round;stroke-linejoin:round;stroke-miterlimit:10;" d="
			M33.5,102.25H82c5.247,0,9.5-3.936,9.5-8.792l0,0c0-4.856-4.253-8.792-9.5-8.792H45.75c-5.247,0-9.5-3.936-9.5-8.792l0,0
			c0-4.856,4.253-8.792,9.5-8.792H82c5.247,0,9.5-3.936,9.5-8.792l0,0c0-4.856-4.253-8.792-9.5-8.792H33.5"/>
		<g>
			<path style="fill:#FFFFFF;" d="M39.874,34V11.75c0-5.109,4.141-9.25,9.25-9.25l0,0c5.109,0,9.25,4.141,9.25,9.25V34"/>
			<path d="M37.874,34c0,0-0.035-1.149-0.097-3.16c-0.04-2.011-0.139-4.884-0.184-8.332c-0.026-1.724-0.054-3.591-0.083-5.567
				c-0.015-0.988-0.03-2.002-0.045-3.039c-0.005-0.519-0.011-1.043-0.016-1.572l-0.002-0.398l0.003-0.322l0.009-0.2
				c0.016-0.28,0.015-0.506,0.046-0.833l0.16-1.121c0.074-0.346,0.163-0.672,0.249-1.01c0.201-0.662,0.444-1.319,0.763-1.944
				c0.626-1.255,1.488-2.41,2.539-3.381c1.05-0.971,2.29-1.758,3.642-2.293c0.675-0.272,1.38-0.468,2.094-0.611
				c0.36-0.055,0.72-0.123,1.082-0.158l0.545-0.032l0.273-0.014l0.136-0.006l0.068-0.003l0.034-0.002l0.161,0.002l0.861,0.048
				c0.333,0.029,0.782,0.101,1.165,0.161c0.755,0.151,1.431,0.342,2.115,0.615c1.352,0.535,2.592,1.322,3.642,2.293
				c2.109,1.937,3.425,4.632,3.701,7.344c0.113,1.479,0.053,2.358,0.05,3.437c-0.015,1.037-0.031,2.052-0.045,3.039
				c-0.029,1.975-0.057,3.843-0.083,5.567c-0.045,3.448-0.143,6.321-0.184,8.332C60.41,32.851,60.374,34,60.374,34
				c-0.034,1.105-0.957,1.972-2.061,1.939c-1.061-0.033-1.904-0.892-1.939-1.939c0,0-0.035-1.149-0.097-3.16
				c-0.04-2.011-0.139-4.884-0.184-8.332c-0.026-1.724-0.054-3.591-0.083-5.567c-0.015-0.988-0.03-2.002-0.045-3.039
				c-0.027-0.994,0.006-2.238-0.069-2.906c-0.179-1.577-0.959-3.124-2.196-4.24c-0.616-0.558-1.337-1.004-2.117-1.303
				c-0.38-0.152-0.815-0.262-1.185-0.335c-0.185-0.018-0.301-0.058-0.54-0.081l-0.861-0.039c0.246,0.007,0.057,0.003,0.107,0.004
				l-0.02,0.001l-0.039,0.002l-0.079,0.004l-0.158,0.008l-0.316,0.012c-0.209,0.018-0.415,0.061-0.623,0.085
				c-0.41,0.081-0.816,0.185-1.205,0.339c-0.779,0.299-1.501,0.745-2.117,1.303c-0.616,0.557-1.125,1.224-1.496,1.947
				c-0.192,0.36-0.332,0.74-0.456,1.121l-0.15,0.575c-0.021,0.163-0.05,0.323-0.085,0.483c-0.027,0.208-0.033,0.52-0.05,0.773
				l-0.011,0.2c-0.003,0.118,0.003-0.133,0.002-0.098l0,0.025l0,0.05l0,0.1L42.3,12.33c-0.005,0.529-0.011,1.053-0.016,1.572
				c-0.015,1.037-0.031,2.052-0.045,3.039c-0.029,1.975-0.057,3.843-0.083,5.567c-0.045,3.448-0.143,6.321-0.184,8.332
				C41.91,32.851,41.874,34,41.874,34c-0.034,1.105-0.957,1.972-2.061,1.939C38.752,35.906,37.909,35.046,37.874,34z"/>
		</g>
		<g>
			<path style="fill:#FFFFFF;" d="M66.626,34V11.75c0-5.109,4.141-9.25,9.25-9.25l0,0c5.109,0,9.25,4.141,9.25,9.25V34"/>
			<path d="M64.626,34c0,0-0.035-1.149-0.097-3.16c-0.04-2.011-0.139-4.884-0.184-8.332c-0.026-1.724-0.054-3.591-0.083-5.567
				c-0.015-0.988-0.03-2.002-0.045-3.039c-0.005-0.519-0.011-1.043-0.016-1.572l-0.002-0.398l0.003-0.322l0.009-0.2
				c0.016-0.28,0.015-0.506,0.046-0.833l0.16-1.121c0.074-0.346,0.163-0.672,0.249-1.01c0.201-0.662,0.444-1.319,0.763-1.944
				c0.626-1.255,1.488-2.41,2.539-3.381c1.05-0.971,2.29-1.758,3.642-2.293c0.675-0.272,1.38-0.468,2.094-0.611
				c0.36-0.055,0.72-0.123,1.082-0.158l0.545-0.032l0.273-0.014l0.136-0.006l0.068-0.003l0.034-0.002l0.161,0.002l0.861,0.048
				c0.333,0.029,0.782,0.101,1.165,0.161c0.755,0.151,1.431,0.342,2.115,0.615c1.352,0.535,2.592,1.322,3.642,2.293
				c2.109,1.937,3.425,4.632,3.701,7.344c0.113,1.479,0.053,2.358,0.05,3.437c-0.015,1.037-0.031,2.052-0.045,3.039
				c-0.029,1.975-0.057,3.843-0.083,5.567c-0.045,3.448-0.143,6.321-0.184,8.332C87.161,32.851,87.126,34,87.126,34
				c-0.034,1.105-0.957,1.972-2.061,1.939c-1.061-0.033-1.904-0.892-1.939-1.939c0,0-0.035-1.149-0.097-3.16
				c-0.04-2.011-0.139-4.884-0.184-8.332c-0.026-1.724-0.054-3.591-0.083-5.567c-0.015-0.988-0.03-2.002-0.045-3.039
				c-0.027-0.994,0.006-2.238-0.069-2.906c-0.179-1.577-0.959-3.124-2.196-4.24c-0.616-0.558-1.337-1.004-2.117-1.303
				c-0.38-0.152-0.815-0.262-1.185-0.335c-0.185-0.018-0.301-0.058-0.54-0.081l-0.861-0.039c0.246,0.007,0.057,0.003,0.107,0.004
				l-0.02,0.001l-0.039,0.002l-0.079,0.004L75.56,5.017l-0.316,0.012c-0.209,0.018-0.415,0.061-0.623,0.085
				c-0.41,0.081-0.816,0.185-1.205,0.339c-0.779,0.299-1.501,0.745-2.117,1.303c-0.616,0.557-1.125,1.224-1.496,1.947
				c-0.192,0.36-0.332,0.74-0.456,1.121l-0.15,0.575c-0.021,0.163-0.05,0.323-0.085,0.483c-0.027,0.208-0.033,0.52-0.05,0.773
				l-0.011,0.2c-0.003,0.118,0.003-0.133,0.002-0.098l0,0.025l0,0.05l0,0.1l-0.002,0.398c-0.005,0.529-0.011,1.053-0.016,1.572
				c-0.015,1.037-0.031,2.052-0.045,3.039c-0.029,1.975-0.057,3.843-0.083,5.567c-0.045,3.448-0.143,6.321-0.184,8.332
				C68.661,32.851,68.626,34,68.626,34c-0.034,1.105-0.957,1.972-2.061,1.939C65.503,35.906,64.66,35.046,64.626,34z"/>
		</g>
	</g>
</g>
<g id="Layer_1">
</g>
</svg>
