<svg xmlns="http://www.w3.org/2000/svg" viewBox="-2 -2 129 129" preserveAspectRatio="none"><g id="ni" stroke="#000" stroke-miterlimit="10"><path d="M32.5 122.5c-16.57 0-30-13.43-30-30 0-8.284 3.358-15.784 8.787-21.213l58.476-58.36C75.265 6.544 83.41 2.5 92.5 2.5c16.57 0 30 13.43 30 30v60c0 16.57-13.43 30-30 30h-60z" fill="#FFF" stroke-width="5"/><path d="M57.25 57.5C40.75 42.25 40.196 30.3 47 23.5S68.75 15.25 83.25 34M30.75 92c-25-14-26.814-29.93-19-38.25 7.75-8.25 18.25-15 42 7.25" fill="#FFF" stroke-width="5" stroke-linecap="round" stroke-linejoin="round"/><circle cx="91.375" cy="57.875" r="11.375" fill="none" stroke-width="4" stroke-linecap="round" stroke-linejoin="round"/><circle cx="74.249" cy="90.251" r="15.75" fill="none" stroke-width="4" stroke-linecap="round" stroke-linejoin="round"/><path d="M27.455 101.777C36.807 82.513 75.51 37.29 89.137 30.183" fill="#FFF" stroke-width="5" stroke-linecap="round" stroke-linejoin="round"/></g><style>ellipse,polygon,polyline,rect,circle,line,path{stroke-width:2;vector-effect:non-scaling-stroke}</style></svg>