<svg xmlns="http://www.w3.org/2000/svg" viewBox="0 0 80 80" height="168" width="172">
    <title>
        epiku
    </title>
  <g stroke-width="2" fill="#231f20" fill-rule="evenodd">
    <path stroke="#231f20" d="M64.08 62.84q2.18 3.15-.48 6.43-5.78 7.15-14.73 4.24c-1.47-.47-2.34-1.64-3.56-2.52q-.48-.34-.87.11-3.4 4-9.56 3.04c-1.83-.28-3.33-1.95-4.71-3.12q-.45-.38-.87.03c-.98.94-2.08 2.09-3.27 2.71-11.31 5.94-23.12-1-24.46-13.36q-1.06-9.77-.51-15.13 1.22-12.1 8.81-23.58c3.84-5.79 10.4-10.71 16.12-14.46 3.81-2.5 8.35-4.68 13.08-5.08q7.82-.65 11.78.3 15.57 3.74 25.14 17.14c3.71 5.18 3.71 14.04 2.97 20.02-1.14 9.16-6.94 18.1-14.7 22.47q-.5.29-.18.76Zm-30.6-34.62c3.34 4.12 5.7 10.29 7.79 15.25a.98.97 56.3 0 0 1.58.32q5.27-5.23 8.57-11.12.95-1.7 2.63-.73l5.08 2.93a.91.91 0 0 0 1.34-.56q2.54-9.75 4.27-19.79.39-2.32-1.48-3.53-22.88-14.82-42.42 3.42-.42.4-.39.98c.09 1.39.53 2.71.5 4.13q-.13 6.05 1.15 13.01.11.64.68.32c2.77-1.52 6.67-4.28 9.79-4.95q.55-.12.91.32Zm10.3 39.46a1.38 1.38 0 0 1 2.51-.25c3.72 6.47 11.56 6.2 15.65.16a1.93 1.93 0 0 0 .32-1.3q-.17-1.61.08-3.38.09-.68-.53-.4-.98.44-2.07.45-5.63.09-10.67-.72-9.58-1.53-18.27-4.22c-4.53-1.4-10.26-1.63-14.58.03a.83.83 0 0 1-.81-.12q-1.58-1.27 2.3-2.69.86-.31 1.76-.49 5.83-1.15 11.15.47 10.34 3.16 19.51 4.61 4.41.7 9.95.4c2.61-.14 5.26-1.44 7.16-3.16q10.52-9.52 9.74-25.17c-.39-7.58-4-12.39-9.29-17.7a.41.41 0 0 0-.7.3c.02 1.6.04 3.17-.34 4.75q-1.93 8.02-3.6 15.95-.32 1.55-1.06 2.71a1.37 1.36 30.3 0 1-1.81.47l-6.05-3.25a1.04 1.04 0 0 0-1.36.33Q48.21 42.2 42.39 47.8q-.41.39-.89.1-1.23-.74-1.88-2.15-3.53-7.8-6.71-13.89a1.74 1.74 0 0 0-2.35-.73q-3.52 1.87-6.91 4.08c-1.03.67-1.8 1.71-3.02 1.96a.83.82 82.7 0 1-.98-.76l-1.2-18.68q-.1-1.53-1.28-.55c-5.34 4.42-9.2 11.16-11.18 17.66-1.34 4.39-2.95 8.81-2.82 13.38q.22 7.02 1.24 13.42.93 5.75 6.44 9.61c5.98 4.18 14.81 2.41 18.14-4.47a1.42 1.42 0 0 1 2.48-.12q.35.57.5 1.22c.43 2.01 3.43 4.62 5.59 3.97 3.08-.93 4.98-.48 6.22-4.17Z"/>
    <path fill="#fff" d="M32.57 27.9c-3.12.67-7.02 3.43-9.79 4.95q-.57.32-.68-.32-1.28-6.96-1.15-13.01c.03-1.42-.41-2.74-.5-4.13q-.03-.58.39-.98 19.54-18.24 42.42-3.42 1.87 1.21 1.48 3.53-1.73 10.04-4.27 19.79a.91.91 0 0 1-1.34.56l-5.08-2.93q-1.68-.97-2.63.73-3.3 5.89-8.57 11.12a.98.97 56.3 0 1-1.58-.32c-2.09-4.96-4.45-11.13-7.79-15.25q-.36-.44-.91-.32Zm10.37-9.88-6.26-.06a.89.88 1.3 0 0-.9.85l-.03.92a.74.73-2.7 0 0 .83.75q2.94-.36 6 .58.6.18.49.79l-.77 4.17a1.01 1 28.2 0 0 .28.9q.86.89 2.02-.58a1.92 1.89 64.8 0 0 .4-1.14l.03-3.27a.87.87 0 0 1 1.13-.82q2.12.67 4.06 1.36 1.35.49 2.29-.76.5-.65-1.34-1.91-.67-.45-1.45-.61l-3.02-.64a.87.87 0 0 1-.69-.86l.05-5.68q.01-.96-.88-.61l-.47.18a1.42 1.41 81.8 0 0-.9 1.21l-.36 4.76q-.03.48-.51.47Z"/>
    <path fill="#231f20" d="m43.45 17.55.36-4.76a1.42 1.41 81.8 0 1 .9-1.21l.47-.18q.89-.35.88.61l-.05 5.68a.87.87 0 0 0 .69.86l3.02.64q.78.16 1.45.61 1.84 1.26 1.34 1.91-.94 1.25-2.29.76-1.94-.69-4.06-1.36a.87.87 0 0 0-1.13.82L45 25.2a1.92 1.89 64.8 0 1-.4 1.14q-1.16 1.47-2.02.58a1.01 1 28.2 0 1-.28-.9l.77-4.17q.11-.61-.49-.79-3.06-.94-6-.58a.74.73-2.7 0 1-.83-.75l.03-.92a.89.88 1.3 0 1 .9-.85l6.26.06q.48.01.51-.47Z"/>
    <path fill="#fff" d="M43.78 67.68c-1.24 3.69-3.14 3.24-6.22 4.17-2.16.65-5.16-1.96-5.59-3.97q-.15-.65-.5-1.22a1.42 1.42 0 0 0-2.48.12c-3.33 6.88-12.16 8.65-18.14 4.47q-5.51-3.86-6.44-9.61-1.02-6.4-1.24-13.42c-.13-4.57 1.48-8.99 2.82-13.38 1.98-6.5 5.84-13.24 11.18-17.66q1.18-.98 1.28.55l1.2 18.68a.83.82 82.7 0 0 .98.76c1.22-.25 1.99-1.29 3.02-1.96q3.39-2.21 6.91-4.08a1.74 1.74 0 0 1 2.35.73q3.18 6.09 6.71 13.89.65 1.41 1.88 2.15.48.29.89-.1 5.82-5.6 10.38-12.34a1.04 1.04 0 0 1 1.36-.33l6.05 3.25a1.37 1.36 30.3 0 0 1.81-.47q.74-1.16 1.06-2.71 1.67-7.93 3.6-15.95c.38-1.58.36-3.15.34-4.75a.41.41 0 0 1 .7-.3c5.29 5.31 8.9 10.12 9.29 17.7q.78 15.65-9.74 25.17c-1.9 1.72-4.55 3.02-7.16 3.16q-5.54.3-9.95-.4-9.17-1.45-19.51-4.61-5.32-1.62-11.15-.47-.9.18-1.76.49-3.88 1.42-2.3 2.69a.83.83 0 0 0 .81.12c4.32-1.66 10.05-1.43 14.58-.03q8.69 2.69 18.27 4.22 5.04.81 10.67.72 1.09-.01 2.07-.45.62-.28.53.4-.25 1.77-.08 3.38a1.93 1.93 0 0 1-.32 1.3c-4.09 6.04-11.93 6.31-15.65-.16a1.38 1.38 0 0 0-2.51.25Zm3.97-12.69q2.6-.9 3.96-3.08a.51.51 0 0 0-.52-.77q-1.2.2-2.31.74-8.4 4.03-15.73-1.48-.95-.72-1.44.37l-.17.38q-.45.99.47 1.57 7.84 5 15.74 2.27Z"/>
    <path fill="#231f20" d="M47.75 54.99q-7.9 2.73-15.74-2.27-.92-.58-.47-1.57l.17-.38q.49-1.09 1.44-.37 7.33 5.51 15.73 1.48 1.11-.54 2.31-.74a.51.51 0 0 1 .52.77q-1.36 2.18-3.96 3.08Z"/>
  </g>
</svg>
