<?xml version="1.0" encoding="UTF-8"?>
<svg id="Layer_1" xmlns="http://www.w3.org/2000/svg" version="1.1" viewBox="0 0 172 168">
  <!-- Generator: Adobe Illustrator 30.1.0, SVG Export Plug-In . SVG Version: 2.1.1 Build 136)  -->
  <defs>
    <style>
      .st0 {
        fill: #fff;
      }

      .st0, .st1 {
        stroke: #000;
        stroke-linecap: round;
        stroke-linejoin: round;
        stroke-width: 2px;
      }

      .st1 {
        fill: none;
      }
    </style>
  </defs>
  <g id="epiku">
    <path class="st0" d="M133.89,130.35s10.09,13.3-9.6,21.18c-26.82,10.73-23.82-13.38-28.52-8.19-13.27,14.68-31.62,10.99-31.62-1.13,0,11.24-16.82,15.98-25.69,14.96-19.64-2.24-33.62-14.97-33.62-40.15,0,0,.35-25.11,2-33.27,4.58-20.34,11.01-40.09,26.1-54.07,13.52-12.81,37.54-22.19,58.19-24.35,14.8-1.12,29.74,3.15,42.27,10.8,16.55,9.91,29.21,26.55,31.38,45.8,2.86,49.98-30.88,68.41-30.88,68.41Z"/>
    <path class="st1" d="M35.78,120.18s14.09-3.99,18.92-3.95c14.04.12,40.96,9.91,54.78,12.42,6.26,1.14,25.41,1.69,25.41,1.69"/>
    <polyline class="st1" points="41.59 23.53 46.79 74.59 70.51 61.6 89.43 99.15 113.71 70.35 130.09 79.67 143.55 23.13"/>
    <line class="st1" x1="96.49" y1="26.44" x2="92.57" y2="55.81"/>
    <path class="st1" d="M77.07,40.49c8.26-1.06,24.22.63,33.68,4.02"/>
    <path class="st1" d="M70.51,108.61s4.07,4.59,14.82,6.21c13.13,1.98,21.81-4.33,21.81-4.33"/>
  </g>
</svg>