<?xml version="1.0" encoding="iso-8859-1"?>
<!-- Generator: Adobe Illustrator 19.2.0, SVG Export Plug-In . SVG Version: 6.00 Build 0)  -->
<!DOCTYPE svg PUBLIC "-//W3C//DTD SVG 1.1//EN" "http://www.w3.org/Graphics/SVG/1.1/DTD/svg11.dtd">
<svg version="1.1" xmlns="http://www.w3.org/2000/svg" xmlns:xlink="http://www.w3.org/1999/xlink" x="0px" y="0px"
	 viewBox="0 0 124.987 64.999" style="enable-background:new 0 0 124.987 64.999;" xml:space="preserve">
<g id="kalama">
	<g id="kalama_2_">
		<g>
			<g>
				<path style="fill:#FFFFFF;" d="M37.16,47.951c0,6.999-5.674,12.672-12.672,12.672c-10.917,0-22-17.015-22-28.123l0,0
					c0-16.569,13.431-30,30-30h60c16.569,0,30,13.431,30,30l0,0c0,11.463-11.25,28.123-22,28.123
					c-6.999,0-12.672-5.674-12.672-12.672l0,0c0,6.999-5.639,14.549-12.638,14.549s-12.672-5.674-12.672-12.672
					c0,6.999-5.674,12.672-12.672,12.672S37.16,54.95,37.16,47.951z"/>
				<path d="M39.157,48.052l-0.002,1.06c0.008,0.162-0.01,0.371-0.038,0.598l-0.075,0.656c-0.042,0.451-0.129,0.855-0.222,1.253
					c-0.089,0.404-0.174,0.809-0.316,1.198c-0.481,1.585-1.264,3.083-2.276,4.406c-2.003,2.656-4.948,4.649-8.237,5.434
					c-0.405,0.123-0.822,0.184-1.238,0.253c-0.416,0.073-0.833,0.138-1.254,0.152l-0.631,0.039l-0.316,0.018
					c-0.078,0,0.064,0.007-0.195,0l-0.066-0.003l-0.132-0.006l-0.529-0.024l-0.264-0.012l-0.343-0.04
					c-0.972-0.107-1.782-0.286-2.585-0.523c-0.805-0.237-1.575-0.536-2.316-0.875c-2.967-1.371-5.4-3.368-7.525-5.546
					c-2.129-2.186-3.92-4.62-5.456-7.196c-1.523-2.584-2.802-5.311-3.733-8.205c-0.917-2.88-1.574-5.969-1.372-9.225l0.107-2.114
					l0.342-2.352c0.065-0.389,0.111-0.792,0.194-1.17l0.283-1.112c0.204-0.737,0.351-1.491,0.606-2.212
					c0.945-2.916,2.339-5.66,4.004-8.224c1.755-2.506,3.811-4.79,6.142-6.771c2.385-1.909,4.976-3.572,7.785-4.796
					c0.691-0.328,1.427-0.548,2.14-0.824L22.719,1.5c0.364-0.116,0.738-0.198,1.107-0.299c0.741-0.187,1.48-0.391,2.225-0.558
					l2.267-0.348c0.753-0.144,1.518-0.164,2.281-0.203C31.348,0.062,32.155-0.002,32.858,0h4.234h8.468h16.935H79.43h8.468h4.234
					h0.265l0.391,0.012l0.529,0.027l1.057,0.053c0.703,0.035,1.387,0.049,2.207,0.195l2.356,0.358
					c0.752,0.171,1.486,0.372,2.229,0.56c0.369,0.101,0.744,0.181,1.107,0.3l1.078,0.392c0.712,0.277,1.45,0.495,2.14,0.825
					c2.81,1.223,5.399,2.889,7.783,4.799c2.333,1.98,4.384,4.268,6.14,6.773c1.664,2.565,3.055,5.311,4,8.226
					c0.253,0.721,0.402,1.475,0.605,2.212l0.283,1.112c0.08,0.373,0.124,0.754,0.186,1.131l0.337,2.268l0.118,2.288l0.028,0.572
					l0.014,0.286l0.003,0.072c0.002-0.041,0.001,0.137,0,0.142l-0.004,0.132c-0.013,0.363-0.011,0.681-0.037,1.082l-0.107,1.245
					l-0.159,1.163c-0.251,1.537-0.627,3.026-1.089,4.475c-1.891,5.773-4.972,11.015-9.204,15.404
					c-2.126,2.176-4.57,4.158-7.531,5.528c-1.476,0.678-3.091,1.191-4.806,1.392c-0.422,0.073-0.866,0.06-1.298,0.088l-0.163,0.006
					l-0.082,0.003l-0.196-0.006l-0.264-0.017l-0.528-0.034c-0.186-0.015-0.331-0.014-0.55-0.043l-0.678-0.102
					c-0.451-0.071-0.913-0.141-1.303-0.261c-3.29-0.783-6.234-2.776-8.239-5.431c-2.048-2.641-3.045-6.015-2.934-9.272l0-0.005
					h4.001l0,1.479l-0.152,1.463c-0.078,0.482-0.183,0.958-0.277,1.438c-0.109,0.475-0.26,0.937-0.392,1.408
					c-0.31,0.922-0.69,1.821-1.142,2.684c-0.452,0.862-0.961,1.7-1.554,2.486c-0.276,0.407-0.604,0.778-0.93,1.153
					c-0.311,0.386-0.672,0.731-1.043,1.07c-0.354,0.352-0.744,0.672-1.153,0.975c-0.391,0.321-0.812,0.608-1.257,0.869l-0.657,0.402
					l-0.703,0.34l-0.707,0.333l-0.748,0.26l-0.752,0.25l-0.783,0.167l-0.786,0.155l-0.803,0.064l-0.402,0.028l-0.201,0.013
					l-0.101,0.006l-0.05,0.003L75.2,64.999l-0.013,0.001l-0.139-0.003l-0.641-0.038l-0.641-0.038l-0.819-0.118l-0.82-0.133
					l-0.743-0.194c-0.499-0.117-0.984-0.279-1.46-0.47c-0.485-0.165-0.948-0.382-1.403-0.615c-0.466-0.211-0.9-0.481-1.332-0.753
					c-0.867-0.537-1.666-1.18-2.384-1.899c-0.723-0.714-1.361-1.508-1.928-2.347c-0.287-0.416-0.519-0.869-0.775-1.303
					c-0.235-0.447-0.428-0.916-0.638-1.373c-0.174-0.474-0.319-0.958-0.473-1.435l-0.322-1.471l-0.167-1.489l0.003-1.49l0-0.003h4
					l0.003,1.491l-0.167,1.49l-0.322,1.472c-0.154,0.478-0.299,0.962-0.473,1.436c-0.21,0.458-0.404,0.927-0.638,1.374
					c-0.256,0.435-0.488,0.888-0.776,1.304c-0.567,0.839-1.206,1.633-1.93,2.348c-0.718,0.72-1.519,1.363-2.386,1.899
					c-0.432,0.272-0.866,0.542-1.333,0.753c-0.455,0.234-0.919,0.449-1.404,0.615c-0.476,0.192-0.961,0.352-1.461,0.469
					l-0.744,0.193l-0.758,0.125c-0.505,0.096-1.013,0.147-1.525,0.164l-0.383,0.021l-0.192,0.01l-0.096,0.005l-0.048,0.002
					l-0.024,0.001l-0.189-0.005l-0.64-0.048l-0.64-0.048l-0.867-0.158l-0.864-0.182l-0.752-0.251l-0.748-0.26l-0.707-0.333
					l-0.703-0.34l-0.657-0.402l-0.652-0.408l-0.605-0.46c-0.409-0.302-0.798-0.622-1.154-0.973
					c-0.371-0.338-0.733-0.683-1.044-1.068c-0.326-0.374-0.655-0.745-0.932-1.151c-0.594-0.785-1.105-1.622-1.56-2.484
					c-0.454-0.863-0.836-1.761-1.148-2.684c-0.133-0.47-0.285-0.933-0.395-1.408c-0.095-0.481-0.201-0.957-0.279-1.439l-0.153-1.464
					l0-1.481L39.157,48.052z M39.16,47.951l0.127,1.085l0.211,1.078l0.304,1.062c0.113,0.35,0.264,0.691,0.391,1.036
					c0.291,0.679,0.603,1.35,0.985,1.983c0.378,0.632,0.794,1.243,1.266,1.798c0.218,0.294,0.476,0.548,0.727,0.807
					c0.243,0.269,0.507,0.509,0.774,0.743c0.256,0.251,0.533,0.467,0.819,0.667l0.42,0.314l0.444,0.261l0.44,0.266l0.46,0.206
					l0.456,0.212l0.471,0.147l0.467,0.154l0.395,0.07l0.393,0.092l0.641,0.037l0.641,0.037c0.152,0.005-0.195-0.006-0.157-0.005
					l0.008,0l0.016-0.001l0.032-0.002l0.065-0.003l0.129-0.006l0.258-0.011c0.346-0.001,0.689-0.028,1.028-0.091l0.512-0.069
					l0.5-0.125c0.338-0.068,0.667-0.17,0.988-0.296c0.331-0.1,0.644-0.243,0.954-0.396c0.321-0.131,0.614-0.313,0.911-0.492
					c0.595-0.352,1.143-0.781,1.669-1.236c0.524-0.459,0.991-0.981,1.418-1.536c0.218-0.275,0.386-0.583,0.588-0.871
					c0.18-0.301,0.327-0.62,0.498-0.928l0.423-0.971l0.323-1.015l0.218-1.05l0.132-1.075l0.033-0.267
					c0.134-1.092,1.128-1.868,2.219-1.733c1.015,0.125,1.756,1.002,1.748,2l0,0.002l0.132,1.074l0.218,1.049l0.323,1.014l0.423,0.97
					c0.171,0.308,0.318,0.627,0.498,0.928c0.202,0.288,0.371,0.596,0.588,0.87c0.427,0.555,0.893,1.076,1.417,1.535
					c0.525,0.454,1.073,0.883,1.668,1.235c0.296,0.178,0.59,0.361,0.91,0.492c0.31,0.153,0.623,0.296,0.953,0.396
					c0.321,0.125,0.649,0.229,0.987,0.297l0.5,0.126l0.449,0.06l0.45,0.073l0.641,0.027l0.641,0.027
					c-0.249-0.006-0.065-0.002-0.118-0.004l0.007-0.001l0.015-0.001l0.03-0.002l0.06-0.004l0.119-0.008l0.238-0.015l0.478-0.021
					l0.473-0.092l0.476-0.085l0.467-0.153l0.47-0.147l0.455-0.211l0.459-0.206l0.439-0.265c0.299-0.164,0.589-0.352,0.862-0.574
					c0.285-0.201,0.562-0.416,0.817-0.667c0.266-0.234,0.53-0.474,0.772-0.743c0.25-0.259,0.508-0.513,0.725-0.807
					c0.47-0.555,0.885-1.166,1.261-1.799c0.381-0.633,0.691-1.304,0.981-1.984c0.126-0.345,0.276-0.686,0.389-1.037l0.302-1.062
					l0.21-1.079l0.127-1.086l0.029-0.247c0.128-1.093,1.118-1.875,2.211-1.748c1.017,0.119,1.765,0.994,1.761,1.994l0,0.004
					c0.171,2.378,1.024,4.658,2.539,6.421c1.513,1.737,3.531,3.055,5.768,3.502c0.93,0.209,2.347,0.313,3.341,0.174
					c1.089-0.133,2.199-0.479,3.282-0.984c2.174-1.009,4.206-2.629,6.001-4.495c3.577-3.761,6.422-8.465,8.047-13.415
					c0.401-1.237,0.723-2.49,0.934-3.739l0.132-0.934l0.083-0.863c0.024-0.303,0.027-0.692,0.041-1.033l0.004-0.132
					c0.002-0.039-0.001,0.096-0.002,0.01l-0.003-0.061l-0.013-0.243l-0.026-0.485l-0.096-1.94l-0.29-1.918
					c-0.053-0.319-0.086-0.642-0.153-0.957l-0.244-0.938c-0.175-0.622-0.292-1.261-0.508-1.87c-0.8-2.463-1.981-4.781-3.381-6.956
					c-1.492-2.116-3.228-4.055-5.201-5.735c-2.024-1.61-4.21-3.026-6.586-4.06c-0.581-0.283-1.208-0.457-1.809-0.694l-0.91-0.336
					c-0.307-0.101-0.625-0.165-0.937-0.249l-1.876-0.476l-1.83-0.281c-0.57-0.126-1.299-0.147-2.005-0.181l-1.057-0.053
					l-0.529-0.027l-0.132-0.007C92.266,4.995,92.511,5,92.462,5h-0.066h-0.265h-4.234H79.43H62.494H45.559h-8.468h-4.234
					c-0.708-0.001-1.31,0.06-1.971,0.084c-0.647,0.032-1.296,0.042-1.932,0.17l-1.918,0.291c-0.63,0.144-1.252,0.32-1.879,0.476
					c-0.312,0.084-0.629,0.15-0.937,0.248l-0.91,0.336c-0.601,0.237-1.227,0.412-1.81,0.693c-2.375,1.034-4.562,2.448-6.588,4.057
					c-1.972,1.682-3.711,3.617-5.202,5.734c-1.401,2.175-2.586,4.491-3.384,6.955c-0.219,0.608-0.334,1.248-0.509,1.87l-0.244,0.938
					c-0.069,0.31-0.096,0.612-0.148,0.918l-0.288,1.835L5.03,31.718c-0.163,2.394,0.366,4.942,1.171,7.415
					c1.64,4.953,4.487,9.662,8.047,13.437c1.792,1.865,3.815,3.497,5.986,4.503c0.541,0.25,1.087,0.465,1.636,0.629
					c0.548,0.169,1.123,0.281,1.553,0.341l0.181,0.031l0.264,0.013l0.529,0.027l0.132,0.007l0.066,0.003
					c-0.215-0.004-0.029-0.003-0.063-0.004l0.213-0.009l0.426-0.014c0.286,0.005,0.567-0.035,0.847-0.077
					c0.281-0.038,0.566-0.063,0.839-0.144c2.237-0.448,4.254-1.767,5.767-3.505c0.763-0.874,1.342-1.898,1.772-2.982
					c0.128-0.265,0.204-0.547,0.289-0.828c0.092-0.283,0.178-0.563,0.216-0.815l0.085-0.39c0.032-0.121,0.061-0.261,0.074-0.453
					l0.105-1.055L39.16,47.951z"/>
			</g>
		</g>
		<path style="fill:none;stroke:#000000;stroke-width:4;stroke-linecap:round;stroke-linejoin:round;stroke-miterlimit:10;" d="
			M102.064,4.819c1.914,2.622,2.966,5.479,2.966,8.47c0,12.727-19.047,23.044-42.542,23.044S19.945,26.016,19.945,13.289
			c0-3.042,1.088-5.947,3.065-8.605"/>
		<path style="fill:none;stroke:#000000;stroke-width:4;stroke-linecap:round;stroke-linejoin:round;stroke-miterlimit:10;" d="
			M17.891,39.5c11.089,6.506,26.961,9.583,44.597,9.583s33.508-3.077,44.597-9.583"/>
		<g>
			
				<line style="fill:none;stroke:#000000;stroke-width:4;stroke-linecap:round;stroke-linejoin:round;stroke-miterlimit:10;" x1="79.089" y1="11.831" x2="76.023" y2="22.66"/>
			
				<line style="fill:none;stroke:#000000;stroke-width:4;stroke-linecap:round;stroke-linejoin:round;stroke-miterlimit:10;" x1="62.488" y1="11.831" x2="62.488" y2="22.827"/>
			
				<line style="fill:none;stroke:#000000;stroke-width:4;stroke-linecap:round;stroke-linejoin:round;stroke-miterlimit:10;" x1="45.884" y1="11.814" x2="48.646" y2="22.675"/>
		</g>
	</g>
</g>
<g id="Layer_1">
</g>
</svg>
