<svg xmlns="http://www.w3.org/2000/svg" viewBox="-2 -2 129.087 129"><g id="kasi" fill="#FFF" stroke="#000" stroke-linecap="round" stroke-linejoin="round" stroke-miterlimit="10"><path d="M122.5 62.5l-3.002 48c0 5.522-4.477 12-10 12H32.5c-16.57 0-30-13.43-30-30v-90c34.333 9.667 32 0 60 0 33.137 0 60 26.863 60 60z" stroke-width="5"/><path d="M51.014 75.566a50.18 50.18 0 0 1-19.648-6.947M45.68 87.232a50.18 50.18 0 0 1-19.648-6.947M90.595 59.533a46.565 46.565 0 0 1 .624-19.33M78.06 59.98a46.565 46.565 0 0 1 .623-19.33M123.087 60.16A35.048 35.048 0 0 1 115.2 72.2c-13.733 13.733-36 13.733-49.733 0l.067-.067c13.733 13.733 13.733 36 0 49.733" stroke-width="4"/></g><style>path{stroke-width:2;vector-effect:non-scaling-stroke}</style></svg>