<?xml version="1.0" encoding="iso-8859-1"?>
<!-- Generator: Adobe Illustrator 19.2.0, SVG Export Plug-In . SVG Version: 6.00 Build 0)  -->
<!DOCTYPE svg PUBLIC "-//W3C//DTD SVG 1.1//EN" "http://www.w3.org/Graphics/SVG/1.1/DTD/svg11.dtd">
<svg version="1.1" xmlns="http://www.w3.org/2000/svg" xmlns:xlink="http://www.w3.org/1999/xlink" x="0px" y="0px"
	 viewBox="0 0 125 125.801" style="enable-background:new 0 0 125 125.801;" xml:space="preserve">
<g id="ante">
	<g id="ante_1_">
		<path style="fill:#FFFFFF;stroke:#000000;stroke-width:5;stroke-miterlimit:10;" d="M122.5,93.301c0,16.569-13.431,30-30,30h-60
			c-16.569,0-30-13.431-30-30v-30c0-33.137,26.863-60,60-60c28,0,25.667,9.667,60,0C122.5,28.551,122.5,93.301,122.5,93.301z"/>
		<path style="fill:none;stroke:#000000;stroke-width:4;stroke-miterlimit:10;" d="M2.5,89.926
			c0-18.433,14.942-33.375,33.375-33.375c14.958,0,14.625,4.417,33.375,0c0,14.045,0,50.062,0,50.062
			c0,9.216-7.471,16.688-16.688,16.688"/>
		<path style="fill:none;stroke:#000000;stroke-width:4;stroke-miterlimit:10;" d="M21.276,121.419V92.577
			c0-5.814,4.713-10.526,10.526-10.526l0,0c5.814,0,10.526,4.713,10.526,10.526v29.474"/>
		<path style="fill:none;stroke:#000000;stroke-width:4;stroke-linecap:round;stroke-linejoin:round;stroke-miterlimit:10;" d="
			M106.167,70.387c0,5.707-4.627,10.334-10.334,10.334S85.5,76.094,85.5,70.387c0-5.707,2.94-8.552,10.334-13.336
			s10.334-7.628,10.334-13.336s-4.627-10.334-10.334-10.334S85.5,38.008,85.5,43.715"/>
	</g>
</g>
<g id="Layer_1">
</g>
</svg>
