<svg xmlns="http://www.w3.org/2000/svg" viewBox="-2 -2 129 129.099" preserveAspectRatio="none"><g id="pakala"><path fill="#FFF" d="M23.785 64.264L26 103.05l81.5.344L87.5 60z"/><path d="M73.336 95.165c18.333 0 42.164-3.665 42.164 11.67 0 17.998-24.338 15.665-61.004 15.665-37.662 0-51.995-23-51.995-60 0-33.137 26.864-60 60-60h14.837c24.944 0 45.164 17.386 45.164 38.833s-10.496 34.83-37 34.83c0 0-32.332-1.496-42.08-1.496-6.253 0-10.583 4.738-10.583 10.583s4.738 9.583 10.583 9.583c0 0 11.583.332 29.916.332z" fill="#FFF" stroke="#000" stroke-width="5" stroke-miterlimit="10"/><path fill="none" stroke="#000" stroke-width="4" stroke-linecap="round" stroke-linejoin="round" stroke-miterlimit="10" d="M39.843 93.95L50.96 75.023l11.033 19.903 10.85-18.97 10.825 18.888 11.337-19.05 9.706 20.1"/></g><style>ellipse,polygon,polyline,rect,circle,line,path{stroke-width:2;vector-effect:non-scaling-stroke}</style></svg>