<svg xmlns="http://www.w3.org/2000/svg" viewBox="0 0 80 80" width="168" height="168">
  <title>
    monsuta
  </title>
  <g stroke-width="2" fill="none" stroke-linecap="round">
    <path fill="#231f20" stroke="#231f20" d="M21.6 67.46c-2.62 4.69-7.47 6.47-12.68 7.71q-1.97.48-2.76-1.51-1.18-2.96-1.47-5.92-1.82-18.8.97-34.97.8-4.58 3.49-9.85c4.21-8.24 11.19-12.04 19.46-15.28q5.89-2.31 10.5-3.18c12.95-2.47 20.97 4.23 28.3 13.75q3.58 4.64 5.43 10.34 6.71 20.7 4.33 41.15a1.65 1.64 85.9 0 1-1.2 1.4c-4.81 1.32-11.31-1.58-14.65-4.56q-.43-.38-.66.14-1.59 3.7-6.21 5.03c-2.77.8-5.14-2.09-7.02-3.69q-.5-.43-.85.13c-1.01 1.64-4.12 4.65-5.76 1.84q-.84-1.44-1.76-2.78-.39-.58-.84-.04-3.23 3.86-8 5.7a2.3 2.29 52.9 0 1-2.21-.31q-3.2-2.43-5.59-5.19-.47-.54-.82.09Zm23.79-45.51q.89.02.97.95.08.89-.25 1.69-1.9 4.66-7.45 4.73-6.49.08-7.33-5.67-.1-.67.16-1.31.45-1.07 1.52-.78a1.34 1.33.8 0 1 .93.95q.56 2.21 2.18 3.85a.63.63 0 0 0 1.08-.4l1.11-18.44a.44.43-7.5 0 0-.57-.43l-8.53 2.9a1.72 1.72 0 0 0-1.15 1.87q.72 5.12.86 11.29.02.86.72 2.12a1.44 1.44 0 0 1 .16.98q-.43 2.25 1.13 4.18 5.12 6.36 13 4.15c6.79-1.92 4.96-21.04 4.28-26.56q-.16-1.26-1.43-1.26l-4.74.01q-1.22.01-1.17 1.22.18 4.24-.34 8.6c-.38 3.2-.49 6.52-.54 9.71a.49.49 0 0 0 .71.45q3.02-1.47 4.31-4.55a.41.39-77 0 1 .38-.25Zm16.58 36.83q2.34.12.44 1.5l-1.08.78q-.45.32-.09.74 5.12 5.87 11.89 6.53a1.55 1.55 0 0 0 1.7-1.44q1.25-17.87-3.61-34.81-1.75-6.1-4.26-9.8c-3.93-5.8-8.54-11.29-15.18-14.31a.57.57 0 0 0-.8.58c.39 3.34 1.11 6.61 1.04 9.95q-.11 5.53-1.41 11.49c-.23 1.06-.74 2.19-1.32 3.08q-.42.65.34.81 2.8.59 4.97 2.83a2.13 2.12-54.2 0 1 .39 2.42c-1.72 3.57-5.2 6.76-9.45 6.93-6.72.26-19.99.64-23.43-3.83-3.75-4.87 1.72-8.49 6.05-9.45q.59-.13.35-.68l-2.63-6.02q-.2-.46-.61-.73-1.73-1.13-4.02-1.06c-2.79.1-8.93.59-10.69 2.76-1.55 1.92-2.43 5.62-2.6 7.86-.28 3.73-.95 7.36-1.15 11.08q-.73 13.48 1.35 24.7a1.8 1.79 79.1 0 0 2.12 1.44q7.3-1.43 10.64-8.63a.56.56 0 0 0-.6-.78q-1.1.18-2.05-.43-.39-.25-.47-.71-.14-.79.51-1.26.5-.37 1.44-.22c2.63.41 5.29.87 7.92.87q5.41.01 10.73.68c5.43.68 10.7.04 15.9-.89 2.37-.43 5.25-2.1 7.67-1.98Zm-36.5-36.31a.36.36 0 0 0 .5-.32q.14-4.92-.43-9.76a.5.5 0 0 0-.68-.41q-8.75 3.5-12.59 10.79-.3.56.32.39c3.43-.96 9.44-2.19 12.88-.69Zm17.97 15.54a1.59 1.53-53 0 1 .3 2.53q-3.83 3.7-8.37 1.27-1.52-.81-1.62-2.4-.04-.62.41-1.06l.91-.87q.47-.45-.05-.84-5.07-3.77-10.37.28c-2.73 2.08-.08 4.88 2.17 5.49q7.64 2.06 18.07 1.59c2.77-.13 5.36-2.11 6.86-4.17q.62-.86-.09-1.65-2.99-3.29-6.08-1.47-.46.27-1 .29l-1.29.06q-.65.03-.29.57.17.25.44.38Zm-5 2.52a.46.46 0 0 0 .22.02l2.02-.34a.46.46 0 0 0 .12-.87l-2.16-1a.46.46 0 0 0-.44.02l-1.34.85a.46.46 0 0 0 .1.83l1.48.49Zm20 22.16-9.61 1.27a.18.18 0 0 0-.16.2l.01.09a5.17 4.98 82.5 0 0 5.62 4.47l.09-.01a5.17 4.98 82.5 0 0 4.27-5.78l-.01-.08a.18.18 0 0 0-.21-.16Zm-27.85 7.18q3.85-1.71 6.31-5.24.32-.46-.24-.53-7.05-.93-12.73-.89a.84.84 0 0 0-.58 1.44l4.9 4.8a2.13 2.12 55.1 0 0 2.34.42Zm10.14-5.76a.38.38 0 0 0-.3.63q.95 1.13 1.55 2.41.87 1.88 2.07.19.73-1.02.99-2.29a.73.73 0 0 0-.71-.88l-3.6-.06Z"/>
    <path fill="#fff" d="M45.01 22.2q-1.29 3.08-4.31 4.55a.49.49 0 0 1-.71-.45c.05-3.19.16-6.51.54-9.71q.52-4.36.34-8.6-.05-1.21 1.17-1.22l4.74-.01q1.27 0 1.43 1.26c.68 5.52 2.51 24.64-4.28 26.56q-7.88 2.21-13-4.15-1.56-1.93-1.13-4.18a1.44 1.44 0 0 0-.16-.98q-.7-1.26-.72-2.12-.14-6.17-.86-11.29a1.72 1.72 0 0 1 1.15-1.87l8.53-2.9a.44.43-7.5 0 1 .57.43L37.2 25.96a.63.63 0 0 1-1.08.4q-1.62-1.64-2.18-3.85a1.34 1.33.8 0 0-.93-.95q-1.07-.29-1.52.78-.26.64-.16 1.31.84 5.75 7.33 5.67 5.55-.07 7.45-4.73.33-.8.25-1.69-.08-.93-.97-.95a.41.39-77 0 0-.38.25Z"/>
    <path fill="#fff" d="M61.97 58.78c-2.42-.12-5.3 1.55-7.67 1.98-5.2.93-10.47 1.57-15.9.89q-5.32-.67-10.73-.68c-2.63 0-5.29-.46-7.92-.87q-.94-.15-1.44.22-.65.47-.51 1.26.08.46.47.71.95.61 2.05.43a.56.56 0 0 1 .6.78q-3.34 7.2-10.64 8.63a1.8 1.79 79.1 0 1-2.12-1.44q-2.08-11.22-1.35-24.7c.2-3.72.87-7.35 1.15-11.08.17-2.24 1.05-5.94 2.6-7.86 1.76-2.17 7.9-2.66 10.69-2.76q2.29-.07 4.02 1.06.41.27.61.73l2.63 6.02q.24.55-.35.68c-4.33.96-9.8 4.58-6.05 9.45 3.44 4.47 16.71 4.09 23.43 3.83 4.25-.17 7.73-3.36 9.45-6.93a2.13 2.12-54.2 0 0-.39-2.42q-2.17-2.24-4.97-2.83-.76-.16-.34-.81c.58-.89 1.09-2.02 1.32-3.08q1.3-5.96 1.41-11.49c.07-3.34-.65-6.61-1.04-9.95a.57.57 0 0 1 .8-.58c6.64 3.02 11.25 8.51 15.18 14.31q2.51 3.7 4.26 9.8 4.86 16.94 3.61 34.81a1.55 1.55 0 0 1-1.7 1.44q-6.77-.66-11.89-6.53-.36-.42.09-.74l1.08-.78q1.9-1.38-.44-1.5Z"/>
    <path fill="#fff" d="M25.47 22.47c-3.44-1.5-9.45-.27-12.88.69q-.62.17-.32-.39 3.84-7.29 12.59-10.79a.5.5 0 0 1 .68.41q.57 4.84.43 9.76a.36.36 0 0 1-.5.32ZM43.44 38.01q-.27-.13-.44-.38-.36-.54.29-.57l1.29-.06q.54-.02 1-.29 3.09-1.82 6.08 1.47.71.79.09 1.65c-1.5 2.06-4.09 4.04-6.86 4.17q-10.43.47-18.07-1.59c-2.25-.61-4.9-3.41-2.17-5.49q5.3-4.05 10.37-.28.52.39.05.84l-.91.87q-.45.44-.41 1.06.1 1.59 1.62 2.4 4.54 2.43 8.37-1.27a1.59 1.53-53 0 0-.3-2.53Z"/>
    <path fill="#fff" d="m38.44 40.53-1.48-.49a.46.46 0 0 1-.1-.83l1.34-.85a.46.46 0 0 1 .44-.02l2.16 1a.46.46 0 0 1-.12.87l-2.02.34a.46.46 0 0 1-.22-.02ZM58.44 62.69a.18.18 0 0 1 .21.16l.01.08a5.17 4.98 82.5 0 1-4.27 5.78l-.09.01a5.17 4.98 82.5 0 1-5.62-4.47l-.01-.09a.18.18 0 0 1 .16-.2l9.61-1.27ZM30.59 69.87a2.13 2.12 55.1 0 1-2.34-.42l-4.9-4.8a.84.84 0 0 1 .58-1.44q5.68-.04 12.73.89.56.07.24.53-2.46 3.53-6.31 5.24ZM40.73 64.11l3.6.06a.73.73 0 0 1 .71.88q-.26 1.27-.99 2.29-1.2 1.69-2.07-.19-.6-1.28-1.55-2.41a.38.38 0 0 1 .3-.63Z"/>
  </g>
</svg>
