<svg xmlns="http://www.w3.org/2000/svg" viewBox="-2 -2 129 129.25"><g id="sama" stroke="#000" stroke-linecap="round" stroke-linejoin="round" stroke-miterlimit="10"><path d="M73.57 6.83C81.53 5.402 88 3 95.696 3c10.943 0 16.46 6.21 16.46 13.874 0 7.663-5.885 13.875-16.46 13.875-7.41 0-12.066-3.41-20.263-5.45M49.063 25.42c-7.953 2.05-12.62 5.33-19.76 5.33-10.392 0-16.46-6.213-16.46-13.876C12.842 9.21 20.657 3 29.302 3c6.115 0 13.29 2.43 21.85 3.854" fill="#FFF" stroke-width="5"/><path d="M24.877 15.97s4.96 2.27 10.972 2.27M100.123 15.945s-5.073 2.32-11.222 2.32" fill="#FFF" stroke-width="4"/><path d="M92.5 26.75H81.25c0-13.393-8.396-24.25-18.75-24.25S43.75 13.357 43.75 26.75H32.5c-16.57 0-30 13.43-30 30v6c0 33.137 26.863 60 60 60s60-26.863 60-60v-6c0-16.57-13.43-30-30-30z" fill="#FFF" stroke-width="5"/><path d="M80.83 5.16c4.96 4.796 8.045 11.52 8.045 18.965 0 .99-.054 1.965-.16 2.926M36.277 26.97a26.73 26.73 0 0 1-.152-2.845 26.293 26.293 0 0 1 7.725-18.65" fill="none" stroke-width="4"/></g><style>path{stroke-width:2;vector-effect:non-scaling-stroke}</style></svg>