<?xml version="1.0" encoding="UTF-8"?>
<svg id="Layer_1" xmlns="http://www.w3.org/2000/svg" version="1.1" viewBox="0 0 168 168">
  <!-- Generator: Adobe Illustrator 30.1.0, SVG Export Plug-In . SVG Version: 2.1.1 Build 136)  -->
  <defs>
    <style>
      .st0 {
        stroke: #231f20;
      }

      .st0, .st1, .st2, .st3 {
        stroke-width: 2px;
      }

      .st0, .st1, .st3 {
        fill: none;
      }

      .st0, .st2, .st3 {
        stroke-miterlimit: 10;
      }

      .st1 {
        stroke-linecap: round;
        stroke-linejoin: round;
      }

      .st1, .st2, .st3 {
        stroke: #000;
      }

      .st2 {
        fill: #fff;
      }
    </style>
  </defs>
  <g id="jasima">
    <path class="st1" d="M31.96,143.7C13.67,125.86,1.78,80.7,6.45,50.23,10.19,25.83,22.55,8.59,44.14,6.05c36.32-4.27,37.69,23.65,37.69,34.77,0-11.13.46-36.63,37.69-34.77,20.08,1,35.49,19.45,39.25,44.09s6.78,69.77-13.56,92.27c-28.94,32.01-60.33-6.23-60.33-6.23,0,0-19.87,39.78-52.93,7.51Z"/>
    <path class="st3" d="M12.37,107.76c7.44-7.44,26.06-20.44,37.77-8.72,6.11,6.11,10.05,13.64,11.29,20.14"/>
    <path class="st1" d="M61.44,119.17s-8.27,9.71-17.6,9.07-13.2-8.39-13.2-8.39c0,0,5.27-12.71,14.6-12.07,9.33.64,16.2,11.39,16.2,11.39h0Z"/>
    <path class="st3" d="M103.1,124.18c1.25-6.5,7.27-21.42,13.38-27.52,11.72-11.72,34.86,3.66,42.3,11.1"/>
    <path class="st1" d="M103.1,124.18s6.86-8.75,16.2-9.39c9.33-.64,15.6,9.07,15.6,9.07,0,0-4.86,8.75-14.2,9.39s-17.6-9.07-17.6-9.07h0Z"/>
    <circle class="st3" cx="35.04" cy="44.47" r="8.39"/>
    <circle class="st3" cx="128.07" cy="40.85" r="8.39"/>
    <circle class="st2" cx="81.82" cy="42.02" r="20.27"/>
    <line class="st0" x1="41.43" y1="108.29" x2="47.38" y2="128.01"/>
    <line class="st0" x1="116.47" y1="114.76" x2="116.47" y2="133.27"/>
  </g>
</svg>