<?xml version="1.0" encoding="UTF-8"?>
<svg id="Layer_1" xmlns="http://www.w3.org/2000/svg" version="1.1" viewBox="0 0 168 168">
  <!-- Generator: Adobe Illustrator 30.1.0, SVG Export Plug-In . SVG Version: 2.1.1 Build 136)  -->
  <defs>
    <style>
      .st0 {
        fill: #fff;
      }

      .st0, .st1 {
        stroke: #000;
        stroke-miterlimit: 10;
        stroke-width: 2px;
      }

      .st1 {
        fill: none;
      }
    </style>
  </defs>
  <g id="kokosila">
    <path class="st0" d="M33.42,136.44s-4.15,17.35,2.47,21.58c8.97,5.74,19.04-9.02,19.04-9.02,0,0,3.08,13.65,14.68,14.39,9.63.61,16.21-12.5,16.21-12.5,0,0,9.44,10.34,16.83,7.59,9.22-3.43,3.85-14.76,3.85-14.76,0,0,10.51,17.32,21.73,4.84,10.04-11.17-4.68-22.72-3.4-21.48"/>
    <path class="st1" d="M63.52,69.92c0,4.15,9.02,8.85,12.8,10.54,5.34,2.39,17.29,3.58,23.14,3.53,6.9-.05,21.1-1.4,27.23-4.58,5.79-3.01,13.98-14.16,16.59-20.14s6.83-14.07,2.6-25.31c-5.61-14.9-30.64-31.4-55.13-31.07-12.88.17-40.32,5.98-49.18,15.32-12.28,12.95-25.26,48.61-26.06,66.44s3.16,37.67,15.26,49.52c7.51,7.37,28.33,15.79,38.84,16.21,9.37.37,28.69-2.16,36.89-6.7,6.89-3.81,17.76-16.19,21.24-23.26,2.71-5.51,4.38-18.14,3.27-24.18-.78-4.26-3.27-11.62-5.89-15.91"/>
    <path class="st1" d="M78.11,81.92s-1.98,16.84,6.49,16.51c7.2-.28,9.18-13.76,9.18-13.76h8.33s1.28,14.76,8.75,13.76c6.1-.82,7.94-15.68,7.94-15.68"/>
    <path class="st1" d="M40.14,36.89s5.92-10.02,14.4-6.2c6.27,2.82-14.57,18.72-11.32,24.55,2.99,5.36,13.67-1.69,13.67-1.69"/>
    <path class="st1" d="M66.25,131.05s-1.55-32.57-19.62-41.37-30.56,10.35-30.56,10.35"/>
    <line class="st1" x1="19.1" y1="114.23" x2="60.52" y2="106.04"/>
    <line class="st1" x1="26.78" y1="129.61" x2="64.65" y2="119.51"/>
  </g>
</svg>