<?xml version="1.0" encoding="iso-8859-1"?>
<!-- Generator: Adobe Illustrator 19.2.0, SVG Export Plug-In . SVG Version: 6.00 Build 0)  -->
<!DOCTYPE svg PUBLIC "-//W3C//DTD SVG 1.1//EN" "http://www.w3.org/Graphics/SVG/1.1/DTD/svg11.dtd">
<svg version="1.1" xmlns="http://www.w3.org/2000/svg" xmlns:xlink="http://www.w3.org/1999/xlink" x="0px" y="0px"
	 viewBox="-2 -2 273 157" preserveAspectRatio="none" style="enable-background:new 0 0 271.022 155.35;" xml:space="preserve">
<g id="e-wide">
	<g id="e-wide_1_">
		<path style="fill:#FFFFFF;stroke:#000000;stroke-width:5;stroke-miterlimit:10;" d="M239.741,115.889
			c20.688,0,24.451,8.274,24.451,18.481c0,10.206-3.763,18.481-24.451,18.481h-50.112"/>
		<path style="fill:#FFFFFF;stroke:#000000;stroke-width:5;stroke-miterlimit:10;" d="M241.74,91.77
			c20.688,0,24.451,8.274,24.451,18.481s-3.763,18.481-24.451,18.481h-50.112"/>
		<path style="fill:#FFFFFF;stroke:#000000;stroke-width:5;stroke-miterlimit:10;" d="M241.74,67.652
			c20.688,0,24.451,8.274,24.451,18.481s-3.763,18.481-24.451,18.481h-50.112"/>
		<path style="fill:#FFFFFF;stroke:#000000;stroke-width:5;stroke-miterlimit:10;" d="M241.74,43.533
			c20.688,0,24.451,8.274,24.451,18.481s-3.763,18.481-24.451,18.481h-50.112"/>
		<path style="fill:#FFFFFF;stroke:#000000;stroke-width:5;stroke-miterlimit:10;" d="M151.671,152.85h63.937
			c16.551,0,25.965-8.414,25.965-18.794V96.469v12.529V71.41c0-8.143,3.939-17.04,6.801-18.835
			c2.862-1.795,20.148-6.223,20.148-18.961v-12.32c0-10.38-0.409-18.794-16.959-18.794h-71.11h1.852H38.42
			C5.319,2.5,2.5,19.329,2.5,40.088v75.175c0,20.759,2.819,37.588,35.92,37.588h143.885"/>
	</g>
</g>
<style>ellipse,polygon,polyline,rect,circle,line,path{stroke-width:2;vector-effect:non-scaling-stroke}</style>
</svg>
