<?xml version="1.0" encoding="UTF-8"?>
<svg id="Layer_1" xmlns="http://www.w3.org/2000/svg" version="1.1" viewBox="0 0 168 168">
  <!-- Generator: Adobe Illustrator 30.1.0, SVG Export Plug-In . SVG Version: 2.1.1 Build 136)  -->
  <defs>
    <style>
      .st0 {
        stroke-linecap: round;
        stroke-linejoin: round;
      }

      .st0, .st1 {
        fill: none;
        stroke: #000;
        stroke-width: 2px;
      }

      .st1 {
        stroke-miterlimit: 10;
      }
    </style>
  </defs>
  <g id="leko">
    <path class="st1" d="M160.41,124.19c0,21.25-17.22,38.47-38.47,38.47H45.01c-21.25,0-38.47-17.22-38.47-38.47V47.26C6.54,26.01,23.76,8.79,45.01,8.79h76.93c21.25,0,38.47,17.22,38.47,38.47v76.93Z"/>
    <path class="st1" d="M131.29,85.3c0,2.53-1.33,4.58-2.98,4.58h-44.64c-1.64,0-2.98-2.05-2.98-4.58v-45.8c0-2.53,1.33-4.58,2.98-4.58h44.64c1.64,0,2.98,2.05,2.98,4.58v45.8Z"/>
    <line class="st0" x1="89.02" y1="63.53" x2="123.14" y2="63.53"/>
    <line class="st0" x1="106.08" y1="83.03" x2="106.08" y2="44.04"/>
    <polyline class="st0" points="63.96 28.41 64.78 107.78 138.44 107.78"/>
  </g>
</svg>