<?xml version="1.0" encoding="iso-8859-1"?>
<!-- Generator: Adobe Illustrator 19.2.0, SVG Export Plug-In . SVG Version: 6.00 Build 0)  -->
<!DOCTYPE svg PUBLIC "-//W3C//DTD SVG 1.1//EN" "http://www.w3.org/Graphics/SVG/1.1/DTD/svg11.dtd">
<svg version="1.1" xmlns="http://www.w3.org/2000/svg" xmlns:xlink="http://www.w3.org/1999/xlink" x="0px" y="0px"
	 viewBox="0 0 129.635 125.523" style="enable-background:new 0 0 129.635 125.523;" xml:space="preserve">
<g id="jaki">
	<g id="jaki_1_">
		<g>
			<path style="fill:#FFFFFF;" d="M59.175,82.009c3.618,0,6.552,2.595,6.552,5.796c0,1.6-0.733,3.049-1.919,4.098l-12.771,11.274
				c-1.201,1.234-2.98,2.015-4.965,2.015c-3.618,0-6.552-2.595-6.552-5.796V87.805c0-3.201,2.933-5.796,6.552-5.796H59.175z"/>
			<path d="M59.265,79.996c0.524-0.007,1.637,0.103,2.387,0.313c0.81,0.225,1.597,0.555,2.331,0.994
				c1.455,0.886,2.712,2.247,3.36,3.963c0.321,0.861,0.478,1.759,0.474,2.708c-0.007,0.886-0.209,1.829-0.553,2.665
				c-0.35,0.843-0.848,1.608-1.443,2.262c-0.678,0.713-1.094,1.021-1.595,1.489l-11.718,10.452l0.121-0.115
				c-0.985,1.009-2.188,1.751-3.475,2.19c-0.643,0.222-1.308,0.372-1.977,0.451c-0.335,0.041-0.67,0.061-1.006,0.066l-0.063,0.001
				l-0.157-0.002l-0.097-0.004l-0.194-0.008l-0.4-0.019c-0.781-0.075-1.442-0.203-2.082-0.417c-0.652-0.195-1.273-0.498-1.871-0.836
				c-1.179-0.71-2.233-1.703-2.963-2.954c-0.365-0.624-0.642-1.31-0.822-2.025c-0.08-0.358-0.148-0.725-0.179-1.091
				c-0.025-0.37-0.041-0.765-0.033-0.978l0.014-3.1l0.028-6.201l0.007-1.55l0.002-0.388l0.012-0.317l0.012-0.193
				c-0.001-0.188,0.072-0.687,0.15-1.085c0.328-1.458,1.069-2.735,2.052-3.725c0.983-0.986,2.174-1.716,3.45-2.13
				c0.635-0.219,1.292-0.353,1.951-0.426c0.329-0.05,0.66-0.04,0.99-0.058l0.795,0.003c4.134,0.017,8.267,0.097,12.401,0.064
				L59.265,79.996z M59.175,84.023c-4.134-0.033-8.267,0.046-12.401,0.064l-0.755,0.009c-0.185,0.02-0.374,0.006-0.556,0.043
				c-0.366,0.047-0.728,0.125-1.067,0.251c-0.689,0.23-1.293,0.637-1.762,1.119c-0.468,0.479-0.769,1.081-0.889,1.639
				c-0.107,0.41-0.051,1.652-0.058,2.651L41.715,96l0.014,3.1c-0.005,0.304,0.016,0.424,0.021,0.57
				c0.013,0.147,0.046,0.292,0.076,0.436c0.079,0.285,0.191,0.566,0.351,0.833c0.317,0.533,0.814,1.003,1.403,1.354
				c0.305,0.16,0.616,0.321,0.958,0.413c0.34,0.118,0.705,0.159,0.948,0.208l0.638,0.032c0.181-0.002,0.362-0.01,0.541-0.031
				c0.357-0.039,0.707-0.115,1.042-0.227c0.671-0.219,1.272-0.597,1.738-1.061l0.077-0.077l0.044-0.039L61.391,91.18
				c0.466-0.413,1.081-0.919,1.302-1.158c0.291-0.309,0.52-0.654,0.68-1.016c0.154-0.372,0.248-0.728,0.258-1.151
				c0.001-0.36-0.052-0.77-0.183-1.138c-0.263-0.749-0.847-1.441-1.61-1.927c-0.386-0.238-0.811-0.426-1.258-0.563
				c-0.517-0.122-0.71-0.175-1.494-0.204L59.175,84.023z"/>
		</g>
		<g>
			<path style="fill:#FFFFFF;" d="M78.43,90.763c4.03-0.351,7.548,2.254,7.859,5.819c0.155,1.782-0.521,3.467-1.739,4.75
				l-13.129,13.796c-1.218,1.49-3.124,2.533-5.335,2.726c-4.03,0.351-7.548-2.254-7.859-5.819l-1.125-12.909
				c-0.311-3.565,2.704-6.739,6.734-7.091L78.43,90.763z"/>
			<path d="M78.346,88.754c0.599-0.058,1.793-0.042,2.634,0.115c0.902,0.169,1.788,0.453,2.626,0.861
				c1.663,0.826,3.152,2.183,4.011,3.975c0.428,0.899,0.681,1.856,0.765,2.877c0.075,0.96-0.054,1.994-0.348,2.93
				c-0.299,0.943-0.765,1.817-1.348,2.581c-0.661,0.829-1.106,1.225-1.616,1.792l-12.042,12.772l0.11-0.125
				c-0.971,1.184-2.205,2.102-3.561,2.701c-0.677,0.301-1.384,0.527-2.103,0.676c-0.359,0.076-0.722,0.129-1.086,0.167l-0.068,0.008
				l-0.162,0.012L66.05,120.1l-0.216,0.01l-0.446,0.018c-0.845-0.012-1.576-0.076-2.292-0.251c-0.727-0.15-1.429-0.42-2.11-0.73
				c-1.346-0.658-2.582-1.634-3.488-2.917c-0.454-0.64-0.817-1.354-1.078-2.109c-0.12-0.379-0.228-0.768-0.296-1.16
				c-0.061-0.397-0.116-0.82-0.129-1.063l-0.287-3.454l-0.574-6.908l-0.143-1.727l-0.036-0.432l-0.016-0.34l-0.006-0.217
				c-0.021-0.217,0.012-0.752,0.058-1.186c0.217-1.603,0.896-3.057,1.868-4.222c0.973-1.162,2.195-2.069,3.544-2.641
				c0.669-0.299,1.371-0.507,2.082-0.649c0.353-0.086,0.715-0.107,1.072-0.157l0.884-0.075l6.91-0.553
				c2.303-0.192,4.608-0.35,6.908-0.577L78.346,88.754z M78.605,92.766c-2.304,0.174-4.602,0.417-6.904,0.626l-6.901,0.65
				l-0.842,0.083c-0.212,0.041-0.433,0.045-0.64,0.105c-0.42,0.091-0.832,0.217-1.214,0.398c-0.778,0.337-1.443,0.87-1.945,1.483
				c-0.501,0.611-0.8,1.351-0.887,2.037c-0.087,0.538,0.102,1.893,0.188,3.01l0.63,6.903l0.315,3.452
				c0.023,0.334,0.06,0.481,0.082,0.656c0.031,0.175,0.085,0.346,0.136,0.516c0.124,0.334,0.287,0.659,0.505,0.96
				c0.432,0.603,1.067,1.106,1.792,1.457c0.373,0.157,0.753,0.313,1.163,0.387c0.408,0.1,0.835,0.125,1.143,0.151l0.73-0.027
				c0.211-0.021,0.421-0.049,0.627-0.091c0.412-0.082,0.813-0.207,1.193-0.372c0.762-0.326,1.428-0.829,1.93-1.426l0.068-0.081
				l0.043-0.044l12.16-12.66c0.481-0.508,1.105-1.119,1.353-1.437c0.31-0.394,0.546-0.827,0.697-1.276
				c0.144-0.457,0.218-0.899,0.185-1.399c-0.036-0.436-0.144-0.916-0.34-1.342c-0.393-0.865-1.155-1.615-2.095-2.103
				c-0.475-0.238-0.989-0.413-1.522-0.525c-0.602-0.09-0.877-0.128-1.738-0.085L78.605,92.766z"/>
		</g>
		<g>
			<path style="fill:#FFFFFF;" d="M107.777,87.989c5.383-0.153,8.802,1.709,8.937,6.471c0.167,5.873-20.148,25.363-20.148,25.363
				c-1.735,1.886-4.348,3.123-7.301,3.207c-5.383,0.153-9.856-3.583-9.991-8.345l-0.49-17.243c-0.135-4.762,4.119-8.745,9.501-8.898
				L107.777,87.989z"/>
			<path d="M107.768,85.963c0,0,0.116-0.002,0.342-0.006c0.242,0.002,0.517-0.023,1.056,0.002c1.03,0.041,2.448,0.089,4.395,0.766
				c0.955,0.361,2.052,0.926,3.029,1.908c0.977,0.967,1.737,2.355,2.038,3.792c0.063,0.354,0.15,0.725,0.183,1.085l0.046,0.544
				l0.022,0.276l0.003,0.035l0.003,0.145l-0.001,0.056l-0.001,0.113c-0.042,1.102-0.313,1.822-0.586,2.569
				c-0.576,1.43-1.315,2.666-2.119,3.914c-1.622,2.469-3.541,4.898-5.645,7.386c-2.107,2.483-4.402,5.011-6.826,7.572
				c-1.209,1.284-2.471,2.554-3.754,3.839c-0.626,0.621-1.255,1.246-1.888,1.874c-0.877,0.872-1.757,1.524-2.773,2.083
				c-4.007,2.209-9.097,2.161-13.1-0.27c-1.991-1.196-3.68-3.045-4.604-5.302c-0.454-1.128-0.716-2.34-0.76-3.555
				c-0.022-0.925-0.043-1.848-0.065-2.767c-0.07-3.665-0.138-7.271-0.205-10.761c-0.016-0.873-0.033-1.738-0.049-2.595l-0.012-0.641
				l-0.006-0.319l-0.003-0.159l0.004-0.29l0.025-0.634c0.001-0.19,0.062-0.574,0.099-0.85c0.074-0.635,0.24-1.099,0.382-1.629
				c0.193-0.497,0.367-1.002,0.625-1.458c0.467-0.939,1.088-1.763,1.768-2.489c1.373-1.447,3.036-2.464,4.754-3.056
				c0.853-0.318,1.729-0.501,2.588-0.623c0.429-0.078,0.86-0.074,1.283-0.11c0.422-0.024,0.727-0.018,1.091-0.028
				c5.584-0.102,10.238-0.186,13.495-0.245c3.256-0.109,5.117-0.171,5.117-0.171L107.768,85.963z M107.834,90.014
				c0,0-1.861,0.043-5.118,0.12c-3.256,0.126-7.906,0.305-13.487,0.521c-0.334,0.016-0.735,0.021-1.023,0.048
				c-0.285,0.037-0.579,0.028-0.864,0.093c-0.573,0.096-1.156,0.224-1.707,0.45c-1.121,0.408-2.164,1.096-2.975,1.991
				c-0.401,0.449-0.759,0.941-1.006,1.481c-0.15,0.26-0.223,0.548-0.336,0.822c-0.057,0.274-0.169,0.606-0.173,0.811
				c-0.01,0.141-0.051,0.17-0.051,0.403l-0.012,0.635c0.014,0.381,0.029,0.763,0.043,1.147c0.033,0.857,0.065,1.721,0.098,2.593
				c0.132,3.488,0.268,7.093,0.406,10.755c0.032,0.913,0.063,1.829,0.095,2.748c0.033,0.632,0.174,1.248,0.412,1.839
				c0.492,1.173,1.426,2.233,2.628,2.936c2.382,1.446,5.72,1.482,8.14,0.149c0.598-0.311,1.19-0.77,1.605-1.172
				c0.66-0.647,1.317-1.291,1.97-1.932c1.255-1.259,2.495-2.503,3.715-3.727c2.424-2.462,4.714-4.889,6.794-7.245
				c2.077-2.353,3.967-4.64,5.461-6.809c0.737-1.077,1.384-2.147,1.778-3.073c0.189-0.433,0.31-0.913,0.31-1.02l0.004-0.113
				l0.002-0.056c0,0.213-0.001,0.047-0.001,0.089l-0.002-0.021l-0.011-0.17l-0.019-0.337c-0.012-0.223-0.064-0.415-0.087-0.621
				c-0.313-1.554-1.212-2.248-2.348-2.728c-1.126-0.436-2.311-0.546-3.013-0.58c-0.332-0.033-0.727-0.018-0.936-0.024
				c-0.225-0.001-0.342-0.002-0.342-0.002L107.834,90.014z"/>
		</g>
		<g>
			<path style="fill:#FFFFFF;" d="M40.77,82.759c12.136,10.527,29.09,23,46.417,23h9.833c16.569,0,30-18.181,30-34.75V32.676
				c0-16.569-13.431-30-30-30L67.186,3.009c-33.045,0-59.833,26.788-59.833,59.833v7.333c0,10.585,8.581,19.167,19.167,19.167
				s19.167-4.667,19.167-31.333"/>
			<path d="M42.069,81.239c0,0,0.302,0.251,0.887,0.737c0.585,0.484,1.454,1.219,2.582,2.114c2.254,1.811,5.616,4.462,10.088,7.459
				c2.22,1.529,4.763,3.068,7.569,4.652c2.832,1.527,5.966,3.022,9.407,4.293c3.434,1.281,7.209,2.271,11.219,2.638
				c1.001,0.097,2.016,0.093,3.043,0.15c1.054,0.026,2.201,0,3.317,0.003c2.198-0.008,4.447-0.017,6.743-0.025
				c0.587-0.041,1.177-0.081,1.771-0.123c0.576-0.052,1.245-0.047,1.687-0.19c0.987-0.248,1.962-0.332,3.019-0.764
				c0.522-0.176,1.046-0.353,1.572-0.53c0.505-0.242,1.013-0.485,1.522-0.729c1.046-0.43,1.987-1.115,2.981-1.707
				c3.891-2.558,7.225-6.315,9.85-10.614c0.357-0.522,0.632-1.095,0.926-1.658c0.292-0.565,0.586-1.131,0.88-1.7
				c0.248-0.59,0.497-1.181,0.747-1.774l0.378-0.89l0.304-0.919c0.202-0.614,0.405-1.23,0.608-1.847
				c0.174-0.625,0.303-1.262,0.459-1.894c0.358-1.26,0.447-2.564,0.662-3.858c0.066-0.65,0.069-1.303,0.11-1.956l0.05-0.982
				c0.012-0.336,0.003-0.709,0.005-1.062c-0.002-1.431-0.004-2.869-0.006-4.315c-0.004-2.891-0.008-5.809-0.011-8.751
				c-0.008-5.885-0.015-11.869-0.023-17.926c-0.002-1.514-0.004-3.033-0.006-4.556l-0.001-1.143l-0.001-0.572
				c0.001,0.011-0.003-0.228,0.002-0.011l-0.007-0.143l-0.015-0.286l-0.119-2.291c-0.051-0.749-0.203-1.339-0.291-2.018
				c-0.056-0.33-0.089-0.657-0.16-0.992l-0.266-1.017c-0.291-1.377-0.827-2.68-1.305-4.005c-2.255-5.153-6.056-9.729-10.963-12.657
				c-2.421-1.493-5.081-2.635-7.87-3.252c-0.347-0.081-0.687-0.196-1.04-0.251l-1.06-0.158c-0.708-0.089-1.407-0.262-2.126-0.258
				l-2.144-0.107l-2.322,0.028c-6.277,0.071-12.555,0.142-18.807,0.213c-3.114,0.034-6.221,0.067-9.32,0.101l-2.331,0.056
				l-2.173,0.161c-0.716,0.036-1.457,0.148-2.19,0.237c-0.733,0.094-1.469,0.169-2.193,0.315
				c-11.671,1.904-22.425,7.56-30.471,15.43C19.132,29.743,13.77,39.713,11.44,49.757c-0.623,2.506-0.98,5.034-1.257,7.526
				c-0.083,1.252-0.229,2.491-0.231,3.728c-0.017,0.618-0.033,1.234-0.05,1.847c-0.001,0.64-0.002,1.277-0.002,1.912
				c-0.002,1.269-0.003,2.527-0.005,3.775l-0.001,0.933l-0.001,0.465l0,0.232c-0.005-0.218,0.002,0.006,0.002-0.013L9.9,70.277
				c0.035,0.607,0.05,1.255,0.101,1.82c0.076,0.485,0.152,0.967,0.228,1.448c0.13,0.509,0.26,1.016,0.389,1.521
				c0.176,0.49,0.352,0.977,0.527,1.462c0.2,0.475,0.442,0.929,0.655,1.393c1.906,3.63,5.082,6.317,8.527,7.709
				c1.719,0.726,3.531,1.063,5.292,1.164l0.66,0.036l0.164,0.01c-0.007,0.002,0.133,0.002,0.004,0.006l0.094-0.002l0.376-0.009
				c0.5-0.012,0.997-0.023,1.49-0.035c0.839-0.095,1.666-0.13,2.486-0.318c0.838-0.114,1.573-0.396,2.322-0.618
				c0.697-0.313,1.403-0.583,2.003-0.998c0.659-0.327,1.165-0.853,1.731-1.278c0.266-0.235,0.486-0.524,0.732-0.777
				c0.228-0.273,0.507-0.488,0.689-0.803c1.675-2.287,2.799-4.907,3.45-7.418c0.095-0.309,0.188-0.614,0.28-0.914
				c0.07-0.311,0.138-0.618,0.206-0.921c0.136-0.606,0.269-1.195,0.398-1.766c0.252-1.146,0.362-2.26,0.554-3.276
				c0.197-1.015,0.256-1.985,0.365-2.862c0.092-0.881,0.196-1.679,0.253-2.4c0.084-1.446,0.166-2.556,0.225-3.304
				c0.056-0.749,0.085-1.136,0.085-1.136l0.005-0.065c0.062-0.826,0.782-1.446,1.608-1.383c0.77,0.058,1.36,0.694,1.387,1.448
				c0,0,0.013,0.398,0.037,1.169c0.027,0.771,0.062,1.917,0.085,3.413c-0.094,2.996-0.001,7.423-1.307,13.09
				c-0.181,0.706-0.353,1.432-0.559,2.175c-0.26,0.738-0.527,1.494-0.8,2.268c-0.268,0.776-0.702,1.539-1.066,2.335
				c-0.177,0.401-0.413,0.786-0.673,1.17c-0.252,0.386-0.506,0.775-0.763,1.169c-2.109,3.121-6.019,5.796-10.288,6.52
				c-1.047,0.247-2.165,0.333-3.287,0.45c-0.493,0.018-0.99,0.037-1.491,0.056l-0.376,0.014l-0.094,0.003
				c-0.192,0.002-0.114-0.002-0.184-0.003l-0.213-0.01l-0.856-0.041c-2.284-0.123-4.647-0.569-6.894-1.501
				c-4.5-1.802-8.63-5.281-11.129-10.01C7.042,79.675,6.731,79.08,6.47,78.46c-0.232-0.632-0.475-1.265-0.692-1.909
				c-0.17-0.659-0.341-1.321-0.513-1.987c-0.109-0.719-0.218-1.441-0.327-2.166c-0.057-0.654-0.07-1.238-0.108-1.864l-0.015-0.36
				l0-0.232l-0.001-0.465l-0.001-0.933c-0.002-1.247-0.003-2.505-0.005-3.775c-0.001-0.635-0.002-1.272-0.002-1.912
				c0.016-0.666,0.031-1.335,0.047-2.007c0.002-1.345,0.152-2.695,0.242-4.058c0.291-2.715,0.678-5.47,1.348-8.204
				c2.513-10.96,8.333-21.85,17.146-30.431C32.337,9.552,44.071,3.335,56.83,1.221c0.792-0.159,1.595-0.246,2.397-0.351
				c0.803-0.1,1.596-0.22,2.429-0.268l2.47-0.183l2.331-0.062c3.124-0.042,6.256-0.084,9.395-0.127
				c6.253-0.069,12.53-0.138,18.807-0.208L97.046,0l2.558,0.13c0.856,0.009,1.695,0.2,2.541,0.313l1.266,0.197
				c0.421,0.07,0.83,0.201,1.245,0.299c3.333,0.756,6.515,2.124,9.403,3.913c2.881,1.795,5.55,3.967,7.714,6.575
				c2.187,2.582,3.979,5.476,5.32,8.562c0.58,1.578,1.199,3.141,1.551,4.782l0.308,1.216c0.087,0.416,0.14,0.855,0.209,1.281
				c0.114,0.841,0.289,1.757,0.337,2.535l0.113,2.291l0.014,0.286l0.007,0.143l0.004,0.275l-0.001,0.572l-0.001,1.143
				c-0.002,1.523-0.004,3.042-0.006,4.556c-0.008,6.057-0.016,12.04-0.023,17.926c-0.004,2.943-0.008,5.861-0.011,8.751
				c-0.002,1.445-0.004,2.884-0.006,4.315c-0.003,0.362,0.005,0.705-0.008,1.082l-0.056,1.154c-0.047,0.767-0.06,1.537-0.139,2.295
				c-0.241,1.5-0.369,3.02-0.774,4.463c-0.18,0.727-0.335,1.459-0.537,2.174c-0.233,0.705-0.465,1.407-0.696,2.108l-0.354,1.046
				l-0.428,1.012c-0.287,0.673-0.573,1.344-0.858,2.013c-0.335,0.645-0.668,1.288-1,1.929c-0.337,0.639-0.655,1.284-1.058,1.88
				c-2.994,4.878-6.799,9.163-11.409,12.191c-1.181,0.711-2.301,1.498-3.566,2.032c-0.617,0.29-1.231,0.579-1.843,0.867
				c-0.644,0.219-1.286,0.437-1.924,0.653c-1.226,0.488-2.681,0.693-4.037,0.969c-0.725,0.168-1.263,0.147-1.87,0.201
				c-0.593,0.04-1.184,0.079-1.771,0.118c-2.412-0.005-4.773-0.01-7.081-0.015c-1.137-0.011-2.217,0.007-3.363-0.028
				c-1.169-0.066-2.333-0.079-3.465-0.197c-4.542-0.453-8.704-1.592-12.422-3.008c-3.723-1.419-7.029-3.093-9.998-4.754
				c-2.931-1.719-5.566-3.381-7.844-5.007c-4.581-3.231-7.916-6.047-10.198-7.981c-1.15-0.969-1.982-1.715-2.555-2.217
				c-0.571-0.502-0.865-0.762-0.865-0.762c-0.83-0.729-0.911-1.993-0.181-2.823C40.005,80.642,41.24,80.551,42.069,81.239z"/>
		</g>
		
			<line style="fill:none;stroke:#000000;stroke-width:4;stroke-linecap:round;stroke-linejoin:round;stroke-miterlimit:10;" x1="91.38" y1="23.589" x2="64.677" y2="63.125"/>
		
			<line style="fill:none;stroke:#000000;stroke-width:4;stroke-linecap:round;stroke-linejoin:round;stroke-miterlimit:10;" x1="105.107" y1="28.764" x2="74.678" y2="73.816"/>
		
			<line style="fill:none;stroke:#000000;stroke-width:4;stroke-linecap:round;stroke-linejoin:round;stroke-miterlimit:10;" x1="104.661" y1="54.767" x2="98.707" y2="63.583"/>
		
			<line style="fill:none;stroke:#000000;stroke-width:4;stroke-linecap:round;stroke-linejoin:round;stroke-miterlimit:10;" x1="67.797" y1="33.189" x2="64.702" y2="37.772"/>
		<g>
			<path d="M0.432,52.619c0,0,0.089-0.113,0.256-0.324c0.177-0.217,0.383-0.504,0.773-0.943c0.367-0.44,0.82-0.923,1.342-1.46
				c0.534-0.53,1.153-1.111,1.858-1.708c0.708-0.593,1.502-1.201,2.375-1.794c0.881-0.581,1.823-1.175,2.85-1.694
				c1.015-0.539,2.108-1.012,3.235-1.44c1.134-0.409,2.304-0.779,3.5-1.042c1.203-0.276,2.4-0.464,3.542-0.602
				c1.202-0.157,2.348-0.225,3.491-0.257c2.275-0.054,4.426,0.187,6.222,0.579c1.797,0.402,3.234,0.923,4.215,1.317
				c0.493,0.195,0.871,0.364,1.127,0.481c0.257,0.115,0.395,0.176,0.395,0.176c0.757,0.336,1.099,1.222,0.763,1.979
				c-0.336,0.757-1.222,1.099-1.979,0.763c-0.003-0.001-0.016-0.007-0.019-0.009c0,0-0.5-0.23-1.391-0.564
				c-0.89-0.335-2.173-0.766-3.748-1.083c-1.577-0.306-3.451-0.477-5.483-0.384c-1.009,0.051-2.085,0.139-3.123,0.299
				c-0.498,0.062-1.135,0.183-1.631,0.267c-0.521,0.124-1.052,0.208-1.567,0.362c-1.041,0.262-2.055,0.621-3.036,1.008
				c-0.974,0.406-1.915,0.847-2.787,1.347c-0.883,0.479-1.687,1.026-2.438,1.554c-0.743,0.54-1.416,1.089-2.013,1.622
				c-0.594,0.536-1.111,1.053-1.556,1.523c-0.438,0.482-0.807,0.901-1.074,1.242c-0.273,0.318-0.522,0.677-0.679,0.883
				c-0.16,0.216-0.246,0.331-0.246,0.331c-0.658,0.887-1.911,1.073-2.798,0.415s-1.073-1.911-0.415-2.798
				C0.405,52.655,0.421,52.633,0.432,52.619z"/>
		</g>
		<g>
			<path d="M3.881,31.349c0,0,0.116-0.06,0.335-0.173c0.229-0.114,0.506-0.274,1.001-0.497c0.476-0.231,1.038-0.465,1.678-0.718
				c0.648-0.243,1.385-0.496,2.201-0.729c0.817-0.229,1.711-0.438,2.667-0.606c0.957-0.154,1.97-0.296,3.026-0.342
				c1.054-0.068,2.147-0.052,3.252,0.016c1.104,0.086,2.223,0.217,3.324,0.449c1.112,0.223,2.184,0.517,3.188,0.831
				c1.066,0.322,2.048,0.696,3.017,1.1c1.924,0.811,3.635,1.825,4.991,2.83c1.353,1.014,2.36,1.992,3.032,2.691
				c0.674,0.7,1.025,1.122,1.025,1.122l0.035,0.042c0.529,0.637,0.442,1.582-0.194,2.112c-0.627,0.521-1.554,0.443-2.088-0.166
				c0,0-0.329-0.377-0.944-0.984c-0.613-0.608-1.516-1.441-2.702-2.286c-1.192-0.837-2.678-1.673-4.397-2.35
				c-0.854-0.332-1.781-0.659-2.699-0.911c-0.972-0.282-1.935-0.512-2.885-0.665c-0.959-0.169-1.931-0.247-2.886-0.289
				c-0.956-0.024-1.899-0.008-2.805,0.084c-0.908,0.07-1.776,0.225-2.592,0.384c-0.815,0.172-1.575,0.378-2.265,0.597
				c-0.69,0.223-1.308,0.461-1.85,0.684c-0.541,0.237-1,0.447-1.344,0.629c-0.34,0.16-0.684,0.368-0.891,0.48
				c-0.214,0.12-0.329,0.184-0.329,0.184c-0.963,0.541-2.183,0.199-2.724-0.764c-0.541-0.963-0.199-2.183,0.764-2.724
				C3.837,31.372,3.863,31.358,3.881,31.349z"/>
		</g>
		<ellipse transform="matrix(0.6308 -0.7759 0.7759 0.6308 -33.6579 41.9889)" cx="27.295" cy="56.364" rx="4.482" ry="4.135"/>
		<g>
			<path d="M36.452,44.919c0.171,0.735,0.288,1.42,0.385,2.128c0.1,0.703,0.173,1.408,0.217,2.116
				c0.051,0.707,0.072,1.419,0.061,2.133c0.002,0.713-0.054,1.43-0.11,2.147c-0.095,0.717-0.169,1.435-0.34,2.149
				c-0.126,0.717-0.367,1.422-0.58,2.127c-0.284,0.691-0.536,1.392-0.928,2.046c-0.327,0.68-0.818,1.278-1.256,1.899l-0.753,0.803
				c-0.201,0.239-0.531,0.505-0.834,0.76c-0.612,0.551-1.237,0.915-1.86,1.327c-0.65,0.342-1.292,0.711-1.969,0.969
				c-0.665,0.302-1.352,0.51-2.034,0.738c-0.689,0.19-1.378,0.38-2.075,0.512c-0.695,0.146-1.393,0.259-2.093,0.343
				c-0.7,0.09-1.401,0.152-2.104,0.187c-0.713,0.038-1.387,0.054-2.152,0.026c-0.563-0.021-1.025-0.417-1.154-0.938
				c-0.184-0.743-0.306-1.407-0.414-2.112c-0.11-0.696-0.192-1.395-0.247-2.098c-0.061-0.702-0.092-1.409-0.092-2.119
				c-0.012-0.709,0.033-1.422,0.078-2.136c0.084-0.714,0.148-1.43,0.307-2.142c0.115-0.716,0.345-1.42,0.547-2.126
				c0.273-0.692,0.514-1.395,0.896-2.051c0.177-0.333,0.34-0.673,0.573-0.978l0.327-0.469l0.164-0.234l0.082-0.117l0.041-0.058
				l0.021-0.029l0.01-0.015l0.005-0.007l0.064-0.075c0.478-0.5,0.836-0.981,1.507-1.518c0.607-0.562,1.228-0.935,1.849-1.357
				c0.647-0.352,1.288-0.732,1.964-1.002c0.664-0.313,1.352-0.532,2.035-0.772c0.69-0.201,1.381-0.402,2.079-0.546
				c0.697-0.157,1.398-0.281,2.101-0.376c0.703-0.101,1.407-0.174,2.116-0.22c0.719-0.049,1.393-0.075,2.177-0.057
				c0.679,0.016,1.238,0.493,1.385,1.125L36.452,44.919z M33.765,46.791c-0.235,0.006-0.472-0.004-0.702,0.009
				c-0.637,0.031-1.275,0.087-1.907,0.168c-0.633,0.075-1.263,0.177-1.883,0.307c-0.625,0.118-1.23,0.287-1.838,0.451
				c-0.59,0.2-1.194,0.378-1.753,0.635c-0.583,0.219-1.105,0.528-1.648,0.806c-0.496,0.332-1.038,0.65-1.425,1.005
				c-0.414,0.273-0.9,0.857-1.357,1.326c0.117-0.134,0.03-0.034,0.055-0.062l-0.004,0.006l-0.008,0.011l-0.016,0.022l-0.032,0.045
				l-0.064,0.089l-0.128,0.179l-0.257,0.356c-0.187,0.226-0.315,0.497-0.458,0.757c-0.312,0.504-0.512,1.081-0.748,1.636
				c-0.172,0.588-0.379,1.163-0.485,1.78c-0.148,0.602-0.21,1.231-0.296,1.853c-0.048,0.631-0.1,1.262-0.098,1.902
				c-0.011,0.637,0.007,1.279,0.053,1.92c0.039,0.641,0.105,1.283,0.195,1.919c0.084,0.628,0.201,1.292,0.332,1.86l-1.154-0.938
				c0.582,0.012,1.257-0.009,1.889-0.055c0.641-0.041,1.283-0.108,1.919-0.201c0.636-0.086,1.269-0.199,1.89-0.34
				c0.627-0.129,1.234-0.309,1.842-0.484c0.591-0.211,1.195-0.401,1.753-0.668c0.582-0.229,1.103-0.55,1.643-0.838
				c0.494-0.342,1.031-0.67,1.414-1.036c0.211-0.18,0.42-0.322,0.653-0.603l0.623-0.678c0.32-0.492,0.699-0.938,0.943-1.486
				c0.302-0.508,0.491-1.086,0.716-1.642c0.161-0.588,0.357-1.163,0.452-1.778c0.137-0.6,0.189-1.227,0.264-1.846
				c0.037-0.628,0.079-1.255,0.066-1.891c0-0.633-0.028-1.27-0.084-1.906C34.075,48.746,34,48.11,33.9,47.481
				C33.865,47.25,33.807,47.022,33.765,46.791z"/>
		</g>
	</g>
</g>
<g id="Layer_1">
</g>
</svg>
