<svg xmlns="http://www.w3.org/2000/svg" viewBox="-2 -2 69 129" preserveAspectRatio="none"><g id="anu" stroke="#000" stroke-miterlimit="10"><path d="M62.5 92.5c0 16.57-13.43 30-30 30s-30-13.43-30-30v-60c0-16.57 13.43-30 30-30s30 13.43 30 30v60z" fill="#FFF" stroke-width="5"/><path d="M42.834 47.498c0 5.12-4.627 9.273-10.334 9.273S22.166 52.62 22.166 47.5s2.94-7.674 10.334-11.967 10.334-6.844 10.334-11.966S38.207 14.29 32.5 14.29s-10.334 4.153-10.334 9.274M42.834 101.77c0 5.12-4.627 9.272-10.334 9.272s-10.334-4.152-10.334-9.273c0-5.122 2.94-7.675 10.334-11.968s10.334-6.845 10.334-11.967c0-5.12-4.627-9.273-10.334-9.273s-10.334 4.152-10.334 9.273" fill="none" stroke-width="4" stroke-linecap="round" stroke-linejoin="round"/></g><style>ellipse,polygon,polyline,rect,circle,line,path{stroke-width:2;vector-effect:non-scaling-stroke}</style></svg>