<svg xmlns="http://www.w3.org/2000/svg" viewBox="-2 -2 129.119 129.119" preserveAspectRatio="none"><g id="noka" fill="#FFF" stroke="#000" stroke-linecap="round" stroke-linejoin="round" stroke-miterlimit="10"><ellipse transform="rotate(-7.926 22.507 25.743)" cx="22.516" cy="25.752" rx="12.608" ry="15.333" stroke-width="5"/><ellipse transform="rotate(-4.905 46.234 24.898)" cx="46.225" cy="24.893" rx="14.667" ry="16" stroke-width="5"/><ellipse cx="69.726" cy="22.06" rx="16.833" ry="18.833" stroke-width="5"/><path d="M100.726 2.56c12.058 0 21.833 9.774 21.833 21.832V92.56c0 16.568-13.432 30-30 30h-60c-16.57 0-30-13.432-30-30V60.892c0-16.57 13.43-30 30-30h31.666c19 0 16.333-28.334 36.5-28.334z" stroke-width="5.119"/><path d="M78.764 60.253c-3.652 8.354-19.444 14.64-38.37 14.64-6.803 0-13.2-.813-18.774-2.24M31.05 94.718c4.787-4.82 15.156-8.158 27.176-8.158 4.866 0 9.462.547 13.526 1.518" stroke-width="4"/></g><style>ellipse,polygon,polyline,rect,circle,line,path{stroke-width:2;vector-effect:non-scaling-stroke}</style></svg>