<svg xmlns="http://www.w3.org/2000/svg" viewBox="-2 -2 129 129"><g id="open" stroke="#000" stroke-linecap="round" stroke-linejoin="round" stroke-miterlimit="10"><path d="M2.5 115.166V36.503C2.5 17.5 15.93 2.5 32.5 2.5c29.667 0 30 27.44 30 36.004 0-8.564.333-36.004 30-36.004 16.57 0 30 14.333 30 34.003v78.663H2.5z" fill="#FFF" stroke-width="5"/><path fill="none" stroke-width="4" d="M42.167 46.833h40.666M42.167 64.833h40.666"/><path d="M87.956 84.09C94.47 88.162 98.5 93.787 98.5 100c0 12.426-16.118 22.5-36 22.5s-36-10.074-36-22.5c0-6.213 4.03-11.838 10.544-15.91" fill="#FFF" stroke-width="5"/><path fill="none" stroke-width="4" d="M46.167 99.166h32.666"/><path fill="none" stroke-width="4.5" d="M62.5 38.504v60.33"/></g><style>path{stroke-width:2;vector-effect:non-scaling-stroke}</style></svg>