<svg xmlns="http://www.w3.org/2000/svg" viewBox="-2 -2 132.125 129" preserveAspectRatio="none"><g id="len" stroke="#000" stroke-linecap="round" stroke-miterlimit="10"><path d="M120.125 92.5c0 16.57-13.43 30-30 30H32.5c-16.57 0-30-13.43-30-30v-30c0-33.137 26.863-60 60-60h63.125c-2.875 6.875-5.5 11.5-5.5 30.25V92.5z" fill="#FFF" stroke-width="5" stroke-linejoin="round"/><path d="M120 40.497H93.5c-11.23 0-20.333 8.764-20.333 19.576v6.512c0 10.81-9.104 19.576-20.333 19.576H2.5M78.832 103.223a33.458 33.458 0 0 1-13.235 2.717M94.892 82.69c-.875 3.914-2.593 7.63-5 10.96M36.672 105.94h12.79" fill="none" stroke-width="4" stroke-linejoin="round"/><path fill="none" stroke-width="4" d="M95.918 68.858V56.94"/></g><style>ellipse,polygon,polyline,rect,circle,line,path{stroke-width:2;vector-effect:non-scaling-stroke}</style></svg>