<svg xmlns="http://www.w3.org/2000/svg" viewBox="-2 -2 129 129" preserveAspectRatio="none"><g id="ona" stroke="#000" stroke-miterlimit="10"><path d="M122.5 72.5c0 27.614-22.386 50-50 50h-20c-27.614 0-50-22.386-50-50v-20c0-27.614 22.386-50 50-50h20c27.614 0 50 22.386 50 50v20z" fill="#FFF" stroke-width="5"/><path fill="none" stroke-width="4" d="M54.22 47.19V2.52M70.78 2.52v44.67"/><path d="M29.325 86.887v-22.04c0-5.194 5.11-9.404 11.413-9.404s11.413 4.21 11.413 9.404v22.915-21.025c0-4.71 4.635-8.528 10.35-8.528 5.716 0 10.35 3.817 10.35 8.527v21.026-22.915c0-5.194 5.11-9.404 11.412-9.404 6.303 0 11.413 4.21 11.413 9.404v22.04" fill="none" stroke-width="3.5"/><path d="M107.3 70.854c0 9.34-9.186 16.91-20.52 16.91H38.22c-11.333 0-20.52-7.57-20.52-16.91V64.09c0-9.34 9.186-16.91 20.52-16.91h48.56c11.333 0 20.52 7.57 20.52 16.91v6.764z" fill="none" stroke-width="4"/></g><style>ellipse,polygon,polyline,rect,circle,line,path{stroke-width:2;vector-effect:non-scaling-stroke}</style></svg>