<svg xmlns="http://www.w3.org/2000/svg" viewBox="-2 -2 129 129" preserveAspectRatio="none"><g id="a"><path d="M122.5 62.5v30c0 16.57-13.43 30-30 30h-60c-16.57 0-30-13.43-30-30v-30c0-33.137 26.863-60 60-60s60 26.863 60 60z" fill="#FFF" stroke="#000" stroke-width="5" stroke-miterlimit="10"/><path d="M2.5 64.5c7.444-7.444 24.513-4.757 36.23 6.958 6.106 6.107 10.046 13.644 11.293 20.14" fill="none" stroke="#000" stroke-width="4" stroke-miterlimit="10"/><ellipse transform="rotate(-86.078 28.74 91.26)" cx="28.746" cy="91.265" rx="4.434" ry="4.434"/><path d="M122.505 59.212c-14.82 1.815-36.214 2.954-60.005 2.954V122.5" fill="none" stroke="#000" stroke-width="4" stroke-linecap="round" stroke-linejoin="round" stroke-miterlimit="10"/><path d="M122.505 79.546C107.685 81.36 86.29 82.5 62.5 82.5M122.505 99.546C107.685 101.36 86.29 102.5 62.5 102.5M50.023 91.597s-8.267 9.707-17.6 9.067-16.196-11.386-16.196-11.386 8.267-9.707 17.6-9.067 16.196 11.387 16.196 11.387z" fill="none" stroke="#000" stroke-width="3" stroke-linecap="round" stroke-linejoin="round" stroke-miterlimit="10"/></g><style>ellipse,polygon,polyline,rect,circle,line,path{stroke-width:2;vector-effect:non-scaling-stroke}</style></svg>