<?xml version="1.0" encoding="UTF-8"?>
<svg id="Layer_1" xmlns="http://www.w3.org/2000/svg" version="1.1" viewBox="0 0 168 168">
  <!-- Generator: Adobe Illustrator 30.1.0, SVG Export Plug-In . SVG Version: 2.1.1 Build 136)  -->
  <defs>
    <style>
      .st0 {
        fill: none;
        stroke: #000;
        stroke-miterlimit: 10;
      }
    </style>
  </defs>
  <g id="lanpan">
    <path class="st0" d="M6.23,113.55c1.25-9.61-4.88-28.88-4.07-38.54,1.14-13.6,6.76-42.29,15.72-52.58C26.06,13.03,50.15,4.5,62.57,3.5c8.21-.66,31.92,7.16,31.92,7.16,0,0,11.31-7.53,15.36-6.52,8.5,2.12,12.59,15.81,12.59,15.81,0,0,11.62-6.43,15.12-5.08,6.57,2.53,12.27,24.85,12.27,24.85,0,0,13.98-3.94,14.12-.41.75,19.05,1.22,56.69-7.12,76.23-5.42,12.7-25.77,33.39-37.69,40.36s-40.58,9.87-54.3,8.91c-12.53-.88-38.12-7.16-47.96-14.96-7.76-6.14-12.08-25.29-10.65-36.28Z"/>
    <path class="st0" d="M6.09,114.85s6.17-11.29,9.03-9.63c6.83,3.95,23.05,10.8,31.37,11.44,18.35,1.41,28.77-21.11,33.88-31.29,8.89-17.7,14.12-74.71,14.12-74.71"/>
    <path class="st0" d="M108.38,83.05s8.59-23.82,10.4-32.05c1.67-7.64,3.67-31.06,3.67-31.06"/>
    <path class="st0" d="M134.58,91.81c3.25-6.44,9.04-28.12,9.04-28.12l6.21-23.97"/>
    <path class="st0" d="M12.71,144.98s1.87-18.72,12.88-19.15c3.27-.13,8.58,6.61,8.58,9.88,0,4.66-9.62,18.64-9.62,18.64"/>
    <path class="st0" d="M38.95,159.72s-1.92-10.88,7.68-14.31c2.23-.8,7.36-3.13,9.32-1.79,10.73,7.34-.34,20.3-.34,20.3"/>
    <path class="st0" d="M80.65,100.42s16.6-1.95,34.46,4.8c11.58,4.38,21.45,19.48,21.45,19.48"/>
    <line class="st0" x1="104.65" y1="110.44" x2="79.1" y2="153.5"/>
    <path class="st0" d="M115.41,147.64s-5.64.14-6.03-1.62c-1.03-4.61,9.55-15.07,4.03-19.41-9.06-7.14-20.97,4.43-20.97,4.43"/>
    <path class="st0" d="M7.02,47.77s12.57-6.61,17.17-6.64c7.66.83,15.44,4.5,20.87,9.38,3.74,3.15,6.49,6.1,9.18,11.25,2.11,4.1,4.3,9.26,5.6,13.48,1.15,3.58-2.95,4.03-5.67,5.64-3.92,1.86-8.31,3.85-12.45,5.47-5.86,2.29-10.8,3.8-15.64,3.39-12.36-1.21-8.11-9.72-1.9-15.95,4.98-5.28,11.82-8.1,18.99-7.8,5.31.4,10.8,2.17,15.07,4.77"/>
    <path class="st0" d="M41.7,86.36c-1.82-3.09-9.06-15.36-10.37-17.58"/>
  </g>
</svg>