<svg xmlns="http://www.w3.org/2000/svg" viewBox="-2 -2 132.25 129"><g id="toki"><path d="M108.75 58.25c16.25 34-13.113 64.25-46.25 64.25s-60-26.863-60-60V45.757C2.5 17.5 30.09 2.5 64.125 2.5c38.625 0 61.625 14.44 61.625 32.25S106 74.25 45.75 49" fill="#FFF" stroke="#000" stroke-width="5" stroke-linecap="round" stroke-linejoin="round" stroke-miterlimit="10"/><ellipse transform="rotate(-44.594 32.624 31.374)" cx="32.625" cy="31.375" rx="12.375" ry="12.375" fill="#FFF" stroke="#000" stroke-width="3.5" stroke-linecap="round" stroke-linejoin="round" stroke-miterlimit="10"/><circle cx="34.126" cy="30.125" r="5.458"/><path d="M95.25 60.5s1.25 6.75 1.25 20-9.08 23.75-22.75 23.75S50 93.25 50 79.5c0-16 2-27.5 2-27.5" fill="none" stroke="#000" stroke-width="4" stroke-linecap="round" stroke-linejoin="round" stroke-miterlimit="10"/><path d="M96.347 69.08c-7.253 1.397-15.227 2.17-23.598 2.17S57.752 70.398 50.5 69M96.347 81.83C89.094 83.226 81.12 84 72.75 84s-15.247-.602-22.5-2" fill="none" stroke="#000" stroke-width="3.5" stroke-miterlimit="10"/></g><style>path{stroke-width:2;vector-effect:non-scaling-stroke}</style></svg>