<svg xmlns="http://www.w3.org/2000/svg" viewBox="-2 -2 129 129"><g id="selo" stroke="#000" stroke-linecap="round" stroke-linejoin="round" stroke-miterlimit="10"><path d="M122.5 62.5v25.997c0 19.003-13.43 34.003-30 34.003-29.667 0-30-27.44-30-36.004 0 8.563-.333 36.004-30 36.004-16.57 0-30-14.333-30-34.003V32.5c0-16.57 13.43-30 30-30h60c16.57 0 30 13.43 30 30v30z" fill="#FFF" stroke-width="5"/><path d="M82.527 38.888h-5.623v-6.743c0-8.55-6.45-15.48-14.404-15.48s-14.404 6.93-14.404 15.48v6.743h-5.623c-7.955 0-14.404 5.348-14.404 11.945s6.448 11.945 14.403 11.945h5.623v6.743c0 8.55 6.45 15.48 14.404 15.48s14.404-6.93 14.404-15.48V62.78h5.623c7.955 0 14.404-5.348 14.404-11.945s-6.447-11.945-14.403-11.945z" fill="none" stroke-width="4.5"/><path d="M2.667 94.835s32.725-9.333 59.5-1M5.276 104.508s30.13-8.677 54.78-.93" fill="none" stroke-width="4"/></g><style>path{stroke-width:2;vector-effect:non-scaling-stroke}</style></svg>