<svg xmlns="http://www.w3.org/2000/svg" viewBox="-2 -2 129 129" preserveAspectRatio="none"><g id="ijo" stroke="#000" stroke-miterlimit="10"><path d="M32.5 122.5c-16.57 0-30-13.43-30-30 0-8.284 3.358-15.784 8.787-21.213l58.476-58.36C75.265 6.544 83.41 2.5 92.5 2.5c16.57 0 30 13.43 30 30v60c0 16.57-13.43 30-30 30h-60z" fill="#FFF" stroke-width="5"/><ellipse transform="rotate(-20 45.003 45.002)" cx="45" cy="45" rx="40" ry="40" fill="#FFF" stroke-width="5"/><path d="M42.767 6.704L56.622 44.77c2.147 5.898-.74 12.365-6.45 14.442-5.708 2.078-12.076-1.02-14.223-6.92L22.093 14.23" fill="none" stroke-width="4"/><ellipse transform="rotate(-20 22.642 54.472)" cx="22.64" cy="54.469" rx="8.25" ry="8.25" fill="none" stroke-width="3"/><ellipse transform="rotate(-20 68.22 37.882)" cx="68.215" cy="37.881" rx="8.25" ry="8.25" fill="none" stroke-width="3"/><path d="M3.183 98.244c3.906-5.945 10.635-9.87 18.28-9.87 12.07 0 21.857 9.787 21.857 21.858 0 4.498-1.36 8.68-3.688 12.154" fill="none" stroke-width="4"/><path d="M7.206 107.734c1.82-5.16 6.738-8.858 12.52-8.858 7.33 0 13.273 5.942 13.273 13.272 0 2.73-.826 5.27-2.24 7.38a13.345 13.345 0 0 1-2.748 2.988" fill="none" stroke-width="3"/><path fill="none" stroke-width="4" stroke-linecap="round" stroke-linejoin="round" d="M74.368 72.805l17.635 16.34M80.5 63.065l23.028 13.382"/></g><style>ellipse,polygon,polyline,rect,circle,line,path{stroke-width:2;vector-effect:non-scaling-stroke}</style></svg>