<svg xmlns="http://www.w3.org/2000/svg" viewBox="-2 -2 129.144 129.111"><g id="suwi" stroke="#000" stroke-linecap="round" stroke-linejoin="round" stroke-miterlimit="10"><path d="M59.225 24.557c28.997 0 48 17 48 48 0 32-16.002 50-44.833 50-33.137 0-59.836-26.864-59.836-60s26.863-60 60-60h12c16.2 0 29.333 10.147 29.333 22.666 0 5.82-2.004 10.987-6.668 15 1.612-.834 3.42-1.455 5.333-1.917 9.306-2.245 18.154 1.342 19.763 8.01s-4.632 13.896-13.938 16.14c-.67.16-1.245.158-1.907.26 8.06 1.305 14.835 9.18 15.956 19.36 1.3 11.817-5.513 22.263-15.218 23.33-2.758.305-5.028.243-7.502-.88" fill="#FFF" stroke-width="5.111"/><circle cx="64.682" cy="56.93" r="14.625" fill="none" stroke-width="4.25"/><path d="M52.807 48.305s-34.5-6.665-34.5 27.084c0 18.332 22.25 18 22.25 0 0-15 2.5-18.834 9.332-18.834" fill="none" stroke-width="4.5"/></g><style>path{stroke-width:2;vector-effect:non-scaling-stroke}</style></svg>