<svg xmlns="http://www.w3.org/2000/svg" viewBox="-2 -2 129 129"><g id="nimi" stroke="#000" stroke-linecap="round" stroke-linejoin="round" stroke-miterlimit="10"><path d="M112.75 84.21c5.805 3.678 9.75 10.16 9.75 17.54 0 11.46-9.29 20.75-20.75 20.75h-78.5c-11.46 0-20.75-9.29-20.75-20.75 0-7.646 3.593-14.327 9.75-17.926V52.75C12.25 24.998 34.748 2.5 62.5 2.5s50.25 22.498 50.25 50.25v31.46z" fill="#FFF" stroke-width="5"/><path fill="none" stroke-width="3.5" d="M62.5 25.5v73.998M91.35 50.764c-8.946 1.41-18.675 2.184-28.85 2.184-10.28 0-20.107-.79-29.13-2.228M91.35 75.86c-8.946 1.41-18.675 2.183-28.85 2.183-10.28 0-20.107-.79-29.13-2.228"/><path d="M91.974 54.973v44.525H33.026V54.973C33.026 38.695 46.222 25.5 62.5 25.5s29.474 13.195 29.474 29.473z" fill="none" stroke-width="4"/></g><style>path{stroke-width:2;vector-effect:non-scaling-stroke}</style></svg>