<svg xmlns="http://www.w3.org/2000/svg" viewBox="-2 -2 129 129"><g id="tenpo" stroke="#000" stroke-miterlimit="10"><path d="M122.5 92.5c0 16.57-13.43 30-30 30h-60c-16.57 0-30-13.43-30-30v-60c0-16.57 13.43-30 30-30h60c16.57 0 30 13.43 30 30v60z" fill="#FFF" stroke-width="5"/><path d="M2.5 47.625H14c8.215 0 14.875 6.66 14.875 14.875S22.215 77.375 14 77.375H2.5M77.375 2.5V14c0 8.215-6.66 14.875-14.875 14.875S47.625 22.215 47.625 14V2.5M122.5 77.375H111c-8.215 0-14.875-6.66-14.875-14.875s6.66-14.875 14.875-14.875h11.5M47.625 122.5V111c0-8.215 6.66-14.875 14.875-14.875s14.875 6.66 14.875 14.875v11.5" fill="none" stroke-width="4"/><circle cx="62.5" cy="62.5" r="18.5" fill="#FFF" stroke-width="4"/></g><style>path{stroke-width:2;vector-effect:non-scaling-stroke}</style></svg>