<svg xmlns="http://www.w3.org/2000/svg" viewBox="-2 -2 128 128"><g id="kulupu"><path d="M22.897 114.215c10.5 8 12.05 7.223 21.275 5.362 2.975 2.638 10.59 2.367 13.724-.264 1.5 2.903 10.23 4.2 13.532.008 2.22 2.896 14.22 6.396 25.22-13.854s0-26.25 0-26.25H30.25l-7.353 35z" fill="#FFF"/><path d="M69.89 119.75c2.83 2 6.175 2 6.175 2 8.524 0 15.434-6.716 15.434-15V85h-54v22c0 8.284-6.716 15-15 15H17c-8.284 0-15-6.716-15-15V84.5c0-8.284 6.716-15 15-15h5V42C22 19.91 39.91 2 62 2s40 17.91 40 40v27.5h5c8.284 0 15 6.716 15 15V107c0 8.284-6.716 15-15 15h-5.5c-5.156 0-9.705-2.602-12.405-6.564" fill="#FFF" stroke="#000" stroke-width="4" stroke-miterlimit="10"/><path d="M51.6 85v21.75c0 8.284-6.91 15-15.434 15 0 0-3.087.125-5.916-1.875" fill="none" stroke="#000" stroke-width="4" stroke-miterlimit="10"/><path d="M64.9 85v21.75c0 8.284-6.91 15-15.434 15 0 0-3.344 0-6.174-2" fill="none" stroke="#000" stroke-width="4" stroke-miterlimit="10"/><path d="M78.2 85v21.75c0 8.284-6.91 15-15.435 15 0 0-3.344 0-6.174-2M39.006 69.5V43.327c0-12.7 10.295-22.994 22.994-22.994s22.994 10.295 22.994 22.994V69.5H39.006zM44.173 28.833L84.993 69.5M79.827 28.833L39.007 69.5" fill="none" stroke="#000" stroke-width="4" stroke-miterlimit="10"/></g><style>path{stroke-width:2;vector-effect:non-scaling-stroke}</style></svg>