<svg xmlns="http://www.w3.org/2000/svg" viewBox="-2 -2 134.009 134.009" preserveAspectRatio="none"><g id="ali" stroke="#000" stroke-miterlimit="10"><path d="M122.5 97.51c0 16.568-13.43 30-30 30h-60c-16.57 0-30-13.432-30-30v-60c0-16.57 13.43-30 30-30h60c16.57 0 30 13.43 30 30v60z" fill="#FFF" stroke-width="5"/><path d="M112.908 31.66c-19.936 28.16-52.46 66.184-52.46 66.184-7.81 7.81-20.474 7.81-28.284 0-7.81-7.81-7.81-20.474 0-28.284 0 0 35.89-30.697 63.756-50.727 15.65-11.25 27.3-1.737 16.988 12.826z" fill="#FFF" stroke-width="5"/><path fill="none" stroke-width="4.5" stroke-linecap="round" stroke-linejoin="round" d="M46.56 83.447l56.923-56.922"/><circle cx="107.5" cy="22.509" r="20" fill="#FFF" stroke-width="5.017"/></g><style>ellipse,polygon,polyline,rect,circle,line,path{stroke-width:2;vector-effect:non-scaling-stroke}</style></svg>