<svg xmlns="http://www.w3.org/2000/svg" viewBox="-2 -2 129 129"><g id="awen"><circle cx="60.482" cy="59.268" r="43.982" fill="#FFF"/><circle cx="31.5" cy="31.5" r="26.5" fill="#FFF" stroke="#000" stroke-width="5" stroke-miterlimit="10"/><path d="M91.75 24c0 11.736-7.514 21.25-19.25 21.25S51.25 35.736 51.25 24 60.764 2.5 72.5 2.5h8.375c22.99 0 41.625 18.636 41.625 41.625V122.5H44.125C21.135 122.5 2.5 103.864 2.5 80.875V72.5c0-11.736 9.514-21.25 21.25-21.25S45 60.764 45 72.5s-9.514 19.25-21.25 19.25" fill="#FFF" stroke="#000" stroke-width="5" stroke-linecap="round" stroke-linejoin="round" stroke-miterlimit="10"/><path fill="none" stroke="#000" stroke-width="4" stroke-linecap="round" stroke-linejoin="round" stroke-miterlimit="10" d="M54.5 90.75l36.125-36.125M58.25 106.5l48.125-48.125"/></g><style>path{stroke-width:2;vector-effect:non-scaling-stroke}</style></svg>