<svg xmlns="http://www.w3.org/2000/svg" viewBox="-2 -2 129 129"><g id="pan" fill="#FFF" stroke="#000" stroke-miterlimit="10"><path d="M122.5 35.25V62.5c0 33.137-26.863 60-60 60s-60-26.863-60-60V35.25C2.5 17.163 17.163 2.5 35.25 2.5h54.5c18.087 0 32.75 14.663 32.75 32.75z" stroke-width="5"/><path d="M96.3 30.75S81.17 43 62.5 43 28.7 30.75 28.7 30.75 43.83 18.5 62.5 18.5s33.8 12.25 33.8 12.25zM91.472 64.375s-12.97 10.5-28.972 10.5-28.972-10.5-28.972-10.5 12.97-10.5 28.972-10.5 28.972 10.5 28.972 10.5zM83.884 93.5s-9.574 7.75-21.384 7.75-21.384-7.75-21.384-7.75 9.574-7.75 21.384-7.75 21.384 7.75 21.384 7.75z" stroke-width="4"/></g><style>path{stroke-width:2;vector-effect:non-scaling-stroke}</style></svg>