<svg xmlns="http://www.w3.org/2000/svg" viewBox="-2 -2 129 129"><g id="linja" fill="#FFF"><circle cx="62.5" cy="62.5" r="44.345"/><circle cx="62.5" cy="62.5" r="44.345"/><path id="Path" d="M47.508 14.124C22.352 15.914 2.5 36.888 2.5 62.5c0 33.137 26.863 60 60 60s60-26.863 60-60-23.78-60-56.917-60C56.287 2.5 47.5 6 47.5 16.833c0 9.297 10.56 15.517 16.333 18.667 6.417 3.5 18 10.838 18 25.67S72.37 82.337 59.666 82.337s-23-8.667-23-21.167c0-7.364 4.97-14.334 12.333-14.334S62.33 51.25 62.33 61.17" stroke="#000" stroke-width="5" stroke-linecap="round" stroke-linejoin="round" stroke-miterlimit="10"/></g><style>path{stroke-width:2;vector-effect:non-scaling-stroke}</style></svg>