<?xml version="1.0" encoding="iso-8859-1"?>
<!-- Generator: Adobe Illustrator 19.2.0, SVG Export Plug-In . SVG Version: 6.00 Build 0)  -->
<!DOCTYPE svg PUBLIC "-//W3C//DTD SVG 1.1//EN" "http://www.w3.org/Graphics/SVG/1.1/DTD/svg11.dtd">
<svg version="1.1" xmlns="http://www.w3.org/2000/svg" xmlns:xlink="http://www.w3.org/1999/xlink" x="0px" y="0px"
	 viewBox="0 0 124.993 125.047" style="enable-background:new 0 0 124.993 125.047;" xml:space="preserve">
<g id="sewi">
	<g id="sewi_2_">
		<g>
			<path style="fill:#FFFFFF;" d="M7.669,58.38c0-31.833,23.997-55.833,54.833-55.833s55.833,25,55.833,55.833
				s-1.001,27.917-1.001,27.917"/>
			<path d="M5.67,58.332c0,0,0.009-0.794,0.026-2.281c0.026-1.492,0.162-3.846,0.502-6.671c0.403-2.845,1.025-6.301,2.257-10.131
				c1.23-3.821,2.977-8.052,5.575-12.286c2.557-4.251,5.934-8.513,10.145-12.361c2.093-1.938,4.433-3.717,6.927-5.373
				c2.497-1.654,5.188-3.142,8.045-4.382c2.854-1.245,5.855-2.28,8.958-3.074c3.108-0.776,6.316-1.29,9.566-1.56
				c0.814-0.049,1.627-0.151,2.445-0.154L62.635,0l2.362,0.055c0.782,0.013,1.665,0.107,2.495,0.159
				c3.335,0.282,6.59,0.829,9.818,1.654c6.437,1.662,12.554,4.489,17.961,8.16c5.395,3.695,10.071,8.223,13.817,13.189
				c3.732,4.979,6.552,10.367,8.428,15.751c1.884,5.387,2.815,10.744,3.101,15.697c0.096,1.238,0.069,2.455,0.106,3.641
				c-0.01,1.141-0.021,2.257-0.031,3.344c-0.037,2.175-0.072,4.239-0.105,6.178c-0.079,3.879-0.168,7.264-0.309,10.06
				c-0.131,2.798-0.278,5-0.442,6.556c-0.085,0.788-0.161,1.38-0.288,1.937c-0.029,0.132-0.072,0.29-0.13,0.461
				c-0.05,0.128-0.055,0.161-0.142,0.339c-0.046,0.09-0.096,0.174-0.145,0.251c-0.003,0.019-0.229,0.316-0.384,0.436
				c-0.101,0.084-0.142,0.121-0.295,0.215c-0.218,0.13-0.48,0.224-0.731,0.263c-0.484,0.082-0.961-0.032-1.347-0.253
				c-0.54-0.343-0.649-0.614-0.732-0.723c-0.094-0.157-0.116-0.22-0.147-0.288c-0.034-0.09-0.052-0.136-0.052-0.136l3.784-1.298
				c0,0-0.015-0.04-0.045-0.119c-0.025-0.058-0.042-0.102-0.121-0.239c-0.071-0.088-0.161-0.333-0.67-0.656
				c-0.369-0.217-0.827-0.315-1.29-0.244c-0.241,0.036-0.492,0.127-0.699,0.253c-0.144,0.089-0.177,0.116-0.27,0.191
				c-0.078,0.066-0.153,0.142-0.221,0.225l-0.114,0.152c-0.037,0.053-0.072,0.111-0.104,0.175c-0.058,0.124-0.046,0.092-0.068,0.153
				c-0.015,0.032-0.01,0.029-0.001-0.028c0.039-0.194,0.102-0.736,0.149-1.43c0.098-1.409,0.168-3.567,0.198-6.321
				c0.01-2.765,0.023-6.122,0.038-9.973c-0.012-1.929-0.024-3.982-0.038-6.146c-0.008-1.083-0.017-2.193-0.025-3.33
				c-0.051-1.09-0.036-2.208-0.14-3.343c-0.149-2.274-0.479-4.627-0.955-7.033c-0.526-2.394-1.149-4.857-2.053-7.302
				c-1.733-4.911-4.33-9.821-7.756-14.356c-3.44-4.521-7.728-8.638-12.661-11.989c-4.952-3.317-10.521-5.876-16.373-7.432
				c-2.92-0.761-5.943-1.276-8.906-1.54c-0.748-0.048-1.436-0.138-2.232-0.155l-2.362-0.065l-2.192,0.048
				c-0.751-0.003-1.495,0.092-2.241,0.132c-2.976,0.236-5.91,0.693-8.749,1.389c-2.834,0.713-5.573,1.646-8.178,2.77
				c-5.23,2.213-9.864,5.284-13.764,8.729c-3.891,3.467-7.036,7.33-9.435,11.205c-2.438,3.858-4.097,7.737-5.28,11.255
				c-1.17,3.528-1.869,6.71-2.299,9.354c-0.383,2.683-0.555,4.687-0.62,6.169c-0.053,1.487-0.082,2.28-0.082,2.28L5.67,58.332z"/>
		</g>
		<g>
			<path style="fill:#FFFFFF;" d="M2.502,70.713c0-12.058,9.775-21.833,21.833-21.833s22.333,11.167,21.436,26.912
				c1.765-9.503,11.209-15.859,19.897-14.245c8.688,1.613,14.833,10.5,11.982,21.984c4.322-5.001,12.185-10.317,23.518-10.317
				c15.833,0,21.333,10.057,21.333,19.995c0,16.569-13.431,29.338-30,29.338h-60c-16.569,0-30-13.431-30-30V70.713z"/>
			<path d="M0.003,70.586l0.121-2.281c0.124-0.877,0.249-1.771,0.418-2.628c0.223-0.816,0.407-1.644,0.675-2.445
				c0.309-0.787,0.556-1.599,0.927-2.359c0.711-1.531,1.546-3.008,2.558-4.356c0.506-0.674,1.007-1.352,1.6-1.952l0.858-0.927
				c0.303-0.291,0.622-0.566,0.934-0.849c0.317-0.277,0.62-0.569,0.949-0.831l1.015-0.75c0.66-0.523,1.394-0.938,2.116-1.369
				c1.45-0.85,3.005-1.511,4.598-2.041c0.792-0.279,1.622-0.432,2.432-0.648c0.819-0.176,1.657-0.261,2.484-0.389
				c0.833-0.075,1.672-0.087,2.506-0.127l0.078-0.003l0.039-0.002l0.168,0.004l0.142,0.01l0.284,0.02l0.568,0.04l1.136,0.08
				c0.848,0.124,1.747,0.299,2.611,0.464c0.813,0.239,1.619,0.486,2.421,0.746c0.771,0.337,1.551,0.658,2.307,1.02
				c0.725,0.421,1.467,0.816,2.169,1.269c0.671,0.497,1.368,0.963,2.008,1.492c0.612,0.563,1.254,1.096,1.832,1.689
				c0.549,0.619,1.127,1.216,1.643,1.859c0.484,0.667,0.988,1.321,1.447,2.002l1.248,2.121l1.034,2.222
				c0.302,0.756,0.554,1.531,0.829,2.296c0.274,0.766,0.419,1.566,0.631,2.347c0.227,0.78,0.308,1.585,0.441,2.381l0.183,1.195
				l0.078,1.203c0.158,1.604,0.07,3.203,0.029,4.8l-3.468-0.419l0.376-1.869c0.174-0.611,0.382-1.214,0.576-1.822
				c0.233-0.592,0.502-1.171,0.757-1.758c0.288-0.569,0.615-1.118,0.926-1.678c0.34-0.54,0.726-1.052,1.095-1.574
				c0.4-0.498,0.828-0.973,1.246-1.459c0.448-0.456,0.916-0.892,1.378-1.336l1.498-1.204l1.61-1.058
				c0.569-0.3,1.128-0.623,1.711-0.897c0.6-0.24,1.19-0.505,1.802-0.715c0.623-0.179,1.236-0.398,1.872-0.534
				c1.271-0.282,2.573-0.46,3.889-0.471c1.329-0.01,2.61,0.099,3.966,0.41c0.558,0.132,1.091,0.236,1.801,0.503l0.993,0.361
				c0.321,0.129,0.601,0.286,0.903,0.429l0.887,0.444l0.838,0.531c0.571,0.337,1.09,0.744,1.6,1.165
				c1.03,0.824,1.939,1.79,2.744,2.825c0.801,1.038,1.491,2.158,2.032,3.342c0.536,1.185,0.951,2.414,1.241,3.666
				c0.279,1.251,0.465,2.52,0.505,3.786c0.058,0.634,0.015,1.263-0.019,1.891c-0.021,0.63-0.066,1.254-0.174,1.869
				c-0.131,1.245-0.451,2.442-0.756,3.634l-3.023-1.566c3.31-4.044,7.702-7.141,12.569-9.066c2.432-0.966,4.983-1.634,7.569-2.006
				c1.293-0.175,2.595-0.316,3.897-0.34l0.489-0.018l0.244-0.009l0.061-0.002l0.153,0.003l0.115,0.004l0.919,0.028l1.844,0.062
				c2.752,0.248,5.358,0.748,7.928,1.721c2.544,1.013,4.968,2.534,6.934,4.549c1.969,2.011,3.449,4.464,4.401,7.044
				c0.958,2.585,1.421,5.289,1.513,7.966l0.019,0.503l0.009,0.251l0.004,0.126l-0.008,0.242l-0.043,0.918l-0.088,1.836
				c-0.054,0.637-0.184,1.354-0.278,2.027c-0.12,0.672-0.172,1.391-0.365,2.018c-0.345,1.285-0.617,2.593-1.133,3.826
				c-0.239,0.622-0.45,1.255-0.715,1.865l-0.879,1.795c-0.15,0.297-0.29,0.6-0.448,0.893l-0.525,0.85l-1.057,1.695l-1.211,1.587
				c-0.398,0.534-0.81,1.056-1.281,1.528l-1.365,1.456c-0.472,0.468-0.988,0.889-1.482,1.333c-0.966,0.919-2.086,1.642-3.156,2.429
				c-4.415,2.963-9.571,4.742-14.821,5.343c-1.304,0.122-2.661,0.163-3.934,0.206l-3.676,0l-7.351,0l-29.405,0l-14.702,0l-3.676,0
				l-1.045-0.005l-0.918-0.046l-1.835-0.093c-0.616-0.034-1.346-0.177-2.014-0.266c-0.672-0.117-1.386-0.175-2.021-0.351
				c-1.279-0.352-2.594-0.592-3.825-1.102l-1.87-0.687l-1.796-0.86c-1.222-0.529-2.313-1.298-3.458-1.969
				c-0.566-0.346-1.074-0.778-1.613-1.164c-0.52-0.411-1.088-0.765-1.561-1.232c-0.978-0.896-1.996-1.753-2.853-2.77
				c-1.848-1.912-3.303-4.156-4.646-6.441c-1.192-2.367-2.279-4.813-2.879-7.406c-0.721-2.562-0.958-5.226-1.048-7.871L0,85.415
				l0-14.702L0.003,70.586z M5.003,70.713l0,14.702l0.011,7.333c0.087,2.243,0.271,4.499,0.89,6.661
				c0.497,2.194,1.432,4.254,2.428,6.261c1.147,1.925,2.363,3.835,3.937,5.448c0.719,0.868,1.591,1.583,2.414,2.347
				c0.397,0.401,0.884,0.691,1.323,1.041c0.457,0.325,0.882,0.698,1.363,0.988c0.974,0.558,1.888,1.226,2.926,1.663l1.516,0.732
				l1.582,0.576c1.037,0.442,2.153,0.625,3.231,0.934c0.546,0.156,1.065,0.177,1.597,0.277c0.546,0.07,1.019,0.196,1.626,0.231
				l1.835,0.093l0.918,0.046l0.792-0.002l3.676,0l14.702,0l29.405,0l7.351,0l3.676,0c1.174-0.044,2.271-0.077,3.404-0.177
				c4.473-0.519,8.841-2.023,12.572-4.526c0.897-0.672,1.854-1.27,2.662-2.052c0.415-0.376,0.855-0.727,1.252-1.121l1.147-1.228
				c0.401-0.394,0.745-0.835,1.077-1.286l1.022-1.332l0.884-1.426l0.445-0.711c0.132-0.246,0.247-0.501,0.372-0.751l0.741-1.505
				c0.223-0.512,0.394-1.046,0.596-1.567c0.443-1.031,0.656-2.136,0.954-3.214c0.175-0.547,0.187-1.064,0.29-1.595
				c0.074-0.54,0.188-1.028,0.24-1.61l0.098-1.835l0.05-0.918l-0.022-0.715c-0.103-4.425-1.522-8.769-4.441-11.77
				c-1.44-1.509-3.213-2.704-5.205-3.546c-2.008-0.81-4.239-1.271-6.36-1.527l-1.828-0.098l-0.918-0.046l-0.115-0.006
				c0.023,0-0.133-0.005,0.038,0l-0.054,0.001l-0.215,0.004l-0.43,0.008c-1.148,0.004-2.291,0.077-3.43,0.192
				c-2.275,0.245-4.518,0.749-6.67,1.517c-4.296,1.54-8.255,4.113-11.384,7.47c-0.665,0.713-1.782,0.752-2.495,0.088
				c-0.436-0.406-0.62-0.982-0.545-1.531l0.018-0.123c0.152-1.063,0.352-2.111,0.391-3.166c0.059-0.526,0.057-1.051,0.035-1.573
				c-0.004-0.523-0.012-1.044-0.085-1.556c-0.074-1.033-0.272-2.044-0.534-3.025c-0.272-0.98-0.639-1.923-1.089-2.816
				c-0.468-0.883-0.976-1.741-1.599-2.509c-0.618-0.769-1.306-1.484-2.083-2.083c-0.383-0.307-0.769-0.609-1.199-0.847l-0.623-0.388
				l-0.663-0.314c-0.219-0.099-0.443-0.225-0.657-0.306l-0.631-0.223c-0.231-0.075-0.365-0.173-0.675-0.237L65.7,63.857
				c-0.882-0.217-1.908-0.327-2.878-0.327c-0.985-0.005-1.974,0.119-2.952,0.32c-0.49,0.095-0.965,0.269-1.45,0.394
				c-0.477,0.157-0.939,0.364-1.412,0.539l-1.367,0.663l-1.306,0.789l-1.227,0.913l-1.139,1.025
				c-0.342,0.378-0.702,0.743-1.039,1.128l-0.934,1.217c-0.27,0.433-0.563,0.855-0.824,1.296c-0.227,0.458-0.475,0.908-0.694,1.373
				l-0.558,1.437l-0.43,1.488l-0.018,0.061c-0.27,0.934-1.245,1.472-2.179,1.202c-0.767-0.222-1.267-0.922-1.271-1.682
				c-0.007-1.439,0.043-2.878-0.14-4.298l-0.094-1.068l-0.192-1.051c-0.137-0.698-0.219-1.408-0.441-2.083
				c-0.207-0.677-0.344-1.377-0.603-2.034c-0.26-0.655-0.491-1.322-0.768-1.968l-0.936-1.884l-1.109-1.776
				c-0.405-0.565-0.847-1.102-1.264-1.655c-0.448-0.528-0.947-1.007-1.412-1.516c-0.493-0.48-1.039-0.901-1.551-1.357
				c-0.539-0.422-1.123-0.782-1.677-1.18c-0.583-0.353-1.195-0.651-1.787-0.984c-0.62-0.273-1.255-0.51-1.877-0.773l-1.946-0.545
				l-1.878-0.299l-1.138-0.051l-0.569-0.025l-0.284-0.013l-0.142-0.006c-0.122-0.004,0.146,0.004,0.113,0.004l-0.016,0.001
				l-0.032,0.002l-0.064,0.004c-0.68,0.052-1.363,0.067-2.039,0.137c-0.669,0.123-1.347,0.195-2.008,0.348
				c-0.651,0.194-1.322,0.316-1.957,0.556c-1.278,0.452-2.524,1.002-3.681,1.708c-0.575,0.359-1.165,0.694-1.686,1.13l-0.809,0.614
				c-0.261,0.214-0.499,0.458-0.75,0.684l-0.742,0.691l-0.674,0.759c-0.473,0.485-0.86,1.041-1.258,1.586
				c-0.796,1.091-1.439,2.285-1.989,3.512c-0.29,0.608-0.464,1.263-0.708,1.889c-0.203,0.641-0.33,1.303-0.505,1.951l-0.294,1.869
				L5,70.84L5.003,70.713z"/>
		</g>
		<path style="fill:none;stroke:#000000;stroke-width:4;stroke-miterlimit:10;" d="M49.078,3.919
			c5.941,3.753,9.757,9.582,9.757,16.128c0,11.322-11.417,20.5-25.5,20.5c-8.31,0-15.692-3.196-20.348-8.142"/>
		<path style="fill:none;stroke:#000000;stroke-width:3;stroke-miterlimit:10;" d="M38.976,7.561c2.4,2.157,3.86,5.005,3.86,8.127
			c0,6.734-6.79,12.193-15.167,12.193c-3.812,0-7.295-1.131-9.96-2.997"/>
	</g>
</g>
<g id="Layer_1">
</g>
</svg>
