<?xml version="1.0" encoding="iso-8859-1"?>
<!-- Generator: Adobe Illustrator 19.2.0, SVG Export Plug-In . SVG Version: 6.00 Build 0)  -->
<!DOCTYPE svg PUBLIC "-//W3C//DTD SVG 1.1//EN" "http://www.w3.org/Graphics/SVG/1.1/DTD/svg11.dtd">
<svg version="1.1" xmlns="http://www.w3.org/2000/svg" xmlns:xlink="http://www.w3.org/1999/xlink" x="0px" y="0px"
	 viewBox="0 0 125 125" style="enable-background:new 0 0 125 125;" xml:space="preserve">
<g id="wawa">
	<g id="wawa_1_">
		<path style="fill:#FFFFFF;stroke:#000000;stroke-width:5;stroke-miterlimit:10;" d="M62.5,122.5h-30c-16.569,0-30-13.431-30-30
			v-60c0-16.569,13.431-30,30-30h30c33.137,0,60,26.863,60,60S95.637,122.5,62.5,122.5z"/>
		<g>
			<path style="fill:#FFFFFF;" d="M34.49,122.751c-1.939-18.932-2.99-39.191-2.99-60.251c0-20.968,1.041-41.143,2.964-60.004"/>
			<path d="M32.5,122.948c0,0-0.239-1.858-0.597-5.151c-0.348-3.296-0.853-7.988-1.282-13.643
				c-0.424-5.652-0.888-12.252-1.155-19.333c-0.278-7.081-0.437-14.638-0.465-22.196c0.023-7.548,0.181-15.122,0.456-22.196
				c0.261-7.082,0.726-13.681,1.146-19.334c0.426-5.653,0.931-10.351,1.276-13.64c0.356-3.287,0.596-5.162,0.596-5.162l3.979,0.406
				c0,0-0.145,1.87-0.399,5.142c-0.263,3.271-0.567,7.949-0.901,13.563c-0.336,5.614-0.609,12.171-0.834,19.197
				c-0.231,7.032-0.339,14.515-0.32,22.024c-0.018,7.499,0.095,14.998,0.329,22.023c0.227,7.026,0.503,13.582,0.842,19.196
				c0.336,5.612,0.643,10.296,0.907,13.559c0.256,3.279,0.402,5.152,0.402,5.152L32.5,122.948z"/>
		</g>
		<g>
			<path d="M33.275,108.727l41.042-16.234l-0.529,3.901L53.271,80.788l-0.008-0.006c-0.881-0.67-1.052-1.928-0.382-2.809
				c0.257-0.338,0.599-0.571,0.974-0.692l51.623-16.832v4.285L53.855,47.9c-1.053-0.343-1.628-1.475-1.285-2.528
				c0.131-0.403,0.379-0.736,0.693-0.975l0.008-0.006l20.517-15.606l0.532,3.902L33.278,16.52c-1.028-0.405-1.533-1.566-1.128-2.594
				c0.402-1.02,1.551-1.525,2.573-1.136l41.223,15.701l0.008,0.003c1.155,0.44,1.735,1.733,1.295,2.888
				c-0.16,0.421-0.433,0.764-0.771,1.011L55.661,47.599l-0.584-3.508l51.776,16.356c1.183,0.374,1.839,1.636,1.466,2.819
				c-0.228,0.721-0.798,1.25-1.466,1.466L55.077,81.088l0.584-3.508l20.816,15.205c0.998,0.729,1.216,2.129,0.487,3.127
				c-0.265,0.363-0.619,0.622-1.009,0.771l-0.007,0.002l-41.223,15.768c-1.032,0.395-2.188-0.122-2.583-1.153
				C31.751,110.278,32.258,109.13,33.275,108.727z"/>
		</g>
	</g>
</g>
<g id="Layer_1">
</g>
</svg>
