<svg xmlns="http://www.w3.org/2000/svg" viewBox="-2 -2 129 129"><g id="mije" fill="#FFF" stroke="#000" stroke-width="5" stroke-miterlimit="10"><path d="M109.276 82.612c8.873 4.33 13.224 8.933 13.224 15.055 0 13.715-26.863 24.833-60 24.833s-60-11.118-60-24.833c0-5.997 4.136-10.498 12.688-14.79"/><path d="M97.746 22.733c15 4.842 24.754 17.02 24.754 33.104 0 26.694-26.863 43.33-60 43.33s-60-16.636-60-43.33c0-16.014 9.683-28.293 24.574-33.153A13.08 13.08 0 0 1 25 15.594C25 8.365 30.863 2.5 38.095 2.5S51.19 8.363 51.19 15.595c0-6.246 5.063-11.46 11.31-11.46s11.28 4.99 11.28 11.46c0-7.22 5.893-13.095 13.125-13.095S100 8.363 100 15.595c0 2.633-.917 5.085-2.254 7.138z" stroke-linecap="round" stroke-linejoin="round"/></g><style>path{stroke-width:2;vector-effect:non-scaling-stroke}</style></svg>