<svg xmlns="http://www.w3.org/2000/svg" viewBox="-2 -2 129 129.125"><g id="ilo" fill="#FFF" stroke="#000" stroke-miterlimit="10"><path d="M62.5 91.625c0 17.12-11.88 31-29 31s-31-13.88-31-31c0-49 60-47.75 60-47.75v47.75z" stroke-width="5"/><path stroke-width="4" stroke-linecap="round" stroke-linejoin="round" d="M16.75 79.375l15.312-11.813M23.5 92.876l17-14.5"/><path d="M62.5 91.625c0 17.12 11.88 31 29 31s31-13.88 31-31c0-49-60-47.75-60-47.75v47.75z" stroke-width="5"/><path stroke-width="4" stroke-linecap="round" stroke-linejoin="round" d="M108.25 79.375L92.938 67.562M101.5 92.876l-17-14.5"/><path d="M84.125 67.958V101c0 11.943-9.682 21.625-21.625 21.625S40.875 112.943 40.875 101V67.958M115.625 38.125c0 16.43-13.32 29.75-29.75 29.75h-46.75c-16.43 0-29.75-13.32-29.75-29.75s13.32-29.75 29.75-29.75h46.75c16.43 0 29.75 13.32 29.75 29.75z" stroke-width="5"/><circle cx="62.5" cy="23.062" r="20.562" stroke-width="5"/></g><style>path{stroke-width:2;vector-effect:non-scaling-stroke}</style></svg>