<svg xmlns="http://www.w3.org/2000/svg" viewBox="-2 -2 129 69"><g id="kalama" stroke="#000" stroke-linecap="round" stroke-linejoin="round" stroke-miterlimit="10"><path d="M37.172 47.95c0 7-5.674 12.673-12.672 12.673-10.917 0-22-17.015-22-28.123 0-16.57 13.43-30 30-30h60c16.57 0 30 13.43 30 30 0 11.463-11.25 28.123-22 28.123-7 0-12.672-5.674-12.672-12.672 0 7-5.64 14.55-12.638 14.55-7 0-12.672-5.674-12.672-12.672 0 7-5.674 12.672-12.672 12.672s-12.674-7.55-12.674-14.55z" fill="#FFF" stroke-width="5"/><path d="M102.077 4.82c1.914 2.62 2.966 5.478 2.966 8.47 0 12.726-19.047 23.043-42.542 23.043S19.96 26.016 19.96 13.29c0-3.043 1.088-5.948 3.065-8.606M17.903 39.5c11.09 6.506 26.96 9.583 44.597 9.583s33.508-3.077 44.597-9.583M79.102 11.83l-3.066 10.83M62.5 11.83v10.997M45.896 11.814l2.762 10.86" fill="none" stroke-width="4"/></g><style>path{stroke-width:2;vector-effect:non-scaling-stroke}</style></svg>