<?xml version="1.0" encoding="iso-8859-1"?>
<!-- Generator: Adobe Illustrator 19.2.0, SVG Export Plug-In . SVG Version: 6.00 Build 0)  -->
<!DOCTYPE svg PUBLIC "-//W3C//DTD SVG 1.1//EN" "http://www.w3.org/Graphics/SVG/1.1/DTD/svg11.dtd">
<svg version="1.1" xmlns="http://www.w3.org/2000/svg" xmlns:xlink="http://www.w3.org/1999/xlink" x="0px" y="0px"
	 viewBox="0 0 124.998 44.999" style="enable-background:new 0 0 124.998 44.999;" xml:space="preserve">
<g id="lili">
	<g id="lili_2_">
		<g>
			<path style="fill:#FFFFFF;" d="M75.874,8.021c9.619-2.056,17.436-5.522,26.737-5.522c13.222,0,19.889,8.954,19.889,20l0,0
				c0,11.046-7.11,20-19.889,20c-8.953,0-14.579-4.913-24.483-7.854"/>
			<path d="M75.436,6.069c0,0,0.442-0.112,1.272-0.323c0.839-0.214,1.973-0.525,3.5-0.972c1.523-0.455,3.373-1.008,5.494-1.643
				c2.144-0.634,4.594-1.368,7.372-1.968c2.769-0.615,5.884-1.084,9.232-1.155l0.157-0.005l0.078-0.003L102.581,0l0.149,0.002
				l0.295,0.012l0.594,0.024c0.397,0.016,0.797,0.032,1.199,0.048c0.832,0.05,1.828,0.211,2.748,0.328
				c0.909,0.189,1.81,0.386,2.718,0.643c0.891,0.328,1.821,0.56,2.691,1.014c0.44,0.209,0.883,0.418,1.327,0.628l1.272,0.774
				c0.434,0.246,0.839,0.541,1.231,0.858c0.393,0.314,0.808,0.606,1.183,0.946c1.515,1.356,2.799,2.976,3.866,4.727
				c0.996,1.786,1.796,3.684,2.3,5.651c0.472,1.965,0.801,3.972,0.816,5.967l0.026,0.749l0.003,0.094l-0.003,0.191l-0.006,0.171
				l-0.013,0.342l-0.052,1.367c-0.117,0.999-0.19,2.123-0.42,3.086c-0.338,1.994-1.054,3.923-1.903,5.761
				c-0.886,1.835-2.078,3.504-3.417,5.011c-1.415,1.437-2.971,2.717-4.683,3.666c-3.398,1.968-7.144,2.725-10.561,2.886
				c-0.43,0.017-0.857,0.034-1.28,0.051c-0.416-0.017-0.83-0.034-1.24-0.051l-0.574-0.029l-0.651-0.069
				c-0.428-0.05-0.868-0.089-1.275-0.154c-1.608-0.256-3.122-0.638-4.526-1.085c-2.802-0.909-5.134-2.031-7.154-2.969
				c-2.016-0.952-3.737-1.728-5.161-2.345c-1.424-0.611-2.553-1.041-3.33-1.313c-0.777-0.273-1.192-0.418-1.192-0.418l1.139-3.835
				c0,0,0.456,0.13,1.31,0.374c0.854,0.244,2.098,0.636,3.646,1.195c1.55,0.549,3.39,1.313,5.437,2.174
				c2.05,0.849,4.3,1.812,6.726,2.544c1.215,0.353,2.48,0.635,3.793,0.812c1.182,0.126,2.727,0.24,4.096,0.118
				c2.814-0.148,5.746-0.777,8.282-2.274c1.289-0.715,2.423-1.687,3.486-2.747c0.995-1.127,1.908-2.366,2.594-3.772
				c0.65-1.415,1.236-2.904,1.507-4.504c0.102-0.399,0.156-0.782,0.196-1.159c0.045-0.388,0.109-0.742,0.147-1.159l0.059-1.367
				l0.015-0.342l0.007-0.171l0.002-0.043c0.002-0.037-0.005,0.167-0.003,0.063l-0.003-0.077l-0.027-0.619
				c-0.014-1.66-0.305-3.277-0.681-4.84c-0.407-1.559-1.043-3.01-1.794-4.363c-0.814-1.312-1.776-2.493-2.879-3.501
				c-0.274-0.253-0.585-0.463-0.871-0.699c-0.285-0.239-0.582-0.461-0.908-0.64l-0.941-0.585L110.89,6.67
				c-0.644-0.357-1.382-0.524-2.06-0.791c-0.706-0.201-1.436-0.361-2.134-0.517c-0.714-0.079-1.325-0.215-2.099-0.269
				c-0.402-0.018-0.801-0.036-1.198-0.055l-0.594-0.027l-0.295-0.013c0.207,0.004,0.038,0.001,0.075,0.002l-0.034,0l-0.069,0.001
				l-0.138,0.002c-2.93-0.007-5.72,0.334-8.307,0.845c-5.17,1.024-9.58,2.358-12.739,3.064C79.735,9.276,78.43,9.557,77.6,9.72
				c-0.84,0.165-1.288,0.252-1.288,0.252L75.436,6.069z"/>
		</g>
		<g>
			<path style="fill:#FFFFFF;" d="M46.264,34.816c-9.609,2.956-15.247,7.683-23.876,7.683c-12.555,0-19.889-8.954-19.889-20l0,0
				c0-11.046,9.444-20,19.889-20c7.39,0,16.059,3.506,26.401,5.557"/>
			<path d="M46.884,36.717c0,0-0.423,0.153-1.217,0.439c-0.815,0.294-1.838,0.699-3.266,1.318c-1.403,0.618-3.102,1.389-5.095,2.328
				c-1.999,0.924-4.303,2.027-7.083,2.898c-1.383,0.446-2.893,0.789-4.479,1.039c-0.8,0.088-1.612,0.205-2.444,0.221l-0.626,0.028
				l-0.157,0.007l-0.079,0.003l-0.039,0.002l-0.151-0.003l-0.285-0.012c-0.381-0.016-0.764-0.032-1.151-0.049
				c-0.721,0.001-1.672-0.141-2.581-0.265c-0.937-0.093-1.769-0.364-2.665-0.561c-0.88-0.228-1.748-0.573-2.627-0.888
				c-0.426-0.2-0.854-0.401-1.283-0.604l-0.644-0.308l-0.617-0.372c-0.41-0.251-0.822-0.504-1.236-0.757l-1.164-0.887l-0.581-0.452
				l-0.537-0.507c-0.355-0.343-0.724-0.675-1.063-1.036C4.49,36.82,3.33,35.17,2.438,33.373c-0.846-1.807-1.565-3.704-1.914-5.671
				c-0.249-0.973-0.292-1.969-0.436-2.956L0.027,23.26L0,22.516l0.036-0.808l0.068-1.348l0.232-1.589l0.129-0.796l0.19-0.738
				l0.394-1.468c0.677-1.902,1.484-3.762,2.606-5.41c2.158-3.349,5.192-5.997,8.526-7.782c3.373-1.74,7.028-2.666,10.6-2.564
				c0.39,0.017,0.776,0.034,1.161,0.051c0.429,0.038,0.855,0.076,1.278,0.114c0.821,0.098,1.595,0.191,2.352,0.33
				c1.521,0.246,2.935,0.579,4.29,0.895c2.692,0.654,5.075,1.37,7.181,1.97c2.093,0.59,3.918,1.105,5.421,1.528
				c1.498,0.411,2.675,0.709,3.48,0.899c0.805,0.192,1.234,0.294,1.234,0.294l-0.778,3.924c0,0-0.452-0.081-1.298-0.234
				c-0.847-0.151-2.085-0.391-3.647-0.727c-3.127-0.638-7.528-1.845-12.666-2.996c-1.28-0.266-2.613-0.545-3.971-0.729
				c-0.677-0.109-1.376-0.172-2.047-0.238c-0.326-0.022-0.654-0.045-0.985-0.068c-0.378-0.007-0.758-0.015-1.142-0.022
				c-2.622-0.055-5.484,0.667-8.091,2.03c-1.283,0.727-2.559,1.552-3.663,2.61c-0.589,0.488-1.081,1.081-1.614,1.637
				c-0.261,0.284-0.475,0.607-0.717,0.909c-0.237,0.306-0.484,0.607-0.675,0.945c-0.891,1.279-1.505,2.724-2.049,4.186l-0.305,1.131
				l-0.153,0.564L5.293,19.55l-0.185,1.076l-0.075,1.347L5.014,22.31l-0.009,0.168L5,22.563l-0.002,0.042
				C4.993,22.738,5,22.472,5,22.513l0.029,0.605l0.052,1.209c0.132,0.788,0.154,1.601,0.365,2.366
				c0.279,1.57,0.866,3.034,1.514,4.426c0.693,1.377,1.581,2.611,2.573,3.72c0.258,0.267,0.536,0.513,0.798,0.773l0.396,0.386
				l0.436,0.337l0.865,0.673l0.93,0.571l0.46,0.287l0.491,0.232l0.972,0.468c0.681,0.236,1.339,0.515,2.029,0.695
				c0.69,0.146,1.392,0.389,2.041,0.442c0.663,0.089,1.259,0.222,2.088,0.23c0.386,0.018,0.77,0.037,1.15,0.055L22.477,40
				c0.114,0.003-0.115-0.002-0.08-0.002l0.032-0.001l0.063-0.001l0.127-0.003l0.505-0.011c0.672,0.009,1.328-0.076,1.977-0.125
				c1.292-0.174,2.538-0.415,3.735-0.769c2.391-0.692,4.609-1.638,6.627-2.465c2.015-0.842,3.822-1.598,5.345-2.144
				c1.497-0.547,2.806-0.972,3.595-1.201c0.81-0.237,1.242-0.364,1.242-0.364L46.884,36.717z"/>
		</g>
		<g>
			<circle style="fill:#FFFFFF;" cx="62.499" cy="22.499" r="20"/>
			<path d="M62.611,0.302c0,0,0.49,0.027,1.409,0.078c0.239,0.019,0.466,0.012,0.789,0.057c0.326,0.048,0.681,0.101,1.066,0.158
				c0.38,0.064,0.805,0.114,1.226,0.208c0.411,0.107,0.847,0.221,1.308,0.341c1.823,0.522,4.023,1.349,6.209,2.856
				c2.189,1.477,4.417,3.54,6.204,6.255c1.758,2.72,3.094,6.063,3.53,9.756c0.07,0.459,0.063,0.928,0.096,1.396l0.034,0.706
				l0.016,0.355l-0.012,0.428c-0.046,0.88-0.019,1.683-0.199,2.75c-0.231,2.058-0.815,3.905-1.589,5.808
				c-0.773,1.887-1.879,3.659-3.165,5.323c-1.324,1.64-2.912,3.09-4.669,4.347c-1.779,1.231-3.765,2.187-5.856,2.861
				c-2.104,0.647-4.304,0.952-6.508,1.014l-1.596-0.09c-0.455-0.007-1.047-0.099-1.626-0.19c-1.183-0.143-2.226-0.449-3.286-0.734
				c-2.091-0.674-4.078-1.63-5.856-2.861c-1.756-1.258-3.345-2.707-4.669-4.347c-1.286-1.664-2.392-3.436-3.165-5.323
				c-0.771-1.878-1.366-3.808-1.582-5.751c-0.175-0.963-0.164-1.931-0.209-2.88l-0.006-0.178l-0.003-0.089L40.5,22.511l0.004-0.143
				l0.016-0.323l0.032-0.642c0.032-0.441,0.018-0.82,0.088-1.303c0.152-0.948,0.238-1.942,0.496-2.789
				c0.113-0.437,0.225-0.87,0.336-1.3c0.15-0.418,0.299-0.833,0.446-1.244c0.592-1.646,1.402-3.137,2.26-4.512
				c1.787-2.715,4.015-4.778,6.204-6.255c2.186-1.507,4.386-2.334,6.209-2.856c0.461-0.12,0.898-0.234,1.308-0.341
				c0.414-0.092,0.81-0.137,1.174-0.2c0.731-0.123,1.354-0.213,1.864-0.22c1.019-0.054,1.562-0.083,1.562-0.083L62.611,0.302z
				 M62.499,4.699c0,0-0.437,0.021-1.256,0.059c-0.412-0.004-0.912,0.069-1.499,0.163c-0.293,0.049-0.612,0.077-0.945,0.148
				c-0.33,0.084-0.681,0.172-1.051,0.266c-1.464,0.413-3.24,1.043-5.036,2.216c-1.795,1.152-3.648,2.785-5.146,4.971
				c-0.708,1.113-1.427,2.303-1.895,3.655c-0.122,0.335-0.245,0.673-0.369,1.014c-0.09,0.351-0.181,0.706-0.272,1.062
				c-0.227,0.725-0.255,1.403-0.396,2.115c-0.062,0.35-0.055,0.826-0.085,1.236l-0.033,0.642l-0.017,0.323
				c-0.003,0.103,0.001-0.095,0.002-0.062l0.003,0.036l0.005,0.073l0.01,0.146c0.064,0.777,0.061,1.57,0.231,2.35
				c0.207,1.58,0.741,3.129,1.396,4.633c0.689,1.498,1.659,2.875,2.741,4.16c1.123,1.259,2.438,2.352,3.862,3.287
				c1.451,0.902,3.033,1.576,4.663,2.097c0.833,0.203,1.677,0.437,2.449,0.51c0.39,0.06,0.765,0.135,1.295,0.138l1.344,0.059
				c1.721-0.03,3.438-0.232,5.088-0.707c1.63-0.522,3.212-1.196,4.663-2.097c1.424-0.935,2.739-2.028,3.862-3.287
				c1.082-1.285,2.052-2.662,2.741-4.16c0.206-0.359,0.306-0.761,0.465-1.137c0.139-0.383,0.314-0.754,0.399-1.151
				c0.106-0.391,0.212-0.78,0.318-1.167c0.102-0.386,0.131-0.749,0.205-1.121c0.166-0.676,0.179-1.634,0.241-2.48l0.01-0.162
				l0.005-0.081l0.003-0.04c0.002-0.036-0.005,0.167-0.003,0.064l-0.016-0.291l-0.031-0.579c-0.03-0.383-0.016-0.769-0.077-1.144
				c-0.365-3.016-1.445-5.754-2.94-7.936c-1.499-2.186-3.351-3.82-5.146-4.971c-1.796-1.172-3.572-1.802-5.036-2.216
				C66.88,5.242,66.53,5.153,66.199,5.07C65.874,5,65.584,4.976,65.306,4.929c-0.275-0.044-0.53-0.084-0.763-0.121
				c-0.236-0.037-0.526-0.031-0.746-0.047c-0.919-0.042-1.409-0.065-1.409-0.065L62.499,4.699z"/>
		</g>
		<g>
			<g>
				<path style="fill:#FFFFFF;" d="M18.25,19.832c0,0,11,6,24.333,6"/>
				<path d="M19.193,18.069c0,0,0.081,0.045,0.234,0.128c0.151,0.079,0.373,0.195,0.655,0.343c0.586,0.294,1.437,0.714,2.489,1.168
					c2.093,0.928,4.978,1.995,7.938,2.796c1.477,0.412,2.974,0.747,4.385,1.008c0.704,0.15,1.391,0.237,2.041,0.336
					c0.65,0.107,1.267,0.182,1.838,0.229c1.141,0.133,2.094,0.183,2.761,0.206c0.668,0.032,1.05,0.051,1.05,0.051l0.084,0.004
					c0.827,0.04,1.465,0.743,1.425,1.569c-0.039,0.805-0.71,1.431-1.509,1.427c0,0-0.408-0.003-1.122-0.009
					c-0.715,0.004-1.736-0.01-2.956-0.103c-0.612-0.027-1.272-0.081-1.967-0.166c-0.696-0.077-1.433-0.143-2.185-0.271
					c-1.511-0.218-3.115-0.511-4.698-0.885c-3.174-0.726-6.274-1.735-8.553-2.638c-1.143-0.441-2.082-0.858-2.744-1.158
					c-0.337-0.16-0.602-0.286-0.782-0.372c-0.176-0.088-0.27-0.134-0.27-0.134c-0.989-0.493-1.391-1.694-0.897-2.683
					c0.493-0.989,1.694-1.391,2.683-0.897c0.021,0.01,0.042,0.021,0.062,0.032L19.193,18.069z"/>
			</g>
			<g>
				<path style="fill:#FFFFFF;" d="M106.749,19.832c0,0-11,6-24.333,6"/>
				<path d="M107.692,21.596c0,0-0.094,0.047-0.27,0.134c-0.18,0.086-0.445,0.212-0.782,0.372c-0.661,0.3-1.6,0.717-2.744,1.158
					c-2.279,0.903-5.378,1.913-8.553,2.638c-1.583,0.375-3.187,0.667-4.698,0.885c-0.752,0.128-1.49,0.194-2.185,0.271
					c-0.695,0.085-1.355,0.139-1.967,0.166c-1.22,0.093-2.24,0.107-2.956,0.103c-0.714,0.005-1.122,0.009-1.122,0.009
					c-0.828,0.006-1.504-0.66-1.51-1.487c-0.006-0.806,0.626-1.469,1.423-1.508l0.087-0.004c0,0,0.382-0.018,1.05-0.051
					c0.668-0.023,1.621-0.073,2.761-0.206c0.571-0.047,1.188-0.122,1.838-0.229c0.65-0.098,1.338-0.186,2.041-0.336
					c1.411-0.261,2.908-0.595,4.385-1.008c2.96-0.801,5.845-1.868,7.938-2.796c1.052-0.454,1.903-0.873,2.489-1.168
					c0.282-0.148,0.503-0.264,0.655-0.343c0.152-0.084,0.234-0.128,0.234-0.128l0.031-0.017c0.969-0.531,2.185-0.177,2.716,0.792
					c0.531,0.969,0.177,2.185-0.792,2.716C107.741,21.571,107.713,21.586,107.692,21.596z"/>
			</g>
		</g>
	</g>
</g>
<g id="Layer_1">
</g>
</svg>
