<?xml version="1.0" encoding="iso-8859-1"?>
<!-- Generator: Adobe Illustrator 19.2.0, SVG Export Plug-In . SVG Version: 6.00 Build 0)  -->
<!DOCTYPE svg PUBLIC "-//W3C//DTD SVG 1.1//EN" "http://www.w3.org/Graphics/SVG/1.1/DTD/svg11.dtd">
<svg version="1.1" xmlns="http://www.w3.org/2000/svg" xmlns:xlink="http://www.w3.org/1999/xlink" x="0px" y="0px"
	 viewBox="0 0 125 125" style="enable-background:new 0 0 125 125;" xml:space="preserve">
<g id="mani">
	<g id="mani_1_">
		<path style="fill:#FFFFFF;stroke:#000000;stroke-width:5;stroke-linecap:round;stroke-linejoin:round;stroke-miterlimit:10;" d="
			M92.5,2.5c16.569,0,30,13.431,30,30v60c0,16.569-13.431,30-30,30h-60c-16.569,0-30-13.431-30-30c0,0,0-21,0-30v-6.013
			c0-2.781,0.167-7.486,4.001-11.319c5.092-5.092,29.065-24.887,43.32-36.924c6.012-5.077,7.054-5.577,12.804-5.577L92.5,2.5z"/>
		<g>
			<path d="M93.988,21.501H57.025l1.347-0.521l-39.524,36l0.653-1.478L19.75,96.5l-2.25-2.25h38.975l-1.515,0.587l39.524-36
				L93.75,60.5L93.988,21.501z M98,19.501L98.25,60.5c0.004,0.652-0.273,1.24-0.719,1.649l-0.016,0.015l-39.524,36
				c-0.43,0.392-0.976,0.586-1.515,0.587H17.5h-0.014c-1.235,0-2.236-1.001-2.236-2.236l0-0.014l0.25-40.999l0-0.012
				c0.004-0.579,0.258-1.104,0.653-1.466l39.524-36c0.382-0.348,0.867-0.521,1.347-0.521H96c1.1,0,1.993,0.888,2,1.987L98,19.501z"
				/>
		</g>
		
			<line style="fill:none;stroke:#000000;stroke-width:4;stroke-linecap:round;stroke-linejoin:round;stroke-miterlimit:10;" x1="27.833" y1="58" x2="87.167" y2="58"/>
		
			<line style="fill:none;stroke:#000000;stroke-width:4;stroke-linecap:round;stroke-linejoin:round;stroke-miterlimit:10;" x1="56.75" y1="82.833" x2="56.75" y2="33.167"/>
		
			<line style="fill:none;stroke:#000000;stroke-width:4;stroke-linecap:round;stroke-linejoin:round;stroke-miterlimit:10;" x1="31.042" y1="83.708" x2="82.458" y2="32.292"/>
	</g>
</g>
<g id="Layer_1">
</g>
</svg>
