<svg id="Layer_1" xmlns="http://www.w3.org/2000/svg" version="1.1" viewBox="0 0 129.04 116.73">
  <g id="kijetesantakalu">
    <path class="st0" d="M39.46,16.68c-9.33-9.41-19.55-10.6-26.02-3.05-6.03,7.04-7.22,15.33-3.2,24.35,1.66,3.73,3.85,7.14,5.81,10.69"/>
    <path class="st0" d="M90.2,16.68c10.14-10.84,20.95-10.62,27.93.79,3.61,5.9,3.91,12.59,1.23,18.95-1.84,4.38-4.67,8.19-7.05,12.25"/>
    <path class="st0" d="M16.05,49.44c-2.38,4.57-5.24,8.9-7.08,13.75-8.7,22.98,5.81,40.02,20.75,44.03,8.51,2.28,17.11,3.88,25.93,4.79,6.19.63,11.23,1.38,17.76.06,8.27-1.66,16.87-2.55,25.23-4.74,8.53-2.23,15.43-7.23,20.16-16,5.97-11.08,4.57-22.86-.93-32.54-8.26-14.54-17.75-28.31-27.89-41.14-8.08-10.22-19.7-10.62-31.03-10.15-14.37.59-21.87,13.27-30.49,23.74-4.37,5.31-7.89,11.59-11.79,17.43"/>
    <path class="st1" d="M113.61,97.42c-2.17-5.33-3.82-11.08-6.63-15.9-4.07-6.99-8.53-13.85-13.67-19.74-4.56-5.22-9.75-4.11-14.17,1.36-3.59,4.44-3.85,9.85.06,15.18,6.51,8.86,13.3,17.42,16.2,29"/>
    <path class="st1" d="M16.05,97.42c4.26-12.54,8.58-25,17.53-34.32,3.96-4.13,8.35-5.51,13-2.9,6.77,3.79,7.73,12.55,2.65,19.72-3.74,5.28-7.68,10.42-10.95,16.08-1.92,3.32-2.71,7.53-4.02,11.34"/>
    <path class="st1" d="M73.94,110.75c1.03-4.78,3.94-9.85-1.94-13.36-4.54-2.72-15.37-1.95-17.32,2.48-1.19,2.7.17,6.95.39,10.51"/>
    <path class="st1" d="M40.76,71.53c-3.42,4.76-8.76,7.95-9.11,15.23"/>
    <path class="st1" d="M87.59,71.53c3.25,4.06,6.5,8.13,9.76,12.19"/>
  </g>
</svg>