<svg xmlns="http://www.w3.org/2000/svg" viewBox="-2 -2 129 129"><g id="ken"><path d="M34.625 32.678C44.22 32.678 52 38.81 52 46.374c0 10.286-10.577 18.624-23.625 18.624-14.29 0-25.875-12.585-25.875-26.876V38c0-19.606 17.573-35.5 39.25-35.5H62.5c33.137 0 60 26.863 60 60s-26.863 60-60 60C31.296 122.5 6 102 6 76.375c0-7.875 2.117-12.46 7.75-16.125" fill="#FFF" stroke="#000" stroke-width="5" stroke-linecap="round" stroke-linejoin="round" stroke-miterlimit="10"/><path d="M7.013 77.01c12.626 1.113 39.114 1.18 59.3.495M9.19 90.7c11.775 1.036 36.475 1.1 55.3.46" fill="none" stroke="#000" stroke-width="3" stroke-linecap="round" stroke-linejoin="round" stroke-miterlimit="10"/><path d="M47.25 57.755C58.982 61.368 67.384 71.083 67.384 82.5c0 14.497-13.548 26.25-30.26 26.25-9.254 0-17.537-3.603-23.088-9.28" fill="none" stroke="#000" stroke-width="4" stroke-linecap="round" stroke-linejoin="round" stroke-miterlimit="10"/><ellipse transform="rotate(-13.76 75.264 33.25)" cx="75.25" cy="33.25" rx="4.5" ry="3.25"/><path d="M90.034 28.75c0 8.768-7.107 15.875-15.875 15.875a15.836 15.836 0 0 1-11.87-5.334" fill="none" stroke="#000" stroke-width="4" stroke-linecap="round" stroke-linejoin="round" stroke-miterlimit="10"/><ellipse transform="rotate(-13.76 90.268 61.754)" cx="90.25" cy="61.749" rx="4.5" ry="3.25"/><path d="M105.034 57.25c0 8.767-7.107 15.874-15.875 15.874a15.836 15.836 0 0 1-11.87-5.334" fill="none" stroke="#000" stroke-width="4" stroke-linecap="round" stroke-linejoin="round" stroke-miterlimit="10"/></g><style>path{stroke-width:2;vector-effect:non-scaling-stroke}</style></svg>