<?xml version="1.0" encoding="UTF-8"?>
<svg id="Layer_1" xmlns="http://www.w3.org/2000/svg" version="1.1" viewBox="0 0 168 168">
  <!-- Generator: Adobe Illustrator 30.1.0, SVG Export Plug-In . SVG Version: 2.1.1 Build 136)  -->
  <defs>
    <style>
      .st0 {
        stroke-linecap: round;
        stroke-linejoin: round;
      }

      .st0, .st1, .st2 {
        stroke: #000;
        stroke-width: 2px;
      }

      .st0, .st2 {
        fill: none;
      }

      .st1 {
        fill: #fff;
      }

      .st1, .st2 {
        stroke-miterlimit: 10;
      }
    </style>
  </defs>
  <g id="tonsi">
    <ellipse class="st1" cx="86" cy="143.8" rx="50.82" ry="18.15"/>
    <path class="st1" d="M158.41,82.25c4.41,3.35,4.98,13.51,4.13,18.17-1.33,7.3-8.33,12.99-16.38,11.03-3.11-.76-5.7-8.76-5.79-9.31,0,0,3.53,43.22-53.69,42.33-42.97-.67-56.57-42.16-56.57-42.16,0,0,5.06,11.8-9.46,13.57-5.94.72-15.81-6.14-15.95-13.57-.11-5.63,1.37-13.43,6.34-18.31.42-.41-.02-1.17-.02-1.75C11.02,43.84,44.01,12.7,84.71,12.7s72.2,29.75,73.64,66.96c.03.86-.64,2.07.05,2.59Z"/>
    <path class="st0" d="M106.62,121.82s-9.77,11.47-20.8,10.72c-11.03-.76-19.14-13.46-19.14-13.46,0,0,9.77-11.47,20.8-10.72,11.03.76,19.14,13.46,19.14,13.46h0Z"/>
    <circle cx="86.57" cy="120.31" r="4.43"/>
    <line class="st2" x1="85.96" y1="77.43" x2="85.35" y2="38.48"/>
    <line class="st2" x1="101.11" y1="77.95" x2="127.37" y2="53.67"/>
    <line class="st2" x1="64.69" y1="77.43" x2="42.72" y2="55.65"/>
    <path class="st2" d="M11.21,83.39s12.16-4.4,17.08-3.8c6.2.76,13.04,4.63,16.08,8.45,4.03,5.04,8.2,22.77,8.2,22.77,0,0,10.18-18.96,33.39-18.29,24.66.71,31.68,16.94,31.68,16.94,0,0-.3-18.65,5.93-24.28,3.57-3.22,11.15-7.22,19.07-6.58,3.9.31,15.44,3.52,15.44,3.52"/>
  </g>
</svg>