<svg xmlns="http://www.w3.org/2000/svg" viewBox="-2 -2 129 129"><g id="ala" stroke="#000" stroke-miterlimit="10"><path d="M122.5 92.5c0 16.57-13.43 30-30 30h-60c-16.57 0-30-13.43-30-30v-60c0-16.57 13.43-30 30-30h60c16.57 0 30 13.43 30 30v60z" fill="#FFF" stroke-width="5"/><path d="M97.855 76.642L83.713 62.5l14.142-14.142c5.858-5.858 5.858-15.355 0-21.213s-15.355-5.858-21.213 0L62.5 41.287 48.358 27.145c-5.858-5.858-15.355-5.858-21.213 0-5.858 5.858-5.858 15.355 0 21.213L41.287 62.5 27.145 76.642c-5.858 5.858-5.858 15.355 0 21.213s15.355 5.858 21.213 0L62.5 83.713l14.142 14.142c5.858 5.858 15.355 5.858 21.213 0 5.858-5.858 5.858-15.355 0-21.213z" fill="#FFF" stroke-width="4.5" stroke-linecap="round" stroke-linejoin="round"/><path fill="none" stroke-width="4" stroke-linecap="round" stroke-linejoin="round" d="M37.75 37.75l49.5 49.5M87.25 37.75l-49.5 49.5"/></g><style>path{stroke-width:2;vector-effect:non-scaling-stroke}</style></svg>