<svg xmlns="http://www.w3.org/2000/svg" viewBox="-2 -2 129 129"><g id="monsi" stroke="#000" stroke-linecap="round" stroke-linejoin="round" stroke-miterlimit="10"><path d="M2.5 62.5V36.503C2.5 17.5 15.93 2.5 32.5 2.5c29.667 0 30 27.44 30 36.004 0-8.564.333-36.004 30-36.004 16.57 0 30 14.333 30 34.003V92.5c0 16.57-13.43 30-30 30h-60c-16.57 0-30-13.43-30-30v-30z" fill="#FFF" stroke-width="5"/><path d="M22.298 47.375c9.02-10.433 23.664-17.217 40.197-17.217 16.646 0 31.378 6.878 40.38 17.432" fill="#FFF" stroke-width="5"/><path fill="none" stroke-width="4" d="M37.167 71.833h50.666M32.5 86.833h60"/></g><style>path{stroke-width:2;vector-effect:non-scaling-stroke}</style></svg>