<svg xmlns="http://www.w3.org/2000/svg" viewBox="0 0 80 80" width="168" height="168">
  <title>
    tonsi
  </title>
  <g stroke-width="2" fill="none">
    <path fill="#231f20" stroke="#231f20" d="M72.72 37.63c1.77.66 3.47 1.58 4.22 3.43q1.39 3.44 1.2 6c-.38 5.17-4.5 7.27-9.68 6.61q-.66-.09-.89.54c-1.21 3.4-2.77 6.37-5.69 8.73q-.73.59.07 1.09c2.33 1.42 5.33 3.79 2.3 6.44-2.64 2.31-5.02 3.94-8.72 4.62q-9.15 1.67-16.82 1.07-5.91-.45-13.66-2.07c-3.42-.72-6-3.61-7.36-6.54a1.47 1.46-34.2 0 1 .33-1.69l3.11-2.88a1.15 1.14 45.5 0 0 .01-1.66q-3.19-3.07-5.88-6.88-.55-.77-1.34-.25-4.51 3-9.17-.17-1.52-1.03-2.72-3.78c-1.48-3.38.14-7.7 2.51-10.14a3.19 3.13-15.9 0 0 .75-1.32q2.55-9.19 7.36-16.43c2.09-3.15 5.06-5.41 7.83-8.03 6.83-6.47 16.82-8.13 25.89-5.78q6.22 1.61 12.1 4.51c3.36 1.65 6.69 4.5 8.67 7.78q3.69 6.13 6.45 13.97.17.49-.02.97-.3.75-.94 1.22-.56.4.09.64Zm-17.85 9.46c.55-8.09 9.45-11.89 16.52-10.08q.71.18.15-.29l-.34-.27q-.4-.34-.49-.87-.79-4.82-1.57-6.26-1.49-2.73-2.81-5.34c-2.52-4.94-7.21-8.86-12.41-10.64-4.56-1.55-8.54-3.3-13.51-3.79q-6.3-.62-12.56 2.11c-3.05 1.33-5.36 3.79-7.93 5.81-5.73 4.49-9.63 12.2-11.49 19.1a.61.6 88.4 0 0 .77.73c5.9-1.9 11.12.88 13.83 6.19q1.29 2.52 2.12 4.79a.67.66 60.9 0 0 1.03.3c1.97-1.53 4.05-3.27 6.53-4.02q12.24-3.68 21.26 3.47.7.56.83-.32.05-.31.07-.62Zm11.77-1.33q1.4.12 1.49 1.92.25 4.73 4.21 3.4.29-.1.59-.19a4.02 4.01 83.5 0 0 2.86-3.61q.48-7.82-6.94-8.57-7.9-.79-10.8 5.51c-1.24 2.69-.77 5.72-.67 8.58q.05 1.35-1.29 1.57a1.14 1.14 0 0 1-1.31-.96c-.45-3.1-7.2-6.52-9.08-7.01q-6.72-1.75-13.53.85-3.5 1.34-5.83 6.21c-.42.88-1.42 1.43-2.28.7q-.42-.35-.44-.9-.2-5.45-3.23-9.85-2.26-3.29-5.49-4.19-4.32-1.19-8.04 1.72c-4.12 3.23-4.4 11.68 2.19 12.34q2.05.21 3.54-1.07.4-.35.33-.87-.28-2.22.49-4.18 1.19-3.04 1.98.12.57 2.28 1.9 4.53 6.5 10.94 19.6 14.98c4.4 1.36 9.33.56 13.84-.27 3.06-.56 5.77-2.57 8.28-4.35q8.06-5.73 6.81-15.55a.77.76 88.8 0 1 .82-.86ZM30.48 67.22c-3.77-1.41-5.84-5.25-9.95-.78q-.5.54-.17 1.21c2.54 5.24 7.4 4.59 12.11 5.83q2.97.78 6.09.9 8.88.34 16.96-1 2.77-.46 6.73-3.77 1.69-1.41.03-2.86-.54-.46-1.1-.93-1.43-1.21-2.97-.14c-4.38 3.04-8.83 3.42-13.96 4.22-4.48.7-9.56-1.1-13.77-2.68Z"/>
    <path fill="#fff" d="M54.87 47.09q-.02.31-.07.62-.13.88-.83.32-9.02-7.15-21.26-3.47c-2.48.75-4.56 2.49-6.53 4.02a.67.66 60.9 0 1-1.03-.3q-.83-2.27-2.12-4.79C20.32 38.18 15.1 35.4 9.2 37.3a.61.6 88.4 0 1-.77-.73c1.86-6.9 5.76-14.61 11.49-19.1 2.57-2.02 4.88-4.48 7.93-5.81q6.26-2.73 12.56-2.11c4.97.49 8.95 2.24 13.51 3.79 5.2 1.78 9.89 5.7 12.41 10.64q1.32 2.61 2.81 5.34.78 1.44 1.57 6.26.09.53.49.87l.34.27q.56.47-.15.29C64.32 35.2 55.42 39 54.87 47.09ZM42.25 18.57a.27.27 0 0 0-.29-.248l-1.696.13a.27.27 0 0 0-.248.29L41.41 36.87a.27.27 0 0 0 .29.249l1.695-.13a.27.27 0 0 0 .248-.29L42.25 18.57Zm7.6 19.33q4.23-6.24 11.75-11.6.81-.57.65-1.55-.06-.42-.56-.64a.7.69 34.9 0 0-.75.13q-3.58 3.39-7.73 6.73-1.98 1.59-5.22 5.98a.83.83 0 0 0 .08 1.07q.18.18.44.29a1.13 1.11 27.7 0 0 1.34-.41ZM22.84 27.32l-.04-1.03a.74.73 10.3 0 0-.45-.64q-.52-.2-1.01.04-.49.25-.52.81-.07 1.91 1.42 3.5c2.39 2.55 5.8 6.68 8.79 8.07q1.36.63 1.72-.8a1.27 1.27 0 0 0-.43-1.3l-8.67-7.03a2.26 2.2-72.4 0 1-.81-1.62Z"/>
    <rect fill="#231f20" x="-1.12" y="-9.36" transform="rotate(-4.4 381.701 -530.573)" width="2.24" height="18.72" rx=".27"/>
    <path fill="#231f20" d="M49.85 37.9a1.13 1.11 27.7 0 1-1.34.41q-.26-.11-.44-.29a.83.83 0 0 1-.08-1.07q3.24-4.39 5.22-5.98 4.15-3.34 7.73-6.73a.7.69 34.9 0 1 .75-.13q.5.22.56.64.16.98-.65 1.55-7.52 5.36-11.75 11.6ZM22.84 27.32a2.26 2.2-72.4 0 0 .81 1.62l8.67 7.03a1.27 1.27 0 0 1 .43 1.3q-.36 1.43-1.72.8c-2.99-1.39-6.4-5.52-8.79-8.07q-1.49-1.59-1.42-3.5.03-.56.52-.81.49-.24 1.01-.04a.74.73 10.3 0 1 .45.64l.04 1.03Z"/>
    <path fill="#fff" d="M66.64 45.76a.77.76 88.8 0 0-.82.86q1.25 9.82-6.81 15.55c-2.51 1.78-5.22 3.79-8.28 4.35-4.51.83-9.44 1.63-13.84.27q-13.1-4.04-19.6-14.98-1.33-2.25-1.9-4.53-.79-3.16-1.98-.12-.77 1.96-.49 4.18.07.52-.33.87-1.49 1.28-3.54 1.07c-6.59-.66-6.31-9.11-2.19-12.34q3.72-2.91 8.04-1.72 3.23.9 5.49 4.19 3.03 4.4 3.23 9.85.02.55.44.9c.86.73 1.86.18 2.28-.7q2.33-4.87 5.83-6.21 6.81-2.6 13.53-.85c1.88.49 8.63 3.91 9.08 7.01a1.14 1.14 0 0 0 1.31.96q1.34-.22 1.29-1.57c-.1-2.86-.57-5.89.67-8.58q2.9-6.3 10.8-5.51 7.42.75 6.94 8.57a4.02 4.01 83.5 0 1-2.86 3.61q-.3.09-.59.19-3.96 1.33-4.21-3.4-.09-1.8-1.49-1.92Zm-27.53 6.01c-3.55.16-7.24 2.67-9.08 5.39a.85.85 0 0 0 .22 1.18c3.16 2.15 6.39 4.86 10.42 4.95 4.09.09 8.48-.23 11.4-3.42 2.25-2.47-2.36-6.62-4.12-7.18q-3.58-1.15-8.84-.92Z"/>
    <path fill="#231f20" d="M30.03 57.16c1.84-2.72 5.53-5.23 9.08-5.39q5.26-.23 8.84.92c1.76.56 6.37 4.71 4.12 7.18-2.92 3.19-7.31 3.51-11.4 3.42-4.03-.09-7.26-2.8-10.42-4.95a.85.85 0 0 1-.22-1.18Zm20.143.421a8.25 3.52 2.3 0 0-8.102-3.848 8.25 3.52 2.3 0 0-8.384 3.186 8.25 3.52 2.3 0 0 8.102 3.848 8.25 3.52 2.3 0 0 8.384-3.186Z"/>
    <path fill="#fff" d="M50.173 57.581a8.25 3.52 2.3 0 1-8.384 3.186 8.25 3.52 2.3 0 1-8.102-3.848 8.25 3.52 2.3 0 1 8.384-3.186 8.25 3.52 2.3 0 1 8.102 3.848Zm-7.475 1.645a2.1 1.89 41.3 0 0-.33-2.806 2.1 1.89 41.3 0 0-2.826.034 2.1 1.89 41.3 0 0 .33 2.806 2.1 1.89 41.3 0 0 2.826-.034Z"/>
    <ellipse fill="#231f20" transform="rotate(41.3 -56.177 83.474)" rx="2.1" ry="1.89"/>
    <path fill="#fff" d="M20.53 66.44c4.11-4.47 6.18-.63 9.95.78 4.21 1.58 9.29 3.38 13.77 2.68 5.13-.8 9.58-1.18 13.96-4.22q1.54-1.07 2.97.14.56.47 1.1.93 1.66 1.45-.03 2.86-3.96 3.31-6.73 3.77-8.08 1.34-16.96 1-3.12-.12-6.09-.9c-4.71-1.24-9.57-.59-12.11-5.83q-.33-.67.17-1.21Z"/>
  </g>
</svg>
