<svg xmlns="http://www.w3.org/2000/svg" viewBox="-2 -2 129 129.801" preserveAspectRatio="none"><g id="ante" stroke="#000" stroke-miterlimit="10"><path d="M122.5 93.3c0 16.57-13.43 30-30 30h-60c-16.57 0-30-13.43-30-30v-30c0-33.136 26.863-60 60-60 28 0 25.667 9.668 60 0v90z" fill="#FFF" stroke-width="5"/><path d="M2.5 89.926c0-18.433 14.942-33.375 33.375-33.375 14.958 0 14.625 4.418 33.375 0v50.063c0 9.216-7.47 16.688-16.688 16.688" fill="none" stroke-width="4"/><path d="M21.276 121.42V92.576c0-5.814 4.713-10.526 10.526-10.526 5.814 0 10.526 4.714 10.526 10.527v29.474" fill="none" stroke-width="4"/><path d="M106.167 70.387c0 5.707-4.627 10.334-10.334 10.334S85.5 76.095 85.5 70.388s2.94-8.552 10.334-13.336 10.334-7.627 10.334-13.335S101.54 33.38 95.834 33.38 85.5 38.01 85.5 43.716" fill="none" stroke-width="4" stroke-linecap="round" stroke-linejoin="round"/></g><style>ellipse,polygon,polyline,rect,circle,line,path{stroke-width:2;vector-effect:non-scaling-stroke}</style></svg>