<?xml version="1.0" encoding="UTF-8"?>
<svg id="Layer_1" xmlns="http://www.w3.org/2000/svg" version="1.1" viewBox="0 0 168 168">
  <!-- Generator: Adobe Illustrator 30.1.0, SVG Export Plug-In . SVG Version: 2.1.1 Build 136)  -->
  <defs>
    <style>
      .st0 {
        fill: #fff;
      }

      .st0, .st1 {
        stroke: #000;
        stroke-miterlimit: 10;
      }

      .st1 {
        fill: none;
      }
    </style>
  </defs>
  <g id="meso">
    <path class="st0" d="M18.13,135.16c-6.99,7.7-9.05,20.67,1.5,27.17,9.88,5.09,25.46.86,31.39-8.03"/>
    <path class="st0" d="M103.41,151.13c4.75,3.45,9.23,6.28,18.42,7.37,6.45.48,14.25-.49,18.59-5.47,6.51-7.02,2-17.23-3.1-22.79"/>
    <path class="st0" d="M91.39,2.85c-14.71-.36-33.96,5.45-46.07,13.1-8.03,5.66-13.98,14.9-18.82,23.27-6.37,10.72-8.65,24.17-7.53,36.71.24,2.61.18,3.35-.69,4.93-5.54,9.81-7.98,24.75-6.52,36.53,1.66,11.94,8.26,24.24,19.68,29.66,7.15,3.62,15.04,6.48,22.83,8.06,13.93,2.4,29.1-.12,43.34-2.22,18.44-3.49,34.75-15.5,46.16-29.61,3.96-5.39,7.07-12.61,9.59-19.28,2.44-6.65,4.31-11.87,5.39-18.46,1.99-15.35-1.35-35.71-11.5-48.22-13.91-14.9-31.37-33.34-55.67-34.45h-.2Z"/>
    <path class="st1" d="M102.81,46.76c-.34,4.08-.68,8.02-2.41,11.4-6.73,11.25-22.5,14.74-34.9,13.28-4.83-.64-9.68-2.56-14.86-3.63-13.34-3.08-22.2,1.66-30.98,11.38"/>
    <path class="st1" d="M37.95,24.75c3.41,4.42,7.56,9.76,11.64,16.27,2.44,3.91,3.69,7.17,4.39,11.78.79,4.95,1.23,11.19,1.48,15.91"/>
    <path class="st1" d="M55.46,12.04c20.32,25.57,20.8,26.72,24.86,59.01"/>
    <path class="st1" d="M105.78,83.58c.5,4.71,2.04,19.18,2.54,23.9"/>
    <path class="st1" d="M40,87.71c-.36,3.09-1.35,11.14-1.1,17.04.07,2.69,1.33,5.3,2.63,7.52"/>
    <path class="st1" d="M52.84,138.54c8.05-.46,32.47-1.86,40.52-2.32"/>
  </g>
</svg>