<svg xmlns="http://www.w3.org/2000/svg" viewBox="-2 -2 129 129" preserveAspectRatio="none"><g id="nasa" stroke="#000" stroke-miterlimit="10"><path d="M55.237 112.072C49.735 118.457 41.59 122.5 32.5 122.5c-16.57 0-30-13.43-30-30v-30c0-33.137 26.863-60 60-60h45c8.284 0 15 6.25 15 13s-6.31 13.998-17 13.998c10.94 0 17 6.002 17 14 0 7.252-6.56 11.997-17 11.997 0 0-9 5.67-16.666 13.338s-33.597 43.24-33.597 43.24z" fill="#FFF" stroke-width="5"/><ellipse transform="rotate(-20 82.495 82.493)" cx="82.489" cy="82.489" rx="40" ry="40" fill="#FFF" stroke-width="5"/><ellipse transform="rotate(-20 73.85 73.848)" cx="73.844" cy="73.844" rx="12.232" ry="12.232" fill="none" stroke-width="4"/><ellipse transform="rotate(-20 91.14 91.14)" cx="91.134" cy="91.134" rx="12.232" ry="12.232" fill="none" stroke-width="4"/><path d="M107.44 29.498H74.61c-28.167 0-48 8.67-48 52.335v11.333" fill="none" stroke-width="5" stroke-linecap="round" stroke-linejoin="round"/></g><style>ellipse,polygon,polyline,rect,circle,line,path{stroke-width:2;vector-effect:non-scaling-stroke}</style></svg>