<svg xmlns="http://www.w3.org/2000/svg" viewBox="-2 -2 129 129" preserveAspectRatio="none"><g id="soweli" fill="#FFF" stroke="#000" stroke-linecap="round" stroke-linejoin="round" stroke-miterlimit="10"><circle cx="24" cy="27.75" r="21.5" stroke-width="5"/><circle cx="101" cy="27.75" r="21.5" stroke-width="5"/><circle cx="62.5" cy="101" r="21.5" stroke-width="5"/><path d="M122.5 88.497c0 19.003-13.43 34.003-30 34.003-29.667 0-30-27.44-30-36.004 0 8.563-.333 36.004-30 36.004-16.57 0-30-14.333-30-34.003V62.5c0-33.137 26.863-60 60-60s60 26.863 60 60v25.997z" stroke-width="5"/><path d="M80.75 77.816C80.75 82.666 72.58 98 62.5 98S44.25 82.665 44.25 77.816c0-4.85 8.17-6.816 18.25-6.816s18.25 1.966 18.25 6.816z" stroke-width="5"/><path d="M100.5 53.127c0 16.638-16.46 4.123-38 4.123s-38 12.514-38-4.123S40.96 20 62.5 20s38 16.49 38 33.127z" stroke-width="4"/><path d="M41.98 44.887C47.574 41.282 54.712 39 62.642 39c7.796 0 14.827 2.206 20.377 5.706" stroke-width="5"/></g><style>ellipse,polygon,polyline,rect,circle,line,path{stroke-width:2;vector-effect:non-scaling-stroke}</style></svg>