<svg xmlns="http://www.w3.org/2000/svg" viewBox="-2 -2 129 129.136"><g id="namako" stroke="#000" stroke-linecap="round" stroke-linejoin="round" stroke-miterlimit="10"><path d="M45.75 23.886c2.5-13.75 14.463-21.728 23.5-21.375 16 .626 7.79 25.5 6.25 28.376 6.946-6.946 16.74-9.615 23.026-3.402 5.973 5.902 4.224 15.277-3.026 22.152 3.75-2 10.903-3.5 15-3.5 8.768 0 12 6.25 12 16.5 0 33.137-26.864 60-60 60s-60-26.863-60-60c0-23.748 15.557-39.998 34.75-39.998S73 39.886 73 70.64" fill="#FFF" stroke-width="5"/><path fill="none" stroke-width="4" d="M34.758 40.537l1.582 19.577M13.89 60.93l14.846 6.916M23.785 90.924l9.068-14.51M56.242 91.902l-12.8-16.66M60.108 58.12l-13.98 6.726"/></g><style>path{stroke-width:2;vector-effect:non-scaling-stroke}</style></svg>