<svg xmlns="http://www.w3.org/2000/svg" viewBox="-2 -2 69 129"><g id="wan" stroke="#000" stroke-linecap="round" stroke-linejoin="round" stroke-miterlimit="10"><path d="M61.5 62.5c0-10.312-7.534-20.002-16.83-20.002 9.33 0 17.83-9.696 17.83-19.998 0-11.046-8.954-20-20-20h-10c-16.57 0-30 13.43-30 30v60c0 16.57 13.43 30 30 30h10c11.046 0 20-8.954 20-20 0-10.085-8.375-20-17.215-19.997C54 82.503 61.5 72.598 61.5 62.5z" fill="#FFF" stroke-width="5"/><path d="M21.248 50.956h11.208C38.83 50.956 44 56.124 44 62.5c0 6.375-5.168 11.544-11.544 11.544H21.248" fill="none" stroke-width="4.5"/><path d="M22.673 103.968c-1.905-12.25-1.957-33.59-1.957-41.59s.075-29.152 1.957-41.347" fill="none" stroke-width="4.5"/></g><style>path{stroke-width:2;vector-effect:non-scaling-stroke}</style></svg>