<svg xmlns="http://www.w3.org/2000/svg" viewBox="-2 -2 129.333 73.667" preserveAspectRatio="none"><g id="sin" stroke="#000" stroke-miterlimit="10"><path d="M122.833 33.5c0-5.89-4.776-10.667-10.667-10.667-.277 0-.55.02-.82.04a10.614 10.614 0 0 0 2.82-7.207C114.166 9.776 109.39 5 103.5 5S92.833 9.776 92.833 15.667c0 1.82.46 3.534 1.263 5.034-3.92 2.96-6.597 8.845-6.597 15.633 0 6.113 2.167 11.5 5.46 14.67-.075.546-.128 1.098-.128 1.664 0 6.627 5.373 12 12 12s12-5.373 12-12c0-3.35-1.376-6.378-3.59-8.555 5.386-.54 9.59-5.084 9.59-10.612z" fill="#FFF" stroke-width="5" stroke-linecap="round" stroke-linejoin="round"/><ellipse cx="77.669" cy="34.833" rx="23.833" ry="30.167" fill="#FFF" stroke-width="5"/><ellipse cx="60.501" cy="34.833" rx="23.833" ry="30.167" fill="#FFF" stroke-width="5"/><circle cx="34.833" cy="34.833" r="32.333" fill="#FFF" stroke-width="5"/><circle cx="43" cy="19.167" r="6.833" fill="#FFF" stroke-width="3"/><circle cx="17.5" cy="50" r="4.333" fill="#FFF" stroke-width="2.5"/><path d="M3.833 26.667S23.21 51.652 35.5 41c10-8.667-18-33.333-18-33.333" fill="none" stroke-width="3.5"/></g><style>ellipse,polygon,polyline,rect,circle,line,path{stroke-width:2;vector-effect:non-scaling-stroke}</style></svg>