<svg xmlns="http://www.w3.org/2000/svg" viewBox="-2 -2 129 129" preserveAspectRatio="none"><g id="kala"><path d="M122.5 62.5v30c0 16.57-13.43 30-30 30h-60c-16.57 0-30-13.43-30-30v-30c0-33.137 26.863-60 60-60s60 26.863 60 60z" fill="#FFF" stroke="#000" stroke-width="5" stroke-miterlimit="10"/><path d="M7 109s8.2-29.677 29.5-37.25c22.5-8 21.25 18 21.25 33.75" fill="none" stroke="#000" stroke-width="4" stroke-linecap="round" stroke-linejoin="round" stroke-miterlimit="10"/><ellipse transform="rotate(-74.42 41.323 100.985)" cx="41.322" cy="100.988" rx="4.434" ry="4.434"/><path d="M57.638 105.61s-10.057 7.838-19.068 5.326c-9.01-2.512-13.563-14.422-13.563-14.422s10.057-7.837 19.068-5.325c9.01 2.51 13.563 14.42 13.563 14.42z" fill="none" stroke="#000" stroke-width="3" stroke-linecap="round" stroke-linejoin="round" stroke-miterlimit="10"/><path d="M91.953 92.786a44.837 44.837 0 0 1 21.175 21.665" fill="none" stroke="#000" stroke-width="4" stroke-linecap="round" stroke-linejoin="round" stroke-miterlimit="10"/><path d="M3.378 51.367c8.605-7.864 21.765-13.883 37.032-16.01 28.73-4.003 54.047 7.29 56.546 25.222 2.24 16.077-14.622 32.035-38.84 38.05" fill="none" stroke="#000" stroke-width="4" stroke-miterlimit="10"/><path d="M3.242 62.518c9.263-7.078 22.9-11.917 38.296-12.694M3.242 74.518c5.918-4.52 13.62-8.13 22.426-10.348" fill="none" stroke="#000" stroke-width="4" stroke-linecap="round" stroke-linejoin="round" stroke-miterlimit="10"/></g><style>ellipse,polygon,polyline,rect,circle,line,path{stroke-width:2;vector-effect:non-scaling-stroke}</style></svg>