<svg xmlns="http://www.w3.org/2000/svg" viewBox="0 0 80 80" width="168" height="168">
  <title>
    n
  </title>
  <g stroke-width="2" fill="none">
    <path fill="#231f20" stroke="#231f20" d="M43.94 19.5q5.92-3.44 13.68-3.97c5.47-.37 11.17 4.13 12.23 9.5 1.34 6.78-.43 11.62-3.79 17.11a.58.58 0 0 0 .47.88q10.41.43 11.9 8.97c.92 5.29-2.54 12.19-6.32 15.38-7.05 5.96-14.69 7.57-24.11 9.05-12.67 1.99-24.74 1.95-35.05-6.2q-3.27-2.58-4.82-6.37C5.06 56.4 1.97 50 1.1 41.77q-.73-6.93 4.66-10.86.53-.39.36-1.02c-.58-2.16-.9-3.94-.74-6.26q.73-10.44 10.33-15.06 5.68-2.73 11.23-3.87c3.77-.77 11.24-.85 13.37 3.19q2.28 4.34 2.51 7.68.12 1.69.23 3.46.07.95.89.47Zm-3.56 2.93q.85-5.96-1.9-12c-1.03-2.27-2.77-3.21-5.19-3.44q-8.84-.83-17.38 3.98c-6.69 3.77-8.82 10.31-7.44 17.44q.1.54.64.41c5.55-1.32 10.2-3.53 16.13-2.66 4.68.69 8.38 6.53 9.44 10.46q1.05 3.85 1.93 8.51 2.24 11.78 3.63 23.34.11.96-.82 1.18-.29.07-.58 0-1.33-.34-1.48-1.7l-1.62-14.66q-.1-.85-.57-.14-3.37 5.04-8.31 6.02-6.07 1.19-15.88 1.33-.74.01-.53.72c2.09 7.01 9.47 10.62 16.34 12.74 4.21 1.29 9.16 1.33 13.52.97q10.07-.85 19.54-3.5 5.59-1.57 10.4-5.8c5.26-4.64 9.26-15.82.54-19.06q-3.89-1.43-8.4.29-.41.15-.72-.14c-.66-.62-.79-1.57-.18-2.29 5.6-6.61 10.05-18.6 1.66-24.53-3.02-2.14-6.18-2.24-9.63-1.41q-6.69 1.6-10.87 5.19-.41.36-.95.23-.66-.15-1.1-.69-.29-.35-.22-.79ZM31.4 44.26q3.46-1.2.62 1.12-5.15 4.22-12.74 4.54-6.16.25-13.1-.05-.33-.01-.2.29l3.36 7.56q.11.26.4.28 8.79.41 15.88-1.07 3.92-.81 9.03-4.62.43-.32.4-.85c-.13-2.49-.93-4.87-1.28-7.35-.77-5.45-4.13-15.57-10.78-15.59-4.34-.01-9.06 1.41-13.09 2.88-5.88 2.13-7.13 9.05-5.03 14.33q.42 1.04 1.52 1.24 7.15 1.27 15.14.33c3.58-.42 6.62-1.91 9.87-3.04Z"/>
    <path fill="#fff" d="M40.6 23.22q.44.54 1.1.69.54.13.95-.23 4.18-3.59 10.87-5.19c3.45-.83 6.61-.73 9.63 1.41 8.39 5.93 3.94 17.92-1.66 24.53-.61.72-.48 1.67.18 2.29q.31.29.72.14 4.51-1.72 8.4-.29c8.72 3.24 4.72 14.42-.54 19.06q-4.81 4.23-10.4 5.8-9.47 2.65-19.54 3.5c-4.36.36-9.31.32-13.52-.97-6.87-2.12-14.25-5.73-16.34-12.74q-.21-.71.53-.72 9.81-.14 15.88-1.33 4.94-.98 8.31-6.02.47-.71.57.14l1.62 14.66q.15 1.36 1.48 1.7.29.07.58 0 .93-.22.82-1.18-1.39-11.56-3.63-23.34-.88-4.66-1.93-8.51c-1.06-3.93-4.76-9.77-9.44-10.46-5.93-.87-10.58 1.34-16.13 2.66q-.54.13-.64-.41c-1.38-7.13.75-13.67 7.44-17.44q8.54-4.81 17.38-3.98c2.42.23 4.16 1.17 5.19 3.44q2.75 6.04 1.9 12-.07.44.22.79Z"/>
    <path fill="#fff" d="M31.4 44.26c-3.25 1.13-6.29 2.62-9.87 3.04q-7.99.94-15.14-.33-1.1-.2-1.52-1.24c-2.1-5.28-.85-12.2 5.03-14.33 4.03-1.47 8.75-2.89 13.09-2.88 6.65.02 10.01 10.14 10.78 15.59.35 2.48 1.15 4.86 1.28 7.35q.03.53-.4.85-5.11 3.81-9.03 4.62Q18.53 58.41 9.74 58q-.29-.02-.4-.28l-3.36-7.56q-.13-.3.2-.29 6.94.3 13.1.05 7.59-.32 12.74-4.54 2.84-2.32-.62-1.12Z"/>
  </g>
</svg>
