<?xml version="1.0" encoding="iso-8859-1"?>
<!-- Generator: Adobe Illustrator 19.2.0, SVG Export Plug-In . SVG Version: 6.00 Build 0)  -->
<!DOCTYPE svg PUBLIC "-//W3C//DTD SVG 1.1//EN" "http://www.w3.org/Graphics/SVG/1.1/DTD/svg11.dtd">
<svg version="1.1" xmlns="http://www.w3.org/2000/svg" xmlns:xlink="http://www.w3.org/1999/xlink" x="0px" y="0px"
	 viewBox="0 0 125 128.147" style="enable-background:new 0 0 125 128.147;" xml:space="preserve">
<g id="seli">
	<g id="seli_1_">
		<g>
			<path style="fill:#FFFFFF;" d="M122.5,5.647v60.667c0,33.137-26.863,59.333-60,59.333s-60-26.196-60-59.333V5.647l29.667,26.833
				L62.5,5.647l30,26.833L122.5,5.647z"/>
			<path d="M125,0.01v44.254v19.309v2.414l-0.054,2.476c-0.004,0.785-0.068,1.64-0.136,2.497c-0.07,0.849-0.111,1.714-0.234,2.537
				c-0.355,3.335-1.047,6.631-1.962,9.857c-1.813,6.464-4.772,12.591-8.585,18.107c-3.83,5.511-8.58,10.366-13.955,14.372
				c-5.405,3.961-11.414,7.127-17.801,9.173c-6.368,2.108-13.075,3.106-19.765,3.142c-3.252-0.018-6.72-0.28-10.003-0.787
				c-3.314-0.499-6.574-1.324-9.762-2.35c-6.388-2.043-12.397-5.21-17.803-9.168c-5.375-4.006-10.129-8.858-13.959-14.369
				C7.165,95.959,4.205,89.833,2.39,83.37c-0.917-3.225-1.608-6.522-1.964-9.857c-0.124-0.83-0.164-1.668-0.233-2.503
				c-0.067-0.835-0.134-1.671-0.139-2.509L0,66.002v-2.414V44.28V5.663l0-0.015L0.035,0l4.142,3.793l29.49,27.011l0.009,0.008
				l-3-0.017L60.838,3.78l0.006-0.005l1.686-1.473l1.637,1.482l29.83,27.017L94,30.804h-3L125,0.01z M120,11.191L94,34.158
				l-1.519,1.342L91,34.158l-0.003-0.003L60.833,7.511l3.323,0.009l-0.006,0.005L33.658,34.166l-1.526,1.333l-1.474-1.35
				l-0.008-0.008L0.823,7.501L5,5.647l0,0.015V44.28v19.309v2.414l0.052,2.327c0.003,0.772,0.066,1.541,0.128,2.309
				c0.064,0.768,0.098,1.54,0.214,2.302c0.326,3.067,0.963,6.094,1.804,9.055c1.664,5.935,4.383,11.555,7.886,16.622
				c3.518,5.062,7.888,9.522,12.831,13.207c4.974,3.638,10.499,6.555,16.378,8.433c2.934,0.943,5.935,1.705,8.988,2.164
				c3.079,0.466,6.041,0.7,9.226,0.726c6.177-0.036,12.354-0.953,18.214-2.895c5.879-1.88,11.404-4.797,16.376-8.437
				c4.943-3.686,9.31-8.148,12.828-13.21c3.501-5.068,6.22-10.688,7.882-16.624c0.839-2.962,1.478-5.988,1.802-9.056
				c0.117-0.77,0.147-1.515,0.211-2.268c0.062-0.747,0.124-1.496,0.129-2.321l0.052-2.35v-2.414V44.264V11.191z"/>
		</g>
		<path style="fill:#FFFFFF;stroke:#000000;stroke-width:5;stroke-miterlimit:10;" d="M32.5,5.647"/>
		<g>
			<path style="fill:#FFFFFF;" d="M94.031,79.814c0,17.029-14.117,30.833-31.531,30.833S30.969,96.843,30.969,79.814
				s31.531-55.5,31.531-55.5S94.031,62.785,94.031,79.814z"/>
			<path d="M96.333,79.874c-0.018,0.846-0.018,1.665-0.105,2.645c-0.058,0.956-0.187,1.827-0.325,2.738
				c-0.281,1.803-0.743,3.577-1.334,5.303c-1.175,3.459-2.955,6.705-5.202,9.58c-4.479,5.777-10.916,9.956-17.971,11.831
				c-1.764,0.465-3.563,0.799-5.376,0.992c-0.908,0.073-1.817,0.157-2.728,0.164l-0.683,0.018l-0.228,0l-0.159-0.004l-0.317-0.009
				c-0.432-0.016-0.826-0.014-1.29-0.046c-1.917-0.106-3.669-0.369-5.468-0.753c-1.784-0.38-3.533-0.922-5.228-1.594
				c-3.398-1.33-6.57-3.222-9.365-5.561c-2.811-2.325-5.202-5.142-7.119-8.244c-1.894-3.118-3.284-6.55-4.051-10.12
				c-0.38-1.785-0.613-3.6-0.703-5.42l-0.031-1.366c0-0.604,0.006-0.837,0.046-1.401c0.068-1.054,0.218-1.912,0.392-2.842
				c0.743-3.616,2.042-6.901,3.472-10.081c1.444-3.174,3.069-6.221,4.782-9.202c3.432-5.958,7.218-11.652,11.187-17.199
				c1.983-2.775,4.011-5.513,6.079-8.221c2.073-2.711,4.163-5.377,6.348-8.036l1.561-1.898l1.533,1.898l0.001,0.001
				c1.736,2.118,3.398,4.233,5.054,6.38c1.651,2.145,3.278,4.307,4.876,6.492c3.198,4.369,6.294,8.82,9.232,13.392
				c2.932,4.576,5.723,9.264,8.156,14.208c1.214,2.473,2.331,5.016,3.251,7.687c0.9,2.676,1.664,5.475,1.716,8.607L96.333,79.874z
				 M91.729,79.814c-0.007-2.263-0.602-4.746-1.402-7.159c-0.809-2.424-1.834-4.828-2.968-7.194
				c-2.274-4.734-4.95-9.335-7.779-13.842c-2.837-4.506-5.846-8.921-8.962-13.264c-1.558-2.171-3.145-4.323-4.756-6.457
				c-1.61-2.128-3.253-4.258-4.908-6.317l-0.001-0.001l3.094,0c-2.08,2.601-4.132,5.294-6.136,7.99
				c-2.006,2.702-3.971,5.433-5.888,8.195c-3.823,5.528-7.499,11.156-10.793,16.956c-1.64,2.901-3.182,5.849-4.521,8.85
				c-1.327,2.994-2.49,6.07-3.084,9.102c-0.607,2.813-0.289,6.122,0.346,9.133c0.678,3.048,1.887,5.97,3.525,8.627
				c1.662,2.641,3.725,5.044,6.151,7.018c2.411,1.988,5.141,3.592,8.059,4.708c2.885,1.142,6.063,1.77,9.073,1.941
				c0.38,0.026,0.834,0.023,1.248,0.035l0.317,0.007l0.248,0.002l0.586-0.014c0.783,0,1.561-0.073,2.341-0.129
				c1.555-0.16,3.094-0.44,4.605-0.83c3.023-0.784,5.908-2.076,8.531-3.769c2.604-1.718,4.969-3.818,6.909-6.266
				c1.951-2.436,3.506-5.191,4.544-8.135c0.522-1.469,0.938-2.98,1.195-4.521c0.125-0.759,0.253-1.567,0.303-2.3
				c0.081-0.706,0.098-1.581,0.124-2.427L91.729,79.814z"/>
		</g>
		<g>
			<path style="fill:#FFFFFF;" d="M77.976,78.505c0,8.547-6.929,15.476-15.476,15.476s-15.476-6.929-15.476-15.476
				S62.5,50.648,62.5,50.648S77.976,69.958,77.976,78.505z"/>
			<path d="M80.275,78.622l-0.049,1.262l-0.012,0.315l-0.048,0.382l-0.104,0.767l-0.114,0.765l-0.171,0.707
				c-0.123,0.469-0.211,0.949-0.391,1.402c-0.583,1.855-1.514,3.596-2.684,5.148c-1.168,1.556-2.59,2.921-4.195,4.035
				c-1.616,1.1-3.42,1.922-5.308,2.433c-0.941,0.28-1.911,0.412-2.88,0.549l-1.462,0.076l-0.183,0.008l-0.091,0.004l-0.046,0.002
				l-0.023,0.001l-0.148-0.003l-0.315-0.018l-0.63-0.036l-0.631-0.036l-0.776-0.112c-0.506-0.087-1.061-0.139-1.514-0.279
				c-0.472-0.126-0.948-0.242-1.415-0.383l-1.373-0.511c-1.799-0.762-3.469-1.808-4.934-3.088c-1.473-1.271-2.717-2.802-3.681-4.489
				c-0.969-1.684-1.666-3.521-2.061-5.423c-0.15-0.959-0.306-1.917-0.313-2.886l-0.015-0.362l-0.007-0.181l-0.003-0.091
				l-0.002-0.045l-0.001-0.023l0.011-0.234l0.068-0.628c0.059-0.436,0.06-0.799,0.166-1.294c0.466-2.154,1.095-3.814,1.836-5.432
				c0.363-0.815,0.736-1.621,1.153-2.386c0.401-0.78,0.805-1.556,1.246-2.299c1.711-3.019,3.589-5.888,5.57-8.673
				c0.99-1.392,1.995-2.77,3.027-4.127c1.03-1.365,2.068-2.694,3.164-4.043l1.6-1.968l1.522,1.968l0.001,0.001
				c0.876,1.08,1.693,2.144,2.523,3.227c0.821,1.082,1.629,2.175,2.428,3.275c1.59,2.206,3.127,4.458,4.602,6.765l1.082,1.751
				c0.368,0.578,0.695,1.191,1.045,1.785c0.348,0.596,0.69,1.196,1.005,1.821c0.318,0.623,0.659,1.224,0.956,1.867l0.885,1.933
				l0.771,2.04c0.249,0.687,0.41,1.461,0.611,2.191c0.179,0.753,0.219,1.636,0.308,2.451L80.275,78.622z M75.674,78.505
				c-0.082-0.514-0.057-0.987-0.179-1.541c-0.156-0.563-0.242-1.116-0.441-1.693l-0.62-1.738l-0.759-1.743
				c-0.254-0.581-0.567-1.154-0.847-1.733c-0.278-0.58-0.59-1.151-0.908-1.721c-0.321-0.569-0.614-1.147-0.957-1.708l-1.003-1.693
				c-1.376-2.243-2.825-4.456-4.334-6.634c-0.759-1.086-1.526-2.167-2.308-3.239c-0.783-1.063-1.582-2.142-2.378-3.163l-0.001-0.001
				h3.121c-0.992,1.292-1.992,2.646-2.953,3.996c-0.97,1.351-1.912,2.721-2.837,4.099c-0.922,1.38-1.816,2.775-2.686,4.178
				c-0.869,1.402-1.718,2.815-2.494,4.249c-0.409,0.711-0.771,1.434-1.129,2.158c-0.38,0.72-0.703,1.447-1.014,2.176
				c-0.664,1.443-1.123,2.985-1.409,4.113c-0.082,0.324-0.09,0.812-0.139,1.21l-0.059,0.629c-0.009,0.197,0.01-0.246,0.009-0.194
				l0.001,0.017l0.002,0.034l0.004,0.067l0.009,0.134l0.017,0.268c0.009,0.719,0.147,1.422,0.257,2.127
				c0.315,1.393,0.847,2.73,1.573,3.953c0.721,1.226,1.648,2.336,2.741,3.246c1.085,0.918,2.311,1.66,3.621,2.196l0.999,0.357
				l1.027,0.259c0.354,0.11,0.648,0.106,0.97,0.169l0.472,0.078l0.631,0.027l0.631,0.027l0.315,0.014
				c0.035,0.001-0.228-0.006-0.109-0.004l0.017-0.001l0.033-0.002l0.066-0.004l0.132-0.008l1.06-0.051
				c0.697-0.109,1.4-0.191,2.076-0.398c1.356-0.376,2.661-0.948,3.851-1.716c1.175-0.79,2.227-1.765,3.11-2.877
				c0.882-1.111,1.6-2.366,2.055-3.717c0.147-0.327,0.209-0.68,0.311-1.022l0.143-0.516l0.08-0.483l0.087-0.481l0.046-0.242
				l0.02-0.315l0.079-1.26L75.674,78.505z"/>
		</g>
	</g>
</g>
<g id="Layer_1">
</g>
</svg>
