<svg xmlns="http://www.w3.org/2000/svg" viewBox="-2 -2 129.285 129.029" preserveAspectRatio="none"><g id="pana" fill="#FFF" stroke="#000" stroke-miterlimit="10"><ellipse transform="rotate(-35.59 62.647 59.195)" cx="62.643" cy="59.195" rx="63.546" ry="52.84" stroke-width="5"/><path d="M73.45 97.503c22.717-16.26 34.39-44.738 25.015-58.02-9.515-13.48-37.642-7.608-59.515 9.77-25.185 20.01-40.76 50.894-35.25 63.75 4.5 10.5 12.5 9.5 18.25 9.5h68s19.5-.5 19.5-16.5c0-19-36-8.5-36-8.5z" stroke-width="5" stroke-linecap="round" stroke-linejoin="round"/><path d="M24.2 22.753c8.442 10.18 23.09 20.608 23.09 20.608M12.66 37.003c7.17 8.645 19.61 17.5 19.61 17.5" stroke-width="4" stroke-linecap="round" stroke-linejoin="round"/></g><style>ellipse,polygon,polyline,rect,circle,line,path{stroke-width:2;vector-effect:non-scaling-stroke}</style></svg>