<?xml version="1.0" encoding="iso-8859-1"?>
<!-- Generator: Adobe Illustrator 19.2.0, SVG Export Plug-In . SVG Version: 6.00 Build 0)  -->
<!DOCTYPE svg PUBLIC "-//W3C//DTD SVG 1.1//EN" "http://www.w3.org/Graphics/SVG/1.1/DTD/svg11.dtd">
<svg version="1.1" xmlns="http://www.w3.org/2000/svg" xmlns:xlink="http://www.w3.org/1999/xlink" x="0px" y="0px"
	 viewBox="0 0 124.956 124.935" style="enable-background:new 0 0 124.956 124.935;" xml:space="preserve">
<g id="pakala">
	<g id="pakala_2_">
		<polygon style="fill:#FFFFFF;" points="23.743,64.071 25.958,102.857 107.458,103.201 87.458,59.807 		"/>
		<g>
			<path style="fill:#FFFFFF;" d="M73.294,94.973c18.333,0,42.164-3.665,42.164,11.669c0,17.999-24.338,15.666-61.004,15.666
				c-37.662,0-51.995-23-51.995-60c0-33.137,26.863-60,60-60h14.836c24.944,0,45.164,17.386,45.164,38.833s-10.497,34.831-37,34.831
				c0,0-32.333-1.497-42.081-1.497c-6.253,0-10.583,4.738-10.583,10.583c0,5.845,4.738,9.583,10.583,9.583
				C43.378,94.64,54.961,94.973,73.294,94.973z"/>
			<path d="M73.288,92.973c0,0,0.529-0.009,1.555-0.025c1.026-0.032,2.547-0.078,4.533-0.14c2.003-0.079,4.472-0.176,7.376-0.291
				c2.921-0.095,6.293-0.2,10.132-0.065c1.92,0.072,3.957,0.208,6.119,0.518c2.158,0.317,4.455,0.791,6.829,1.777
				c1.183,0.5,2.385,1.144,3.521,2.026c1.132,0.88,2.185,2.018,2.96,3.37c0.779,1.346,1.27,2.866,1.482,4.372
				c0.118,0.773,0.155,1.472,0.161,2.293c-0.012,0.342,0,0.592-0.032,1.016c-0.022,0.393-0.05,0.784-0.097,1.151
				c-0.163,1.495-0.545,3.05-1.204,4.553c-0.669,1.5-1.641,2.92-2.833,4.101c-2.405,2.383-5.435,3.769-8.433,4.698
				c-6.059,1.811-12.361,2.217-18.842,2.463c-6.487,0.211-13.182,0.142-20.091,0.088c-3.449-0.023-6.956-0.046-10.517-0.069
				l-1.336-0.003l-1.394-0.026c-0.907-0.027-1.778-0.018-2.725-0.075c-0.945-0.058-1.893-0.116-2.845-0.174
				c-0.938-0.096-1.88-0.193-2.825-0.29c-7.518-0.903-15.347-3.049-22.281-7.465C15.56,112.4,9.969,105.658,6.527,98.022
				c-3.515-7.64-5.254-15.987-6.032-24.367c-0.379-4.218-0.548-8.387-0.481-12.705l0.038-1.563c0.016-0.525,0.073-1.097,0.109-1.644
				c0.071-1.111,0.166-2.213,0.32-3.284l0.205-1.623l0.283-1.613l0.293-1.613l0.367-1.6c1.969-8.536,5.844-16.7,11.272-23.696
				c5.415-7.001,12.322-12.9,20.178-17.058c7.849-4.164,16.597-6.605,25.416-7.125c2.21-0.132,4.427-0.137,6.517-0.128
				c2.122,0.003,4.242,0.006,6.359,0.008c2.133,0.006,4.263,0.012,6.39,0.018c2.042,0.012,4.409,0.183,6.541,0.447
				c8.705,1.08,17.132,4.296,24.11,9.488c6.958,5.158,12.508,12.376,14.98,20.645c0.61,2.06,1.048,4.161,1.317,6.277
				c0.091,1.062,0.215,2.12,0.221,3.181l0.023,0.795l0.006,0.199l0,0.23l-0.008,0.37l-0.031,1.476
				c-0.165,4.166-0.689,8.206-1.881,12.169c-1.149,3.946-3.07,7.714-5.684,10.888c-2.599,3.194-5.918,5.687-9.437,7.438
				c-3.526,1.772-7.244,2.817-10.902,3.483c-3.669,0.63-7.3,0.871-10.844,0.875c-6.934-0.299-13.634-0.587-20.066-0.864
				c-6.395-0.261-12.527-0.494-18.34-0.617c-1.452-0.029-2.881-0.05-4.28-0.054l-0.965,0.043c-0.363,0.015-0.543,0.083-0.824,0.111
				c-0.524,0.095-1.106,0.246-1.617,0.449c-2.095,0.795-3.713,2.427-4.54,4.366c-0.419,0.967-0.652,2.003-0.716,3.041l-0.018,0.39
				l-0.01,0.194c-0.005-0.171,0.002,0.02,0.002,0.012l0.006,0.117c0.019,0.3,0.024,0.648,0.053,0.905
				c0.042,0.211,0.076,0.421,0.104,0.633l0.184,0.691c0.568,1.811,1.863,3.229,3.46,4.101c0.793,0.448,1.67,0.739,2.554,0.922
				c0.438,0.112,0.893,0.14,1.335,0.2c0.493,0.018,0.981,0.036,1.463,0.053c2.058,0.047,4.021,0.091,5.884,0.133
				c7.459,0.119,13.325,0.144,17.323,0.155c3.999,0.002,6.131,0.003,6.131,0.003L73.288,92.973z M73.294,96.973
				c0,0-2.138-0.008-6.148-0.023c-4.01-0.023-9.889-0.071-17.376-0.207c-1.873-0.037-3.847-0.075-5.917-0.115
				c-0.549-0.019-1.105-0.039-1.667-0.059c-0.605-0.07-1.219-0.119-1.832-0.265c-1.227-0.251-2.471-0.66-3.647-1.312
				c-2.354-1.253-4.475-3.519-5.367-6.38l-0.289-1.079c-0.061-0.396-0.122-0.794-0.183-1.193c-0.037-0.358-0.038-0.633-0.059-0.956
				l-0.014-0.339l0.012-0.275l0.026-0.552c0.094-1.472,0.43-2.97,1.05-4.389c1.212-2.844,3.676-5.32,6.775-6.477
				c0.778-0.299,1.548-0.506,2.403-0.655c0.415-0.056,0.926-0.144,1.269-0.155l0.53-0.025l0.266-0.012l0.133-0.006l0.23-0.002
				c1.445,0.008,2.897,0.033,4.364,0.066c5.862,0.152,12.001,0.367,18.409,0.609c3.203,0.128,6.472,0.259,9.804,0.392
				c1.666,0.07,3.347,0.141,5.044,0.213c0.848,0.035,1.7,0.071,2.556,0.106l1.287,0.047l0.551,0.019l0.629-0.016
				c6.685-0.134,13.692-1.096,19.766-4.249c3.017-1.569,5.736-3.705,7.841-6.41c2.129-2.684,3.66-5.885,4.641-9.34
				c1.004-3.434,1.451-7.187,1.559-10.876l0.015-1.477l0.004-0.37c0.001-0.097,0.001-0.076-0.001-0.14l-0.005-0.171l-0.02-0.686
				c-0.001-0.917-0.113-1.828-0.185-2.744c-0.233-1.823-0.608-3.635-1.131-5.416c-2.156-7.115-6.853-13.572-13.082-18.256
				c-6.214-4.718-13.848-7.737-21.811-8.8c-2.043-0.238-3.882-0.381-6.06-0.395c-2.093,0-4.19,0-6.29,0
				c-2.117,0.003-4.237,0.006-6.359,0.008c-2.154-0.002-4.191,0.008-6.226,0.139C50.619,5.286,42.562,7.6,35.339,11.484
				c-7.233,3.87-13.58,9.347-18.542,15.822c-4.991,6.467-8.461,14.007-10.315,21.84L6.14,50.616L5.869,52.1l-0.266,1.483
				l-0.191,1.494c-0.148,1.001-0.232,1.982-0.297,2.956c-0.033,0.495-0.089,0.962-0.105,1.479l-0.041,1.563
				c-0.072,4.013,0.082,8.141,0.434,12.131c0.718,8.003,2.362,15.829,5.542,22.775c3.154,6.944,8.077,12.79,14.201,16.648
				c6.126,3.882,13.21,5.848,20.221,6.671c0.881,0.088,1.759,0.177,2.633,0.264c0.868,0.051,1.732,0.102,2.594,0.153
				c0.86,0.054,1.794,0.043,2.682,0.068l1.296,0.022l1.343,0c3.571,0.014,7.087,0.028,10.545,0.042
				c6.904,0.035,13.558,0.083,19.879-0.14c6.291-0.256,12.365-0.677,17.527-2.22c2.56-0.773,4.832-1.894,6.375-3.43
				c1.558-1.518,2.365-3.476,2.613-5.664c0.038-0.278,0.055-0.534,0.071-0.785c0.026-0.219,0.02-0.613,0.032-0.911
				c0-0.458-0.008-1.032-0.078-1.505c-0.118-0.989-0.396-1.869-0.817-2.639c-0.825-1.54-2.34-2.666-4.113-3.452
				c-1.775-0.784-3.734-1.256-5.649-1.573c-1.921-0.317-3.815-0.485-5.627-0.59c-3.629-0.204-6.934-0.174-9.816-0.14
				c-2.9,0.053-5.366,0.099-7.366,0.136c-2.018,0.02-3.565,0.035-4.608,0.045c-1.043-0.005-1.582-0.008-1.582-0.008L73.294,96.973z"
				/>
		</g>
		<g>
			<path d="M38.077,92.746l11.116-18.929c0.559-0.952,1.785-1.271,2.737-0.712c0.318,0.187,0.569,0.455,0.736,0.755L63.7,93.762
				l-3.485-0.023l10.85-18.97c0.548-0.959,1.77-1.292,2.729-0.743c0.318,0.182,0.571,0.446,0.742,0.742l10.825,18.888l-3.454-0.028
				l11.337-19.049c0.565-0.949,1.792-1.261,2.742-0.696c0.351,0.209,0.614,0.507,0.778,0.849l9.706,20.1
				c0.48,0.995,0.063,2.19-0.931,2.671c-0.995,0.48-2.19,0.063-2.671-0.931l-9.706-20.1l3.52,0.153L85.345,95.673
				c-0.565,0.949-1.792,1.261-2.742,0.696c-0.304-0.181-0.547-0.438-0.712-0.724L71.066,76.756l3.471-0.002l-10.85,18.97
				c-0.548,0.959-1.77,1.292-2.729,0.743c-0.327-0.187-0.585-0.46-0.756-0.766L49.169,75.799l3.474,0.043L41.526,94.771
				c-0.559,0.952-1.785,1.271-2.737,0.712C37.836,94.924,37.517,93.698,38.077,92.746z"/>
		</g>
	</g>
</g>
<g id="Layer_1">
</g>
</svg>
