<?xml version="1.0" encoding="iso-8859-1"?>
<!-- Generator: Adobe Illustrator 19.2.0, SVG Export Plug-In . SVG Version: 6.00 Build 0)  -->
<!DOCTYPE svg PUBLIC "-//W3C//DTD SVG 1.1//EN" "http://www.w3.org/Graphics/SVG/1.1/DTD/svg11.dtd">
<svg version="1.1" xmlns="http://www.w3.org/2000/svg" xmlns:xlink="http://www.w3.org/1999/xlink" x="0px" y="0px"
	 viewBox="0 0 128.246 124.997" style="enable-background:new 0 0 128.246 124.997;" xml:space="preserve">
<g id="toki">
	<g id="toki_2_">
		<g>
			<path style="fill:#FFFFFF;" d="M108.752,58.248c16.25,34-13.113,64.25-46.25,64.25s-60-26.863-60-60V45.755
				c0-28.257,27.59-43.257,61.625-43.257c38.625,0,61.625,14.439,61.625,32.25s-19.751,39.501-80,14.25"/>
			<path d="M110.571,57.416c0,0,0.208,0.401,0.612,1.178c0.395,0.78,0.991,2.078,1.653,3.695c1.255,3.282,2.915,8.358,2.993,15.098
				c0.134,6.679-1.634,15.035-6.628,22.932c-4.924,7.892-12.998,15.164-23.374,19.743c-5.179,2.284-10.915,3.903-16.984,4.583
				c-1.517,0.164-3.053,0.274-4.605,0.326l-1.166,0.02l-0.647,0.007l-0.56-0.014c-0.748-0.019-1.498-0.038-2.252-0.057
				c-3.191-0.172-6.366-0.536-9.532-1.167c-12.669-2.521-25.264-9.406-34.552-20.057C6.181,93.163,0.3,78.846,0.04,64.012
				c-0.068-1.884-0.025-3.597-0.037-5.401c0-1.784,0-3.571,0-5.36c0-1.789,0-3.582,0-5.376v-1.346v-0.673l0.019-0.751l0.041-1.347
				l0.021-0.674l0.065-0.733c0.306-3.921,1.129-7.641,2.526-11.27c1.381-3.609,3.349-6.997,5.765-9.994
				c4.824-6.032,11.216-10.522,17.996-13.65c6.8-3.149,14.003-5.095,21.209-6.203c7.196-1.113,14.489-1.408,21.515-1.143
				C76.277,0.32,83.26,1.07,90.067,2.487c6.788,1.439,13.394,3.53,19.449,6.684c3.021,1.579,5.898,3.429,8.508,5.615
				c2.59,2.207,4.911,4.765,6.702,7.686c1.759,2.933,2.987,6.224,3.353,9.599c0.403,3.391,0.057,6.655-0.802,9.775
				c-0.859,3.109-2.301,6.002-4.155,8.503c-1.859,2.501-4.126,4.598-6.568,6.258c-4.907,3.355-10.394,4.893-15.495,5.641
				c-5.139,0.721-10.017,0.633-14.522,0.234c-4.508-0.423-8.654-1.192-12.433-2.055c-3.78-0.864-7.199-1.832-10.244-2.814
				c-6.096-1.953-10.747-3.823-13.89-5.152c-1.573-0.66-2.771-1.183-3.576-1.542c-0.806-0.355-1.222-0.538-1.222-0.538
				c-0.758-0.334-1.102-1.219-0.768-1.978c0.323-0.734,1.164-1.08,1.905-0.798l0.023,0.009c0,0,0.419,0.16,1.23,0.471
				c0.81,0.315,2.015,0.771,3.595,1.343c3.161,1.134,7.807,2.781,13.813,4.476c6.004,1.645,13.394,3.462,21.937,4.081
				c4.258,0.312,8.81,0.31,13.447-0.417c4.617-0.732,9.349-2.242,13.422-5.026c2.029-1.39,3.866-3.11,5.364-5.139
				c1.491-2.03,2.646-4.365,3.333-6.889c0.686-2.502,0.957-5.261,0.639-7.86c-0.282-2.631-1.239-5.204-2.661-7.59
				c-1.457-2.373-3.403-4.54-5.655-6.461c-2.274-1.904-4.845-3.566-7.597-5.003c-5.515-2.875-11.715-4.858-18.159-6.221
				c-6.45-1.346-13.208-2.073-20.013-2.291C62.133,4.83,55.269,5.12,48.411,6.175c-6.834,1.049-13.602,2.893-19.867,5.796
				c-6.256,2.883-11.978,6.957-16.195,12.233C8.081,29.417,5.65,36.025,5.14,42.629l-0.059,0.61L5.06,43.913L5.019,45.26
				l-0.016,0.596v0.673v1.346c0,1.794,0,3.586,0,5.376c0,1.789,0,3.576,0,5.36c0.012,1.764-0.029,3.613,0.036,5.281
				c0.24,13.658,5.643,26.804,14.247,36.51c8.551,9.806,20.138,16.136,31.783,18.454c2.923,0.582,5.842,0.91,8.67,1.07
				c0.753,0.019,1.504,0.038,2.252,0.057l0.56,0.014l0.471-0.008l1.064-0.018c1.415-0.048,2.818-0.148,4.203-0.298
				c5.542-0.62,10.788-2.102,15.517-4.187c9.48-4.182,16.781-10.801,21.162-17.83c2.218-3.508,3.72-7.116,4.642-10.559
				c0.921-3.448,1.267-6.729,1.28-9.69c-0.013-5.941-1.248-10.56-2.219-13.628c-0.508-1.559-0.917-2.656-1.244-3.468
				c-0.325-0.813-0.492-1.233-0.492-1.233c-0.41-1.027,0.09-2.192,1.117-2.602C109.013,56.095,110.1,56.518,110.571,57.416z"/>
		</g>
		<g>
			
				<ellipse transform="matrix(0.7121 -0.7021 0.7021 0.7121 -12.6331 31.9391)" style="fill:#FFFFFF;" cx="32.627" cy="31.373" rx="12.375" ry="12.375"/>
			<path d="M42.479,41.492c0,0-0.226,0.203-0.65,0.583c-0.114,0.097-0.206,0.196-0.373,0.323c-0.17,0.127-0.356,0.265-0.557,0.414
				c-0.405,0.318-0.872,0.606-1.397,0.9c-1.058,0.585-2.423,1.205-4.089,1.526c-1.655,0.335-3.601,0.419-5.644-0.009
				c-2.035-0.43-4.155-1.369-6.015-2.865c-0.238-0.179-0.446-0.396-0.672-0.596l-0.333-0.308l-0.167-0.155l-0.196-0.216
				c-0.356-0.418-0.698-0.753-1.103-1.344c-0.816-1.076-1.349-2.175-1.83-3.398c-0.461-1.215-0.714-2.517-0.837-3.841
				c-0.094-1.329,0.012-2.679,0.278-4.008c0.29-1.326,0.786-2.61,1.432-3.818c0.668-1.199,1.526-2.284,2.487-3.259
				c0.598-0.517,0.872-0.82,1.543-1.285c0.586-0.455,1.18-0.777,1.773-1.114c1.22-0.612,2.51-1.073,3.834-1.327
				c1.326-0.23,2.668-0.301,3.981-0.174c1.307,0.155,2.587,0.438,3.774,0.923c2.366,0.924,4.415,2.6,5.786,4.314
				c0.766,1,1.379,1.943,1.811,2.965c0.468,1.001,0.772,2.03,1.002,3.03c0.415,2.014,0.334,3.937,0.007,5.577
				c-0.315,1.652-0.929,3.009-1.51,4.064c-0.296,0.529-0.579,0.989-0.87,1.36c-0.273,0.384-0.512,0.705-0.738,0.938
				c-0.433,0.483-0.664,0.741-0.664,0.741L42.479,41.492z M40.087,38.939c0,0,0.179-0.19,0.516-0.546
				c0.18-0.169,0.364-0.408,0.578-0.692c0.232-0.272,0.453-0.614,0.689-1.007c0.461-0.785,0.966-1.798,1.242-3.056
				c0.286-1.248,0.398-2.727,0.131-4.3c-0.162-0.777-0.348-1.594-0.715-2.374c-0.314-0.8-0.83-1.566-1.307-2.238
				c-0.118-0.175-0.331-0.387-0.493-0.581l-0.263-0.299l-0.132-0.15c-0.052-0.055,0.052,0.054,0.035,0.038L40.35,23.72l-0.033-0.029
				l-0.066-0.059c-0.355-0.31-0.687-0.656-1.09-0.922c-0.755-0.599-1.64-1.046-2.56-1.424c-0.928-0.371-1.93-0.574-2.948-0.69
				c-1.024-0.087-2.067-0.018-3.095,0.168c-1.025,0.209-2.017,0.58-2.955,1.058c-0.454,0.269-0.926,0.53-1.295,0.829
				c-0.348,0.202-0.924,0.778-1.247,1.051c-0.728,0.771-1.376,1.612-1.874,2.537c-0.475,0.935-0.842,1.92-1.049,2.937
				c-0.183,1.019-0.251,2.051-0.164,3.062c0.115,1.005,0.316,1.992,0.681,2.904c0.36,0.886,0.841,1.811,1.369,2.471
				c0.2,0.327,0.629,0.762,0.975,1.152l0.067,0.074l0.034,0.037l0.017,0.019c0.019,0.021-0.104-0.112-0.044-0.049l0.128,0.115
				l0.254,0.23c0.172,0.148,0.326,0.317,0.508,0.448c1.408,1.112,2.994,1.803,4.521,2.119c1.534,0.304,2.992,0.244,4.234,0.007
				c1.252-0.228,2.273-0.693,3.069-1.124c0.405-0.224,0.747-0.43,0.992-0.625c0.133-0.093,0.257-0.179,0.37-0.257
				c0.115-0.08,0.246-0.211,0.349-0.298c0.426-0.377,0.654-0.579,0.654-0.579L40.087,38.939z"/>
		</g>
		<circle cx="34.128" cy="30.123" r="5.458"/>
		<g>
			<path d="M96.727,60.233c0,0,0.024,0.127,0.07,0.372c0.04,0.237,0.1,0.588,0.177,1.046c0.144,0.911,0.338,2.24,0.517,3.932
				c0.361,3.383,0.742,8.218,0.802,14.021c0.004,0.375,0.007,0.754,0.011,1.136c-0.005,0.369-0.011,0.742-0.017,1.119
				c-0.033,0.828-0.096,1.651-0.19,2.465c-0.199,1.643-0.54,3.334-1.074,5.025c-1.057,3.377-2.909,6.776-5.632,9.608
				c-2.697,2.844-6.273,5.062-10.216,6.223c-1.969,0.584-4.017,0.926-6.072,1.035c-0.53,0.009-0.991,0.033-1.58,0.024
				c-0.496-0.022-0.916-0.008-1.476-0.059c-1.088-0.076-2.096-0.19-3.121-0.394c-4.089-0.746-7.989-2.571-11.155-5.163
				c-3.188-2.581-5.621-5.909-7.212-9.434c-1.581-3.54-2.297-7.269-2.378-10.776c-0.024-0.898,0.001-1.715,0.011-2.507
				c0.018-0.805,0.035-1.598,0.052-2.377c0.039-1.575,0.109-3.083,0.175-4.532c0.318-5.795,0.851-10.603,1.295-13.962
				c0.222-1.68,0.421-2.998,0.568-3.899c0.155-0.91,0.238-1.396,0.238-1.396c0.139-0.816,0.914-1.365,1.731-1.226
				c0.801,0.137,1.345,0.886,1.233,1.685l-0.008,0.054c0,0-0.065,0.462-0.187,1.327c-0.118,0.877-0.276,2.171-0.446,3.823
				c-0.35,3.303-0.708,8.047-0.9,13.744c-0.042,1.425-0.087,2.91-0.1,4.435c-0.004,0.771-0.009,1.554-0.014,2.35
				c0.002,0.809-0.008,1.617,0.027,2.366c0.12,3.071,0.805,6.288,2.204,9.301c1.381,3.013,3.467,5.826,6.168,7.987
				c2.685,2.171,5.959,3.684,9.42,4.296c0.856,0.169,1.759,0.259,2.581,0.316c0.394,0.042,0.934,0.03,1.393,0.048
				c0.368,0.003,0.862-0.021,1.287-0.027c1.759-0.083,3.49-0.363,5.143-0.841c3.308-0.952,6.268-2.764,8.535-5.12
				c2.291-2.343,3.855-5.203,4.84-8.076c0.487-1.443,0.813-2.902,1.014-4.332c0.097-0.725,0.163-1.42,0.206-2.087
				c0.013-0.371,0.025-0.739,0.038-1.103c0.003-0.351,0.006-0.699,0.01-1.043c0.024-5.701-0.143-10.446-0.402-13.743
				c-0.127-1.649-0.25-2.938-0.351-3.807c-0.111-0.852-0.17-1.306-0.17-1.306l-0.007-0.057c-0.107-0.821,0.473-1.573,1.294-1.68
				C95.852,58.923,96.579,59.46,96.727,60.233z"/>
		</g>
		<g>
			<path d="M96.624,70.552c0,0-0.711,0.146-1.954,0.402c-1.266,0.245-3.053,0.597-5.228,0.894
				c-4.338,0.636-10.174,1.126-16.016,1.142c-0.727-0.005-1.455-0.009-2.179-0.014c-0.732-0.019-1.462-0.038-2.185-0.057
				c-1.44-0.046-2.858-0.13-4.228-0.23c-2.741-0.211-5.285-0.542-7.453-0.871c-2.168-0.332-3.955-0.693-5.204-0.941
				c-1.246-0.258-1.958-0.405-1.958-0.405l0.568-2.946c0,0,2.82,0.518,7.052,1.052c2.114,0.277,4.585,0.526,7.238,0.692
				c1.326,0.087,2.698,0.158,4.095,0.192c0.695,0.013,1.396,0.026,2.099,0.04c0.711-0.001,1.426-0.001,2.14-0.002
				c2.846-0.02,5.691-0.106,8.353-0.279c2.661-0.184,5.142-0.389,7.26-0.638c2.116-0.251,3.887-0.479,5.106-0.67
				c1.239-0.197,1.946-0.309,1.946-0.309L96.624,70.552z"/>
		</g>
		<g>
			<path d="M96.624,83.302c0,0-0.714,0.147-1.963,0.405c-1.272,0.249-3.068,0.6-5.253,0.898c-4.359,0.638-10.224,1.13-16.095,1.131
				c-1.469,0.002-2.915-0.017-4.372-0.058c-1.442-0.037-2.863-0.1-4.238-0.182c-2.749-0.178-5.312-0.451-7.499-0.746
				c-2.187-0.299-3.995-0.637-5.257-0.88c-1.259-0.255-1.979-0.4-1.979-0.4l0.568-2.946c0,0,0.705,0.115,1.94,0.315
				c1.235,0.194,3.003,0.438,5.13,0.67c4.249,0.488,9.957,0.788,15.693,0.743c2.86-0.029,5.719-0.107,8.394-0.282
				c2.674-0.181,5.166-0.396,7.296-0.64c2.126-0.25,3.906-0.482,5.131-0.67c1.245-0.197,1.956-0.309,1.956-0.309L96.624,83.302z"/>
		</g>
	</g>
</g>
<g id="Layer_1">
</g>
</svg>
