<?xml version="1.0" encoding="iso-8859-1"?>
<!-- Generator: Adobe Illustrator 19.2.0, SVG Export Plug-In . SVG Version: 6.00 Build 0)  -->
<!DOCTYPE svg PUBLIC "-//W3C//DTD SVG 1.1//EN" "http://www.w3.org/Graphics/SVG/1.1/DTD/svg11.dtd">
<svg version="1.1" xmlns="http://www.w3.org/2000/svg" xmlns:xlink="http://www.w3.org/1999/xlink" x="0px" y="0px"
	 viewBox="0 0 125 126.473" style="enable-background:new 0 0 125 126.473;" xml:space="preserve">
<g id="o">
	<g id="o_1_">
		<ellipse style="fill:#FFFFFF;stroke:#000000;stroke-width:5;stroke-miterlimit:10;" cx="62.5" cy="80.973" rx="60" ry="43"/>
		<g>
			<g>
				<path style="fill:#FFFFFF;" d="M87.922,4.032c13.199,6.027,21.953,16.608,21.953,28.655c0,18.751-21.211,33.953-47.376,33.953
					S15.124,51.439,15.124,32.687c0-12.088,8.814-22.639,22.087-28.655l12.621,15.967L62.5,4.032l12.538,15.967L87.922,4.032z"/>
				<path d="M89.02,1.786c0.965,0.496,1.888,0.915,2.887,1.474c0.995,0.568,2.019,1.114,2.942,1.739
					c1.916,1.173,3.699,2.568,5.433,4.014c1.681,1.513,3.326,3.086,4.74,4.884c0.752,0.856,1.373,1.827,2.047,2.75
					c0.586,0.988,1.243,1.931,1.731,2.981c2.158,4.091,3.315,8.68,3.25,13.431c-0.027,0.542-0.032,1.048-0.076,1.619l-0.198,1.802
					l-0.312,1.713c-0.126,0.565-0.28,1.125-0.42,1.686c-0.63,2.229-1.538,4.365-2.659,6.361c-2.247,3.999-5.312,7.436-8.777,10.276
					c-3.46,2.863-7.339,5.131-11.389,6.932c-4.061,1.782-8.308,3.092-12.636,3.936c-4.34,0.876-8.697,1.238-13.163,1.256
					c-1.083-0.031-2.101-0.005-3.239-0.083l-1.672-0.088l-1.644-0.147c-2.191-0.206-4.375-0.519-6.536-0.957
					c-4.327-0.849-8.573-2.166-12.63-3.957c-4.047-1.807-7.924-4.081-11.377-6.953c-3.457-2.85-6.52-6.29-8.751-10.3
					c-2.233-3.992-3.588-8.587-3.623-13.246l-0.008-0.218l0.01-0.3l0.016-0.4l0.032-0.8l0.032-0.8l0.107-0.894
					c0.081-0.597,0.146-1.209,0.249-1.793l0.38-1.701c0.591-2.24,1.382-4.441,2.491-6.461l0.394-0.77l0.447-0.736
					c0.302-0.488,0.592-0.986,0.907-1.465c0.674-0.923,1.305-1.886,2.06-2.74c1.425-1.789,3.073-3.357,4.764-4.859
					c3.45-2.925,7.296-5.311,11.344-7.21l0.009-0.004l1.824-0.829l1.169,1.556l12.225,16.271l0.004,0.005l-3.136-0.003L60.539,2.482
					l0.003-0.003L62.609,0l1.857,2.488L76.61,18.762l0.001,0.002l-3.129-0.021L87.21,0.855L89.02,1.786z M88.573,7.129
					L76.595,21.255l-1.656,1.953l-1.474-1.974l-0.001-0.002L60.534,5.576l3.924,0.01L64.456,5.59L51.399,21.242l-1.649,1.977
					l-1.487-1.98l-0.004-0.005L35.25,5.582l2.993,0.727l-0.008,0.004c-3.716,1.658-7.225,3.752-10.344,6.294
					c-1.521,1.306-3.01,2.662-4.275,4.197c-0.68,0.733-1.229,1.557-1.835,2.342c-0.279,0.407-0.532,0.83-0.801,1.244l-0.399,0.624
					l-0.345,0.651c-0.981,1.71-1.648,3.562-2.171,5.435l-0.336,1.421c-0.086,0.465-0.134,0.917-0.208,1.376L17.42,30.59l-0.041,0.8
					l-0.041,0.8l-0.02,0.4l-0.005,0.1l-0.003,0.05c0-0.028-0.004,0.133,0-0.05l0.006,0.182c-0.012,3.901,1.073,7.768,2.962,11.242
					c1.882,3.486,4.559,6.58,7.684,9.158c3.108,2.606,6.66,4.714,10.4,6.399c3.751,1.671,7.709,2.918,11.76,3.727
					c2.023,0.419,4.072,0.719,6.132,0.92l1.546,0.144l1.527,0.086c0.993,0.077,2.114,0.059,3.165,0.092
					c4.072-0.034,8.269-0.388,12.301-1.224c4.053-0.804,8.012-2.044,11.767-3.708c3.743-1.681,7.298-3.782,10.412-6.381
					c3.134-2.569,5.813-5.661,7.71-9.139c1.901-3.49,3.005-7.281,3.001-11.284c-0.002-3.792-0.982-7.74-2.873-11.171
					c-0.425-0.886-1.02-1.687-1.531-2.528c-0.606-0.786-1.146-1.616-1.824-2.351c-1.256-1.543-2.742-2.903-4.253-4.218
					c-1.571-1.254-3.181-2.474-4.932-3.497c-0.857-0.558-1.732-0.994-2.598-1.475C89.327,7.477,88.95,7.311,88.573,7.129z"/>
			</g>
			
				<circle style="fill:#FFFFFF;stroke:#000000;stroke-width:4;stroke-linecap:round;stroke-linejoin:round;stroke-miterlimit:10;" cx="62.328" cy="39.163" r="12.408"/>
			<circle cx="62.328" cy="39.163" r="5.516"/>
		</g>
		<g>
			<path style="fill:#FFFFFF;" d="M27.314,69.776c9.074-6.275,21.451-10.138,35.094-10.138c13.394,0,25.567,3.723,34.594,9.797"/>
			<path d="M26.488,68.525c0,0,0.232-0.17,0.667-0.489c0.437-0.316,1.051-0.795,1.96-1.363c0.886-0.591,1.963-1.229,3.226-1.94
				c1.267-0.698,2.72-1.452,4.36-2.145c1.631-0.716,3.437-1.398,5.375-2.037c1.94-0.628,4.01-1.229,6.191-1.67
				c4.348-0.957,9.09-1.441,13.829-1.485c1.259,0.01,2.295,0.019,3.52,0.084c1.202,0.056,2.388,0.135,3.543,0.255
				c2.325,0.212,4.598,0.574,6.777,1.022c2.186,0.415,4.259,1.009,6.207,1.607c1.939,0.635,3.758,1.277,5.392,1.989
				c1.648,0.674,3.109,1.412,4.382,2.099c1.27,0.694,2.361,1.327,3.232,1.894c0.887,0.54,1.542,1.031,1.996,1.352
				c0.452,0.323,0.694,0.495,0.694,0.495c0.674,0.481,0.831,1.418,0.35,2.092c-0.45,0.631-1.3,0.809-1.96,0.434l-0.065-0.037
				c0,0-0.242-0.139-0.696-0.398c-0.451-0.263-1.116-0.641-1.98-1.094c-1.71-0.932-4.241-2.1-7.368-3.26
				c-1.557-0.597-3.29-1.12-5.13-1.633c-1.851-0.476-3.814-0.935-5.869-1.294c-2.05-0.383-4.192-0.64-6.373-0.838
				c-1.097-0.105-2.186-0.168-3.272-0.212c-1.061-0.055-2.325-0.052-3.363-0.059c-2.227,0.009-4.452,0.111-6.632,0.322
				c-2.176,0.232-4.32,0.485-6.364,0.896c-2.049,0.385-4.014,0.839-5.855,1.349c-1.839,0.518-3.559,1.08-5.113,1.682
				c-3.109,1.184-5.645,2.399-7.313,3.334c-0.83,0.443-1.524,0.853-1.985,1.131c-0.464,0.275-0.712,0.421-0.712,0.421
				c-0.714,0.423-1.635,0.187-2.058-0.527C25.687,69.833,25.875,68.977,26.488,68.525z"/>
		</g>
	</g>
</g>
<g id="Layer_1">
</g>
</svg>
