<svg xmlns="http://www.w3.org/2000/svg" viewBox="-2 -2 129 129"><g id="lukin" stroke="#000" stroke-linecap="round" stroke-linejoin="round" stroke-miterlimit="10"><path d="M88.497 2.5c19.003 0 34.003 13.43 34.003 30 0 29.667-27.44 30-36.004 30 8.563 0 36.004.333 36.004 30 0 16.57-14.333 30-34.003 30H62.5c-33.137 0-60-26.863-60-60s26.863-60 60-60h25.997z" fill="#FFF" stroke-width="5"/><path d="M24.25 36.25c25 25 39.5 26.25 62.246 26.25" fill="none" stroke-width="4"/><path d="M20.51 68.913c8.578-10.605 17.24-12.956 28.48-13.41M38.643 82.02C47.87 67.962 58.207 64.018 71.94 62.086" fill="none" stroke-width="3"/><ellipse cx="71.125" cy="31" rx="24.875" ry="21" fill="none" stroke-width="4"/><circle cx="71.125" cy="31" r="6.875" fill="none" stroke-width="3"/></g><style>path{stroke-width:2;vector-effect:non-scaling-stroke}</style></svg>