<svg xmlns="http://www.w3.org/2000/svg" viewBox="-2 -2 128.81799999999998 133.268" preserveAspectRatio="none"><g id="kili" stroke="#000" stroke-width="5" stroke-miterlimit="10"><ellipse transform="rotate(-38.776 62.46 64.478)" cx="62.457" cy="64.478" rx="63.889" ry="53" fill="#FFF"/><path d="M57.027 9.045c10.942 14.092 5.453 30.606-8.64 41.548s-31.45 12.17-42.392-1.923C2.348 43.973.68 33.966 5.38 30.318s13.35-.365 16.997 4.333c-3.647-4.696-4.684-13.893.013-17.54s13.35-.365 16.998 4.333c-3.65-4.697-4.686-13.894.012-17.54s13.98.445 17.627 5.142z" fill="#FFF" stroke-linecap="round" stroke-linejoin="round"/><path d="M84.98 114.688c.996 3.83 1.124 7.95.21 12.08M110.2 95.072c3.83.996 7.948 1.124 12.08.21M97.263 104.553l8.553 8.553" fill="none" stroke-linecap="round" stroke-linejoin="round"/></g><style>ellipse,polygon,polyline,rect,circle,line,path{stroke-width:2;vector-effect:non-scaling-stroke}</style></svg>