<svg xmlns="http://www.w3.org/2000/svg" viewBox="-2 -2 128.659 129.333"><g id="ni" stroke="#000" stroke-miterlimit="10"><path d="M43.195 118.633c-13.35 5.97-29.18 1.683-36.947-10.65-8.54-13.557-1.713-35.4 12.662-40.9-6.25-1.824-11.75-8.5-10.75-15.25C9.642 41.827 19.786 37.96 33.536 39.96c-7.626-11.876.374-24.375 17.457-22.126L64.66 19.19l3.328 27.644-24.793 71.8z" fill="#FFF" stroke-width="5" stroke-linecap="round" stroke-linejoin="round"/><path d="M122.16 72.996v27.92c0 12.104-9.813 21.917-21.918 21.917H56.41c-12.105 0-21.918-9.812-21.918-21.917v-27.92c0-24.208 19.625-43.833 43.833-43.833s43.834 19.625 43.834 43.833z" fill="#FFF" stroke-width="5"/><circle cx="64.659" cy="16.167" r="13.667" fill="#FFF" stroke-width="5"/><circle cx="92.993" cy="16.167" r="13.667" fill="#FFF" stroke-width="5"/><path d="M121.924 62.905c-9.54 7.825-25.195 12.927-42.89 12.927-18.143 0-34.142-5.365-43.603-13.53M121.924 81.405c-9.54 7.825-25.195 12.927-42.89 12.927-18.143 0-34.142-5.365-43.603-13.53" fill="none" stroke-width="4" stroke-linecap="round" stroke-linejoin="round"/></g><style>path{stroke-width:2;vector-effect:non-scaling-stroke}</style></svg>