<svg xmlns="http://www.w3.org/2000/svg" viewBox="-2 -2 129.04500000000002 129.25"><g id="walo"><circle cx="62.587" cy="57.239" r="54.935" fill="#FFF"/><path d="M80.162 72.455c0-11.704 9.488-21.19 21.19-21.19s21.192 9.487 21.192 21.19L122.5 92.75c0 16.57-13.43 30-30 30h-60c-16.57 0-30-13.43-30-30V72.455c0-11.704 9.488-21.19 21.19-21.19s21.192 9.487 21.192 21.19c0-9.742 7.898-17.64 17.64-17.64s17.64 7.898 17.64 17.64z" fill="#FFF" stroke="#000" stroke-width="5" stroke-linecap="round" stroke-linejoin="round" stroke-miterlimit="10"/><path d="M7.522 57.5c0-30.376 24.624-55 55-55s55 24.624 55 55" fill="none" stroke="#000" stroke-width="5" stroke-linecap="round" stroke-linejoin="round" stroke-miterlimit="10"/><circle cx="37.272" cy="33.377" r="5.375"/><circle cx="62.522" cy="33.377" r="5.375"/><circle cx="87.772" cy="33.377" r="5.375"/></g><style>path{stroke-width:2;vector-effect:non-scaling-stroke}</style></svg>