<svg xmlns="http://www.w3.org/2000/svg" viewBox="0 0 80 80" width="168" height="168">
  <title>
    kokosila
  </title>
  <g stroke-width="2" fill="none" stroke-linecap="round">
    <path fill="#231f20" stroke="#231f20" d="M59.76 60.89c4.88 3.02 4.38 9.93-1.24 11.77q-3.15 1.03-5.64-.55-.49-.31-.67.24c-1.87 5.77-8.21 3.77-11.2.41a.32.32 0 0 0-.54.13q-.79 2.89-3.67 4.42c-1.51.81-5.31 1.03-6.88.47q-3.57-1.27-4.23-4.28-.14-.62-.61-.2c-2.25 2.03-7.7 4.59-9.34.78q-1.93-4.49-.23-8.66.22-.55-.2-.96c-4.48-4.45-7.43-9.2-7.69-15.7-.23-5.72-.68-10.84 1.01-16.43Q11.74 22 15.9 13.97q3.63-7 11.37-9.96C36.2.6 48-.93 56.69 3.22q5.75 2.74 10.01 6.86 3.21 3.12 4.03 9.33c.6 4.6-2.83 11.02-6.06 14.38q-2.03 2.12-4.34 4.03-.57.47 0 .93c2.42 1.98 2.79 8.4 2.71 11.44-.09 3.56-2.06 6.72-3.53 9.87q-.25.53.25.83ZM31.68 32.4q3.23 4.09 7.57 5.29 3.47.95 8.39 1.28c2.41.16 4.4-.4 6.68-.92 5.21-1.18 9.68-6.3 12.02-10.83q4.86-9.41-2.77-16.35C54.65 2.75 44.9 2.06 33.72 4.45c-5.96 1.27-11.58 3.83-14.76 8.81-3.42 5.35-5.61 12.14-7.65 18.76q-1.56 5.05-1.4 10.48.01.61.55.32c3.38-1.89 6.64-1.78 10.41-1.66 3.63.11 8.3 6.31 9.07 8.8q2.25 7.18 3.5 16.39.23 1.65.83 3.17.18.44.65.47c5.25.35 11.73-.41 15.87-3.68 4.8-3.8 10.57-11.49 9.6-18.04q-.74-4.98-2.09-8.91-.15-.42-.57-.27l-.26.09q-.53.19-.44.75c1.24 7.42-8.97 13.05-9.3 1.98q-.03-.9-.93-.9h-.56q-.88.01-.92.89c-.1 2.68-1.59 4.34-3.7 5.83q-.86.61-1.84.28-4.49-1.55-3.7-7.35a1.95 1.94-71.2 0 0-.95-1.94c-1.95-1.13-4.88-2.87-5.88-4.99q-.69-1.47.91-1.86a1.5 1.49-25.7 0 1 1.52.53Zm11.31 8.65-4.01-.73a.27.27 0 0 0-.32.22l-.02.1a4.08 2.26-79.6 0 0 1.49 4.42l.1.02a4.08 2.26-79.6 0 0 2.96-3.6l.02-.11a.27.27 0 0 0-.22-.32Zm11.02 3.15a.88.88 0 0 0 .22-.33l.92-2.36a.88.88 0 0 0-1.05-1.16l-3.62.99a.88.88 0 0 0-.57 1.2l1.19 2.77a.88.88 0 0 0 1.41.3l1.5-1.41Zm-43.36 7.51q.25.63.92.54l15.15-2.06q.6-.09.23-.57c-1.82-2.4-4.15-5.84-7.32-6.13-3.12-.28-6.71-.06-9.15 1.93a1.16 1.15-15 0 0-.42.72q-.47 2.86.59 5.57Zm16.79-.17q-4.45 2.05-13.26 2.71-3.09.23-1.32 2.63.13.19.19.41.59 2.49 3.1 1.95l12.59-2.71q.27-.06.2-.32l-1.17-4.51q-.07-.28-.33-.16Zm-10.66 9.98a.4.4 0 0 0-.15.7l5.98 4.79a.4.4 0 0 0 .13.07l7.98 2.45a.4.4 0 0 0 .52-.44L29.67 58.6a.4.4 0 0 0-.5-.33l-12.39 3.25Zm41.32.58-5.73 6.42a.24.24 0 0 0 .02.33l.26.24a5.59 4.52 41.8 0 0 7.18.35l.03-.03a5.59 4.52 41.8 0 0-1.16-7.09l-.26-.23a.24.24 0 0 0-.34.01Zm-40.09 4.99a.62.62 0 0 0-.92.59l.4 4.98a.62.62 0 0 0 .64.57l3.4-.11a.62.62 0 0 0 .37-.14l1.94-1.54a.62.62 0 0 0-.08-1.02l-5.75-3.33Zm32.6 3.94a.66.66 0 0 0-.74-.99l-5.39 1.65a.66.66 0 0 0 .08 1.28l3.86.7a.66.66 0 0 0 .67-.29l1.52-2.35Zm-19.17 4.4q4.38.83 6.82-2.06 1.06-1.26-.58-1.15-4.9.34-8.98-.52-1.76-.37-.65 1.05l.91 1.16q.95 1.23 2.48 1.52Z"/>
    <path fill="#fff" d="M31.68 32.4a1.5 1.49-25.7 0 0-1.52-.53q-1.6.39-.91 1.86c1 2.12 3.93 3.86 5.88 4.99a1.95 1.94-71.2 0 1 .95 1.94q-.79 5.8 3.7 7.35.98.33 1.84-.28c2.11-1.49 3.6-3.15 3.7-5.83q.04-.88.92-.89h.56q.9 0 .93.9c.33 11.07 10.54 5.44 9.3-1.98q-.09-.56.44-.75l.26-.09q.42-.15.57.27 1.35 3.93 2.09 8.91c.97 6.55-4.8 14.24-9.6 18.04-4.14 3.27-10.62 4.03-15.87 3.68q-.47-.03-.65-.47-.6-1.52-.83-3.17-1.25-9.21-3.5-16.39c-.77-2.49-5.44-8.69-9.07-8.8-3.77-.12-7.03-.23-10.41 1.66q-.54.29-.55-.32-.16-5.43 1.4-10.48c2.04-6.62 4.23-13.41 7.65-18.76 3.18-4.98 8.8-7.54 14.76-8.81 11.18-2.39 20.93-1.7 29.85 6.42q7.63 6.94 2.77 16.35c-2.34 4.53-6.81 9.65-12.02 10.83-2.28.52-4.27 1.08-6.68.92q-4.92-.33-8.39-1.28-4.34-1.2-7.57-5.29Zm-9.75-7.43c-.13-1.77 3.01-4.56 4.22-5.72 2.68-2.57 1.82-7.67-2.92-6.12q-3.54 1.14-5.11 3.89a1.09 1.07-34.7 0 0-.13.68q.09.69.54 1 1 .68 1.5-.42 1.18-2.55 3.57-3.2a1.33 1.33 0 0 1 1.37 2.12c-1.57 1.91-7.02 6.69-5.43 9.42 1.78 3.08 5.78 1.09 7.77-.57q1.8-1.51-.51-1.09-1.66.3-3.19 1-1.55.72-1.68-.99Z"/>
    <path fill="#231f20" d="M21.93 24.97q.13 1.71 1.68.99 1.53-.7 3.19-1 2.31-.42.51 1.09c-1.99 1.66-5.99 3.65-7.77.57-1.59-2.73 3.86-7.51 5.43-9.42a1.33 1.33 0 0 0-1.37-2.12q-2.39.65-3.57 3.2-.5 1.1-1.5.42-.45-.31-.54-1a1.09 1.07-34.7 0 1 .13-.68q1.57-2.75 5.11-3.89c4.74-1.55 5.6 3.55 2.92 6.12-1.21 1.16-4.35 3.95-4.22 5.72Z"/>
    <path fill="#fff" d="M42.99 41.05a.27.27 0 0 1 .22.32l-.02.11a4.08 2.26-79.6 0 1-2.96 3.6l-.1-.02a4.08 2.26-79.6 0 1-1.49-4.42l.02-.1a.27.27 0 0 1 .32-.22l4.01.73ZM54.01 44.2l-1.5 1.41a.88.88 0 0 1-1.41-.3l-1.19-2.77a.88.88 0 0 1 .57-1.2l3.62-.99a.88.88 0 0 1 1.05 1.16l-.92 2.36a.88.88 0 0 1-.22.33ZM10.65 51.71q-1.06-2.71-.59-5.57a1.16 1.15-15 0 1 .42-.72c2.44-1.99 6.03-2.21 9.15-1.93 3.17.29 5.5 3.73 7.32 6.13q.37.48-.23.57l-15.15 2.06q-.67.09-.92-.54ZM27.44 51.54q.26-.12.33.16l1.17 4.51q.07.26-.2.32l-12.59 2.71q-2.51.54-3.1-1.95-.06-.22-.19-.41-1.77-2.4 1.32-2.63 8.81-.66 13.26-2.71ZM16.78 61.52l12.39-3.25a.4.4 0 0 1 .5.33l1.57 10.49a.4.4 0 0 1-.52.44l-7.98-2.45a.4.4 0 0 1-.13-.07l-5.98-4.79a.4.4 0 0 1 .15-.7ZM58.1 62.1a.24.24 0 0 1 .34-.01l.26.23a5.59 4.52 41.8 0 1 1.16 7.09l-.03.03a5.59 4.52 41.8 0 1-7.18-.35l-.26-.24a.24.24 0 0 1-.02-.33l5.73-6.42ZM18.01 67.09l5.75 3.33a.62.62 0 0 1 .08 1.02l-1.94 1.54a.62.62 0 0 1-.37.14l-3.4.11a.62.62 0 0 1-.64-.57l-.4-4.98a.62.62 0 0 1 .92-.59ZM50.61 71.03l-1.52 2.35a.66.66 0 0 1-.67.29l-3.86-.7a.66.66 0 0 1-.08-1.28l5.39-1.65a.66.66 0 0 1 .74.99ZM31.44 75.43q-1.53-.29-2.48-1.52l-.91-1.16q-1.11-1.42.65-1.05 4.08.86 8.98.52 1.64-.11.58 1.15-2.44 2.89-6.82 2.06Z"/>
  </g>
</svg>
