<svg xmlns="http://www.w3.org/2000/svg" viewBox="-2 -2 129 129.25" preserveAspectRatio="none"><g id="jo" stroke="#000" stroke-miterlimit="10"><path d="M122.5 73.25c0 29.27-26.863 49.5-60 49.5s-60-20.23-60-49.5-.25-53 60-53c60 0 60 23.73 60 53z" fill="#FFF" stroke-width="5"/><path d="M33.5 102.25H82c5.247 0 9.5-3.936 9.5-8.792s-4.253-8.792-9.5-8.792H45.75c-5.247 0-9.5-3.936-9.5-8.792s4.253-8.792 9.5-8.792H82c5.247 0 9.5-3.936 9.5-8.792s-4.253-8.792-9.5-8.792H33.5" fill="none" stroke-width="4" stroke-linecap="round" stroke-linejoin="round"/><path d="M39.874 34V11.75a9.25 9.25 0 0 1 9.25-9.25 9.25 9.25 0 0 1 9.25 9.25V34M66.626 34V11.75a9.25 9.25 0 0 1 9.25-9.25 9.25 9.25 0 0 1 9.25 9.25V34" fill="#FFF" stroke-width="5" stroke-linecap="round" stroke-linejoin="round"/></g><style>ellipse,polygon,polyline,rect,circle,line,path{stroke-width:2;vector-effect:non-scaling-stroke}</style></svg>