<svg xmlns="http://www.w3.org/2000/svg" viewBox="-2 -2 129.333 129.667" preserveAspectRatio="none"><g id="supa"><circle cx="64.258" cy="59.57" r="43" fill="#FFF"/><path d="M91.6 41.575C82.716 43.462 72.927 44.5 62.667 44.5c-10.24 0-20.032-1.03-28.906-2.91 1.343 3.028 2.072 6.53 2.072 10.244 0 11.598-7.462 21-16.667 21S2.5 63.43 2.5 51.834V39.666C2.5 19.14 29.438 2.5 62.667 2.5s60.167 16.64 60.167 37.167v12.167c0 11.598-7.462 21-16.667 21s-16.667-9.402-16.667-21c0-3.723.753-7.227 2.1-10.26z" fill="#FFF" stroke="#000" stroke-width="5" stroke-linecap="round" stroke-linejoin="round" stroke-miterlimit="10"/><path d="M122.833 97.667c0 14.083-11.044 25.5-24.667 25.5H27.5c-13.623 0-24.667-11.417-24.667-25.5s11.044-25.5 24.667-25.5h70.667c13.623 0 24.666 11.416 24.666 25.5z" fill="#FFF" stroke="#000" stroke-width="5" stroke-miterlimit="10"/><path d="M28 97.5c36.046-5.333 69.667-.667 69.667-.667" fill="none" stroke="#000" stroke-width="4.5" stroke-linecap="round" stroke-linejoin="round" stroke-miterlimit="10"/><path fill="none" stroke="#000" stroke-width="3.5" stroke-linecap="round" stroke-linejoin="round" stroke-miterlimit="10" d="M44 42.835l37.667 29.332M44 72.167l37.667-29.332"/></g><style>ellipse,polygon,polyline,rect,circle,line,path{stroke-width:2;vector-effect:non-scaling-stroke}</style></svg>