<svg xmlns="http://www.w3.org/2000/svg" viewBox="-2 -2 129 129"><g id="wile" stroke="#000" stroke-width="5" stroke-linecap="round" stroke-linejoin="round" stroke-miterlimit="10"><path d="M122.5 62.5v30c0 16.57-13.43 30-30 30h-30c-33.137 0-60-26.863-60-60V20.167C2.5 10.41 9.216 2.5 17.5 2.5s15 7.91 15 17.667c0-9.757 6.716-17.667 15-17.667s15 7.91 15 17.667c0 0 5.333-17.667 30-17.667 16.57 0 30 13.43 30 30v30z" fill="#FFF"/><ellipse cx="43.178" cy="51.281" rx="19.072" ry="16.03" fill="#FFF"/><path fill="none" d="M53.554 89.25l6.328 13M72.714 89.25l6.328 13M91.873 89.25l6.328 13"/></g><style>path{stroke-width:2;vector-effect:non-scaling-stroke}</style></svg>