<svg xmlns="http://www.w3.org/2000/svg" viewBox="-2 -2 129 129" preserveAspectRatio="none"><g id="mani" stroke="#000" stroke-linecap="round" stroke-linejoin="round" stroke-miterlimit="10"><path d="M92.5 2.5c16.57 0 30 13.43 30 30v60c0 16.57-13.43 30-30 30h-60c-16.57 0-30-13.43-30-30V56.487c0-2.78.167-7.486 4-11.32 5.093-5.09 29.066-24.886 43.32-36.923 6.013-5.077 7.055-5.577 12.805-5.577L92.5 2.5z" fill="#FFF" stroke-width="5"/><path fill="none" stroke-width="4.5" d="M96 19.5H57.024L17.5 55.5v41h38.976L96 60.5z"/><path fill="none" stroke-width="4" d="M27.833 58h59.334M56.75 82.833V33.167M31.042 83.708l51.416-51.416"/></g><style>ellipse,polygon,polyline,rect,circle,line,path{stroke-width:2;vector-effect:non-scaling-stroke}</style></svg>