<?xml version="1.0" encoding="iso-8859-1"?>
<!-- Generator: Adobe Illustrator 19.2.0, SVG Export Plug-In . SVG Version: 6.00 Build 0)  -->
<!DOCTYPE svg PUBLIC "-//W3C//DTD SVG 1.1//EN" "http://www.w3.org/Graphics/SVG/1.1/DTD/svg11.dtd">
<svg version="1.1" xmlns="http://www.w3.org/2000/svg" xmlns:xlink="http://www.w3.org/1999/xlink" x="0px" y="0px"
	 viewBox="0 0 125.163 125.136" style="enable-background:new 0 0 125.163 125.136;" xml:space="preserve">
<g id="olin">
	<g id="olin_1_">
		<g>
			<path style="fill:#FFFFFF;" d="M54.868,22.479c5.804-11.834,17.971-19.98,32.041-19.98c19.698,0,35.667,15.969,35.667,35.667
				c0,0,0,70.083,0,84.333H44.201c-22.989,0-41.625-18.636-41.625-41.625v-8.375V56.665c0-20.895,16.939-37.833,37.833-37.833
				s37.833,22.772,37.833,43.667"/>
			<path d="M53.104,21.537c0.44-0.844,0.813-1.66,1.307-2.526c0.532-0.857,1.017-1.796,1.603-2.583
				c0.566-0.817,1.123-1.643,1.766-2.404l0.938-1.163l1.018-1.094c2.74-2.891,5.925-5.388,9.459-7.278
				c3.535-1.882,7.372-3.204,11.323-3.899c1.974-0.36,3.979-0.523,5.983-0.575L86.878,0l0.48,0.018l0.703,0.035l1.406,0.07
				c0.477,0.032,0.919,0.026,1.424,0.09l1.539,0.224c2.095,0.236,4.002,0.795,5.946,1.311l2.832,1.032
				c0.95,0.33,1.825,0.837,2.74,1.25c3.581,1.81,6.915,4.132,9.777,6.955c2.84,2.843,5.244,6.11,7.113,9.667
				c1.913,3.543,3.09,7.452,3.754,11.406l0.228,1.491l0.109,0.746l0.041,0.752l0.153,3.01l0.01,5.636l0.01,11.258l0.02,22.516
				l-0.087,45.032c0,1.381-1.119,2.5-2.5,2.5l-0.006,0c-24.236,0.038-48.472,0.166-72.708,0.131l-4.544-0.004l-1.269-0.005
				l-1.135-0.058l-2.269-0.117c-0.729-0.005-1.571-0.15-2.39-0.271l-2.459-0.376c-1.609-0.31-3.134-0.774-4.703-1.162
				c-6.151-1.929-11.848-5.236-16.601-9.567c-4.752-4.33-8.586-9.681-11.075-15.623c-0.53-1.518-1.165-3.005-1.596-4.554l-0.6-2.338
				l-0.297-1.17c-0.082-0.393-0.128-0.794-0.194-1.19c-0.216-1.593-0.565-3.173-0.576-4.785c-0.081-1.604-0.18-3.239-0.147-4.716
				l0.015-18.177l0.017-4.673l0.117-2.269c0.038-0.755,0.055-1.494,0.209-2.348c0.25-1.646,0.451-3.328,0.914-4.86
				c0.207-0.781,0.392-1.57,0.622-2.344l0.833-2.278c2.255-6.072,6.124-11.482,10.949-15.765c4.797-4.336,10.719-7.373,16.986-8.925
				c3.127-0.838,6.365-1.117,9.586-1.216l0.151-0.007l0.227,0.007l0.284,0.011l0.568,0.023c0.388,0.021,0.735,0.017,1.157,0.058
				c0.839,0.099,1.729,0.146,2.523,0.303c0.809,0.139,1.62,0.27,2.412,0.482c0.802,0.176,1.586,0.405,2.364,0.657
				c6.26,1.965,11.702,5.76,16.159,10.29c4.411,4.609,7.863,10.027,10.294,15.852c2.383,5.839,3.727,12.144,3.599,18.484
				c-0.02,0.966-0.819,1.734-1.785,1.714c-0.934-0.019-1.683-0.767-1.714-1.689l-0.001-0.025
				c-0.185-5.789-1.605-11.528-3.977-16.823c-2.368-5.296-5.674-10.179-9.748-14.23c-4.063-4.032-8.925-7.298-14.286-8.902
				c-0.667-0.208-1.337-0.396-2.019-0.535c-0.674-0.175-1.362-0.273-2.047-0.384c-0.695-0.131-1.325-0.139-1.989-0.224
				c-0.331-0.033-0.744-0.027-1.112-0.043l-0.568-0.016l-0.284-0.008l-0.071-0.002c0.014,0-0.132-0.003,0.014,0l-0.133,0.007
				c-2.827,0.103-5.664,0.338-8.396,1.084c-5.478,1.368-10.658,4.024-14.848,7.834c-4.216,3.758-7.602,8.494-9.554,13.803
				L6.747,46.05c-0.198,0.677-0.354,1.367-0.535,2.049c-0.419,1.376-0.549,2.715-0.773,4.06c-0.137,0.637-0.157,1.416-0.193,2.173
				l-0.113,2.269L5.13,61.017l0.015,18.177c-0.031,1.554,0.073,2.944,0.142,4.366c0.001,1.428,0.329,2.82,0.515,4.228
				c0.058,0.35,0.096,0.704,0.169,1.052L6.24,89.87l0.531,2.063c0.38,1.367,0.953,2.674,1.413,4.016
				c2.205,5.238,5.604,9.957,9.806,13.773c4.204,3.817,9.231,6.726,14.651,8.418c1.374,0.326,2.755,0.749,4.118,1.009l2.033,0.31
				c0.679,0.104,1.329,0.24,2.119,0.247l2.269,0.113l1.135,0.056l1.003-0.003l4.544-0.004c24.236-0.036,48.472,0.093,72.708,0.131
				l0.006,0l-2.5,2.5l-0.087-45.032l0.02-22.516l0.01-11.258v-5.622l-0.131-2.612l-0.03-0.653l-0.097-0.646l-0.197-1.292
				c-0.572-3.425-1.571-6.814-3.231-9.886c-1.617-3.085-3.697-5.925-6.156-8.401c-2.482-2.458-5.377-4.473-8.479-6.051
				c-0.795-0.356-1.548-0.809-2.374-1.091l-2.454-0.902c-1.681-0.44-3.386-0.944-5.03-1.125l-1.243-0.2
				c-0.425-0.06-0.925-0.058-1.384-0.09l-1.405-0.072l-0.703-0.036l-0.176-0.009l-0.088-0.005l-0.044-0.002
				C86.755,4.994,87.009,5.002,86.882,5l-0.327,0.01c-1.746,0.026-3.494,0.142-5.215,0.436c-3.447,0.561-6.803,1.671-9.915,3.272
				c-3.134,1.564-5.991,3.683-8.478,6.168l-0.931,0.936l-0.872,0.992c-0.602,0.646-1.123,1.358-1.658,2.06
				c-0.57,0.695-0.967,1.423-1.466,2.133c-0.473,0.74-0.924,1.614-1.387,2.415l-0.024,0.041c-0.553,0.956-1.776,1.283-2.732,0.73
				C52.947,23.655,52.615,22.48,53.104,21.537z"/>
		</g>
		<g>
			<path d="M60.408,78.934c0,0-0.019,0.441-0.054,1.269c-0.015,0.215-0.005,0.419-0.042,0.711c-0.04,0.295-0.085,0.616-0.132,0.964
				c-0.054,0.344-0.095,0.729-0.176,1.11c-0.092,0.372-0.19,0.768-0.294,1.185c-0.455,1.652-1.177,3.651-2.505,5.661
				c-1.305,2.011-3.146,4.073-5.602,5.745c-2.455,1.657-5.524,2.889-8.908,3.308c-0.421,0.066-0.851,0.062-1.28,0.095l-0.648,0.034
				l-0.325,0.016l-0.406-0.013c-0.795-0.048-1.502-0.027-2.499-0.198c-1.906-0.227-3.582-0.771-5.324-1.493
				c-1.72-0.729-3.313-1.785-4.797-2.991c-1.462-1.241-2.745-2.712-3.844-4.325c-1.073-1.635-1.894-3.441-2.489-5.325
				c-0.248-0.957-0.512-1.912-0.621-2.899c-0.075-0.49-0.154-0.979-0.16-1.474l-0.035-0.741l-0.017-0.371l-0.008-0.185l-0.004-0.093
				l-0.002-0.046l0.001-0.157c0.068-0.91,0.038-1.681,0.237-2.783c0.125-1.06,0.393-1.998,0.649-2.95
				c0.611-1.875,1.447-3.666,2.53-5.284c1.11-1.595,2.399-3.044,3.861-4.262c1.485-1.183,3.074-2.21,4.776-2.935
				c1.7-0.708,3.45-1.256,5.213-1.462c0.874-0.163,1.753-0.158,2.616-0.203l0.162-0.007l0.081-0.003l0.04-0.002l0.139,0.004
				l0.29,0.016l0.578,0.032c0.398,0.031,0.735,0.02,1.176,0.085c0.864,0.141,1.773,0.225,2.539,0.462
				c0.396,0.104,0.789,0.208,1.179,0.31c0.379,0.138,0.755,0.274,1.127,0.41c1.495,0.537,2.83,1.307,4.073,2.086
				c2.449,1.634,4.298,3.665,5.614,5.653c1.339,1.987,2.077,3.972,2.547,5.616c0.107,0.416,0.209,0.81,0.304,1.18
				c0.082,0.373,0.122,0.73,0.178,1.059c0.109,0.659,0.189,1.22,0.195,1.681c0.047,0.918,0.072,1.407,0.072,1.407L60.408,78.934z
				 M56.411,78.833c0,0-0.02-0.393-0.056-1.129c0.002-0.37-0.064-0.82-0.151-1.346c-0.044-0.263-0.07-0.55-0.135-0.849
				c-0.076-0.296-0.157-0.611-0.242-0.944c-0.372-1.315-0.946-2.908-2.018-4.505c-1.05-1.598-2.528-3.239-4.49-4.562
				c-0.996-0.63-2.075-1.237-3.277-1.654c-0.299-0.107-0.6-0.215-0.904-0.324c-0.313-0.078-0.629-0.157-0.947-0.237
				c-0.648-0.2-1.245-0.218-1.875-0.341c-0.309-0.054-0.741-0.045-1.11-0.071l-0.578-0.027l-0.29-0.013
				c-0.102-0.002,0.098,0.001,0.066,0.002l-0.032,0.002l-0.065,0.004l-0.13,0.008c-0.691,0.053-1.397,0.045-2.091,0.193
				c-1.407,0.176-2.788,0.643-4.132,1.218c-1.345,0.591-2.59,1.433-3.759,2.381c-1.146,0.984-2.146,2.148-3.01,3.415
				c-0.836,1.289-1.468,2.709-1.933,4.184c-0.184,0.752-0.401,1.512-0.471,2.211c-0.15,0.635-0.138,1.642-0.192,2.492
				c0.006-0.208,0.003-0.037,0.005-0.074l0.002,0.036l0.004,0.073l0.009,0.146l0.017,0.291l0.032,0.582
				c0.002,0.39,0.073,0.772,0.135,1.155c0.085,0.773,0.307,1.515,0.499,2.263c0.482,1.465,1.128,2.87,1.974,4.142
				c0.874,1.249,1.88,2.392,3.027,3.353c1.17,0.925,2.411,1.738,3.738,2.325c0.317,0.179,0.672,0.264,1.004,0.402
				c0.338,0.119,0.665,0.272,1.015,0.343c0.344,0.091,0.687,0.181,1.028,0.272c0.339,0.087,0.651,0.108,0.975,0.17
				c0.572,0.14,1.449,0.148,2.208,0.198l0.146,0.008l0.073,0.004l0.036,0.002c0.037,0.002-0.189-0.006-0.078-0.004l0.255-0.013
				l0.508-0.024c0.337-0.024,0.676-0.009,1.005-0.061c2.653-0.303,5.057-1.245,7.014-2.516c1.956-1.285,3.44-2.894,4.501-4.47
				c1.083-1.574,1.673-3.153,2.06-4.459c0.089-0.331,0.173-0.644,0.252-0.938c0.067-0.29,0.092-0.549,0.138-0.797
				c0.043-0.246,0.083-0.474,0.119-0.682c0.037-0.211,0.035-0.473,0.051-0.67c0.049-0.827,0.074-1.268,0.074-1.268L56.411,78.833z"
				/>
		</g>
		<g>
			<path d="M84.78,100.258c0,0-0.009,0.237-0.027,0.681c-0.008,0.119-0.002,0.217-0.022,0.39c-0.023,0.175-0.048,0.367-0.075,0.573
				c-0.047,0.429-0.145,0.869-0.271,1.344c-0.26,0.955-0.677,2.111-1.44,3.275c-0.749,1.165-1.814,2.358-3.238,3.317
				c-1.42,0.953-3.193,1.668-5.149,1.907c-0.243,0.038-0.491,0.037-0.739,0.055l-0.374,0.019l-0.188,0.009l-0.26-0.01
				c-0.433-0.032-0.782-0.023-1.394-0.128c-1.137-0.149-2.071-0.468-3.076-0.897c-1.957-0.88-3.706-2.351-4.939-4.222
				c-0.612-0.939-1.08-1.976-1.415-3.057c-0.318-1.089-0.46-2.223-0.474-3.352l0.044-0.805c0.003-0.21,0.048-0.525,0.096-0.831
				c0.076-0.627,0.232-1.159,0.379-1.703c0.349-1.072,0.829-2.095,1.448-3.018c1.249-1.84,2.999-3.267,4.936-4.106
				c0.971-0.405,1.972-0.715,2.978-0.833c0.5-0.091,1.001-0.09,1.493-0.114l0.092-0.003l0.046-0.002l0.132,0.002l0.156,0.007
				l0.311,0.014c0.219,0.015,0.383,0.006,0.643,0.041c1.059,0.131,1.956,0.321,2.805,0.657c0.858,0.302,1.629,0.733,2.341,1.181
				c1.404,0.936,2.471,2.092,3.238,3.227c0.777,1.136,1.213,2.274,1.49,3.22c0.137,0.476,0.239,0.906,0.288,1.288
				c0.066,0.379,0.113,0.703,0.12,0.968c0.031,0.529,0.047,0.811,0.047,0.811L84.78,100.258z M81.032,100.163
				c0,0-0.008-0.192-0.022-0.551c0.005-0.181-0.026-0.4-0.066-0.658c-0.022-0.261-0.089-0.552-0.174-0.877
				c-0.175-0.644-0.444-1.427-0.961-2.215c-0.504-0.791-1.223-1.607-2.189-2.259c-0.491-0.309-1.015-0.618-1.606-0.828
				c-0.573-0.248-1.246-0.367-1.798-0.462c-0.143-0.029-0.392-0.028-0.584-0.043l-0.31-0.017l-0.156-0.009
				c-0.085-0.002,0.094,0.001,0.07,0.002l-0.016,0.001l-0.032,0.002l-0.064,0.004c-0.342,0.029-0.692,0.023-1.035,0.099
				c-0.696,0.087-1.377,0.322-2.04,0.606c-1.321,0.599-2.505,1.603-3.338,2.871c-0.411,0.638-0.72,1.339-0.949,2.066
				c-0.089,0.371-0.195,0.752-0.223,1.069c-0.07,0.224-0.069,0.939-0.091,1.197c0.03,0.767,0.134,1.527,0.358,2.253
				c0.242,0.718,0.562,1.406,0.981,2.028c0.849,1.237,2.033,2.197,3.335,2.755c0.629,0.261,1.377,0.487,1.942,0.542
				c0.231,0.062,0.732,0.065,1.134,0.085l0.078,0.003l0.039,0.002l0.02,0.001c0.029,0.001-0.181-0.005-0.085-0.003l0.124-0.007
				l0.247-0.012c0.164-0.012,0.329-0.003,0.488-0.029c1.287-0.148,2.453-0.601,3.402-1.22c0.945-0.629,1.667-1.408,2.188-2.169
				c0.531-0.761,0.819-1.527,1.011-2.161c0.095-0.327,0.166-0.607,0.191-0.821c0.022-0.112,0.042-0.216,0.06-0.31
				c0.019-0.097,0.019-0.25,0.028-0.352c0.028-0.444,0.042-0.681,0.042-0.681L81.032,100.163z"/>
		</g>
	</g>
</g>
<g id="Layer_1">
</g>
</svg>
