<svg xmlns="http://www.w3.org/2000/svg" viewBox="-2 -2 129 129"><g id="sina" stroke="#000" stroke-miterlimit="10"><path d="M122.5 62.5v30c0 16.57-13.43 30-30 30h-60c-16.57 0-30-13.43-30-30v-30c0-33.137 26.863-60 60-60s60 26.863 60 60z" fill="#FFF" stroke-width="5"/><path d="M25.596 122.5V67.904C25.596 47.522 42.12 31 62.5 31s36.904 16.522 36.904 36.904V122.5" fill="none" stroke-width="5"/><path d="M35.552 122.5V81.156c0-5.523 4.477-10 10-10s10 4.477 10 10V122.5M63.605 122.5V69.077c0-7.136 5.785-12.92 12.92-12.92 7.137 0 12.922 5.784 12.922 12.92V122.5" fill="none" stroke-width="4"/></g><style>path{stroke-width:2;vector-effect:non-scaling-stroke}</style></svg>