<svg xmlns="http://www.w3.org/2000/svg" viewBox="-2 -2 129 129"><g id="lete" stroke="#000" stroke-miterlimit="10"><path d="M122.5 20.837v41.788c0 33.068-26.807 59.875-59.875 59.875S2.75 95.693 2.75 62.625L2.5 20.837C2.5 10.71 9.216 2.5 17.5 2.5s15 8.21 15 18.337C32.5 10.71 39.216 2.5 47.5 2.5s15 8.21 15 18.337C62.5 10.71 69.216 2.5 77.5 2.5s15 8.21 15 18.337c0-10.127 6.716-18.337 15-18.337s15 8.21 15 18.337z" fill="#FFF" stroke-width="5" stroke-linecap="round" stroke-linejoin="round"/><path d="M35.158 41.425c.686 17.9-13.268 32.965-31.167 33.65M90.087 41.425c-.686 17.9 13.268 32.965 31.167 33.65" fill="none" stroke-width="4"/><path d="M31.684 113.718c17.9-.686 30.96-15.168 30.96-33.375 0 18.373 13.27 32.688 31.168 33.375" fill="none" stroke-width="4" stroke-linecap="round" stroke-linejoin="round"/><path d="M122.5 20.463c0 12.952-26.807 23.45-59.875 23.45S2.5 33.414 2.5 20.464" fill="none" stroke-width="4"/></g><style>path{stroke-width:2;vector-effect:non-scaling-stroke}</style></svg>