<svg xmlns="http://www.w3.org/2000/svg" viewBox="0 0 80 80" width="168" height="168">
  <title>
    meso
  </title>
  <g stroke-width="2" fill="none" stroke-linecap="round">
    <path fill="#231f20" stroke="#231f20" d="M66.83 61.83q-.59.76.08 1.46c2.85 2.94 3.28 6.88.41 10.06-4.13 4.57-14.25 2.97-18.35-.08q-.43-.32-.96-.21-10.92 2.37-22.76 1.61-.57-.04-1 .35-2.87 2.57-7.42 3.62Q10.95 79.99 7 76.1c-3.17-3.11-2.3-6.93-.35-10.62q.3-.57.07-1.17c-3.49-9.04-2.98-18.44 1.64-26.67q.42-.75.35-1.63C7.48 21.83 15.4 8.76 28.47 3.35Q43.13-2.73 57.44 4.7c11.09 5.75 18.48 17.4 18.59 29.61q.08 8.12-3.56 18.36c-1.21 3.4-3.43 6.35-5.64 9.16ZM48.4 21.04q.53.01.54.53l.16 5.87a2.75 2.74 66.7 0 1-.79 2q-5.88 5.88-13.21 5.91c-4.72.02-9.09-1.94-13.9-2.23-5.21-.31-9.47 3.45-11.7 8.1q-3.27 6.81-1.83 15.31c.7 4.12 1.71 8.06 5.23 10.57 8.57 6.13 18.93 5.78 28.8 4.4 6.47-.9 12.09-1.79 17.47-5.76q10.58-7.79 13.29-21.34 1.09-5.43 1.21-9.56.2-6.81-3.51-13.87-5.83-11.08-17.53-15.7-11.85-4.66-24.03.6-.75.33-.17.89c6.62 6.51 11.68 15.65 10.74 24.88a.57.56 80.4 0 0 .8.57q2.25-1.02 4.42-2.17 3.57-1.9 3.39-8.73-.01-.28.27-.28l.35.01Zm-28-7.84c4.54 3.78 7.23 11.73 6.96 17.1a1.62 1.62 0 0 0 1.33 1.67l7.29 1.3q1.33.24 1.18-1.11c-.4-3.43-.66-7.01-1.74-10.12q-2.75-7.85-8.66-13.47-1.28-1.22-2.68-.15l-3.63 2.74q-1.32.99-.05 2.04Zm-8.73 20.98c3.59-3.04 7.65-4.1 12.44-3.09a.87.87 0 0 0 1.05-.88q-.19-5.96-3.91-12.51-1.05-1.85-2.96-2.97-.84-.49-1.39.31-6.17 8.92-5.91 18.83a.42.41 69.1 0 0 .68.31Zm41.15 38.49c3.84 1.52 10.9 2.55 13.34-1.71q1.58-2.75-.61-5.53-.82-1.04-1.81-.17-4.38 3.83-10.15 6.14-.28.11-.48.35-.18.21-.39.4-.38.34.1.52Zm-31.77 1.26Q14.5 71.94 9.1 67.68q-.72-.57-1.03.3-.53 1.51-.64 3.06c-.24 3.45 3.61 5.52 6.59 5.44q3.45-.09 7.08-1.74 1.05-.47-.05-.81Z"/>
    <path fill="#fff" d="m48.4 21.04-.35-.01q-.28 0-.27.28.18 6.83-3.39 8.73-2.17 1.15-4.42 2.17a.57.56 80.4 0 1-.8-.57c.94-9.23-4.12-18.37-10.74-24.88q-.58-.56.17-.89 12.18-5.26 24.03-.6 11.7 4.62 17.53 15.7 3.71 7.06 3.51 13.87-.12 4.13-1.21 9.56-2.71 13.55-13.29 21.34c-5.38 3.97-11 4.86-17.47 5.76-9.87 1.38-20.23 1.73-28.8-4.4-3.52-2.51-4.53-6.45-5.23-10.57q-1.44-8.5 1.83-15.31c2.23-4.65 6.49-8.41 11.7-8.1 4.81.29 9.18 2.25 13.9 2.23q7.33-.03 13.21-5.91a2.75 2.74 66.7 0 0 .79-2l-.16-5.87q-.01-.52-.54-.53Zm3.419 17.948a.87.87 0 0 0-.936-.8l-.837.067a.87.87 0 0 0-.8.935l.975 12.382a.87.87 0 0 0 .936.8l.837-.067a.87.87 0 0 0 .8-.935l-.975-12.382ZM19.87 50.72l-.12-9.55q-.01-1.01-.99-1.22-.65-.14-1.19.78a1.22 1.19 62.8 0 0-.16.52c-.25 3.6-.95 9.84 1.26 12.94a1.26 1.26 0 0 0 2.23-.35q.34-1.05-.56-1.98a1.68 1.64-68.2 0 1-.47-1.14Zm25.88 13.484a.84.84 0 0 0-.89-.785l-20.141 1.267a.84.84 0 0 0-.786.89l.037.58a.84.84 0 0 0 .89.785l20.141-1.267a.84.84 0 0 0 .786-.89l-.037-.58Z"/>
    <path fill="#fff" d="M27.36 30.3c.27-5.37-2.42-13.32-6.96-17.1q-1.27-1.05.05-2.04l3.63-2.74q1.4-1.07 2.68.15 5.91 5.62 8.66 13.47c1.08 3.11 1.34 6.69 1.74 10.12q.15 1.35-1.18 1.11l-7.29-1.3a1.62 1.62 0 0 1-1.33-1.67Z"/>
    <path fill="#fff" d="M24.11 31.09c-4.79-1.01-8.85.05-12.44 3.09a.42.41 69.1 0 1-.68-.31q-.26-9.91 5.91-18.83.55-.8 1.39-.31 1.91 1.12 2.96 2.97 3.72 6.55 3.91 12.51a.87.87 0 0 1-1.05.88Z"/>
    <rect fill="#231f20" x="-1.29" y="-7.08" transform="rotate(-4.5 601.736 -626.633)" width="2.58" height="14.16" rx=".87"/>
    <path fill="#231f20" d="M20.34 51.86q.9.93.56 1.98a1.26 1.26 0 0 1-2.23.35c-2.21-3.1-1.51-9.34-1.26-12.94a1.22 1.19 62.8 0 1 .16-.52q.54-.92 1.19-.78.98.21.99 1.22l.12 9.55a1.68 1.64-68.2 0 0 .47 1.14Z"/>
    <rect fill="#231f20" x="-10.93" y="-1.13" transform="rotate(-3.6 1054.46 -522.042)" width="21.86" height="2.26" rx=".84"/>
    <path fill="#fff" d="M52.82 72.67q-.48-.18-.1-.52.21-.19.39-.4.2-.24.48-.35 5.77-2.31 10.15-6.14.99-.87 1.81.17 2.19 2.78.61 5.53c-2.44 4.26-9.5 3.23-13.34 1.71ZM21.05 73.93q1.1.34.05.81-3.63 1.65-7.08 1.74c-2.98.08-6.83-1.99-6.59-5.44q.11-1.55.64-3.06.31-.87 1.03-.3 5.4 4.26 11.95 6.25Z"/>
  </g>
</svg>
