<svg xmlns="http://www.w3.org/2000/svg" viewBox="0 0 80 80" width="168" height="168">
  <title>
    leko
  </title>
  <g stroke-width="2" fill="none" stroke-linecap="round">
    <path fill="#231f20" stroke="#231f20" d="M4.46 30.75c-1.2-6.63-2.45-18.7 5.8-21.9q5.45-2.11 11.25-2.71c3.99-.41 7.87-1.73 11.87-1.97q2.95-.17 5.73-.58c5.38-.79 11.28-.04 16.56.14 4.95.18 10.42 1.88 13.98 4.82 3.85 3.17 4.71 8.98 4.65 13.82q-.22 18.19-1.24 34.6c-.26 4.17-1.08 10.17-4.44 13.1-5.55 4.86-11.68 4.99-18.32 6.52-11.42 2.63-25.49 2.13-35.32-4.86-3.05-2.16-5.05-4.09-6.29-7.88q-1.27-3.87-1.43-5.6-.67-7.05-1.27-13.82c-.29-3.29-1.02-6.42-1.12-9.71q-.05-1.99-.41-3.97Zm3.27-15.92q-2.35 5.15-1.38 9.37.47 2.03.7 4.28 1.39 13.65 3.02 27.84c.46 4 1.31 8.19 4.46 11.09q7.23 6.63 18.47 7.67c9.5.88 17.48-.83 26.41-2.92 4.4-1.02 9.07-3.67 10.11-8.51q1.43-6.6 1.42-10.36-.02-6.56.45-12.62c.39-4.91-.48-9.53.16-14.43q.88-6.61-1.32-12.47c-2.31-6.16-11.9-7.85-17.56-7.82q-4.9.02-9.83-.03c-8.49-.08-18.19 2.3-27.14 3.69-3.55.55-6.44 1.86-7.97 5.22Z"/>
    <path fill="#fff" d="M7.73 14.83c1.53-3.36 4.42-4.67 7.97-5.22 8.95-1.39 18.65-3.77 27.14-3.69q4.93.05 9.83.03c5.66-.03 15.25 1.66 17.56 7.82q2.2 5.86 1.32 12.47c-.64 4.9.23 9.52-.16 14.43q-.47 6.06-.45 12.62.01 3.76-1.42 10.36c-1.04 4.84-5.71 7.49-10.11 8.51-8.93 2.09-16.91 3.8-26.41 2.92q-11.24-1.04-18.47-7.67c-3.15-2.9-4-7.09-4.46-11.09Q8.44 42.13 7.05 28.48q-.23-2.25-.7-4.28-.97-4.22 1.38-9.37Zm26.31 34.39a.74.73-3.2 0 1-.77-.68q-.35-4.47-.96-9.19c-.96-7.45-.81-15.22-1.04-22.81q-.03-1.06-.25-2.13-.17-.85-1.04-.88l-.41-.02q-1.07-.03-.97 1.03c.74 7.51.06 14.75.92 22.24q.79 6.8 1.3 14.35a1.29 1.29 0 0 0 1.57 1.17q2.97-.66 5.81-.82 11.85-.66 24.99-.53 1.2.01 1.35-1.18.04-.33-.15-.62-.91-1.39-2.4-1.32l-27.95 1.39Zm15.01-33.76c-3.58.72-7.29.55-10.88.53a1.04 1.04 0 0 0-1.01 1.31q.48 1.8.57 3.59.41 7.29.33 13.9-.03 2.53 1.28 6.45.16.48.61.73c5.51 3.1 14.85 2.19 20.86 1.22 1.68-.27 2.47-.88 2.6-2.56.55-7.1-.4-14.28-1.21-21.62q-.4-3.64-4.43-3.98-4.62-.39-8.72.43Z"/>
    <path fill="#231f20" d="m34.04 49.22 27.95-1.39q1.49-.07 2.4 1.32.19.29.15.62-.15 1.19-1.35 1.18-13.14-.13-24.99.53-2.84.16-5.81.82a1.29 1.29 0 0 1-1.57-1.17q-.51-7.55-1.3-14.35c-.86-7.49-.18-14.73-.92-22.24q-.1-1.06.97-1.03l.41.02q.87.03 1.04.88.22 1.07.25 2.13c.23 7.59.08 15.36 1.04 22.81q.61 4.72.96 9.19a.74.73-3.2 0 0 .77.68Z"/>
    <path fill="#231f20" d="M49.05 15.46q4.1-.82 8.72-.43 4.03.34 4.43 3.98c.81 7.34 1.76 14.52 1.21 21.62-.13 1.68-.92 2.29-2.6 2.56-6.01.97-15.35 1.88-20.86-1.22q-.45-.25-.61-.73-1.31-3.92-1.28-6.45.08-6.61-.33-13.9-.09-1.79-.57-3.59a1.04 1.04 0 0 1 1.01-1.31c3.59.02 7.3.19 10.88-.53Zm-5.92 25.3q8.65 1.45 16.94.12a.98.97 87.8 0 0 .82-.89q.61-7.45-.57-13.2c-.48-2.32-.11-4.51-.74-6.77-.55-1.98-2.71-2.69-4.51-2.53q-6.64.61-14.24 1.09a.91.9-1.7 0 0-.84.89q-.04 6.7.24 13.77.13 3.33 1.35 6.29a2.05 2.03-6.2 0 0 1.55 1.23Z"/>
    <path fill="#fff" d="M43.13 40.76a2.05 2.03-6.2 0 1-1.55-1.23q-1.22-2.96-1.35-6.29-.28-7.07-.24-13.77a.91.9-1.7 0 1 .84-.89q7.6-.48 14.24-1.09c1.8-.16 3.96.55 4.51 2.53.63 2.26.26 4.45.74 6.77q1.18 5.75.57 13.2a.98.97 87.8 0 1-.82.89q-8.29 1.33-16.94-.12Zm3.77-11.72-4.69-.16a.93.93 0 0 0-.96.93q-.01.76.41 1.39.39.58 1.07.39 2.25-.61 4.49-.3a.74.74 0 0 1 .63.71l.18 7.01q.02.88.88 1.08 1.07.25 1.66-1.43a2.02 1.91-40.5 0 0 .09-.85l-.67-5.76q-.1-.81.72-.82l7.44-.1q1.67-.02 1.54-1.68-.04-.6-1.25-.94-1.27-.36-2.58-.16l-4.73.73a.81.81 0 0 1-.93-.73l-.64-7.34a1.16 1.14-88.1 0 0-.96-1.04q-.84-.14-1.44.53a1.32 1.29-28.9 0 0-.31 1.03l.89 6.57q.13.97-.84.94Z"/>
    <path fill="#231f20" d="m47.74 28.1-.89-6.57a1.32 1.29-28.9 0 1 .31-1.03q.6-.67 1.44-.53a1.16 1.14-88.1 0 1 .96 1.04l.64 7.34a.81.81 0 0 0 .93.73l4.73-.73q1.31-.2 2.58.16 1.21.34 1.25.94.13 1.66-1.54 1.68l-7.44.1q-.82.01-.72.82l.67 5.76a2.02 1.91-40.5 0 1-.09.85q-.59 1.68-1.66 1.43-.86-.2-.88-1.08L47.85 32a.74.74 0 0 0-.63-.71q-2.24-.31-4.49.3-.68.19-1.07-.39-.42-.63-.41-1.39a.93.93 0 0 1 .96-.93l4.69.16q.97.03.84-.94Z"/>
  </g>
</svg>
