<?xml version="1.0" encoding="iso-8859-1"?>
<!-- Generator: Adobe Illustrator 19.2.0, SVG Export Plug-In . SVG Version: 6.00 Build 0)  -->
<!DOCTYPE svg PUBLIC "-//W3C//DTD SVG 1.1//EN" "http://www.w3.org/Graphics/SVG/1.1/DTD/svg11.dtd">
<svg version="1.1" xmlns="http://www.w3.org/2000/svg" xmlns:xlink="http://www.w3.org/1999/xlink" x="0px" y="0px"
	 viewBox="0 0 65.001 125" style="enable-background:new 0 0 65.001 125;" xml:space="preserve">
<g id="taso">
	<g id="taso_1_">
		<g>
			<path style="fill:#FFFFFF;" d="M62.501,122.5c-33.137,0-60-26.863-60-60s26.863-60,60-60"/>
			<path d="M62.463,124c0,0-0.737,0-2.118,0.001c-0.679,0.016-1.558-0.022-2.603-0.082c-0.519-0.03-1.082-0.048-1.674-0.094
				c-0.586-0.063-1.21-0.131-1.868-0.202c-2.63-0.305-5.823-0.82-9.388-1.831c-3.566-0.99-7.517-2.438-11.57-4.554
				c-4.062-2.095-8.2-4.884-12.17-8.317c-3.943-3.455-7.717-7.594-10.841-12.413c-3.164-4.788-5.737-10.204-7.507-15.974
				c-0.899-2.883-1.529-5.866-2.016-8.881C0.252,68.63,0.05,65.565,0.001,62.5c0.06-1.616,0.042-2.93,0.2-4.556
				c0.094-1.572,0.306-3.083,0.508-4.595c0.487-3.014,1.116-5.998,2.016-8.881c1.77-5.77,4.343-11.185,7.507-15.974
				c3.124-4.819,6.898-8.958,10.841-12.413c3.97-3.434,8.108-6.222,12.17-8.317c4.054-2.117,8.005-3.564,11.57-4.554
				c3.564-1.011,6.758-1.527,9.388-1.831c0.658-0.071,1.282-0.139,1.868-0.202c0.589-0.033,1.141-0.064,1.654-0.093
				C58.749,1.024,59.621,0.985,60.33,1c1.415,0,2.17,0,2.17,0v3c0,0-0.717,0.037-2.062,0.107c-0.673,0.019-1.499,0.099-2.468,0.205
				c-0.971,0.082-2.081,0.229-3.318,0.424c-2.473,0.382-5.462,0.982-8.771,2.06c-3.31,1.063-6.946,2.561-10.692,4.603
				c-3.745,2.042-7.537,4.733-11.149,8.006c-1.785,1.658-3.555,3.436-5.183,5.407c-1.654,1.947-3.226,4.037-4.66,6.268
				c-2.891,4.448-5.224,9.463-6.815,14.792c-0.809,2.662-1.364,5.416-1.794,8.194c-0.174,1.397-0.361,2.8-0.43,4.168
				c-0.134,1.304-0.114,2.94-0.158,4.267c0.026,2.824,0.188,5.649,0.587,8.435c0.429,2.778,0.984,5.532,1.794,8.194
				c1.591,5.329,3.924,10.345,6.815,14.792c1.434,2.231,3.006,4.321,4.66,6.268c1.629,1.971,3.398,3.749,5.183,5.407
				c3.613,3.273,7.404,5.964,11.149,8.006c3.746,2.042,7.382,3.54,10.692,4.603c3.309,1.078,6.298,1.678,8.771,2.06
				c0.62,0.091,1.206,0.178,1.759,0.259c0.548,0.058,1.062,0.113,1.54,0.163c0.951,0.105,1.771,0.186,2.473,0.206
				c1.379,0.07,2.115,0.108,2.115,0.108L62.463,124z"/>
		</g>
		<g>
			<g>
				<path style="fill:#FFFFFF;" d="M62.501,2.5h-60c0,33.137,26.863,60,60,60V2.5z"/>
				<path d="M60.001,5h-57.5l2.5-2.5l0,0.005L5.049,5.33l0.184,2.819c0.087,0.937,0.216,1.871,0.321,2.807
					c0.126,0.933,0.308,1.858,0.458,2.788c0.167,0.927,0.399,1.841,0.595,2.763c0.208,0.919,0.496,1.818,0.74,2.728
					c0.548,1.804,1.178,3.582,1.89,5.329c0.349,0.876,0.763,1.724,1.14,2.589c0.394,0.857,0.847,1.685,1.266,2.53
					c0.439,0.835,0.929,1.642,1.389,2.465c0.483,0.81,1.008,1.595,1.509,2.395c0.526,0.784,1.085,1.544,1.625,2.319l1.736,2.237
					l1.844,2.15l1.947,2.058l2.047,1.959l2.141,1.857l2.229,1.75c0.772,0.545,1.53,1.109,2.312,1.64
					c0.798,0.505,1.579,1.039,2.391,1.522c0.824,0.461,1.633,0.952,2.469,1.391c0.846,0.42,1.676,0.873,2.534,1.268
					c0.865,0.378,1.715,0.792,2.592,1.141c1.75,0.709,3.528,1.35,5.338,1.886c0.913,0.24,1.815,0.52,2.735,0.73
					c0.923,0.195,1.838,0.427,2.766,0.594c0.931,0.15,1.857,0.331,2.791,0.457c0.938,0.103,1.873,0.222,2.811,0.304l2.822,0.164
					L62.495,60l0.005,0l-2.5,2.5V5z M65.001,2.5v60v0.06c0,1.348-1.093,2.441-2.441,2.441c-0.016,0-0.043,0-0.059-0.001l-0.006,0
					l-3.063-0.121l-3.052-0.268c-1.014-0.116-2.023-0.28-3.034-0.414c-1.009-0.153-2.008-0.364-3.012-0.545
					c-1.001-0.198-1.987-0.463-2.981-0.692c-0.99-0.245-1.961-0.56-2.942-0.838c-0.976-0.294-1.932-0.652-2.899-0.972
					c-0.962-0.335-1.899-0.74-2.849-1.108c-0.944-0.384-1.86-0.833-2.791-1.247c-0.923-0.432-1.817-0.923-2.725-1.383
					c-0.899-0.479-1.769-1.011-2.654-1.515c-0.871-0.527-1.722-1.088-2.583-1.632c-0.846-0.567-1.668-1.17-2.502-1.754l-2.413-1.874
					l-2.319-1.99l-2.22-2.101l-2.113-2.209l-2.003-2.31l-1.888-2.405c-0.589-0.832-1.196-1.651-1.769-2.495
					c-0.548-0.86-1.118-1.706-1.645-2.579c-0.505-0.886-1.037-1.757-1.517-2.657c-0.46-0.91-0.952-1.805-1.385-2.729
					c-0.415-0.932-0.865-1.849-1.249-2.794c-0.781-1.886-1.474-3.807-2.077-5.758c-0.274-0.983-0.581-1.958-0.828-2.948
					c-0.229-0.994-0.494-1.982-0.692-2.984c-0.181-1.005-0.391-2.005-0.545-3.015C0.615,10.651,0.461,9.64,0.35,8.625L0.102,5.57
					L0.001,2.506l0-0.006c-0.033-1.348,1.033-2.467,2.381-2.499L2.429,0l0.072,0h60C63.881,0,65.001,1.119,65.001,2.5z"/>
			</g>
			<g>
				<path style="fill:#FFFFFF;" d="M62.501,122.5h-60c0-33.137,26.863-60,60-60V122.5z"/>
				<path d="M62.501,125h-60h-0.06C1.093,125,0,123.907,0,122.559c0-0.016,0-0.043,0.001-0.059l0-0.006l0.101-3.064l0.248-3.055
					c0.11-1.015,0.265-2.026,0.397-3.039c0.153-1.01,0.364-2.01,0.545-3.015c0.198-1.002,0.463-1.989,0.692-2.984
					c0.247-0.99,0.554-1.965,0.828-2.948c0.603-1.95,1.297-3.871,2.077-5.758c0.384-0.945,0.834-1.862,1.249-2.794
					c0.432-0.924,0.924-1.819,1.385-2.729c0.48-0.9,1.012-1.771,1.517-2.657c0.527-0.873,1.097-1.719,1.645-2.579
					c0.572-0.844,1.18-1.663,1.769-2.495l1.888-2.405l2.003-2.31l2.113-2.209l2.22-2.101l2.319-1.99l2.413-1.874
					c0.834-0.584,1.656-1.187,2.502-1.754c0.861-0.544,1.712-1.105,2.583-1.632c0.885-0.504,1.755-1.035,2.654-1.515
					c0.909-0.46,1.803-0.951,2.725-1.383c0.931-0.414,1.847-0.864,2.791-1.247c0.95-0.368,1.887-0.773,2.849-1.108
					c0.967-0.321,1.923-0.678,2.899-0.972c0.981-0.278,1.952-0.593,2.942-0.838c0.993-0.229,1.98-0.494,2.981-0.692
					c1.004-0.181,2.003-0.392,3.012-0.545c1.011-0.133,2.02-0.298,3.034-0.414l3.052-0.268L62.495,60l0.006,0
					c1.348-0.033,2.467,1.033,2.499,2.381l0.001,0.047l0,0.072v60C65.001,123.881,63.881,125,62.501,125z M60.001,120V62.5l2.5,2.5
					l-0.005,0l-2.825,0.028l-2.822,0.164c-0.938,0.082-1.874,0.201-2.811,0.304c-0.934,0.126-1.86,0.308-2.791,0.457
					c-0.928,0.167-1.843,0.399-2.766,0.594c-0.92,0.21-1.822,0.49-2.735,0.73c-1.81,0.536-3.588,1.177-5.338,1.886
					c-0.877,0.35-1.727,0.764-2.592,1.141c-0.858,0.395-1.688,0.848-2.534,1.268c-0.836,0.44-1.644,0.93-2.469,1.391
					c-0.812,0.482-1.593,1.017-2.391,1.522c-0.781,0.531-1.54,1.095-2.312,1.64l-2.229,1.75l-2.141,1.857l-2.047,1.959l-1.947,2.058
					l-1.844,2.15l-1.736,2.237c-0.54,0.774-1.099,1.535-1.625,2.319c-0.501,0.8-1.026,1.585-1.509,2.395
					c-0.461,0.823-0.95,1.631-1.389,2.465c-0.419,0.845-0.872,1.674-1.266,2.53c-0.377,0.864-0.791,1.713-1.14,2.589
					c-0.711,1.747-1.342,3.525-1.89,5.329c-0.245,0.91-0.532,1.809-0.74,2.728c-0.195,0.922-0.427,1.836-0.595,2.763
					c-0.15,0.93-0.332,1.855-0.458,2.788c-0.105,0.936-0.234,1.869-0.321,2.807l-0.184,2.819l-0.048,2.825l0,0.005l-2.5-2.5H60.001z
					"/>
			</g>
		</g>
	</g>
</g>
<g id="Layer_1">
</g>
</svg>
