<svg xmlns="http://www.w3.org/2000/svg" viewBox="-2 -2 129.003 129.002" preserveAspectRatio="none"><g id="sewi" stroke="#000" stroke-miterlimit="10"><path d="M7.67 58.333C7.67 26.5 31.665 2.5 62.5 2.5s55.833 25 55.833 55.833-1 27.917-1 27.917" fill="#FFF" stroke-width="5"/><path d="M2.502 70.667c0-12.058 9.775-21.833 21.833-21.833S46.668 60 45.77 75.744c1.766-9.5 11.21-15.857 19.898-14.244C74.356 63.113 80.502 72 77.65 83.484c4.322-5 12.185-10.317 23.518-10.317 15.833 0 21.333 10.057 21.333 19.995 0 16.57-13.43 29.338-30 29.338h-60c-16.568 0-30-13.43-30-30V70.667z" fill="#FFF" stroke-width="5.003" stroke-linecap="round" stroke-linejoin="round"/><path d="M49.078 3.872c5.94 3.753 9.757 9.582 9.757 16.128 0 11.322-11.417 20.5-25.5 20.5-8.31 0-15.692-3.196-20.348-8.142" fill="none" stroke-width="4"/><path d="M38.976 7.514c2.4 2.157 3.86 5.005 3.86 8.127 0 6.735-6.79 12.194-15.167 12.194-3.813 0-7.296-1.13-9.96-2.997" fill="none" stroke-width="3"/></g><style>ellipse,polygon,polyline,rect,circle,line,path{stroke-width:2;vector-effect:non-scaling-stroke}</style></svg>