<?xml version="1.0" encoding="iso-8859-1"?>
<!-- Generator: Adobe Illustrator 19.2.0, SVG Export Plug-In . SVG Version: 6.00 Build 0)  -->
<!DOCTYPE svg PUBLIC "-//W3C//DTD SVG 1.1//EN" "http://www.w3.org/Graphics/SVG/1.1/DTD/svg11.dtd">
<svg version="1.1" xmlns="http://www.w3.org/2000/svg" xmlns:xlink="http://www.w3.org/1999/xlink" x="0px" y="0px"
	 viewBox="0 0 125 125.624" style="enable-background:new 0 0 125 125.624;" xml:space="preserve">
<g id="ko">
	<g id="ko_1_">
		<g>
			<path style="fill:#FFFFFF;" d="M115.034,78c4.22,37.101-6.262,45.167-27.774,45.167c-16.242,0-29.409-20.222-29.409-45.167
				s11.532-45.167,27.774-45.167S112.04,51.678,115.034,78z"/>
			<path d="M117.521,77.742c0,0,0.098,0.932,0.283,2.679c0.176,1.757,0.414,4.413,0.568,7.745c0.145,3.347,0.206,7.444-0.286,12.196
				c-0.268,2.374-0.667,4.917-1.44,7.574c-0.779,2.646-1.947,5.428-3.787,8.035c-0.958,1.276-2.041,2.519-3.32,3.603
				c-1.283,1.071-2.702,2.022-4.224,2.788c-1.527,0.747-3.128,1.353-4.769,1.812c-1.642,0.433-3.317,0.784-5.006,0.996
				c-1.689,0.226-3.397,0.356-5.109,0.396c-0.858,0.033-1.716,0.036-2.577,0.034l-0.74-0.004l-0.629-0.032
				c-0.426-0.025-0.81-0.026-1.341-0.101c-3.927-0.419-7.478-1.951-10.655-4.094c-3.128-2.189-5.845-4.927-8.071-8.011
				c-2.271-3.055-4.123-6.423-5.603-9.95c-2.986-7.053-4.548-14.736-4.856-22.432c-0.081-1.921-0.076-3.866-0.012-5.742
				c0.079-1.95,0.191-3.853,0.411-5.758c0.398-3.81,1.117-7.577,2.121-11.246c2.049-7.298,5.334-14.341,10.548-19.761
				c2.585-2.697,5.713-4.924,9.203-6.224c3.459-1.351,7.272-1.617,10.726-1.119c3.506,0.546,6.778,1.948,9.439,3.878
				c2.707,1.892,4.836,4.237,6.629,6.594c3.518,4.793,5.679,9.717,7.367,14.101c1.658,4.406,2.713,8.36,3.444,11.635
				c0.749,3.273,1.108,5.883,1.356,7.657c0.214,1.778,0.328,2.727,0.328,2.727L117.521,77.742z M112.55,78.283
				c0,0-0.118-0.911-0.34-2.619c-0.239-1.705-0.617-4.198-1.173-7.353c-0.594-3.143-1.371-6.962-2.732-11.182
				c-0.676-2.109-1.505-4.316-2.568-6.539c-1.045-2.23-2.336-4.473-3.909-6.613c-1.594-2.11-3.455-4.161-5.723-5.751
				c-2.237-1.635-4.883-2.761-7.742-3.226c-2.907-0.413-5.908-0.215-8.775,0.883c-2.864,1.053-5.525,2.904-7.803,5.265
				c-4.576,4.751-7.664,11.261-9.566,18.119c-0.936,3.448-1.612,7.011-1.982,10.628c-0.206,1.804-0.309,3.638-0.38,5.428
				c-0.06,1.865-0.06,3.671,0.02,5.494c0.328,7.265,1.745,14.522,4.546,21.059c0.701,1.631,1.474,3.22,2.35,4.733
				c0.862,1.521,1.802,2.983,2.859,4.332c2.086,2.716,4.546,5.053,7.268,6.761c1.366,0.842,2.789,1.528,4.241,2.033
				c0.725,0.262,1.464,0.44,2.197,0.618l1.109,0.189c0.367,0.063,0.696,0.066,1.043,0.112c0.306,0.052,0.768,0.05,1.181,0.064
				l0.629,0.017l0.516-0.014c0.811-0.016,1.615-0.037,2.408-0.086c1.59-0.078,3.138-0.23,4.642-0.425
				c1.507-0.193,2.945-0.506,4.327-0.873c1.372-0.39,2.657-0.888,3.852-1.474c1.184-0.602,2.246-1.328,3.208-2.129
				c0.953-0.813,1.756-1.75,2.487-2.719c2.803-4.026,3.799-8.919,4.299-13.208c0.466-4.337,0.431-8.23,0.301-11.43
				c-0.139-3.22-0.352-5.699-0.519-7.438c-0.179-1.748-0.274-2.68-0.274-2.68L112.55,78.283z"/>
		</g>
		<g>
			<path style="fill:#FFFFFF;" d="M89.624,68c4.585,45.315-6.803,55.167-30.174,55.167c-17.646,0-31.95-24.699-31.95-55.167
				s12.529-55.167,30.174-55.167S86.371,35.85,89.624,68z"/>
			<path d="M91.615,67.816c0,0,0.107,1.096,0.308,3.152c0.195,2.057,0.447,5.145,0.64,9.033c0.034,0.977,0.07,2.006,0.108,3.085
				c0.013,1.082,0.026,2.215,0.04,3.396c-0.008,2.366-0.036,4.931-0.249,7.683c-0.183,2.75-0.543,5.692-1.209,8.78
				c-0.686,3.077-1.656,6.341-3.395,9.525c-0.853,1.596-1.938,3.137-3.19,4.597c-1.283,1.44-2.792,2.739-4.467,3.827
				c-3.366,2.171-7.296,3.449-11.251,4.073c-1.985,0.336-3.993,0.524-6.009,0.611c-1.011,0.045-2.02,0.047-3.034,0.045l-0.381,0.001
				l-0.202-0.003l-0.092-0.005l-0.184-0.01l-0.739-0.042c-0.257-0.023-0.469-0.022-0.765-0.064l-0.879-0.128
				c-4.548-0.694-8.582-2.917-11.89-5.825c-3.327-2.91-5.975-6.447-8.265-10.176c-1.135-1.876-2.162-3.818-3.104-5.809
				c-0.924-1.999-1.735-4.053-2.494-6.131c-1.494-4.166-2.615-8.486-3.462-12.868c-0.812-4.39-1.307-8.854-1.501-13.33
				c-0.046-1.127-0.064-2.22-0.089-3.378c0.01-1.107-0.009-2.189,0.025-3.316c0.058-2.258,0.151-4.483,0.353-6.708
				c0.364-4.449,1.029-8.864,2.016-13.187c1.993-8.609,5.17-17.027,10.625-23.911c2.729-3.405,6.109-6.389,10.127-8.256
				c4.014-1.888,8.595-2.361,12.75-1.602c4.225,0.739,7.934,2.871,10.884,5.372c1.476,1.268,2.767,2.651,3.956,4.057
				c1.143,1.434,2.217,2.875,3.126,4.356c1.866,2.94,3.333,5.907,4.5,8.796c1.174,2.887,2.136,5.666,2.866,8.319
				c1.487,5.299,2.351,9.989,2.968,13.853c0.606,3.866,0.996,6.907,1.23,8.984c0.213,2.078,0.326,3.187,0.326,3.187L91.615,67.816z
				 M87.634,68.201c0,0-0.129-1.081-0.37-3.109c-0.282-2.02-0.646-4.994-1.388-8.721c-0.755-3.72-1.78-8.221-3.392-13.208
				c-1.582-4.98-3.675-10.535-6.944-15.885c-0.804-1.347-1.742-2.621-2.725-3.888c-1.02-1.228-2.112-2.424-3.33-3.492
				c-2.443-2.103-5.339-3.794-8.611-4.398c-3.272-0.645-6.792-0.375-10.029,1.065c-3.244,1.429-6.192,3.87-8.676,6.851
				c-4.989,6.015-8.225,13.902-10.278,22.093c-1.027,4.115-1.754,8.354-2.191,12.646c-0.239,2.142-0.371,4.313-0.47,6.453
				c-0.055,1.072-0.059,2.193-0.09,3.288c0.003,1.044-0.002,2.155,0.021,3.23c0.229,8.652,1.566,17.329,4.431,25.344
				c1.444,3.995,3.261,7.815,5.496,11.279c1.134,1.719,2.363,3.352,3.72,4.834c1.361,1.475,2.845,2.792,4.396,3.936
				c1.554,1.142,3.195,2.096,4.894,2.775c1.676,0.68,3.483,1.118,5.109,1.296l0.597,0.066c0.195,0.025,0.481,0.014,0.716,0.023
				l0.74,0.023l0.185,0.006l0.092,0.003c-0.183-0.003,0-0.002-0.017-0.004l0.357-0.009c0.952-0.022,1.897-0.045,2.827-0.11
				c1.865-0.084,3.687-0.247,5.436-0.543c3.512-0.544,6.731-1.632,9.368-3.322c1.305-0.862,2.486-1.842,3.525-2.941
				c1.004-1.132,1.907-2.337,2.641-3.643c1.499-2.592,2.43-5.447,3.115-8.22c0.674-2.785,1.085-5.523,1.321-8.124
				c0.526-5.2,0.459-9.831,0.332-13.629c-0.152-3.816-0.362-6.77-0.535-8.827c-0.18-2.058-0.275-3.155-0.275-3.155L87.634,68.201z"
				/>
		</g>
		<path style="fill:#FFFFFF;stroke:#000000;stroke-width:5;stroke-linecap:round;stroke-linejoin:round;stroke-miterlimit:10;" d="
			M100.505,61.771c18.326-2.938,21.995-11.062,21.995-29.333S104.065,2.5,87.497,2.5H62.5c-33.137,0-60,26.863-60,60v30
			c0,16.569,13.431,30,30,30h-0.042c16.569,0,30-13.431,30-30V64.501C62.458,64.501,82.179,64.708,100.505,61.771z"/>
		<g>
			<g>
				<path d="M86.162,31.942c0,0-0.023,0.385-0.067,1.106c-0.001,0.325-0.088,0.875-0.194,1.503
					c-0.083,0.647-0.276,1.299-0.488,2.035c-0.465,1.456-1.219,3.187-2.496,4.882c-1.263,1.695-3.023,3.354-5.247,4.641
					c-2.22,1.279-4.881,2.221-7.784,2.514c-0.362,0.039-0.729,0.039-1.096,0.059l-0.554,0.022l-0.278,0.01l-0.338-0.01
					c-0.698-0.042-1.312-0.014-2.151-0.15c-0.395-0.054-0.799-0.103-1.192-0.169c-0.377-0.088-0.756-0.176-1.137-0.264
					c-0.767-0.159-1.504-0.462-2.259-0.715c-1.482-0.594-2.932-1.356-4.273-2.331c-1.318-1-2.555-2.162-3.592-3.523
					c-1.02-1.37-1.865-2.901-2.443-4.552c-0.545-1.662-0.836-3.409-0.875-5.166l0.073-1.262c0.003-0.351,0.094-0.849,0.166-1.303
					c0.122-0.951,0.396-1.755,0.635-2.601c0.578-1.651,1.422-3.182,2.443-4.552c1.037-1.361,2.273-2.523,3.592-3.523
					c1.341-0.975,2.791-1.737,4.273-2.331c1.498-0.541,3.013-0.992,4.539-1.142c0.756-0.133,1.514-0.117,2.259-0.158l0.14-0.005
					l0.07-0.003l0.148,0.001l0.253,0.01l0.505,0.02c0.343,0.019,0.652,0.015,1.016,0.053c1.538,0.176,2.927,0.434,4.224,0.894
					c1.312,0.414,2.522,0.992,3.636,1.626c2.224,1.286,3.984,2.945,5.247,4.641c1.277,1.695,2.031,3.426,2.496,4.882
					c0.213,0.738,0.405,1.397,0.481,1.991c0.102,0.588,0.192,1.089,0.199,1.501c0.048,0.822,0.073,1.26,0.073,1.26L86.162,31.942z
					 M82.165,31.833c0,0-0.016-0.331-0.046-0.952c0.006-0.313-0.065-0.69-0.135-1.135c-0.044-0.451-0.191-0.949-0.341-1.51
					c-0.349-1.105-0.886-2.431-1.82-3.787c-0.932-1.35-2.272-2.711-4.02-3.803c-0.448-0.251-0.881-0.559-1.379-0.765
					c-0.243-0.115-0.488-0.232-0.736-0.349c-0.252-0.107-0.519-0.185-0.781-0.281c-1.048-0.397-2.209-0.606-3.296-0.766
					c-0.292-0.039-0.653-0.042-0.98-0.064l-0.504-0.027l-0.253-0.014c-0.083-0.002,0.077,0,0.05,0.001l-0.029,0.002l-0.057,0.003
					l-0.115,0.007c-0.611,0.048-1.236,0.032-1.851,0.156c-1.249,0.132-2.472,0.53-3.682,0.976c-1.183,0.524-2.326,1.178-3.367,1.989
					c-1.018,0.836-1.961,1.782-2.729,2.867c-0.747,1.097-1.352,2.285-1.787,3.537c-0.162,0.635-0.378,1.297-0.436,1.88
					c-0.045,0.307-0.119,0.565-0.121,0.987l-0.052,1.046c0.019,1.329,0.218,2.646,0.608,3.914c0.435,1.252,1.04,2.441,1.787,3.537
					c0.768,1.085,1.712,2.031,2.729,2.867c1.042,0.811,2.184,1.465,3.367,1.989c0.612,0.205,1.202,0.471,1.827,0.603l0.923,0.23
					l0.882,0.137c0.533,0.121,1.302,0.116,1.96,0.163l0.127,0.007l0.063,0.003l0.032,0.002c0.029,0.002-0.134-0.004-0.052-0.003
					l0.229-0.013l0.455-0.026c0.302-0.022,0.604-0.021,0.899-0.058c2.371-0.276,4.529-1.062,6.266-2.167
					c1.747-1.092,3.087-2.453,4.02-3.803c0.934-1.356,1.472-2.682,1.82-3.787c0.151-0.563,0.298-1.068,0.334-1.466
					c0.065-0.405,0.139-0.734,0.139-1.134c0.034-0.722,0.052-1.107,0.052-1.107L82.165,31.833z"/>
			</g>
			<ellipse cx="67.931" cy="31.833" rx="5.899" ry="5.512"/>
		</g>
	</g>
</g>
<g id="Layer_1">
</g>
</svg>
