<svg xmlns="http://www.w3.org/2000/svg" viewBox="0 0 80 80" width="168" height="168">
  <title>
    misikeke
  </title>
  <g stroke-width="2" fill="none" stroke-linecap="round">
    <path fill="#231f20" stroke="#231f20" d="M65.79 26.11c1.25.52 2.73.74 3.88 1.47 9.9 6.22 11.05 18.7 8.49 29.22q-.97 4-3.41 7.59c-2.48 3.64-6.98 5.63-11.13 7.3-5.04 2.03-11.57 1.58-16.58.58-1.91-.39-5.49-.91-5.99 1.77a1.77 1.76 24.1 0 1-2.81 1.07c-2.64-2.02-3.19-4.73-7.26-3.87Q21.65 73.22 11.79 70C4.66 67.67 1.66 60.77 1.07 53.72q-1.48-17.5 11.99-28.63.46-.38.13-.87c-4.71-7.02.95-14.87 8.3-16.42q4.66-.99 9.83-1.3a1.44 1.44 0 0 0 .97-.47q8.31-9.15 15.84.03.38.46.98.46c6.83-.06 12.6-.38 17.97 4.71q4.93 4.68 1.51 10.58-1.23 2.1-2.92 3.63-.48.43.12.67ZM35.27 20.3l9.78.1a1.7 1.7 0 0 0 1.72-1.68l.07-6.15a8.49 6.49-89.4 0 0-6.4-8.56h-.2a8.49 6.49-89.4 0 0-6.58 8.42l-.07 6.15a1.7 1.7 0 0 0 1.68 1.72Zm18.68 9.52a1.3 1.3 0 0 1 .61-2.36q6.9-.75 10.78-5.6 3.51-4.38-.12-8.3c-4.35-4.69-9.4-4.62-15.47-4.57a.75.75 0 0 0-.75.76l.01.44q.01 1.02 1.02.89c3.07-.41 5.94.21 7.5 3.13q.92 1.72-.22 3.58c-2.51 4.08-6.95 3.92-11.1 4.84-3.5.77-6.17-.33-9.55-.56q-2.27-.14-4.82-.7c-2.7-.58-9.9-1.17-9.64-5.23.22-3.38 4.97-5.09 7.8-5.42a1.3 1.29 13.5 0 0 .92-.56l.25-.36q.53-.78-.41-.79-6.63-.14-11.25 1.86-4.94 2.14-5.58 7.63c-.48 4.07 5.42 6.75 8.57 7.11q2.48.27 4.98.34a.71.71 0 0 1 .68.83c-.1.54-.46.92-.94 1.14-4.37 1.96-9.76 8.08-3.76 12.11q3.3 2.21 7.03 3.27 5.6 1.58 8.33 7.12a.51.51 0 0 0 .91-.01c1.82-3.82 6.64-4.78 10.43-5.05q3-.21 5.62-1.8 3.82-2.32 3.31-7.32c-.33-3.12-2.79-4.78-5.14-6.42Zm-23.13-11.6-.04-4.84a.21.21 0 0 0-.21-.21h-.16a5.41 2.55-.4 0 0-5.39 2.59v.16a5.41 2.55-.4 0 0 5.43 2.51h.16a.21.21 0 0 0 .21-.21Zm18.51-4.1.34 4.55a.79.79 0 0 0 .85.73l.12-.01a4.65 3.07-4.3 0 0 4.4-3.41h0a4.65 3.07-4.3 0 0-4.86-2.71l-.12.01a.79.79 0 0 0-.73.84ZM39.27 55.77c-2.36-3.33-4.26-7.98-8.37-9.53q-4.14-1.56-7.89-3.47c-6.61-3.37-6.42-9.31-1.43-13.9q.66-.62-.22-.78-2.55-.46-4.81-1.42a1.83 1.82 36.1 0 0-1.91.29Q.23 39.37 4.76 58.47q1.68 7.11 8.81 9.44c5.83 1.91 12.1 2.03 18.15.68 2.61-.58 4.87.66 6.39 2.73q.29.4.67.09 2.36-1.95 5.92-1.83 3.9.13 7.78.64 4.53.59 7.33-.01c9.22-1.97 14.71-6.41 16.43-16.29q2.11-12.12-3.61-19.82-1.96-2.63-6.87-5.56c-.5-.3-.87-.96-1.18-1.45q-.28-.44-.73-.17-2.55 1.49-5.5 2.24-.53.13-.1.46 5.06 3.91 3.55 9.93c-1.7 6.81-8.56 7.94-14.67 8.88-4.38.67-4.93 3.33-5.77 6.93a1.17 1.17 0 0 1-2.09.41Z"/>
    <path fill="#fff" d="M35.27 20.3a1.7 1.7 0 0 1-1.68-1.72l.07-6.15a8.49 6.49-89.4 0 1 6.58-8.42h.2a8.49 6.49-89.4 0 1 6.4 8.56l-.07 6.15a1.7 1.7 0 0 1-1.72 1.68l-9.78-.1Z"/>
    <path fill="#fff" d="M53.95 29.82c2.35 1.64 4.81 3.3 5.14 6.42q.51 5-3.31 7.32-2.62 1.59-5.62 1.8c-3.79.27-8.61 1.23-10.43 5.05a.51.51 0 0 1-.91.01q-2.73-5.54-8.33-7.12-3.73-1.06-7.03-3.27c-6-4.03-.61-10.15 3.76-12.11.48-.22.84-.6.94-1.14a.71.71 0 0 0-.68-.83q-2.5-.07-4.98-.34c-3.15-.36-9.05-3.04-8.57-7.11q.64-5.49 5.58-7.63 4.62-2 11.25-1.86.94.01.41.79l-.25.36a1.3 1.29 13.5 0 1-.92.56c-2.83.33-7.58 2.04-7.8 5.42-.26 4.06 6.94 4.65 9.64 5.23q2.55.56 4.82.7c3.38.23 6.05 1.33 9.55.56 4.15-.92 8.59-.76 11.1-4.84q1.14-1.86.22-3.58c-1.56-2.92-4.43-3.54-7.5-3.13q-1.01.13-1.02-.89L49 9.75a.75.75 0 0 1 .75-.76c6.07-.05 11.12-.12 15.47 4.57q3.63 3.92.12 8.3-3.88 4.85-10.78 5.6a1.3 1.3 0 0 0-.61 2.36Z"/>
    <path fill="#fff" d="M30.82 18.22a.21.21 0 0 1-.21.21h-.16a5.41 2.55-.4 0 1-5.43-2.51v-.16a5.41 2.55-.4 0 1 5.39-2.59h.16a.21.21 0 0 1 .21.21l.04 4.84ZM49.33 14.12a.79.79 0 0 1 .73-.84l.12-.01a4.65 3.07-4.3 0 1 4.86 2.71 4.65 3.07-4.3 0 1-4.4 3.41l-.12.01a.79.79 0 0 1-.85-.73l-.34-4.55ZM39.27 55.77a1.17 1.17 0 0 0 2.09-.41c.84-3.6 1.39-6.26 5.77-6.93 6.11-.94 12.97-2.07 14.67-8.88q1.51-6.02-3.55-9.93-.43-.33.1-.46 2.95-.75 5.5-2.24.45-.27.73.17c.31.49.68 1.15 1.18 1.45q4.91 2.93 6.87 5.56 5.72 7.7 3.61 19.82c-1.72 9.88-7.21 14.32-16.43 16.29q-2.8.6-7.33.01-3.88-.51-7.78-.64-3.56-.12-5.92 1.83-.38.31-.67-.09c-1.52-2.07-3.78-3.31-6.39-2.73-6.05 1.35-12.32 1.23-18.15-.68q-7.13-2.33-8.81-9.44-4.53-19.1 9.88-31.51a1.83 1.82 36.1 0 1 1.91-.29q2.26.96 4.81 1.42.88.16.22.78c-4.99 4.59-5.18 10.53 1.43 13.9q3.75 1.91 7.89 3.47c4.11 1.55 6.01 6.2 8.37 9.53Zm-19.3-5.96-8.3 6.36a.11.11 0 0 0-.02.16l.03.04a2.22 1.88-37.5 0 0 2.91.14l4.95-3.8a2.22 1.88-37.5 0 0 .61-2.84l-.03-.04a.11.11 0 0 0-.15-.02Zm43.97 5.95-2.56-4.09q-.57-.92-1.48-.32l-.26.17q-1.13.75-.32 1.84l3.25 4.38a1.71 1.7-16.7 0 0 1.29.69q2.31.13 2.21-1.41-.04-.6-.62-.79-.23-.07-.46-.02-.68.14-1.05-.45Zm-44.58 3.93a.88.86-20.7 0 0-.41.89q.12.65.57.86a1.25 1.25 0 0 0 1.1-.04q3.15-1.7 4.94-4.46a3.11 3.06 61.7 0 0 .5-1.72q0-.42-.17-.79-.3-.7-.73-.07-2.23 3.23-5.8 5.33Zm35.06-3.857a1.02 1.02 0 0 0-1.425-.218l-.339.248a1.02 1.02 0 0 0-.218 1.426l3.422 4.658a1.02 1.02 0 0 0 1.425.218l.339-.248a1.02 1.02 0 0 0 .218-1.426l-3.422-4.658Z"/>
    <path fill="#231f20" d="M19.97 49.81a.11.11 0 0 1 .15.02l.03.04a2.22 1.88-37.5 0 1-.61 2.84l-4.95 3.8a2.22 1.88-37.5 0 1-2.91-.14l-.03-.04a.11.11 0 0 1 .02-.16l8.3-6.36ZM64.99 56.21q.23-.05.46.02.58.19.62.79.1 1.54-2.21 1.41a1.71 1.7-16.7 0 1-1.29-.69l-3.25-4.38q-.81-1.09.32-1.84l.26-.17q.91-.6 1.48.32l2.56 4.09q.37.59 1.05.45ZM19.36 59.69q3.57-2.1 5.8-5.33.43-.63.73.07.17.37.17.79a3.11 3.06 61.7 0 1-.5 1.72q-1.79 2.76-4.94 4.46a1.25 1.25 0 0 1-1.1.04q-.45-.21-.57-.86a.88.86-20.7 0 1 .41-.89Z"/>
    <rect fill="#231f20" x="-1.23" y="-3.91" transform="rotate(-36.3 117.392 -54.657)" width="2.46" height="7.82" rx="1.02"/>
  </g>
</svg>
