<svg xmlns="http://www.w3.org/2000/svg" viewBox="-2 -2 129 49" preserveAspectRatio="none"><g id="lili" fill="#FFF" stroke="#000" stroke-miterlimit="10"><path d="M75.875 8.022C85.495 5.966 93.31 2.5 102.61 2.5c13.223 0 19.89 8.954 19.89 20s-7.11 20-19.89 20c-8.952 0-14.578-4.913-24.482-7.854M46.265 34.817C36.655 37.773 31.018 42.5 22.39 42.5c-12.557 0-19.89-8.954-19.89-20s9.444-20 19.89-20c7.39 0 16.058 3.506 26.4 5.557" stroke-width="5"/><circle cx="62.5" cy="22.5" r="20" stroke-width="5"/><path d="M18.25 19.833s11 6 24.333 6M106.75 19.833s-11 6-24.333 6" stroke-width="4" stroke-linecap="round" stroke-linejoin="round"/></g><style>ellipse,polygon,polyline,rect,circle,line,path{stroke-width:2;vector-effect:non-scaling-stroke}</style></svg>