<?xml version="1.0" encoding="iso-8859-1"?>
<!-- Generator: Adobe Illustrator 19.2.0, SVG Export Plug-In . SVG Version: 6.00 Build 0)  -->
<!DOCTYPE svg PUBLIC "-//W3C//DTD SVG 1.1//EN" "http://www.w3.org/Graphics/SVG/1.1/DTD/svg11.dtd">
<svg version="1.1" xmlns="http://www.w3.org/2000/svg" xmlns:xlink="http://www.w3.org/1999/xlink" x="0px" y="0px"
	 viewBox="0 0 122.623 125.146" style="enable-background:new 0 0 122.623 125.146;" xml:space="preserve">
<g id="anpa">
	<g id="anpa_2_">
		<circle style="fill:#FFFFFF;" cx="54.873" cy="60.031" r="35.5"/>
		<path style="fill:#FFFFFF;stroke:#000000;stroke-width:5;stroke-miterlimit:10;" d="M60.035,2.531"/>
		<g>
			<path style="fill:#FFFFFF;" d="M82.035,68.198v-9.667c0-20-10.502-28.464-23.333-28.464c-9.835,0-20.333,6.797-23.667,18.732
				c-2.937,10.517-8.284,16.268-17.269,16.268c-1.803,0-3.497-0.293-5.054-0.835C6.513,62.076,2.499,55.981,2.499,48.8
				c0-3.032,0.845-6.548,2.29-9.714c9.13-21.487,30.429-36.555,55.246-36.555c33.137,0,60,26.863,60,60v30c0,16.569-13.431,30-30,30
				h-53c-16.569,0-30-13.431-30-30v-4.75v0.938c0-7.383,1.498-15.991,5.033-22.534"/>
			<path d="M80.035,68.198v-7.67v-1.917l-0.03-1.884c-0.052-1.195-0.128-2.412-0.27-3.63c-0.557-4.827-1.948-9.578-4.712-13.335
				c-2.727-3.767-6.846-6.325-11.457-7.215c-2.284-0.465-4.726-0.595-7.015-0.361c-2.316,0.247-4.604,0.892-6.742,1.871
				c-4.283,1.956-7.953,5.252-10.357,9.321c-0.603,1.016-1.132,2.076-1.586,3.171c-0.229,0.547-0.426,1.106-0.616,1.668
				l-0.528,1.773c-0.753,2.566-1.706,5.094-3.058,7.509c-1.354,2.398-3.154,4.686-5.519,6.404c-2.358,1.718-5.222,2.742-8.044,3.033
				c-2.783,0.313-5.737,0.172-8.54-0.893c-0.311-0.119-0.577-0.195-0.926-0.348L9.57,65.202c-0.659-0.359-1.302-0.703-1.901-1.138
				c-1.214-0.834-2.332-1.822-3.278-2.952c-0.946-1.126-1.794-2.346-2.429-3.672c-0.629-1.325-1.12-2.71-1.454-4.129
				c-0.314-1.421-0.497-2.869-0.504-4.315c-0.009-0.469-0.002-0.632,0.015-1.068c0.015-0.397,0.046-0.751,0.076-1.11
				c0.071-0.715,0.173-1.419,0.3-2.115c0.259-1.39,0.625-2.743,1.079-4.064c0.229-0.66,0.482-1.311,0.753-1.955l0.795-1.789
				c0.247-0.574,0.533-1.176,0.841-1.793c0.298-0.611,0.596-1.225,0.916-1.803c0.616-1.181,1.29-2.331,1.977-3.471
				c5.579-9.078,13.497-16.702,22.807-21.895C38.88,2.703,49.467-0.028,60.234,0l1.917,0.048c0.63,0.008,1.279,0.032,1.97,0.094
				l2.033,0.153c0.674,0.058,1.326,0.159,1.989,0.238c2.647,0.315,5.26,0.867,7.844,1.517c5.143,1.39,10.15,3.35,14.775,6.006
				c9.316,5.204,17.169,12.907,22.747,21.987c5.534,9.113,8.721,19.662,9.047,30.323l0.051,1.998l0.005,1.924l0.002,3.835
				l0.003,7.67l0.007,15.34l0,0.959l-0.002,0.545l-0.012,0.479l-0.024,0.958l-0.074,1.071c-0.103,1.439-0.317,2.775-0.592,4.148
				c-0.59,2.713-1.484,5.371-2.748,7.846c-2.474,4.981-6.281,9.264-10.866,12.395c-4.601,3.111-10.012,5.046-15.554,5.484
				c-2.868,0.208-5.297,0.09-7.881,0.124l-7.67,0.003l-30.68-0.038l-7.67-0.01l-1.982-0.006l-0.958-0.025l-0.479-0.013l-0.538-0.039
				c-1.465-0.086-2.79-0.284-4.168-0.543c-5.449-1.074-10.604-3.578-14.806-7.196c-4.229-3.589-7.476-8.3-9.402-13.499
				c-0.944-2.607-1.57-5.331-1.835-8.088c-0.045-0.691-0.124-1.38-0.126-2.072L4.53,92.58l0-0.962l0.005-3.835l0-0.001h5v0.937h-5
				c0.008-4.061,0.413-8.1,1.242-12.086c0.418-1.992,0.948-3.969,1.616-5.917c0.338-0.973,0.709-1.938,1.114-2.895
				c0.414-0.954,0.87-1.895,1.361-2.825c0.646-1.22,2.159-1.686,3.379-1.04c1.22,0.646,1.686,2.159,1.04,3.379l-0.02,0.038
				c-0.416,0.789-0.807,1.595-1.167,2.424c-0.352,0.833-0.679,1.68-0.978,2.542c-0.593,1.727-1.071,3.509-1.451,5.319
				c-0.754,3.621-1.13,7.353-1.136,11.061c0,1.381-1.119,2.5-2.5,2.5c-1.381,0-2.5-1.119-2.5-2.5v-0.937h5v0.001l0.005,3.835
				l0.002,0.955l0.024,0.88c0,0.587,0.074,1.17,0.11,1.755c0.23,2.332,0.766,4.629,1.566,6.827c1.639,4.381,4.389,8.36,7.972,11.382
				c3.558,3.049,7.907,5.144,12.496,6.037c1.134,0.212,2.344,0.384,3.432,0.444l0.418,0.033l0.479,0.012l0.958,0.023l1.853-0.001
				l7.67-0.01l30.68-0.038l7.67,0.003c2.527-0.026,5.219,0.073,7.452-0.1c4.66-0.363,9.191-1.983,13.065-4.592
				c3.855-2.631,7.069-6.233,9.148-10.418c1.067-2.078,1.813-4.31,2.314-6.588c0.229-1.132,0.418-2.326,0.497-3.438l0.064-0.841
				l0.025-0.958l0.012-0.479l0-0.414l0-0.959l0.007-15.34l0.003-7.67l0.002-3.835l-0.003-1.911l-0.046-1.836
				c-0.291-9.795-3.206-19.459-8.277-27.834c-5.116-8.339-12.325-15.431-20.879-20.214c-4.244-2.446-8.841-4.244-13.56-5.527
				c-2.372-0.597-4.771-1.11-7.203-1.399c-0.605-0.071-1.218-0.169-1.818-0.22L63.882,5.21c-0.582-0.058-1.211-0.083-1.859-0.092
				l-1.917-0.049c-9.685-0.029-19.56,2.466-28.08,7.268c-8.562,4.765-15.856,11.777-20.995,20.122
				c-0.632,1.049-1.254,2.105-1.821,3.191c-0.301,0.54-0.56,1.077-0.823,1.614c-0.266,0.525-0.53,1.077-0.79,1.677l-0.764,1.715
				c-0.225,0.534-0.436,1.074-0.627,1.622c-0.378,1.096-0.681,2.218-0.891,3.341c-0.865,4.407,0.066,9.082,2.696,12.543
				c0.644,0.874,1.422,1.638,2.272,2.306c0.412,0.348,0.889,0.632,1.332,0.918l0.651,0.361c0.227,0.125,0.569,0.253,0.847,0.379
				c1.968,0.822,4.263,1.082,6.549,0.839c2.262-0.23,4.37-0.994,6.161-2.277c1.791-1.289,3.253-3.088,4.416-5.128
				c1.158-2.045,2.038-4.326,2.732-6.66l0.575-1.9c0.22-0.649,0.454-1.293,0.714-1.928c0.52-1.269,1.13-2.504,1.828-3.689
				c2.785-4.749,7.051-8.618,12.064-10.929c2.506-1.157,5.199-1.931,7.967-2.237c2.796-0.294,5.521-0.132,8.246,0.411
				c2.714,0.541,5.374,1.559,7.76,3.054c2.4,1.477,4.464,3.474,6.124,5.715c3.324,4.538,4.845,9.966,5.46,15.245
				c0.154,1.322,0.239,2.658,0.295,4.017l0.031,1.951v1.917v7.67c0,1.105-0.895,2-2,2S80.035,69.303,80.035,68.198z"/>
		</g>
		<path style="fill:none;stroke:#000000;stroke-width:4;stroke-linecap:round;stroke-linejoin:round;stroke-miterlimit:10;" d="
			M19.373,43.637c4.661-16.855,23.071-27.91,40.661-27.91c27.256,0,45,20.138,45,52.472v48.667"/>
	</g>
</g>
<g id="Layer_1">
</g>
</svg>
