<?xml version="1.0" encoding="UTF-8"?>
<svg id="Layer_1" xmlns="http://www.w3.org/2000/svg" version="1.1" viewBox="0 0 168 168">
  <!-- Generator: Adobe Illustrator 30.1.0, SVG Export Plug-In . SVG Version: 2.1.1 Build 136)  -->
  <defs>
    <style>
      .st0 {
        fill: #fff;
      }

      .st0, .st1 {
        stroke: #000;
        stroke-miterlimit: 10;
        stroke-width: 2px;
      }

      .st1 {
        fill: none;
      }
    </style>
  </defs>
  <g id="misikeke">
    <path class="st1" d="M84.49,156.68c2.47-.42,5.65-5.59,9.15-6.96,5.74-2.72,12.52-.66,18.65.03,7.22,1.23,13.95,1.82,21.14-.19,8.68-2.33,18.74-5.16,24.06-12.84,5.88-9.39,8.93-24.24,8.33-35.61-.58-6.73-2.76-13.65-5.05-19.7-4.49-12.29-15.37-25.67-24.26-28.98-1.34-.47-.07-1.71.4-2.45,1.54-1.98,4.95-6.71,5.22-10.82.7-7.15-4.31-13.66-9.93-17.48-4.19-2.97-9.5-4.97-15.53-6.03-16.97-2.47-27.29-2.48-40.41-2.2-12.86.7-29.15.73-39.85,8.33-5.45,3.74-10.25,9.99-9.82,16.93.03,4.23,3.8,9.35,5.83,12.07,1.05,1.54.12,1.41-1.35,2.2-8.91,3.83-19.15,17.55-23.07,28.42-2.3,6.05-4.47,12.97-5.05,19.7-.61,11.43,2.47,26.39,8.42,35.76,5.44,7.67,15.6,10.47,24.35,12.79,7.19,1.99,14.14,1.22,21.42,0,5.85-.66,12.34-2.54,17.82-.01,2.72,1.24,5.27,3.98,7.06,5.73.75.68,1.33,1.22,2.27,1.32h.19Z"/>
    <ellipse class="st1" cx="84.75" cy="34.36" rx="34.02" ry="11.18"/>
    <path class="st0" d="M67.38,43.75s.42-15.2.85-24.89c.23-5.16,8.47-14.01,16.79-14.44,4.81-.25,14.71,6.75,15.12,13.41.45,7.34,1.41,26.01,1.41,26.01"/>
    <path class="st1" d="M32.72,51.28c3.44,4.67,22.01,5.94,22.01,5.94,0,0-16.98,7.89-13.03,22.57,2.39,8.87,23.5,13.88,30.76,19.51,4.24,3.28,11.53,18.07,11.53,18.07,0,0,3.26-13.16,6.94-16.23,5.17-4.32,19.71-2.58,25.71-5.65,11.01-5.65,10.71-14.85,10.29-21.02s-11.35-14.27-11.35-14.27c0,0,16.62-3.62,19.98-8.2"/>
    <path class="st1" d="M126.68,109.88s5.08,10.59,8.89,10.87"/>
    <path class="st1" d="M111.71,118.35c0,3.37,7.91,10.9,7.91,10.9"/>
    <path class="st1" d="M41.41,107.34c-1.69,7.98-14.82,11.01-14.82,11.01"/>
    <path class="st1" d="M53.69,116.38c-.71,6.07-12.28,11.57-12.28,11.57"/>
    <path class="st0" d="M86.16,55.81"/>
  </g>
</svg>