<svg xmlns="http://www.w3.org/2000/svg" viewBox="-2 -2 274.507 68.121" preserveAspectRatio="none">
    <g id="la">
        <path d="M228.147 55.695H40.81s-9.73-2.053-9.73-13.053-2.588-40 4.658-40h192.41c4.257 0 9.95-1 9.95 6.5v36c0 5 .8 10.553-9.95 10.553z"
              fill="#FFF" stroke="#000" stroke-width="5" stroke-linecap="round" stroke-linejoin="round"
              stroke-miterlimit="10"/>
        <path d="M86.714 36.107c0 7.25-6.513 13.127-14.546 13.127s-14.546-5.877-14.546-13.127" fill="#FFF"/>
        <path d="M88.71 36.22l-.015.487c-.025.342.015.713-.116 1.508-.06.36-.1.8-.206 1.205l-.354 1.314c-.172.452-.35.94-.56 1.44-.25.48-.49 1.004-.808 1.506-.33.49-.643 1.032-1.063 1.513l-.618.753-.7.714c-.46.5-1.025.904-1.562 1.365-.583.395-1.16.837-1.813 1.17-1.264.743-2.686 1.28-4.157 1.684l-1.12.262c-.377.074-.76.116-1.14.174a8.56 8.56 0 0 1-1.153.114l-.58.03-.29.012-.144.007-.072.002-.035.002h-.14l-1.017-.052-.516-.03-.61-.078c-.402-.058-.82-.104-1.205-.18l-1.12-.264c-1.472-.404-2.894-.94-4.157-1.685-.652-.332-1.23-.774-1.813-1.17-.537-.46-1.102-.864-1.562-1.364l-.7-.713-.617-.753c-.42-.48-.732-1.022-1.063-1.513-.317-.5-.557-1.025-.808-1.504-.21-.502-.387-.99-.56-1.44-.274-.935-.475-1.756-.55-2.45-.126-.687-.103-1.237-.126-1.608-.01-.37-.017-.57-.017-.57a1.993 1.993 0 0 1 3.978-.247l.023.25.037.405c.033.263.02.656.143 1.136.07.49.25 1.062.463 1.71l.443 1c.202.33.367.7.607 1.052.253.343.472.73.793 1.065l.456.534.525.504c.336.36.773.636 1.166.97.447.27.858.61 1.352.843.936.548 2.007.933 3.11 1.23l.843.192c.276.05.533.07.8.113l.396.06.5.023 1.018.042c-.2-.005-.048-.002-.09-.003h.015l.026-.002.055-.003.11-.005.22-.01.44-.018c.293 0 .582-.032.87-.08.287-.042.578-.066.862-.12l.842-.192c1.104-.297 2.174-.68 3.11-1.23.494-.234.906-.574 1.353-.843.393-.335.83-.61 1.165-.97l.525-.503.456-.535c.32-.336.54-.722.793-1.065.24-.35.404-.722.608-1.052l.443-1 .29-.914c.093-.284.106-.506.163-.728.117-.372.122-.944.154-1.235l.038-.486a2 2 0 0 1 2.15-1.838 2.007 2.007 0 0 1 1.84 2.063z"/>
        <path d="M127.39 36.107c0 7.25-6.512 13.127-14.545 13.127S98.3 43.357 98.3 36.107" fill="#FFF"/>
        <path d="M129.388 36.22l-.016.487c-.025.342.015.713-.116 1.508-.06.36-.1.8-.205 1.205-.108.406-.226.845-.353 1.314-.172.452-.35.94-.56 1.44-.25.48-.49 1.004-.808 1.506-.332.49-.644 1.032-1.064 1.513l-.617.753c-.23.234-.465.472-.7.714-.46.5-1.026.904-1.563 1.365-.583.395-1.16.837-1.813 1.17-1.264.743-2.686 1.28-4.157 1.684l-1.12.262c-.377.074-.76.116-1.14.174a8.56 8.56 0 0 1-1.153.114l-.58.03-.29.012-.144.007-.072.002-.036.002h-.14l-1.017-.052-.516-.03-.61-.078c-.403-.058-.82-.104-1.206-.18l-1.12-.264c-1.472-.404-2.894-.94-4.157-1.685-.652-.332-1.23-.774-1.813-1.17-.537-.46-1.102-.864-1.562-1.364l-.7-.713-.617-.753c-.42-.48-.732-1.022-1.063-1.513-.317-.5-.557-1.025-.808-1.504-.21-.502-.387-.99-.56-1.44-.274-.935-.475-1.756-.55-2.45-.126-.687-.103-1.237-.126-1.608l-.018-.57a1.993 1.993 0 0 1 3.978-.247l.022.25.037.405c.033.263.02.656.143 1.136.07.49.25 1.062.463 1.71l.443 1c.203.33.368.7.608 1.052.253.343.472.73.793 1.065l.456.534.525.504c.335.36.772.636 1.165.97.447.27.858.61 1.352.843.936.548 2.007.933 3.11 1.23l.843.192c.275.05.532.07.798.113l.397.06.5.023 1.018.042c-.2-.005-.047-.002-.088-.003h.014l.027-.002.055-.003.11-.005.22-.01.438-.018c.294 0 .583-.032.87-.08.288-.042.58-.066.863-.12l.84-.192c1.105-.297 2.175-.68 3.112-1.23.493-.234.905-.574 1.352-.843.393-.335.83-.61 1.165-.97l.524-.503.456-.535c.32-.336.54-.722.793-1.065.24-.35.404-.722.608-1.052l.444-1 .29-.914c.093-.284.106-.506.163-.728.117-.372.122-.944.154-1.235l.04-.486a2 2 0 0 1 2.15-1.838 2.007 2.007 0 0 1 1.838 2.063z"/>
        <path d="M168.068 36.107c0 7.25-6.513 13.127-14.546 13.127-8.034 0-14.546-5.877-14.546-13.127" fill="#FFF"/>
        <path d="M170.065 36.22l-.016.487c-.026.342.014.713-.117 1.508-.06.36-.1.8-.205 1.205l-.354 1.314c-.172.452-.35.94-.56 1.44-.25.48-.49 1.004-.808 1.506-.33.49-.643 1.032-1.063 1.513l-.617.753-.7.714c-.46.5-1.025.904-1.562 1.365-.583.395-1.16.837-1.813 1.17-1.263.743-2.685 1.28-4.156 1.684l-1.12.262c-.377.074-.76.116-1.14.174a8.56 8.56 0 0 1-1.153.114l-.578.03-.29.012-.145.007-.072.002-.036.002h-.14l-1.018-.052-.516-.03-.61-.078c-.402-.058-.82-.104-1.205-.18l-1.12-.264c-1.47-.404-2.893-.94-4.156-1.685-.652-.332-1.23-.774-1.813-1.17-.536-.46-1.1-.864-1.56-1.364-.238-.24-.47-.478-.7-.713l-.618-.753c-.42-.48-.732-1.022-1.063-1.513-.318-.5-.558-1.025-.81-1.504-.21-.502-.386-.99-.56-1.44-.273-.935-.474-1.756-.548-2.45-.127-.687-.104-1.237-.127-1.608l-.018-.57a1.993 1.993 0 0 1 3.978-.247l.022.25.037.405c.033.263.02.656.143 1.136.07.49.25 1.062.463 1.71l.443 1c.203.33.368.7.608 1.052.254.343.473.73.794 1.065l.456.534.525.504c.335.36.772.636 1.165.97.447.27.858.61 1.352.843.936.548 2.007.933 3.11 1.23l.843.192c.275.05.532.07.798.113l.397.06.5.023 1.018.042c-.2-.005-.048-.002-.09-.003h.015l.027-.002.055-.003.11-.005.22-.01.438-.018c.294 0 .583-.032.87-.08.288-.042.58-.066.863-.12l.842-.192c1.104-.297 2.174-.68 3.11-1.23.494-.234.906-.574 1.353-.843.394-.335.83-.61 1.166-.97l.525-.503.457-.535c.32-.336.54-.722.793-1.065.24-.35.404-.722.608-1.052l.443-1c.105-.325.2-.63.29-.914.094-.284.107-.506.164-.728.117-.372.122-.944.154-1.235l.038-.486a2 2 0 0 1 2.15-1.838 2.007 2.007 0 0 1 1.84 2.063z"/>
        <g>
            <path d="M208.745 36.107c0 7.25-6.513 13.127-14.546 13.127s-14.547-5.877-14.547-13.127" fill="#FFF"/>
            <path d="M210.742 36.22l-.016.487c-.025.342.015.713-.116 1.508-.06.36-.1.8-.205 1.205l-.354 1.314c-.17.452-.35.94-.56 1.44-.25.48-.49 1.004-.807 1.506-.33.49-.643 1.032-1.063 1.513l-.617.753-.7.714c-.46.5-1.025.904-1.562 1.365-.582.395-1.16.837-1.812 1.17-1.264.743-2.686 1.28-4.157 1.684l-1.12.262c-.376.074-.76.116-1.14.174a8.56 8.56 0 0 1-1.152.114l-.58.03-.29.012-.144.007-.072.002-.036.002h-.14l-1.017-.052-.517-.03-.61-.078c-.402-.058-.82-.104-1.205-.18l-1.12-.264c-1.472-.404-2.894-.94-4.157-1.685-.65-.332-1.23-.774-1.812-1.17-.537-.46-1.102-.864-1.562-1.364l-.7-.713-.617-.753c-.42-.48-.733-1.022-1.064-1.513-.317-.5-.557-1.025-.808-1.504-.21-.502-.387-.99-.56-1.44-.274-.935-.475-1.756-.55-2.45-.126-.687-.103-1.237-.126-1.608l-.018-.57a1.993 1.993 0 0 1 3.978-.247l.022.25.037.405c.034.263.022.656.144 1.136.07.49.25 1.062.463 1.71l.443 1c.203.33.368.7.608 1.052.253.343.472.73.793 1.065l.457.534.525.504c.335.36.772.636 1.165.97.447.27.858.61 1.352.843.935.548 2.006.933 3.11 1.23l.842.192c.275.05.532.07.798.113l.397.06.5.023 1.018.042c-.2-.005-.048-.002-.09-.003h.015l.027-.002.055-.003.11-.005.22-.01.438-.018c.294 0 .583-.032.87-.08.288-.042.58-.066.863-.12l.842-.192c1.104-.297 2.174-.68 3.11-1.23.494-.234.906-.574 1.353-.843.393-.335.83-.61 1.165-.97l.525-.503.456-.535c.32-.336.54-.722.793-1.065.24-.35.404-.722.608-1.052l.443-1 .29-.914c.093-.284.106-.506.163-.728.118-.372.123-.944.155-1.235l.038-.486a2 2 0 0 1 2.15-1.838 2.008 2.008 0 0 1 1.84 2.063z"/>
        </g>
        <path d="M2.5 35.634c0 14.352 10.486 25.987 23.42 25.987s23.422-11.634 23.422-25.986h171.824c0 14.352 10.486 25.987 23.42 25.987 12.936 0 23.422-11.634 23.422-25.986v-1.07c0-17.708-14.86-32.063-33.188-32.063H35.688C17.358 2.5 2.5 16.856 2.5 34.564v1.07z"
              fill="#FFF" stroke="#000" stroke-width="5" stroke-linecap="round" stroke-linejoin="round"
              stroke-miterlimit="10"/>
    </g>
    <style>ellipse,polygon,polyline,rect,circle,line,path{stroke-width:2;vector-effect:non-scaling-stroke}</style>
</svg>