<svg xmlns="http://www.w3.org/2000/svg" viewBox="-2 -2 129 129.667" preserveAspectRatio="none"><g id="ko"><path d="M115.034 78c4.22 37.1-6.262 45.167-27.774 45.167-16.242 0-29.41-20.222-29.41-45.167s11.533-45.167 27.775-45.167S112.04 51.678 115.035 78z" fill="#FFF" stroke="#000" stroke-width="5" stroke-linecap="round" stroke-linejoin="round" stroke-miterlimit="10"/><path d="M89.624 68c4.585 45.315-6.803 55.167-30.174 55.167-17.646 0-31.95-24.7-31.95-55.167s12.53-55.167 30.174-55.167S86.37 35.85 89.624 68z" fill="#FFF" stroke="#000" stroke-width="5" stroke-linecap="round" stroke-linejoin="round" stroke-miterlimit="10"/><path d="M100.505 61.77C118.83 58.834 122.5 50.71 122.5 32.44S104.065 2.5 87.497 2.5H62.5c-33.137 0-60 26.863-60 60v30c0 16.57 13.43 30 30 30h-.042c16.57 0 30-13.43 30-30v-28s19.72.208 38.047-2.73z" fill="#FFF" stroke="#000" stroke-width="5" stroke-linecap="round" stroke-linejoin="round" stroke-miterlimit="10"/><ellipse cx="67.931" cy="31.833" rx="16.233" ry="15.167" fill="none" stroke="#000" stroke-width="4" stroke-linecap="round" stroke-linejoin="round" stroke-miterlimit="10"/><ellipse cx="67.931" cy="31.833" rx="5.899" ry="5.512"/></g><style>ellipse,polygon,polyline,rect,circle,line,path{stroke-width:2;vector-effect:non-scaling-stroke}</style></svg>