<svg xmlns="http://www.w3.org/2000/svg" viewBox="-2 -2 129.04500000000002 129.25"><g id="laso"><ellipse cx="62.443" cy="58.047" rx="55.08" ry="57.569" fill="#FFF"/><path d="M80.162 72.455c0-11.704 9.488-21.19 21.19-21.19s21.192 9.487 21.192 21.19L122.5 92.75c0 16.57-13.43 30-30 30h-60c-16.57 0-30-13.43-30-30V72.455c0-11.704 9.488-21.19 21.19-21.19s21.192 9.487 21.192 21.19c0-9.742 7.898-17.64 17.64-17.64s17.64 7.898 17.64 17.64z" fill="#FFF" stroke="#000" stroke-width="5" stroke-linecap="round" stroke-linejoin="round" stroke-miterlimit="10"/><path d="M7.522 57.5c0-30.376 24.624-55 55-55s55 24.624 55 55" fill="none" stroke="#000" stroke-width="5" stroke-linecap="round" stroke-linejoin="round" stroke-miterlimit="10"/><path d="M22.618 51.027C25.8 31.862 42.455 17.25 62.522 17.25c20.114 0 36.8 14.68 39.926 33.91" fill="none" stroke="#000" stroke-width="4" stroke-linecap="round" stroke-linejoin="round" stroke-miterlimit="10"/><path d="M29.99 52.792c2.595-15.625 16.174-27.538 32.534-27.538 16.4 0 30.002 11.968 32.55 27.647" fill="none" stroke="#000" stroke-width="3" stroke-linecap="round" stroke-linejoin="round" stroke-miterlimit="10"/><circle cx="52.199" cy="42.75" r="8.167" fill="none" stroke="#000" stroke-width="3" stroke-linecap="round" stroke-linejoin="round" stroke-miterlimit="10"/><circle cx="72.866" cy="42.75" r="8.167" fill="none" stroke="#000" stroke-width="3" stroke-linecap="round" stroke-linejoin="round" stroke-miterlimit="10"/><path fill="none" stroke="#000" stroke-width="3" stroke-linecap="round" stroke-linejoin="round" stroke-miterlimit="10" d="M71.417 18.167l5.916-13.75M62.434 17.25V2.5M53.54 18.248L47.5 4.5"/></g><style>path{stroke-width:2;vector-effect:non-scaling-stroke}</style></svg>