<svg xmlns="http://www.w3.org/2000/svg" viewBox="-2 -2 126.536 129" preserveAspectRatio="none"><g id="anpa"><circle cx="54.875" cy="60" r="35.5" fill="#FFF"/><path d="M82.036 68.167V58.5c0-20-10.502-28.464-23.333-28.464-9.835 0-20.333 6.797-23.667 18.732-2.937 10.517-8.284 16.268-17.27 16.268-1.802 0-3.496-.293-5.053-.835C6.513 62.045 2.5 55.95 2.5 48.77c0-3.032.845-6.548 2.29-9.714C13.92 17.568 35.218 2.5 60.036 2.5c33.137 0 60 26.863 60 60v30c0 16.57-13.43 30-30 30h-53c-16.57 0-30-13.43-30-30v-4.75.938c0-7.383 1.498-15.99 5.033-22.534" fill="#FFF" stroke="#000" stroke-width="5" stroke-linecap="round" stroke-linejoin="round" stroke-miterlimit="10"/><path d="M19.375 43.605c4.66-16.855 23.07-27.91 40.66-27.91 27.257 0 45 20.138 45 52.472v48.667" fill="none" stroke="#000" stroke-width="4" stroke-linecap="round" stroke-linejoin="round" stroke-miterlimit="10"/></g><style>ellipse,polygon,polyline,rect,circle,line,path{stroke-width:2;vector-effect:non-scaling-stroke}</style></svg>