<svg xmlns="http://www.w3.org/2000/svg" viewBox="-2 -2 128.999 129" preserveAspectRatio="none"><g id="pini" stroke="#000" stroke-linecap="round" stroke-linejoin="round" stroke-miterlimit="10"><path d="M82.53 113.252c18.5 7.998 37.998 9.248 37.998 9.248s8.25-48.25-9.01-66.742H13.48C-3.78 74.25 4.472 122.5 4.472 122.5s19.498-1.25 37.998-9.248h40.06z" fill="#FFF" stroke-width="5"/><path d="M17.22 97.5s1.75-22.748 17.25-33.646M107.78 97.5s-1.75-22.748-17.25-33.646" fill="none" stroke-width="4"/><path d="M92.5 2.5c-16.566 0-29.994 13.397-30 29.926C62.492 15.896 49.064 2.5 32.5 2.5c-16.57 0-30 13.404-30 29.938s13.43 29.938 30 29.938c1.357 0 2.69-.1 4-.273v34.452c0 14.33 11.64 25.946 26 25.946s26-11.615 26-25.945V62.102c1.31.174 2.643.273 4 .273 16.57 0 30-13.404 30-29.938S109.068 2.5 92.5 2.5zm-30 33.43" fill="#FFF" stroke-width="5"/><path d="M40.748 37.613c5.93-2.683 13.5-4.78 21.75-4.78 8.128 0 15.598 2.167 21.488 4.78" fill="none" stroke-width="4.5"/></g><style>ellipse,polygon,polyline,rect,circle,line,path{stroke-width:2;vector-effect:non-scaling-stroke}</style></svg>