<svg xmlns="http://www.w3.org/2000/svg" viewBox="-2 -2 69 129" preserveAspectRatio="none"><g id="tu" stroke="#000" stroke-linecap="round" stroke-linejoin="round" stroke-miterlimit="10"><path d="M61.5 62.5c0-10.312-7.534-20.002-16.83-20.002 9.33 0 17.83-9.696 17.83-19.998 0-11.046-8.954-20-20-20h-10c-16.57 0-30 13.43-30 30v60c0 16.57 13.43 30 30 30h10c11.046 0 20-8.954 20-20 0-10.085-8.375-20-17.215-19.997C54 82.503 61.5 72.598 61.5 62.5z" fill="#FFF" stroke-width="5"/><path d="M19.742 90.013h14.36c5.603 0 10.146 4.403 10.146 9.834 0 5.43-4.543 9.834-10.147 9.834H29.65c-5.604 0-10.147-4.402-10.147-9.833V25.152c0-5.43 4.544-9.834 10.148-9.834H34.1c5.605 0 10.148 4.403 10.148 9.834 0 5.43-4.543 9.834-10.147 9.834H19.743" fill="none" stroke-width="4.5"/></g><style>ellipse,polygon,polyline,rect,circle,line,path{stroke-width:2;vector-effect:non-scaling-stroke}</style></svg>