<?xml version="1.0" encoding="iso-8859-1"?>
<!-- Generator: Adobe Illustrator 19.2.1, SVG Export Plug-In . SVG Version: 6.00 Build 0)  -->
<!DOCTYPE svg PUBLIC "-//W3C//DTD SVG 1.1//EN" "http://www.w3.org/Graphics/SVG/1.1/DTD/svg11.dtd">
<svg version="1.1" xmlns="http://www.w3.org/2000/svg" xmlns:xlink="http://www.w3.org/1999/xlink" x="0px" y="0px"
	 viewBox="0 0 154.369 224.863" style="enable-background:new 0 0 154.369 224.863;" xml:space="preserve">
<g id="e-tall">
	<g>
		<path style="fill:#FFFFFF;" d="M131.123,168.313c14.913,0,17.625,12.099,17.625,27.025s-2.712,27.025-17.625,27.025H95"/>
		<path d="M131.176,166.314c0,0,0.43,0.006,1.236,0.017c0.421,0.015,1.007,0.058,1.654,0.11c0.638,0.08,1.371,0.162,2.193,0.341
			c1.633,0.337,3.662,0.959,5.72,2.288c2.053,1.309,4.032,3.378,5.4,5.936c1.403,2.547,2.273,5.487,2.823,8.554
			c0.554,3.074,0.787,6.297,0.876,9.595c0.078,3.309,0.062,6.677-0.246,10.205c-0.335,3.502-0.933,7.145-2.424,10.696
			c-0.738,1.768-1.742,3.501-3.064,5.028c-1.3,1.542-2.962,2.808-4.737,3.719c-1.78,0.923-3.673,1.448-5.513,1.741
			c-0.922,0.148-1.835,0.229-2.735,0.274c-0.445,0.011-0.889,0.023-1.331,0.034l-1.214,0.003c-3.223,0.021-6.339-0.015-9.294-0.027
			c-2.955-0.021-5.748-0.04-8.327-0.058c-5.157-0.092-9.455-0.148-12.464-0.253c-3.008-0.098-4.728-0.154-4.728-0.154v-4
			c0,0,1.719-0.056,4.728-0.154c3.008-0.104,7.306-0.16,12.464-0.253c2.579-0.018,5.372-0.037,8.327-0.058
			c2.955-0.013,6.071-0.048,9.294-0.027l1.214,0.003l1.115-0.024c0.734-0.034,1.466-0.096,2.182-0.208
			c1.432-0.222,2.817-0.608,4.047-1.244c2.485-1.228,4.362-3.448,5.538-6.263c1.201-2.797,1.785-6.02,2.104-9.238
			c0.33-3.212,0.395-6.518,0.363-9.652c-0.04-3.145-0.223-6.159-0.681-8.91c-0.452-2.75-1.184-5.234-2.217-7.244
			c-1.024-2.023-2.397-3.493-3.844-4.478c-1.449-0.992-2.962-1.513-4.257-1.812c-0.646-0.159-1.247-0.239-1.767-0.32
			c-0.516-0.05-0.92-0.097-1.304-0.122c-0.805-0.031-1.235-0.047-1.235-0.047L131.176,166.314z"/>
	</g>
	<g>
		<path style="fill:#FFFFFF;" d="M132.564,133.043c14.913,0,17.625,12.099,17.625,27.025s-2.712,27.025-17.625,27.025H96.441"/>
		<path d="M132.617,131.044c0,0,0.43-0.006,1.236-0.016c0.421,0.006,1.011,0.031,1.661,0.074c0.641,0.072,1.378,0.143,2.206,0.311
			c1.644,0.32,3.704,0.906,5.796,2.239c2.081,1.319,4.089,3.411,5.476,5.99c1.426,2.567,2.311,5.528,2.853,8.612
			c0.562,3.089,0.758,6.325,0.823,9.627c0.058,3.315-0.023,6.684-0.374,10.21c-0.369,3.5-1,7.137-2.517,10.664
			c-0.751,1.756-1.765,3.471-3.088,4.976c-1.303,1.52-2.958,2.76-4.722,3.646c-3.531,1.796-7.492,2.035-10.715,1.912
			c-6.447-0.102-12.464-0.197-17.621-0.279c-5.157-0.117-9.455-0.215-12.464-0.283c-3.008-0.085-4.728-0.134-4.728-0.134v-3
			c0,0,1.719-0.049,4.728-0.134c3.008-0.068,7.306-0.166,12.464-0.283c5.157-0.082,11.174-0.177,17.621-0.279l1.214-0.019
			l1.126-0.044c0.742-0.047,1.481-0.124,2.205-0.243c1.447-0.24,2.849-0.647,4.091-1.307c2.511-1.277,4.38-3.551,5.529-6.388
			c1.175-2.821,1.726-6.049,2.011-9.269c0.288-3.214,0.287-6.519,0.235-9.647c-0.064-3.14-0.284-6.141-0.734-8.878
			c-0.461-2.732-1.177-5.197-2.187-7.186c-1.004-2.001-2.348-3.449-3.767-4.424c-1.415-0.988-2.897-1.544-4.181-1.861
			c-0.639-0.17-1.236-0.26-1.753-0.35c-0.513-0.058-0.914-0.124-1.297-0.158c-0.805-0.052-1.234-0.08-1.234-0.08L132.617,131.044z"
			/>
	</g>
	<g>
		<path style="fill:#FFFFFF;" d="M132.564,97.774c14.913,0,17.625,12.099,17.625,27.025s-2.712,27.025-17.625,27.025H96.441"/>
		<path d="M132.617,95.774c0,0,0.43-0.006,1.236-0.016c0.421,0.006,1.011,0.031,1.661,0.074c0.641,0.071,1.378,0.143,2.206,0.311
			c1.644,0.32,3.704,0.906,5.796,2.239c2.081,1.319,4.089,3.411,5.476,5.99c1.426,2.567,2.311,5.528,2.853,8.612
			c0.562,3.089,0.758,6.325,0.823,9.627c0.058,3.315-0.023,6.684-0.374,10.211c-0.369,3.5-1,7.137-2.517,10.664
			c-0.751,1.756-1.765,3.471-3.088,4.976c-1.303,1.52-2.958,2.76-4.722,3.646c-3.531,1.796-7.492,2.035-10.715,1.912
			c-6.447-0.102-12.464-0.198-17.621-0.279c-5.157-0.117-9.455-0.215-12.464-0.283c-3.008-0.085-4.728-0.134-4.728-0.134v-3
			c0,0,1.719-0.049,4.728-0.134c3.008-0.069,7.306-0.166,12.464-0.283c5.157-0.082,11.174-0.177,17.621-0.279l1.214-0.019
			l1.126-0.043c0.742-0.047,1.481-0.125,2.205-0.243c1.447-0.24,2.849-0.647,4.091-1.307c2.511-1.277,4.38-3.551,5.529-6.388
			c1.175-2.821,1.726-6.049,2.011-9.27c0.288-3.214,0.287-6.518,0.235-9.647c-0.064-3.14-0.284-6.141-0.734-8.878
			c-0.461-2.732-1.177-5.197-2.187-7.186c-1.004-2.001-2.348-3.449-3.767-4.424c-1.415-0.988-2.897-1.544-4.181-1.861
			c-0.639-0.169-1.236-0.26-1.753-0.35c-0.513-0.058-0.914-0.124-1.297-0.158c-0.805-0.052-1.234-0.08-1.234-0.08L132.617,95.774z"
			/>
	</g>
	<g>
		<path style="fill:#FFFFFF;" d="M132.564,62.504c14.913,0,17.625,12.099,17.625,27.025s-2.712,27.025-17.625,27.025H96.441"/>
		<path d="M132.617,60.505c0,0,0.43-0.006,1.236-0.016c0.421,0.006,1.011,0.031,1.661,0.074c0.641,0.071,1.378,0.143,2.206,0.311
			c1.644,0.32,3.704,0.906,5.796,2.239c2.081,1.319,4.089,3.411,5.476,5.99c1.426,2.567,2.311,5.528,2.853,8.612
			c0.562,3.089,0.758,6.325,0.823,9.627c0.058,3.315-0.023,6.684-0.374,10.21c-0.369,3.5-1,7.137-2.517,10.664
			c-0.751,1.756-1.765,3.471-3.088,4.976c-1.303,1.52-2.958,2.76-4.722,3.646c-3.531,1.796-7.492,2.035-10.715,1.911
			c-6.447-0.102-12.464-0.197-17.621-0.279c-5.157-0.117-9.455-0.215-12.464-0.283c-3.008-0.085-4.728-0.134-4.728-0.134v-3
			c0,0,1.719-0.049,4.728-0.134c3.008-0.068,7.306-0.166,12.464-0.283c5.157-0.082,11.174-0.177,17.621-0.279l1.214-0.019
			l1.126-0.044c0.742-0.047,1.481-0.124,2.205-0.243c1.447-0.24,2.849-0.647,4.091-1.307c2.511-1.277,4.38-3.551,5.529-6.388
			c1.175-2.821,1.726-6.049,2.011-9.27c0.288-3.214,0.287-6.519,0.235-9.647c-0.064-3.14-0.284-6.141-0.734-8.878
			c-0.461-2.732-1.177-5.197-2.187-7.186c-1.004-2.001-2.348-3.449-3.767-4.424c-1.415-0.988-2.897-1.544-4.181-1.861
			c-0.639-0.17-1.236-0.26-1.753-0.35c-0.513-0.058-0.914-0.124-1.297-0.158c-0.805-0.052-1.234-0.08-1.234-0.08L132.617,60.505z"/>
	</g>
	<path style="fill:#FFFFFF;stroke:#000000;stroke-width:5;stroke-miterlimit:10;" d="M67.638,222.363h46.089
		c11.93,0,18.717-12.304,18.717-27.483v-54.966v18.322V103.27c0-11.908,1.453-22.027,4.902-27.543
		c3.449-5.516,14.523-9.101,14.523-27.728V27.227c0-15.178-2.904-24.727-14.834-24.727h-48.65h1.335H28.392
		C4.532,2.5,2.5,17.002,2.5,47.359v129.226c0,30.357,2.032,45.778,25.892,45.778H89.72"/>
</g>
<g id="Layer_1">
</g>
</svg>
