<svg xmlns="http://www.w3.org/2000/svg" viewBox="-2 -2 129 130"><g id="suli" fill="#FFF"><circle cx="33.037" cy="92.19" r="29.767"/><path d="M2.5 92.5V59.498C2.5 26.36 26.733 2.5 56.625 2.5H122.5s-11.75 7.25-11.75 30v60c0 16.57-9.75 30-25.563 30H50.5" stroke="#000" stroke-width="5" stroke-linecap="round" stroke-linejoin="round" stroke-miterlimit="10"/><path d="M22.167 120.333V82c0-23.833 13.333-37.167 37.333-37.167 8.652 0 17.666 4.514 17.666 13.166 0 11.166-7.666 9.5-13.04 14.833-9.56 9.484 4.374 34.333-.46 43.5 0 0-2.332 7.167-26 7.167-19.42 0-35.166-13.543-35.166-30.25" stroke="#000" stroke-width="5" stroke-linecap="round" stroke-linejoin="round" stroke-miterlimit="10"/></g><style>path{stroke-width:2;vector-effect:non-scaling-stroke}</style></svg>