<svg xmlns="http://www.w3.org/2000/svg" viewBox="-2 -2 129 129.067" preserveAspectRatio="none"><g id="palisa"><path d="M33.75 64.5s10 8 28.25 1.5 28.75 9.93 28.75 26.5-13.43 30-30 30H32.5c-16.57 0-30-13.25-30-30s2.5-42 4.75-60 13.43-30 30-30c9.09 0 17.235 4.043 22.737 10.428l53.726 58.36c5.43 5.428 8.787 12.928 8.787 21.212 0 16.57-13.43 30-30 30 0 0-10.25 1-15.25-4.75" fill="#FFF" stroke="#000" stroke-width="5" stroke-linecap="round" stroke-linejoin="round" stroke-miterlimit="10"/><path d="M3.25 74C13.5 84.5 40.5 60 45.105 99.927" fill="none" stroke="#000" stroke-width="4" stroke-miterlimit="10"/><ellipse transform="rotate(-86.078 28.626 98.84)" cx="28.63" cy="98.845" rx="4.172" ry="4.172"/><path d="M45.105 99.927s-6.907 8.11-14.704 7.575-13.53-9.513-13.53-9.513 6.907-8.11 14.704-7.576c7.797.535 13.53 9.513 13.53 9.513z" fill="none" stroke="#000" stroke-width="3.5" stroke-linecap="round" stroke-linejoin="round" stroke-miterlimit="10"/></g><style>ellipse,polygon,polyline,rect,circle,line,path{stroke-width:2;vector-effect:non-scaling-stroke}</style></svg>