<svg xmlns="http://www.w3.org/2000/svg" viewBox="-2 -2 129 129.333"><g id="sijelo" fill="#FFF" stroke="#000" stroke-linecap="round" stroke-linejoin="round" stroke-miterlimit="10"><path d="M107.383 50.882c3.27-3.512 5.284-8.206 5.284-13.382 0-10.862-8.805-19.667-19.667-19.667-9.233 0-16.958 6.37-19.074 14.95-3.166-2.467-7.12-3.95-11.427-3.95-4.307 0-8.26 1.483-11.426 3.95-2.116-8.58-9.84-14.95-19.073-14.95-10.86 0-19.666 8.805-19.666 19.667 0 5.176 2.015 9.87 5.284 13.382C8.588 54.924 2.5 62.524 2.5 71.242v4.69c0 25.902 26.863 46.9 60 46.9s60-20.998 60-46.9v-4.69c0-8.718-6.088-16.318-15.117-20.36z" stroke-width="5"/><path d="M46.192 33.162a19.573 19.573 0 0 1-3.36-10.996C42.833 11.306 51.64 2.5 62.5 2.5s19.667 8.805 19.667 19.667c0 4.5-1.51 8.646-4.053 11.96" stroke-width="5"/><path d="M29.556 37.606c8.558-4.26 20.38-6.416 33.44-6.416 12.562 0 23.98 2.438 32.448 6.416" stroke-width="5"/><path d="M43.25 50.94c5-2.49 11.91-3.75 19.54-3.75 7.34 0 14.012 1.425 18.96 3.75" stroke-width="4"/><path d="M27.666 89.5c35 0 36-20 69.667-20" stroke-width="4.5"/></g><style>path{stroke-width:2;vector-effect:non-scaling-stroke}</style></svg>