<?xml version="1.0" encoding="iso-8859-1"?>
<!-- Generator: Adobe Illustrator 19.2.0, SVG Export Plug-In . SVG Version: 6.00 Build 0)  -->
<!DOCTYPE svg PUBLIC "-//W3C//DTD SVG 1.1//EN" "http://www.w3.org/Graphics/SVG/1.1/DTD/svg11.dtd">
<svg version="1.1" xmlns="http://www.w3.org/2000/svg" xmlns:xlink="http://www.w3.org/1999/xlink" x="0px" y="0px"
	 viewBox="0 0 124.972 125.271" style="enable-background:new 0 0 124.972 125.271;" xml:space="preserve">
<g id="telo">
	<g id="telo_2_">
		<circle style="fill:#FFFFFF;" cx="93.219" cy="27.995" r="24.125"/>
		<circle style="fill:#FFFFFF;" cx="97.696" cy="56.121" r="24.125"/>
		<g>
			<path style="fill:#FFFFFF;" d="M114.239,73.996c9.25,6.499,8.25,15.999,8.25,23.999c0,10.25-9.75,24.625-30,24.625
				c-29,0-30.278-10.375-56.5-10.375c-14.972,0-23.25,3.5-33.5,10.25v-62.75v-14.25c0-18.778,18.297-34,40.25-34
				c11.156,0,22.417,6.274,28.458,10.262c6.042,3.988,8.542,5.488,15.916,5.488c6.876,0,9.376-3.302,9.376-7.375
				s-3.751-7.375-8.376-7.375c-5.375,0-11.375,5.25-11.375,12.5"/>
			<path d="M115.427,72.387c3.012,1.944,5.82,4.928,7.336,8.45c1.582,3.513,2.062,7.282,2.165,10.802
				c0.059,1.768,0.042,3.5,0.041,5.18l0.002,1.326c-0.014,0.443,0.001,0.799-0.049,1.354c-0.066,1.059-0.226,1.94-0.414,2.896
				c-0.804,3.729-2.465,7.166-4.675,10.167c-2.215,3.001-5.013,5.548-8.155,7.514c-3.137,1.982-6.619,3.353-10.183,4.181
				c-1.782,0.427-3.591,0.674-5.397,0.849c-0.904,0.068-1.809,0.136-2.712,0.144l-0.678,0.017l-0.362,0.004l-0.319-0.003
				l-1.274-0.01c-3.472-0.033-6.993-0.252-10.475-0.695c-3.489-0.457-6.976-1.153-10.365-2.127c-3.394-0.958-6.662-2.18-9.814-3.33
				c-3.16-1.147-6.258-2.163-9.436-2.86c-3.171-0.719-6.414-1.131-9.697-1.346c-1.641-0.105-3.293-0.158-4.949-0.187l-2.51,0.01
				l-2.439,0.082c-3.277,0.139-6.523,0.529-9.684,1.228c-3.165,0.693-6.258,1.704-9.239,3.081c-3.01,1.315-5.917,2.95-8.831,4.634
				l0,0c-0.684,0.46-1.611,0.278-2.071-0.405c-0.167-0.248-0.25-0.529-0.254-0.808l-0.001-0.04
				c-0.166-9.491-0.38-18.982-0.484-28.472C0.371,84.532,0.248,75.041,0.179,65.55L0.052,51.314L0.02,47.755l-0.016-1.78L0,45.531
				l0.01-0.52l0.02-0.89c0.105-2.611,0.54-5.186,1.272-7.649c1.458-4.953,4.143-9.468,7.544-13.241
				c3.406-3.781,7.52-6.855,11.995-9.16c4.493-2.28,9.343-3.79,14.292-4.546c2.475-0.376,4.977-0.574,7.477-0.57
				c2.437,0.007,5.157,0.317,7.576,0.824c4.947,1.004,9.569,2.877,13.944,5.086c2.187,1.113,4.31,2.33,6.374,3.632
				c2.096,1.322,3.998,2.689,5.921,3.832c1.921,1.155,3.749,1.963,5.826,2.337c1.037,0.193,2.118,0.315,3.24,0.364
				c0.277,0.02,0.559,0.028,0.843,0.034l0.783,0.021c0.584-0.012,1.233-0.009,1.66-0.065c0.959-0.081,1.986-0.275,2.804-0.617
				c0.835-0.343,1.495-0.827,1.974-1.44c0.491-0.605,0.769-1.401,0.893-2.3c0.045-0.219,0.038-0.46,0.059-0.692l0.006-0.088
				c0.001-0.038,0.006,0.181,0.003,0.062l-0.002-0.056l-0.009-0.222l-0.019-0.442c-0.048-0.167-0.04-0.3-0.097-0.503
				c-0.06-0.2-0.096-0.408-0.187-0.601c-0.583-1.599-2.121-2.913-3.924-3.481c-0.901-0.288-1.878-0.414-2.842-0.334
				c-0.909,0.07-1.903,0.34-2.809,0.764c-1.835,0.845-3.458,2.28-4.585,4.021c-1.135,1.743-1.761,3.801-1.8,5.902l0,0.006
				c-0.015,0.828-0.699,1.487-1.528,1.472c-0.811-0.015-1.46-0.674-1.472-1.478c-0.038-2.646,0.68-5.326,2.068-7.606
				c1.383-2.281,3.384-4.191,5.823-5.415c1.227-0.611,2.539-1.04,3.993-1.201c1.397-0.153,2.825-0.025,4.196,0.363
				c2.72,0.769,5.286,2.679,6.473,5.532c0.163,0.345,0.263,0.718,0.375,1.085c0.111,0.366,0.172,0.829,0.24,1.243l0.033,0.446
				l0.016,0.222l0.004,0.055l0.006,0.173l-0.003,0.135c-0.013,0.36-0.004,0.715-0.056,1.083c-0.146,1.447-0.614,2.995-1.574,4.282
				c-0.937,1.296-2.257,2.258-3.601,2.846c-1.366,0.599-2.694,0.878-4.089,1.037c-0.752,0.094-1.29,0.095-1.892,0.126l-0.996,0.004
				c-0.31,0.001-0.62,0-0.936-0.013c-1.25-0.023-2.537-0.126-3.838-0.334c-2.62-0.387-5.236-1.458-7.39-2.722
				c-2.177-1.251-4.154-2.627-6.094-3.801c-1.968-1.198-3.985-2.31-6.045-3.316c-4.119-1.992-8.407-3.634-12.777-4.502
				c-2.23-0.435-4.245-0.669-6.555-0.675c-2.246,0.012-4.487,0.205-6.7,0.556c-4.424,0.706-8.739,2.084-12.7,4.127
				c-3.965,2.025-7.596,4.698-10.565,7.956c-2.968,3.249-5.269,7.087-6.522,11.244c-0.632,2.082-1.002,4.219-1.107,6.348
				l-0.034,0.889l-0.015,0.369l-0.004,0.445l-0.016,1.78l-0.032,3.559L4.799,65.55C4.73,75.041,4.607,84.532,4.473,94.023
				c-0.104,9.491-0.319,18.982-0.484,28.472l-2.325-1.253l0,0c2.764-2.048,5.686-3.937,8.781-5.613
				c3.107-1.649,6.445-2.957,9.873-3.907c3.434-0.953,6.955-1.467,10.461-1.733l2.653-0.145l2.587-0.065
				c1.743-0.007,3.489,0.009,5.241,0.109c3.5,0.191,7.025,0.599,10.494,1.346c3.473,0.722,6.86,1.798,10.098,2.935
				c3.248,1.135,6.357,2.283,9.509,3.17c3.147,0.897,6.344,1.527,9.595,1.948c3.263,0.412,6.537,0.59,9.86,0.658l1.274,0.019
				l0.319,0.005l0.275-0.002l0.597-0.011c0.797,0.001,1.588-0.056,2.379-0.108c1.575-0.143,3.144-0.342,4.671-0.698
				c3.058-0.687,5.994-1.824,8.619-3.458c2.63-1.619,4.959-3.711,6.8-6.168c1.837-2.45,3.206-5.267,3.855-8.185
				c0.147-0.708,0.287-1.506,0.33-2.143c0.046-0.29,0.048-0.786,0.069-1.192l0.019-1.223c0.03-1.718,0.074-3.385,0.047-5.015
				c-0.064-3.249-0.383-6.368-1.498-9.129c-1.116-2.772-2.97-5.087-5.519-7.03c-0.878-0.669-1.047-1.924-0.378-2.802
				c0.636-0.834,1.8-1.029,2.668-0.472L115.427,72.387z"/>
		</g>
		<g>
			<path d="M116.163,36.59c0.641,0.56,1.452,1.385,2.07,2.123c0.652,0.762,1.241,1.573,1.793,2.407
				c1.091,1.677,1.955,3.489,2.627,5.361c1.372,3.743,1.825,7.773,1.554,11.742c-0.133,1.989-0.513,3.965-1.103,5.88
				c-0.069,0.241-0.147,0.479-0.23,0.716c-0.093,0.261-0.135,0.421-0.27,0.766c-0.182,0.44-0.307,0.813-0.535,1.307
				c-0.448,0.999-0.904,1.887-1.441,2.752c-2.141,3.467-5.153,6.252-8.464,8.336c-3.326,2.082-6.935,3.562-10.644,4.544
				c-3.719,0.939-7.528,1.523-11.391,1.465c-0.482,0-0.965-0.018-1.448-0.043l-0.362-0.016l-0.374-0.027l-0.682-0.051
				c-0.897-0.062-1.829-0.138-2.787-0.235c-1.888-0.183-3.739-0.437-5.582-0.756c-3.694-0.621-7.219-1.452-10.716-1.954
				c-3.497-0.521-7.006-0.785-10.563-0.881l-0.666-0.02l-0.283-0.007l-0.342,0.002c-0.466-0.001-0.914,0.004-1.299,0.029
				c-0.397,0.012-0.812,0.04-1.245,0.076c-0.426,0.027-0.853,0.062-1.282,0.114c-1.712,0.184-3.434,0.452-5.138,0.831
				c-3.409,0.743-6.771,1.794-10,3.157c-3.23,1.362-6.343,3.005-9.275,4.926c-2.92,1.936-5.69,4.108-8.208,6.554
				c-2.523,2.44-4.809,5.131-6.826,8.021c-2.008,2.895-3.807,5.955-5.281,9.186c-1.485,3.225-2.708,6.578-3.744,10.003l-0.001,0.003
				c-0.211,0.801-1.032,1.279-1.833,1.068c-0.724-0.191-1.185-0.881-1.11-1.603l0.003-0.03c0.533-5.201,1.188-10.393,1.967-15.576
				c0.767-5.185,1.724-10.351,2.894-15.486c1.17-5.134,2.549-10.242,4.298-15.265c1.772-5.012,3.931-9.945,6.763-14.575
				c2.818-4.619,6.365-8.95,10.762-12.363c4.387-3.407,9.521-5.866,14.832-7.206c1.328-0.326,2.659-0.642,3.999-0.869l1.076-0.195
				l0.968-0.129l1.936-0.257c2.808-0.258,5.556-0.32,8.29-0.082c2.734,0.233,5.441,0.688,8.071,1.34
				c2.625,0.664,5.167,1.496,7.65,2.357c2.48,0.872,4.921,1.724,7.35,2.476c1.214,0.36,2.429,0.709,3.646,0.998l0.456,0.115
				l0.436,0.094c0.31,0.061,0.658,0.146,0.931,0.184c0.566,0.104,1.163,0.185,1.769,0.259c4.818,0.473,9.82-0.294,14.059-2.496
				c4.257-2.155,7.648-5.717,9.456-10.019c0.111-0.27,0.241-0.531,0.334-0.809l0.284-0.766c0.194-0.619,0.407-1.27,0.517-1.772
				c0.268-1.087,0.492-2.277,0.577-3.432c0.191-2.327,0.054-4.682-0.492-6.953c-1.044-4.558-3.637-8.71-7.179-11.723
				c-3.524-3.035-8.098-4.858-12.751-5.149c-4.66-0.342-9.419,0.923-13.386,3.461c-3.969,2.539-7.115,6.368-8.84,10.838l-0.008,0.02
				c-0.398,1.031-1.556,1.544-2.586,1.146c-1-0.386-1.511-1.492-1.178-2.498c0.889-2.67,2.182-5.23,3.887-7.507
				c1.699-2.281,3.803-4.256,6.145-5.884c4.713-3.217,10.506-4.884,16.256-4.574c5.742,0.313,11.364,2.5,15.777,6.226
				c4.427,3.706,7.528,8.906,8.784,14.514c0.635,2.803,0.822,5.713,0.506,8.569c-0.147,1.441-0.428,2.815-0.818,4.246
				c-0.202,0.763-0.413,1.345-0.621,1.964c-0.301,0.782-0.525,1.371-0.847,2.045c-2.394,5.262-6.828,9.491-11.941,11.875
				c-5.129,2.397-10.823,3.256-16.353,2.666c-5.615-0.626-10.558-2.555-15.504-4.074c-2.463-0.769-4.9-1.479-7.345-2.017
				c-2.445-0.522-4.899-0.863-7.36-1c-2.466-0.163-4.936,0.037-7.313,0.235l-1.934,0.27l-0.967,0.135l-0.844,0.164
				c-1.228,0.215-2.43,0.511-3.628,0.813c-4.763,1.288-9.261,3.298-13.137,6.25c-3.884,2.935-7.113,6.745-9.764,10.97
				c-2.678,4.22-4.734,8.878-6.571,13.627c-1.792,4.776-3.254,9.707-4.517,14.7c-1.25,4.997-2.33,10.053-3.283,15.142
				c-0.946,5.091-1.757,10.213-2.533,15.347l-2.94-0.565l0.001-0.004c1.735-7.227,4.499-14.324,8.658-20.636
				c2.068-3.156,4.44-6.124,7.085-8.835c2.648-2.706,5.547-5.183,8.685-7.316c3.14-2.127,6.479-3.956,9.949-5.482
				c3.471-1.527,7.086-2.722,10.793-3.589c1.852-0.44,3.737-0.766,5.648-1.001c0.967-0.12,1.891-0.209,2.927-0.245
				c0.526-0.029,0.99-0.033,1.436-0.032l0.342-0.002l0.401,0.008l0.702,0.021c3.736,0.098,7.517,0.434,11.217,1.128
				c3.71,0.668,7.269,1.628,10.748,2.346c1.741,0.368,3.498,0.673,5.235,0.906l1.299,0.172l1.36,0.127l0.681,0.061l0.308,0.027
				l0.321,0.019c0.428,0.028,0.856,0.051,1.286,0.058c3.435,0.077,6.933-0.298,10.258-1.258c1.664-0.467,3.293-1.048,4.858-1.75
				c1.558-0.717,3.042-1.572,4.428-2.535c2.778-1.92,5.12-4.359,6.717-7.176c0.417-0.691,0.774-1.44,1.066-2.108
				c0.156-0.334,0.32-0.828,0.48-1.234l0.174-0.529c0.065-0.195,0.126-0.391,0.179-0.59c0.456-1.581,0.737-3.214,0.893-4.862
				c0.309-3.304-0.124-6.666-1.074-9.842c-1.002-3.179-2.581-6.099-4.866-8.585c-0.748-0.813-0.695-2.079,0.119-2.827
				c0.756-0.695,1.903-0.698,2.662-0.041L116.163,36.59z"/>
		</g>
	</g>
</g>
<g id="Layer_1">
</g>
</svg>
