<svg xmlns="http://www.w3.org/2000/svg" viewBox="0 0 80 80" width="168" height="168">
  <title>
    lanpan
  </title>
  <g stroke-width="2" fill="none" stroke-linecap="round">
    <path fill="#3d2007" stroke="#231f20" d="m72.03 18.03 5.23-.19q.75-.03.8.72c.35 5.28 1.35 10.5 1.14 15.69-.52 12.91-3.93 23.29-12.52 32.66q-7.75 8.45-18.93 9.8-4.61.56-9.13 1.46-5.35 1.06-9.02.9-9.74-.44-18.83-5.74c-5.22-3.06-9.51-9.44-9-15.84.24-3.01.36-5.35-.24-8.59q-2.55-13.52 1.1-26.73 2.27-8.18 5.86-11.99 5.38-5.71 11.97-7.34Q28.77.78 32.79 1.21q4.75.51 9.29 1.15c.94.14 1.56.6 2.22 1.25a1.97 1.97 0 0 0 2.21.39q2.21-1.01 4.24-1.86c2.78-1.16 6.81 2.83 7.93 5.07a1.3 1.3 0 0 0 1.66.62l4.19-1.7a1.6 1.59-30.2 0 1 1.85.48q3.82 4.79 4.9 10.81.11.63.75.61ZM29.5 38.27c-1.13.36-2.19.13-3.32.58q-5.11 2.02-10.5 4.66c-2.77 1.35-8.26.83-8.08-3.21q.1-2.21 1.39-3.76c3.55-4.28 9.16-8.19 14.61-5.77q1.39.61.6-.69-2.12-3.5-4.59-5.9c-3.53-3.42-9.72-4.57-13.86-1.25q-1.15.92-1.48 2.82-1.71 9.66-1.18 14.52.54 4.95 1.2 9.88.12.9.61.14.92-1.43 2.46-1.53a1.66 1.64 60.2 0 1 1.01.28c3.34 2.26 7.78 4.83 11.92 4.98 3.33.12 6.54.24 9.16-2.21q4.78-4.46 7.27-11.23 5.84-15.83 6.69-33.15.07-1.47-1.34-1.9-10.37-3.1-20.52-.46Q9.78 8.13 5.98 19.76a.3.29 86.8 0 0 .4.36c2.71-1.19 5.48-1.9 8.43-1.21q6.67 1.54 10.39 7.92 2.94 5.03 4.93 10.13a1 1 0 0 1-.63 1.31Zm34.6 6.84q-.28-.02-.53-.14-1.12-.57-.68-1.74 3.78-10.23 5.7-21.72c.76-4.56-1.28-8.33-3.81-11.99a1.15 1.15 0 0 0-1.29-.45l-3.18 1q-.56.17-.62.76-1.4 14.95-6.8 29.14a1.22 1.21-73.1 0 1-1.39.75q-1.16-.25-1.12-1.44.03-.76.41-1.49c3.75-7.18 4.42-15.29 5.84-23.34q.52-2.94-.51-5.75c-.8-2.19-3.37-4.32-5.87-3.41q-1.75.63-3.24 1.35a1.55 1.54-10.9 0 0-.88 1.29q-1.09 14.42-5.42 28.96-2.29 7.7-6.65 13.54c-4.11 5.52-9.26 7.07-15.99 6.11-3.38-.49-6.5-2.26-9.44-3.96a1.49 1.48 39.9 0 0-1.71.15c-3.24 2.72-2.33 6.5-1.51 10.06a.43.43 0 0 0 .73.2c1.99-2.08 6.14-5.38 8.84-2.86 3.72 3.46 1.58 7.06-.62 10.67q-.57.92.33 1.53l.97.66a1.57 1.56-54.5 0 0 2.14-.36c2.19-2.94 4.18-4.54 8.09-5.5q.58-.14 1.09.18c2.71 1.7 3.19 4.97 2.11 7.93q-.22.59.4.69 4.22.67 7.83-.18c3.99-.94 7.86-1.32 11.91-1.75 6.96-.74 14.04-6.01 17.87-11.31 2.49-3.45 5.09-7.13 6.5-11.18q3.16-9.09 3.2-19.17c.02-3.8-.93-7.36-1.17-11.12a1.07 1.07 0 0 0-1.2-1l-2.16.28a1.01 1-88 0 0-.86.81q-2.25 11.8-6.05 22.96-.31.9-1.26.84Zm-44.4-5.93q2.75-1.56 5.71-2.33a.85.84-28.7 0 0 .41-1.39c-2.28-2.46-6.14-4.27-9.22-2.58q-.57.31-.15.81 2.1 2.51 2.73 5.26a.36.36 0 0 0 .52.23Zm-2.19.4-3.15-4.61a.23.23 0 0 0-.32-.06l-.11.07a5.91 3.01-34.3 0 0-3.19 5.82l.01.02a5.91 3.01-34.3 0 0 6.58-.85l.12-.08a.23.23 0 0 0 .06-.31Zm-6.72 30.31a1.27 1.27 0 0 0 2.11-.37l1.92-4.64a1.27 1.27 0 0 0-.18-1.28l-1.51-1.87a1.27 1.27 0 0 0-1.78-.2l-3.67 2.94a1.27 1.27 0 0 0-.15 1.85l3.26 3.57Zm16.07 5.13q1.42-3.03-.69-5.44-.44-.5-1.06-.26-3.51 1.32-5.29 4.74-.34.64.37.82l4.59 1.13q1.44.35 2.08-.99Z"/>
    <path fill="#fff" d="M29.5 38.27a1 1 0 0 0 .63-1.31q-1.99-5.1-4.93-10.13-3.72-6.38-10.39-7.92c-2.95-.69-5.72.02-8.43 1.21a.3.29 86.8 0 1-.4-.36Q9.78 8.13 21.55 5.07q10.15-2.64 20.52.46 1.41.43 1.34 1.9-.85 17.32-6.69 33.15-2.49 6.77-7.27 11.23c-2.62 2.45-5.83 2.33-9.16 2.21-4.14-.15-8.58-2.72-11.92-4.98a1.66 1.64 60.2 0 0-1.01-.28q-1.54.1-2.46 1.53-.49.76-.61-.14-.66-4.93-1.2-9.88-.53-4.86 1.18-14.52.33-1.9 1.48-2.82c4.14-3.32 10.33-2.17 13.86 1.25q2.47 2.4 4.59 5.9.79 1.3-.6.69c-5.45-2.42-11.06 1.49-14.61 5.77Q7.7 38.09 7.6 40.3c-.18 4.04 5.31 4.56 8.08 3.21q5.39-2.64 10.5-4.66c1.13-.45 2.19-.22 3.32-.58Z"/>
    <path fill="#fff" d="M64.1 45.11q.95.06 1.26-.84 3.8-11.16 6.05-22.96a1.01 1-88 0 1 .86-.81l2.16-.28a1.07 1.07 0 0 1 1.2 1c.24 3.76 1.19 7.32 1.17 11.12q-.04 10.08-3.2 19.17c-1.41 4.05-4.01 7.73-6.5 11.18-3.83 5.3-10.91 10.57-17.87 11.31-4.05.43-7.92.81-11.91 1.75q-3.61.85-7.83.18-.62-.1-.4-.69c1.08-2.96.6-6.23-2.11-7.93q-.51-.32-1.09-.18c-3.91.96-5.9 2.56-8.09 5.5a1.57 1.56-54.5 0 1-2.14.36l-.97-.66q-.9-.61-.33-1.53c2.2-3.61 4.34-7.21.62-10.67-2.7-2.52-6.85.78-8.84 2.86a.43.43 0 0 1-.73-.2c-.82-3.56-1.73-7.34 1.51-10.06a1.49 1.48 39.9 0 1 1.71-.15c2.94 1.7 6.06 3.47 9.44 3.96 6.73.96 11.88-.59 15.99-6.11q4.36-5.84 6.65-13.54 4.33-14.54 5.42-28.96a1.55 1.54-10.9 0 1 .88-1.29q1.49-.72 3.24-1.35c2.5-.91 5.07 1.22 5.87 3.41q1.03 2.81.51 5.75c-1.42 8.05-2.09 16.16-5.84 23.34q-.38.73-.41 1.49-.04 1.19 1.12 1.44a1.22 1.21-73.1 0 0 1.39-.75q5.4-14.19 6.8-29.14.06-.59.62-.76l3.18-1a1.15 1.15 0 0 1 1.29.45c2.53 3.66 4.57 7.43 3.81 11.99Q66.67 33 62.89 43.23q-.44 1.17.68 1.74.25.12.53.14ZM51.16 50.6q8.92 3.13 13.06 9.76a.88.87 60 0 0 1.13.31q.21-.1.36-.27.84-.9.26-1.98c-2.63-4.92-5.92-7.57-11.28-9.42-5.63-1.95-10.47-3.47-16.53-2.35a1.41 1.4-3.7 0 0-1.15 1.3q-.02.29.12.55a1.06 1.06 0 0 0 1.08.55q6.18-.83 12.95 1.55Zm-3.03 7.79c1.57-2.26 3.15-4.13 2.91-7.1a.56.56 0 0 0-.61-.52q-1.24.11-1.68 1.26c-1.49 3.92-4.26 7.13-6.24 10.76q-2.69 4.93-6.05 9.78a.88.88 0 0 0 .49 1.36q.79.22 1.53-.06a1.82 1.77 3.8 0 0 .89-.76q2.73-4.65 5.34-8.78 2.61-4.14 7.58-3.25a1.25 1.24 12.1 0 1 1 1.54q-.72 2.76-2.53 5.22a2.06 2.05-60.2 0 0 .84 3.11q1.35.58 3.15.14.9-.23 1.05-1.13a.72.72 0 0 0-.62-.83l-1.27-.16q-.82-.1-.33-.76c1.25-1.67 3.45-6.27 1.61-8.29-2.03-2.23-4.13-1.72-6.67-.99q-.94.27-.39-.54Z"/>
    <path fill="#fff" d="M19.7 39.18a.36.36 0 0 1-.52-.23q-.63-2.75-2.73-5.26-.42-.5.15-.81c3.08-1.69 6.94.12 9.22 2.58a.85.84-28.7 0 1-.41 1.39q-2.96.77-5.71 2.33ZM17.51 39.58a.23.23 0 0 1-.06.31l-.12.08a5.91 3.01-34.3 0 1-6.58.85l-.01-.02a5.91 3.01-34.3 0 1 3.19-5.82l.11-.07a.23.23 0 0 1 .32.06l3.15 4.61Z"/>
    <path fill="#231f20" d="M51.16 50.6q-6.77-2.38-12.95-1.55a1.06 1.06 0 0 1-1.08-.55q-.14-.26-.12-.55a1.41 1.4-3.7 0 1 1.15-1.3c6.06-1.12 10.9.4 16.53 2.35 5.36 1.85 8.65 4.5 11.28 9.42q.58 1.08-.26 1.98-.15.17-.36.27a.88.87 60 0 1-1.13-.31q-4.14-6.63-13.06-9.76Z"/>
    <path fill="#231f20" d="M48.52 58.93c2.54-.73 4.64-1.24 6.67.99 1.84 2.02-.36 6.62-1.61 8.29q-.49.66.33.76l1.27.16a.72.72 0 0 1 .62.83q-.15.9-1.05 1.13-1.8.44-3.15-.14a2.06 2.05-60.2 0 1-.84-3.11q1.81-2.46 2.53-5.22a1.25 1.24 12.1 0 0-1-1.54q-4.97-.89-7.58 3.25-2.61 4.13-5.34 8.78a1.82 1.77 3.8 0 1-.89.76q-.74.28-1.53.06a.88.88 0 0 1-.49-1.36q3.36-4.85 6.05-9.78c1.98-3.63 4.75-6.84 6.24-10.76q.44-1.15 1.68-1.26a.56.56 0 0 1 .61.52c.24 2.97-1.34 4.84-2.91 7.1q-.55.81.39.54Z"/>
    <path fill="#fff" d="m10.79 69.89-3.26-3.57a1.27 1.27 0 0 1 .15-1.85l3.67-2.94a1.27 1.27 0 0 1 1.78.2l1.51 1.87a1.27 1.27 0 0 1 .18 1.28l-1.92 4.64a1.27 1.27 0 0 1-2.11.37ZM26.86 75.02q-.64 1.34-2.08.99l-4.59-1.13q-.71-.18-.37-.82 1.78-3.42 5.29-4.74.62-.24 1.06.26 2.11 2.41.69 5.44Z"/>
  </g>
</svg>
