<svg xmlns="http://www.w3.org/2000/svg" viewBox="-2 -2 129 129" preserveAspectRatio="none"><g id="pali"><path d="M122.5 68c0-30.1-24.862-54.5-58-54.5S2.5 38.167 2.5 66c0 0 16.333.5 16.333 11.502 0 29.665 22.69 45 51.5 45S122.5 98.1 122.5 68" fill="#FFF" stroke="#000" stroke-width="5" stroke-linecap="round" stroke-linejoin="round" stroke-miterlimit="10"/><circle cx="66.668" cy="16.667" r="14.167" fill="#FFF" stroke="#000" stroke-width="5" stroke-linecap="round" stroke-linejoin="round" stroke-miterlimit="10"/><path d="M19.167 79.833c20-32.667 53.19-19 53.19 5.097" fill="none" stroke="#000" stroke-width="4" stroke-miterlimit="10"/><ellipse transform="rotate(-86.078 52.073 83.593)" cx="52.079" cy="83.597" rx="4.434" ry="4.434"/><path d="M72.355 84.93s-8.267 9.707-17.6 9.067S38.56 82.612 38.56 82.612s8.267-9.707 17.6-9.067S72.354 84.93 72.354 84.93zM83.503 67.5s9-4.5 23-6.668M109.503 72.817s-8 4.68-23 6.667" fill="none" stroke="#000" stroke-width="3.5" stroke-linecap="round" stroke-linejoin="round" stroke-miterlimit="10"/></g><style>ellipse,polygon,polyline,rect,circle,line,path{stroke-width:2;vector-effect:non-scaling-stroke}</style></svg>