<svg xmlns="http://www.w3.org/2000/svg" viewBox="-2 -2 129 129" preserveAspectRatio="none"><g id="akesi" stroke="#000" stroke-linecap="round" stroke-linejoin="round" stroke-miterlimit="10"><path d="M19.755 53.3C18.655 51.38 18 48.98 18 46.374c0-6.282 2.72-11.5 7.413-11.5S35 40.093 35 46.375c-.67-6.417 2.173-14.07 7.52-14.394 4.477-.27 8.893 4.812 9.48 11.145 0 0 .417-15.5 11.856-15.5 6.5 0 11.77 7.052 11.77 15.75 0 19.606-12.2 30.125-33.876 30.125S2.5 57.606 2.5 38 20.073 2.5 41.75 2.5H62.5c33.137 0 60 26.863 60 60s-26.863 60-60 60C31.296 122.5 6 101.85 6 76.375c0-6.048 1.426-11.824 4.018-17.116" fill="#FFF" stroke-width="5"/><path d="M9 79.147c11.36 1.39 35.262 2.265 53.5 2.265M9 90.397c11.36 1.39 35.262 2.265 53.5 2.265" fill="none" stroke-width="3"/><path d="M62.5 70v34.662c-14.715 0-33.118-.57-45.645-1.52" fill="none" stroke-width="4"/><circle cx="90.499" cy="77.833" r="15.333" fill="none" stroke-width="4"/><path fill="none" stroke-width="5" d="M90.5 62.5v30.333"/></g><style>ellipse,polygon,polyline,rect,circle,line,path{stroke-width:2;vector-effect:non-scaling-stroke}</style></svg>