<svg xmlns="http://www.w3.org/2000/svg" viewBox="-2 -2 129.25 129"><g id="nanpa" fill="#FFF" stroke="#000" stroke-width="5" stroke-miterlimit="10"><path d="M60.37 103.424C65.525 114.68 76.89 122.5 90.082 122.5c18.04 0 32.667-14.625 32.667-32.667 0-13.106-7.718-24.41-18.857-29.613L64.88 21.576C59.725 10.32 48.36 2.5 35.168 2.5 17.125 2.5 2.5 17.125 2.5 35.167c0 13.106 7.718 24.41 18.857 29.613l39.012 38.644z" stroke-linejoin="round"/><path d="M62.5 92.5c0 16.57-13.43 30-30 30s-30-13.43-30-30 13.43-30 30-30h30v30zM62.75 32.5c0-16.57 13.43-30 30-30s30 13.43 30 30-13.43 30-30 30h-30v-30z"/></g><style>path{stroke-width:2;vector-effect:non-scaling-stroke}</style></svg>