<svg xmlns="http://www.w3.org/2000/svg" viewBox="-2 -2 129 129"><g id="weka" stroke="#000" stroke-linecap="round" stroke-linejoin="round" stroke-miterlimit="10"><path d="M122.5 104.833c0 9.757-6.716 17.667-15 17.667s-15-7.91-15-17.667c0 9.757-6.716 17.667-15 17.667s-15-7.91-15-17.667c0 0-5.333 17.667-30 17.667-16.57 0-30-13.43-30-30V20.167C2.5 10.41 9.216 2.5 17.5 2.5s15 7.91 15 17.667c0-9.757 6.716-17.667 15-17.667s15 7.91 15 17.667c0 0 5.333-17.667 30-17.667 16.57 0 30 13.43 30 30v72.333z" fill="#FFF" stroke-width="5"/><path d="M2.5 60.503c30.5 4.497 36.002-8 59.002-8 18.41 0 30.998 10.34 30.998 28.748v24.333" fill="#FFF" stroke-width="4"/><path d="M62.5 105.583V93.336c0-11.107-6.25-16.838-14.812-16.838-10.697 0-24.938 7.25-45.188.5M106.263 28.675S101.227 41.68 88.725 51.09" fill="#FFF" stroke-width="4"/><path fill="none" stroke-width="4" d="M89.89 31.797l18.48 19.234"/></g><style>path{stroke-width:2;vector-effect:non-scaling-stroke}</style></svg>