<svg width="165" height="167" xmlns="http://www.w3.org/2000/svg">
    <title>
        oko
    </title>
    <g fill="none" fill-rule="evenodd">
        <path d="M160.677 88.16c0 41.6-35.266 75.333-78.557 75.333-43.292 0-78.388-33.733-78.388-75.333 0-41.613 35.096-75.332 78.388-75.332 43.291 0 78.557 33.719 78.557 75.332" fill-rule="nonzero" fill="#FFF"/>
        <path d="M157.363 88.16s-.016-.454-.031-1.32c-.03-.881.015-2.174-.155-3.854-.2-3.373-.772-8.333-2.503-14.414-.804-3.054-1.994-6.36-3.555-9.84-1.56-3.48-3.523-7.147-6.027-10.8a70.112 70.112 0 0 0-9.056-10.8c-3.554-3.48-7.65-6.826-12.301-9.693a79.632 79.632 0 0 0-15.346-7.387c-5.58-1.933-11.56-3.227-17.788-3.853-12.456-1.227-25.932.493-38.419 5.867-3.137 1.306-6.15 2.933-9.149 4.627a86.834 86.834 0 0 0-8.577 5.866c-2.704 2.187-5.316 4.547-7.742 7.094-2.396 2.573-4.667 5.305-6.723 8.2-2.024 2.919-3.879 5.959-5.502 9.145a78.226 78.226 0 0 0-4.064 9.92A73.942 73.942 0 0 0 7.937 77.4c-.556 3.613-.804 6.947-.866 10.84l.078 2.613c0 .907.092 1.8.17 2.707.092 1.8.37 3.573.602 5.36.588 3.547 1.391 7.053 2.473 10.48a77.557 77.557 0 0 0 4.065 9.933 81.36 81.36 0 0 0 5.501 9.16c8.19 11.627 19.72 20.52 32.253 25.694 6.259 2.6 12.75 4.347 19.225 5.213 1.623.2 3.245.414 4.806.494.804.04 1.546.133 2.396.146.834.027 1.669.04 2.503.067 1.515.054 3.153-.053 4.714-.08 1.576-.12 3.137-.187 4.682-.373a78.911 78.911 0 0 0 17.633-4 78.392 78.392 0 0 0 15.176-7.387 74.092 74.092 0 0 0 21.312-20.187c2.534-3.6 4.543-7.2 6.15-10.64 1.608-3.453 2.844-6.72 3.694-9.747 1.793-6.026 2.395-11.053 2.627-14.306.17-1.6.14-3.04.186-3.933l.046-1.387v.093zm6.66.08l-.046 1.386c-.03.933 0 2.213-.185 4.147-.263 3.786-.896 9.146-2.844 15.812-.958 3.32-2.302 6.92-4.049 10.694-1.761 3.774-3.94 7.734-6.707 11.667-5.501 7.853-13.198 15.8-23.227 22.08-4.992 3.147-10.54 5.867-16.536 8.013-6.012 2.12-12.44 3.587-19.163 4.32-1.685.2-3.37.28-5.085.4-1.73.014-3.4.134-5.192.067-.85-.027-1.67-.04-2.52-.066-.834-.014-1.746-.107-2.627-.16-1.808-.107-3.554-.334-5.316-.56a84.092 84.092 0 0 1-20.894-5.694c-13.615-5.64-26.164-15.307-35.112-28.013-2.225-3.187-4.25-6.52-6.011-10.014-1.747-3.506-3.215-7.146-4.467-10.88a85.415 85.415 0 0 1-2.72-11.493c-.247-1.947-.54-3.907-.664-5.88-.077-.987-.17-1.96-.17-2.947l-.077-3.053c.046-3.64.324-7.867.912-11.707a81.38 81.38 0 0 1 2.72-11.493 85.662 85.662 0 0 1 4.42-10.894c1.792-3.48 3.786-6.84 6.011-10.026 8.994-12.666 21.528-22.401 35.19-27.921 13.66-5.573 28.218-7.172 41.54-5.613 13.383 1.56 25.515 6.214 35.39 12.48 4.93 3.147 9.396 6.601 13.228 10.32a86.62 86.62 0 0 1 9.953 11.454c2.797 3.88 5.007 7.787 6.815 11.52 1.793 3.733 3.2 7.294 4.173 10.6a72.514 72.514 0 0 1 2.998 15.707c.185 1.84.17 3.266.216 4.213l.047 1.453v.08z" fill-rule="nonzero" fill="#231F20"/>
        <path d="M156.221 43.786c0 22.254-18.04 40.293-40.287 40.293-22.262 0-40.303-18.04-40.303-40.293S93.672 3.492 115.934 3.492c22.247 0 40.287 18.04 40.287 40.294" fill-rule="nonzero" fill="#FFF"/>
        <path d="M153.054 43.785s-.061-.919-.154-2.625c-.046-.413-.03-.895-.108-1.415a56.08 56.08 0 0 0-.277-1.692c-.108-.614-.17-1.28-.324-1.96-.185-.695-.386-1.413-.587-2.188-.879-3.04-2.252-6.705-4.75-10.372-2.453-3.654-5.878-7.44-10.398-10.48-2.283-1.453-4.766-2.88-7.527-3.867l-2.083-.76c-.725-.188-1.45-.373-2.19-.56-1.481-.467-2.9-.547-4.381-.828-.74-.132-1.666-.12-2.515-.186l-1.28-.067-.663-.04c-.17 0 .154 0 .092.014h-.216l-.308.026c-1.604.094-3.224.067-4.844.387-3.27.374-6.494 1.427-9.625 2.734-3.147 1.333-6.063 3.253-8.809 5.439-2.7 2.268-5.075 4.961-7.11 7.907-2.006 2.987-3.502 6.294-4.644 9.746l-.679 2.641c-.277.893-.308 1.734-.478 2.6-.355 1.613-.34 3.774-.478 5.693.015-.28.015-.026.015-.066v.252l.016.348.046.68.046 1.373c.016.92.17 1.814.309 2.72.185 1.827.694 3.574 1.141 5.346 1.111 3.454 2.607 6.787 4.582 9.802 2.036 2.972 4.412 5.68 7.126 7.959 2.762 2.2 5.693 4.133 8.84 5.48.755.413 1.588.613 2.375.933.802.28 1.573.627 2.406.8.833.2 1.62.414 2.438.614.802.2 1.573.253 2.36.4 1.465.32 3.363.306 5.075.413l.324.013.17.014h.077c.061.013-.247 0-.078 0l.602-.04 1.188-.067c.802-.054 1.589-.027 2.375-.16 6.248-.76 11.878-3.014 16.429-6.04 4.566-3.067 7.99-6.867 10.428-10.574 2.483-3.705 3.81-7.4 4.674-10.452.2-.775.385-1.508.57-2.188.14-.68.216-1.306.309-1.893.092-.586.185-1.133.247-1.627.077-.492.061-1.066.108-1.507.092-1.853.138-2.84.138-2.84v.16zm6.34.16s-.046.987-.154 2.84c-.03.467-.015.948-.108 1.574-.092.626-.185 1.32-.293 2.067-.139.733-.231 1.546-.4 2.373-.217.8-.433 1.653-.664 2.56-1.018 3.573-2.623 7.894-5.538 12.213-2.854 4.32-6.865 8.734-12.202 12.28-5.322 3.534-11.924 6.147-19.205 7-.91.134-1.82.12-2.746.187l-1.403.054-.68.04h-.246l-.077-.014h-.17l-.324-.013c-1.758-.12-3.424-.093-5.476-.48-3.98-.494-7.636-1.693-11.322-3.253-3.672-1.6-7.08-3.84-10.258-6.414-3.132-2.653-5.893-5.8-8.269-9.227-2.313-3.494-4.103-7.36-5.414-11.385-.525-2.055-1.11-4.094-1.358-6.215-.17-1.052-.339-2.106-.354-3.16l-.093-1.6-.046-.8-.016-.387-.015-.199-.015-.106v-.255l.154-2.959c0-.947.17-2.053.34-3.146.2-1.08.261-2.228.57-3.228l.787-3.092c1.28-4.054 3.039-7.922 5.337-11.44 2.376-3.468 5.137-6.615 8.268-9.28 3.209-2.587 6.633-4.855 10.29-6.454 3.686-1.574 7.48-2.8 11.306-3.266 1.898-.387 3.81-.387 5.692-.495l.355-.026h.17l.077-.014.262.014.648.026 1.296.068c.88.052 1.666.026 2.607.16 1.866.306 3.825.466 5.507.972.864.227 1.712.441 2.56.668.849.265 1.666.586 2.469.865 3.27 1.162 6.2 2.814 8.931 4.52a43.427 43.427 0 0 1 12.217 12.388c2.9 4.346 4.458 8.693 5.46 12.28.217.906.433 1.76.649 2.574.17.813.262 1.586.355 2.306.108.72.2 1.373.293 1.987.092.612.077 1.172.108 1.666.092 2 .138 3.066.138 3.066v.16z" fill-rule="nonzero" fill="#231F20"/>
        <path d="M75.678 42.2l-21.862 3.16M85.74 71.613L68.356 85.267m48.789-1.254l-5.126 21.506" stroke="#231F20" stroke-width="6" stroke-linecap="round" stroke-linejoin="round"/>
        <path d="M132.27 48.452c-4.77 6.6-14.509 7.72-21.802 2.494-7.277-5.24-9.325-14.827-4.586-21.44 4.755-6.601 14.509-7.72 21.801-2.493 7.277 5.24 9.326 14.827 4.587 21.439z" stroke="#000" stroke-width="5.333" stroke-linecap="round" stroke-linejoin="round"/>
    </g>
</svg>
