<?xml version="1.0" encoding="iso-8859-1"?>
<!-- Generator: Adobe Illustrator 19.2.0, SVG Export Plug-In . SVG Version: 6.00 Build 0)  -->
<!DOCTYPE svg PUBLIC "-//W3C//DTD SVG 1.1//EN" "http://www.w3.org/Graphics/SVG/1.1/DTD/svg11.dtd">
<svg version="1.1" xmlns="http://www.w3.org/2000/svg" xmlns:xlink="http://www.w3.org/1999/xlink" x="0px" y="0px"
	 viewBox="0 0 125 125" style="enable-background:new 0 0 125 125;" xml:space="preserve">
<g id="ni">
	<g id="ni_4_">
		<path style="fill:#FFFFFF;stroke:#000000;stroke-width:5;stroke-miterlimit:10;" d="M-975.5-870.5c-16.569,0-30-13.431-30-30
			c0-8.284,3.358-15.784,8.787-21.213l58.476-58.359c5.502-6.385,13.647-10.428,22.737-10.428c16.569,0,30,13.431,30,30v60
			c0,16.569-13.431,30-30,30H-975.5z"/>
		<g>
			<path style="fill:#FFFFFF;" d="M-950.751-935.501c-16.5-15.25-17.052-27.198-10.25-34c6.802-6.802,21.75-8.25,36.25,10.5"/>
			<path d="M-951.796-934.425c0,0-0.991-0.831-2.685-2.325c-0.844-0.755-1.849-1.796-3.016-2.933
				c-1.092-1.207-2.378-2.512-3.573-4.153c-0.309-0.401-0.625-0.809-0.946-1.226c-0.295-0.442-0.595-0.892-0.901-1.35
				c-0.296-0.466-0.617-0.924-0.906-1.419c-0.275-0.507-0.554-1.021-0.837-1.543c-0.141-0.262-0.283-0.525-0.426-0.79
				c-0.123-0.279-0.246-0.56-0.37-0.843c-0.243-0.57-0.488-1.147-0.737-1.73c-0.38-1.23-0.81-2.472-1.011-3.835
				c-0.481-2.674-0.435-5.699,0.581-8.552c0.127-0.354,0.244-0.715,0.387-1.064l0.51-1.014c0.316-0.695,0.752-1.311,1.184-1.933
				c0.403-0.649,0.938-1.174,1.427-1.746l0.188-0.21l0.094-0.105l0.047-0.052c0.058-0.055-0.096,0.086,0.135-0.13l0.023-0.02
				l0.364-0.318l0.728-0.637c2.436-1.998,5.188-3.201,8.032-3.788c2.847-0.575,5.706-0.46,8.345,0.022
				c1.297,0.322,2.592,0.596,3.759,1.102c0.589,0.237,1.196,0.424,1.746,0.698c0.549,0.277,1.091,0.55,1.625,0.819
				c2.117,1.107,3.939,2.41,5.513,3.702c0.823,0.61,1.52,1.285,2.181,1.929c0.649,0.653,1.327,1.215,1.846,1.844
				c1.064,1.235,2.063,2.249,2.75,3.186c1.402,1.853,2.177,2.921,2.177,2.921c0.486,0.67,0.337,1.607-0.333,2.093
				c-0.616,0.447-1.457,0.357-1.966-0.181l-0.073-0.077c0,0-0.872-0.917-2.35-2.538c-0.72-0.83-1.733-1.69-2.812-2.753
				c-0.529-0.546-1.194-0.999-1.835-1.546c-0.656-0.528-1.318-1.118-2.089-1.611c-1.479-1.079-3.165-2.105-5.009-2.983
				c-0.464-0.21-0.935-0.423-1.411-0.639c-0.476-0.215-0.985-0.337-1.483-0.515c-0.992-0.384-2.045-0.545-3.096-0.797
				c-2.122-0.326-4.333-0.333-6.463,0.136c-2.121,0.437-4.199,1.432-5.751,2.712l-0.722,0.643l-0.361,0.322l-0.023,0.02
				c0.216-0.203,0.05-0.046,0.094-0.086l-0.033,0.038l-0.067,0.076l-0.134,0.151c-0.344,0.409-0.755,0.775-1.024,1.228
				c-0.303,0.432-0.624,0.854-0.833,1.331l-0.364,0.689c-0.098,0.239-0.173,0.487-0.264,0.728c-0.694,1.94-0.823,4.061-0.516,6.139
				c0.112,1.043,0.447,2.061,0.711,3.066c0.186,0.496,0.369,0.987,0.551,1.472l0.274,0.725l0.339,0.699
				c0.223,0.464,0.444,0.922,0.661,1.373c0.233,0.446,0.504,0.87,0.747,1.296c0.246,0.427,0.487,0.847,0.724,1.259
				c0.269,0.398,0.532,0.789,0.791,1.171c0.51,0.77,1.006,1.507,1.544,2.169c0.515,0.677,0.99,1.334,1.461,1.928
				c0.99,1.148,1.796,2.167,2.564,2.991c1.546,1.647,2.407,2.612,2.407,2.612c0.553,0.62,0.499,1.57-0.12,2.123
				C-950.391-933.95-951.232-933.952-951.796-934.425z"/>
		</g>
		<g>
			<path style="fill:#FFFFFF;" d="M-977.251-901.001c-25-14-26.813-29.93-18.998-38.25c7.749-8.249,18.248-15,41.998,7.25"/>
			<path d="M-978.002-899.703c0,0-0.342-0.176-0.983-0.505c-0.638-0.327-1.583-0.796-2.787-1.505
				c-1.207-0.688-2.628-1.543-4.231-2.615c-0.812-0.515-1.634-1.133-2.523-1.755c-0.858-0.666-1.769-1.356-2.674-2.144
				c-1.828-1.549-3.721-3.37-5.492-5.552c-1.783-2.164-3.435-4.719-4.616-7.687c-1.154-2.96-1.823-6.398-1.336-9.897
				c0.452-3.487,2.061-6.908,4.491-9.501c2.193-2.336,4.657-4.615,7.669-6.275c2.988-1.676,6.533-2.456,9.793-2.273
				c1.635,0.067,3.204,0.342,4.667,0.757c1.476,0.388,2.842,0.921,4.139,1.48c2.581,1.142,4.814,2.513,6.793,3.848
				c1.968,1.351,3.669,2.701,5.13,3.938c1.46,1.237,2.696,2.348,3.687,3.286c1.012,0.918,1.742,1.702,2.263,2.213
				c0.514,0.517,0.788,0.793,0.788,0.793c0.584,0.588,0.582,1.538-0.006,2.122c-0.552,0.549-1.423,0.58-2.011,0.095l-0.034-0.028
				c0,0-0.292-0.242-0.84-0.697c-0.549-0.45-1.355-1.11-2.381-1.95c-1.023-0.839-2.29-1.824-3.767-2.904
				c-1.477-1.082-3.185-2.227-5.068-3.404c-1.898-1.146-4.007-2.27-6.286-3.193c-2.278-0.902-4.758-1.563-7.245-1.619
				c-2.493-0.075-4.955,0.543-7.237,1.842c-2.292,1.276-4.411,3.211-6.391,5.359c-1.756,1.904-2.915,4.275-3.261,6.786
				c-0.354,2.509,0.036,5.112,0.909,7.521c0.907,2.405,2.213,4.636,3.704,6.604c1.49,1.971,3.122,3.708,4.72,5.232
				c1.604,1.52,3.177,2.83,4.613,3.95c1.429,1.121,2.743,2.052,3.819,2.777c1.067,0.728,1.949,1.315,2.561,1.702
				c0.605,0.392,0.927,0.601,0.927,0.601c0.696,0.451,0.895,1.381,0.443,2.077C-976.478-899.571-977.326-899.359-978.002-899.703z"
				/>
		</g>
		
			<circle style="fill:none;stroke:#000000;stroke-width:4;stroke-linecap:round;stroke-linejoin:round;stroke-miterlimit:10;" cx="-916.625" cy="-935.125" r="11.375"/>
		
			<circle style="fill:none;stroke:#000000;stroke-width:4;stroke-linecap:round;stroke-linejoin:round;stroke-miterlimit:10;" cx="-933.751" cy="-902.749" r="15.75"/>
		<g>
			<path style="fill:#FFFFFF;" d="M-980.545-891.223c9.352-19.264,48.054-64.488,61.682-71.594"/>
			<path d="M-982.312-892.159c0,0,0.67-1.327,1.844-3.649c0.633-1.159,1.487-2.568,2.426-4.185c0.955-1.609,2.09-3.311,3.32-5.216
				c1.262-1.869,2.662-3.864,4.141-5.978c1.536-2.065,3.087-4.301,4.819-6.508c1.722-2.216,3.484-4.52,5.352-6.796
				c1.834-2.304,3.746-4.605,5.676-6.89c1.893-2.317,3.931-4.511,5.862-6.734c1.979-2.183,3.931-4.327,5.855-6.373
				c1.948-2.027,3.795-4.014,5.67-5.795c0.923-0.903,1.82-1.781,2.688-2.63c0.896-0.826,1.762-1.625,2.594-2.391
				c1.631-1.557,3.263-2.878,4.684-4.061c0.357-0.295,0.703-0.58,1.036-0.856c0.354-0.261,0.695-0.513,1.022-0.754
				c0.655-0.482,1.257-0.925,1.8-1.325c0.521-0.412,1.069-0.732,1.544-1.006c0.471-0.277,0.871-0.512,1.196-0.702
				c0.649-0.378,0.995-0.58,0.995-0.58c0.95-0.553,2.168-0.232,2.721,0.717c0.531,0.912,0.256,2.072-0.607,2.653l-0.265,0.177
				c0,0-0.285,0.191-0.819,0.548c-0.267,0.177-0.596,0.396-0.984,0.653c-0.387,0.254-0.837,0.53-1.321,0.947
				c-0.489,0.391-1.03,0.824-1.619,1.295c-0.294,0.235-0.601,0.48-0.919,0.733c-0.308,0.276-0.627,0.562-0.957,0.858
				c-1.31,1.197-2.819,2.496-4.384,4.051c-0.79,0.764-1.612,1.56-2.464,2.383c-0.83,0.852-1.688,1.733-2.57,2.639
				c-1.778,1.793-3.572,3.78-5.479,5.778c-1.878,2.029-3.787,4.161-5.721,6.328c-1.9,2.201-3.858,4.412-5.76,6.673
				c-1.922,2.244-3.827,4.502-5.655,6.764c-1.862,2.235-3.615,4.494-5.33,6.667c-1.716,2.172-3.315,4.31-4.865,6.317
				c-1.495,2.04-2.913,3.969-4.187,5.768c-1.217,1.822-2.427,3.471-3.371,4.948c-0.933,1.485-1.77,2.745-2.426,3.844
				c-1.279,2.266-2.009,3.561-2.009,3.561l-0.007,0.013c-0.543,0.962-1.763,1.302-2.725,0.759
				C-982.444-890.042-982.789-891.211-982.312-892.159z"/>
		</g>
	</g>
</g>
<g id="Layer_1">
</g>
</svg>
