<?xml version="1.0" encoding="iso-8859-1"?>
<!-- Generator: Adobe Illustrator 19.2.0, SVG Export Plug-In . SVG Version: 6.00 Build 0)  -->
<!DOCTYPE svg PUBLIC "-//W3C//DTD SVG 1.1//EN" "http://www.w3.org/Graphics/SVG/1.1/DTD/svg11.dtd">
<svg version="1.1" xmlns="http://www.w3.org/2000/svg" xmlns:xlink="http://www.w3.org/1999/xlink" x="0px" y="0px"
	 viewBox="0 0 125 125" style="enable-background:new 0 0 125 125;" xml:space="preserve">
<g id="uta">
	<g id="uta_2_">
		<circle style="fill:#FFFFFF;stroke:#000000;stroke-width:5;stroke-miterlimit:10;" cx="62.5" cy="62.5" r="60"/>
		<g>
			<path d="M6,40.7c0,0,7.062-0.101,17.656-0.253c5.297-0.04,11.477-0.087,18.098-0.137c6.621-0.019,13.684-0.04,20.746-0.06
				c7.062,0.02,14.125,0.041,20.746,0.06c6.621,0.05,12.801,0.097,18.098,0.137C111.938,40.599,119,40.7,119,40.7v3.6
				c0,0-7.062,0.101-17.656,0.253c-5.297,0.04-11.477,0.087-18.098,0.137c-6.621,0.019-13.684,0.04-20.746,0.06
				c-7.062-0.02-14.125-0.041-20.746-0.06c-6.621-0.05-12.801-0.097-18.098-0.137C13.062,44.401,6,44.3,6,44.3V40.7z"/>
		</g>
		<g>
			<path d="M6,80.7c0,0,7.062-0.101,17.656-0.253c5.297-0.04,11.477-0.087,18.098-0.137c6.621-0.019,13.684-0.04,20.746-0.06
				c7.062,0.02,14.125,0.041,20.746,0.06c6.621,0.05,12.801,0.097,18.098,0.137C111.938,80.599,119,80.7,119,80.7v3.6
				c0,0-7.062,0.101-17.656,0.253c-5.297,0.04-11.477,0.087-18.098,0.137c-6.621,0.019-13.684,0.04-20.746,0.06
				c-7.062-0.02-14.125-0.041-20.746-0.06c-6.621-0.05-12.801-0.097-18.098-0.137C13.062,84.401,6,84.3,6,84.3V80.7z"/>
		</g>
	</g>
</g>
<g id="Layer_1">
</g>
</svg>
