<svg xmlns="http://www.w3.org/2000/svg" viewBox="-2 -2 129 129"><g id="sona"><circle cx="74.461" cy="58.211" r="32.211" fill="#FFF"/><path d="M122 89.233C122 105.108 110.93 122 94.5 122l-46-.67-10-3.352-8.333 2.682C13.737 120.66 3 105.108 3 89.233v-57.49C3 15.87 16.32 3 32.75 3h59.5C108.68 3 122 15.87 122 31.744v57.49z" fill="none"/><path d="M80.73 41.478s6.833 6.167 2.333 10.667-11.98-10.728-16.813-5.895S77.56 65.823 69.75 73c-9.25 8.5-21.5-15.75-32.688-10.188-15.408 7.66-26.104 59.688 20.563 59.688H92.5c16.57 0 30-13.43 30-30v-60c0-16.57-13.43-30-30-30h-60c-16.57 0-30 13.43-30 30v59c0 12.498 7.507 23.178 18.375 27.687l.688.28c2.303.9 4.504 1.282 7.125 1.282 3.166 0 6.164-.72 8.84-2.006" fill="#FFF" stroke="#000" stroke-width="5" stroke-linecap="round" stroke-linejoin="round" stroke-miterlimit="10"/></g><style>path{stroke-width:2;vector-effect:non-scaling-stroke}</style></svg>