<svg xmlns="http://www.w3.org/2000/svg" viewBox="-2 -2 128.997 129"><g id="e" fill="#FFF" stroke="#000" stroke-width="5" stroke-miterlimit="10"><path d="M101.58 93c10.355 0 18.75 6.604 18.75 14.75s-8.395 14.75-18.75 14.75H76.496"/><path d="M102.58 73.75c10.355 0 18.75 6.604 18.75 14.75s-8.395 14.75-18.75 14.75H77.497"/><path d="M102.58 54.5c10.355 0 18.75 6.604 18.75 14.75S112.936 84 102.58 84H77.497"/><path d="M102.58 35.25c10.355 0 18.75 6.604 18.75 14.75s-8.395 14.75-18.75 14.75H77.497"/><path d="M69.162 122.5h18.335c8.284 0 15-6.716 15-15v-30 10-30c0-6.5 8.483-12.684 9.915-14.116 1.432-1.432 10.085-5.884 10.085-16.05V17.5c0-8.284-6.716-15-15-15H32.5c-16.57 0-30 13.43-30 30v60c0 16.57 13.43 30 30 30h40.33"/></g><style>path{stroke-width:2;vector-effect:non-scaling-stroke}</style></svg>