<?xml version="1.0" encoding="iso-8859-1"?>
<!-- Generator: Adobe Illustrator 19.2.0, SVG Export Plug-In . SVG Version: 6.00 Build 0)  -->
<!DOCTYPE svg PUBLIC "-//W3C//DTD SVG 1.1//EN" "http://www.w3.org/Graphics/SVG/1.1/DTD/svg11.dtd">
<svg version="1.1" xmlns="http://www.w3.org/2000/svg" xmlns:xlink="http://www.w3.org/1999/xlink" x="0px" y="0px"
	 viewBox="0 0 125 125" style="enable-background:new 0 0 125 125;" xml:space="preserve">
<g id="pan">
	<g id="pan_1_">
		<path style="fill:#FFFFFF;stroke:#000000;stroke-width:5;stroke-miterlimit:10;" d="M122.5,35.25V62.5c0,33.137-26.863,60-60,60
			s-60-26.863-60-60l0-27.25C2.5,17.163,17.163,2.5,35.25,2.5h54.5C107.837,2.5,122.5,17.163,122.5,35.25z"/>
		<g>
			<path style="fill:#FFFFFF;" d="M96.301,30.75c0,0-15.133,12.25-33.801,12.25S28.699,30.75,28.699,30.75S43.832,18.5,62.5,18.5
				S96.301,30.75,96.301,30.75z"/>
			<path d="M97.233,31.925c-1.24,1.032-2.489,1.946-3.792,2.819c-1.293,0.878-2.624,1.695-3.97,2.489
				c-1.363,0.763-2.745,1.494-4.158,2.169c-0.695,0.36-1.424,0.65-2.137,0.975c-0.712,0.328-1.436,0.629-2.173,0.902
				c-0.736,0.275-1.456,0.589-2.205,0.83l-2.249,0.72c-0.75,0.238-1.524,0.406-2.285,0.611c-0.762,0.204-1.528,0.396-2.309,0.528
				l-2.332,0.445l-2.363,0.287l-1.183,0.139l-1.192,0.054L62.5,45l-2.361-0.104l-1.141-0.051l-1.207-0.139l-2.415-0.292
				l-2.332-0.445c-0.782-0.132-1.547-0.323-2.309-0.528c-0.761-0.205-1.535-0.374-2.285-0.611l-2.249-0.72
				c-0.749-0.241-1.47-0.556-2.205-0.83c-0.737-0.273-1.46-0.575-2.173-0.902c-0.713-0.325-1.442-0.615-2.137-0.975
				c-1.412-0.675-2.794-1.406-4.158-2.169c-1.346-0.794-2.676-1.611-3.97-2.489c-1.307-0.877-2.54-1.778-3.803-2.828l-1.402-1.166
				l1.402-1.166c1.263-1.05,2.496-1.951,3.803-2.828c1.293-0.878,2.624-1.695,3.97-2.489c1.363-0.763,2.745-1.494,4.158-2.169
				c0.695-0.36,1.424-0.65,2.137-0.975c0.712-0.328,1.436-0.629,2.173-0.902c0.736-0.275,1.456-0.589,2.205-0.83l2.249-0.72
				c0.75-0.238,1.524-0.406,2.285-0.611c0.762-0.204,1.528-0.396,2.309-0.528l2.332-0.445l2.363-0.287l1.183-0.139l1.192-0.054
				l2.465-0.103l2.282,0.102l1.141,0.051l1.207,0.139l2.415,0.292l2.332,0.445c0.782,0.132,1.547,0.323,2.309,0.528
				c0.761,0.206,1.535,0.374,2.285,0.611l2.249,0.72c0.749,0.241,1.47,0.556,2.205,0.83c0.737,0.273,1.46,0.575,2.173,0.902
				c0.713,0.325,1.442,0.615,2.137,0.975c1.412,0.675,2.794,1.406,4.158,2.169c1.346,0.794,2.676,1.611,3.97,2.489
				c1.307,0.877,2.54,1.778,3.803,2.828l1.402,1.165L97.233,31.925z M93.579,30.75c-0.632-0.414-1.257-0.856-1.9-1.246
				c-1.267-0.772-2.571-1.486-3.884-2.177c-1.321-0.678-2.649-1.337-4.005-1.934c-0.667-0.323-1.365-0.572-2.046-0.86
				c-0.681-0.29-1.371-0.553-2.071-0.788c-1.384-0.519-2.797-0.931-4.203-1.365c-0.703-0.216-1.423-0.362-2.133-0.547
				c-0.711-0.184-1.424-0.356-2.147-0.468l-2.159-0.392l-2.123-0.236l-1.063-0.119l-1.141-0.04l-2.283-0.08l-2.1,0.078l-1.09,0.036
				l-1.087,0.119l-2.175,0.241l-2.159,0.392c-0.723,0.112-1.436,0.284-2.147,0.468c-0.71,0.185-1.43,0.331-2.133,0.547
				c-1.406,0.434-2.819,0.845-4.203,1.365c-0.7,0.235-1.39,0.498-2.071,0.788c-0.681,0.287-1.379,0.537-2.046,0.86
				c-1.356,0.597-2.684,1.256-4.005,1.934c-1.313,0.691-2.617,1.405-3.884,2.177c-1.258,0.764-2.535,1.594-3.678,2.412v-2.332
				c1.142,0.819,2.42,1.649,3.678,2.412c1.267,0.772,2.571,1.486,3.884,2.177c1.321,0.678,2.649,1.337,4.005,1.934
				c0.667,0.323,1.365,0.572,2.046,0.86c0.681,0.29,1.371,0.553,2.071,0.788c1.384,0.519,2.797,0.931,4.203,1.365
				c0.703,0.216,1.423,0.362,2.133,0.547c0.711,0.184,1.424,0.356,2.147,0.468l2.159,0.392l2.123,0.236l1.063,0.119l1.141,0.04
				L62.5,41l2.179-0.077l1.09-0.036l1.087-0.119l2.175-0.241l2.159-0.392c0.723-0.112,1.436-0.284,2.147-0.468
				c0.71-0.185,1.43-0.331,2.133-0.547c1.406-0.434,2.819-0.845,4.203-1.365c0.7-0.235,1.39-0.498,2.071-0.788
				c0.681-0.287,1.379-0.537,2.046-0.86c1.356-0.597,2.684-1.256,4.005-1.934c1.313-0.691,2.617-1.405,3.884-2.177
				C92.325,31.604,92.947,31.164,93.579,30.75z"/>
		</g>
		<g>
			<path style="fill:#FFFFFF;" d="M91.472,64.375c0,0-12.971,10.5-28.972,10.5s-28.972-10.5-28.972-10.5s12.971-10.5,28.972-10.5
				S91.472,64.375,91.472,64.375z"/>
			<path d="M92.405,65.55c-1.068,0.898-2.138,1.689-3.257,2.445c-1.11,0.76-2.253,1.467-3.409,2.156
				c-1.172,0.66-2.36,1.292-3.575,1.876c-0.598,0.312-1.225,0.562-1.838,0.844c-0.613,0.283-1.235,0.545-1.869,0.782
				c-1.249,0.52-2.54,0.94-3.836,1.342c-0.647,0.205-1.313,0.351-1.97,0.529c-0.657,0.176-1.317,0.342-1.991,0.456l-2.011,0.386
				l-2.039,0.25l-1.02,0.121l-1.029,0.048l-2.06,0.092l-2.035-0.091l-0.978-0.045l-1.045-0.12l-2.091-0.254l-2.011-0.386
				c-0.674-0.114-1.334-0.28-1.991-0.456c-0.656-0.178-1.323-0.323-1.97-0.529c-1.296-0.402-2.587-0.822-3.836-1.342
				c-0.634-0.237-1.257-0.498-1.869-0.782c-0.613-0.282-1.241-0.532-1.838-0.844c-1.215-0.584-2.403-1.216-3.575-1.876
				c-1.156-0.688-2.298-1.396-3.409-2.156c-1.124-0.76-2.178-1.537-3.269-2.454l-1.388-1.166l1.388-1.166
				c1.091-0.916,2.145-1.694,3.269-2.454c1.11-0.76,2.253-1.467,3.409-2.156c1.172-0.66,2.36-1.292,3.575-1.876
				c0.598-0.312,1.225-0.562,1.838-0.844c0.613-0.283,1.235-0.545,1.869-0.782c1.249-0.52,2.54-0.94,3.836-1.342
				c0.647-0.205,1.313-0.351,1.97-0.529c0.657-0.176,1.317-0.342,1.991-0.456l2.011-0.386l2.039-0.25l1.02-0.121l1.029-0.048
				l2.139-0.09l1.956,0.089l0.978,0.045l1.045,0.12l2.091,0.254l2.011,0.386c0.674,0.114,1.334,0.28,1.991,0.456
				c0.656,0.178,1.323,0.323,1.97,0.529c1.296,0.402,2.587,0.822,3.836,1.342c0.634,0.237,1.257,0.498,1.869,0.782
				c0.613,0.282,1.241,0.532,1.838,0.844c1.215,0.584,2.403,1.216,3.575,1.876c1.156,0.688,2.298,1.396,3.409,2.156
				c1.124,0.76,2.178,1.537,3.269,2.454l1.387,1.165L92.405,65.55z M88.73,64.375c-0.451-0.288-0.891-0.599-1.345-0.872
				c-1.084-0.655-2.2-1.259-3.323-1.844c-1.129-0.575-2.263-1.135-3.422-1.641c-0.57-0.274-1.166-0.485-1.747-0.729
				c-0.581-0.246-1.17-0.469-1.768-0.667c-1.181-0.439-2.386-0.787-3.584-1.157c-0.599-0.184-1.212-0.307-1.818-0.464
				c-0.606-0.156-1.213-0.302-1.829-0.397l-1.839-0.332l-1.799-0.198l-0.9-0.101l-0.978-0.033l-1.957-0.067l-1.774,0.065
				l-0.927,0.03l-0.925,0.101l-1.851,0.203l-1.839,0.332c-0.616,0.095-1.223,0.241-1.829,0.397
				c-0.605,0.157-1.218,0.281-1.818,0.464c-1.198,0.37-2.403,0.717-3.584,1.157c-0.597,0.198-1.186,0.422-1.768,0.667
				c-0.582,0.244-1.177,0.455-1.747,0.729c-1.158,0.506-2.293,1.066-3.422,1.641c-1.123,0.585-2.239,1.189-3.323,1.844
				c-1.075,0.647-2.173,1.353-3.144,2.038v-2.332c0.971,0.685,2.068,1.391,3.144,2.038c1.084,0.655,2.2,1.259,3.323,1.844
				c1.129,0.575,2.263,1.135,3.422,1.641c0.57,0.274,1.166,0.485,1.747,0.729c0.581,0.246,1.17,0.469,1.768,0.667
				c1.181,0.439,2.386,0.787,3.584,1.157c0.599,0.184,1.212,0.307,1.818,0.464c0.606,0.156,1.213,0.302,1.829,0.397l1.839,0.332
				l1.799,0.198l0.901,0.101l0.978,0.033l1.878,0.065l1.853-0.064l0.927-0.03l0.925-0.101l1.851-0.203l1.839-0.332
				c0.616-0.095,1.223-0.241,1.829-0.397c0.605-0.157,1.218-0.281,1.818-0.464c1.198-0.37,2.403-0.717,3.584-1.157
				c0.597-0.198,1.186-0.422,1.768-0.667c0.582-0.244,1.177-0.455,1.747-0.729c1.158-0.506,2.293-1.066,3.422-1.641
				c1.123-0.585,2.239-1.189,3.323-1.844C87.841,64.972,88.28,64.662,88.73,64.375z"/>
		</g>
		<g>
			<path style="fill:#FFFFFF;" d="M83.884,93.5c0,0-9.574,7.75-21.384,7.75S41.116,93.5,41.116,93.5s9.574-7.75,21.384-7.75
				S83.884,93.5,83.884,93.5z"/>
			<path d="M84.817,94.675c-0.798,0.688-1.587,1.285-2.417,1.856c-0.823,0.575-1.67,1.11-2.527,1.632
				c-0.87,0.498-1.755,0.974-2.658,1.416c-0.908,0.432-1.817,0.87-2.762,1.23c-0.931,0.394-1.894,0.714-2.864,1.015
				c-0.981,0.267-1.957,0.56-2.965,0.743l-1.507,0.292l-1.53,0.19c-1.016,0.158-2.058,0.132-3.086,0.201
				c-1.15-0.074-1.9-0.036-3.034-0.196l-1.582-0.195l-1.507-0.292c-1.007-0.184-1.984-0.477-2.965-0.743
				c-0.97-0.301-1.933-0.62-2.864-1.015c-0.945-0.36-1.854-0.798-2.762-1.23c-0.904-0.442-1.788-0.917-2.658-1.416
				c-0.858-0.522-1.704-1.057-2.527-1.632c-0.836-0.575-1.608-1.159-2.429-1.866L38.817,93.5l1.355-1.166
				c0.821-0.707,1.593-1.29,2.429-1.866c0.823-0.575,1.67-1.11,2.527-1.632c0.87-0.498,1.755-0.974,2.658-1.416
				c0.908-0.432,1.817-0.87,2.762-1.23c0.931-0.394,1.894-0.714,2.864-1.015c0.981-0.267,1.957-0.56,2.965-0.743l1.507-0.292
				l1.53-0.19c0.509-0.075,1.022-0.115,1.539-0.129l1.626-0.07l1.444,0.069l0.722,0.034l0.79,0.091l1.582,0.195l1.507,0.292
				c1.007,0.184,1.984,0.477,2.965,0.743c0.97,0.301,1.933,0.621,2.864,1.015c0.945,0.36,1.854,0.798,2.762,1.23
				c0.904,0.442,1.788,0.917,2.658,1.416c0.858,0.522,1.704,1.057,2.527,1.632c0.836,0.575,1.608,1.159,2.429,1.866l1.353,1.164
				L84.817,94.675z M81.088,93.5c-0.153-0.092-0.299-0.195-0.451-0.284c-0.797-0.469-1.617-0.902-2.442-1.32
				c-0.828-0.413-1.658-0.817-2.506-1.18c-0.85-0.354-1.698-0.717-2.569-1c-0.863-0.314-1.741-0.561-2.613-0.829
				c-0.881-0.222-1.758-0.475-2.65-0.62l-1.335-0.238l-1.289-0.139l-0.646-0.072l-0.722-0.023l-1.444-0.046l-1.262,0.045
				c-0.447,0.003-0.894,0.03-1.341,0.091l-1.341,0.144l-1.335,0.238c-0.892,0.145-1.77,0.398-2.65,0.62
				c-0.871,0.269-1.75,0.516-2.613,0.829c-0.871,0.283-1.72,0.646-2.569,1c-0.848,0.363-1.678,0.767-2.506,1.18
				c-0.825,0.418-1.645,0.851-2.442,1.32c-0.787,0.463-1.603,0.974-2.304,1.45v-2.332c0.701,0.476,1.517,0.987,2.304,1.45
				c0.797,0.469,1.617,0.902,2.442,1.32c0.828,0.413,1.658,0.817,2.506,1.18c0.85,0.354,1.698,0.717,2.569,1
				c0.863,0.314,1.741,0.561,2.613,0.829c0.881,0.222,1.758,0.475,2.65,0.62l1.335,0.238l1.289,0.139
				c0.775,0.127,1.962,0.09,2.734,0.139c0.893-0.054,1.788-0.005,2.682-0.135l1.341-0.144l1.335-0.238
				c0.892-0.145,1.77-0.398,2.65-0.62c0.871-0.269,1.75-0.516,2.613-0.829c0.871-0.283,1.72-0.646,2.569-1
				c0.848-0.363,1.678-0.767,2.506-1.18c0.825-0.418,1.645-0.851,2.442-1.32C80.789,93.694,80.935,93.592,81.088,93.5z"/>
		</g>
	</g>
</g>
<g id="Layer_1">
</g>
</svg>
