<svg xmlns="http://www.w3.org/2000/svg" viewBox="-2 -2 129 128.75"><g id="ma"><path d="M36 45.75C14.114 49.278 2.5 62.385 2.5 84.753S20.632 122.25 43 122.25h19.5c33.137 0 60-26.863 60-60V35.252c0-19.67-9.182-32.497-25.997-30C78 8 81 38.5 36 45.752z" fill="#FFF" stroke="#000" stroke-width="5" stroke-miterlimit="10"/><ellipse cx="37.665" cy="54.415" rx="23.167" ry="17.5" fill="#FFF" stroke="#000" stroke-width="4.5" stroke-miterlimit="10"/><path d="M62.498 16.75c0-8.56-3.81-14.5-8.503-14.5s-8.5 5.94-8.5 14.5c0-8.56-3.806-13.5-8.5-13.5h.003c-4.694 0-8.5 4.938-8.5 13.5 0-8.56-3.806-14.5-8.5-14.5s-8.5 5.94-8.5 14.5 3.806 14.498 8.5 14.498h3.167c2.577 0 4.667 2.422 4.667 5v16.834c0 4.694 4.104 8.5 9.167 8.5s9.166-3.806 9.166-8.5V36.248c0-2.577 2.09-5 4.667-5H54c4.693 0 8.498-5.938 8.498-14.5z" fill="#FFF" stroke="#000" stroke-width="4.5" stroke-linecap="round" stroke-linejoin="round" stroke-miterlimit="10"/><path d="M38.167 94.917s45-6.333 57.667-49" fill="#FFF" stroke="#000" stroke-width="4" stroke-linecap="round" stroke-linejoin="round" stroke-miterlimit="10"/><circle cx="58.722" cy="102.747" r="2.605"/><circle cx="77.421" cy="95.739" r="2.605"/><circle cx="93.754" cy="83.647" r="2.605"/><circle cx="102.281" cy="68.756" r="2.605"/></g><style>path{stroke-width:2;vector-effect:non-scaling-stroke}</style></svg>