<svg xmlns="http://www.w3.org/2000/svg" viewBox="0 0 80 80" width="168" height="168">
    <title>
        jasima
    </title>
  <g stroke-width="2" fill="none" stroke-linecap="round">
    <path fill="#231f20" stroke="#231f20" d="M40.04 66.7c-3.63 5.99-10.28 9.93-17.16 7.27q-9.02-3.49-12.72-11.51-2.91-6.3-5.44-13.93c-3.56-10.8-4.1-21.22-.2-31.9C6.6 10.92 13.55 3.26 20.37 2.25c6.37-.95 12.62-.06 15.72 6.31q.22.47.74.49c1.86.08 3.24.03 4.64-1.5C49.26-.96 60.15 1.5 68.74 7.4c3.93 2.69 5.73 9.21 6.99 13.63q1.99 6.95 2.21 11.84c.42 9.18.02 18.3-3.47 27.15q-2.21 5.63-6.07 9.62c-2.35 2.43-8.97 6.34-13.05 5.02q-9.56-3.11-14.38-8.07-.53-.54-.93.11Zm-1.37-2.16q.85-1.35 2.23-.54c5.17 3.07 9.29 6.44 15.25 7.85q2.26.54 4.47-.39c8.07-3.4 11.19-10.26 13.55-18.18q.18-.59-.28-1.02c-1.1-1.04-1.4-2.57-2.63-3.58q-1.98-1.64-5.38-2.64-10.65-3.14-13.78 7.79a.83.83 0 0 0 .98 1.04c3.52-.8 9.93-.04 11.25 4.2a1.64 1.62-38.7 0 1-.15 1.3c-1.34 2.32-4.78 4.16-7.63 3.25-4-1.27-8.84-1.26-7.61-7.35q1.05-5.22 3.74-9.04c2.75-3.92 6.33-4.76 11-4.02q7.7 1.22 10.73 4.91.57.7.67-.2 2.17-19.26-4.61-34.22c-3.1-6.85-14.1-10.69-20.88-8.79q-2.93.82-5.61 3.55-1.6 1.63.68 1.46 3.15-.24 4.91 2.47c3.89 5.96 2.71 15.29-5.62 16.45q-4.35.61-7.66-.01c-3.02-.56-7.15-4.73-7.43-8.38-.35-4.79 1.84-7.78 5.54-10.35q.46-.32.11-.75-4.7-5.85-12.68-4.94c-4.98.57-9.08 4.39-12.09 8.07q-3.17 3.88-4.26 10.45Q3.44 35.27 7.3 47.39a.6.6 0 0 0 .95.28q5.36-4.41 12.53-3.84c4.31.34 8.07 8.32 9.05 11.71q.17.6-.26 1.06-4.69 4.91-11.3 3.97c-2.58-.37-4.61-3.13-2.8-5.6q3.47-4.74 8.29-4.07 2.2.3.72-1.35l-2.03-2.28q-1.51-1.69-3.77-1.52-5.92.43-9.42 4.76a1.36 1.33-35.8 0 0-.22 1.29c2.97 8.26 6.51 18.34 16.46 20.13 5.75 1.03 10.05-2.47 13.17-7.39Zm10.741-44.872a9.11 8.02 3.7 0 0-8.574-8.591 9.11 8.02 3.7 0 0-9.608 7.415 9.11 8.02 3.7 0 0 8.574 8.591 9.11 8.02 3.7 0 0 9.608-7.415ZM25.39 53.79a.69.69 0 0 0-.34-.2l-2.78-.72a.69.69 0 0 0-.8.95l1.68 3.82a.69.69 0 0 0 .89.36l2.87-1.17a.69.69 0 0 0 .24-1.11l-1.76-1.93Zm-4.87 4.1-.81-3.06a.28.28 0 0 0-.34-.19l-.18.04a2.01 1.81-14.9 0 0-1.48 2.27l.02.1a2.01 1.81-14.9 0 0 2.41 1.23l.19-.05a.28.28 0 0 0 .19-.34Zm40.55.12-3.66-.94a.65.65 0 0 0-.79.47l-.05.19a2.85 2.41-75.6 0 0 1.62 3.36l.26.06a2.85 2.41-75.6 0 0 3.04-2.16l.05-.19a.65.65 0 0 0-.47-.79Zm-7.486 2.032a1.63 1.34 58 0 0 .272-2.092 1.63 1.34 58 0 0-2-.672 1.63 1.34 58 0 0-.272 2.092 1.63 1.34 58 0 0 2 .672Z"/>
    <path fill="#fff" d="M38.67 64.54c-3.12 4.92-7.42 8.42-13.17 7.39-9.95-1.79-13.49-11.87-16.46-20.13a1.36 1.33-35.8 0 1 .22-1.29q3.5-4.33 9.42-4.76 2.26-.17 3.77 1.52l2.03 2.28q1.48 1.65-.72 1.35-4.82-.67-8.29 4.07c-1.81 2.47.22 5.23 2.8 5.6q6.61.94 11.3-3.97.43-.46.26-1.06c-.98-3.39-4.74-11.37-9.05-11.71q-7.17-.57-12.53 3.84a.6.6 0 0 1-.95-.28Q3.44 35.27 5.48 22.93q1.09-6.57 4.26-10.45c3.01-3.68 7.11-7.5 12.09-8.07q7.98-.91 12.68 4.94.35.43-.11.75c-3.7 2.57-5.89 5.56-5.54 10.35.28 3.65 4.41 7.82 7.43 8.38q3.31.62 7.66.01c8.33-1.16 9.51-10.49 5.62-16.45q-1.76-2.71-4.91-2.47-2.28.17-.68-1.46 2.68-2.73 5.61-3.55c6.78-1.9 17.78 1.94 20.88 8.79q6.78 14.96 4.61 34.22-.1.9-.67.2-3.03-3.69-10.73-4.91c-4.67-.74-8.25.1-11 4.02q-2.69 3.82-3.74 9.04c-1.23 6.09 3.61 6.08 7.61 7.35 2.85.91 6.29-.93 7.63-3.25a1.64 1.62-38.7 0 0 .15-1.3c-1.32-4.24-7.73-5-11.25-4.2a.83.83 0 0 1-.98-1.04q3.13-10.93 13.78-7.79 3.4 1 5.38 2.64c1.23 1.01 1.53 2.54 2.63 3.58q.46.43.28 1.02c-2.36 7.92-5.48 14.78-13.55 18.18q-2.21.93-4.47.39C50.19 70.44 46.07 67.07 40.9 64q-1.38-.81-2.23.54Zm27.597-47.07a5.56 4.93-17.7 0 0-6.796-3.007 5.56 4.93-17.7 0 0-3.798 6.387 5.56 4.93-17.7 0 0 6.796 3.007 5.56 4.93-17.7 0 0 3.798-6.387ZM21.56 23.785a5.7 5.08 28.9 0 0-2.535-7.202 5.7 5.08 28.9 0 0-7.445 1.692 5.7 5.08 28.9 0 0 2.535 7.202 5.7 5.08 28.9 0 0 7.445-1.692Z"/>
    <ellipse fill="#fff" transform="rotate(3.7 -275.198 633.692)" rx="9.11" ry="8.02"/>
    <path fill="#231f20" d="M66.267 17.47a5.56 4.93-17.7 0 1-3.798 6.387 5.56 4.93-17.7 0 1-6.796-3.007 5.56 4.93-17.7 0 1 3.798-6.387 5.56 4.93-17.7 0 1 6.796 3.007Zm-2.288.861a3.12 2.48-17.9 0 0-3.731-1.401 3.12 2.48-17.9 0 0-2.207 3.319 3.12 2.48-17.9 0 0 3.731 1.401 3.12 2.48-17.9 0 0 2.207-3.319ZM21.56 23.785a5.7 5.08 28.9 0 1-7.445 1.692 5.7 5.08 28.9 0 1-2.535-7.202 5.7 5.08 28.9 0 1 7.445-1.692 5.7 5.08 28.9 0 1 2.535 7.202Zm-1.83-2.875a2.97 2.97 0 0 0-2.97-2.97 2.97 2.97 0 0 0-2.97 2.97 2.97 2.97 0 0 0 2.97 2.97 2.97 2.97 0 0 0 2.97-2.97Z"/>
    <ellipse fill="#fff" transform="rotate(-17.9 91.747 -184.05)" rx="3.12" ry="2.48"/>
    <circle fill="#fff" cx="16.76" cy="20.91" r="2.97"/>
    <path fill="#fff" d="m25.39 53.79 1.76 1.93a.69.69 0 0 1-.24 1.11L24.04 58a.69.69 0 0 1-.89-.36l-1.68-3.82a.69.69 0 0 1 .8-.95l2.78.72a.69.69 0 0 1 .34.2ZM20.52 57.89a.28.28 0 0 1-.19.34l-.19.05a2.01 1.81-14.9 0 1-2.41-1.23l-.02-.1a2.01 1.81-14.9 0 1 1.48-2.27l.18-.04a.28.28 0 0 1 .34.19l.81 3.06ZM61.07 58.01a.65.65 0 0 1 .47.79l-.05.19a2.85 2.41-75.6 0 1-3.04 2.16l-.26-.06a2.85 2.41-75.6 0 1-1.62-3.36l.05-.19a.65.65 0 0 1 .79-.47l3.66.94Z"/>
    <ellipse fill="#fff" transform="rotate(58 -26.553 76.885)" rx="1.63" ry="1.34"/>
  </g>
</svg>
