<svg xmlns="http://www.w3.org/2000/svg" viewBox="-2 -2 129.25 128.678"><g id="tawa" fill="#FFF" stroke="#000" stroke-width="5" stroke-linecap="round" stroke-linejoin="round" stroke-miterlimit="10"><ellipse cx="62.625" cy="74.97" rx="60.125" ry="47.208"/><path d="M89.76 26.644C91.607 15.866 85.82 4.727 75.583 2.92 61.487.43 47.908 9.097 38.12 26.764 30.9 39.792 33.065 74.76 33.065 74.76s12.3-13.55 32.21-10.666c16.105 2.333 21.158 9.334 37.263 8.335 11.978-.744 20.21-8.336 20.21-20.17 0-9.664-7.423-16.498-16.58-16.498 0 0-17.19-4.57-16.41-9.118z"/><path d="M33.066 74.76S32.006 49.33 56.12 39.43c22.735-9.334 22.7-16.74 34.734-22.667 9.474-4.666 18.513-.498 21.792 4.002 6.316 8.667 4.735 27.666-23.055 29.668-28.67 2.065-44.524-.002-56.524 24.33z"/></g><style>path{stroke-width:2;vector-effect:non-scaling-stroke}</style></svg>