<?xml version="1.0" encoding="iso-8859-1"?>
<!-- Generator: Adobe Illustrator 19.2.0, SVG Export Plug-In . SVG Version: 6.00 Build 0)  -->
<!DOCTYPE svg PUBLIC "-//W3C//DTD SVG 1.1//EN" "http://www.w3.org/Graphics/SVG/1.1/DTD/svg11.dtd">
<svg version="1.1" xmlns="http://www.w3.org/2000/svg" xmlns:xlink="http://www.w3.org/1999/xlink" x="0px" y="0px"
	 viewBox="0 0 125.127 125.222" style="enable-background:new 0 0 125.127 125.222;" xml:space="preserve">
<g id="palisa">
	<g id="palisa_2_">
		<g>
			<path style="fill:#FFFFFF;" d="M33.838,64.686c0,0,9.999,7.999,28.249,1.499s28.75,9.931,28.75,26.5l0,0
				c0,16.569-13.431,30-30,30h-28.25c-16.569,0-30-13.25-30-30s2.5-42,4.75-60s13.431-30,30-30c9.09,0,17.235,4.043,22.737,10.428
				l53.726,58.359c5.429,5.429,8.787,12.929,8.787,21.213c0,16.569-13.431,30-30,30c0,0-10.25,1-15.25-4.75"/>
			<path d="M34.455,63.899c0.93,0.559,2.057,1.081,3.161,1.473c1.112,0.413,2.258,0.74,3.42,0.987
				c2.327,0.476,4.701,0.734,7.082,0.648c2.378-0.042,4.755-0.359,7.094-0.86c1.169-0.259,2.334-0.548,3.483-0.902
				c0.574-0.179,1.15-0.352,1.718-0.554l1.801-0.604l0.894-0.292l1.005-0.266c0.68-0.191,1.35-0.32,2.018-0.435
				c1.339-0.247,2.717-0.345,4.099-0.349c2.767,0.04,5.583,0.636,8.102,1.864c2.543,1.185,4.747,2.965,6.579,4.985
				c1.816,2.045,3.287,4.339,4.416,6.761c2.288,4.842,3.341,10.114,3.516,15.374c0.215,5.3-0.939,10.763-3.329,15.57
				c-2.366,4.84-6.013,9.044-10.442,12.154c-4.434,3.116-9.707,5.027-15.11,5.573c-0.677,0.048-1.352,0.131-2.031,0.133
				l-1.017,0.026l-0.946,0.003l-3.762,0.004l-7.524,0.009l-15.047,0.017c-2.517,0.029-5.389-0.135-8.011-0.738
				c-2.656-0.579-5.254-1.464-7.683-2.695c-4.882-2.415-9.109-6.116-12.206-10.595c-1.551-2.24-2.797-4.687-3.75-7.239
				c-0.924-2.564-1.537-5.238-1.818-7.944c-0.121-1.339-0.183-2.748-0.163-4.036c0.012-1.257,0.01-2.498,0.048-3.782
				c0.053-2.56,0.143-5.075,0.267-7.601c0.487-10.093,1.34-20.126,2.346-30.141c0.507-5.007,1.059-10.008,1.658-15.004
				c0.304-2.485,0.573-5.041,1.161-7.686c0.557-2.593,1.338-5.156,2.377-7.633c2.038-4.957,5.201-9.593,9.429-13.144
				c4.225-3.549,9.505-5.845,14.912-6.617c2.699-0.401,5.435-0.46,8.119-0.224c2.772,0.254,5.43,0.832,8.011,1.768
				c5.152,1.841,9.81,5.002,13.424,9.094L82.08,33.133l20.357,22.165l10.179,11.082l2.545,2.771l0.607,0.658l0.648,0.681
				c0.426,0.446,0.926,1.042,1.366,1.559c1.706,2.117,3.193,4.423,4.326,6.9c2.306,4.915,3.311,10.511,2.946,15.836
				c-0.357,5.517-2.1,10.795-5.049,15.384c-2.918,4.591-7.026,8.397-11.786,11.018c-4.762,2.616-10.222,3.998-15.631,3.855
				l0.229-0.011c-0.465,0.033-0.8,0.037-1.192,0.043c-0.377,0.005-0.75-0.005-1.123-0.02c-0.745-0.032-1.485-0.092-2.225-0.179
				c-1.479-0.165-2.952-0.468-4.399-0.913c-1.449-0.441-2.868-1.062-4.196-1.881c-0.662-0.413-1.289-0.894-1.882-1.412
				c-0.588-0.528-1.114-1.126-1.594-1.751c-0.505-0.658-0.382-1.601,0.276-2.106c0.587-0.451,1.402-0.401,1.929,0.083l0.059,0.054
				c0.874,0.801,1.874,1.439,2.965,1.934c1.09,0.499,2.27,0.843,3.481,1.1c1.218,0.24,2.471,0.383,3.735,0.444
				c0.632,0.028,1.267,0.034,1.898,0.016l0.941-0.039c0.296-0.016,0.649-0.041,0.869-0.069l0.075-0.006l0.154-0.005
				c2.314-0.078,4.606-0.407,6.833-0.976c2.215-0.611,4.371-1.445,6.384-2.555c4.018-2.226,7.493-5.456,9.947-9.343
				c2.481-3.848,3.942-8.414,4.225-12.906c0.307-4.682-0.56-9.264-2.508-13.436c-0.957-2.085-2.218-4.023-3.658-5.806
				c-0.378-0.433-0.675-0.808-1.115-1.268l-1.32-1.402l-2.551-2.765L98.62,58.812L78.211,36.695L57.772,14.541
				c-3.036-3.423-6.943-6.056-11.245-7.582c-2.134-0.777-4.422-1.257-6.643-1.455c-2.31-0.2-4.623-0.141-6.885,0.2
				c-4.517,0.674-8.783,2.51-12.26,5.411c-3.47,2.905-6.163,6.768-7.943,11.073c-0.907,2.146-1.603,4.399-2.104,6.708
				c-0.127,0.579-0.25,1.157-0.342,1.719l-0.151,0.857l-0.133,0.931c-0.167,1.153-0.311,2.456-0.468,3.677
				c-0.606,4.962-1.167,9.932-1.683,14.904C6.893,60.929,6.023,70.892,5.52,80.839c-0.128,2.483-0.223,4.981-0.279,7.436
				c-0.04,1.222-0.041,2.489-0.056,3.74c-0.02,1.221,0.033,2.319,0.129,3.479c0.233,2.284,0.745,4.533,1.514,6.691
				c0.799,2.146,1.838,4.206,3.139,6.093c2.597,3.773,6.149,6.904,10.259,8.946c2.043,1.044,4.231,1.792,6.471,2.287
				c2.275,0.516,4.445,0.653,6.938,0.641l15.047,0.017l7.524,0.009l3.762,0.004l0.935-0.001l0.863-0.021
				c0.576,0.001,1.148-0.067,1.723-0.098c2.292-0.202,4.551-0.712,6.724-1.467c2.165-0.779,4.236-1.824,6.167-3.088
				c3.84-2.559,7.074-6.08,9.237-10.197c1.1-2.049,1.92-4.248,2.447-6.519c0.548-2.287,0.764-4.564,0.732-6.966
				c-0.014-2.38-0.307-4.757-0.822-7.072c-0.507-2.317-1.248-4.578-2.252-6.695c-1.962-4.235-5.076-7.942-9.105-9.84
				c-1.995-0.98-4.204-1.419-6.443-1.488c-1.124-0.003-2.257,0.062-3.387,0.262c-0.569,0.093-1.132,0.195-1.661,0.341l-0.817,0.202
				l-0.897,0.284l-1.771,0.577c-0.614,0.216-1.247,0.382-1.874,0.563c-1.257,0.353-2.535,0.64-3.821,0.891
				c-2.584,0.44-5.216,0.705-7.856,0.594c-2.634-0.104-5.275-0.49-7.798-1.295c-2.531-0.816-4.922-1.893-7.07-3.672
				c-0.425-0.352-0.484-0.981-0.132-1.405c0.319-0.385,0.867-0.47,1.282-0.219L34.455,63.899z"/>
		</g>
		<g>
			<path d="M4.656,72.681c0,0,0.169,0.15,0.486,0.43c0.152,0.127,0.369,0.344,0.569,0.486c0.177,0.096,0.373,0.212,0.586,0.357
				c0.227,0.142,0.586,0.268,0.913,0.432c0.356,0.138,0.77,0.247,1.205,0.378c0.918,0.183,1.986,0.36,3.249,0.356
				c2.504,0.063,5.588-0.341,9.018-0.653c3.412-0.3,7.293-0.532,11.205,0.489c1.946,0.489,3.844,1.401,5.456,2.604
				c0.413,0.291,0.814,0.592,1.164,0.944c0.358,0.342,0.736,0.666,1.067,1.022c0.62,0.743,1.285,1.45,1.765,2.241
				c0.256,0.386,0.521,0.765,0.76,1.15c0.212,0.396,0.421,0.788,0.628,1.176c0.443,0.768,0.75,1.556,1.071,2.317
				c0.344,0.756,0.586,1.511,0.822,2.24c0.24,0.729,0.485,1.431,0.638,2.116c0.173,0.683,0.339,1.337,0.496,1.959
				c0.148,0.623,0.24,1.218,0.352,1.775c0.22,1.115,0.397,2.087,0.486,2.89c0.217,1.604,0.34,2.521,0.34,2.521l-3.477,0.401
				c0,0-0.126-0.872-0.346-2.399c-0.092-0.769-0.268-1.683-0.483-2.726c-0.11-0.521-0.2-1.085-0.344-1.661
				c-0.151-0.573-0.309-1.176-0.475-1.806c-0.146-0.638-0.376-1.266-0.598-1.923c-0.218-0.659-0.442-1.342-0.751-1.996
				c-0.289-0.667-0.564-1.366-0.948-2.007c-0.179-0.33-0.359-0.663-0.541-1c-0.203-0.319-0.426-0.625-0.639-0.943
				c-0.401-0.663-0.942-1.199-1.433-1.797c-0.264-0.278-0.561-0.519-0.84-0.785c-0.271-0.278-0.583-0.501-0.901-0.718
				c-1.241-0.908-2.665-1.592-4.228-1.969c-3.12-0.796-6.59-0.621-9.889-0.289c-3.308,0.324-6.509,0.788-9.432,0.749
				c-1.451,0.014-2.852-0.177-4.09-0.426c-0.621-0.169-1.207-0.328-1.739-0.529c-0.532-0.243-1.004-0.415-1.455-0.677
				c-0.454-0.279-0.854-0.541-1.195-0.773c-0.293-0.219-0.446-0.378-0.619-0.521c-0.319-0.278-0.49-0.426-0.49-0.426L4.656,72.681z"
				/>
		</g>
		<ellipse transform="matrix(0.0684 -0.9977 0.9977 0.0684 -72.0453 120.9029)" cx="28.718" cy="99.03" rx="4.172" ry="4.172"/>
		<g>
			<path d="M46.515,101.259c-0.536,0.601-1.058,1.121-1.612,1.639c-0.548,0.517-1.115,1.011-1.702,1.483
				c-0.582,0.477-1.187,0.931-1.813,1.359c-0.618,0.438-1.275,0.829-1.931,1.22c-0.682,0.358-1.351,0.733-2.077,1.023
				c-0.701,0.33-1.464,0.555-2.209,0.802c-0.778,0.178-1.544,0.39-2.357,0.45c-0.795,0.133-1.622,0.074-2.435,0.073l-1.162-0.162
				c-0.325-0.028-0.766-0.151-1.178-0.26c-0.866-0.196-1.566-0.517-2.309-0.808c-0.698-0.356-1.414-0.689-2.055-1.119
				c-0.671-0.394-1.274-0.863-1.891-1.316c-0.587-0.483-1.175-0.965-1.717-1.488c-0.552-0.514-1.078-1.05-1.579-1.606
				c-0.507-0.552-0.989-1.122-1.451-1.711c-0.47-0.596-0.894-1.168-1.343-1.856c-0.37-0.567-0.3-1.293,0.122-1.78
				c0.538-0.62,1.037-1.129,1.584-1.655c0.537-0.521,1.093-1.02,1.671-1.497c0.572-0.482,1.167-0.942,1.784-1.375
				c0.608-0.444,1.256-0.842,1.904-1.24c0.673-0.365,1.334-0.747,2.053-1.046c0.693-0.338,1.449-0.571,2.189-0.828
				c0.772-0.187,1.533-0.409,2.343-0.479c0.4-0.05,0.797-0.117,1.207-0.101l0.612-0.003l0.306,0l0.153,0l0.076,0l0.038,0l0.019,0
				l0.01,0l0.116,0.011c0.724,0.108,1.347,0.123,2.241,0.38c0.872,0.187,1.578,0.499,2.328,0.781
				c0.704,0.347,1.429,0.674,2.079,1.096c0.68,0.387,1.292,0.85,1.918,1.297c0.597,0.477,1.194,0.954,1.746,1.472
				c0.562,0.509,1.099,1.041,1.611,1.593c0.517,0.548,1.011,1.115,1.484,1.702c0.483,0.595,0.915,1.161,1.383,1.858
				c0.441,0.658,0.362,1.512-0.142,2.077L46.515,101.259z M42.922,99.956c-0.12-0.16-0.228-0.329-0.349-0.481
				c-0.411-0.527-0.846-1.041-1.298-1.533c-0.447-0.498-0.916-0.976-1.401-1.428c-0.478-0.464-0.988-0.88-1.496-1.301
				c-0.527-0.384-1.044-0.793-1.599-1.115c-0.538-0.366-1.115-0.625-1.678-0.921c-0.579-0.223-1.178-0.493-1.702-0.606
				c-0.465-0.186-1.274-0.252-1.954-0.361c0.209,0.021,0.054,0.006,0.099,0.011l-0.007,0l-0.014,0h-0.028l-0.057,0l-0.114,0
				l-0.228-0.001l-0.455-0.005c-0.303-0.024-0.61,0.031-0.916,0.064c-0.614,0.036-1.225,0.214-1.839,0.345
				c-0.604,0.207-1.218,0.376-1.809,0.657c-0.602,0.236-1.178,0.562-1.761,0.864c-0.569,0.34-1.14,0.676-1.687,1.065
				c-0.552,0.376-1.092,0.779-1.613,1.206c-0.525,0.421-1.036,0.866-1.527,1.328c-0.487,0.451-0.988,0.956-1.39,1.404l0.122-1.78
				c0.336,0.499,0.764,1.068,1.185,1.581c0.423,0.525,0.868,1.035,1.331,1.524c0.458,0.494,0.937,0.968,1.433,1.415
				c0.488,0.459,1.009,0.87,1.526,1.285c0.537,0.378,1.062,0.78,1.627,1.096c0.546,0.359,1.132,0.61,1.702,0.898
				c0.587,0.214,1.191,0.476,1.721,0.58c0.276,0.071,0.515,0.163,0.903,0.194l0.952,0.125c0.608-0.024,1.211,0.033,1.823-0.088
				c0.611-0.046,1.217-0.233,1.825-0.374c0.598-0.217,1.205-0.394,1.788-0.683c0.595-0.244,1.162-0.578,1.737-0.886
				c0.56-0.347,1.122-0.69,1.659-1.084c0.543-0.382,1.072-0.791,1.583-1.223c0.515-0.426,1.016-0.876,1.495-1.342
				C42.653,100.249,42.782,100.096,42.922,99.956z"/>
		</g>
	</g>
</g>
<g id="Layer_1">
</g>
</svg>
