<svg xmlns="http://www.w3.org/2000/svg" viewBox="-2 -2 74.857 129"><g id="kepeken" stroke="#000" stroke-miterlimit="10"><path d="M2.5 18.417C2.5 6.583 6.343 2.5 11.083 2.5c6.667 0 7.583 9.93 7.583 15.5 0-5.57-.084-15.5 7.416-15.5s7.583 9.93 7.583 15.5c0-5.57 2.918-15.5 10.418-15.5s5.766 18.1 5.766 18.1c4.784-4.682 13.08-8.974 16.98-4.694C71.37 20.884 64.54 33 62.523 35.772L62.5 112.5c0 5.523-4.477 10-10 10h-40c-5.523 0-10-4.477-10-10V18.417z" fill="#FFF" stroke-width="5" stroke-linecap="round" stroke-linejoin="round"/><path d="M62.5 38.958c-7.696 7.89-17.982 12.79-29.875 12.79-11.7 0-22.538-4.74-30.206-12.408" fill="none" stroke-width="3.5"/><path d="M25.208 63.147c-9.017-1.532-16.67-5.913-22.79-12.184M62.5 51.59c-5.736 5.64-13.908 9.658-22.1 11.315" fill="none" stroke-width="2.5"/><path d="M42.94 50.458c0 8.837-2.623 17.292-10.126 17.292S22.69 59.42 22.69 50.583" fill="none" stroke-width="4"/></g><style>path{stroke-width:2;vector-effect:non-scaling-stroke}</style></svg>