<svg xmlns="http://www.w3.org/2000/svg" viewBox="-2 -2 128.12900000000002 69.25"><g id="mute"><path d="M19.5 46.402c10 10.557 14.594 23.087 31.63 13.49 6.036 4.4 13.73 3.854 16.884-.706 6.46 3.565 20.153 7.936 26.653-9.145s6.833-29.724 6.833-29.724h-35L34.833 21.96 19.5 46.402z" fill="#FFF"/><path d="M97.5 29.75c-15.75 5.5-56 3.5-56 3.5v10.125c0 10.7-8.674 19.375-19.375 19.375S2.75 54.076 2.75 43.375L2.5 32.5c0-16.57 13.43-30 30-30h60.25c16.57 0 31.464 9.243 28.5 25.25-1.25 6.75-2.74 12.8-1 20.5C122 56 119 62.5 108.5 62.5S95.875 61.125 91 56.25" fill="#FFF" stroke="#000" stroke-width="5" stroke-linecap="round" stroke-linejoin="round" stroke-miterlimit="10"/><path d="M32.586 60.1c2.632 1.684 5.698 2.65 8.97 2.65 9.804 0 17.753-8.674 17.753-19.375V33.25" fill="none" stroke="#000" stroke-width="4" stroke-linecap="round" stroke-linejoin="round" stroke-miterlimit="10"/><path d="M50.682 60.1c2.632 1.684 5.698 2.65 8.97 2.65 9.804 0 17.753-8.674 17.753-19.375V33.25" fill="none" stroke="#000" stroke-width="4" stroke-linecap="round" stroke-linejoin="round" stroke-miterlimit="10"/><path d="M68.778 60.1c2.632 1.684 5.698 2.65 8.97 2.65 9.804 0 17.753-8.674 17.753-19.375L95 31" fill="none" stroke="#000" stroke-width="4" stroke-linecap="round" stroke-linejoin="round" stroke-miterlimit="10"/></g><style>path{stroke-width:2;vector-effect:non-scaling-stroke}</style></svg>