<svg xmlns="http://www.w3.org/2000/svg" viewBox="-2 -2 129 132.132" preserveAspectRatio="none"><g id="seli" fill="#FFF" stroke="#000" stroke-width="5" stroke-miterlimit="10"><path d="M122.5 5.632V66.3c0 33.136-26.863 59.332-60 59.332S2.5 99.436 2.5 66.3V5.63l29.667 26.833L62.5 5.632l30 26.833 30-26.833z"/><path d="M94.03 79.8c0 17.028-14.116 30.832-31.53 30.832S30.97 96.828 30.97 79.8 62.5 24.3 62.5 24.3s31.53 38.47 31.53 55.5z"/><path d="M77.976 78.49c0 8.547-6.93 15.476-15.476 15.476s-15.476-6.93-15.476-15.476S62.5 50.633 62.5 50.633s15.476 19.31 15.476 27.857z"/></g><style>ellipse,polygon,polyline,rect,circle,line,path{stroke-width:2;vector-effect:non-scaling-stroke}</style></svg>