<?xml version="1.0" encoding="iso-8859-1"?>
<!-- Generator: Adobe Illustrator 19.2.0, SVG Export Plug-In . SVG Version: 6.00 Build 0)  -->
<!DOCTYPE svg PUBLIC "-//W3C//DTD SVG 1.1//EN" "http://www.w3.org/Graphics/SVG/1.1/DTD/svg11.dtd">
<svg version="1.1" xmlns="http://www.w3.org/2000/svg" xmlns:xlink="http://www.w3.org/1999/xlink" x="0px" y="0px"
	 viewBox="0 0 125.059 125.026" style="enable-background:new 0 0 125.059 125.026;" xml:space="preserve">
<g id="suwi">
	<g id="suwi_2_">
		<g>
			<path style="fill:#FFFFFF;" d="M59.242,24.541c28.997,0,47.999,16.999,47.999,47.999c0,32-16.001,50-44.832,50
				c-33.137,0-59.836-26.863-59.836-60s26.863-60,60-60h12c16.2,0,29.333,10.148,29.333,22.667c0,5.819-2.003,10.987-6.667,15
				c1.612-0.834,3.421-1.455,5.333-1.917c9.306-2.245,18.154,1.342,19.763,8.011s-4.632,13.895-13.938,16.139
				c-0.669,0.161-1.245,0.158-1.907,0.26c8.06,1.305,14.835,9.181,15.956,19.36c1.301,11.817-5.512,22.263-15.217,23.331
				c-2.758,0.304-5.028,0.242-7.502-0.881"/>
			<path d="M59.299,23.042l3.217,0.05c1.075,0.024,2.131-0.001,3.253,0.14l3.326,0.329l0.832,0.089l0.814,0.154l1.629,0.309
				L74,24.426c0.546,0.092,1.087,0.21,1.617,0.38l3.204,0.919l0.8,0.234l0.778,0.307l1.556,0.615
				c1.033,0.423,2.096,0.778,3.071,1.34l2.983,1.557c0.957,0.585,1.881,1.232,2.818,1.856c0.46,0.325,0.946,0.613,1.383,0.969
				l1.288,1.097l1.287,1.1c0.433,0.363,0.863,0.728,1.233,1.157l2.311,2.479c0.763,0.833,1.371,1.791,2.063,2.684l1.006,1.364
				c0.306,0.472,0.574,0.969,0.862,1.453c0.559,0.978,1.148,1.943,1.678,2.936l1.369,3.082c0.212,0.519,0.482,1.02,0.646,1.555
				l0.518,1.598c0.333,1.068,0.713,2.127,1.003,3.205l0.718,3.268l0.356,1.635l0.211,1.652l0.417,3.306
				c0.137,1.102,0.121,2.209,0.188,3.313c0.041,1.118,0.108,2.182,0.125,3.344c-0.024,8.695-1.129,17.693-4.546,26.039
				c-1.72,4.153-4.011,8.14-6.988,11.61c-2.946,3.487-6.558,6.437-10.546,8.655c-1.993,1.109-4.067,2.073-6.205,2.825
				c-1.058,0.415-2.15,0.709-3.229,1.05c-1.094,0.267-2.181,0.594-3.287,0.793c-4.42,0.919-8.859,1.296-13.351,1.212
				c-8.884-0.131-17.825-2.207-25.884-6.065c-8.064-3.871-15.256-9.509-20.986-16.37C8.737,95.714,4.533,87.588,2.188,78.957
				c-1.172-4.316-1.881-8.758-2.11-13.222L0,62.325c0.033-1.079,0.038-2.127,0.093-3.233c0.092-1.133,0.147-2.287,0.277-3.402
				c0.153-1.108,0.249-2.224,0.453-3.324c1.435-8.834,4.815-17.345,9.816-24.765c5.017-7.41,11.623-13.725,19.242-18.411
				c7.622-4.684,16.277-7.669,25.153-8.728c2.218-0.277,4.452-0.41,6.685-0.442c2.212-0.04,4.308-0.008,6.467-0.016l6.532,0.009
				c1.082,0.052,2.118,0.064,3.239,0.15c1.163,0.149,2.37,0.231,3.494,0.456c4.512,0.797,8.915,2.386,12.878,4.829
				c1.949,1.27,3.839,2.676,5.463,4.404c1.684,1.658,3.07,3.645,4.211,5.761c1.137,2.136,1.836,4.506,2.202,6.919l0.113,1.828
				c0.014,0.325,0.038,0.564,0.041,0.96l-0.025,0.804c-0.027,0.544-0.068,1.233-0.141,1.804c-0.063,0.591-0.157,1.182-0.267,1.771
				c-0.458,2.353-1.35,4.65-2.601,6.718c-1.271,2.059-2.919,3.846-4.764,5.291l-0.017,0.015L96.32,38.43
				c1.103-0.625,2.249-1.133,3.412-1.545c0.581-0.209,1.165-0.395,1.75-0.566l0.44-0.125l0.11-0.031l0.183-0.043l0.208-0.049
				l0.831-0.196c0.517-0.144,1.189-0.233,1.831-0.327c0.653-0.112,1.271-0.146,1.896-0.19c1.249-0.088,2.513-0.064,3.776,0.055
				c1.263,0.113,2.527,0.352,3.774,0.694c0.619,0.194,1.235,0.409,1.845,0.643c0.597,0.286,1.215,0.506,1.789,0.859
				c0.584,0.325,1.163,0.663,1.706,1.084c0.565,0.375,1.07,0.858,1.58,1.326c0.976,0.99,1.878,2.122,2.48,3.445
				c0.346,0.638,0.547,1.339,0.766,2.032l0.04,0.13l0.02,0.065l0.005,0.016l0.038,0.187l0.004,0.026l0.034,0.211l0.068,0.421
				c0.04,0.305,0.104,0.494,0.115,0.95c0.02,0.4,0.032,0.803,0.036,1.203c0.005,0.403-0.061,0.725-0.093,1.091
				c-0.051,0.721-0.256,1.394-0.422,2.079c-0.424,1.326-0.989,2.594-1.734,3.703c-0.709,1.143-1.573,2.138-2.499,3.049
				c-0.462,0.456-0.968,0.852-1.452,1.276c-0.513,0.38-1.026,0.761-1.55,1.119c-0.542,0.326-1.071,0.677-1.625,0.975
				c-0.562,0.28-1.11,0.593-1.685,0.839c-1.146,0.505-2.327,0.909-3.52,1.243c-0.625,0.149-1.15,0.296-1.855,0.44
				c-0.815,0.134-1.411,0.113-1.814,0.155l-0.013,0.001l0.015-3.951c1.513,0.277,3.033,0.632,4.425,1.28
				c0.725,0.267,1.368,0.68,2.054,1.021c0.633,0.417,1.306,0.792,1.896,1.267c0.607,0.455,1.201,0.927,1.741,1.454
				c0.573,0.497,1.069,1.061,1.581,1.614c0.509,0.554,0.946,1.164,1.416,1.75c0.409,0.624,0.861,1.227,1.23,1.876
				c0.366,0.65,0.761,1.287,1.063,1.969c0.333,0.668,0.639,1.347,0.894,2.047c0.557,1.381,0.958,2.818,1.278,4.268
				c0.184,0.721,0.254,1.462,0.384,2.193l0.043,0.275l0.034,0.358l0.041,0.509l0.083,1.018l0.039,0.515l0.003,0.582l-0.001,1.166
				c0.022,0.794-0.089,1.509-0.141,2.262c-0.149,1.487-0.422,2.97-0.833,4.421c-0.396,1.454-0.938,2.876-1.602,4.247
				c-0.658,1.375-1.478,2.681-2.415,3.911c-0.479,0.606-1.011,1.178-1.524,1.76c-0.584,0.522-1.138,1.075-1.758,1.557
				c-1.247,0.955-2.586,1.825-4.069,2.41l-1.103,0.449l-1.149,0.325c-0.758,0.247-1.549,0.342-2.333,0.459
				c-1.485,0.188-2.991,0.216-4.584,0.057c-1.587-0.176-3.212-0.66-4.603-1.413c-0.974-0.527-1.336-1.743-0.809-2.717
				c0.476-0.88,1.516-1.261,2.43-0.937l0.032,0.012c1.087,0.384,2.147,0.572,3.278,0.585c1.125,0.017,2.36-0.1,3.561-0.354
				c0.558-0.118,1.122-0.199,1.652-0.415l0.807-0.266l0.77-0.368c1.032-0.472,1.975-1.135,2.88-1.842
				c0.448-0.361,0.846-0.792,1.276-1.178c0.381-0.444,0.786-0.866,1.154-1.325c0.707-0.944,1.37-1.933,1.915-3.004
				c0.547-1.068,1.01-2.191,1.355-3.357c0.359-1.162,0.615-2.364,0.768-3.581c0.054-0.604,0.175-1.239,0.164-1.81l0.03-0.877
				l0.018-0.439l-0.024-0.505l-0.056-1.02l-0.028-0.51l-0.007-0.128l-0.004-0.064c-0.002-0.027,0.016,0.177,0.007,0.084
				l-0.002-0.014l-0.004-0.029l-0.031-0.23c-0.097-0.611-0.131-1.236-0.272-1.839c-0.236-1.215-0.535-2.423-0.97-3.579
				c-0.194-0.589-0.434-1.157-0.696-1.716c-0.231-0.575-0.549-1.102-0.833-1.649c-0.287-0.546-0.65-1.042-0.968-1.568
				c-0.374-0.482-0.715-0.997-1.117-1.455c-0.789-0.93-1.651-1.797-2.599-2.543c-0.456-0.401-0.977-0.701-1.463-1.057
				c-0.528-0.274-1.021-0.634-1.575-0.85c-1.065-0.552-2.217-0.843-3.367-1.11l-0.093-0.022c-1.079-0.25-1.751-1.328-1.501-2.407
				c0.187-0.808,0.84-1.387,1.608-1.523l0.022-0.004c0.722-0.131,1.27-0.179,1.572-0.274l1.439-0.458
				c0.979-0.347,1.925-0.762,2.84-1.226c0.463-0.22,0.892-0.499,1.34-0.741c0.437-0.26,0.843-0.562,1.268-0.837
				c0.401-0.303,0.789-0.621,1.179-0.932c0.353-0.347,0.736-0.667,1.068-1.026c0.651-0.725,1.307-1.447,1.773-2.258
				c0.52-0.787,0.859-1.633,1.124-2.47c0.082-0.425,0.226-0.844,0.233-1.266c0.011-0.2,0.065-0.442,0.049-0.608
				c-0.012-0.168-0.015-0.335-0.01-0.504c0.033-0.117-0.059-0.484-0.097-0.741l-0.074-0.42l-0.037-0.21l-0.005-0.026
				c-0.032-0.159,0.041,0.201,0.033,0.161l-0.003-0.009l-0.012-0.037l-0.024-0.073c-0.132-0.39-0.217-0.797-0.425-1.16
				c-0.321-0.765-0.861-1.444-1.462-2.081c-0.33-0.298-0.635-0.621-1.023-0.876c-0.352-0.289-0.756-0.525-1.163-0.76
				c-0.389-0.259-0.856-0.415-1.278-0.635c-0.45-0.176-0.908-0.342-1.371-0.497c-0.945-0.273-1.912-0.516-2.914-0.637
				c-0.998-0.133-2.017-0.194-3.04-0.159c-0.512,0.017-1.032,0.023-1.505,0.091c-0.486,0.053-0.949,0.08-1.541,0.198l-0.842,0.144
				l-0.21,0.036l-0.053,0.009l-0.026,0.005c0.151-0.034,0.035-0.008,0.066-0.015l-0.012,0.003l-0.097,0.021l-0.388,0.085
				c-0.516,0.116-1.026,0.245-1.527,0.391c-1.001,0.295-1.973,0.639-2.894,1.058c-1.012,0.462-2.207,0.017-2.669-0.995
				c-0.366-0.802-0.158-1.722,0.445-2.298l0.013-0.013c2.818-2.704,4.662-6.091,5.223-9.844c0.077-0.467,0.144-0.937,0.184-1.413
				c0.05-0.494,0.066-0.877,0.084-1.403l0.01-0.804l-0.053-0.645l-0.105-1.38c-0.346-1.811-0.836-3.608-1.73-5.265
				c-0.899-1.641-1.979-3.224-3.364-4.57c-1.313-1.405-2.897-2.571-4.533-3.639c-3.347-2.053-7.147-3.431-11.077-4.118
				c-0.979-0.196-1.92-0.243-2.881-0.382c-1.015-0.079-2.127-0.093-3.186-0.142l-6.334,0.005c-2.129,0.011-4.323-0.017-6.399,0.026
				c-2.054,0.033-4.108,0.158-6.145,0.416c-8.152,0.988-16.084,3.737-23.075,8.048c-6.986,4.314-13.044,10.124-17.637,16.929
				c-4.566,6.822-7.67,14.609-9.005,22.707C5.735,54.21,5.65,55.235,5.505,56.25c-0.121,1.015-0.164,2.005-0.255,3.009
				c-0.055,1.035-0.063,2.133-0.097,3.197l0.068,3.022c0.204,4.103,0.848,8.181,1.918,12.143c2.139,7.923,5.983,15.39,11.238,21.708
				c5.256,6.312,11.858,11.506,19.258,15.074c7.417,3.554,15.558,5.475,23.826,5.612c8.192,0.184,16.553-1.231,23.596-5.11
				c3.518-1.928,6.675-4.472,9.285-7.518c2.634-3.028,4.701-6.555,6.285-10.307c1.557-3.769,2.666-7.757,3.332-11.847
				c0.174-1.021,0.332-2.046,0.444-3.08c0.143-1.029,0.225-2.067,0.314-3.105c0.108-1.042,0.124-2.062,0.19-3.094
				c0.053-1.031,0.05-2.133,0.078-3.196c0.067-8.258-1.415-16.604-4.89-23.981c-0.468-0.902-0.989-1.776-1.479-2.668
				c-0.253-0.441-0.485-0.896-0.755-1.326l-0.89-1.235c-0.612-0.808-1.139-1.687-1.817-2.442l-2.044-2.256
				c-0.323-0.394-0.708-0.726-1.094-1.056l-1.145-1.005l-1.144-1.009c-0.388-0.327-0.828-0.591-1.239-0.89
				c-0.841-0.573-1.652-1.194-2.508-1.749L83.3,31.649c-0.872-0.543-1.845-0.891-2.785-1.307l-1.418-0.609l-0.709-0.305
				l-0.737-0.236l-2.956-0.937c-0.488-0.174-0.991-0.297-1.501-0.397l-1.522-0.333l-1.522-0.334l-0.762-0.168l-0.765-0.102
				l-3.063-0.418c-1.002-0.181-2.096-0.205-3.162-0.275l-3.212-0.189c-0.827-0.049-1.458-0.759-1.409-1.586
				C57.823,23.65,58.501,23.031,59.299,23.042z"/>
		</g>
		
			<circle style="fill:none;stroke:#000000;stroke-width:4.25;stroke-linecap:round;stroke-linejoin:round;stroke-miterlimit:10;" cx="64.699" cy="56.915" r="14.625"/>
		<g>
			<path d="M52.545,49.763c0,0-0.098-0.015-0.289-0.043c-0.204-0.025-0.507-0.062-0.902-0.11c-0.798-0.085-1.984-0.185-3.497-0.215
				c-1.511-0.028-3.351,0.012-5.429,0.247c-2.074,0.241-4.396,0.652-6.788,1.449c-2.387,0.791-4.849,1.98-7.032,3.734
				c-2.184,1.744-4.086,4.044-5.404,6.812c-1.335,2.757-2.125,5.927-2.442,9.238c-0.162,1.648-0.209,3.367-0.175,5.036
				c0.05,1.565,0.297,3.155,0.802,4.574c0.968,2.867,3.096,5.093,5.728,5.838c2.618,0.775,5.514,0.069,7.493-1.654
				c2.023-1.71,3.126-4.333,3.501-6.979c0.091-0.666,0.154-1.334,0.164-2.003c0.015-0.745,0.03-1.478,0.045-2.199
				c0.032-1.495,0.115-2.919,0.241-4.31c0.262-2.771,0.624-5.368,1.467-7.703c0.43-1.163,0.983-2.263,1.696-3.214
				c0.724-0.945,1.614-1.716,2.511-2.199c1.831-0.948,3.319-0.995,4.247-1.053c0.943-0.014,1.422,0.03,1.422,0.03l0.062,0.006
				c0.826,0.077,1.433,0.808,1.356,1.634c-0.07,0.753-0.685,1.324-1.418,1.36c0,0-0.419,0.021-1.152,0.136
				c-0.719,0.114-1.778,0.326-2.685,0.96c-0.451,0.318-0.874,0.735-1.256,1.323c-0.373,0.599-0.7,1.366-0.957,2.275
				c-0.509,1.828-0.806,4.154-0.915,6.74c-0.059,1.291-0.072,2.667-0.084,4.07c0,0.728,0,1.468,0,2.22
				c0,0.828-0.062,1.677-0.166,2.538c-0.215,1.721-0.667,3.507-1.466,5.237c-0.807,1.721-1.984,3.377-3.54,4.711
				c-1.545,1.339-3.46,2.34-5.538,2.808c-2.077,0.461-4.3,0.388-6.378-0.249c-2.078-0.632-3.995-1.832-5.479-3.405
				c-1.5-1.566-2.558-3.474-3.219-5.434c-0.669-1.973-0.947-3.972-0.99-5.972c-0.011-1.9,0.088-3.741,0.305-5.601
				c0.433-3.698,1.403-7.359,3.068-10.625c1.644-3.269,4.025-6.081,6.729-8.08c2.693-2.029,5.614-3.312,8.345-4.127
				c2.74-0.819,5.315-1.196,7.587-1.352c2.274-0.16,4.252-0.119,5.873-0.021c1.622,0.1,2.889,0.261,3.757,0.39
				c0.437,0.072,0.771,0.128,0.997,0.165c0.237,0.046,0.36,0.069,0.36,0.069c0.813,0.157,1.345,0.944,1.188,1.757
				c-0.153,0.791-0.901,1.315-1.689,1.199L52.545,49.763z"/>
		</g>
	</g>
</g>
<g id="Layer_1">
</g>
</svg>
