<svg xmlns="http://www.w3.org/2000/svg" viewBox="-2 -2 129 129.25"><g id="sitelen" stroke="#000" stroke-linecap="round" stroke-linejoin="round" stroke-miterlimit="10"><path d="M59.25 106.25c0 9.113 4.72 16.5 10.542 16.5s10.542-7.387 10.542-16.5c0 9.113 4.72 16.5 10.542 16.5s10.542-7.387 10.542-16.5c0 9.113 4.72 16.5 10.542 16.5s10.542-7.387 10.542-16.5V62.5c0-33.137-26.863-60-60-60s-60 26.863-60 60v30c0 16.57 13.25 30 30 30s26.748-16.25 26.748-16.25z" fill="#FFF" stroke-width="5"/><path d="M2.5 72.75S10 70.5 18.25 65.5s19.646-6.067 24.75 2c7.75 12.25 4.25 28.75 1 52.25" fill="none" stroke-width="4"/><path d="M2.25 89.25c14-7 31-13 44.75-10.75" fill="none" stroke-width="3.4"/><path d="M6 105.75S29 91 47 96.25" fill="none" stroke-width="3.5"/><path d="M121.882 53.9c-5.54 11.665-18.513 19.85-33.632 19.85-20.158 0-36.5-14.55-36.5-32.5 0-12.154 7.492-22.75 18.59-28.324" fill="none" stroke-width="4.5"/><path d="M64.616 44.832c22.097-4.793 28.706-5.756 42.995-4.383M78.25 26.25c.5 11.25 0 31.25 0 31.25M93.25 26c1.5 11.25 1 29.75 1 29.75" fill="none" stroke-width="4"/></g><style>path{stroke-width:2;vector-effect:non-scaling-stroke}</style></svg>