<?xml version="1.0" encoding="iso-8859-1"?>
<!-- Generator: Adobe Illustrator 19.2.0, SVG Export Plug-In . SVG Version: 6.00 Build 0)  -->
<!DOCTYPE svg PUBLIC "-//W3C//DTD SVG 1.1//EN" "http://www.w3.org/Graphics/SVG/1.1/DTD/svg11.dtd">
<svg version="1.1" xmlns="http://www.w3.org/2000/svg" xmlns:xlink="http://www.w3.org/1999/xlink" x="0px" y="0px"
	 viewBox="0 0 125 125" style="enable-background:new 0 0 125 125;" xml:space="preserve">
<g id="unpa">
	<g id="unpa_1_">
		<circle style="fill:#FFFFFF;stroke:#000000;stroke-width:5;stroke-miterlimit:10;" cx="62.5" cy="62.5" r="60"/>
		<g>
			<path d="M62.562,0.701c0,0,0.172,0.003,0.506,0.01c0.343,0.012,0.792-0.003,1.554,0.071c1.471,0.111,3.488,0.392,5.991,1.228
				c2.488,0.814,5.37,2.238,8.243,4.431c2.862,2.198,5.7,5.185,8.016,8.95c2.323,3.75,4.12,8.283,4.896,13.315
				c0.17,1.26,0.314,2.544,0.346,3.853l0.026,1.052l-0.021,0.919c-0.011,0.591-0.087,1.411-0.162,2.083
				c-0.332,2.746-1.192,5.489-2.483,8.023c-2.597,5.1-6.785,9.24-11.412,12.524c-4.643,3.292-9.842,5.839-15.091,7.838
				c-5.029,1.935-9.879,4.212-14.04,7.189c-4.157,2.954-7.524,6.689-9.326,10.98c-0.922,2.132-1.446,4.382-1.692,6.634
				c-0.224,2.219-0.157,4.605,0.06,6.776c0.449,4.423,1.747,8.456,3.609,11.761c1.884,3.298,4.31,5.847,6.802,7.611
				c2.491,1.785,5.02,2.788,7.154,3.388c2.143,0.594,3.908,0.795,5.109,0.876c0.599,0.064,1.066,0.049,1.378,0.07
				c0.312,0.011,0.474,0.017,0.474,0.017l0.098,0.004c1.103,0.041,1.965,0.968,1.924,2.071c-0.04,1.086-0.942,1.938-2.023,1.925
				c0,0-0.183-0.002-0.538-0.007c-0.355-0.014-0.881,0.01-1.568-0.045c-1.372-0.064-3.403-0.246-5.924-0.884
				c-2.509-0.644-5.537-1.765-8.568-3.833c-3.031-2.038-6.02-5.045-8.271-8.918c-2.246-3.866-3.784-8.521-4.355-13.515
				c-0.06-0.629-0.145-1.243-0.176-1.902c-0.044-0.656-0.086-1.316-0.091-1.903c-0.051-1.264,0-2.627,0.111-3.964
				c0.247-2.69,0.892-5.446,2.005-8.064c1.101-2.623,2.661-5.097,4.542-7.284c1.874-2.198,4.055-4.121,6.382-5.797
				c4.665-3.362,9.879-5.804,15.11-7.846c5.046-1.905,9.827-4.238,14.054-7.208c4.204-2.95,7.804-6.567,9.926-10.709
				c1.066-2.063,1.733-4.239,2.038-6.426c0.048-0.276,0.054-0.52,0.086-0.781c0.027-0.254,0.058-0.501,0.062-0.829l0.033-0.919
				l-0.014-0.775c-0.012-1.121-0.124-2.227-0.254-3.314c-0.616-4.344-2.127-8.323-4.113-11.617c-1.989-3.299-4.396-5.944-6.81-7.89
				c-2.427-1.937-4.844-3.196-6.917-3.924c-2.057-0.746-3.823-1.025-4.918-1.133c-0.521-0.075-1.065-0.078-1.388-0.095
				c-0.333-0.014-0.505-0.021-0.505-0.021c-1.104-0.047-1.961-0.979-1.914-2.083C60.57,1.528,61.479,0.68,62.562,0.701z"/>
		</g>
	</g>
</g>
<g id="Layer_1">
</g>
</svg>
