<?xml version="1.0" encoding="UTF-8"?>
<svg id="Layer_1" xmlns="http://www.w3.org/2000/svg" version="1.1" viewBox="0 0 168 168">
  <!-- Generator: Adobe Illustrator 30.1.0, SVG Export Plug-In . SVG Version: 2.1.1 Build 136)  -->
  <defs>
    <style>
      .st0 {
        fill: #fff;
      }

      .st0, .st1 {
        stroke: #000;
        stroke-linecap: round;
        stroke-linejoin: round;
        stroke-width: 2px;
      }

      .st1 {
        fill: none;
      }
    </style>
  </defs>
  <g id="monsuta">
    <path class="st0" d="M8.36,139.23c.1-17.11-.27-41.63.11-58.67C11.24,15.02,93.1-16.81,139.28,30.05c14.72,14.52,22.96,34.96,22.66,55.87-.09,9.42.47,44.15.25,58.72.09,7.19-1.84,12.41-9.69,10.48-10.8-2.47-25.72-24.51-27.17-26.06-.27-.1-.04.84,0,1.54,2.48,21.57-19.04,24.72-26.37,5.46-.37-.97-.57-1.1-.8-.13-.55,2.05-2.49,9.26-5.99,11.58-6,3.51-8.47-7.14-10-10.87-.51-1.55-.62-1.79-1.09-1.08-1.48,2.44-4.84,7.08-7.57,9.67-15.21,15.34-24.16-2.07-26.87-12.83-.13-.35-.2-.5-.45-.1-2.22,3.44-15.31,31.49-28.27,26.86-7.32-1.49-9.56-11.48-9.56-19.78v-.14Z"/>
    <path class="st1" d="M39.01,128.65c36.32,5.37,53.37,8.48,90.07-2.54"/>
    <path class="st1" d="M104.92,10.35c.63,13.01,2.43,33.62-.16,46.04-1.73,7.74-3.24,16.49-11.11,18.67-7.87,2.88-14.21,2.25-21.63-1.56-3.24-1.62-6.39-3.43-8.62-6.32-3.01-4.14-5.1-11.9-6.27-17.23-2.18-10.66-1.84-25.59-2.03-35.75"/>
    <path class="st1" d="M84,8.28c-.25,3.96-2.93,47-3.15,50.63"/>
    <path class="st1" d="M68.09,47.9c.85,6.13,6.91,11.05,12.89,11.67,6.64.27,11.64-5.36,14.49-10.86"/>
    <path class="st1" d="M12.05,61.5c2.41-3.16,12.25-11.48,20.63-12.27,5.06-.63,13.09-1.23,18.46.53,3.85,1.51,6.66,6.78,8.48,10.16"/>
    <path class="st1" d="M99.15,73.13c4.15.68,9.74,1.54,12.02,4.82,2.32,3.31-.23,8.62-3.08,10.93-6.25,5.5-15.05,5.81-22.81,5.73-8.92-.06-18.5-.17-27.29-1.94-4.9-1.12-10.6-4.6-11.97-9.59-1.17-4.87,3.98-8.11,7.95-10.1,3.63-1.81,7.9-2.18,11.73-2.49"/>
    <path class="st1" d="M89.67,82.88c-.64,8-17.91,7.53-16.52-1.26,1.96-6.84,15.97-6.33,16.53,1.08v.18Z"/>
  </g>
</svg>