<svg xmlns="http://www.w3.org/2000/svg" viewBox="-2 -2 129.007 72.491"><g id="kama"><path d="M35.833 8.993C66.5 8.993 74.166 6.32 92.5 2.99s30.333 10.668 30 32v1c0 16.57-13.333 30-30 30-23.667 0-59-3.332-59-3.332" fill="#FFF" stroke="#000" stroke-width="5" stroke-linecap="round" stroke-linejoin="round" stroke-miterlimit="10"/><path d="M85.853 14.888c-9.406 1.537-24.197 2.773-45.286 2.814C38.01 9.9 30.68 4.262 22.023 4.262 11.24 4.26 2.5 13 2.5 23.783v22.684c0 10.782 8.74 19.523 19.523 19.523 10.782 0 19.523-8.74 19.523-19.522v-2.015h20.62c30.667 0 40.34-8.797 40.34-17.55s-7.087-13.58-16.653-12.015z" fill="#FFF" stroke="#000" stroke-width="5" stroke-linecap="round" stroke-linejoin="round" stroke-miterlimit="10"/><path d="M30.69 48.28c-9.147-5.303-14.594-15.825-12.913-26.91" fill="none" stroke="#000" stroke-width="4" stroke-linecap="round" stroke-linejoin="round" stroke-miterlimit="10"/><path d="M53.43 57.308c-2.475-3.713-3.702-8.038-3.235-12.515M62.763 57.308c-2.475-3.713-3.702-8.038-3.235-12.515" fill="none" stroke="#000" stroke-width="3" stroke-linecap="round" stroke-linejoin="round" stroke-miterlimit="10"/><circle cx="75.464" cy="52.087" r="2.631"/><circle cx="88.536" cy="51.229" r="2.631"/></g><style>path{stroke-width:2;vector-effect:non-scaling-stroke}</style></svg>