<svg xmlns="http://www.w3.org/2000/svg" viewBox="-2 -2 129.007 72.491" preserveAspectRatio="none"><g id="kon"><path d="M24.5 43.616s4.5-7.624 14.124-7.624c11.626 0 16 8.46 33 8.46 12.626 0 30.126-4.962 30.126-17.55 0-8.753-6.33-13.58-15.897-12.016-9.406 1.537-16.728 12.23-33.728 6.73-12.275-3.97-21.446-15.75-30.102-15.75C11.24 5.866 2.5 13.002 2.5 23.784v22.684c0 10.782 8.74 19.523 19.523 19.523 6.977 0 18.102-2.874 18.102-11.874C53 62.24 64.625 65.99 84.25 65.99c24.125 0 38.25-13.43 38.25-30v-1c.333-21.333-11.667-35.333-30-32s-22.25 11-54.125 11" fill="#FFF" stroke="#000" stroke-width="5" stroke-linecap="round" stroke-linejoin="round" stroke-miterlimit="10"/><circle cx="70.431" cy="54.119" r="2.349"/><circle cx="83.566" cy="53.742" r="2.349"/><circle cx="95.699" cy="50.367" r="2.349"/><circle cx="105.457" cy="42.459" r="2.349"/></g><style>ellipse,polygon,polyline,rect,circle,line,path{stroke-width:2;vector-effect:non-scaling-stroke}</style></svg>