<?xml version="1.0" encoding="iso-8859-1"?>
<!-- Generator: Adobe Illustrator 19.2.0, SVG Export Plug-In . SVG Version: 6.00 Build 0)  -->
<!DOCTYPE svg PUBLIC "-//W3C//DTD SVG 1.1//EN" "http://www.w3.org/Graphics/SVG/1.1/DTD/svg11.dtd">
<svg version="1.1" xmlns="http://www.w3.org/2000/svg" xmlns:xlink="http://www.w3.org/1999/xlink" x="0px" y="0px"
	 viewBox="0 0 132.931 132.932" style="enable-background:new 0 0 132.931 132.932;" xml:space="preserve">
<g id="lon">
	<g id="lon_1_">
		<path style="fill:#FFFFFF;stroke:#000000;stroke-width:5;stroke-miterlimit:10;" d="M122.5,48.182v52.25c0,16.569-13.431,30-30,30
			h-60c-16.569,0-30-13.431-30-30v-60c0-16.569,13.431-30,30-30h46"/>
		<g>
			<g>
				<path style="fill:#FFFFFF;" d="M121.704,30.721c9.989,14.769,12.01,28.471,3.27,37.211
					c-10.674,10.674-22.038-10.724-49.38-10.724c0-27.342-21.399-38.705-10.724-49.38c8.644-8.644,22.663-6.432,37.304,3.267"/>
				<path d="M123.373,29.618c0.56,0.79,1.124,1.588,1.688,2.452c0.551,0.85,1.082,1.694,1.593,2.565
					c1.02,1.736,1.987,3.519,2.816,5.381c1.654,3.716,2.958,7.695,3.354,11.941c0.19,2.117,0.14,4.292-0.239,6.449
					c-0.354,2.158-1.088,4.28-2.108,6.247c-1.063,1.957-2.369,3.727-3.981,5.281c-0.292,0.285-0.885,0.811-1.325,1.129
					c-0.471,0.363-0.99,0.69-1.527,0.994c-1.091,0.587-2.32,1.031-3.576,1.207c-2.541,0.381-4.9-0.182-6.918-0.886
					c-2.04-0.722-3.865-1.632-5.635-2.542c-3.528-1.831-6.844-3.725-10.279-5.319c-3.422-1.607-6.944-2.896-10.559-3.816
					c-3.614-0.923-7.333-1.418-11.082-1.494l-0.041-0.001c-1.09-0.022-1.958-0.914-1.959-1.999v0
					c-0.076-3.747-0.571-7.466-1.493-11.079c-0.92-3.615-2.208-7.136-3.814-10.557c-1.594-3.434-3.488-6.75-5.318-10.276
					c-0.911-1.77-1.82-3.593-2.543-5.633c-0.704-2.017-1.269-4.374-0.891-6.914c0.174-1.255,0.617-2.485,1.203-3.577
					c0.597-1.088,1.338-2.035,2.129-2.864l0.148-0.156l0.074-0.078l0.121-0.117l0.267-0.249l0.54-0.502
					c0.445-0.365,0.902-0.78,1.346-1.087c0.877-0.678,1.842-1.241,2.817-1.769c1.982-1.002,4.112-1.704,6.268-2.036
					c2.155-0.355,4.322-0.39,6.431-0.196c4.229,0.407,8.205,1.679,11.93,3.302c1.867,0.813,3.657,1.762,5.402,2.764
					c1.745,1.005,3.434,2.089,5.066,3.243c0.902,0.638,1.117,1.886,0.479,2.789c-0.611,0.865-1.784,1.098-2.675,0.554l-0.013-0.008
					c-1.619-0.993-3.259-1.939-4.928-2.811c-1.669-0.873-3.377-1.649-5.098-2.354c-3.441-1.397-7.023-2.403-10.572-2.65
					c-1.77-0.148-3.529-0.097-5.217,0.199c-1.694,0.275-3.3,0.832-4.788,1.596c-0.729,0.41-1.454,0.831-2.113,1.356
					c-0.358,0.248-0.611,0.505-0.925,0.75l-0.525,0.497L66.64,9.595l-0.166,0.172c-1.128,1.159-1.837,2.386-2.036,3.723
					c-0.223,1.337,0.066,2.915,0.633,4.555c0.565,1.641,1.376,3.326,2.238,5.022c1.751,3.391,3.656,6.888,5.263,10.563
					c1.616,3.669,2.986,7.513,3.844,11.487c0.86,3.973,1.248,8.046,1.179,12.09v0l-2-2c4.045-0.069,8.119,0.32,12.093,1.18
					c3.975,0.858,7.82,2.229,11.49,3.845c3.675,1.608,7.173,3.513,10.565,5.265c1.697,0.862,3.382,1.672,5.023,2.237
					c1.64,0.567,3.217,0.855,4.554,0.63c1.34-0.205,2.556-0.903,3.731-2.05c1.201-1.145,2.253-2.534,3.06-3.992
					c0.78-1.486,1.361-3.083,1.651-4.77c0.312-1.681,0.375-3.432,0.232-5.197c-0.234-3.538-1.264-7.11-2.686-10.537
					c-0.719-1.714-1.511-3.414-2.401-5.074c-0.438-0.831-0.91-1.657-1.383-2.465c-0.461-0.794-0.968-1.623-1.489-2.454
					c-0.586-0.937-0.302-2.171,0.635-2.757c0.902-0.565,2.081-0.322,2.691,0.535L123.373,29.618z"/>
			</g>
			<g>
				
					<ellipse transform="matrix(0.7071 -0.7071 0.7071 0.7071 15.3952 84.1706)" style="fill:#FFFFFF;" cx="109.301" cy="23.502" rx="22" ry="13.5"/>
				<path d="M120.387,34.687c0,0-0.326,0.299-0.936,0.858c-0.559,0.538-1.622,1.432-2.947,2.433
					c-1.331,0.968-2.997,2.087-5.07,3.117c-2.079,1.008-4.55,1.973-7.458,2.441c-0.725,0.118-1.489,0.165-2.26,0.219
					c-0.789-0.025-1.581,0.029-2.41-0.107c-1.639-0.155-3.39-0.666-4.981-1.645c-0.404-0.235-0.802-0.483-1.153-0.81l-0.545-0.465
					l-0.271-0.236c0.089,0.098-0.16-0.167-0.142-0.15l-0.024-0.028l-0.048-0.055l-0.095-0.111c-0.256-0.304-0.504-0.573-0.771-0.912
					c-0.293-0.441-0.578-0.897-0.851-1.36c-0.913-1.767-1.317-3.675-1.401-5.577c-0.139-3.82,1.023-7.466,2.622-10.831
					c1.672-3.342,3.907-6.412,6.519-9.106c0.757-0.714,1.256-1.245,2.005-1.894c0.738-0.621,1.47-1.283,2.231-1.818
					c1.479-1.162,3.108-2.127,4.758-3.028c3.352-1.701,7.043-2.892,10.956-2.805c1.944,0.062,3.943,0.466,5.765,1.384
					c0.44,0.262,0.877,0.523,1.312,0.783c0.406,0.304,0.79,0.641,1.175,0.966l0.143,0.124l0.071,0.062l0.036,0.031
					c-0.016-0.022,0.281,0.305,0.166,0.179l0.188,0.222l0.374,0.442c0.13,0.163,0.235,0.256,0.384,0.476l0.442,0.689
					c0.637,0.957,0.906,1.794,1.236,2.673c0.237,0.879,0.46,1.751,0.523,2.601c0.14,0.859,0.081,1.672,0.087,2.483
					c-0.068,0.79-0.131,1.571-0.264,2.308c-0.526,2.96-1.558,5.437-2.625,7.508c-1.086,2.066-2.25,3.713-3.251,5.025
					c-1.026,1.292-1.876,2.269-2.5,2.89c-0.611,0.634-0.936,0.972-0.936,0.972L120.387,34.687z M117.256,31.457
					c0,0,0.279-0.306,0.804-0.879c0.539-0.56,1.262-1.44,2.131-2.589c0.844-1.165,1.818-2.622,2.695-4.396
					c0.857-1.772,1.649-3.86,2.009-6.137c0.092-0.567,0.118-1.141,0.165-1.723c-0.032-0.566,0.024-1.165-0.082-1.72
					c-0.035-0.582-0.195-1.115-0.33-1.664c-0.195-0.492-0.407-1.094-0.631-1.396c-0.052-0.094-0.101-0.19-0.147-0.29
					c-0.053-0.105-0.228-0.28-0.337-0.418l-0.375-0.441l-0.188-0.222c-0.132-0.143,0.152,0.162,0.116,0.126l-0.02-0.016l-0.04-0.032
					l-0.08-0.065l-0.629-0.54c-0.245-0.141-0.486-0.288-0.727-0.444c-1.028-0.53-2.28-0.827-3.638-0.89
					c-2.745-0.125-5.793,0.779-8.654,2.142c-1.416,0.737-2.84,1.524-4.153,2.512c-0.694,0.461-1.277,0.979-1.908,1.473
					c-0.604,0.485-1.345,1.218-1.89,1.698c-2.363,2.326-4.392,4.991-5.904,7.839c-1.464,2.849-2.398,5.942-2.325,8.779
					c0.041,1.401,0.337,2.743,0.873,3.826c0.138,0.22,0.262,0.444,0.376,0.678c0.214,0.283,0.494,0.598,0.735,0.892l0.094,0.112
					l0.047,0.056l0.023,0.028c0.032,0.037-0.196-0.215-0.089-0.1l0.173,0.14l0.338,0.284c0.208,0.21,0.464,0.357,0.72,0.501
					c0.994,0.611,2.151,0.973,3.353,1.075c0.584,0.11,1.205,0.048,1.793,0.062c0.6-0.061,1.192-0.102,1.771-0.21
					c2.328-0.417,4.423-1.278,6.187-2.193c1.766-0.933,3.204-1.951,4.351-2.829c1.115-0.894,1.91-1.574,2.531-2.198
					c0.597-0.575,0.915-0.881,0.915-0.881L117.256,31.457z"/>
			</g>
		</g>
	</g>
</g>
<g id="Layer_1">
</g>
</svg>
