<?xml version="1.0" encoding="UTF-8"?>
<svg id="Layer_1" xmlns="http://www.w3.org/2000/svg" version="1.1" viewBox="0 0 168 168">
  <!-- Generator: Adobe Illustrator 30.1.0, SVG Export Plug-In . SVG Version: 2.1.1 Build 136)  -->
  <defs>
    <style>
      .st0 {
        fill: none;
        stroke: #000;
        stroke-miterlimit: 10;
      }
    </style>
  </defs>
  <g id="n">
    <path class="st0" d="M15.43,65s-8.75-20.2,9.33-40.93c8.94-10.25,40.54-16.53,53.02-11.13,11.63,5.03,10.39,34.24,10.39,34.24,0,0,28.17-27.78,51.8-3.51,18.42,18.91-9.62,51.67-9.62,51.67,0,0,30.97-9.82,32.75,13.84,3.11,41.22-49.66,48.59-71.3,51.31-16.68,2.1-46.31-1.05-58.45-10.37-18.63-14.3-28.63-47.16-29.22-64.23-.56-15.96,11.3-20.89,11.3-20.89Z"/>
    <path class="st0" d="M81.5,142.77s-6.07-50.96-12.42-67.48c-3.33-8.67-11.82-16.6-18.64-17.79-11.96-2.08-35.01,7.49-35.01,7.49"/>
    <path class="st0" d="M66.4,94.07s-14.86,9.16-26.4,8.89c-8.23-.19-32.89-1.55-32.89-1.55"/>
    <path class="st0" d="M71.76,112.42s-11.01,8.61-16.94,9.57c-10.45,1.69-39.39,3.42-39.39,3.42"/>
  </g>
</svg>