<svg xmlns="http://www.w3.org/2000/svg" viewBox="-2 -2 129.01999999999998 129"><g id="pona" fill="#FFF"><ellipse cx="71.361" cy="40.749" rx="38.75" ry="10.251"/><path d="M12 38.5c-14.5-14.75-4.75-36 11.5-36 13 0 21 12.54 21 25.54 0-11.97 6.5-23.672 18-23.672 12.5 0 18 11.703 18 23.67C80.5 15.04 89.25 2.5 101.75 2.5c11.6 0 20.77 11.52 20.77 24.52l-.02 35.48c0 33.137-26.862 60-60 60s-60-26.863-60-60c0 0-.5-28.25 22-28.25 19.25 0 25.002 10.5 42.253 10.5 16.75 0 25.545-5.542 30.75-9.5" stroke="#000" stroke-width="5" stroke-linecap="round" stroke-linejoin="round" stroke-miterlimit="10"/><path d="M25.002 57.997c9.5-5.5 19.25 6 38 6.416 14.998.334 29.67-9.913 36.75-5.166 9.25 6.2 5.5 37.248-38.5 37.248s-44.35-33.807-36.25-38.498z" stroke="#000" stroke-width="5" stroke-linecap="round" stroke-linejoin="round" stroke-miterlimit="10"/><path d="M36.754 72.604s12 7.615 26.75 7.615 23-7.276 23-7.276" stroke="#000" stroke-width="4" stroke-linecap="round" stroke-linejoin="round" stroke-miterlimit="10"/></g><style>path{stroke-width:2;vector-effect:non-scaling-stroke}</style></svg>