<?xml version="1.0" encoding="iso-8859-1"?>
<!-- Generator: Adobe Illustrator 19.2.0, SVG Export Plug-In . SVG Version: 6.00 Build 0)  -->
<!DOCTYPE svg PUBLIC "-//W3C//DTD SVG 1.1//EN" "http://www.w3.org/Graphics/SVG/1.1/DTD/svg11.dtd">
<svg version="1.1" xmlns="http://www.w3.org/2000/svg" xmlns:xlink="http://www.w3.org/1999/xlink" x="0px" y="0px"
	 viewBox="0 0 125 125" style="enable-background:new 0 0 125 125;" xml:space="preserve">
<g id="musi">
	<g id="ona_4_">
		<circle style="fill:#FFFFFF;stroke:#000000;stroke-width:5;stroke-miterlimit:10;" cx="62.5" cy="62.5" r="60"/>
		<g>
			<path d="M83.599,5.669c0,0-0.008,2.52-0.022,6.93c-0.001,4.41-0.003,10.71-0.004,18.269c0.004,3.78,0.009,7.875,0.013,12.206
				c0.002,2.166,0.005,4.39,0.007,6.664c0.001,1.137,0.002,2.286,0.004,3.446c-0.008,1.157,0.034,2.307-0.058,3.63
				c-0.323,5.125-2.455,10.306-6.23,14.233c-3.752,3.937-9.144,6.453-14.863,6.451l-0.944-0.032l-1.086-0.089
				c-0.703-0.081-1.386-0.189-2.07-0.335c-1.363-0.293-2.693-0.728-3.961-1.289c-2.537-1.121-4.814-2.75-6.694-4.706
				c-3.775-3.92-5.908-9.124-6.229-14.217c-0.052-0.634-0.054-1.278-0.061-1.898c0.001-0.586,0.001-1.168,0.002-1.749
				c0.001-1.16,0.003-2.31,0.004-3.446c0.002-2.274,0.005-4.498,0.007-6.664c0.005-4.331,0.009-8.426,0.013-12.206
				c-0.002-7.56-0.003-13.859-0.004-18.269c-0.014-4.41-0.022-6.93-0.022-6.93h3.5c0,0-0.008,2.52-0.022,6.93
				c-0.001,4.41-0.003,10.71-0.004,18.269c0.004,3.78,0.009,7.875,0.013,12.206c0.002,2.166,0.005,4.39,0.007,6.664
				c0.001,1.137,0.002,2.286,0.004,3.446c0.001,0.58,0.001,1.163,0.002,1.749c0.016,0.55,0.026,1.084,0.081,1.626
				c0.347,4.324,2.24,8.656,5.419,11.846c3.168,3.216,7.536,5.155,12.153,5.095c2.143,0.015,4.466-0.433,6.51-1.316
				c2.07-0.879,3.957-2.183,5.536-3.779c3.179-3.183,5.074-7.539,5.418-11.83c0.105-1.032,0.08-2.229,0.084-3.391
				c0.001-1.16,0.003-2.31,0.004-3.446c0.002-2.274,0.005-4.498,0.007-6.664c0.005-4.331,0.009-8.426,0.013-12.206
				c-0.002-7.56-0.003-13.859-0.004-18.269c-0.014-4.41-0.022-6.93-0.022-6.93H83.599z"/>
		</g>
		<g>
			<path d="M60.5,55.75l0.25-53.083c0.005-0.966,0.792-1.746,1.758-1.742c0.961,0.005,1.737,0.783,1.742,1.742L64.5,55.75
				c0.005,1.105-0.886,2.004-1.991,2.009c-1.105,0.005-2.004-0.886-2.009-1.991V55.75z"/>
		</g>
		<ellipse cx="25.756" cy="54.833" rx="6.417" ry="8"/>
		<ellipse cx="99.244" cy="54.833" rx="6.417" ry="8"/>
		<path style="fill:none;stroke:#000000;stroke-width:4;stroke-linecap:round;stroke-linejoin:round;stroke-miterlimit:10;" d="
			M85.098,91.787c-6.335,3.479-14.255,5.545-22.848,5.545c-8.803,0-16.899-2.169-23.308-5.803"/>
	</g>
</g>
<g id="Layer_1">
</g>
</svg>
