<svg xmlns="http://www.w3.org/2000/svg" viewBox="-2 -2 128.75 128.938"><g id="waso"><path d="M38.5 107.25c16.75 18 36.75 15 49.75 15s34-13.25 34-13.25-22-49-31.75-72.253S67.145 2.5 44.5 2.5s-42 18.356-42 41v42.375c0 14.567 10.074 26.375 22.5 26.375s25.502-12 25.502-26.375" fill="#FFF" stroke="#000" stroke-width="5" stroke-linecap="round" stroke-linejoin="round" stroke-miterlimit="10"/><ellipse transform="rotate(-4.93 26.372 75.535)" cx="26.377" cy="75.559" rx="11.124" ry="12.452" fill="#FFF" stroke="#000" stroke-width="4" stroke-miterlimit="10"/><ellipse transform="rotate(-4.93 27.422 75.167)" cx="27.428" cy="75.192" rx="3.968" ry="4.442"/><path d="M120.5 108.167S89.25 108 66.5 87.5" fill="#FFF" stroke="#000" stroke-width="4" stroke-linecap="round" stroke-linejoin="round" stroke-miterlimit="10"/><path d="M82.667 75.804c.623 4.254-.084 7.645-.084 7.645M91.385 79.394c.565 3.59-.187 6.466-.187 6.466" fill="none" stroke="#000" stroke-width="3" stroke-linecap="round" stroke-linejoin="round" stroke-miterlimit="10"/></g><style>path{stroke-width:2;vector-effect:non-scaling-stroke}</style></svg>