<svg xmlns="http://www.w3.org/2000/svg" viewBox="-2 -2 129 128.667"><g id="poki" stroke="#000" stroke-linecap="round" stroke-linejoin="round" stroke-miterlimit="10"><path d="M11.665 43.834s-1.5 4.666-2 30.333c-.507 25.995 23.653 48 52.832 48s53.508-20.675 52.833-48c-.667-27-2-30.666-2-30.666" fill="#FFF" stroke-width="5"/><path d="M122.5 29.333c0-14.82-26.863-26.833-60-26.833s-60 12.014-60 26.833c0 9.46 10.96 17.773 27.5 22.55v22.95c0 16.57 13.43 30 30 30h5c16.57 0 30-13.43 30-30v-22.95c16.54-4.777 27.5-13.088 27.5-22.55z" fill="#FFF" stroke-width="5"/><ellipse cx="62.5" cy="28.624" rx="36.625" ry="16.625" fill="none" stroke-width="4.5"/><path d="M25.994 29.475c9.16-2.286 22.127-3.712 36.506-3.712 14.283 0 27.174 1.407 36.322 3.667" fill="none" stroke-width="4"/></g><style>path{stroke-width:2;vector-effect:non-scaling-stroke}</style></svg>