<svg xmlns="http://www.w3.org/2000/svg" viewBox="-2 -2 129 129"><g id="jan"><path d="M115.5 41c0 16.57-13.43 30-30 30h-46c-16.57 0-30-13.43-30-30v-8.5c0-16.57 13.43-30 30-30h46c16.57 0 30 13.43 30 30V41z" fill="#FFF" stroke="#000" stroke-width="5" stroke-miterlimit="10"/><path d="M68.673 22.084c1.747 2.964 2.783 6.66 2.783 10.666 0 18.417-20.08 17.667-20.08 17.667A7.375 7.375 0 0 1 44 43.042V29.25c0-10.217 8.283-18.5 18.5-18.5S81 19.033 81 29.25V39.5c0 3.75 2.5 8.083 11.73 10.825 16.77 4.842 29.77 19.98 29.77 38.487V92.5c0 16.57-15.433 30-32 30h-56c-16.568 0-32-13.43-32-30v-3.688c0-21.953 18.25-37.312 42-42.062" fill="#FFF" stroke="#000" stroke-width="5" stroke-linecap="round" stroke-linejoin="round" stroke-miterlimit="10"/><circle cx="56.666" cy="31.459" r="3.375"/><path fill="none" stroke="#000" stroke-width="3" stroke-linecap="round" stroke-linejoin="round" stroke-miterlimit="10" d="M41.167 96.347L72.81 68.164M52.19 106.164L83.832 77.98M72.81 106.164L41.168 77.98M83.833 96.347L52.19 68.164"/></g><style>path{stroke-width:2;vector-effect:non-scaling-stroke}</style></svg>