<?xml version="1.0" encoding="iso-8859-1"?>
<!-- Generator: Adobe Illustrator 19.2.0, SVG Export Plug-In . SVG Version: 6.00 Build 0)  -->
<!DOCTYPE svg PUBLIC "-//W3C//DTD SVG 1.1//EN" "http://www.w3.org/Graphics/SVG/1.1/DTD/svg11.dtd">
<svg version="1.1" xmlns="http://www.w3.org/2000/svg" xmlns:xlink="http://www.w3.org/1999/xlink" x="0px" y="0px"
	 viewBox="0 0 125 125.122" style="enable-background:new 0 0 125 125.122;" xml:space="preserve">
<g id="sinpin">
	<g id="sinpin_1_">
		<path style="fill:#FFFFFF;stroke:#000000;stroke-width:5;stroke-miterlimit:10;" d="M62.5,2.622"/>
		<path style="fill:#FFFFFF;stroke:#000000;stroke-width:5;stroke-linecap:round;stroke-linejoin:round;stroke-miterlimit:10;" d="
			M122.5,19.684v42.937c0,33.137-26.863,60-60,60s-60-26.863-60-60V19.684"/>
		<g>
			<ellipse style="fill:#FFFFFF;" cx="62.5" cy="19.684" rx="60" ry="17.187"/>
			<path d="M120.01,19.903c0,0-0.022-0.254-0.066-0.747c-0.005-0.165-0.038-0.168-0.059-0.213c-0.022-0.042-0.038-0.088-0.046-0.143
				c0.007-0.042-0.087-0.19-0.126-0.293c-0.06-0.116-0.081-0.243-0.186-0.378c-0.583-1.088-2.335-2.788-5.265-4.33
				c-2.917-1.548-6.842-3.039-11.526-4.274C98.053,8.28,92.627,7.228,86.639,6.47C80.654,5.7,74.107,5.204,67.169,5.054
				C60.255,4.897,52.884,5.07,45.368,5.72C37.845,6.374,30.09,7.485,22.504,9.459c-3.773,1.008-7.534,2.224-10.935,3.916
				c-1.689,0.843-3.292,1.819-4.561,2.94c-1.28,1.127-2.009,2.387-2.008,3.37c-0.016-0.405,0.001-0.058-0.001-0.123l0.009,0.095
				l0.018,0.191l0.035,0.381c0.006,0.169,0.04,0.144,0.057,0.192c0.019,0.035,0.033,0.069,0.042,0.106
				c-0.01,0.047,0.088,0.219,0.146,0.353c0.057,0.14,0.117,0.283,0.225,0.427c0.319,0.583,0.893,1.168,1.494,1.729
				c1.271,1.112,2.876,2.08,4.567,2.913c3.403,1.674,7.166,2.872,10.938,3.863c7.586,1.936,15.337,3.022,22.854,3.648
				c7.53,0.638,14.84,0.738,21.788,0.621c6.913-0.125,13.467-0.598,19.446-1.346c5.984-0.737,11.408-1.766,16.091-2.988
				c4.684-1.213,8.611-2.685,11.53-4.218c2.932-1.525,4.688-3.213,5.277-4.294c0.607-1.076,0.419-1.537,0.484-1.55L120.01,19.903z
				 M125,19.684c0,0-0.014,0.381-0.09,1.117c-0.034,0.368-0.173,0.792-0.308,1.309c-0.169,0.486-0.401,1.049-0.718,1.607
				c-1.279,2.289-3.851,4.486-7.237,6.301c-6.804,3.643-17,6.376-29.352,8.004c-6.181,0.815-12.888,1.346-20.02,1.525
				c-7.094,0.201-14.616-0.047-22.355-0.727c-7.741-0.703-15.726-1.86-23.72-3.976c-3.991-1.088-7.993-2.38-11.89-4.33
				c-1.943-0.987-3.87-2.13-5.664-3.722c-0.879-0.831-1.758-1.724-2.444-2.929c-0.186-0.277-0.338-0.598-0.478-0.93
				c-0.142-0.336-0.291-0.617-0.399-1.075l-0.154-0.635c-0.043-0.199-0.102-0.467-0.099-0.556l-0.032-0.382l-0.016-0.191
				l-0.008-0.095L0,19.684c0.008-1.549,0.522-3.004,1.215-4.171c0.689-1.202,1.569-2.09,2.45-2.917
				c1.797-1.584,3.726-2.718,5.67-3.695c3.899-1.933,7.902-3.206,11.893-4.277c7.994-2.078,15.975-3.211,23.71-3.886
				C52.691,0.07,60.152-0.105,67.28,0.055c7.106,0.154,13.821,0.662,19.995,1.455c12.344,1.588,22.542,4.267,29.35,7.882
				c3.388,1.799,5.964,3.983,7.248,6.265c0.175,0.257,0.289,0.568,0.414,0.831c0.117,0.288,0.234,0.482,0.317,0.799
				c0.085,0.298,0.155,0.577,0.212,0.831c0.057,0.251,0.11,0.514,0.108,0.599c0.044,0.493,0.066,0.747,0.066,0.747L125,19.684z"/>
		</g>
		<g>
			<path d="M22.375,108.872c0,0-0.03-2.461-0.084-6.767c-0.027-2.153-0.059-4.768-0.096-7.767c-0.009-0.75-0.019-1.524-0.029-2.32
				c-0.005-0.398-0.01-0.802-0.015-1.212l-0.008-0.619l-0.002-0.156l0.007-0.269l0.012-0.314c0.087-1.697,0.058-3.383,0.424-5.437
				c0.211-2.032,0.776-3.973,1.285-6.026c0.356-0.995,0.717-2.006,1.084-3.033c0.168-0.52,0.391-1.022,0.637-1.519
				c0.237-0.501,0.475-1.005,0.716-1.512c1.986-4.022,4.757-7.955,8.317-11.335c3.543-3.388,7.844-6.239,12.623-8.191
				c1.216-0.429,2.412-0.939,3.66-1.296c1.26-0.313,2.512-0.691,3.791-0.944c1.29-0.193,2.581-0.424,3.88-0.577l1.961-0.106
				l0.981-0.051l0.491-0.025l0.245-0.012l0.123-0.006l0.061-0.003c0.077,0-0.085-0.005,0.188,0l3.685,0.195
				c1.298,0.149,2.66,0.383,3.98,0.583c1.302,0.257,2.538,0.632,3.803,0.946c1.248,0.357,2.444,0.867,3.66,1.296
				c4.779,1.952,9.079,4.803,12.623,8.191c3.56,3.38,6.331,7.313,8.317,11.335c0.24,0.508,0.479,1.012,0.716,1.512
				c0.247,0.496,0.469,0.998,0.637,1.519c0.367,1.027,0.729,2.038,1.084,3.033c0.51,2.05,1.075,4.014,1.277,5.966
				c0.36,1.928,0.35,3.809,0.435,5.585c0.023,1.732-0.028,3.292-0.037,4.802c-0.037,2.999-0.07,5.614-0.096,7.767
				c-0.053,4.306-0.084,6.767-0.084,6.767h-4c0,0-0.03-2.461-0.084-6.767c-0.027-2.153-0.059-4.768-0.096-7.767
				c-0.028-1.488-0.017-3.121-0.081-4.752c-0.125-1.58-0.111-3.253-0.467-4.957c-0.194-1.73-0.735-3.459-1.199-5.267
				c-0.328-0.874-0.661-1.763-0.999-2.666c-0.151-0.459-0.355-0.899-0.582-1.333c-0.216-0.439-0.433-0.881-0.652-1.326
				c-1.803-3.527-4.302-6.946-7.437-9.919c-3.134-2.97-6.928-5.459-11.13-7.153c-1.071-0.364-2.119-0.817-3.216-1.123
				c-1.104-0.262-2.217-0.598-3.317-0.811c-1.105-0.151-2.165-0.349-3.306-0.485l-3.686-0.178c0.235,0.007,0.034,0.004,0.073,0.006
				l-0.054,0.003l-0.108,0.006l-0.215,0.011l-0.431,0.022l-0.862,0.042l-1.724,0.08c-1.14,0.132-2.271,0.334-3.406,0.491
				c-1.123,0.217-2.22,0.55-3.329,0.813c-1.097,0.306-2.145,0.758-3.216,1.123c-4.202,1.694-7.996,4.183-11.13,7.153
				c-3.135,2.973-5.633,6.391-7.437,9.919c-0.219,0.445-0.436,0.887-0.652,1.326c-0.227,0.434-0.431,0.875-0.582,1.333
				c-0.338,0.903-0.671,1.792-0.999,2.666c-0.465,1.805-1.005,3.558-1.19,5.208c-0.35,1.579-0.355,3.446-0.478,5.105l-0.02,0.314
				l-0.005,0.078l-0.002,0.039c0.005-0.213,0.001-0.037,0.002-0.074l-0.002,0.156l-0.008,0.619c-0.005,0.41-0.01,0.814-0.015,1.212
				c-0.01,0.797-0.019,1.57-0.029,2.32c-0.037,2.999-0.07,5.614-0.096,7.767c-0.053,4.306-0.084,6.767-0.084,6.767H22.375z"/>
		</g>
		
			<line style="fill:none;stroke:#000000;stroke-width:4;stroke-linecap:round;stroke-linejoin:round;stroke-miterlimit:10;" x1="41.375" y1="82.372" x2="83.625" y2="82.372"/>
		
			<line style="fill:none;stroke:#000000;stroke-width:4.2;stroke-linecap:round;stroke-linejoin:round;stroke-miterlimit:10;" x1="45" y1="96.372" x2="80" y2="96.372"/>
	</g>
</g>
<g id="Layer_1">
</g>
</svg>
