<svg xmlns="http://www.w3.org/2000/svg" viewBox="-2 -2 129 129" preserveAspectRatio="none"><g id="mi" stroke="#000" stroke-miterlimit="10"><path d="M122.5 92.5c0 16.57-13.43 30-30 30h-60c-16.57 0-30-13.43-30-30v-60c0-16.57 13.43-30 30-30h60c16.57 0 30 13.43 30 30v60z" fill="#FFF" stroke-width="5"/><circle cx="62.5" cy="62.5" r="29" fill="#FFF" stroke-width="5" stroke-linecap="round" stroke-linejoin="round"/><path d="M105 87.5a5 5 0 0 1-5 5H25a5 5 0 0 1-5-5v-50a5 5 0 0 1 5-5h75a5 5 0 0 1 5 5v50z" fill="none" stroke-width="4"/></g><style>ellipse,polygon,polyline,rect,circle,line,path{stroke-width:2;vector-effect:non-scaling-stroke}</style></svg>