<svg xmlns="http://www.w3.org/2000/svg" viewBox="-2 -2 129.199 129"><g id="luka" stroke="#000" stroke-miterlimit="10"><path d="M72.8 17.5c0-8.284 11.17-15 24.95-15 20.75 0 24.95 6.716 24.95 15s-11.17 15-24.95 15c13.78 0 24.95 3.5 24.95 15 0 11.667-11.17 15-24.95 15 13.78 0 24.95 3.5 24.95 15 0 12.333-11.17 15-24.95 15 13.78 0 24.95 6.716 24.95 15s-5.033 15-24.95 15c-13.78 0-24.95-6.716-24.95-15" fill="#FFF" stroke-width="5" stroke-linejoin="round"/><path d="M97.75 92.5c0 16.57-13.43 30-30 30H34.5c-16.568 0-30-13.43-30-30l-2-60c0-16.57 13.43-30 30-30h35.25c16.57 0 30 13.43 30 30v60z" fill="#FFF" stroke-width="5"/><path d="M2.5 40C21 42.75 36.375 40 45 40s16 5.163 16 14-6.64 15.49-16 16c-20.625 1.126-29.958.92-41.333-.833" fill="none" stroke-width="4"/><path d="M3.333 55s17.43 1.667 38.833-.833" fill="none" stroke-width="4" stroke-linecap="round" stroke-linejoin="round"/><path fill="none" stroke-width="3.5" stroke-linejoin="round" d="M35.5 70.497l1.335 52.67M33.833 2.5l.92 37.994"/></g><style>path{stroke-width:2;vector-effect:non-scaling-stroke}</style></svg>