<svg xmlns="http://www.w3.org/2000/svg" viewBox="-2 -2 129.03199999999998 129.132"><g id="telo"><circle cx="93.23" cy="28.007" r="24.125" fill="#FFF"/><circle cx="97.707" cy="56.132" r="24.125" fill="#FFF"/><path d="M114.25 74.008c9.25 6.5 8.25 16 8.25 24 0 10.25-9.75 24.624-30 24.624-29 0-30.278-10.375-56.5-10.375-14.972 0-23.25 3.5-33.5 10.25v-77c0-18.778 18.297-34 40.25-34 11.156 0 22.417 6.274 28.458 10.262 6.042 3.987 8.542 5.487 15.916 5.487 6.876 0 9.376-3.302 9.376-7.375s-3.75-7.375-8.376-7.375c-5.375 0-11.375 5.25-11.375 12.5" fill="#FFF" stroke="#000" stroke-width="5" stroke-linecap="round" stroke-linejoin="round" stroke-miterlimit="10"/><path d="M114.75 38.007c6.58 6.394 8.872 17.36 5.615 26.58-4.46 12.627-19.86 18.107-31.947 17.282-12.673-.866-16.923-4.116-31.668-4.362-12.014-.2-44.414 7.774-54.165 45.022 7-56.25 20.466-75.108 45.417-79.27 16.5-2.752 25.964 3.753 37.672 6.363 11.826 2.635 25.48-2.16 29.942-14.788s-2.16-26.482-14.788-30.943-26.482 2.16-30.943 14.788" fill="none" stroke="#000" stroke-width="5" stroke-linecap="round" stroke-linejoin="round" stroke-miterlimit="10"/></g><style>path{stroke-width:2;vector-effect:non-scaling-stroke}</style></svg>