<?xml version="1.0" encoding="iso-8859-1"?>
<!-- Generator: Adobe Illustrator 19.2.0, SVG Export Plug-In . SVG Version: 6.00 Build 0)  -->
<!DOCTYPE svg PUBLIC "-//W3C//DTD SVG 1.1//EN" "http://www.w3.org/Graphics/SVG/1.1/DTD/svg11.dtd">
<svg version="1.1" xmlns="http://www.w3.org/2000/svg" xmlns:xlink="http://www.w3.org/1999/xlink" x="0px" y="0px"
	 viewBox="0 0 125 124.733" style="enable-background:new 0 0 125 124.733;" xml:space="preserve">
<g id="utala">
	<g id="utala_1_">
		<path style="fill:#FFFFFF;stroke:#000000;stroke-width:5;stroke-miterlimit:10;" d="M122.5,78.721v10.521
			c0,18.22-13.431,32.991-30,32.991h-60c-16.569,0-30-14.77-30-32.991V78.721c0-49.488,60-75.988,60-75.988
			S122.5,29.233,122.5,78.721z"/>
		<g>
			<path d="M115.648,109.168L96.246,80.73h2.877l-17.397,25.546c-0.618,0.908-1.856,1.143-2.764,0.524
				c-0.211-0.143-0.389-0.326-0.524-0.524L61.042,80.73h2.877l-17.397,25.546c-0.618,0.908-1.856,1.143-2.764,0.524
				c-0.211-0.143-0.389-0.326-0.524-0.524L25.837,80.73h2.877L9.396,109.047c-0.622,0.912-1.867,1.148-2.779,0.525
				s-1.148-1.867-0.525-2.779c0.003-0.005,0.013-0.019,0.017-0.024l19.728-28.033c0.559-0.794,1.656-0.985,2.451-0.426
				c0.168,0.118,0.314,0.268,0.426,0.426l17.808,25.261h-3.288l17.808-25.261c0.56-0.794,1.658-0.984,2.453-0.424
				c0.168,0.118,0.312,0.266,0.424,0.424l17.808,25.261h-3.288l17.808-25.261c0.559-0.794,1.656-0.985,2.451-0.426
				c0.168,0.118,0.314,0.268,0.426,0.426l19.812,28.154c0.636,0.903,0.419,2.151-0.485,2.787c-0.903,0.636-2.151,0.419-2.787-0.485
				C115.661,109.187,115.651,109.173,115.648,109.168z"/>
		</g>
		
			<circle style="fill:none;stroke:#000000;stroke-width:3.5;stroke-linecap:round;stroke-linejoin:round;stroke-miterlimit:10;" cx="62.542" cy="45.398" r="21.25"/>
		<g>
			<path d="M48.429,29.43c0,0,0.492,0.448,1.352,1.233c0.847,0.798,2.081,1.914,3.52,3.295c1.436,1.384,3.135,2.976,4.913,4.723
				c1.775,1.75,3.669,3.616,5.563,5.482c1.867,1.893,3.734,3.786,5.485,5.561c1.756,1.769,3.339,3.477,4.724,4.911
				c2.746,2.894,4.524,4.876,4.524,4.876c0.485,0.54,0.44,1.371-0.1,1.856c-0.503,0.451-1.263,0.439-1.756,0
				c0,0-1.982-1.778-4.876-4.524c-1.435-1.385-3.142-2.968-4.911-4.724c-1.775-1.75-3.668-3.618-5.561-5.485
				c-1.866-1.894-3.733-3.788-5.482-5.563c-1.747-1.778-3.339-3.477-4.723-4.913c-1.381-1.439-2.497-2.673-3.295-3.52
				c-0.785-0.86-1.233-1.352-1.233-1.352c-0.489-0.536-0.451-1.367,0.085-1.856C47.163,28.969,47.933,28.98,48.429,29.43z"/>
		</g>
		<g>
			<path d="M78.51,31.286c0,0-0.448,0.492-1.232,1.353c-0.798,0.847-1.911,2.084-3.294,3.521c-1.385,1.435-2.972,3.139-4.723,4.912
				c-1.749,1.776-3.616,3.67-5.482,5.564c-1.894,1.866-3.788,3.732-5.564,5.482c-1.774,1.751-3.477,3.339-4.912,4.723
				c-1.438,1.382-2.674,2.496-3.521,3.294c-0.861,0.784-1.353,1.233-1.353,1.233c-0.536,0.489-1.367,0.45-1.856-0.086
				c-0.46-0.505-0.449-1.274,0-1.77c0,0,0.448-0.492,1.233-1.353c0.798-0.847,1.912-2.083,3.294-3.521
				c1.385-1.436,2.972-3.138,4.723-4.912c1.749-1.776,3.615-3.67,5.482-5.564c1.894-1.866,3.788-3.732,5.564-5.482
				c1.773-1.752,3.477-3.339,4.912-4.723c1.438-1.382,2.674-2.496,3.521-3.294c0.861-0.784,1.353-1.232,1.353-1.232
				c0.536-0.489,1.367-0.45,1.856,0.086C78.97,30.021,78.959,30.79,78.51,31.286z"/>
		</g>
	</g>
</g>
<g id="Layer_1">
</g>
</svg>
