<svg xmlns="http://www.w3.org/2000/svg" viewBox="-2 -2 129 67.12299999999999"><g id="la" stroke="#000" stroke-linecap="round" stroke-linejoin="round" stroke-miterlimit="10"><path d="M96.43 56.58c-9.714 2.87-20.898 4.044-33.09 4.044-12.486 0-24.285-1.598-34.15-4.612L10.72 38.854l5-19.75 94.5-.25 4 17.25L96.43 56.58z" fill="#FFF" stroke-width="5"/><path d="M32.17 36.917V47.95c0 7-5.675 12.673-12.673 12.673C8.58 60.623 2.5 43.608 2.5 32.5c0-16.57 13.43-30 30-30h60c16.57 0 30 13.43 30 30 0 11.463-6.247 28.123-16.997 28.123-7 0-12.672-5.674-12.672-12.672V37.334" fill="#FFF" stroke-width="5"/><path d="M53.056 40.5c0 6.696-5.23 12.125-10.445 12.125s-8.443-8.43-8.443-15.128" fill="none" stroke-width="3.5"/><path d="M71.944 40.5c0 6.696-4.228 12.125-9.444 12.125s-9.444-5.43-9.444-12.126" fill="none" stroke-width="4"/><path d="M90.833 37.75c0 6.697-3.228 14.875-8.444 14.875-5.217 0-10.446-5.43-10.446-12.126" fill="none" stroke-width="3.5"/><path d="M18.465 31.188c11.09 6.506 26.96 9.583 44.597 9.583s33.508-3.076 44.597-9.582" fill="#FFF" stroke-width="4"/></g><style>path{stroke-width:2;vector-effect:non-scaling-stroke}</style></svg>