<?xml version="1.0" encoding="UTF-8" standalone="no"?>
<svg width="32px" height="64px" viewBox="0 0 32 64" version="1.1" xmlns="http://www.w3.org/2000/svg" xmlns:xlink="http://www.w3.org/1999/xlink">
    <!-- Generator: Sketch 40 (33762) - http://www.bohemiancoding.com/sketch -->
    <title>aztec</title>
    <desc>Created with Sketch.</desc>
    <defs></defs>
    <g id="Page-1" stroke="none" stroke-width="1" fill="none" fill-rule="evenodd">
        <g id="aztec" fill="#000000">
            <path d="M0,28 L20,28 L20,16 L16,16 L16,24 L4,24 L4,4 L32,4 L32,32 L28,32 L28,8 L8,8 L8,20 L12,20 L12,12 L24,12 L24,32 L0,32 L0,28 Z M12,36 L32,36 L32,40 L16,40 L16,64 L0,64 L0,60 L12,60 L12,36 Z M28,48 L24,48 L24,60 L32,60 L32,64 L20,64 L20,44 L32,44 L32,56 L28,56 L28,48 Z M0,36 L8,36 L8,56 L0,56 L0,52 L4,52 L4,40 L0,40 L0,36 Z" id="Combined-Shape"></path>
        </g>
    </g>
</svg>