<?xml version="1.0" encoding="UTF-8" standalone="no"?>
<svg width="360px" height="360px" viewBox="0 0 360 360" version="1.1" xmlns="http://www.w3.org/2000/svg" xmlns:xlink="http://www.w3.org/1999/xlink">
    <!-- Generator: Sketch 40.1 (33804) - http://www.bohemiancoding.com/sketch -->
    <title>floating-cogs</title>
    <desc>Created with Sketch.</desc>
    <defs></defs>
    <g id="Page-1" stroke="none" stroke-width="1" fill="none" fill-rule="evenodd">
        <g id="floating-cogs" fill="#000000">
            <path d="M0,52.7017059 L8.37944973,47.8638284 C7.48686238,45.4103567 7,42.7620347 7,40 C7,37.2379653 7.48686238,34.5896433 8.37944973,32.1361716 L0,27.2982941 L0,52.7017059 L0,52.7017059 Z M-6.82121026e-13,13.541756 C6.50122036,6.17592082 15.6728833,1.22283956 26,0.19750097 L26,17.3466011 C20.5665144,18.2994301 15.7894941,21.1593724 12.3844893,25.210878 L-6.39488462e-14,18.0606898 L-6.39488462e-14,13.541756 L-6.82121026e-13,13.541756 Z M-6.82121026e-13,66.458244 C6.50122036,73.8240792 15.6728833,78.7771604 26,79.802499 L26,62.6533989 C20.5665144,61.7005699 15.7894941,58.8406276 12.3844893,54.789122 L-6.39488462e-14,61.9393102 L-6.39488462e-14,66.458244 L-6.82121026e-13,66.458244 Z M34,79.802499 C45.7133246,78.6395293 55.940184,72.4236071 62.4699651,63.3653453 L47.6155107,54.789122 C44.2105059,58.8406276 39.4334856,61.7005699 34,62.6533989 L34,79.802499 L34,79.802499 L34,79.802499 Z M66.4759555,56.4406005 C68.7399262,51.4254909 70,45.8598984 70,40 C70,34.1401016 68.7399262,28.5745091 66.4759555,23.5593995 L51.6205503,32.1361716 C52.5131376,34.5896433 53,37.2379653 53,40 C53,42.7620347 52.5131376,45.4103567 51.6205503,47.8638284 L66.4759555,56.4406005 L66.4759555,56.4406005 L66.4759555,56.4406005 Z M62.4699651,16.6346547 C55.940184,7.57639285 45.7133246,1.36047066 34,0.19750097 L34,17.3466011 C39.4334856,18.2994301 44.2105059,21.1593724 47.6155107,25.210878 L62.4699651,16.6346547 L62.4699651,16.6346547 L62.4699651,16.6346547 Z M0,50.3923048 L5.97637855,46.9418411 C5.34064159,44.7378193 5,42.4086902 5,40 C5,37.5913098 5.34064159,35.2621807 5.97637855,33.0581589 L0,29.6076952 L0,50.3923048 L0,50.3923048 Z M0.502777966,16.0415677 C6.27534246,8.94315707 14.5588345,3.96855211 24,2.47100693 L24,15.7246464 C19.3440177,16.8715817 15.2014409,19.3230415 11.9821242,22.6691713 L0.502777966,16.0415677 L0.502777966,16.0415677 L0.502777966,16.0415677 Z M0.502777966,63.9584323 C6.27534246,71.0568429 14.5588345,76.0314479 24,77.5289931 L24,64.2753536 C19.3440177,63.1284183 15.2014409,60.6769585 11.9821242,57.3308287 L0.502777966,63.9584323 L0.502777966,63.9584323 L0.502777966,63.9584323 Z M36,77.5289931 C45.4411655,76.0314479 53.7246575,71.0568429 59.497222,63.9584323 L48.0178758,57.3308287 C44.7985591,60.6769585 40.6559823,63.1284183 36,64.2753536 L36,77.5289931 L36,77.5289931 L36,77.5289931 Z M65.5051492,53.5707042 C67.1169891,49.3561622 68,44.7812002 68,40 C68,35.2187998 67.1169891,30.6438378 65.5051492,26.4292958 L54.0236214,33.0581589 C54.6593584,35.2621807 55,37.5913098 55,40 C55,42.4086902 54.6593584,44.7378193 54.0236214,46.9418411 L65.5051492,53.5707042 L65.5051492,53.5707042 L65.5051492,53.5707042 Z M59.497222,16.0415677 C53.7246575,8.94315707 45.4411655,3.96855211 36,2.47100693 L36,15.7246464 C40.6559823,16.8715817 44.7985591,19.3230415 48.0178758,22.6691713 L59.497222,16.0415677 L59.497222,16.0415677 L59.497222,16.0415677 Z M0,85.016421 L4.62370975,80.7512683 C6.93993892,82.1966654 9.38832223,83.4500792 11.9465904,84.4892405 L10.7455352,94.7286542 L13.4084934,95.5939017 L18.4561198,86.6027898 C21.0841149,87.2515979 23.7973935,87.6839215 26.5759513,87.8797565 L28.6,98 L31.4,98 L33.4240487,87.8797565 C36.2026065,87.6839215 38.9158851,87.2515979 41.5438802,86.6027898 L46.5915066,95.5939017 L49.2544648,94.7286542 L48.0534096,84.4892405 C50.6116778,83.4500792 53.0600611,82.1966654 55.3762903,80.7512683 L62.9589208,87.745885 L65.2241684,86.1000863 L60.912712,76.7220257 C63.0103458,74.9544097 64.9544097,73.0103458 66.7220257,70.912712 L76.1000863,75.2241684 L77.745885,72.9589208 L70.7512683,65.3762903 C72.1966654,63.0600611 73.4500792,60.6116778 74.4892405,58.0534096 L84.7286542,59.2544648 L85.5939017,56.5915066 L76.6027898,51.5438802 C77.2515979,48.9158851 77.6839215,46.2026065 77.8797565,43.4240487 L88,41.4 L88,38.6 L77.8797565,36.5759513 C77.6839215,33.7973935 77.2515979,31.0841149 76.6027898,28.4561198 L85.5939017,23.4084934 L84.7286542,20.7455352 L74.4892405,21.9465904 C73.4500792,19.3883222 72.1966654,16.9399389 70.7512683,14.6237097 L77.745885,7.04107916 L76.1000863,4.77583157 L66.7220257,9.08728804 C64.9544097,6.98965424 63.0103458,5.04559031 60.912712,3.27797433 L62.4197233,0 L7.10542736e-15,0 L7.10542736e-15,85.016421 L0,85.016421 Z M0,87.6845511 L4.84128934,83.2186915 C6.44699494,84.1554333 8.10962464,85.0052524 9.82272783,85.7616982 L8.60581079,96.13634 L14.3121499,97.990442 L19.4267985,88.8799463 C21.2333895,89.2688751 23.0762607,89.5601893 24.9496192,89.748096 L27,100 L33,100 L35.0503808,89.748096 C36.9237393,89.5601893 38.7666105,89.2688751 40.5732015,88.8799463 L45.6878501,97.990442 L51.3941892,96.13634 L50.1772722,85.7616982 C51.8903754,85.0052524 53.5530051,84.1554333 55.1587107,83.2186915 L62.8400642,90.3043754 L67.6941661,86.7776639 L63.3255937,77.2753675 C64.714227,76.0330234 66.0330234,74.714227 67.2753675,73.3255937 L76.7776639,77.6941661 L80.3043754,72.8400642 L73.2186915,65.1587107 C74.1554333,63.5530051 75.0052524,61.8903754 75.7616982,60.1772722 L86.13634,61.3941892 L87.990442,55.6878501 L78.8799463,50.5732015 C79.2688751,48.7666105 79.5601893,46.9237393 79.748096,45.0503808 L90,43 L90,37 L79.748096,34.9496192 C79.5601893,33.0762607 79.2688751,31.2333895 78.8799463,29.4267985 L87.990442,24.3121499 L86.13634,18.6058108 L75.7616982,19.8227278 C75.0052524,18.1096246 74.1554333,16.4469949 73.2186915,14.8412893 L80.3043754,7.15993585 L76.7776639,2.30583388 L67.2753675,6.67440631 C66.0330234,5.28577302 64.714227,3.96697656 63.3255937,2.72463248 L64.5782124,0 L0,0 L0,87.6845511 L0,87.6845511 Z M30,54 C37.7319865,54 44,47.7319865 44,40 C44,32.2680135 37.7319865,26 30,26 C22.2680135,26 16,32.2680135 16,40 C16,47.7319865 22.2680135,54 30,54 L30,54 L30,54 Z M30,52 C36.627417,52 42,46.627417 42,40 C42,33.372583 36.627417,28 30,28 C23.372583,28 18,33.372583 18,40 C18,46.627417 23.372583,52 30,52 L30,52 L30,52 Z M30,50 C35.5228475,50 40,45.5228475 40,40 C40,34.4771525 35.5228475,30 30,30 C24.4771525,30 20,34.4771525 20,40 C20,45.5228475 24.4771525,50 30,50 L30,50 L30,50 Z M30,48 C34.418278,48 38,44.418278 38,40 C38,35.581722 34.418278,32 30,32 C25.581722,32 22,35.581722 22,40 C22,44.418278 25.581722,48 30,48 L30,48 L30,48 Z" id="Combined-Shape"></path>
            <path d="M122.670752,92.0490232 L122.166667,86 L119.833333,86 L119.329248,92.0490232 C117.145258,92.1775485 115.028566,92.556401 113.007454,93.1572975 L110.467623,87.6514274 L108.275007,88.4494744 L109.868548,94.3000042 C107.887249,95.1593412 106.0248,96.2410847 104.3127,97.5137373 L100.03894,93.2045701 L98.2515028,94.7044078 L101.754055,99.6629085 C100.198975,101.135058 98.8126395,102.78365 97.627092,104.576642 L92.1384696,101.989637 L90.9718029,104.010363 L95.9540085,107.468399 C95.0026664,109.366074 94.2606497,111.386865 93.7582433,113.500487 L87.7191259,112.94702 L87.3139469,115.244904 L93.1818516,116.791289 C93.0617242,117.84422 93,118.914902 93,120 C93,121.085098 93.0617242,122.15578 93.1818532,123.208725 L87.3139469,124.755096 L87.7191259,127.05298 L93.7582433,126.499513 C94.2606497,128.613135 95.0026664,130.633926 95.9540085,132.531601 L90.9718029,135.989637 L92.1384696,138.010363 L97.627092,135.423358 C98.8126395,137.21635 100.198975,138.864942 101.754055,140.337092 L98.2515028,145.295592 L100.03894,146.79543 L104.3127,142.486263 C106.0248,143.758915 107.887249,144.840659 109.868548,145.699996 L108.275007,151.550526 L110.467623,152.348573 L113.007454,146.842702 C115.028566,147.443599 117.145258,147.822451 119.329248,147.950977 L119.833333,154 L122.166667,154 L122.670752,147.950977 C124.854742,147.822451 126.971434,147.443599 128.992546,146.842702 L131.532377,152.348573 L133.724993,151.550526 L132.131452,145.699996 C134.112751,144.840659 135.9752,143.758915 137.6873,142.486263 L141.96106,146.79543 L143.748497,145.295592 L140.245945,140.337092 C141.801025,138.864942 143.18736,137.21635 144.372908,135.423358 L149.86153,138.010363 L151.028197,135.989637 L146.045992,132.531601 C146.997334,130.633926 147.73935,128.613135 148.241757,126.499513 L154.280874,127.05298 L154.686053,124.755096 L148.818148,123.208711 C148.938276,122.15578 149,121.085098 149,120 C149,118.914902 148.938276,117.84422 148.818147,116.791275 L154.686053,115.244904 L154.280874,112.94702 L148.241757,113.500487 C147.73935,111.386865 146.997334,109.366074 146.045992,107.468399 L151.028197,104.010363 L149.86153,101.989637 L144.372908,104.576642 C143.18736,102.78365 141.801025,101.135058 140.245945,99.6629085 L143.748497,94.7044078 L141.96106,93.2045701 L137.6873,97.5137373 C135.9752,96.2410847 134.112751,95.1593412 132.131452,94.3000042 L133.724993,88.4494744 L131.532377,87.6514274 L128.992546,93.1572975 C126.971434,92.556401 124.854742,92.1775485 122.670752,92.0490232 L122.670752,92.0490232 Z M107.472203,93.1721553 C106.453498,93.6802495 105.467733,94.2439386 104.51894,94.8592159 L100.172627,90.4815788 L95.5466654,94.3632213 L99.0789183,99.3694469 C98.2890439,100.197712 97.5462117,101.07071 96.8546719,101.984219 L91.3327764,99.3851386 L88.3133945,104.614861 L93.2873963,108.071146 C92.8271717,109.125192 92.4260781,110.210639 92.0882741,111.323355 L86.071231,110.775155 L85.0226107,116.722176 L90.8559603,118.26279 C90.8229251,118.837675 90.8061816,119.416895 90.8061816,120 C90.8061816,120.583105 90.8229251,121.162325 90.8559603,121.73721 L85.0226107,123.277824 L86.071231,129.224845 L92.0882741,128.676645 C92.4260781,129.789361 92.8271717,130.874808 93.2873963,131.928854 L88.3133945,135.385139 L91.3327764,140.614861 L96.8546719,138.015781 C97.5462117,138.92929 98.2890439,139.802288 99.0789183,140.630553 L95.5466654,145.636779 L100.172627,149.518421 L104.51894,145.140784 C105.467733,145.756061 106.453498,146.319751 107.472203,146.827845 L105.849984,152.796245 L111.524566,154.861624 L114.130604,149.22016 C115.219077,149.471781 116.330149,149.664909 117.46028,149.796029 L117.980618,156 L124.019382,156 L124.53972,149.796029 C125.669851,149.664909 126.780923,149.471781 127.869396,149.22016 L130.475434,154.861624 L136.150016,152.796245 L134.527797,146.827845 C135.546502,146.319751 136.532267,145.756061 137.48106,145.140784 L141.827373,149.518421 L146.453335,145.636779 L142.921082,140.630553 C143.710956,139.802288 144.453788,138.92929 145.145328,138.015781 L150.667224,140.614861 L153.686605,135.385139 L148.712604,131.928854 C149.172828,130.874808 149.573922,129.789361 149.911726,128.676645 L155.928769,129.224845 L156.977389,123.277824 L151.14404,121.73721 C151.177075,121.162325 151.193818,120.583105 151.193818,120 C151.193818,119.416895 151.177075,118.837675 151.14404,118.26279 L156.977389,116.722176 L155.928769,110.775155 L149.911726,111.323355 C149.573922,110.210639 149.172828,109.125192 148.712604,108.071146 L153.686605,104.614861 L150.667224,99.3851386 L145.145328,101.984219 C144.453788,101.07071 143.710956,100.197712 142.921082,99.3694469 L146.453335,94.3632213 L141.827373,90.4815788 L137.48106,94.8592159 C136.532267,94.2439386 135.546502,93.6802495 134.527797,93.1721553 L136.150016,87.2037551 L130.475434,85.1383762 L127.869396,90.7798398 C126.780923,90.5282192 125.669851,90.3350911 124.53972,90.2039706 L124.019382,84 L117.980618,84 L117.46028,90.2039706 C116.330149,90.3350911 115.219077,90.5282192 114.130604,90.7798398 L111.524566,85.1383762 L105.849984,87.2037551 L107.472203,93.1721553 L107.472203,93.1721553 Z M121,128 C125.418278,128 129,124.418278 129,120 C129,115.581722 125.418278,112 121,112 C116.581722,112 113,115.581722 113,120 C113,124.418278 116.581722,128 121,128 L121,128 Z M121,126 C124.313708,126 127,123.313708 127,120 C127,116.686292 124.313708,114 121,114 C117.686292,114 115,116.686292 115,120 C115,123.313708 117.686292,126 121,126 L121,126 Z M121,108 C123.761424,108 126,105.761424 126,103 C126,100.238576 123.761424,98 121,98 C118.238576,98 116,100.238576 116,103 C116,105.761424 118.238576,108 121,108 L121,108 Z M129.485281,111.514719 C131.437903,113.46734 134.603728,113.46734 136.556349,111.514719 C138.508971,109.562097 138.508971,106.396272 136.556349,104.443651 C134.603728,102.491029 131.437903,102.491029 129.485281,104.443651 C127.53266,106.396272 127.53266,109.562097 129.485281,111.514719 L129.485281,111.514719 Z M133,120 C133,122.761424 135.238576,125 138,125 C140.761424,125 143,122.761424 143,120 C143,117.238576 140.761424,115 138,115 C135.238576,115 133,117.238576 133,120 L133,120 Z M129.485281,128.485281 C127.53266,130.437903 127.53266,133.603728 129.485281,135.556349 C131.437903,137.508971 134.603728,137.508971 136.556349,135.556349 C138.508971,133.603728 138.508971,130.437903 136.556349,128.485281 C134.603728,126.53266 131.437903,126.53266 129.485281,128.485281 L129.485281,128.485281 Z M121,132 C118.238576,132 116,134.238576 116,137 C116,139.761424 118.238576,142 121,142 C123.761424,142 126,139.761424 126,137 C126,134.238576 123.761424,132 121,132 L121,132 Z M112.514719,128.485281 C110.562097,126.53266 107.396272,126.53266 105.443651,128.485281 C103.491029,130.437903 103.491029,133.603728 105.443651,135.556349 C107.396272,137.508971 110.562097,137.508971 112.514719,135.556349 C114.46734,133.603728 114.46734,130.437903 112.514719,128.485281 L112.514719,128.485281 Z M109,120 C109,117.238576 106.761424,115 104,115 C101.238576,115 99,117.238576 99,120 C99,122.761424 101.238576,125 104,125 C106.761424,125 109,122.761424 109,120 L109,120 Z M112.514719,111.514719 C114.46734,109.562097 114.46734,106.396272 112.514719,104.443651 C110.562097,102.491029 107.396272,102.491029 105.443651,104.443651 C103.491029,106.396272 103.491029,109.562097 105.443651,111.514719 C107.396272,113.46734 110.562097,113.46734 112.514719,111.514719 L112.514719,111.514719 Z M121,106 C122.656854,106 124,104.656854 124,103 C124,101.343146 122.656854,100 121,100 C119.343146,100 118,101.343146 118,103 C118,104.656854 119.343146,106 121,106 L121,106 Z M130.899495,110.100505 C132.071068,111.272078 133.970563,111.272078 135.142136,110.100505 C136.313708,108.928932 136.313708,107.029437 135.142136,105.857864 C133.970563,104.686292 132.071068,104.686292 130.899495,105.857864 C129.727922,107.029437 129.727922,108.928932 130.899495,110.100505 L130.899495,110.100505 Z M135,120 C135,121.656854 136.343146,123 138,123 C139.656854,123 141,121.656854 141,120 C141,118.343146 139.656854,117 138,117 C136.343146,117 135,118.343146 135,120 L135,120 Z M130.899495,129.899495 C129.727922,131.071068 129.727922,132.970563 130.899495,134.142136 C132.071068,135.313708 133.970563,135.313708 135.142136,134.142136 C136.313708,132.970563 136.313708,131.071068 135.142136,129.899495 C133.970563,128.727922 132.071068,128.727922 130.899495,129.899495 L130.899495,129.899495 Z M121,134 C119.343146,134 118,135.343146 118,137 C118,138.656854 119.343146,140 121,140 C122.656854,140 124,138.656854 124,137 C124,135.343146 122.656854,134 121,134 L121,134 Z M111.100505,129.899495 C109.928932,128.727922 108.029437,128.727922 106.857864,129.899495 C105.686292,131.071068 105.686292,132.970563 106.857864,134.142136 C108.029437,135.313708 109.928932,135.313708 111.100505,134.142136 C112.272078,132.970563 112.272078,131.071068 111.100505,129.899495 L111.100505,129.899495 Z M107,120 C107,118.343146 105.656854,117 104,117 C102.343146,117 101,118.343146 101,120 C101,121.656854 102.343146,123 104,123 C105.656854,123 107,121.656854 107,120 L107,120 Z M111.100505,110.100505 C112.272078,108.928932 112.272078,107.029437 111.100505,105.857864 C109.928932,104.686292 108.029437,104.686292 106.857864,105.857864 C105.686292,107.029437 105.686292,108.928932 106.857864,110.100505 C108.029437,111.272078 109.928932,111.272078 111.100505,110.100505 L111.100505,110.100505 Z" id="Combined-Shape"></path>
            <path d="M218.638676,113.197255 C213.991766,116.066291 210.066291,119.991766 207.197255,124.638676 L212.396835,127.640655 C214.735476,123.902436 217.902436,120.735476 221.640655,118.396835 L218.638676,113.197255 L218.638676,113.197255 Z M220.369798,112.195646 C225.041704,109.668126 230.353596,108.172423 236,108.014011 L236,114.016918 C231.446134,114.171233 227.158581,115.375485 223.37178,117.39523 L220.369798,112.195646 L220.369798,112.195646 Z M206.195646,126.369798 C203.668126,131.041704 202.172423,136.353596 202.014011,142 L208.016918,142 C208.171233,137.446134 209.375485,133.158581 211.39523,129.37178 L206.195646,126.369798 L206.195646,126.369798 Z M202.014011,144 C202.172423,149.646404 203.668126,154.958296 206.195646,159.630202 L211.39523,156.62822 C209.375484,152.841417 208.171232,148.553862 208.016918,144 L202.014011,144 L202.014011,144 Z M207.197255,161.361324 C210.066291,166.008234 213.991766,169.933709 218.638676,172.802745 L221.640655,167.603165 C217.902436,165.264524 214.735476,162.097564 212.396835,158.359345 L207.197255,161.361324 L207.197255,161.361324 Z M220.369798,173.804354 C225.041704,176.331874 230.353596,177.827577 236,177.985989 L236,171.983082 C231.446134,171.828767 227.158581,170.624515 223.37178,168.60477 L220.369798,173.804354 L220.369798,173.804354 Z M238,177.985989 C243.646404,177.827577 248.958296,176.331874 253.630202,173.804354 L250.62822,168.60477 C246.841417,170.624516 242.553862,171.828768 238,171.983082 L238,177.985989 L238,177.985989 Z M255.361324,172.802745 C260.008234,169.933709 263.933709,166.008234 266.802745,161.361324 L261.603165,158.359345 C259.264524,162.097564 256.097564,165.264524 252.359345,167.603165 L255.361324,172.802745 L255.361324,172.802745 Z M267.804354,159.630202 C270.331874,154.958296 271.827577,149.646404 271.985989,144 L265.983082,144 C265.828767,148.553866 264.624515,152.841419 262.60477,156.62822 L267.804354,159.630202 L267.804354,159.630202 Z M271.985989,142 C271.827577,136.353596 270.331874,131.041704 267.804354,126.369798 L262.60477,129.37178 C264.624516,133.158583 265.828768,137.446138 265.983082,142 L271.985989,142 L271.985989,142 Z M266.802745,124.638676 C263.933709,119.991766 260.008234,116.066291 255.361324,113.197255 L252.359345,118.396835 C256.097564,120.735476 259.264524,123.902436 261.603165,127.640655 L266.802745,124.638676 L266.802745,124.638676 Z M238,108.014011 C243.646404,108.172423 248.958296,109.668126 253.630202,112.195646 L250.62822,117.39523 C246.841417,115.375484 242.553862,114.171232 238,114.016918 L238,108.014011 L238,108.014011 Z M217.968887,116.037145 C214.895634,118.210292 212.210292,120.895634 210.037145,123.968887 L211.777142,124.973475 C213.764245,122.198056 216.198056,119.764245 218.973475,117.777142 L217.968887,116.037145 L217.968887,116.037145 Z M223.162409,113.032589 C226.509553,111.484447 230.159934,110.480576 234,110.134529 L234,112.143298 C230.522507,112.477233 227.212833,113.38569 224.16702,114.772627 L223.162409,113.032589 L223.162409,113.032589 Z M207.032589,129.162409 C205.484447,132.509553 204.480576,136.159934 204.134529,140 L206.143298,140 C206.477233,136.522507 207.38569,133.212833 208.772627,130.16702 L207.032589,129.162409 L207.032589,129.162409 Z M204.134529,146 C204.480576,149.840066 205.484447,153.490447 207.032589,156.837591 L208.772627,155.83298 C207.38569,152.787167 206.477233,149.477493 206.143298,146 L204.134529,146 L204.134529,146 Z M210.037145,162.031113 C212.210292,165.104366 214.895634,167.789708 217.968887,169.962855 L218.973475,168.222858 C216.198056,166.235755 213.764245,163.801944 211.777142,161.026525 L210.037145,162.031113 L210.037145,162.031113 Z M223.162409,172.967411 C226.509553,174.515553 230.159934,175.519424 234,175.865471 L234,173.856702 C230.522507,173.522767 227.212833,172.61431 224.16702,171.227373 L223.162409,172.967411 L223.162409,172.967411 Z M240,175.865471 C243.840066,175.519424 247.490447,174.515553 250.837591,172.967411 L249.83298,171.227373 C246.787167,172.61431 243.477493,173.522767 240,173.856702 L240,175.865471 L240,175.865471 Z M256.031113,169.962855 C259.104366,167.789708 261.789708,165.104366 263.962855,162.031113 L262.222858,161.026525 C260.235755,163.801944 257.801944,166.235755 255.026525,168.222858 L256.031113,169.962855 L256.031113,169.962855 Z M266.967411,156.837591 C268.515553,153.490447 269.519424,149.840066 269.865471,146 L267.856702,146 C267.522767,149.477493 266.61431,152.787167 265.227373,155.83298 L266.967411,156.837591 L266.967411,156.837591 Z M269.865471,140 C269.519424,136.159934 268.515553,132.509553 266.967411,129.162409 L265.227373,130.16702 C266.61431,133.212833 267.522767,136.522507 267.856702,140 L269.865471,140 L269.865471,140 Z M263.962855,123.968887 C261.789708,120.895634 259.104366,118.210292 256.031113,116.037145 L255.026525,117.777142 C257.801944,119.764245 260.235755,122.198056 262.222858,124.973475 L263.962855,123.968887 L263.962855,123.968887 Z M250.837591,113.032589 C247.490447,111.484447 243.840066,110.480576 240,110.134529 L240,112.143298 C243.477493,112.477233 246.787167,113.38569 249.83298,114.772627 L250.837591,113.032589 L250.837591,113.032589 Z M240.519084,103.15267 L240,99 L239,95 L235,95 L234,99 L233.480916,103.15267 C232.607788,103.228775 231.742697,103.332932 230.886548,103.464234 L229.375785,99.5540865 C229.375785,99.5540865 227.437802,95.9148255 227.437802,95.9148255 L223.556619,96.8825131 L223.554011,101.005618 L224.052719,105.141858 C223.224704,105.424962 222.40893,105.734467 221.606401,106.069368 L219.191526,102.636537 C219.191526,102.636537 216.430693,99.5742182 216.430693,99.5742182 L212.898902,101.452104 L213.893841,105.453366 L215.376973,109.342401 C214.643693,109.814465 213.926838,110.309839 213.227457,110.827475 L210.040022,108.068867 C210.040022,108.068867 206.620354,105.765418 206.620354,105.765418 L203.647775,108.441941 L205.581153,112.083651 L207.958095,115.49409 C207.349036,116.136943 206.761093,116.800004 206.195377,117.482162 L202.517103,115.536672 C202.517103,115.536672 198.666918,114.061518 198.666918,114.061518 L196.372612,117.338126 L199.075644,120.451584 L202.195011,123.272623 C201.765277,124.029174 201.359498,124.80111 200.978705,125.587402 L196.937261,124.589118 C196.937261,124.589118 192.844571,124.089226 192.844571,124.089226 L191.411099,127.823548 L194.787053,130.1906 L198.484301,132.166822 C198.249655,133.002782 198.041491,133.849821 197.860774,134.706975 L193.686743,134.716082 C193.686743,134.716082 189.594689,135.221151 189.594689,135.221151 L189.107212,139.191336 L192.955527,140.671359 L197.020905,141.694399 C197.007004,142.127893 197,142.563128 197,143 C197,143.436872 197.007004,143.872107 197.020905,144.305601 L192.955527,145.328641 C192.955527,145.328641 189.107212,146.808664 189.107212,146.808664 L189.594689,150.778849 L193.686743,151.283918 L197.860774,151.293025 C198.041491,152.150179 198.249655,152.997218 198.484301,153.833178 L194.787053,155.8094 C194.787053,155.8094 191.411099,158.176452 191.411099,158.176452 L192.844571,161.910774 L196.937261,161.410882 L200.978705,160.412598 C201.359498,161.19889 201.765277,161.970826 202.195011,162.727377 L199.075644,165.548416 C199.075644,165.548416 196.372612,168.661874 196.372612,168.661874 L198.666918,171.938482 L202.517103,170.463328 L206.195377,168.517838 C206.761093,169.199996 207.349036,169.863057 207.958095,170.50591 L205.581153,173.916349 C205.581153,173.916349 203.647775,177.558059 203.647775,177.558059 L206.620354,180.234582 L210.040022,177.931133 L213.227457,175.172525 C213.926838,175.690161 214.643693,176.185535 215.376973,176.657599 L213.893841,180.546634 C213.893841,180.546634 212.898902,184.547896 212.898902,184.547896 L216.430693,186.425782 L219.191526,183.363463 L221.606401,179.930632 C222.40893,180.265533 223.224704,180.575038 224.052719,180.858142 L223.554011,184.994382 L223.556619,189.117487 L227.437802,190.085174 L229.375785,186.445913 L230.886548,182.535766 C231.742697,182.667068 232.607788,182.771225 233.480916,182.84733 L234,187 L235,191 L239,191 L240,187 L240.519084,182.84733 C241.392212,182.771225 242.257303,182.667068 243.113452,182.535766 L244.624215,186.445913 C244.624215,186.445913 246.562198,190.085174 246.562198,190.085174 L250.443381,189.117487 L250.445989,184.994382 L249.947281,180.858142 C250.775296,180.575038 251.59107,180.265533 252.393599,179.930632 L254.808474,183.363463 C254.808474,183.363463 257.569307,186.425782 257.569307,186.425782 L261.101098,184.547896 L260.106159,180.546634 L258.623027,176.657599 C259.356307,176.185535 260.073162,175.690161 260.772543,175.172525 L263.959978,177.931133 C263.959978,177.931133 267.379646,180.234582 267.379646,180.234582 L270.352225,177.558059 L268.418847,173.916349 L266.041905,170.50591 C266.650964,169.863057 267.238907,169.199996 267.804623,168.517838 L271.482897,170.463328 C271.482897,170.463328 275.333082,171.938482 275.333082,171.938482 L277.627388,168.661874 L274.924356,165.548416 L271.804989,162.727377 C272.234723,161.970826 272.640502,161.19889 273.021295,160.412598 L277.062739,161.410882 C277.062739,161.410882 281.155429,161.910774 281.155429,161.910774 L282.588901,158.176452 L279.212947,155.8094 L275.515699,153.833178 C275.750345,152.997218 275.958509,152.150179 276.139226,151.293025 L280.313257,151.283918 C280.313257,151.283918 284.405311,150.778849 284.405311,150.778849 L284.892788,146.808664 L281.044473,145.328641 L276.979095,144.305601 C276.992996,143.872107 277,143.436872 277,143 C277,142.563128 276.992996,142.127893 276.979095,141.694399 L281.044473,140.671359 C281.044473,140.671359 284.892788,139.191336 284.892788,139.191336 L284.405311,135.221151 L280.313257,134.716082 L276.139226,134.706975 C275.958509,133.849821 275.750345,133.002782 275.515699,132.166822 L279.212947,130.1906 C279.212947,130.1906 282.588901,127.823548 282.588901,127.823548 L281.155429,124.089226 L277.062739,124.589118 L273.021295,125.587402 C272.640502,124.80111 272.234723,124.029174 271.804989,123.272623 L274.924356,120.451584 C274.924356,120.451584 277.627388,117.338126 277.627388,117.338126 L275.333082,114.061518 L271.482897,115.536672 L267.804623,117.482162 C267.238907,116.800004 266.650964,116.136943 266.041905,115.49409 L268.418847,112.083651 C268.418847,112.083651 270.352225,108.441941 270.352225,108.441941 L267.379646,105.765418 L263.959978,108.068867 L260.772543,110.827475 C260.073162,110.309839 259.356307,109.814465 258.623027,109.342401 L260.106159,105.453366 C260.106159,105.453366 261.101098,101.452104 261.101098,101.452104 L257.569307,99.5742182 L254.808474,102.636537 L252.393599,106.069368 C251.59107,105.734467 250.775296,105.424962 249.947281,105.141858 L250.445989,101.005618 L250.443381,96.8825131 L246.562198,95.9148255 L244.624215,99.5540865 L243.113452,103.464234 C242.257303,103.332932 241.392212,103.228775 240.519084,103.15267 L240.519084,103.15267 Z M226.218875,106.55109 C224.39293,107.09034 222.624244,107.763064 220.924117,108.557963 L217.420883,103.577989 L216.040466,102.046829 L215.157518,102.516301 L215.654988,104.516932 L217.818296,110.189506 C216.184211,111.14689 214.628028,112.222859 213.16156,113.4056 L208.547724,109.412494 L206.83789,108.26077 L206.094746,108.929901 L207.061434,110.750755 L210.533434,115.732384 C209.165945,117.059947 207.897993,118.489477 206.741845,120.008707 L201.373782,117.169464 L199.448689,116.431887 L198.875113,117.251039 L200.226629,118.807768 L204.747449,122.89623 C203.750992,124.491474 202.869598,126.165983 202.114886,127.908137 L196.221961,126.452515 L194.175616,126.20257 L193.817248,127.13615 L195.505225,128.319676 L200.871626,131.18808 C200.290468,132.96677 199.837005,134.803213 199.522068,136.686578 L193.443167,136.699842 L191.39714,136.952376 L191.275271,137.944922 L193.199428,138.684934 L199.103734,140.170734 C199.034983,141.104841 199,142.048335 199,143 C199,143.951665 199.034983,144.895159 199.103734,145.829266 L193.199428,147.315066 L191.275271,148.055078 L191.39714,149.047624 L193.443167,149.300158 L199.522068,149.313422 C199.837005,151.196787 200.290468,153.03323 200.871626,154.81192 L195.505225,157.680324 L193.817248,158.86385 L194.175616,159.79743 L196.221961,159.547485 L202.114886,158.091863 C202.869598,159.834017 203.750992,161.508526 204.747449,163.10377 L200.226629,167.192232 L198.875113,168.748961 L199.448689,169.568113 L201.373782,168.830536 L206.741845,165.991293 C207.897993,167.510523 209.165945,168.940053 210.533434,170.267616 L207.061434,175.249245 L206.094746,177.070099 L206.83789,177.73923 L208.547724,176.587506 L213.16156,172.5944 C214.628028,173.777141 216.184211,174.85311 217.818296,175.810494 L215.654988,181.483068 L215.157518,183.483699 L216.040466,183.953171 L217.420883,182.422011 L220.924117,177.442037 C222.624244,178.236936 224.39293,178.90966 226.218875,179.44891 L225.491996,185.47758 L225.4933,187.539132 L226.463596,187.781054 L227.432588,185.961424 L229.625793,180.28498 C231.455177,180.644738 233.33166,180.873215 235.245024,180.960193 L236,187 L236.5,189 L237.5,189 L238,187 L238.754976,180.960193 C240.66834,180.873215 242.544823,180.644738 244.374207,180.28498 L246.567412,185.961424 L247.536404,187.781054 L248.5067,187.539132 L248.508004,185.47758 L247.781125,179.44891 C249.60707,178.90966 251.375756,178.236936 253.075883,177.442037 L256.579117,182.422011 L257.959534,183.953171 L258.842482,183.483699 L258.345012,181.483068 L256.181704,175.810494 C257.815789,174.85311 259.371972,173.777141 260.83844,172.5944 L265.452276,176.587506 L267.16211,177.73923 L267.905254,177.070099 L266.938566,175.249245 L263.466566,170.267616 C264.834055,168.940053 266.102007,167.510523 267.258155,165.991293 L272.626218,168.830536 L274.551311,169.568113 L275.124887,168.748961 L273.773371,167.192232 L269.252551,163.10377 C270.249008,161.508526 271.130402,159.834017 271.885114,158.091863 L277.778039,159.547485 L279.824384,159.79743 L280.182752,158.86385 L278.494775,157.680324 L273.128374,154.81192 C273.709532,153.03323 274.162995,151.196787 274.477932,149.313422 L280.556833,149.300158 L282.60286,149.047624 L282.724729,148.055078 L280.800572,147.315066 L274.896266,145.829266 C274.965017,144.895159 275,143.951665 275,143 C275,142.048335 274.965017,141.104841 274.896266,140.170734 L280.800572,138.684934 L282.724729,137.944922 L282.60286,136.952376 L280.556833,136.699842 L274.477932,136.686578 C274.162995,134.803213 273.709532,132.96677 273.128374,131.18808 L278.494775,128.319676 L280.182752,127.13615 L279.824384,126.20257 L277.778039,126.452515 L271.885114,127.908137 C271.130402,126.165983 270.249008,124.491474 269.252551,122.89623 L273.773371,118.807768 L275.124887,117.251039 L274.551311,116.431887 L272.626218,117.169464 L267.258155,120.008707 C266.102007,118.489477 264.834055,117.059947 263.466566,115.732384 L266.938566,110.750755 L267.905254,108.929901 L267.16211,108.26077 L265.452276,109.412494 L260.83844,113.4056 C259.371972,112.222859 257.815789,111.14689 256.181704,110.189506 L258.345012,104.516932 L258.842482,102.516301 L257.959534,102.046829 L256.579117,103.577989 L253.075883,108.557963 C251.375756,107.763064 249.60707,107.09034 247.781125,106.55109 L248.508004,100.52242 L248.5067,98.4608678 L247.536404,98.2189459 L246.567412,100.038576 L244.374207,105.71502 C242.544823,105.355262 240.66834,105.126785 238.754976,105.039807 L238,99 L237.5,97 L236.5,97 L236,99 L235.245024,105.039807 C233.33166,105.126785 231.455177,105.355262 229.625793,105.71502 L227.432588,100.038576 L226.463596,98.2189459 L225.4933,98.4608678 L225.491996,100.52242 L226.218875,106.55109 L226.218875,106.55109 L226.218875,106.55109 Z M237,156 C244.179702,156 250,150.179702 250,143 C250,135.820298 244.179702,130 237,130 C229.820298,130 224,135.820298 224,143 C224,150.179702 229.820298,156 237,156 Z M237,154 C243.075132,154 248,149.075132 248,143 C248,136.924868 243.075132,132 237,132 C230.924868,132 226,136.924868 226,143 C226,149.075132 230.924868,154 237,154 Z" id="Combined-Shape"></path>
            <path d="M137.153291,27 C138.553124,40.6204784 149.379522,51.4468764 163,52.8467088 L163,38.6999457 C157.122609,37.5068982 152.493102,32.8773911 151.300054,27 L137.153291,27 L137.153291,27 L137.153291,27 Z M149.716095,-1.30739863e-12 C142.820227,4.6879263 138.050504,12.2700477 137.153291,21 L151.300054,21 C152.493102,15.1226089 157.122609,10.4931018 163,9.30005435 L163,-1.42108547e-14 L149.716095,-1.42108547e-14 L149.716095,-1.30739863e-12 Z M169,52.8467088 C182.620478,51.4468764 193.446876,40.6204784 194.846709,27 L180.699946,27 C179.506898,32.8773911 174.877391,37.5068982 169,38.6999457 L169,52.8467088 L169,52.8467088 L169,52.8467088 Z M182.283905,0 C189.179773,4.6879263 193.949496,12.2700477 194.846709,21 L180.699946,21 C179.506898,15.1226089 174.877391,10.4931018 169,9.30005435 L169,0 L182.283905,0 L182.283905,0 Z M139.462057,29 C141.503476,39.9025166 150.097483,48.4965239 161,50.5379435 L161,40.2528036 C155.632173,38.6034124 151.396588,34.3678272 149.747196,29 L139.462057,29 L139.462057,29 L139.462057,29 Z M153.618394,0 C146.354997,3.75478562 141.014292,10.7100446 139.462057,19 L149.747196,19 C151.396588,13.6321728 155.632173,9.39658763 161,7.74719644 L161,0 L153.618394,0 L153.618394,0 Z M171,50.5379435 C181.902517,48.4965239 190.496524,39.9025166 192.537943,29 L182.252804,29 C180.603412,34.3678272 176.367827,38.6034124 171,40.2528036 L171,50.5379435 L171,50.5379435 L171,50.5379435 Z M178.381606,0 C185.645003,3.75478562 190.985708,10.7100446 192.537943,19 L192.537943,19 L182.252804,19 C180.603412,13.6321728 176.367827,9.39658763 171,7.74719644 L171,0 L178.381606,0 L178.381606,0 Z M137.543434,0 L138.279132,1.0299762 C137.705608,1.72134785 137.157456,2.43452393 136.636103,3.16807667 L128.894882,0.267949192 L126.894882,3.73205081 L133.272411,8.9822396 C132.897505,9.79791521 132.552195,10.6300122 132.237858,11.477155 L124.016902,10.6801104 L122.981626,14.5438137 L130.503512,17.9657627 C130.35479,18.847006 130.23809,19.7391284 130.154648,20.6408921 L122,22 L122,26 L130.154648,27.3591079 C130.23809,28.2608716 130.35479,29.152994 130.503512,30.0342373 L122.981626,33.4561863 L124.016902,37.3198896 L132.237858,36.522845 C132.552195,37.3699878 132.897505,38.2020848 133.272411,39.0177604 L126.894882,44.2679492 L128.894882,47.7320508 L136.636103,44.8319233 C137.157456,45.5654761 137.705608,46.2786522 138.279132,46.9700238 L133.473088,53.6984848 L136.301515,56.5269119 L143.029976,51.7208684 C143.721348,52.2943917 144.434524,52.8425438 145.168077,53.3638971 L142.267949,61.1051178 L145.732051,63.1051178 L150.98224,56.7275894 C151.797915,57.1024954 152.630012,57.4478049 153.477155,57.7621423 L152.68011,65.9830983 L156.543814,67.0183744 L159.965763,59.4964884 C160.847006,59.6452097 161.739128,59.7619104 162.640892,59.8453525 L164,68 L168,68 L169.359108,59.8453525 C170.260872,59.7619104 171.152994,59.6452097 172.034237,59.4964884 L175.456186,67.0183744 L179.31989,65.9830983 L178.522845,57.7621423 C179.369988,57.4478049 180.202085,57.1024954 181.01776,56.7275894 L186.267949,63.1051178 L189.732051,61.1051178 L186.831923,53.3638971 C187.565476,52.8425438 188.278652,52.2943917 188.970024,51.7208684 L195.698485,56.5269119 L198.526912,53.6984848 L193.720868,46.9700238 C194.294392,46.2786522 194.842544,45.5654761 195.363897,44.8319233 L203.105118,47.7320508 L205.105118,44.2679492 L198.727589,39.0177604 C199.102495,38.2020848 199.447805,37.3699878 199.762142,36.522845 L207.983098,37.3198896 L209.018374,33.4561863 L201.496488,30.0342373 C201.64521,29.152994 201.76191,28.2608716 201.845352,27.3591079 L210,26 L210,22 L201.845352,20.6408921 C201.76191,19.7391284 201.64521,18.847006 201.496488,17.9657627 L209.018374,14.5438137 L207.983098,10.6801104 L199.762142,11.477155 C199.447805,10.6300122 199.102495,9.79791521 198.727589,8.9822396 L205.105118,3.73205081 L203.105118,0.267949192 L195.363897,3.16807667 C194.842544,2.43452393 194.294392,1.72134785 193.720868,1.0299762 L194.456566,0 L137.543434,0 L137.543434,0 Z M139.9678,0 L140.803991,1.17066646 C139.562476,2.54005443 138.431051,4.01109481 137.423685,5.56981734 L129.7936,2.71132487 L129.460266,3.28867513 L135.748414,8.46528254 C134.906271,10.1019317 134.193042,11.8157777 133.622146,13.5934037 L125.517388,12.8076248 L125.344842,13.4515754 L132.758602,16.8243342 C132.374899,18.6103551 132.131486,20.4484734 132.040462,22.3265897 L124,23.6666667 L124,24.3333333 L132.040462,25.6734103 C132.131486,27.5515266 132.374899,29.3896449 132.758602,31.1756658 L125.344842,34.5484246 L125.517388,35.1923752 L133.622146,34.4065963 C134.193042,36.1842223 134.906271,37.8980683 135.748414,39.5347175 L129.460266,44.7113249 L129.7936,45.2886751 L137.423685,42.4301827 C138.431051,43.9889052 139.562476,45.4599456 140.803991,46.8293335 L136.065813,53.4627825 L136.537217,53.9341871 L143.170666,49.1960092 C144.540054,50.4375237 146.011095,51.5689489 147.569817,52.5763147 L144.711325,60.2064003 L145.288675,60.5397336 L150.465283,54.2515863 C152.101932,55.0937294 153.815778,55.8069576 155.593404,56.377854 L154.807625,64.4826117 L155.451575,64.6551577 L158.824334,57.2413982 C160.610355,57.6251006 162.448473,57.8685138 164.32659,57.9595385 L165.666667,66 L166.333333,66 L167.67341,57.9595385 C169.551527,57.8685138 171.389645,57.6251006 173.175666,57.2413982 L176.548425,64.6551577 L177.192375,64.4826117 L176.406596,56.377854 C178.184222,55.8069576 179.898068,55.0937294 181.534717,54.2515863 L186.711325,60.5397336 L187.288675,60.2064003 L184.430183,52.5763147 C185.988905,51.5689489 187.459946,50.4375237 188.829334,49.1960092 L195.462783,53.9341871 L195.934187,53.4627825 L191.196009,46.8293335 C192.437524,45.4599456 193.568949,43.9889052 194.576315,42.4301827 L202.2064,45.2886751 L202.539734,44.7113249 L196.251586,39.5347175 C197.093729,37.8980683 197.806958,36.1842223 198.377854,34.4065963 L206.482612,35.1923752 L206.655158,34.5484246 L199.241398,31.1756658 C199.625101,29.3896449 199.868514,27.5515266 199.959538,25.6734103 L208,24.3333333 L208,23.6666667 L199.959538,22.3265897 C199.868514,20.4484734 199.625101,18.6103551 199.241398,16.8243342 L206.655158,13.4515754 L206.482612,12.8076248 L198.377854,13.5934037 C197.806958,11.8157777 197.093729,10.1019317 196.251586,8.46528254 L202.539734,3.28867513 L202.2064,2.71132487 L194.576315,5.56981734 C193.568949,4.01109481 192.437524,2.54005443 191.196009,1.17066646 L192.0322,0 L139.9678,0 L139.9678,0 Z M166,34 C171.522847,34 176,29.5228475 176,24 C176,18.4771525 171.522847,14 166,14 C160.477153,14 156,18.4771525 156,24 C156,29.5228475 160.477153,34 166,34 L166,34 Z M166,32 C170.418278,32 174,28.418278 174,24 C174,19.581722 170.418278,16 166,16 C161.581722,16 158,19.581722 158,24 C158,28.418278 161.581722,32 166,32 L166,32 Z" id="Combined-Shape"></path>
            <path d="M126.490276,208.15008 C126.168832,209.716474 126,211.338521 126,213 C126,214.661479 126.168832,216.283526 126.490276,217.84992 L115.823085,225.803848 L121.823085,236.196152 L134.049562,230.933088 C136.461921,233.080281 139.310407,234.748048 142.445516,235.786884 L144,249 L156,249 L157.554484,235.786884 C160.689593,234.748048 163.538079,233.080281 165.950438,230.933088 L178.176915,236.196152 L184.176915,225.803848 L173.509724,217.84992 C173.831168,216.283526 174,214.661479 174,213 C174,211.338521 173.831168,209.716474 173.509724,208.15008 L184.176915,200.196152 L178.176915,189.803848 L165.950438,195.066912 C163.538079,192.919719 160.689593,191.251952 157.554484,190.213116 L156,177 L144,177 L142.445516,190.213116 C139.310407,191.251952 136.461921,192.919719 134.049562,195.066912 L121.823085,189.803848 L115.823085,200.196152 L126.490276,208.15008 L126.490276,208.15008 Z M155.735908,191.755222 L154.235294,179 L154.235294,179 L145.764706,179 L144.264092,191.755222 C140.508642,192.766676 137.150636,194.747366 134.47486,197.412503 L122.672783,192.332128 L122.672783,192.332128 L118.437489,199.667872 L128.733574,207.345088 C128.255007,209.149533 128,211.044986 128,213 C128,214.955014 128.255007,216.850467 128.733574,218.654912 L118.437489,226.332128 L118.437489,226.332128 L122.672783,233.667872 L134.47486,228.587497 C137.150636,231.252634 140.508642,233.233324 144.264092,234.244778 L145.764706,247 L145.764706,247 L154.235294,247 L155.735908,234.244778 C159.491358,233.233324 162.849364,231.252634 165.52514,228.587497 L177.327217,233.667872 L177.327217,233.667872 L181.562511,226.332128 L171.266426,218.654912 C171.744993,216.850467 172,214.955014 172,213 C172,211.044986 171.744993,209.149533 171.266426,207.345088 L181.562511,199.667872 L181.562511,199.667872 L177.327217,192.332128 L165.52514,197.412503 C162.849364,194.747366 159.491358,192.766676 155.735908,191.755222 L155.735908,191.755222 Z M150,225 C156.627417,225 162,219.627417 162,213 C162,206.372583 156.627417,201 150,201 C143.372583,201 138,206.372583 138,213 C138,219.627417 143.372583,225 150,225 Z M150,223 C155.522847,223 160,218.522847 160,213 C160,207.477153 155.522847,203 150,203 C144.477153,203 140,207.477153 140,213 C140,218.522847 144.477153,223 150,223 Z" id="Combined-Shape"></path>
            <path d="M136.114525,288.141383 C134.563016,287.409326 132.82931,287 131,287 C129.17069,287 127.436984,287.409326 125.885475,288.141383 L128.897551,293.358452 C129.552053,293.114435 130.26045,292.981055 131,292.981055 C131.73955,292.981055 132.447947,293.114435 133.102449,293.358452 L136.114525,288.141383 L136.114525,288.141383 L136.114525,288.141383 Z M137.84569,289.142917 C140.704028,291.131747 142.656321,294.331989 142.958926,298 L136.936253,298 C136.692523,296.542456 135.924988,295.262334 134.833755,294.359742 L137.84569,289.142917 L137.84569,289.142917 L137.84569,289.142917 Z M124.15431,289.142917 C121.295972,291.131747 119.343679,294.331989 119.041074,298 L125.063747,298 C125.307477,296.542456 126.075012,295.262334 127.166245,294.359742 L124.15431,289.142917 L124.15431,289.142917 L124.15431,289.142917 Z M119.041074,300 C119.343679,303.668011 121.295972,306.868253 124.15431,308.857083 L127.166245,303.640258 C126.075012,302.737666 125.307477,301.457544 125.063747,300 L119.041074,300 L119.041074,300 L119.041074,300 Z M125.885475,309.858617 C127.436984,310.590674 129.17069,311 131,311 C132.82931,311 134.563016,310.590674 136.114525,309.858617 L133.102449,304.641548 C132.447947,304.885565 131.73955,305.018945 131,305.018945 C130.26045,305.018945 129.552053,304.885565 128.897551,304.641548 L125.885475,309.858617 L125.885475,309.858617 L125.885475,309.858617 Z M137.84569,308.857083 C140.704028,306.868253 142.656321,303.668011 142.958926,300 L136.936253,300 C136.692523,301.457544 135.924988,302.737666 134.833755,303.640258 L137.84569,308.857083 L137.84569,308.857083 L137.84569,308.857083 Z M133.172742,289.236701 C132.473223,289.081721 131.746155,289 131,289 C130.253845,289 129.526777,289.081721 128.827258,289.236701 L129.879223,291.058757 C130.245468,291.007537 130.619641,290.981055 131,290.981055 C131.380359,290.981055 131.754532,291.007537 132.120777,291.058757 L133.172742,289.236701 L133.172742,289.236701 L133.172742,289.236701 Z M138.367802,292.238592 C139.347016,293.305061 140.09769,294.584738 140.542198,296 L138.438922,296 C138.155713,295.298414 137.776131,294.646066 137.316581,294.059361 L138.367802,292.238592 L138.367802,292.238592 L138.367802,292.238592 Z M123.632198,292.238592 C122.652984,293.305061 121.90231,294.584738 121.457802,296 L123.561078,296 C123.844287,295.298414 124.223869,294.646066 124.683419,294.059361 L123.632198,292.238592 L123.632198,292.238592 L123.632198,292.238592 Z M121.457802,302 C121.90231,303.415262 122.652984,304.694939 123.632198,305.761408 L124.683419,303.940639 C124.223869,303.353934 123.844287,302.701586 123.561078,302 L121.457802,302 L121.457802,302 L121.457802,302 Z M128.827258,308.763299 C129.526777,308.918279 130.253845,309 131,309 C131.746155,309 132.473223,308.918279 133.172742,308.763299 L132.120777,306.941243 C131.754532,306.992463 131.380359,307.018945 131,307.018945 C130.619641,307.018945 130.245468,306.992463 129.879223,306.941243 L128.827258,308.763299 L128.827258,308.763299 L128.827258,308.763299 Z M138.367802,305.761408 C139.347016,304.694939 140.09769,303.415262 140.542198,302 L138.438922,302 C138.155713,302.701586 137.776131,303.353934 137.316581,303.940639 L138.367802,305.761408 L138.367802,305.761408 L138.367802,305.761408 Z M153.532287,290.716929 C153.308217,290.107588 153.060135,289.50985 152.789188,288.924862 L155.748711,285.866025 L154.748711,284.133975 L150.615975,285.168566 C150.243153,284.640788 149.849567,284.128722 149.436407,283.633558 L151.506097,279.908117 L150.091883,278.493903 L146.366442,280.563593 C145.871278,280.150433 145.359212,279.756847 144.831434,279.384025 L145.866025,275.251289 L144.133975,274.251289 L141.075138,277.210812 C140.49015,276.939865 139.892412,276.691783 139.283071,276.467713 L139.212859,272.212896 L137.281007,271.695258 L135.091349,275.347341 C134.45918,275.238764 133.818561,275.154915 133.170521,275.096824 L132,271 L130,271 L128.829479,275.096824 C128.181439,275.154915 127.54082,275.238764 126.908651,275.347341 L124.718993,271.695258 L122.787141,272.212896 L122.716929,276.467713 C122.107588,276.691783 121.50985,276.939865 120.924862,277.210812 L117.866025,274.251289 L116.133975,275.251289 L117.168566,279.384025 C116.640788,279.756847 116.128722,280.150433 115.633558,280.563593 L111.908117,278.493903 L110.493903,279.908117 L112.563593,283.633558 C112.150433,284.128722 111.756847,284.640788 111.384025,285.168566 L107.251289,284.133975 L106.251289,285.866025 L109.210812,288.924862 C108.939865,289.50985 108.691783,290.107588 108.467713,290.716929 L104.212896,290.787141 L103.695258,292.718993 L107.347341,294.908651 C107.238764,295.54082 107.154915,296.181439 107.096824,296.829479 L103,298 L103,300 L107.096824,301.170521 C107.154915,301.818561 107.238764,302.45918 107.347341,303.091349 L103.695258,305.281007 L104.212896,307.212859 L108.467713,307.283071 C108.691783,307.892412 108.939865,308.49015 109.210812,309.075138 L106.251289,312.133975 L107.251289,313.866025 L111.384025,312.831434 C111.756847,313.359212 112.150433,313.871278 112.563593,314.366442 L110.493903,318.091883 L111.908117,319.506097 L115.633558,317.436407 C116.128722,317.849567 116.640788,318.243153 117.168566,318.615975 L116.133975,322.748711 L117.866025,323.748711 L120.924862,320.789188 C121.50985,321.060135 122.107588,321.308217 122.716929,321.532287 L122.787141,325.787104 L124.718993,326.304742 L126.908651,322.652659 C127.54082,322.761236 128.181439,322.845085 128.829479,322.903176 L130,327 L132,327 L133.170521,322.903176 C133.818561,322.845085 134.45918,322.761236 135.091349,322.652659 L137.281007,326.304742 L139.212859,325.787104 L139.283071,321.532287 C139.892412,321.308217 140.49015,321.060135 141.075138,320.789188 L144.133975,323.748711 L145.866025,322.748711 L144.831434,318.615975 C145.359212,318.243153 145.871278,317.849567 146.366442,317.436407 L150.091883,319.506097 L151.506097,318.091883 L149.436407,314.366442 C149.849567,313.871278 150.243153,313.359212 150.615975,312.831434 L154.748711,313.866025 L155.748711,312.133975 L152.789188,309.075138 C153.060135,308.49015 153.308217,307.892412 153.532287,307.283071 L157.787104,307.212859 L158.304742,305.281007 L154.652659,303.091349 C154.761236,302.45918 154.845085,301.818561 154.903176,301.170521 L159,300 L159,298 L154.903176,296.829479 C154.845085,296.181439 154.761236,295.54082 154.652659,294.908651 L158.304742,292.718993 L157.787104,290.787141 L153.532287,290.716929 L153.532287,290.716929 L153.532287,290.716929 Z M109,299 C109,311.150264 118.849736,321 131,321 C143.150264,321 153,311.150264 153,299 C153,286.849736 143.150264,277 131,277 C118.849736,277 109,286.849736 109,299 L109,299 L109,299 Z M127,299 C127,301.209139 128.790861,303 131,303 C133.209139,303 135,301.209139 135,299 C135,296.790861 133.209139,295 131,295 C128.790861,295 127,296.790861 127,299 L127,299 L127,299 Z M129,299 C129,300.104569 129.895431,301 131,301 C132.104569,301 133,300.104569 133,299 C133,297.895431 132.104569,297 131,297 C129.895431,297 129,297.895431 129,299 L129,299 L129,299 Z M144,299 C144,301.209139 145.790861,303 148,303 C150.209139,303 152,301.209139 152,299 C152,296.790861 150.209139,295 148,295 C145.790861,295 144,296.790861 144,299 L144,299 L144,299 Z M146,299 C146,300.104569 146.895431,301 148,301 C149.104569,301 150,300.104569 150,299 C150,297.895431 149.104569,297 148,297 C146.895431,297 146,297.895431 146,299 L146,299 L146,299 Z M137.5,310.25833 C135.58683,311.3629 134.931329,313.809261 136.035898,315.722432 C137.140468,317.635602 139.58683,318.291103 141.5,317.186533 C143.41317,316.081964 144.068671,313.635602 142.964102,311.722432 C141.859532,309.809261 139.41317,309.153761 137.5,310.25833 L137.5,310.25833 L137.5,310.25833 Z M124.5,310.25833 C122.58683,309.153761 120.140468,309.809261 119.035898,311.722432 C117.931329,313.635602 118.58683,316.081964 120.5,317.186533 C122.41317,318.291103 124.859532,317.635602 125.964102,315.722432 C127.068671,313.809261 126.41317,311.3629 124.5,310.25833 L124.5,310.25833 L124.5,310.25833 Z M118,299 C118,296.790861 116.209139,295 114,295 C111.790861,295 110,296.790861 110,299 C110,301.209139 111.790861,303 114,303 C116.209139,303 118,301.209139 118,299 L118,299 L118,299 Z M124.5,287.74167 C126.41317,286.6371 127.068671,284.190739 125.964102,282.277568 C124.859532,280.364398 122.41317,279.708897 120.5,280.813467 C118.58683,281.918036 117.931329,284.364398 119.035898,286.277568 C120.140468,288.190739 122.58683,288.846239 124.5,287.74167 L124.5,287.74167 L124.5,287.74167 Z M137.5,287.74167 C139.41317,288.846239 141.859532,288.190739 142.964102,286.277568 C144.068671,284.364398 143.41317,281.918036 141.5,280.813467 C139.58683,279.708897 137.140468,280.364398 136.035898,282.277568 C134.931329,284.190739 135.58683,286.6371 137.5,287.74167 L137.5,287.74167 L137.5,287.74167 Z M138.5,311.990381 C137.543415,312.542666 137.215664,313.765847 137.767949,314.722432 C138.320234,315.679017 139.543415,316.006767 140.5,315.454483 C141.456585,314.902198 141.784336,313.679017 141.232051,312.722432 C140.679766,311.765847 139.456585,311.438096 138.5,311.990381 L138.5,311.990381 L138.5,311.990381 Z M123.5,311.990381 C122.543415,311.438096 121.320234,311.765847 120.767949,312.722432 C120.215664,313.679017 120.543415,314.902198 121.5,315.454483 C122.456585,316.006767 123.679766,315.679017 124.232051,314.722432 C124.784336,313.765847 124.456585,312.542666 123.5,311.990381 L123.5,311.990381 L123.5,311.990381 Z M116,299 C116,297.895431 115.104569,297 114,297 C112.895431,297 112,297.895431 112,299 C112,300.104569 112.895431,301 114,301 C115.104569,301 116,300.104569 116,299 L116,299 L116,299 Z M123.5,286.009619 C124.456585,285.457334 124.784336,284.234153 124.232051,283.277568 C123.679766,282.320983 122.456585,281.993233 121.5,282.545517 C120.543415,283.097802 120.215664,284.320983 120.767949,285.277568 C121.320234,286.234153 122.543415,286.561904 123.5,286.009619 L123.5,286.009619 L123.5,286.009619 Z M138.5,286.009619 C139.456585,286.561904 140.679766,286.234153 141.232051,285.277568 C141.784336,284.320983 141.456585,283.097802 140.5,282.545517 C139.543415,281.993233 138.320234,282.320983 137.767949,283.277568 C137.215664,284.234153 137.543415,285.457334 138.5,286.009619 L138.5,286.009619 L138.5,286.009619 Z" id="Combined-Shape"></path>
            <path d="M248.996741,275.801966 C248.353714,277.409096 248,279.163241 248,281 C248,282.836759 248.353714,284.590904 248.996741,286.198034 L215.124134,305.754393 C211.214174,298.365669 209,289.941409 209,281 C209,272.058591 211.214174,263.634331 215.124134,256.245607 L248.996739,275.801965 L248.996741,275.801966 Z M250.999489,272.339451 C253.173015,269.582466 256.360764,267.66233 260,267.141778 L260,228.037039 C241.933301,228.707309 226.177829,238.42067 217.127337,252.783355 L250.999489,272.339451 L250.999489,272.339451 Z M250.999489,289.660549 C253.173015,292.417534 256.360764,294.33767 260,294.858222 L260,333.962961 C241.933301,333.292691 226.177829,323.57933 217.127337,309.216645 L250.999489,289.660549 L250.999489,289.660549 Z M264,294.858222 C267.639236,294.33767 270.826985,292.417534 273.000511,289.660549 L306.872663,309.216645 C297.82217,323.579332 282.066694,333.292694 264.000005,333.962961 L264,294.858222 L264,294.858222 Z M275.003259,286.198034 C275.646286,284.590904 276,282.836759 276,281 C276,279.163241 275.646286,277.409096 275.003259,275.801966 L308.875866,256.245607 C312.785826,263.634331 315,272.058591 315,281 C315,289.941409 312.785826,298.365669 308.875866,305.754393 L275.003261,286.198035 L275.003259,286.198034 Z M273.000511,272.339451 C270.826985,269.582466 267.639236,267.66233 264,267.141778 L264,228.037039 C282.066699,228.707309 297.822171,238.42067 306.872663,252.783355 L273.000511,272.339451 L273.000511,272.339451 Z M215.958461,259.036707 C212.779765,265.68823 211,273.136272 211,281 C211,288.863728 212.779765,296.31177 215.958461,302.963293 L246.579965,285.283959 C246.201987,283.92048 246,282.483828 246,281 C246,279.516172 246.201987,278.07952 246.579965,276.716041 L215.958461,259.036707 L215.958461,259.036707 Z M219.964637,252.11207 C228.451154,239.786727 242.218226,231.378937 258,230.154554 L258,265.50407 C255.14021,266.240129 252.589853,267.746969 250.583588,269.78993 L219.964637,252.11207 L219.964637,252.11207 Z M219.964637,309.88793 C228.451154,322.213273 242.218226,330.621063 258,331.845446 L258,296.49593 C255.14021,295.759871 252.589853,294.253031 250.583588,292.21007 L219.964637,309.88793 L219.964637,309.88793 Z M266,331.845446 C281.781774,330.621063 295.548846,322.213273 304.035363,309.88793 L273.416412,292.21007 C271.410147,294.253031 268.85979,295.759871 266,296.49593 L266,331.845446 L266,331.845446 Z M308.041539,302.963293 C311.220235,296.31177 313,288.863728 313,281 C313,273.136272 311.220235,265.68823 308.041539,259.036707 L277.420035,276.716041 C277.798013,278.07952 278,279.516172 278,281 C278,282.483828 277.798013,283.92048 277.420035,285.283959 L308.041539,302.963293 L308.041539,302.963293 Z M304.035363,252.11207 C295.548846,239.786727 281.781774,231.378937 266,230.154554 L266,265.50407 C268.85979,266.240129 271.410147,267.746969 273.416412,269.78993 L304.035363,252.11207 L304.035363,252.11207 Z M244.417203,225.713001 C241.26675,226.714045 238.232962,227.97692 235.3414,229.476063 L230.154701,223.175657 L227.845299,224.50899 L230.710026,232.155715 C227.945295,233.930495 225.341112,235.933591 222.924097,238.138383 L216.273761,233.388143 L214.388143,235.273761 L219.138383,241.924097 C216.933591,244.341112 214.930495,246.945295 213.155715,249.710026 L205.50899,246.845299 L204.175657,249.154701 L210.476063,254.3414 C208.97692,257.232962 207.714045,260.26675 206.713001,263.417203 L198.593988,262.630042 L197.903803,265.205844 L205.331768,268.585065 C204.643179,271.742706 204.211796,274.996442 204.060673,278.323221 L196,279.666667 L196,282.333333 L204.060673,283.676779 C204.211796,287.003558 204.643179,290.257294 205.331768,293.414935 L197.903803,296.794156 L198.593988,299.369958 L206.713001,298.582797 C207.714045,301.73325 208.97692,304.767038 210.476063,307.6586 L204.175657,312.845299 L205.50899,315.154701 L213.155715,312.289974 C214.930495,315.054705 216.933591,317.658888 219.138383,320.075903 L214.388143,326.726239 L216.273761,328.611857 L222.924097,323.861617 C225.341112,326.066409 227.945295,328.069505 230.710026,329.844285 L227.845299,337.49101 L230.154701,338.824343 L235.3414,332.523937 C238.232962,334.02308 241.26675,335.285955 244.417203,336.286999 L243.630042,344.406012 L246.205844,345.096197 L249.585065,337.668232 C252.742706,338.356821 255.996442,338.788204 259.323221,338.939327 L260.666667,347 L263.333333,347 L264.676779,338.939327 C268.003558,338.788204 271.257294,338.356821 274.414935,337.668232 L277.794156,345.096197 L280.369958,344.406012 L279.582797,336.286999 C282.73325,335.285955 285.767038,334.02308 288.6586,332.523937 L293.845299,338.824343 L296.154701,337.49101 L293.289974,329.844285 C296.054705,328.069505 298.658888,326.066409 301.075903,323.861617 L307.726239,328.611857 L309.611857,326.726239 L304.861617,320.075903 C307.066409,317.658888 309.069505,315.054705 310.844285,312.289974 L318.49101,315.154701 L319.824343,312.845299 L313.523937,307.6586 C315.02308,304.767038 316.285955,301.73325 317.286999,298.582797 L325.406012,299.369958 L326.096197,296.794156 L318.668232,293.414935 C319.356821,290.257294 319.788204,287.003558 319.939327,283.676779 L328,282.333333 L328,279.666667 L319.939327,278.323221 C319.788204,274.996442 319.356821,271.742706 318.668232,268.585065 L326.096197,265.205844 L325.406012,262.630042 L317.286999,263.417203 C316.285955,260.26675 315.02308,257.232962 313.523937,254.3414 L319.824343,249.154701 L318.49101,246.845299 L310.844285,249.710026 C309.069505,246.945295 307.066409,244.341112 304.861617,241.924097 L309.611857,235.273761 L307.726239,233.388143 L301.075903,238.138383 C298.658888,235.933591 296.054705,233.930495 293.289974,232.155715 L296.154701,224.50899 L293.845299,223.175657 L288.6586,229.476063 C285.767038,227.97692 282.73325,226.714045 279.582797,225.713001 L280.369958,217.593988 L277.794156,216.903803 L274.414935,224.331768 C271.257294,223.643179 268.003558,223.211796 264.676779,223.060673 L263.333333,215 L260.666667,215 L259.323221,223.060673 C255.996442,223.211796 252.742706,223.643179 249.585065,224.331768 L246.205844,216.903803 L243.630042,217.593988 L244.417203,225.713001 L244.417203,225.713001 Z M242.299072,224.309302 C240.086292,225.078183 237.932414,225.972962 235.846013,226.985065 L230.598076,220.610273 L225.401924,223.610273 L228.301505,231.350034 C226.373596,232.661093 224.526039,234.081501 222.767752,235.602342 L216.038059,230.795419 L211.795419,235.038059 L216.602342,241.767752 C215.081501,243.526039 213.661093,245.373596 212.350034,247.301505 L204.610273,244.401924 L201.610273,249.598076 L207.985065,254.846013 C206.972962,256.932414 206.078183,259.086292 205.309302,261.299072 L197.093501,260.502527 L195.540587,266.298082 L203.058965,269.718436 C202.628071,271.983311 202.324488,274.2933 202.155943,276.640676 L194,278 L194,284 L202.155943,285.359324 C202.324488,287.706699 202.628071,290.016687 203.058964,292.281562 L195.540587,295.701918 L197.093501,301.497473 L205.309302,300.700928 C206.078183,302.913708 206.972962,305.067586 207.985065,307.153987 L201.610273,312.401924 L204.610273,317.598076 L212.350034,314.698495 C213.661093,316.626404 215.081501,318.473961 216.602342,320.232248 L211.795419,326.961941 L216.038059,331.204581 L222.767752,326.397658 C224.526039,327.918499 226.373596,329.338907 228.301505,330.649966 L225.401924,338.389727 L230.598076,341.389727 L235.846013,335.014935 C237.932414,336.027038 240.086292,336.921817 242.299072,337.690698 L241.502527,345.906499 L247.298082,347.459413 L250.718436,339.941035 C252.983311,340.371929 255.2933,340.675512 257.640676,340.844057 L259,349 L265,349 L266.359324,340.844057 C268.706699,340.675512 271.016687,340.371929 273.281562,339.941036 L276.701918,347.459413 L282.497473,345.906499 L281.700928,337.690698 C283.913708,336.921817 286.067586,336.027038 288.153987,335.014935 L293.401924,341.389727 L298.598076,338.389727 L295.698495,330.649966 C297.626404,329.338907 299.473961,327.918499 301.232248,326.397658 L307.961941,331.204581 L312.204581,326.961941 L307.397658,320.232248 C308.918499,318.473961 310.338907,316.626404 311.649966,314.698495 L319.389727,317.598076 L322.389727,312.401924 L316.014935,307.153987 C317.027038,305.067586 317.921817,302.913708 318.690698,300.700928 L326.906499,301.497473 L328.459413,295.701918 L320.941035,292.281564 C321.371929,290.016689 321.675512,287.7067 321.844057,285.359324 L330,284 L330,278 L321.844057,276.640676 C321.675512,274.293301 321.371929,271.983313 320.941036,269.718438 L328.459413,266.298082 L326.906499,260.502527 L318.690698,261.299072 C317.921817,259.086292 317.027038,256.932414 316.014935,254.846013 L322.389727,249.598076 L319.389727,244.401924 L311.649966,247.301505 C310.338907,245.373596 308.918499,243.526039 307.397658,241.767752 L312.204581,235.038059 L307.961941,230.795419 L301.232248,235.602342 C299.473961,234.081501 297.626404,232.661093 295.698495,231.350034 L298.598076,223.610273 L293.401924,220.610273 L288.153987,226.985065 C286.067586,225.972962 283.913708,225.078183 281.700928,224.309302 L282.497473,216.093501 L276.701918,214.540587 L273.281564,222.058965 C271.016689,221.628071 268.7067,221.324488 266.359324,221.155943 L265,213 L259,213 L257.640676,221.155943 C255.2933,221.324488 252.983311,221.628071 250.718436,222.058965 L247.298082,214.540587 L241.502527,216.093501 L242.299072,224.309302 L242.299072,224.309302 Z M262,290 C266.970563,290 271,285.970563 271,281 C271,276.029437 266.970563,272 262,272 C257.029437,272 253,276.029437 253,281 C253,285.970563 257.029437,290 262,290 L262,290 Z M262,288 C265.865993,288 269,284.865993 269,281 C269,277.134007 265.865993,274 262,274 C258.134007,274 255,277.134007 255,281 C255,284.865993 258.134007,288 262,288 L262,288 Z" id="Combined-Shape"></path>
            <path d="M0,244.514243 L1.76090764,244.767949 L8.1705257,247.839102 C9.57045872,245.771847 11.179641,243.857856 12.9676591,242.127541 L8.8280439,236.345664 L7.8189344,233.276186 L9.04460551,232.247726 L11.8922217,233.774514 L16.8656268,238.853417 C18.8719983,237.396066 21.0346799,236.140825 23.3237715,235.117594 L21.4137486,228.277258 L21.5153193,225.047756 L23.0188275,224.500523 L25.1725191,226.909177 L28.1061076,233.376626 C30.4656538,232.703642 32.9241434,232.265344 35.4547242,232.088586 L36,225 L37.2,222 L38.8,222 L40,225 L40.5452758,232.088586 C43.0758566,232.265344 45.5343462,232.703642 47.8938924,233.376626 L50.8274809,226.909177 L52.9811725,224.500523 L54.4846807,225.047756 L54.5862514,228.277258 L52.6762285,235.117594 C54.9653201,236.140825 57.1280017,237.396066 59.1343732,238.853417 L64.1077783,233.774514 L66.9553945,232.247726 L68.1810656,233.276186 L67.1719561,236.345664 L63.0323409,242.127541 C64.820359,243.857856 66.4295413,245.771847 67.8294743,247.839102 L74.2390924,244.767949 L77.4371686,244.30718 L78.2371686,245.69282 L76.2390924,248.232051 L70.378397,252.244758 C71.4602406,254.463898 72.3206633,256.810813 72.9309118,259.256749 L79.999437,258.563513 L83.1622381,259.224338 L83.4400752,260.80003 L80.6940297,262.502744 L73.8091373,264.270318 C73.9353326,265.496348 74,266.740622 74,268 C74,269.259378 73.9353326,270.503652 73.8091373,271.729682 L80.6940297,273.497256 L83.4400752,275.19997 L83.1622381,276.775662 L79.999437,277.436487 L72.9309118,276.743251 C72.3206633,279.189187 71.4602406,281.536102 70.378397,283.755242 L76.2390924,287.767949 L78.2371686,290.30718 L77.4371686,291.69282 L74.2390924,291.232051 L67.8294743,288.160898 C66.4295413,290.228153 64.820359,292.142144 63.0323409,293.872459 L67.1719561,299.654336 L68.1810656,302.723814 L66.9553945,303.752274 L64.1077783,302.225486 L59.1343732,297.146583 C57.1280017,298.603934 54.9653201,299.859175 52.6762285,300.882406 L54.5862514,307.722742 L54.4846807,310.952244 L52.9811725,311.499477 L50.8274809,309.090823 L47.8938924,302.623374 C45.5343462,303.296358 43.0758566,303.734656 40.5452758,303.911414 L40,311 L38.8,314 L37.2,314 L36,311 L35.4547242,303.911414 C32.9241434,303.734656 30.4656538,303.296358 28.1061076,302.623374 L25.1725191,309.090823 L23.0188275,311.499477 L21.5153193,310.952244 L21.4137486,307.722742 L23.3237715,300.882406 C21.0346799,299.859175 18.8719983,298.603934 16.8656268,297.146583 L11.8922217,302.225486 L9.04460551,303.752274 L7.8189344,302.723814 L8.8280439,299.654336 L12.9676591,293.872459 C11.179641,292.142144 9.57045872,290.228153 8.1705257,288.160898 L1.76090764,291.232051 L0,291.485757 L0,287.604247 L5.62160298,283.755242 C4.53975939,281.536102 3.67933675,279.189187 3.06908824,276.743251 L0,277.044248 L0,272.292147 L2.19086271,271.729682 C2.06466738,270.503652 2,269.259378 2,268 C2,266.740622 2.06466738,265.496348 2.19086271,264.270318 L0,263.707853 L0,258.955752 L3.06908824,259.256749 C3.67933675,256.810813 4.53975939,254.463898 5.62160298,252.244758 L0,248.395753 L0,244.514243 L0,244.514243 Z M4.26325641e-14,242.638115 L2.76090764,243.035898 L7.51283535,245.312773 C8.39767177,244.125661 9.35020884,242.991982 10.3647287,241.917452 L7.29595501,237.631239 L5.61410585,232.515442 L8.67828362,229.944292 L13.4243106,232.488939 L17.109572,236.252374 C18.3414706,235.440126 19.6234416,234.697655 20.9498579,234.030587 L20.9498579,234.030587 L19.5343634,228.961298 L19.7036479,223.578794 L23.4624184,222.210714 L27.0519043,226.225137 L29.2259047,231.017982 C30.6531709,230.680637 32.1115427,230.423779 33.5959645,230.252462 L34,225 L36,220 L40,220 L42,225 L42.4040355,230.252462 C43.8884573,230.423779 45.3468291,230.680637 46.7740953,231.017982 L48.9480957,226.225137 L52.5375816,222.210714 L56.2963521,223.578794 L56.4656366,228.961298 L55.0501421,234.030587 C56.3765584,234.697655 57.6585294,235.440126 58.890428,236.252374 L62.5756894,232.488939 L67.3217164,229.944292 L70.3858942,232.515442 L68.704045,237.631239 L65.6352713,241.917452 C66.6497912,242.991982 67.6023282,244.125661 68.4871647,245.312773 L73.2390924,243.035898 L78.5692194,242.267949 L80.5692194,245.732051 L77.2390924,249.964102 L72.8974825,252.93672 C73.4816008,254.288135 73.9895169,255.680181 74.4158143,257.107443 L79.6521407,256.593897 L84.9234758,257.695272 L85.6180685,261.634503 L81.0413261,264.472359 L75.9364017,265.782958 C75.9786068,266.516588 76,267.255796 76,268 C76,268.744204 75.9786068,269.483412 75.9364017,270.217042 L81.0413261,271.527641 L85.6180685,274.365497 L84.9234758,278.304728 L79.6521407,279.406103 L74.4158143,278.892557 C73.9895169,280.319819 73.4816008,281.711865 72.8974825,283.06328 L77.2390924,286.035898 L80.5692194,290.267949 L78.5692194,293.732051 L73.2390924,292.964102 L68.4871647,290.687227 C67.6023282,291.874339 66.6497912,293.008018 65.6352713,294.082548 L68.704045,298.368761 L70.3858942,303.484558 L67.3217164,306.055708 L62.5756894,303.511061 L58.890428,299.747626 C57.6585294,300.559874 56.3765584,301.302345 55.0501421,301.969413 L56.4656366,307.038702 L56.2963521,312.421206 L52.5375816,313.789286 L48.9480957,309.774863 L46.7740921,304.982019 C45.3468269,305.319363 43.8884561,305.576221 42.4040355,305.747538 L42,311 L40,316 L36,316 L34,311 L33.5959645,305.747538 C32.1115427,305.576221 30.6531709,305.319363 29.2259047,304.982018 L27.0519043,309.774863 L23.4624184,313.789286 L19.7036479,312.421206 L19.5343634,307.038702 L20.9498579,301.969413 C19.6234416,301.302345 18.3414706,300.559874 17.109572,299.747626 L13.4243106,303.511061 L8.67828362,306.055708 L5.61410585,303.484558 L7.29595501,298.368761 L10.3647287,294.082548 C9.35020884,293.008018 8.39767177,291.874339 7.51283535,290.687227 L2.76090764,292.964102 L4.26325641e-14,293.361885 L4.26325641e-14,285.187515 L3.10251752,283.06328 C2.51839915,281.711865 2.01048315,280.319819 1.58418575,278.892557 L4.26325641e-14,279.047924 L4.26325641e-14,270.23337 L0.0635983008,270.217042 C0.0213932443,269.483412 0,268.744204 0,268 C0,267.255796 0.0213932443,266.516588 0.0635983008,265.782958 L4.26325641e-14,265.76663 L4.26325641e-14,256.952076 L1.58418575,257.107443 C2.01048315,255.680181 2.51839915,254.288135 3.10251752,252.93672 L4.26325641e-14,250.812485 L4.26325641e-14,242.638115 L4.26325641e-14,242.638115 Z M38,272 C40.209139,272 42,270.209139 42,268 C42,265.790861 40.209139,264 38,264 C35.790861,264 34,265.790861 34,268 C34,270.209139 35.790861,272 38,272 L38,272 L38,272 Z M38,270 C39.1045695,270 40,269.104569 40,268 C40,266.895431 39.1045695,266 38,266 C36.8954305,266 36,266.895431 36,268 C36,269.104569 36.8954305,270 38,270 L38,270 L38,270 Z M38,244 C40.209139,244 42,242.209139 42,240 C42,237.790861 40.209139,236 38,236 C35.790861,236 34,237.790861 34,240 C34,242.209139 35.790861,244 38,244 L38,244 L38,244 Z M62,268 C62,270.209139 63.790861,272 66,272 C68.209139,272 70,270.209139 70,268 C70,265.790861 68.209139,264 66,264 C63.790861,264 62,265.790861 62,268 L62,268 L62,268 Z M38,292 C35.790861,292 34,293.790861 34,296 C34,298.209139 35.790861,300 38,300 C40.209139,300 42,298.209139 42,296 C42,293.790861 40.209139,292 38,292 L38,292 L38,292 Z M14,268 C14,265.790861 12.209139,264 10,264 C7.790861,264 6,265.790861 6,268 C6,270.209139 7.790861,272 10,272 C12.209139,272 14,270.209139 14,268 L14,268 L14,268 Z M38,242 C39.1045695,242 40,241.104569 40,240 C40,238.895431 39.1045695,238 38,238 C36.8954305,238 36,238.895431 36,240 C36,241.104569 36.8954305,242 38,242 L38,242 L38,242 Z M64,268 C64,269.104569 64.8954305,270 66,270 C67.1045695,270 68,269.104569 68,268 C68,266.895431 67.1045695,266 66,266 C64.8954305,266 64,266.895431 64,268 L64,268 L64,268 Z M38,294 C36.8954305,294 36,294.895431 36,296 C36,297.104569 36.8954305,298 38,298 C39.1045695,298 40,297.104569 40,296 C40,294.895431 39.1045695,294 38,294 L38,294 L38,294 Z M12,268 C12,266.895431 11.1045695,266 10,266 C8.8954305,266 8,266.895431 8,268 C8,269.104569 8.8954305,270 10,270 C11.1045695,270 12,269.104569 12,268 L12,268 L12,268 Z M15.372583,290.627417 C20.0588745,295.313708 27.6568542,295.313708 32.3431458,290.627417 C37.0294373,285.941125 37.0294373,278.343146 32.3431458,273.656854 C27.6568542,268.970563 20.0588745,268.970563 15.372583,273.656854 C10.6862915,278.343146 10.6862915,285.941125 15.372583,290.627417 L15.372583,290.627417 L15.372583,290.627417 Z M15.372583,245.372583 C10.6862915,250.058875 10.6862915,257.656854 15.372583,262.343146 C20.0588745,267.029437 27.6568542,267.029437 32.3431458,262.343146 C37.0294373,257.656854 37.0294373,250.058875 32.3431458,245.372583 C27.6568542,240.686292 20.0588745,240.686292 15.372583,245.372583 L15.372583,245.372583 L15.372583,245.372583 Z M60.627417,245.372583 C55.9411255,240.686292 48.3431458,240.686292 43.6568542,245.372583 C38.9705627,250.058875 38.9705627,257.656854 43.6568542,262.343146 C48.3431458,267.029437 55.9411255,267.029437 60.627417,262.343146 C65.3137085,257.656854 65.3137085,250.058875 60.627417,245.372583 L60.627417,245.372583 L60.627417,245.372583 Z M60.627417,290.627417 C65.3137085,285.941125 65.3137085,278.343146 60.627417,273.656854 C55.9411255,268.970563 48.3431458,268.970563 43.6568542,273.656854 C38.9705627,278.343146 38.9705627,285.941125 43.6568542,290.627417 C48.3431458,295.313708 55.9411255,295.313708 60.627417,290.627417 L60.627417,290.627417 L60.627417,290.627417 Z M45.0710678,260.928932 C48.9763107,264.834175 55.3079605,264.834175 59.2132034,260.928932 C63.1184464,257.023689 63.1184464,250.692039 59.2132034,246.786797 C55.3079605,242.881554 48.9763107,242.881554 45.0710678,246.786797 C41.1658249,250.692039 41.1658249,257.023689 45.0710678,260.928932 L45.0710678,260.928932 L45.0710678,260.928932 Z M45.0710678,275.071068 C41.1658249,278.976311 41.1658249,285.307961 45.0710678,289.213203 C48.9763107,293.118446 55.3079605,293.118446 59.2132034,289.213203 C63.1184464,285.307961 63.1184464,278.976311 59.2132034,275.071068 C55.3079605,271.165825 48.9763107,271.165825 45.0710678,275.071068 L45.0710678,275.071068 L45.0710678,275.071068 Z M30.9289322,275.071068 C27.0236893,271.165825 20.6920395,271.165825 16.7867966,275.071068 C12.8815536,278.976311 12.8815536,285.307961 16.7867966,289.213203 C20.6920395,293.118446 27.0236893,293.118446 30.9289322,289.213203 C34.8341751,285.307961 34.8341751,278.976311 30.9289322,275.071068 L30.9289322,275.071068 L30.9289322,275.071068 Z M30.9289322,260.928932 C34.8341751,257.023689 34.8341751,250.692039 30.9289322,246.786797 C27.0236893,242.881554 20.6920395,242.881554 16.7867966,246.786797 C12.8815536,250.692039 12.8815536,257.023689 16.7867966,260.928932 C20.6920395,264.834175 27.0236893,264.834175 30.9289322,260.928932 L30.9289322,260.928932 L30.9289322,260.928932 Z" id="Combined-Shape"></path>
            <path d="M261.822343,15.5387489 C260.778665,15.9006807 259.76303,16.3226168 258.779565,16.8004293 L255.866025,13.7871871 L254.133975,14.7871871 L255.287795,18.8206649 C254.378591,19.4381737 253.507627,20.1077748 252.679194,20.8251785 L249.07969,18.6654762 L247.665476,20.0796898 L249.825179,23.6791936 C249.107775,24.5076272 248.438174,25.3785909 247.820665,26.287795 L243.787187,25.1339746 L242.787187,26.8660254 L245.800429,29.7795655 C245.322617,30.7630304 244.900681,31.7786654 244.538749,32.8223428 L240.349193,32.7518647 L239.831555,34.6837164 L243.497336,36.7187249 C243.29357,37.786251 243.150418,38.8752823 243.071597,39.9821007 L239,41 L239,43 L243.071597,44.0178993 C243.150418,45.1247177 243.29357,46.213749 243.497336,47.2812751 L239.831555,49.3162836 L240.349193,51.2481353 L244.538749,51.1776572 C244.900681,52.2213346 245.322617,53.2369696 245.800429,54.2204345 L242.787187,57.1339746 L243.787187,58.8660254 L247.820665,57.712205 C248.438174,58.6214091 249.107775,59.4923728 249.825179,60.3208064 L247.665476,63.9203102 L249.07969,65.3345238 L252.679194,63.1748215 C253.507627,63.8922252 254.378591,64.5618263 255.287795,65.1793351 L254.133975,69.2128129 L255.866025,70.2128129 L258.779565,67.1995707 C259.76303,67.6773832 260.778665,68.0993193 261.822343,68.4612511 L261.751865,72.6508074 L263.683716,73.1684455 L265.718725,69.5026636 C266.786251,69.7064297 267.875282,69.8495821 268.982101,69.9284029 L270,74 L272,74 L273.017899,69.9284029 C274.124718,69.8495821 275.213749,69.7064297 276.281275,69.5026636 L278.316284,73.1684455 L280.248135,72.6508074 L280.177657,68.4612511 C281.221335,68.0993193 282.23697,67.6773832 283.220435,67.1995707 L286.133975,70.2128129 L287.866025,69.2128129 L286.712205,65.1793351 C287.621409,64.5618263 288.492373,63.8922252 289.320806,63.1748215 L292.92031,65.3345238 L294.334524,63.9203102 L292.174821,60.3208064 C292.892225,59.4923728 293.561826,58.6214091 294.179335,57.712205 L298.212813,58.8660254 L299.212813,57.1339746 L296.199571,54.2204345 C296.677383,53.2369696 297.099319,52.2213346 297.461251,51.1776572 L301.650807,51.2481353 L302.168445,49.3162836 L298.502664,47.2812751 C298.70643,46.213749 298.849582,45.1247177 298.928403,44.0178993 L303,43 L303,41 L298.928403,39.9821007 C298.849582,38.8752823 298.70643,37.786251 298.502664,36.7187249 L302.168445,34.6837164 L301.650807,32.7518647 L297.461251,32.8223428 C297.099319,31.7786654 296.677383,30.7630304 296.199571,29.7795655 L299.212813,26.8660254 L298.212813,25.1339746 L294.179335,26.287795 C293.561826,25.3785909 292.892225,24.5076272 292.174821,23.6791936 L294.334524,20.0796898 L292.92031,18.6654762 L289.320806,20.8251785 C288.492373,20.1077748 287.621409,19.4381737 286.712205,18.8206649 L287.866025,14.7871871 L286.133975,13.7871871 L283.220435,16.8004293 C282.23697,16.3226168 281.221335,15.9006807 280.177657,15.5387489 L280.248135,11.3491926 L278.316284,10.8315545 L276.281275,14.4973364 C275.213749,14.2935703 274.124718,14.1504179 273.017899,14.0715971 L272,10 L270,10 L268.982101,14.0715971 C267.875282,14.1504179 266.786251,14.2935703 265.718725,14.4973364 L263.683716,10.8315545 L261.751865,11.3491926 L261.822343,15.5387489 L261.822343,15.5387489 Z M271,68 C285.359403,68 297,56.3594035 297,42 C297,27.6405965 285.359403,16 271,16 C256.640597,16 245,27.6405965 245,42 C245,56.3594035 256.640597,68 271,68 L271,68 Z M271,59 C280.388841,59 288,51.3888407 288,42 C288,32.6111593 280.388841,25 271,25 C261.611159,25 254,32.6111593 254,42 C254,51.3888407 261.611159,59 271,59 L271,59 Z M271,57 C279.284271,57 286,50.2842712 286,42 C286,33.7157288 279.284271,27 271,27 C262.715729,27 256,33.7157288 256,42 C256,50.2842712 262.715729,57 271,57 L271,57 Z M271,49 C274.865993,49 278,45.8659932 278,42 C278,38.1340068 274.865993,35 271,35 C267.134007,35 264,38.1340068 264,42 C264,45.8659932 267.134007,49 271,49 L271,49 Z M271,47 C273.761424,47 276,44.7614237 276,42 C276,39.2385763 273.761424,37 271,37 C268.238576,37 266,39.2385763 266,42 C266,44.7614237 268.238576,47 271,47 L271,47 Z M271,33 C272.104569,33 273,32.1045695 273,31 C273,29.8954305 272.104569,29 271,29 C269.895431,29 269,29.8954305 269,31 C269,32.1045695 269.895431,33 271,33 L271,33 Z M280,42 C280,43.1045695 280.895431,44 282,44 C283.104569,44 284,43.1045695 284,42 C284,40.8954305 283.104569,40 282,40 C280.895431,40 280,40.8954305 280,42 L280,42 Z M271,51 C269.895431,51 269,51.8954305 269,53 C269,54.1045695 269.895431,55 271,55 C272.104569,55 273,54.1045695 273,53 C273,51.8954305 272.104569,51 271,51 L271,51 Z M262,42 C262,40.8954305 261.104569,40 260,40 C258.895431,40 258,40.8954305 258,42 C258,43.1045695 258.895431,44 260,44 C261.104569,44 262,43.1045695 262,42 L262,42 Z" id="Combined-Shape"></path>
            <path d="M309.933092,95.7851314 C309.649361,96.114919 309.392059,96.4680975 309.164474,96.8413801 L304.896339,96.3407396 L304.278305,98.2428526 L308.026269,100.346967 C308.008869,100.562347 308,100.780138 308,101 C308,101.219862 308.008869,101.437653 308.026269,101.653033 L304.278305,103.757147 L304.896339,105.65926 L309.164474,105.15862 C309.392059,105.531902 309.649361,105.885081 309.933092,106.214869 L308.13756,110.120419 L309.755594,111.295989 L312.913572,108.382905 C313.312773,108.549987 313.728398,108.685636 314.157351,108.786757 L315,113 L317,113 L317.842649,108.786757 C318.271602,108.685636 318.687227,108.549987 319.086428,108.382905 L322.244406,111.295989 L323.86244,110.120419 L322.066908,106.214869 C322.350639,105.885081 322.607941,105.531902 322.835526,105.15862 L327.103661,105.65926 L327.721695,103.757147 L323.973731,101.653033 C323.991131,101.437653 324,101.219862 324,101 C324,100.780138 323.991131,100.562347 323.973731,100.346967 L327.721695,98.2428526 L327.103661,96.3407396 L322.835526,96.8413801 C322.607941,96.4680975 322.350639,96.114919 322.066908,95.7851314 L323.86244,91.8795813 L322.244406,90.7040108 L319.086428,93.6170953 C318.687227,93.4500128 318.271602,93.3143638 317.842649,93.2132428 L317,89 L315,89 L314.157351,93.2132428 C313.728398,93.3143638 313.312773,93.4500128 312.913572,93.6170953 L309.755594,90.7040108 L308.13756,91.8795813 L309.933092,95.7851314 Z M316,106 C318.761424,106 321,103.761424 321,101 C321,98.2385763 318.761424,96 316,96 C313.238576,96 311,98.2385763 311,101 C311,103.761424 313.238576,106 316,106 Z" id="Combined-Shape"></path>
            <path d="M75.7342093,179.205971 C75.1715215,179.658904 74.6589043,180.171522 74.2059708,180.734209 L72.1076952,180.133975 L71.1076952,181.866025 L72.6748287,183.381306 C72.4165846,184.046317 72.2274255,184.745806 72.1161625,185.470959 L70,186 L70,188 L72.1161625,188.529041 C72.2274255,189.254194 72.4165846,189.953683 72.6748287,190.618694 L71.1076952,192.133975 L72.1076952,193.866025 L74.2059708,193.265791 C74.6589043,193.828478 75.1715215,194.341096 75.7342093,194.794029 L75.1339746,196.892305 L76.8660254,197.892305 L78.3813056,196.325171 C79.0463172,196.583415 79.7458055,196.772574 80.4709594,196.883838 L81,199 L83,199 L83.5290406,196.883838 C84.2541945,196.772574 84.9536828,196.583415 85.6186944,196.325171 L87.1339746,197.892305 L88.8660254,196.892305 L88.2657907,194.794029 C88.8284785,194.341096 89.3410957,193.828478 89.7940292,193.265791 L91.8923048,193.866025 L92.8923048,192.133975 L91.3251713,190.618694 C91.5834154,189.953683 91.7725745,189.254194 91.8838375,188.529041 L94,188 L94,186 L91.8838375,185.470959 C91.7725745,184.745806 91.5834154,184.046317 91.3251713,183.381306 L92.8923048,181.866025 L91.8923048,180.133975 L89.7940292,180.734209 C89.3410957,180.171522 88.8284785,179.658904 88.2657907,179.205971 L88.8660254,177.107695 L87.1339746,176.107695 L85.6186944,177.674829 C84.9536828,177.416585 84.2541945,177.227426 83.5290406,177.116162 L83,175 L81,175 L80.4709594,177.116162 C79.7458055,177.227426 79.0463172,177.416585 78.3813056,177.674829 L76.8660254,176.107695 L75.1339746,177.107695 L75.7342093,179.205971 Z M77.8799178,180.141126 C76.7585092,180.816198 75.816198,181.758509 75.1411262,182.879918 L74.9950172,183.132986 C74.3609458,184.279141 74,185.597419 74,187 C74,188.402581 74.3609458,189.720859 74.9950172,190.867014 L75.1411263,191.120082 C75.8161981,192.241491 76.7585093,193.183802 77.8799178,193.858874 L78.1329861,194.004983 C79.2791406,194.639054 80.5974186,195 82,195 C83.4025814,195 84.7208594,194.639054 85.8670139,194.004983 L86.1200822,193.858874 C87.2414908,193.183802 88.183802,192.241491 88.8588738,191.120082 L89.0049828,190.867014 C89.6390542,189.720859 90,188.402581 90,187 C90,185.597419 89.6390542,184.279141 89.0049828,183.132986 L88.8588737,182.879918 C88.1838019,181.758509 87.2414907,180.816198 86.1200822,180.141126 L85.8670139,179.995017 C84.7208594,179.360946 83.4025814,179 82,179 C80.5974186,179 79.2791406,179.360946 78.1329861,179.995017 L77.8799178,180.141126 Z M82,193 C85.3137085,193 88,190.313708 88,187 C88,183.686292 85.3137085,181 82,181 C78.6862915,181 76,183.686292 76,187 C76,190.313708 78.6862915,193 82,193 Z M82,191 C84.209139,191 86,189.209139 86,187 C86,184.790861 84.209139,183 82,183 C79.790861,183 78,184.790861 78,187 C78,189.209139 79.790861,191 82,191 Z" id="Combined-Shape"></path>
            <path d="M360,139.080218 C358.75812,139.622819 357.568842,140.263396 356.441939,140.992178 L360,144.791079 L360,139.080218 L360,139.080218 Z M360,161.757779 L345.827793,168.404073 C345.287716,166.360152 345,164.213676 345,162 C345,154.180764 348.589752,147.199959 354.211131,142.615711 L360,153.11306 L360,161.757779 L360,161.757779 Z M360,184.919782 C353.911966,182.259807 349.088103,177.245246 346.679484,171.027172 L346.679484,171.027172 L360,168.468076 L360,184.919782 L360,184.919782 Z M360,141.28183 C359.870046,141.34467 359.740772,141.408697 359.612194,141.473897 L359.612194,141.473897 L360,141.887953 L360,141.28183 L360,141.28183 Z M360,159.565829 L347.270088,165.535734 C347.09226,164.383167 347,163.202358 347,162 C347,155.671918 349.555596,149.940727 353.691011,145.782204 L353.691011,145.782204 L360,157.222721 L360,159.565829 L360,159.565829 Z M360,182.71817 C355.498127,180.541261 351.813548,176.940258 349.531252,172.500147 L349.531252,172.500147 L360,170.488924 L360,182.71817 L360,182.71817 Z M360,190.645639 L355.53988,197.225759 L351.431107,195.221777 L353.965794,187.360116 C352.110141,186.1844 350.392388,184.810628 348.842259,183.268522 L341.756963,187.50393 L338.88007,183.951262 L344.531999,177.862651 C343.388143,176.030034 342.436593,174.065019 341.70559,171.995849 L333.47026,172.697508 L332.441913,168.243245 L340.17452,165.254811 C340.059177,164.185703 340,163.099762 340,162 C340,160.900238 340.059177,159.814297 340.17452,158.745189 L332.441913,155.756755 L333.47026,151.302492 L341.70559,152.004151 C342.436593,149.934981 343.388143,147.969966 344.531999,146.137349 L338.88007,140.048738 L341.756963,136.49607 L348.842259,140.731478 C350.392388,139.189372 352.110141,137.8156 353.965794,136.639884 L351.431107,128.778223 L355.53988,126.774241 L360,133.354361 L360,190.645639 L360,190.645639 Z M360,194.1832 L356.208415,199.777016 L349.018062,196.270046 L351.620404,188.198544 C350.545189,187.442833 349.518604,186.62261 348.546271,185.743499 L341.276821,190.08899 L336.242258,183.871822 L342.057527,177.60725 C341.424846,176.476952 340.858759,175.304331 340.364579,174.094699 L331.906593,174.815328 L330.106984,167.020368 L338.058284,163.947416 C338.019614,163.303229 338,162.653905 338,162 C338,161.346095 338.019614,160.696771 338.058284,160.052584 L330.106984,156.979632 L331.906593,149.184672 L340.364579,149.905301 C340.858759,148.695669 341.424846,147.523048 342.057527,146.39275 L336.242258,140.128178 L341.276821,133.91101 L348.546271,138.256501 C349.518604,137.37739 350.545189,136.557167 351.620404,135.801456 L349.018062,127.729954 L356.208415,124.222984 L360,129.8168 L360,194.1832 L360,194.1832 Z" id="Combined-Shape"></path>
            <path d="M34.1722075,168.404073 C34.7122841,166.360152 35,164.213676 35,162 C35,154.180764 31.4102479,147.199959 25.7888694,142.615711 L17.1165231,158.341864 C17.5029493,159.092101 17.7742237,159.911341 17.9069868,160.776226 L34.1722075,168.404073 L34.1722075,168.404073 L34.1722075,168.404073 Z M33.3205158,171.027172 C29.8580962,179.965729 21.4047154,186.417298 11.3796782,186.962574 L13.6071829,169.142537 C14.3765889,168.753197 15.074568,168.243192 15.6762343,167.637408 L33.3205158,171.027172 L33.3205158,171.027172 L33.3205158,171.027172 Z M0,139.080218 C3.06231174,137.742238 6.44447644,137 10,137 C14.9974195,137 19.6523627,138.466315 23.5580615,140.992178 L23.5580615,140.992178 L11.2795719,154.10178 C10.8629296,154.034803 10.4355292,154 10,154 C9.56447082,154 9.13707039,154.034803 8.72042813,154.10178 L2.13162821e-14,144.791079 L2.13162821e-14,139.080218 L0,139.080218 Z M0,161.757779 L2.09301317,160.776226 C2.22577629,159.911341 2.49705072,159.092101 2.88347689,158.341864 L0,153.11306 L0,161.757779 L0,161.757779 Z M0,184.919782 C2.66358991,186.083554 5.56916362,186.796618 8.6203218,186.962574 L6.39281709,169.142537 C5.62341108,168.753197 4.92543196,168.243192 4.32376565,167.637408 L0,168.468076 L0,184.919782 L0,184.919782 Z M-4.86876161e-07,141.281831 C3.02371568,139.819694 6.41613295,139 10,139 C13.7378955,139 17.2675313,139.891666 20.3878057,141.473897 L10.5167398,152.013121 C10.3455936,152.004409 10.1733117,152 10,152 C9.82668831,152 9.65440637,152.004409 9.48326023,152.013121 L-6.39488462e-14,141.887953 L-6.39488462e-14,141.281825 L-4.86876161e-07,141.281831 Z M0,159.565829 L0.339573625,159.40658 C0.429631449,159.070273 0.536783475,158.740957 0.660041499,158.419619 L0,157.222721 L0,159.565829 L0,159.565829 Z M0,182.71817 C1.97243431,183.671952 4.10175942,184.352361 6.33877431,184.710194 L4.54806115,170.384489 C4.25854685,170.19585 3.97940782,169.992621 3.71168691,169.775846 L0,170.488924 L0,182.71817 L0,182.71817 Z M13.6612257,184.710194 C21.0039913,183.535644 27.1864948,178.885632 30.4687478,172.500147 L16.2883131,169.775846 C16.0205922,169.992621 15.7414532,170.19585 15.4519388,170.384489 L13.6612257,184.710194 L13.6612257,184.710194 Z M32.729912,165.535734 C32.9077396,164.383167 33,163.202358 33,162 C33,155.671918 30.4444044,149.940727 26.308989,145.782204 L19.3399585,158.419619 C19.4632165,158.740957 19.5703686,159.070273 19.6604264,159.40658 L32.729912,165.535734 L32.729912,165.535734 L32.729912,165.535734 Z M0,133.354361 L0.193267575,133.639493 C2.22019041,132.938723 4.3456322,132.449121 6.54328675,132.196993 L7.71428571,124 L12.2857143,124 L13.4567133,132.196993 C15.6543678,132.449121 17.7798096,132.938723 19.8067324,133.639493 L24.4601201,126.774241 L28.5688929,128.778223 L26.0342062,136.639884 C27.8898589,137.8156 29.6076116,139.189372 31.1577411,140.731478 L38.2430366,136.49607 L41.1199298,140.048738 L35.4680013,146.137349 C36.611857,147.969966 37.5634073,149.934981 38.2944096,152.004151 L46.5297397,151.302492 L47.5580874,155.756755 L39.8254799,158.745189 C39.9408231,159.814297 40,160.900238 40,162 C40,163.099762 39.9408231,164.185703 39.8254799,165.254811 L47.5580874,168.243245 L46.5297397,172.697508 L38.2944096,171.995849 C37.5634073,174.065019 36.611857,176.030034 35.4680013,177.862651 L41.1199298,183.951262 L38.2430366,187.50393 L31.1577411,183.268522 C29.6076116,184.810628 27.8898589,186.1844 26.0342062,187.360116 L28.5688929,195.221777 L24.4601201,197.225759 L19.8067324,190.360507 C17.7798096,191.061277 15.6543678,191.550879 13.4567133,191.803007 L12.2857143,200 L7.71428571,200 L6.54328675,191.803007 C4.3456322,191.550879 2.22019041,191.061277 0.193267575,190.360507 L0,190.645639 L0,133.354361 L0,133.354361 Z M0,129.8168 L0.994844031,131.284517 C2.23279236,130.922171 3.50183463,130.632634 4.79702098,130.420853 L6,122 L14,122 L15.202979,130.420853 C16.4981654,130.632634 17.7672076,130.922171 19.005156,131.284517 L23.7915852,124.222984 L30.9819376,127.729954 L28.3795955,135.801456 C29.4548105,136.557167 30.4813964,137.37739 31.4537286,138.256501 L38.7231791,133.91101 L43.7577422,140.128178 L37.9424727,146.39275 C38.5751544,147.523048 39.1412414,148.695669 39.6354211,149.905301 L48.0934073,149.184672 L49.8930158,156.979632 L41.9417157,160.052584 C41.9803865,160.696771 42,161.346095 42,162 C42,162.653905 41.9803865,163.303229 41.9417157,163.947416 L49.8930158,167.020368 L48.0934073,174.815328 L39.6354211,174.094699 C39.1412414,175.304331 38.5751544,176.476952 37.9424727,177.60725 L43.7577422,183.871822 L38.7231791,190.08899 L31.4537286,185.743499 C30.4813964,186.62261 29.4548105,187.442833 28.3795955,188.198544 L28.3795955,188.198544 L30.9819376,196.270046 L23.7915852,199.777016 L19.005156,192.715483 C17.7672076,193.077829 16.4981654,193.367366 15.202979,193.579147 L14,202 L6,202 L4.79702098,193.579147 C3.50183463,193.367366 2.23279236,193.077829 0.994844031,192.715483 L0,194.1832 L0,129.8168 L0,129.8168 Z M10,156 C6.6862915,156 4,158.686292 4,162 C4,165.313708 6.6862915,168 10,168 C13.3137085,168 16,165.313708 16,162 C16,158.686292 13.3137085,156 10,156 L10,156 Z M10,158 C7.790861,158 6,159.790861 6,162 C6,164.209139 7.790861,166 10,166 C12.209139,166 14,164.209139 14,162 C14,159.790861 12.209139,158 10,158 L10,158 Z" id="Combined-Shape"></path>
            <path d="M149.716095,360 C153.579166,357.37382 158.109474,355.655911 163,355.153291 L163,360 L149.716095,360 L149.716095,360 Z M182.283905,360 C178.420834,357.37382 173.890526,355.655911 169,355.153291 L169,360 L182.283905,360 L182.283905,360 Z M153.618394,360 C155.907437,358.816688 158.387439,357.95124 161,357.462057 L161,360 L153.618394,360 L153.618394,360 Z M178.381606,360 C176.092563,358.816688 173.612561,357.95124 171,357.462057 L171,360 L178.381606,360 L178.381606,360 Z M137.543434,360 L133.473088,354.301515 L136.301515,351.473088 L143.029976,356.279132 C143.721348,355.705608 144.434524,355.157456 145.168077,354.636103 L142.267949,346.894882 L145.732051,344.894882 L150.98224,351.272411 C151.797915,350.897505 152.630012,350.552195 153.477155,350.237858 L153.477155,350.237858 L152.68011,342.016902 L156.543814,340.981626 L159.965763,348.503512 C160.847006,348.35479 161.739128,348.23809 162.640892,348.154648 L164,340 L168,340 L169.359108,348.154648 C170.260872,348.23809 171.152994,348.35479 172.034237,348.503512 L175.456186,340.981626 L179.31989,342.016902 L178.522845,350.237858 C179.369988,350.552195 180.202085,350.897505 181.01776,351.272411 L186.267949,344.894882 L189.732051,346.894882 L186.831923,354.636103 C187.565476,355.157456 188.278652,355.705608 188.970024,356.279132 L195.698485,351.473088 L198.526912,354.301515 L194.456566,360 L137.543434,360 L137.543434,360 Z M139.9678,360 L136.065813,354.537217 L136.537217,354.065813 L143.170666,358.803991 C144.540054,357.562476 146.011095,356.431051 147.569817,355.423685 L144.711325,347.7936 L145.288675,347.460266 L150.465283,353.748414 C152.101932,352.906271 153.815778,352.193042 155.593404,351.622146 L155.593404,351.622146 L154.807625,343.517388 L155.451575,343.344842 L158.824334,350.758602 C160.610355,350.374899 162.448473,350.131486 164.32659,350.040462 L165.666667,342 L166.333333,342 L167.67341,350.040462 C169.551527,350.131486 171.389645,350.374899 173.175666,350.758602 L176.548425,343.344842 L177.192375,343.517388 L176.406596,351.622146 C178.184222,352.193042 179.898068,352.906271 181.534717,353.748414 L186.711325,347.460266 L187.288675,347.7936 L184.430183,355.423685 C185.988905,356.431051 187.459946,357.562476 188.829334,358.803991 L195.462783,354.065813 L195.934187,354.537217 L192.0322,360 L139.9678,360 L139.9678,360 Z" id="Combined-Shape"></path>
            <path d="M360,52.7017059 L353.524045,56.4406005 C351.260074,51.4254909 350,45.8598984 350,40 C350,34.1401016 351.260074,28.5745091 353.524045,23.5593995 L353.524045,23.5593995 L360,27.2982941 L360,52.7017059 L360,52.7017059 Z M360,13.541756 C359.127342,14.5304714 358.302799,15.562659 357.530035,16.6346547 L357.530035,16.6346547 L360,18.0606898 L360,13.541756 L360,13.541756 Z M360,66.458244 C359.127342,65.4695286 358.302799,64.437341 357.530035,63.3653453 L357.530035,63.3653453 L360,61.9393102 L360,66.458244 L360,66.458244 Z M360,50.3923048 L354.494851,53.5707042 C352.883011,49.3561622 352,44.7812002 352,40 C352,35.2187998 352.883011,30.6438378 354.494851,26.4292958 L354.494851,26.4292958 L360,29.6076952 L360,50.3923048 L360,50.3923048 Z M357.580277,0 L359.087288,3.27797433 C356.989654,5.04559031 355.04559,6.98965424 353.277974,9.08728804 L343.899914,4.77583157 L342.254115,7.04107916 L349.248732,14.6237097 C347.803335,16.9399389 346.549921,19.3883222 345.51076,21.9465904 L335.271346,20.7455352 L334.406098,23.4084934 L343.39721,28.4561198 C342.748402,31.0841149 342.316078,33.7973935 342.120243,36.5759513 L332,38.6 L332,41.4 L342.120243,43.4240487 C342.316078,46.2026065 342.748402,48.9158851 343.39721,51.5438802 L334.406098,56.5915066 L335.271346,59.2544648 L345.51076,58.0534096 C346.549921,60.6116778 347.803335,63.0600611 349.248732,65.3762903 L342.254115,72.9589208 L343.899914,75.2241684 L353.277974,70.912712 C355.04559,73.0103458 356.989654,74.9544097 359.087288,76.7220257 L354.775832,86.1000863 L357.041079,87.745885 L360,85.016421 L360,0 L357.580277,0 L357.580277,0 Z M355.421788,0 L356.674406,2.72463248 C355.285773,3.96697656 353.966977,5.28577302 352.724632,6.67440631 L343.222336,2.30583388 L339.695625,7.15993585 L346.781309,14.8412893 C345.844567,16.4469949 344.994748,18.1096246 344.238302,19.8227278 L333.86366,18.6058108 L332.009558,24.3121499 L341.120054,29.4267985 C340.731125,31.2333895 340.439811,33.0762607 340.251904,34.9496192 L330,37 L330,43 L340.251904,45.0503808 C340.439811,46.9237393 340.731125,48.7666105 341.120054,50.5732015 L332.009558,55.6878501 L333.86366,61.3941892 L344.238302,60.1772722 C344.994748,61.8903754 345.844567,63.5530051 346.781309,65.1587107 L339.695625,72.8400642 L343.222336,77.6941661 L352.724632,73.3255937 C353.966977,74.714227 355.285773,76.0330234 356.674406,77.2753675 L352.305834,86.7776639 L357.159936,90.3043754 L360,87.6845511 L360,0 L355.421788,0 L355.421788,0 Z" id="Combined-Shape"></path>
            <path d="M0,354.983579 L4.62370975,359.248732 C6.93993892,357.803335 9.38832223,356.549921 11.9465904,355.51076 L11.9465904,355.51076 L10.7455352,345.271346 L13.4084934,344.406098 L18.4561198,353.39721 C21.0841149,352.748402 23.7973935,352.316078 26.5759513,352.120243 L28.6,342 L31.4,342 L33.4240487,352.120243 C36.2026065,352.316078 38.9158851,352.748402 41.5438802,353.39721 L46.5915066,344.406098 L49.2544648,345.271346 L48.0534096,355.51076 C50.6116778,356.549921 53.0600611,357.803335 55.3762903,359.248732 L62.9589208,352.254115 L65.2241684,353.899914 L62.4197233,360 L0,360 L0,354.983579 L0,354.983579 Z M0,352.315449 L4.84128934,356.781309 C6.44699494,355.844567 8.10962464,354.994748 9.82272783,354.238302 L9.82272783,354.238302 L8.60581079,343.86366 L14.3121499,342.009558 L19.4267985,351.120054 C21.2333895,350.731125 23.0762607,350.439811 24.9496192,350.251904 L27,340 L33,340 L35.0503808,350.251904 C36.9237393,350.439811 38.7666105,350.731125 40.5732015,351.120054 L45.6878501,342.009558 L51.3941892,343.86366 L50.1772722,354.238302 C51.8903754,354.994748 53.5530051,355.844567 55.1587107,356.781309 L62.8400642,349.695625 L67.6941661,353.222336 L64.5782124,360 L0,360 L0,352.315449 L0,352.315449 Z" id="Combined-Shape"></path>
            <path d="M360,244.514243 L358.562831,244.30718 L357.762831,245.69282 L359.760908,248.232051 L360,248.395753 L360,244.514243 L360,244.514243 Z M360,258.955752 L356.000563,258.563513 L352.837762,259.224338 L352.559925,260.80003 L355.30597,262.502744 L360,263.707853 L360,258.955752 L360,258.955752 Z M360,272.292147 L355.30597,273.497256 L352.559925,275.19997 L352.837762,276.775662 L356.000563,277.436487 L360,277.044248 L360,272.292147 L360,272.292147 Z M360,287.604247 L359.760908,287.767949 L357.762831,290.30718 L358.562831,291.69282 L360,291.485757 L360,287.604247 L360,287.604247 Z M360,293.361885 L357.430781,293.732051 L355.430781,290.267949 L358.760908,286.035898 L360,285.187515 L360,293.361885 L360,293.361885 Z M360,279.047924 L356.347859,279.406103 L351.076524,278.304728 L350.381932,274.365497 L354.958674,271.527641 L360,270.23337 L360,279.047924 L360,279.047924 Z M360,265.76663 L354.958674,264.472359 L350.381932,261.634503 L351.076524,257.695272 L356.347859,256.593897 L360,256.952076 L360,265.76663 L360,265.76663 Z M360,250.812485 L358.760908,249.964102 L355.430781,245.732051 L357.430781,242.267949 L360,242.638115 L360,250.812485 L360,250.812485 Z" id="Combined-Shape"></path>
            <path d="M360,354.983579 L357.041079,352.254115 L354.775832,353.899914 L357.580277,360 L360,360 L360,354.983579 L360,354.983579 Z M360,352.315449 L357.159936,349.695625 L352.305834,353.222336 L355.421788,360 L360,360 L360,352.315449 L360,352.315449 Z" id="Combined-Shape"></path>
        </g>
    </g>
</svg>