<?xml version="1.0" encoding="UTF-8" standalone="no"?>
<svg width="80px" height="40px" viewBox="0 0 80 40" version="1.1" xmlns="http://www.w3.org/2000/svg" xmlns:xlink="http://www.w3.org/1999/xlink">
    <!-- Generator: Sketch 40.1 (33804) - http://www.bohemiancoding.com/sketch -->
    <title>leaf</title>
    <desc>Created with Sketch.</desc>
    <defs></defs>
    <g id="Page-1" stroke="none" stroke-width="1" fill="none" fill-rule="evenodd">
        <g id="leaf" fill="#000000">
            <path d="M2.0111338,39.9762545 C2.02921403,35.3824885 3.79618648,30.7942931 7.31205113,27.2893459 C7.78740545,26.8154676 8.28262298,26.3734594 8.79503196,25.9633213 L8.79503196,35.7339718 L4.53953515,39.9762545 L2.0111338,39.9762545 L2.0111338,39.9762545 Z M7.38350959,39.9762545 L23.8418736,23.5689967 C24.5287308,28.920378 22.8107559,34.5199144 18.6879489,38.6299194 C18.2047377,39.11163 17.7010014,39.5604084 17.1795462,39.9762545 L7.38350959,39.9762545 L7.38350959,39.9762545 Z M0.000126167804,39.9762545 C0.0182157418,34.8694256 1.98152832,29.768173 5.89006391,25.8717742 C11.1534242,20.6247576 18.608494,18.894291 25.3175065,20.6803743 L25.3175065,20.6803743 C27.1010602,27.3383431 25.3889063,34.733349 20.1810447,39.9762545 L0.000126167804,39.9762545 L0.000126167804,39.9762545 Z M10.8060256,24.5662538 C14.3433513,22.4499489 18.4497008,21.6450059 22.4198864,22.151425 L10.8060256,33.7292227 L10.8060256,24.5662538 L10.8060256,24.5662538 L10.8060256,24.5662538 Z" id="Combined-Shape"></path>
            <path d="M65.2501697,0.749830326 C58.5778338,-1.03202184 51.1635189,0.694345448 45.9289322,5.92893219 C40.6943454,11.1635189 38.9679782,18.5778338 40.7498303,25.2501697 C47.4221662,27.0320218 54.8364811,25.3056546 60.0710678,20.0710678 C65.3056546,14.8364811 67.0320218,7.42216622 65.2501697,0.749830326 L65.2501697,0.749830326 L65.2501697,0.749830326 Z M43.6316098,23.7826038 C48.9703141,24.4657061 54.5565856,22.7571229 58.6568542,18.6568542 C62.7571229,14.5565856 64.4657061,8.97031411 63.7826038,3.6316098 L43.6316098,23.7826038 L43.6316098,23.7826038 Z M50.8180195,4.6265045 C54.3360075,2.51521295 58.4199087,1.71217686 62.3683902,2.21739624 L50.8180195,13.767767 L50.8180195,4.6265045 L50.8180195,4.6265045 Z M47.3431458,7.34314575 C43.2428771,11.4434144 41.5342939,17.0296859 42.2173962,22.3683902 L48.8180195,15.767767 L48.8180195,6.02026242 C48.3084117,6.42942896 47.8159014,6.87039007 47.3431458,7.34314575 Z" id="Combined-Shape-Copy-3"></path>
            <path d="M0.0711932903,-3.10862447e-15 C0.0649571387,1.76599835 0.291169484,3.53266513 0.749830326,5.25016967 C7.42216622,7.03202184 14.8364811,5.30565455 20.0710678,0.0710678119 C20.0947127,0.0474229261 20.118286,0.0237335657 20.1417877,-2.43902121e-15 L0.0711932903,-2.44249065e-15 L0.0711932903,-3.10862447e-15 Z M17.1566977,-3.10862447e-15 C13.2505152,3.12477555 8.34459447,4.38564347 3.6316098,3.78260376 L7.41421356,-3.10862447e-15 L17.1566977,-3.10862447e-15 L17.1566977,-3.10862447e-15 L17.1566977,-3.10862447e-15 Z M2.07120723,-3.10862447e-15 C2.06810311,0.791141456 2.11683278,1.58244853 2.21739624,2.3683902 L4.58578644,-3.10862447e-15 L2.07120723,-3.10862447e-15 L2.07120723,-3.10862447e-15 Z" id="Combined-Shape"></path>
        </g>
    </g>
</svg>