<?xml version="1.0" encoding="UTF-8" standalone="no"?>
<svg width="80px" height="88px" viewBox="0 0 80 88" version="1.1" xmlns="http://www.w3.org/2000/svg" xmlns:xlink="http://www.w3.org/1999/xlink">
    <!-- Generator: Sketch 40.1 (33804) - http://www.bohemiancoding.com/sketch -->
    <title>moroccan</title>
    <desc>Created with Sketch.</desc>
    <defs></defs>
    <g id="Page-1" stroke="none" stroke-width="1" fill="none" fill-rule="evenodd">
        <g id="moroccan" fill="#000000">
            <path d="M22,21.910316 L22,26 L19.9989006,26 C10.0613799,26 2,34.0588745 2,44 C2,53.9433113 10.0583823,62 19.9989006,62 L22,62 L22,66.0897789 C30.0119364,66.8120156 36.7852126,71.8280516 39.9995613,78.820232 C43.2123852,71.8285229 49.9832383,66.8116352 58,66.089684 L58,62 L60.0010994,62 C69.9386201,62 78,53.9411255 78,44 C78,34.0566887 69.9416177,26 60.0010994,26 L58,26 L58,21.9102211 C49.9880636,21.1879844 43.2147874,16.1719484 40.0004387,9.17976804 C36.7876148,16.1714771 30.0167617,21.1883648 22,21.910316 L22,21.910316 Z M54,58 L54,62.6957274 C48.4256128,64.0124934 43.5445087,67.1235896 40,71.385704 C36.4554913,67.1235896 31.5743872,64.0124934 26,62.6957274 L26,58 L20.0071931,58 C12.2712339,58 6,51.7336865 6,44 C6,36.2680135 12.2753906,30 20.0071931,30 L26,30 L26,25.3042726 C31.5743872,23.9875066 36.4554913,20.8764104 40,16.614296 C43.5445087,20.8764104 48.4256128,23.9875066 54,25.3042726 L54,30 L59.9928069,30 C67.7287661,30 74,36.2663135 74,44 C74,51.7319865 67.7246094,58 59.9928069,58 L54,58 L54,58 Z M42,88 C42,78.0588745 50.0613799,70 59.9989006,70 L62,70 L62,65.910316 L62,65.910316 C70.0163968,65.1883977 76.7869984,60.1719338 80,53.1807228 L80,60.614296 C76.4554913,64.8764104 71.5743872,67.9875066 66,69.3042726 L66,74 L60.0071931,74 C52.2753906,74 46,80.2680135 46,88 L42,88 Z M38,88 C38,78.0566887 29.9416177,70 20.0010994,70 L18,70 L18,65.9102211 C9.98806359,65.1879844 3.21478738,60.1719484 0.000438743025,53.179768 L0,60.614296 C3.54450873,64.8764104 8.42561275,67.9875066 14,69.3042726 L14,74 L19.9928069,74 C27.7287661,74 34,80.2663135 34,88 L38,88 Z M42,7.10542736e-15 C42,9.94331128 50.0583823,18 59.9989006,18 L62,18 L62,22.0897789 C70.0119364,22.8120156 76.7852126,27.8280516 79.9995613,34.820232 L80,27.385704 C76.4554913,23.1235896 71.5743872,20.0124934 66,18.6957274 L66,14 L60.0071931,14 C52.2712339,14 46,7.73368655 46,1.42108547e-14 L42,1.42108547e-14 L42,7.10542736e-15 Z M-2.27373675e-13,34.8192772 C3.21300164,27.8280662 9.98360316,22.8116023 18,22.089684 L18,18 L20.0010994,18 C29.9386201,18 38,9.9411255 38,7.10542736e-15 L34,7.10542736e-15 C34,7.7319865 27.7246094,14 19.9928069,14 L14,14 L14,14 L14,18.6957274 C8.42561275,20.0124934 3.54450873,23.1235896 8.31903435e-11,27.385704 L2.84217094e-14,34.8192772 L-2.27373675e-13,34.8192772 Z" id="Combined-Shape"></path>
        </g>
    </g>
</svg>