<?xml version="1.0" encoding="UTF-8" standalone="no"?>
<svg width="60px" height="60px" viewBox="0 0 60 60" version="1.1" xmlns="http://www.w3.org/2000/svg" xmlns:xlink="http://www.w3.org/1999/xlink">
    <!-- Generator: Sketch 40.1 (33804) - http://www.bohemiancoding.com/sketch -->
    <title>morphing-diamonds</title>
    <desc>Created with Sketch.</desc>
    <defs></defs>
    <g id="Page-1" stroke="none" stroke-width="1" fill="none" fill-rule="evenodd">
        <g id="morphing-diamonds" fill="#000000">
            <path d="M54.627417,1.33226763e-15 L55.4558441,0.828427125 L54.0416306,2.24264069 L51.7989899,-1.44328993e-15 L54.627417,7.10542736e-15 L54.627417,1.33226763e-15 Z M5.372583,-5.55111512e-16 L4.54415588,0.828427125 L5.95836944,2.24264069 L8.20101013,-1.44328993e-15 L5.372583,-7.77156117e-16 L5.372583,-5.55111512e-16 Z M48.9705627,6.32827124e-15 L52.627417,3.65685425 L51.2132034,5.07106781 L46.1421356,-1.44328993e-15 L48.9705627,5.21804822e-15 L48.9705627,6.32827124e-15 Z M11.0294373,-1.44328993e-15 L7.372583,3.65685425 L8.78679656,5.07106781 L13.8578644,1.22124533e-15 L11.0294373,-3.33066907e-16 L11.0294373,-1.44328993e-15 Z M43.3137085,2.10942375e-15 L49.7989899,6.48528137 L48.3847763,7.89949494 L40.4852814,2.10942375e-15 L43.3137085,-1.44328993e-15 L43.3137085,2.10942375e-15 Z M16.6862915,3.33066907e-16 L10.2010101,6.48528137 L11.6152237,7.89949494 L19.5147186,-3.33066907e-16 L16.6862915,-1.44328993e-15 L16.6862915,3.33066907e-16 Z M37.6568542,2.55351296e-15 L46.9705627,9.3137085 L45.5563492,10.7279221 L34.8284271,-5.55111512e-16 L37.6568542,-1.44328993e-15 L37.6568542,2.55351296e-15 Z M22.3431458,5.55111512e-16 L13.0294373,9.3137085 L14.4436508,10.7279221 L25.1715729,-1.11022302e-16 L22.3431458,-1.44328993e-15 L22.3431458,5.55111512e-16 Z M32,-3.33066907e-16 L44.1421356,12.1421356 L42.7279221,13.5563492 L30,0.828427125 L17.2720779,13.5563492 L15.8578644,12.1421356 L28,-3.33066907e-16 L32,-1.44328993e-15 L32,-3.33066907e-16 Z M0.284271247,-1.44328993e-15 L28.2842712,28 L26.8700577,29.4142136 L-2.15508222e-16,2.54415588 L-2.15508222e-16,4.71844785e-16 L0.284271247,4.71844785e-16 L0.284271247,-1.44328993e-15 Z M1.80408836e-15,5.372583 L25.4558441,30.8284271 L24.0416306,32.2426407 L3.33720546e-15,8.20101013 L-2.15508222e-16,5.372583 L1.80408836e-15,5.372583 Z M-2.15508222e-16,11.0294373 L22.627417,33.6568542 L21.2132034,35.0710678 L4.80878765e-15,13.8578644 L1.25607397e-15,11.0294373 L-2.15508222e-16,11.0294373 Z M-2.15508222e-16,16.6862915 L19.7989899,36.4852814 L18.3847763,37.8994949 L7.73346434e-15,19.5147186 L6.28036983e-16,16.6862915 L-2.15508222e-16,16.6862915 Z M1.66860273e-15,22.3431458 L16.9705627,39.3137085 L15.5563492,40.7279221 L-2.15508222e-16,25.1715729 L-2.15508222e-16,22.3431458 L1.66860273e-15,22.3431458 Z M-2.15508222e-16,28 L14.1421356,42.1421356 L12.7279221,43.5563492 L-2.15508222e-16,30.8284271 L-2.15508222e-16,28 L-2.15508222e-16,28 Z M-2.15508222e-16,33.6568542 L11.3137085,44.9705627 L9.89949494,46.3847763 L5.20282872e-16,36.4852814 L5.20282872e-16,33.6568542 L-2.15508222e-16,33.6568542 Z M-2.15508222e-16,39.3137085 L8.48528137,47.7989899 L7.07106781,49.2132034 L3.55271368e-15,42.1421356 L3.55271368e-15,39.3137085 L-2.15508222e-16,39.3137085 Z M-2.15508222e-16,44.9705627 L5.65685425,50.627417 L4.24264069,52.0416306 L3.55271368e-15,47.7989899 L2.66453526e-15,44.9705627 L-2.15508222e-16,44.9705627 Z M-2.15508222e-16,50.627417 L2.82842712,53.4558441 L1.41421356,54.8700577 L2.48058749e-15,53.4558441 L2.48058749e-15,50.627417 L-2.15508222e-16,50.627417 Z M54.627417,60 L30,35.372583 L5.372583,60 L8.20101013,60 L30,38.2010101 L51.7989899,60 L54.627417,60 L54.627417,60 Z M48.9705627,60 L30,41.0294373 L11.0294373,60 L13.8578644,60 L30,43.8578644 L46.1421356,60 L48.9705627,60 L48.9705627,60 Z M43.3137085,60 L30,46.6862915 L16.6862915,60 L19.5147186,60 L30,49.5147186 L40.4852814,60 L43.3137085,60 L43.3137085,60 Z M37.6568542,60 L30,52.3431458 L22.3431458,60 L25.1715729,60 L30,55.1715729 L34.8284271,60 L37.6568542,60 L37.6568542,60 Z M32,60 L30,58 L28,60 L32,60 L32,60 Z M59.7157288,3.33066907e-16 L31.7157288,28 L33.1299423,29.4142136 L60,2.54415588 L60,-1.44328993e-15 L59.7157288,-1.44328993e-15 L59.7157288,3.33066907e-16 Z M60,5.372583 L34.5441559,30.8284271 L35.9583694,32.2426407 L60,8.20101013 L60,5.372583 L60,5.372583 Z M60,11.0294373 L37.372583,33.6568542 L38.7867966,35.0710678 L60,13.8578644 L60,11.0294373 L60,11.0294373 Z M60,16.6862915 L40.2010101,36.4852814 L41.6152237,37.8994949 L60,19.5147186 L60,16.6862915 L60,16.6862915 Z M60,22.3431458 L43.0294373,39.3137085 L44.4436508,40.7279221 L60,25.1715729 L60,22.3431458 L60,22.3431458 Z M60,28 L45.8578644,42.1421356 L47.2720779,43.5563492 L60,30.8284271 L60,28 L60,28 Z M60,33.6568542 L48.6862915,44.9705627 L50.1005051,46.3847763 L60,36.4852814 L60,33.6568542 L60,33.6568542 Z M60,39.3137085 L51.5147186,47.7989899 L52.9289322,49.2132034 L60,42.1421356 L60,39.3137085 L60,39.3137085 Z M60,44.9705627 L54.3431458,50.627417 L55.7573593,52.0416306 L60,47.7989899 L60,44.9705627 L60,44.9705627 Z M60,50.627417 L57.1715729,53.4558441 L58.5857864,54.8700577 L60,53.4558441 L60,50.627417 L60,50.627417 Z M39.8994949,16.3847763 L41.3137085,14.9705627 L30,3.65685425 L18.6862915,14.9705627 L20.1005051,16.3847763 L30,6.48528137 L39.8994949,16.3847763 L39.8994949,16.3847763 Z M37.0710678,19.2132034 L38.4852814,17.7989899 L30,9.3137085 L21.5147186,17.7989899 L22.9289322,19.2132034 L30,12.1421356 L37.0710678,19.2132034 L37.0710678,19.2132034 Z M34.2426407,22.0416306 L35.6568542,20.627417 L30,14.9705627 L24.3431458,20.627417 L25.7573593,22.0416306 L30,17.7989899 L34.2426407,22.0416306 L34.2426407,22.0416306 Z M31.4142136,24.8700577 L32.8284271,23.4558441 L30,20.627417 L27.1715729,23.4558441 L28.5857864,24.8700577 L30,23.4558441 L31.4142136,24.8700577 L31.4142136,24.8700577 Z M56.8700577,59.4142136 L58.2842712,58 L30,29.7157288 L1.71572875,58 L3.12994231,59.4142136 L30,32.5441559 L56.8700577,59.4142136 L56.8700577,59.4142136 Z" id="Combined-Shape"></path>
        </g>
    </g>
</svg>