<?xml version="1.0" encoding="UTF-8" standalone="no"?>
<svg width="48px" height="64px" viewBox="0 0 48 64" version="1.1" xmlns="http://www.w3.org/2000/svg" xmlns:xlink="http://www.w3.org/1999/xlink">
    <!-- Generator: Sketch 40 (33762) - http://www.bohemiancoding.com/sketch -->
    <title>overlapping-diamonds</title>
    <desc>Created with Sketch.</desc>
    <defs></defs>
    <g id="Page-1" stroke="none" stroke-width="1" fill="none" fill-rule="evenodd">
        <g id="overlapping-diamonds" fill="#000000">
            <path d="M48,28 L48,24 L36,12 L24,24 L12,12 L0,24 L0,28 L0,28 L4,32 L0,36 L0,40 L12,52 L24,40 L36,52 L48,40 L48,36 L44,32 L48,28 L48,28 Z M8,32 L2,26 L12,16 L22,26 L16,32 L22,38 L12,48 L2,38 L8,32 L8,32 L8,32 L8,32 L8,32 L8,32 Z M20,32 L24,28 L28,32 L24,36 L20,32 L20,32 L20,32 L20,32 L20,32 L20,32 Z M32,32 L26,26 L36,16 L46,26 L40,32 L46,38 L36,48 L26,38 L32,32 L32,32 L32,32 L32,32 L32,32 L32,32 Z M0,16 L10,6 L4,0 L8,0 L12,4 L16,0 L20,0 L14,6 L24,16 L34,6 L28,0 L32,0 L36,4 L40,0 L44,0 L38,6 L48,16 L48,20 L36,8 L24,20 L12,8 L0,20 L0,16 L0,16 L0,16 L0,16 L0,16 L0,16 Z M0,48 L10,58 L4,64 L8,64 L12,60 L16,64 L20,64 L14,58 L24,48 L34,58 L28,64 L32,64 L36,60 L40,64 L44,64 L38,58 L48,48 L48,44 L36,56 L24,44 L12,56 L0,44 L0,48 L0,48 L0,48 L0,48 L0,48 L0,48 Z" id="Combined-Shape"></path>
        </g>
    </g>
</svg>