<?xml version="1.0" encoding="iso-8859-1"?>
<!-- Generator: Adobe Illustrator 19.2.0, SVG Export Plug-In . SVG Version: 6.00 Build 0)  -->
<!DOCTYPE svg PUBLIC "-//W3C//DTD SVG 1.1//EN" "http://www.w3.org/Graphics/SVG/1.1/DTD/svg11.dtd">
<svg version="1.1" xmlns="http://www.w3.org/2000/svg" xmlns:xlink="http://www.w3.org/1999/xlink" x="0px" y="0px"
	 viewBox="0 0 277.739 134.1" style="enable-background:new 0 0 277.739 134.1;" xml:space="preserve">
<g id="tawa-wide">
	<g>
		<path style="fill:#FFFFFF;stroke:#000000;stroke-width:5;stroke-miterlimit:10;" d="M34.971,2.219
			C17.154,2.18,2.678,16.593,2.64,34.411L2.5,98.935c-0.039,17.818,14.374,32.293,32.192,32.332l154.298,0.334
			c35.635,0.077,64.586-28.749,64.663-64.384c0.077-35.635-28.749-64.586-64.384-64.663L34.971,2.219z"/>
		<g>
			<g>
				<path style="fill:#FFFFFF;" d="M253.398,37.052c9.818-1.904,19.947,4.146,21.57,14.81c2.235,14.688-5.688,28.813-21.796,38.974
					c-11.878,7.493-41.767,5.172-41.767,5.172s12.366-12.784,9.785-33.526c-2.088-16.778-8.451-22.055-7.505-38.827
					c0.703-12.475,7.635-21.034,18.409-21.01c8.8,0.019,15.006,7.763,14.986,17.3C247.078,19.945,249.255,37.856,253.398,37.052z"/>
				<path d="M253.065,35.08c2.579-0.62,5.472-0.674,8.188-0.192c2.733,0.511,5.379,1.574,7.719,3.141
					c2.351,1.553,4.335,3.677,5.805,6.102c1.47,2.422,2.391,5.196,2.737,7.942l0.115,0.934l0.09,1.035
					c0.06,0.693,0.073,1.344,0.096,2.018c0.015,1.339-0.036,2.679-0.171,4.011c-0.278,2.662-0.849,5.295-1.724,7.811
					c-1.721,5.053-4.566,9.617-7.977,13.561c-3.413,3.961-7.424,7.305-11.707,10.138c-0.532,0.36-1.08,0.694-1.62,1.041
					l-0.203,0.129l-0.275,0.16l-0.406,0.228c-0.285,0.154-0.506,0.301-0.856,0.462c-1.327,0.666-2.531,1.14-3.799,1.566
					c-2.513,0.849-5.045,1.395-7.573,1.82c-5.059,0.827-10.111,1.162-15.146,1.219c-2.517,0.037-5.031-0.01-7.539-0.128
					c-2.515-0.104-4.999-0.304-7.53-0.575l-0.118-0.013c-0.804-0.086-1.386-0.808-1.3-1.612c0.039-0.363,0.209-0.682,0.456-0.914
					l0,0c0.79-0.901,1.609-2.019,2.323-3.109c0.726-1.105,1.398-2.251,2.011-3.426c1.228-2.348,2.278-4.793,3.054-7.323
					c1.582-5.051,2.171-10.384,1.768-15.646c-0.039-0.659-0.109-1.315-0.191-1.97c-0.039-0.313-0.073-0.688-0.116-0.951
					l-0.151-1.023c-0.105-0.676-0.192-1.378-0.313-2.032l-0.371-1.943c-0.538-2.611-1.238-5.208-2.024-7.801
					c-0.786-2.595-1.69-5.206-2.478-7.92c-0.792-2.709-1.434-5.527-1.791-8.381c-0.375-2.85-0.518-5.734-0.395-8.577
					c0.019-1.422,0.13-2.846,0.31-4.333c0.184-1.453,0.46-2.903,0.849-4.335c0.787-2.854,1.967-5.682,3.779-8.193
					c1.789-2.513,4.255-4.656,7.124-6.035c2.878-1.347,6.099-1.916,9.147-1.794c3.311,0.188,6.489,1.317,9.018,3.349
					c2.542,1.986,4.4,4.656,5.551,7.51c1.161,2.859,1.697,5.906,1.648,8.916l-0.015-0.245c0.094,0.742,0.211,1.53,0.331,2.295
					l0.394,2.304c0.275,1.532,0.621,3.046,1.01,4.527c0.392,1.474,0.841,2.936,1.417,4.22c0.281,0.635,0.611,1.234,0.919,1.624
					c0.148,0.196,0.296,0.304,0.308,0.304c0.033-0.008-0.25-0.13-0.463-0.077L253.065,35.08z M253.815,39.204
					c-0.49,0.09-1.027,0.076-1.511-0.042c-0.488-0.118-0.885-0.324-1.223-0.541c-0.65-0.443-1.058-0.922-1.384-1.363
					c-0.639-0.892-1.022-1.731-1.363-2.558c-0.66-1.652-1.104-3.257-1.499-4.866c-0.391-1.606-0.695-3.21-0.993-4.81l-0.404-2.404
					c-0.125-0.808-0.24-1.595-0.344-2.433c-0.008-0.061-0.012-0.121-0.013-0.18l-0.001-0.065c-0.053-2.5-0.538-4.99-1.587-7.19
					c-1.04-2.197-2.575-4.106-4.463-5.424c-0.942-0.661-1.964-1.172-3.027-1.554c-1.049-0.364-2.241-0.576-3.288-0.614
					c-2.455-0.092-4.819,0.28-6.961,1.239c-2.137,0.939-4.053,2.414-5.554,4.327c-1.508,1.902-2.661,4.173-3.384,6.615
					c-0.368,1.219-0.647,2.477-0.846,3.754c-0.201,1.244-0.31,2.573-0.333,3.908c-0.133,2.666-0.013,5.313,0.315,7.929
					c0.341,2.617,0.942,5.19,1.712,7.768c0.764,2.579,1.682,5.175,2.514,7.853c0.845,2.675,1.55,5.417,2.116,8.209l0.392,2.122
					c0.124,0.703,0.203,1.371,0.306,2.058l0.146,1.024c0.065,0.418,0.076,0.733,0.116,1.104c0.072,0.715,0.132,1.431,0.158,2.15
					c0.307,5.743-0.473,11.552-2.317,16.988c-0.913,2.72-2.086,5.349-3.504,7.838c-0.715,1.241-1.491,2.447-2.328,3.613
					c-0.852,1.178-1.701,2.266-2.778,3.394l-0.001,0.001l-0.962-2.538c2.425,0.078,4.909,0.057,7.361,0.049
					c2.459-0.035,4.915-0.092,7.364-0.2c4.893-0.249,9.777-0.658,14.507-1.562c2.358-0.455,4.686-1.022,6.863-1.821
					c1.08-0.385,2.174-0.868,3.06-1.333c0.44-0.229,1.138-0.653,1.487-0.879c0.498-0.335,1.007-0.656,1.496-1.002
					c3.935-2.736,7.594-5.851,10.653-9.441c3.054-3.582,5.521-7.637,6.975-12.015c0.743-2.181,1.212-4.442,1.435-6.72
					c0.107-1.14,0.141-2.286,0.122-3.431c-0.024-0.566-0.04-1.159-0.092-1.702l-0.074-0.821l-0.119-0.914
					c-0.266-2.181-0.919-4.23-2.004-6.074c-1.07-1.846-2.572-3.419-4.306-4.692c-1.742-1.266-3.766-2.175-5.899-2.661
					c-2.151-0.52-4.323-0.598-6.621-0.268L253.815,39.204z"/>
			</g>
			<g>
				<path style="fill:#FFFFFF;" d="M211.405,96.008c0,0,23.155,1.155,32.223-23.941c8.55-23.662,15.288-21.663,20.713-34.187
					c4.27-9.858,0.496-19.281-3.594-22.704c-7.877-6.595-25.175-6.932-27.061,22.008C231.741,67.043,233.588,83.558,211.405,96.008z
					"/>
				<path d="M211.466,94.51c0,0,0.189,0,0.554,0c0.382-0.007,0.962-0.033,1.72-0.101c1.514-0.136,3.758-0.463,6.497-1.289
					c2.732-0.825,5.965-2.196,9.192-4.492c3.226-2.281,6.393-5.533,8.905-9.73c1.263-2.09,2.368-4.407,3.264-6.909
					c0.485-1.3,0.979-2.621,1.48-3.963c0.485-1.336,1.119-2.732,1.686-4.126c1.244-2.751,2.57-5.566,4.287-8.294
					c1.674-2.736,3.727-5.391,5.882-7.824c2.139-2.443,4.173-4.722,5.643-7.412c0.758-1.332,1.414-2.743,2.004-4.213
					c0.494-1.336,0.905-2.857,1.101-4.334c0.422-2.983,0.134-6.086-0.853-8.934c-0.495-1.418-1.162-2.777-1.993-3.948
					c-0.414-0.584-0.869-1.118-1.343-1.563l-0.302-0.268l-0.509-0.391l-0.251-0.191l-0.205-0.132l-0.405-0.27
					c-1.222-0.764-2.559-1.377-3.951-1.755c-1.395-0.361-2.831-0.497-4.227-0.375c-2.802,0.24-5.372,1.63-7.337,3.775
					c-1.987,2.135-3.381,4.936-4.355,7.861c-0.986,2.934-1.577,6.023-1.929,9.104c-0.322,3.052-0.504,6.275-0.718,9.324
					c-0.199,3.087-0.394,6.107-0.583,9.047c-0.409,5.894-0.907,11.523-1.974,16.704c-1.044,5.173-2.78,9.883-5.124,13.612
					c-1.157,1.869-2.428,3.494-3.69,4.906c-1.288,1.387-2.544,2.586-3.751,3.572c-2.397,1.995-4.461,3.28-5.858,4.154
					c-1.425,0.824-2.185,1.263-2.185,1.263L211.466,94.51z M210.671,94.7c0,0,0.715-0.43,2.055-1.236
					c1.306-0.849,3.231-2.096,5.41-3.976c1.099-0.928,2.225-2.047,3.374-3.323c1.12-1.3,2.238-2.781,3.249-4.479
					c2.046-3.384,3.561-7.667,4.466-12.572c0.924-4.905,1.325-10.395,1.628-16.242c0.136-2.936,0.275-5.951,0.418-9.034
					c0.153-3.118,0.245-6.205,0.534-9.544c0.315-3.3,0.879-6.672,1.932-10.027c1.05-3.336,2.588-6.724,5.143-9.602
					c1.269-1.43,2.801-2.709,4.556-3.664c1.751-0.953,3.711-1.596,5.71-1.802c4.013-0.437,8.025,0.61,11.369,2.714l0.655,0.455
					l0.325,0.23l0.256,0.202l0.502,0.4l0.133,0.111l0.076,0.067l0.151,0.135c0.099,0.091,0.204,0.18,0.295,0.274
					c0.762,0.74,1.401,1.532,1.962,2.351c1.118,1.642,1.931,3.4,2.53,5.209c1.185,3.62,1.464,7.475,0.881,11.157
					c-0.29,1.858-0.776,3.594-1.475,5.376c-0.68,1.618-1.456,3.215-2.359,4.738c-1.768,3.096-4.174,5.681-6.294,8.02
					c-2.139,2.337-3.998,4.665-5.598,7.171c-1.624,2.476-2.93,5.123-4.153,7.709c-0.561,1.323-1.158,2.559-1.672,3.902
					c-0.522,1.328-1.035,2.635-1.54,3.92c-1.026,2.691-2.283,5.205-3.721,7.481c-2.858,4.572-6.466,8.138-10.099,10.596
					c-3.636,2.478-7.228,3.911-10.236,4.756c-3.018,0.846-5.468,1.152-7.149,1.27c-0.842,0.059-1.492,0.076-1.94,0.075
					c-0.463-0.01-0.703-0.014-0.703-0.014c-0.823-0.017-1.477-0.698-1.46-1.521c0.011-0.527,0.294-0.985,0.713-1.241L210.671,94.7z"
					/>
			</g>
		</g>
	</g>
</g>
<g id="Layer_1">
</g>
</svg>
