<?xml version="1.0" encoding="iso-8859-1"?>
<!-- Generator: Adobe Illustrator 19.2.0, SVG Export Plug-In . SVG Version: 6.00 Build 0)  -->
<!DOCTYPE svg PUBLIC "-//W3C//DTD SVG 1.1//EN" "http://www.w3.org/Graphics/SVG/1.1/DTD/svg11.dtd">
<svg version="1.1" xmlns="http://www.w3.org/2000/svg" xmlns:xlink="http://www.w3.org/1999/xlink" x="0px" y="0px"
	 viewBox="0 0 264.931 37.844" style="enable-background:new 0 0 264.931 37.844;" xml:space="preserve">
<g id="period">
	<g>
		<path style="fill:#FFFFFF;" d="M262.457,26.114c0,5.074-3.526,9.188-7.875,9.188H10.126c-4.349,0-7.875-4.113-7.875-9.188l0,0
			c0-5.074,3.526-9.188,7.875-9.188h244.457C258.931,16.926,262.457,21.04,262.457,26.114L262.457,26.114z"/>
		<path d="M264.929,26.221c0,0-0.005,0.132-0.014,0.393c-0.005,0.13-0.01,0.292-0.017,0.487c-0.014,0.219-0.056,0.552-0.096,0.887
			c-0.195,1.312-0.585,3.169-2.003,5.303c-0.721,1.04-1.713,2.115-3.081,2.997c-1.363,0.874-3.157,1.492-5.129,1.514
			c-2.882,0.001-6.194,0.003-9.904,0.006c-14.836,0.008-36.031,0.02-61.464,0.034c-25.434,0.001-55.106,0.002-86.898,0.003
			c-15.896-0.009-32.322-0.018-49.013-0.027c-8.345-0.005-16.757-0.009-25.202-0.014c-2.111-0.006-4.224-0.012-6.339-0.018
			l-3.173-0.02l-1.587-0.01l-0.794-0.005c-0.035,0.002-0.405-0.011-0.343-0.012l-0.198-0.013l-0.396-0.027
			c-3.116-0.315-5.489-2.041-7.045-4.226c-0.774-1.091-1.339-2.296-1.707-3.542c-0.197-0.62-0.316-1.26-0.405-1.896
			c-0.032-0.32-0.087-0.639-0.095-0.959l-0.024-1.058l0.049-0.793c0.013-0.257,0.079-0.667,0.123-0.992
			c0.115-0.687,0.246-1.278,0.461-1.899c0.4-1.224,0.993-2.395,1.781-3.442c1.551-2.084,4.013-3.713,6.794-3.969
			c0.332-0.02,0.714-0.043,1.004-0.046l0.794,0.005l1.587,0.01l3.173,0.02c2.115,0.007,4.228,0.013,6.339,0.02
			c8.445,0.009,16.856,0.018,25.202,0.027c16.691,0.018,33.117,0.035,49.013,0.052c31.792-0.002,61.464-0.004,86.898-0.005
			c25.434-0.027,46.628-0.049,61.464-0.065c3.753-0.002,7.104-0.005,10.02-0.007c0.18,0.01,0.358,0.02,0.534,0.03l0.263,0.015
			l0.371,0.051c0.247,0.04,0.492,0.08,0.734,0.119c0.213,0.058,0.423,0.116,0.632,0.173c0.831,0.233,1.567,0.603,2.237,0.997
			c1.329,0.808,2.33,1.807,3.071,2.793c1.49,1.991,1.972,3.873,2.186,5.103c0.114,0.622,0.15,1.098,0.167,1.418
			c0.021,0.32,0.032,0.482,0.032,0.482L264.929,26.221z M259.983,26.114c0,0-0.001-0.102-0.002-0.303
			c0.005-0.203,0.005-0.504-0.041-0.897c-0.094-0.775-0.288-1.971-1.044-3.289c-0.389-0.642-0.921-1.305-1.644-1.832
			c-0.375-0.234-0.776-0.468-1.226-0.609l-0.336-0.113c-0.093-0.016-0.186-0.036-0.28-0.061l-0.143-0.04l-0.263-0.016
			c-0.176-0.011-0.354-0.022-0.534-0.033c-2.847-0.002-6.119-0.004-9.784-0.007c-14.836-0.016-36.031-0.038-61.464-0.065
			c-25.434-0.001-55.106-0.003-86.898-0.005c-15.896,0.017-32.322,0.034-49.013,0.052c-8.345,0.009-16.757,0.018-25.202,0.027
			c-2.111,0.007-4.224,0.013-6.339,0.02l-3.173,0.02l-1.587,0.01l-0.794,0.005l-0.581,0.037c-1.467,0.155-2.856,1.058-3.77,2.401
			c-0.462,0.664-0.812,1.422-1.04,2.22c-0.125,0.382-0.2,0.838-0.247,1.195c-0.013,0.202-0.052,0.313-0.058,0.586l-0.02,0.795
			c0.008-0.143,0.009,0.051,0.014,0.06l0.011,0.157l0.02,0.314c0.01,0.209,0.061,0.413,0.086,0.619
			c0.074,0.407,0.16,0.815,0.303,1.198c0.26,0.775,0.638,1.499,1.114,2.119c0.474,0.622,1.051,1.132,1.669,1.5
			c0.594,0.373,1.35,0.592,1.851,0.643l0.649,0.031l0.794-0.005l1.587-0.01l3.173-0.02c2.115-0.006,4.228-0.012,6.339-0.018
			c8.445-0.005,16.856-0.009,25.202-0.014c16.691-0.009,33.117-0.018,49.013-0.027c31.792,0.001,61.464,0.002,86.898,0.003
			c25.434,0.014,46.628,0.026,61.464,0.034c3.708,0.002,7.019,0.004,9.9,0.005c1.842-0.018,3.263-1.185,4.059-2.371
			c0.828-1.175,1.114-2.396,1.227-3.089c0.022-0.174,0.053-0.287,0.069-0.455c0.01-0.194,0.018-0.356,0.025-0.486
			c0.013-0.26,0.02-0.393,0.02-0.393L259.983,26.114z"/>
	</g>
	<g>
		<path style="fill:#FFFFFF;" d="M262.457,11.239c0,5.074-3.526,9.188-7.875,9.188H10.126c-4.349,0-7.875-4.113-7.875-9.188l0,0
			c0-5.074,3.526-9.188,7.875-9.188h244.457C258.931,2.051,262.457,6.165,262.457,11.239L262.457,11.239z"/>
		<path d="M264.929,11.346c0,0-0.005,0.132-0.014,0.393c-0.005,0.13-0.01,0.292-0.017,0.487c-0.014,0.219-0.056,0.552-0.096,0.887
			c-0.195,1.312-0.585,3.169-2.003,5.303c-0.721,1.04-1.713,2.115-3.081,2.997c-1.363,0.874-3.157,1.492-5.129,1.514
			c-2.882,0.001-6.194,0.003-9.904,0.006c-14.836,0.008-36.031,0.02-61.464,0.034c-25.434,0.001-55.106,0.002-86.898,0.003
			c-15.896-0.009-32.322-0.018-49.013-0.027c-8.345-0.005-16.757-0.009-25.202-0.014c-2.111-0.006-4.224-0.012-6.339-0.018
			l-3.173-0.02l-1.587-0.01l-0.794-0.005c-0.035,0.002-0.405-0.011-0.343-0.012l-0.198-0.013l-0.396-0.027
			c-3.116-0.315-5.489-2.041-7.045-4.226c-0.774-1.091-1.339-2.296-1.707-3.542c-0.197-0.62-0.316-1.26-0.405-1.896
			c-0.032-0.32-0.087-0.639-0.095-0.959l-0.024-1.058l0.049-0.793C0.064,10.091,0.13,9.68,0.174,9.356
			C0.289,8.669,0.42,8.078,0.635,7.457c0.4-1.224,0.993-2.395,1.781-3.442c1.551-2.084,4.013-3.713,6.794-3.969
			C9.542,0.026,9.925,0.002,10.215,0l0.794,0.005l1.587,0.01l3.173,0.02c2.115,0.007,4.228,0.013,6.339,0.02
			c8.445,0.009,16.856,0.018,25.202,0.027C64.001,0.1,80.427,0.117,96.323,0.134c31.792-0.002,61.464-0.004,86.898-0.005
			c25.434-0.027,46.628-0.049,61.464-0.065c3.753-0.002,7.104-0.005,10.02-0.007c0.18,0.01,0.358,0.02,0.534,0.03l0.263,0.015
			l0.371,0.051c0.247,0.04,0.492,0.08,0.734,0.119c0.213,0.058,0.423,0.116,0.632,0.173c0.831,0.233,1.567,0.603,2.237,0.997
			c1.329,0.808,2.33,1.807,3.071,2.793c1.49,1.991,1.972,3.873,2.186,5.103c0.114,0.622,0.15,1.098,0.167,1.418
			c0.021,0.32,0.032,0.482,0.032,0.482L264.929,11.346z M259.983,11.239c0,0-0.001-0.102-0.002-0.303
			c0.005-0.203,0.005-0.504-0.041-0.897c-0.094-0.775-0.288-1.971-1.044-3.289c-0.389-0.642-0.921-1.305-1.644-1.832
			c-0.375-0.234-0.776-0.468-1.226-0.609l-0.336-0.113c-0.093-0.016-0.186-0.036-0.28-0.061l-0.143-0.04l-0.263-0.016
			c-0.176-0.011-0.354-0.022-0.534-0.033c-2.847-0.002-6.119-0.004-9.784-0.007c-14.836-0.016-36.031-0.038-61.464-0.065
			c-25.434-0.001-55.106-0.003-86.898-0.005C80.427,3.986,64.001,4.003,47.31,4.021c-8.345,0.009-16.757,0.018-25.202,0.027
			c-2.111,0.007-4.224,0.013-6.339,0.02l-3.173,0.02l-1.587,0.01l-0.794,0.005L9.634,4.14c-1.467,0.155-2.856,1.058-3.77,2.401
			c-0.462,0.664-0.812,1.422-1.04,2.22c-0.125,0.382-0.2,0.838-0.247,1.195c-0.013,0.202-0.052,0.313-0.058,0.586l-0.02,0.795
			c0.008-0.143,0.009,0.051,0.014,0.06l0.011,0.157l0.02,0.314c0.01,0.209,0.061,0.413,0.086,0.619
			c0.074,0.407,0.16,0.815,0.303,1.198c0.26,0.775,0.638,1.499,1.114,2.119c0.474,0.622,1.051,1.132,1.669,1.5
			c0.594,0.373,1.35,0.592,1.851,0.643l0.649,0.031l0.794-0.005l1.587-0.01l3.173-0.02c2.115-0.006,4.228-0.012,6.339-0.018
			c8.445-0.005,16.856-0.009,25.202-0.014c16.691-0.009,33.117-0.018,49.013-0.027c31.792,0.001,61.464,0.002,86.898,0.003
			c25.434,0.014,46.628,0.026,61.464,0.034c3.708,0.002,7.019,0.004,9.9,0.005c1.842-0.018,3.263-1.185,4.059-2.371
			c0.828-1.175,1.114-2.396,1.227-3.089c0.022-0.174,0.053-0.287,0.069-0.455c0.01-0.194,0.018-0.356,0.025-0.486
			c0.013-0.26,0.02-0.393,0.02-0.393L259.983,11.239z"/>
	</g>
</g>
<g id="Layer_1">
</g>
</svg>
