<?xml version="1.0" encoding="iso-8859-1"?>
<!-- Generator: Adobe Illustrator 19.2.0, SVG Export Plug-In . SVG Version: 6.00 Build 0)  -->
<!DOCTYPE svg PUBLIC "-//W3C//DTD SVG 1.1//EN" "http://www.w3.org/Graphics/SVG/1.1/DTD/svg11.dtd">
<svg version="1.1" xmlns="http://www.w3.org/2000/svg" xmlns:xlink="http://www.w3.org/1999/xlink" x="0px" y="0px"
	 viewBox="0 0 125 125" style="enable-background:new 0 0 125 125;" xml:space="preserve">
<g id="ta">
	<g id="ta_1_">
		<circle style="fill:#FFFFFF;stroke:#000000;stroke-width:5;stroke-miterlimit:10;" cx="62.5" cy="62.5" r="60"/>
		
			<line style="fill:none;stroke:#000000;stroke-width:4.5;stroke-linecap:round;stroke-linejoin:round;stroke-miterlimit:10;" x1="62.5" y1="19.166" x2="62.5" y2="2.5"/>
		<g>
			<path style="fill:#FFFFFF;" d="M35.894,27.105c7.718-4.918,16.841-7.939,26.616-7.939c9.893,0,19.118,2.912,26.894,7.939"/>
			<path d="M34.977,25.614c0,0,0.183-0.124,0.527-0.356c0.351-0.23,0.824-0.577,1.537-1c0.694-0.438,1.539-0.92,2.514-1.465
				c0.496-0.26,1.023-0.536,1.579-0.827c0.567-0.27,1.163-0.555,1.793-0.835c1.266-0.546,2.649-1.122,4.152-1.625
				c1.496-0.523,3.104-0.995,4.796-1.367c1.687-0.397,3.461-0.671,5.268-0.895c1.825-0.214,3.626-0.307,5.548-0.325
				c1.71,0.019,3.692,0.139,5.465,0.338c1.804,0.225,3.574,0.504,5.263,0.888c3.385,0.744,6.427,1.875,8.958,2.969
				c0.626,0.291,1.225,0.57,1.796,0.835c0.557,0.292,1.085,0.568,1.581,0.828c0.976,0.55,1.822,1.033,2.5,1.465
				c0.69,0.41,1.199,0.785,1.557,1.021c0.355,0.241,0.544,0.37,0.544,0.37c0.799,0.544,1.006,1.633,0.461,2.432
				c-0.521,0.765-1.543,0.987-2.33,0.526l-0.032-0.019c0,0-0.737-0.434-2.053-1.136c-0.652-0.361-1.465-0.759-2.398-1.209
				c-0.943-0.43-2.014-0.894-3.194-1.369c-1.188-0.454-2.48-0.932-3.879-1.334c-1.391-0.428-2.885-0.773-4.432-1.113
				c-1.549-0.332-3.171-0.565-4.823-0.75c-1.69-0.16-3.241-0.243-5.068-0.245c-1.614,0.004-3.351,0.06-4.986,0.235
				c-1.648,0.184-3.27,0.41-4.815,0.754c-1.546,0.336-3.036,0.699-4.427,1.126c-1.398,0.406-2.69,0.888-3.878,1.345
				c-1.181,0.476-2.253,0.941-3.198,1.372c-0.937,0.449-1.752,0.847-2.391,1.195c-0.64,0.329-1.188,0.643-1.546,0.842
				c-0.362,0.202-0.556,0.31-0.556,0.31c-0.845,0.471-1.912,0.168-2.383-0.677C33.982,27.12,34.235,26.119,34.977,25.614z"/>
		</g>
		<ellipse transform="matrix(0.0684 -0.9977 0.9977 0.0684 -32.0757 138.5843)" cx="58.171" cy="86.468" rx="6.594" ry="6.301"/>
		<g>
			<path d="M85.094,88.72c-0.813,0.958-1.622,1.803-2.476,2.644c-0.846,0.84-1.721,1.645-2.631,2.416
				c-0.447,0.393-0.907,0.773-1.382,1.137c-0.47,0.369-0.931,0.747-1.427,1.088c-0.96,0.716-1.976,1.367-3.001,2.005
				c-1.058,0.594-2.098,1.217-3.233,1.699c-1.094,0.546-2.283,0.928-3.449,1.344c-1.219,0.297-2.417,0.662-3.694,0.768
				c-1.249,0.226-2.546,0.142-3.824,0.145l-1.834-0.258c-0.526-0.043-1.217-0.254-1.856-0.424c-1.347-0.313-2.436-0.842-3.604-1.313
				c-1.09-0.581-2.206-1.129-3.206-1.828c-1.048-0.639-1.983-1.406-2.939-2.144c-0.918-0.779-1.823-1.567-2.665-2.413
				c-0.439-0.407-0.838-0.848-1.248-1.279c-0.414-0.428-0.812-0.869-1.195-1.322c-0.784-0.891-1.529-1.812-2.239-2.761
				c-0.723-0.958-1.382-1.887-2.059-2.973c-0.454-0.728-0.364-1.642,0.156-2.268c0.819-0.983,1.599-1.813,2.446-2.664
				c0.833-0.844,1.697-1.654,2.595-2.43c0.441-0.396,0.896-0.779,1.365-1.146c0.465-0.372,0.92-0.753,1.411-1.097
				c0.949-0.723,1.954-1.381,2.97-2.026c1.048-0.601,2.079-1.233,3.204-1.723c1.085-0.555,2.266-0.946,3.425-1.373
				c1.212-0.307,2.405-0.683,3.678-0.8c0.629-0.079,1.252-0.199,1.897-0.173l0.961-0.006l0.481-0.001h0.24l0.12,0h0.06h0.03l0.015,0
				c0.069,0.007-0.134-0.015,0.159,0.015c1.149,0.175,2.178,0.214,3.554,0.633c1.354,0.303,2.45,0.822,3.625,1.283
				c1.098,0.572,2.224,1.112,3.233,1.802c1.058,0.632,2.003,1.392,2.97,2.124c0.928,0.772,1.846,1.556,2.699,2.396
				c0.445,0.405,0.85,0.843,1.265,1.272c0.42,0.426,0.824,0.865,1.213,1.315c0.797,0.887,1.553,1.805,2.277,2.752
				c0.737,0.957,1.406,1.879,2.103,2.975c0.527,0.83,0.427,1.879-0.176,2.591L85.094,88.72z M80.493,87.084
				c-0.29-0.414-0.564-0.85-0.865-1.247c-0.649-0.868-1.333-1.716-2.049-2.529c-0.35-0.415-0.713-0.817-1.089-1.205
				c-0.372-0.392-0.735-0.795-1.13-1.16c-0.761-0.767-1.569-1.468-2.383-2.161c-0.841-0.645-1.665-1.33-2.561-1.871
				c-0.865-0.611-1.797-1.055-2.708-1.552c-0.94-0.372-1.912-0.837-2.789-1.029c-0.792-0.314-2.052-0.42-3.151-0.594
				c0.284,0.03,0.072,0.008,0.132,0.015l-0.012,0h-0.023l-0.047,0l-0.093,0l-0.186,0l-0.373,0l-0.746-0.004
				c-0.497-0.038-0.998,0.066-1.498,0.123c-1.005,0.069-1.994,0.385-2.992,0.615c-0.977,0.358-1.97,0.661-2.918,1.14
				c-0.97,0.405-1.89,0.962-2.821,1.479c-0.911,0.569-1.817,1.146-2.687,1.794c-0.447,0.304-0.866,0.651-1.294,0.985
				c-0.431,0.33-0.851,0.676-1.26,1.036c-0.832,0.702-1.637,1.443-2.411,2.211c-0.769,0.752-1.553,1.579-2.199,2.339l0.156-2.268
				c0.536,0.841,1.199,1.767,1.859,2.617c0.662,0.866,1.358,1.71,2.086,2.519c0.356,0.413,0.725,0.813,1.107,1.199
				c0.378,0.39,0.747,0.791,1.147,1.153c0.773,0.761,1.592,1.457,2.417,2.145c0.852,0.639,1.687,1.317,2.593,1.85
				c0.874,0.603,1.816,1.039,2.735,1.528c0.948,0.363,1.926,0.818,2.81,1c0.461,0.118,0.852,0.283,1.467,0.333l1.548,0.211
				c0.995-0.035,1.986,0.05,2.985-0.154c1.001-0.08,1.985-0.407,2.976-0.647c0.97-0.369,1.955-0.681,2.894-1.168
				c0.961-0.413,1.871-0.979,2.793-1.503c0.901-0.576,1.797-1.16,2.655-1.816c0.441-0.307,0.855-0.657,1.278-0.995
				c0.426-0.333,0.84-0.682,1.243-1.045c0.82-0.708,1.614-1.454,2.375-2.225C79.821,87.846,80.15,87.455,80.493,87.084z"/>
		</g>
		<g>
			<path d="M1.344,62.003c0,0,0.267-0.332,0.767-0.955c0.258-0.312,0.54-0.694,0.94-1.149c0.414-0.456,0.889-0.98,1.422-1.567
				c0.539-0.575,1.166-1.152,1.833-1.812c0.682-0.64,1.461-1.285,2.278-1.993c1.704-1.323,3.655-2.799,5.973-4.101
				c2.305-1.315,4.893-2.598,7.758-3.623c2.863-1.025,5.974-1.851,9.248-2.377c3.258-0.54,6.743-0.747,10.154-0.617
				c3.577,0.144,7.049,0.695,10.5,1.624c3.432,0.93,6.768,2.235,9.854,3.899c3.092,1.652,5.953,3.617,8.499,5.785
				c5.086,4.358,8.836,9.527,11.182,14.37c1.183,2.421,2.031,4.754,2.644,6.863c0.574,2.121,0.954,4.005,1.149,5.575
				c0.202,1.567,0.298,2.81,0.313,3.658c0.027,0.848,0.042,1.3,0.042,1.3c0.04,1.242-0.934,2.281-2.176,2.321
				c-1.242,0.04-2.281-0.934-2.321-2.176l-0.001-0.021l-0.003-0.125c0,0-0.009-0.4-0.027-1.149c-0.004-0.75-0.079-1.849-0.243-3.24
				c-0.156-1.393-0.479-3.069-0.968-4.965c-0.528-1.885-1.263-3.98-2.303-6.165c-2.06-4.371-5.402-9.094-9.996-13.117
				c-2.3-2-4.895-3.822-7.706-5.363c-2.806-1.553-5.849-2.779-8.986-3.665c-3.119-0.884-6.419-1.429-9.547-1.59
				c-3.294-0.159-6.438,0.005-9.492,0.475c-3.041,0.458-5.932,1.194-8.594,2.116c-2.665,0.923-5.07,2.089-7.215,3.282
				c-2.159,1.182-3.97,2.53-5.558,3.733c-0.758,0.646-1.485,1.233-2.119,1.817c-0.615,0.599-1.212,1.135-1.697,1.644
				c-0.476,0.512-0.901,0.969-1.271,1.367c-0.37,0.41-0.68,0.819-0.934,1.119c-0.506,0.618-0.776,0.948-0.776,0.948
				c-0.59,0.721-1.654,0.827-2.375,0.237C0.874,63.778,0.766,62.724,1.344,62.003z"/>
		</g>
	</g>
</g>
<g id="Layer_1">
</g>
</svg>
