<?xml version="1.0" encoding="iso-8859-1"?>
<!-- Generator: Adobe Illustrator 19.2.0, SVG Export Plug-In . SVG Version: 6.00 Build 0)  -->
<!DOCTYPE svg PUBLIC "-//W3C//DTD SVG 1.1//EN" "http://www.w3.org/Graphics/SVG/1.1/DTD/svg11.dtd">
<svg version="1.1" xmlns="http://www.w3.org/2000/svg" xmlns:xlink="http://www.w3.org/1999/xlink" x="0px" y="0px"
	 viewBox="0 0 125 125" style="enable-background:new 0 0 125 125;" xml:space="preserve">
<g id="te">
	<g id="te_1_">
		<circle style="fill:#FFFFFF;stroke:#000000;stroke-width:5;stroke-miterlimit:10;" cx="62.5" cy="62.5" r="60"/>
		
			<line style="fill:none;stroke:#000000;stroke-width:4.5;stroke-linecap:round;stroke-linejoin:round;stroke-miterlimit:10;" x1="62.5" y1="19.166" x2="62.5" y2="2.5"/>
		<g>
			<path style="fill:#FFFFFF;" d="M35.894,27.105c7.718-4.918,16.841-7.939,26.616-7.939c9.893,0,19.118,2.912,26.894,7.939"/>
			<path d="M34.977,25.614c0,0,0.183-0.124,0.527-0.356c0.351-0.23,0.824-0.577,1.537-1c0.694-0.438,1.539-0.92,2.514-1.465
				c0.496-0.26,1.023-0.536,1.579-0.827c0.567-0.27,1.163-0.555,1.793-0.835c1.266-0.546,2.649-1.122,4.152-1.625
				c1.496-0.523,3.104-0.995,4.796-1.367c1.687-0.397,3.461-0.671,5.268-0.895c1.825-0.214,3.626-0.307,5.548-0.325
				c1.71,0.019,3.692,0.139,5.465,0.338c1.804,0.225,3.574,0.504,5.263,0.888c3.385,0.744,6.427,1.875,8.958,2.969
				c0.626,0.291,1.225,0.57,1.796,0.835c0.557,0.292,1.085,0.568,1.581,0.828c0.976,0.55,1.822,1.033,2.5,1.465
				c0.69,0.41,1.199,0.785,1.557,1.021c0.355,0.241,0.544,0.37,0.544,0.37c0.799,0.544,1.006,1.633,0.461,2.432
				c-0.521,0.765-1.543,0.987-2.33,0.526l-0.032-0.019c0,0-0.737-0.434-2.053-1.136c-0.652-0.361-1.465-0.759-2.398-1.209
				c-0.943-0.43-2.014-0.894-3.194-1.369c-1.188-0.454-2.48-0.932-3.879-1.334c-1.391-0.428-2.885-0.773-4.432-1.113
				c-1.549-0.332-3.171-0.565-4.823-0.75c-1.69-0.16-3.241-0.243-5.068-0.245c-1.614,0.004-3.351,0.06-4.986,0.235
				c-1.648,0.184-3.27,0.41-4.815,0.754c-1.546,0.336-3.036,0.699-4.427,1.126c-1.398,0.406-2.69,0.888-3.878,1.345
				c-1.181,0.476-2.253,0.941-3.198,1.372c-0.937,0.449-1.752,0.847-2.391,1.195c-0.64,0.329-1.188,0.643-1.546,0.842
				c-0.362,0.202-0.556,0.31-0.556,0.31c-0.845,0.471-1.912,0.168-2.383-0.677C33.982,27.12,34.235,26.119,34.977,25.614z"/>
		</g>
		<g>
			<g>
				<path d="M64.801,47.832c0,0,0.033,0.771,0.089,2.12c0.037,1.349,0.129,3.276,0.169,5.589c0.037,2.312,0.125,5.01,0.139,7.901
					c0.019,2.891,0.039,5.974,0.059,9.057c-0.021,3.083-0.041,6.167-0.061,9.058c-0.019,2.891-0.102,5.589-0.14,7.901
					c-0.042,2.313-0.131,4.24-0.168,5.589c-0.056,1.349-0.089,2.12-0.089,2.12c-0.053,1.266-1.122,2.249-2.387,2.196
					c-1.198-0.05-2.143-1.02-2.196-2.196c0,0-0.032-0.771-0.089-2.12c-0.037-1.349-0.126-3.276-0.168-5.589
					c-0.038-2.312-0.122-5.01-0.14-7.901c-0.019-2.891-0.04-5.974-0.061-9.058c0.02-3.083,0.04-6.167,0.059-9.057
					c0.014-2.891,0.102-5.589,0.139-7.901c0.04-2.312,0.132-4.24,0.169-5.589c0.057-1.349,0.089-2.12,0.089-2.12
					c0.053-1.266,1.123-2.248,2.388-2.195C63.804,45.688,64.748,46.657,64.801,47.832z"/>
			</g>
			<g>
				<path d="M37.842,70.208c0,0,0.771-0.032,2.12-0.089c1.349-0.037,3.276-0.126,5.589-0.168c2.313-0.038,5.011-0.122,7.901-0.14
					c2.891-0.019,5.974-0.04,9.058-0.061c3.083,0.02,6.167,0.041,9.058,0.06c2.891,0.014,5.589,0.102,7.901,0.139
					c2.313,0.041,4.24,0.132,5.589,0.169c1.349,0.057,2.12,0.09,2.12,0.09c1.266,0.053,2.248,1.123,2.195,2.388
					c-0.051,1.198-1.02,2.142-2.195,2.195c0,0-0.771,0.032-2.12,0.089c-1.349,0.037-3.276,0.129-5.589,0.169
					c-2.313,0.037-5.011,0.125-7.901,0.14c-2.891,0.019-5.974,0.039-9.058,0.059c-3.083-0.021-6.167-0.041-9.058-0.061
					c-2.891-0.019-5.589-0.102-7.901-0.14c-2.313-0.042-4.24-0.131-5.589-0.168c-1.349-0.056-2.12-0.089-2.12-0.089
					c-1.266-0.053-2.249-1.122-2.196-2.387C35.696,71.206,36.666,70.26,37.842,70.208z"/>
			</g>
		</g>
	</g>
</g>
<g id="Layer_1">
</g>
</svg>
