<?xml version="1.0" encoding="iso-8859-1"?>
<!-- Generator: Adobe Illustrator 19.2.0, SVG Export Plug-In . SVG Version: 6.00 Build 0)  -->
<!DOCTYPE svg PUBLIC "-//W3C//DTD SVG 1.1//EN" "http://www.w3.org/Graphics/SVG/1.1/DTD/svg11.dtd">
<svg version="1.1" xmlns="http://www.w3.org/2000/svg" xmlns:xlink="http://www.w3.org/1999/xlink" x="0px" y="0px"
	 viewBox="0 0 65 125" style="enable-background:new 0 0 65 125;" xml:space="preserve">
<g id="la">
	<g id="la_1_">
		<g>
			<path style="fill:#FFFFFF;stroke:#000000;stroke-width:5;stroke-miterlimit:10;" d="M32.5,2.5c-16.569,0-30,13.431-30,30
				c0,33.137,16.193,90,30,90s30-56.863,30-90C62.5,15.931,49.069,2.5,32.5,2.5z"/>
			<g>
				<path d="M33.374,91.986c0,0-0.359,0.051-0.988,0.141c-0.623,0.084-1.507,0.179-2.572,0.272c-2.128,0.172-4.981,0.276-7.86,0.09
					c-0.719-0.047-1.441-0.128-2.151-0.192c-0.71-0.107-1.411-0.192-2.088-0.313c-0.676-0.145-1.333-0.257-1.952-0.417
					c-0.618-0.174-1.205-0.328-1.743-0.493c-0.535-0.198-1.025-0.379-1.46-0.539c-0.438-0.146-0.8-0.367-1.108-0.503
					c-0.611-0.299-0.96-0.47-0.96-0.47c-0.992-0.486-1.402-1.684-0.916-2.676s1.684-1.402,2.676-0.916
					c0.021,0.01,0.042,0.021,0.063,0.032l0.193,0.104c0,0,0.268,0.145,0.736,0.397c0.242,0.117,0.501,0.307,0.862,0.441
					c0.351,0.149,0.747,0.316,1.179,0.499c0.454,0.151,0.945,0.314,1.465,0.487c0.526,0.163,1.105,0.286,1.692,0.442
					c0.596,0.135,1.225,0.239,1.858,0.365c0.645,0.087,1.298,0.191,1.958,0.264c2.644,0.292,5.346,0.319,7.365,0.247
					c1.009-0.043,1.851-0.094,2.432-0.146c0.575-0.055,0.903-0.087,0.903-0.087l0.059-0.006c0.824-0.079,1.557,0.524,1.636,1.349
					C34.732,91.158,34.161,91.873,33.374,91.986z"/>
			</g>
			<g>
				<path d="M35.665,105.513c0,0-0.316,0.046-0.87,0.126c-0.548,0.076-1.324,0.161-2.259,0.246
					c-1.869,0.157-4.374,0.256-6.908,0.099c-0.633-0.039-1.269-0.108-1.894-0.164c-0.626-0.092-1.244-0.165-1.841-0.271
					c-0.597-0.126-1.177-0.223-1.724-0.363c-0.547-0.153-1.065-0.298-1.543-0.432c-0.474-0.174-0.909-0.333-1.295-0.474
					c-0.388-0.129-0.711-0.323-0.985-0.443c-0.543-0.265-0.854-0.416-0.854-0.416c-0.993-0.484-1.406-1.681-0.922-2.674
					c0.484-0.993,1.681-1.406,2.674-0.922c0.025,0.012,0.049,0.025,0.074,0.038l0.189,0.103c0,0,0.229,0.125,0.63,0.343
					c0.207,0.101,0.428,0.266,0.738,0.382c0.302,0.129,0.643,0.275,1.014,0.434c0.392,0.132,0.816,0.274,1.265,0.425
					c0.455,0.143,0.957,0.251,1.464,0.388c0.516,0.119,1.063,0.211,1.612,0.323c0.56,0.077,1.127,0.17,1.701,0.236
					c2.299,0.262,4.654,0.294,6.414,0.237c0.879-0.034,1.613-0.076,2.119-0.12c0.5-0.046,0.785-0.073,0.785-0.073l0.06-0.006
					c0.825-0.076,1.555,0.53,1.631,1.355C37.016,104.688,36.448,105.397,35.665,105.513z"/>
			</g>
		</g>
		<g>
			<ellipse transform="matrix(0.997 -0.0768 0.0768 0.997 -3.404 2.537)" cx="31.293" cy="45.539" rx="5.733" ry="6"/>
			<g>
				<path d="M51.17,45.167c-0.583,0.872-1.156,1.63-1.767,2.407c-0.607,0.769-1.238,1.517-1.893,2.246
					c-1.311,1.456-2.713,2.843-4.245,4.111c-1.53,1.267-3.187,2.429-5.021,3.359c-1.824,0.929-3.845,1.643-5.994,1.866l-0.402,0.043
					l-0.1,0.01l-0.165,0.008l-0.176,0.006l-0.712,0.019c-0.583-0.017-1.175-0.041-1.693-0.121c-1.069-0.143-2.118-0.388-3.107-0.749
					c-1.99-0.702-3.778-1.746-5.4-2.936c-1.619-1.198-3.08-2.549-4.422-3.989c-0.67-0.722-1.311-1.466-1.922-2.234
					c-0.618-0.781-1.184-1.53-1.769-2.422c-0.382-0.581-0.366-1.308-0.021-1.862c0.553-0.885,1.088-1.626,1.672-2.401
					c0.58-0.76,1.186-1.5,1.82-2.218c1.266-1.437,2.652-2.783,4.169-4.006c1.524-1.213,3.188-2.304,5.028-3.132
					c0.914-0.423,1.881-0.759,2.874-1.02c1.001-0.269,2.002-0.424,3.087-0.486c0.237-0.008,0.435-0.027,0.705-0.025l0.836,0.02
					c0.538,0.039,1.047,0.072,1.558,0.163c1.025,0.146,2.015,0.41,2.973,0.728c1.918,0.641,3.69,1.552,5.334,2.599
					c1.65,1.045,3.169,2.239,4.604,3.513c0.716,0.639,1.407,1.302,2.076,1.989c0.677,0.699,1.3,1.368,1.966,2.182
					c0.557,0.68,0.578,1.624,0.113,2.319L51.17,45.167z M46.941,44.204c-0.237-0.263-0.461-0.542-0.7-0.793
					c-0.598-0.628-1.219-1.237-1.86-1.822c-1.282-1.166-2.634-2.251-4.062-3.176c-1.423-0.931-2.921-1.713-4.464-2.247
					c-0.771-0.265-1.551-0.483-2.335-0.601c-0.387-0.077-0.793-0.102-1.163-0.137l-0.533-0.024
					c-0.187-0.007-0.445,0.011-0.664,0.016c-0.737,0.035-1.555,0.141-2.319,0.342c-0.774,0.195-1.544,0.448-2.292,0.785
					c-1.502,0.653-2.932,1.559-4.276,2.603c-1.34,1.054-2.6,2.245-3.763,3.536c-0.583,0.644-1.143,1.312-1.679,1.998
					c-0.525,0.676-1.063,1.416-1.486,2.075l-0.021-1.861c0.452,0.672,1.021,1.418,1.577,2.1c0.564,0.693,1.157,1.364,1.77,2.011
					c1.23,1.29,2.551,2.479,3.961,3.497c1.411,1.012,2.914,1.852,4.473,2.38c0.777,0.276,1.57,0.444,2.359,0.542
					c0.411,0.059,0.757,0.057,1.111,0.078l0.694-0.027l0.176-0.008l0.044-0.002l0.022-0.001c0.07-0.004-0.084,0.005-0.064,0.003
					l0.009-0.001l0.074-0.009l0.297-0.037c3.19-0.383,6.273-2.2,8.947-4.466c1.346-1.138,2.607-2.41,3.791-3.754
					c0.592-0.673,1.163-1.366,1.711-2.075C46.506,44.831,46.717,44.51,46.941,44.204z"/>
			</g>
			<g>
				<path d="M7.911,13.257c0,0,0.88-0.161,2.421-0.443c0.783-0.124,1.665-0.365,2.852-0.411c0.578-0.043,1.192-0.089,1.84-0.137
					c0.646-0.032,1.336-0.137,2.033-0.077c0.702,0.027,1.433,0.055,2.19,0.084c0.379,0.015,0.764,0.031,1.154,0.047
					c0.389,0.042,0.781,0.114,1.181,0.171c0.798,0.124,1.618,0.251,2.457,0.381c0.833,0.157,1.661,0.434,2.515,0.654
					c0.426,0.118,0.855,0.237,1.288,0.357c0.428,0.133,0.84,0.325,1.264,0.488c0.84,0.35,1.71,0.663,2.549,1.059
					c0.818,0.442,1.642,0.887,2.469,1.334c0.423,0.209,0.814,0.472,1.197,0.746l1.164,0.805l1.163,0.808l1.071,0.919
					c0.693,0.632,1.464,1.182,2.08,1.876c0.638,0.674,1.27,1.343,1.895,2.003c0.588,0.691,1.117,1.418,1.664,2.111
					c0.566,0.681,1.03,1.414,1.476,2.136c0.44,0.725,0.929,1.403,1.298,2.122c0.719,1.446,1.487,2.777,1.957,4.11
					c0.261,0.656,0.512,1.284,0.75,1.881c0.217,0.605,0.369,1.197,0.54,1.744c0.33,1.099,0.63,2.054,0.76,2.87
					c0.325,1.617,0.511,2.541,0.511,2.541c0.218,1.082-0.483,2.136-1.565,2.354s-2.136-0.483-2.354-1.565
					c-0.001-0.007-0.003-0.014-0.004-0.021l-0.035-0.188c0,0-0.154-0.833-0.423-2.292c-0.1-0.738-0.36-1.602-0.64-2.597
					c-0.146-0.496-0.27-1.034-0.457-1.583c-0.206-0.542-0.423-1.113-0.65-1.708c-0.397-1.216-1.079-2.421-1.7-3.743
					c-0.32-0.657-0.754-1.271-1.139-1.933c-0.391-0.66-0.795-1.331-1.297-1.949c-0.483-0.631-0.946-1.297-1.464-1.929
					c-0.552-0.604-1.11-1.214-1.673-1.83c-0.541-0.64-1.228-1.134-1.839-1.716l-0.945-0.846l-1.031-0.738l-1.03-0.741
					c-0.339-0.254-0.684-0.498-1.061-0.688c-0.734-0.414-1.465-0.826-2.19-1.236c-0.746-0.367-1.522-0.656-2.269-0.986
					c-0.379-0.152-0.743-0.336-1.126-0.461c-0.387-0.113-0.771-0.225-1.153-0.337c-0.766-0.209-1.504-0.478-2.254-0.632
					c-0.756-0.13-1.495-0.257-2.215-0.381c-0.361-0.059-0.714-0.133-1.066-0.178c-0.355-0.019-0.706-0.038-1.05-0.057
					c-0.689-0.039-1.355-0.077-1.994-0.114c-0.645-0.071-1.238,0.021-1.813,0.038c-0.573,0.031-1.117,0.06-1.628,0.087
					c-1.002-0.001-1.975,0.236-2.739,0.344c-1.545,0.255-2.428,0.4-2.428,0.4c-0.817,0.135-1.589-0.418-1.724-1.236
					C6.565,14.169,7.109,13.404,7.911,13.257z"/>
			</g>
		</g>
	</g>
</g>
<g id="Layer_1">
</g>
</svg>
