<?xml version="1.0" encoding="iso-8859-1"?>
<!-- Generator: Adobe Illustrator 19.2.0, SVG Export Plug-In . SVG Version: 6.00 Build 0)  -->
<!DOCTYPE svg PUBLIC "-//W3C//DTD SVG 1.1//EN" "http://www.w3.org/Graphics/SVG/1.1/DTD/svg11.dtd">
<svg version="1.1" xmlns="http://www.w3.org/2000/svg" xmlns:xlink="http://www.w3.org/1999/xlink" x="0px" y="0px"
	 viewBox="0 0 125.063 125.915" style="enable-background:new 0 0 125.063 125.915;" xml:space="preserve">
<g id="an">
	<g id="an_1_">
		<g>
			<path style="fill:#FFFFFF;" d="M2.5,106.224c0-16.982,26.738-22.579,59.875-22.579s60.134,7.595,60.134,22.971
				c0,10.393-9.268,16.803-20.866,16.803c-13,0-21-6.825-21-17.217c0,9.568-6.5,15.724-18,15.724c-12.5,0-18-6.156-18-15.724
				c0,10.393-8.75,17.217-21.25,17.217C11.796,123.419,2.5,116.617,2.5,106.224z"/>
			<path d="M0.001,106.162l0.023-0.779l0.074-0.966c0.068-0.604,0.162-1.206,0.29-1.805c0.259-1.196,0.658-2.37,1.181-3.476
				c1.045-2.222,2.579-4.14,4.302-5.708c3.481-3.138,7.564-5.056,11.636-6.527c4.095-1.458,8.271-2.423,12.451-3.175
				c4.183-0.744,8.38-1.244,12.576-1.598c4.197-0.354,8.394-0.555,12.586-0.655c4.199-0.086,8.366-0.114,12.583-0.028
				c8.4,0.195,16.819,0.862,25.165,2.391c4.17,0.779,8.327,1.756,12.41,3.142c4.07,1.4,8.118,3.14,11.8,5.814
				c1.829,1.34,3.566,2.933,4.979,4.896c1.415,1.947,2.455,4.311,2.801,6.794c0.186,1.24,0.184,2.506,0.102,3.615
				c-0.094,1.28-0.289,2.416-0.629,3.603c-0.662,2.338-1.837,4.547-3.391,6.4c-3.134,3.737-7.539,5.927-11.945,6.98
				c-2.218,0.534-4.476,0.801-6.72,0.823l-0.421,0.003l-0.252,0.001l-0.195-0.005l-0.779-0.021
				c-0.524-0.018-1.141-0.057-1.694-0.099c-1.113-0.094-2.227-0.241-3.337-0.445c-2.218-0.419-4.424-1.088-6.519-2.094
				c-2.086-1.019-4.051-2.393-5.689-4.125c-1.632-1.734-2.917-3.818-3.694-6.054c-0.796-2.234-1.084-4.581-1.051-6.861l0-0.001
				c-0.069-1.102,0.768-2.05,1.87-2.119s2.05,0.768,2.119,1.87l0.001,0.025l0.01,0.224c0.111,2.474-0.236,5.054-1.187,7.502
				c-0.968,2.435-2.595,4.673-4.652,6.346c-2.049,1.696-4.483,2.772-6.916,3.443c-1.222,0.334-2.456,0.568-3.686,0.711
				c-1.245,0.145-2.427,0.213-3.709,0.218c-1.074-0.01-2.43-0.082-3.613-0.215c-1.222-0.132-2.451-0.354-3.674-0.666
				c-2.433-0.628-4.909-1.662-6.983-3.387c-2.094-1.689-3.672-4.029-4.552-6.488c-0.866-2.477-1.135-5.023-1.027-7.464l0-0.001h4
				c0.07,2.806-0.484,5.716-1.757,8.333c-1.272,2.616-3.233,4.876-5.527,6.582c-2.296,1.719-4.914,2.89-7.584,3.645
				c-2.677,0.751-5.422,1.106-8.143,1.151c-1.321,0.017-2.761-0.06-4.127-0.229c-1.374-0.169-2.743-0.434-4.092-0.805
				c-2.694-0.742-5.32-1.916-7.66-3.604c-2.328-1.692-4.351-3.925-5.719-6.553c-1.381-2.62-2.054-5.6-2.035-8.498L0.001,106.162z
				 M5,106.224c0.003,2.174,0.508,4.283,1.505,6.15c0.991,1.87,2.463,3.494,4.241,4.774c1.769,1.296,3.838,2.252,6.027,2.87
				c1.095,0.309,2.222,0.535,3.364,0.683c1.151,0.148,2.249,0.214,3.464,0.217c2.35,0.015,4.684-0.241,6.907-0.811
				c2.223-0.568,4.319-1.488,6.141-2.741c1.818-1.259,3.323-2.895,4.347-4.809c1.044-1.904,1.593-4.091,1.648-6.355l0.001-0.049
				c0.027-1.104,0.944-1.977,2.048-1.95c1.087,0.027,1.95,0.918,1.951,1.999l0,0.001c0.114,2.077,0.446,4.099,1.216,5.855
				c0.735,1.764,1.846,3.268,3.33,4.368c1.478,1.1,3.258,1.893,5.208,2.355c0.973,0.233,1.979,0.405,3.01,0.501
				c1.069,0.098,1.975,0.143,3.165,0.142c0.981,0.003,2.063-0.037,3.068-0.144c1.02-0.104,2.018-0.282,2.983-0.532
				c1.936-0.491,3.71-1.323,5.221-2.439c1.505-1.128,2.686-2.617,3.475-4.355c0.828-1.726,1.208-3.709,1.323-5.754h4l0,0.001
				c0.075,3.755,1.453,7.271,3.988,9.767c2.538,2.5,6.076,3.979,9.813,4.588c0.938,0.15,1.888,0.255,2.847,0.316
				c0.484,0.025,0.904,0.046,1.419,0.053l0.779,0.005l0.195,0.001c-0.023-0.002,0.096-0.004,0.138-0.006l0.358-0.01
				c1.909-0.047,3.805-0.275,5.624-0.73c3.64-0.877,6.987-2.702,9.245-5.357c1.124-1.327,1.948-2.862,2.433-4.518
				c0.246-0.808,0.399-1.732,0.463-2.523c0.076-0.961,0.075-1.785-0.042-2.603c-0.402-3.296-2.702-6.223-5.731-8.456
				c-3.034-2.255-6.689-3.905-10.451-5.229c-3.78-1.317-7.723-2.299-11.718-3.064c-8.002-1.515-16.205-2.219-24.415-2.457
				c-4.092-0.122-8.239-0.099-12.349,0.026c-4.116,0.122-8.224,0.343-12.307,0.712c-4.083,0.369-8.145,0.878-12.142,1.613
				c-3.993,0.735-7.932,1.703-11.66,3.066c-3.708,1.362-7.264,3.146-9.95,5.63c-1.336,1.238-2.419,2.649-3.131,4.2
				c-0.357,0.775-0.624,1.584-0.798,2.42c-0.084,0.419-0.146,0.844-0.192,1.273l-0.043,0.588L5,106.286L5,106.224z"/>
		</g>
		
			<ellipse style="fill:#FFFFFF;stroke:#000000;stroke-width:5;stroke-miterlimit:10;" cx="62.563" cy="50.468" rx="60" ry="47.968"/>
		<g>
			<g>
				<path d="M9.79,23.384c0,0,0.275-0.208,0.791-0.598c0.239-0.189,0.597-0.442,1.047-0.744c0.44-0.31,0.944-0.635,1.503-0.961
					c2.232-1.359,5.661-2.981,10.022-3.909c4.347-0.936,9.612-1.079,14.995,0.02c5.385,1.083,10.817,3.414,15.627,6.587
					c2.41,1.583,4.671,3.366,6.753,5.264c0.53,0.466,1.033,0.953,1.529,1.443l0.746,0.729l0.721,0.753
					c0.908,0.931,1.842,1.994,2.721,3.015c3.451,4.093,6.119,8.371,7.975,12.237c0.922,1.937,1.69,3.75,2.259,5.399
					c0.594,1.64,1.011,3.103,1.341,4.311c0.305,1.215,0.535,2.171,0.657,2.831c0.134,0.657,0.205,1.008,0.205,1.008l-3.683,0.707
					c0,0-0.071-0.324-0.204-0.933c-0.122-0.61-0.349-1.495-0.646-2.618c-0.323-1.116-0.728-2.469-1.301-3.983
					c-0.548-1.523-1.288-3.197-2.168-4.983c-1.774-3.567-4.309-7.509-7.583-11.285c-0.823-0.926-1.632-1.833-2.595-2.795
					l-0.673-0.684l-0.704-0.668c-0.468-0.45-0.942-0.897-1.439-1.321c-1.956-1.733-4.064-3.345-6.287-4.76
					c-4.439-2.838-9.359-4.851-14.138-5.741c-4.78-0.902-9.358-0.7-13.083,0.157c-3.737,0.854-6.617,2.271-8.477,3.442
					c-0.48,0.289-0.877,0.554-1.2,0.79c-0.328,0.222-0.621,0.43-0.886,0.646c-0.51,0.397-0.782,0.609-0.782,0.609L9.79,23.384z"/>
			</g>
			<ellipse transform="matrix(0.0684 -0.9977 0.9977 0.0684 -17.2628 102.262)" cx="46.128" cy="60.375" rx="6.748" ry="6.748"/>
			<g>
				<path d="M78.352,62.434c-0.891,1.012-1.784,1.916-2.725,2.807c-0.932,0.891-1.897,1.744-2.897,2.56
					c-0.491,0.418-1.001,0.814-1.519,1.201c-0.513,0.393-1.026,0.786-1.567,1.145c-1.051,0.757-2.168,1.431-3.283,2.106
					c-1.156,0.615-2.293,1.264-3.522,1.764c-1.188,0.571-2.474,0.955-3.733,1.385c-1.31,0.307-2.602,0.676-3.967,0.784
					c-1.339,0.235-2.722,0.139-4.088,0.15l-1.975-0.264c-0.583-0.046-1.302-0.251-1.988-0.427c-1.429-0.313-2.629-0.852-3.889-1.334
					c-1.189-0.598-2.41-1.154-3.509-1.882c-1.149-0.662-2.187-1.46-3.248-2.228c-1.012-0.821-2.027-1.641-2.964-2.534
					c-0.487-0.43-0.942-0.889-1.396-1.348c-0.461-0.454-0.912-0.916-1.341-1.397c-0.879-0.944-1.719-1.921-2.521-2.932
					c-0.815-1.018-1.562-2.011-2.327-3.169c-0.498-0.753-0.406-1.726,0.163-2.374c0.916-1.042,1.791-1.924,2.738-2.821
					c0.932-0.891,1.897-1.745,2.897-2.56c0.491-0.418,1.001-0.814,1.519-1.201c0.513-0.393,1.026-0.786,1.567-1.145
					c1.051-0.757,2.168-1.431,3.283-2.106c1.156-0.616,2.293-1.264,3.522-1.764c1.188-0.571,2.474-0.955,3.733-1.385
					c1.31-0.307,2.602-0.676,3.967-0.784c0.675-0.08,1.345-0.19,2.034-0.158l1.027,0.002l0.514,0.002l0.257,0.002l0.128,0.001
					l0.064,0l0.032,0l0.016,0l0.146,0.013c1.251,0.195,2.387,0.24,3.833,0.677c1.429,0.313,2.629,0.852,3.889,1.334
					c1.188,0.598,2.41,1.154,3.509,1.882c1.149,0.663,2.187,1.46,3.248,2.228c1.012,0.821,2.027,1.641,2.964,2.534
					c0.487,0.43,0.942,0.889,1.396,1.348c0.461,0.454,0.912,0.916,1.341,1.397c0.879,0.945,1.719,1.921,2.521,2.932
					c0.815,1.018,1.562,2.011,2.327,3.169c0.498,0.754,0.408,1.726-0.162,2.373L78.352,62.434z M74.231,60.943
					c-0.382-0.522-0.754-1.071-1.158-1.572c-0.741-0.934-1.521-1.841-2.333-2.713c-0.397-0.446-0.813-0.871-1.237-1.289
					c-0.418-0.423-0.836-0.847-1.281-1.237c-0.86-0.821-1.779-1.559-2.693-2.304c-0.951-0.683-1.882-1.406-2.889-1.981
					c-0.972-0.649-2.023-1.113-3.045-1.638c-1.059-0.399-2.135-0.876-3.142-1.087c-0.925-0.337-2.288-0.433-3.488-0.615
					c0.256,0.026,0.064,0.007,0.117,0.013l-0.013,0h-0.026l-0.052,0l-0.104,0l-0.209,0.001l-0.417,0l-0.834-0.002
					c-0.556-0.036-1.114,0.065-1.671,0.131c-1.12,0.078-2.221,0.405-3.329,0.654c-1.085,0.38-2.189,0.696-3.241,1.207
					c-1.076,0.432-2.097,1.021-3.133,1.567c-1.007,0.613-2.018,1.219-2.982,1.915c-0.494,0.326-0.966,0.689-1.438,1.051
					c-0.477,0.355-0.947,0.72-1.401,1.107c-0.924,0.752-1.82,1.545-2.681,2.369c-0.857,0.807-1.727,1.695-2.45,2.517l0.163-2.373
					c0.604,0.913,1.345,1.911,2.083,2.828c0.741,0.934,1.521,1.841,2.333,2.713c0.397,0.446,0.813,0.871,1.237,1.288
					c0.418,0.423,0.836,0.847,1.281,1.238c0.86,0.821,1.779,1.559,2.693,2.304c0.951,0.683,1.882,1.406,2.889,1.98
					c0.972,0.649,2.023,1.113,3.045,1.638c1.059,0.399,2.135,0.876,3.142,1.087c0.515,0.136,0.983,0.309,1.643,0.365l1.714,0.237
					c1.113-0.029,2.224,0.077,3.34-0.131c1.12-0.078,2.221-0.405,3.329-0.654c1.085-0.38,2.189-0.696,3.241-1.207
					c1.076-0.432,2.097-1.021,3.133-1.567c1.007-0.613,2.018-1.219,2.982-1.915c0.494-0.326,0.966-0.689,1.438-1.051
					c0.477-0.355,0.947-0.72,1.401-1.107c0.924-0.752,1.82-1.545,2.681-2.369C73.341,61.898,73.781,61.409,74.231,60.943z"/>
			</g>
		</g>
	</g>
</g>
<g id="Layer_1">
</g>
</svg>
