<?xml version="1.0" encoding="iso-8859-1"?>
<!-- Generator: Adobe Illustrator 19.2.0, SVG Export Plug-In . SVG Version: 6.00 Build 0)  -->
<!DOCTYPE svg PUBLIC "-//W3C//DTD SVG 1.1//EN" "http://www.w3.org/Graphics/SVG/1.1/DTD/svg11.dtd">
<svg version="1.1" xmlns="http://www.w3.org/2000/svg" xmlns:xlink="http://www.w3.org/1999/xlink" x="0px" y="0px"
	 viewBox="0 0 74.061 125.002" style="enable-background:new 0 0 74.061 125.002;" xml:space="preserve">
<g id="lin">
	<g id="lin_1_">
		<g>
			<path style="fill:#FFFFFF;" d="M71.554,111.406c0,6.127-5.144,11.094-11.49,11.094s-11.49-4.967-11.49-11.094
				c0,6.127-5.144,10.3-11.49,10.3s-11.49-4.173-11.49-10.3c0,6.127-5.144,11.094-11.49,11.094s-11.49-4.967-11.49-11.094
				l0.43-5.924c0-16.855,15.234-22.409,34.114-22.409s34.262,7.538,34.262,22.798L71.554,111.406z"/>
			<path d="M73.976,105.768l0.077,5.703l0.008,0.555l-0.033,0.743c-0.04,0.462-0.102,0.911-0.186,1.363
				c-0.171,0.901-0.436,1.785-0.788,2.633c-0.727,1.687-1.808,3.207-3.124,4.462c-1.311,1.265-2.896,2.223-4.58,2.871
				c-1.692,0.639-3.501,0.933-5.283,0.902l-0.615-0.033l-0.711-0.066c-0.457-0.057-0.887-0.128-1.326-0.223
				c-0.87-0.19-1.725-0.456-2.539-0.811c-1.625-0.714-3.121-1.719-4.329-3c-1.213-1.27-2.173-2.772-2.783-4.398
				c-0.582-1.635-0.844-3.375-0.689-5.059l-0.001-0.005h3.001c0.167,1.632-0.071,3.358-0.701,4.961
				c-0.639,1.599-1.674,3.053-2.962,4.196c-1.276,1.164-2.805,1.999-4.392,2.569c-1.598,0.555-3.274,0.807-4.931,0.824l-0.585-0.016
				l-0.652-0.041c-0.431-0.037-0.834-0.084-1.251-0.153c-0.825-0.137-1.647-0.33-2.444-0.612c-1.588-0.569-3.117-1.403-4.394-2.566
				c-1.289-1.143-2.323-2.596-2.964-4.194c-0.631-1.602-0.871-3.328-0.704-4.961l-0.001-0.008h3.001
				c0.174,1.684-0.087,3.429-0.66,5.072c-0.6,1.635-1.554,3.153-2.782,4.417c-1.217,1.278-2.717,2.283-4.348,2.994
				c-1.637,0.7-3.419,1.067-5.201,1.111l-0.616-0.006l-0.716-0.04c-0.46-0.039-0.895-0.093-1.341-0.171
				c-0.884-0.155-1.757-0.393-2.6-0.713c-1.684-0.642-3.264-1.598-4.587-2.849c-1.323-1.248-2.408-2.764-3.147-4.449
				c-0.749-1.68-1.116-3.535-1.1-5.367l0-0.048c0-0.046,0.003-0.097,0.006-0.142l0.486-5.92l-0.007,0.185
				c0.019-2.219,0.281-4.482,0.905-6.691c0.63-2.204,1.633-4.336,2.968-6.228c1.342-1.888,3.011-3.512,4.843-4.821
				c1.832-1.318,3.818-2.32,5.839-3.119c4.053-1.594,8.247-2.383,12.407-2.822c4.17-0.445,8.308-0.547,12.467-0.437
				c4.196,0.132,8.359,0.656,12.491,1.634c4.11,1.012,8.197,2.547,11.868,5.039c1.826,1.247,3.544,2.733,4.984,4.508
				c1.443,1.766,2.628,3.787,3.436,5.956c0.793,2.175,1.182,4.474,1.263,6.739L73.976,105.768z M68.949,112.346l-0.012-0.878
				l-0.087-6.098c-0.02-1.8-0.31-3.559-0.841-5.234c-0.544-1.671-1.373-3.245-2.44-4.679c-1.063-1.439-2.402-2.702-3.869-3.834
				c-2.955-2.261-6.53-3.859-10.272-4.927c-3.74-1.106-7.701-1.602-11.631-1.797c-3.972-0.18-7.993,0.003-11.903,0.534
				c-1.957,0.268-3.886,0.663-5.767,1.162c-1.879,0.504-3.71,1.126-5.432,1.919c-3.454,1.563-6.442,3.845-8.385,6.767
				c-1.917,2.942-2.752,6.503-2.703,10.202l-0.003,0.126L5.6,105.667l-0.374,5.928l0.007-0.189c0.033,2.241,0.964,4.436,2.629,6.007
				c0.822,0.784,1.785,1.44,2.852,1.879c0.532,0.221,1.087,0.393,1.655,0.511c0.281,0.059,0.579,0.104,0.854,0.137l0.39,0.038
				L14.107,120c2.345,0.079,4.708-0.725,6.555-2.26c0.918-0.769,1.711-1.709,2.294-2.784c0.613-1.067,0.967-2.277,1.14-3.55
				l0.046-0.337c0.11-0.814,0.86-1.385,1.674-1.274c0.792,0.107,1.353,0.823,1.281,1.612l-0.001,0.006
				c0.167,1.238,0.516,2.389,1.093,3.395c0.563,1.011,1.343,1.871,2.255,2.57c0.923,0.684,1.969,1.232,3.104,1.565
				c0.565,0.169,1.145,0.31,1.738,0.394c0.292,0.044,0.604,0.074,0.888,0.094l0.423,0.021l0.491,0.006
				c2.421,0.014,4.807-0.693,6.643-2.084c0.911-0.699,1.691-1.56,2.253-2.571c0.577-1.006,0.924-2.158,1.091-3.395l0.045-0.334
				c0.11-0.814,0.859-1.385,1.673-1.275c0.792,0.107,1.353,0.822,1.283,1.61l0,0.004c0.155,1.273,0.509,2.488,1.114,3.561
				c0.574,1.083,1.362,2.039,2.295,2.801c0.938,0.754,1.984,1.359,3.11,1.726c0.561,0.186,1.133,0.33,1.715,0.412
				c0.288,0.042,0.591,0.069,0.869,0.085l0.395,0.011L60.067,120c2.349-0.068,4.587-1.03,6.238-2.594
				c0.828-0.778,1.495-1.716,1.95-2.74c0.239-0.507,0.426-1.038,0.557-1.584C68.868,112.84,68.911,112.591,68.949,112.346z"/>
		</g>
		<g>
			<path style="fill:#FFFFFF;stroke:#000000;stroke-width:5;stroke-miterlimit:10;" d="M37.086,2.5c-16.569,0-30,10.812-30,24.149
				c0,26.675,16.193,72.448,30,72.448s30-45.774,30-72.448C67.086,13.312,53.654,2.5,37.086,2.5z"/>
			<g>
				<path d="M37.919,74.83c0,0-1.426,0.195-3.517,0.345c-2.103,0.147-4.916,0.244-7.754,0.112c-1.418-0.064-2.843-0.197-4.182-0.371
					c-0.67-0.11-1.318-0.204-1.933-0.318c-0.615-0.135-1.197-0.263-1.734-0.382c-0.536-0.157-1.028-0.302-1.464-0.429
					c-0.437-0.113-0.812-0.29-1.124-0.402c-0.622-0.243-0.977-0.382-0.977-0.382c-1.029-0.402-1.537-1.562-1.135-2.591
					c0.402-1.029,1.562-1.537,2.591-1.135c0.023,0.009,0.046,0.019,0.069,0.028l0.176,0.077c0,0,0.28,0.123,0.771,0.338
					c0.25,0.101,0.53,0.26,0.902,0.371c0.363,0.125,0.772,0.266,1.219,0.42c0.465,0.125,0.969,0.26,1.501,0.402
					c0.547,0.116,1.123,0.238,1.72,0.364c1.21,0.213,2.518,0.397,3.843,0.517c2.65,0.245,5.344,0.277,7.359,0.227
					c2.029-0.055,3.336-0.174,3.336-0.174c0.825-0.075,1.555,0.533,1.63,1.359C39.288,74.008,38.709,74.721,37.919,74.83z"/>
			</g>
			<g>
				<path d="M40.211,85.718c0,0-1.256,0.175-3.089,0.312c-1.845,0.135-4.314,0.227-6.809,0.119c-1.247-0.052-2.5-0.166-3.68-0.316
					c-0.591-0.095-1.163-0.188-1.704-0.276c-0.544-0.118-1.058-0.229-1.532-0.333c-0.475-0.138-0.91-0.264-1.296-0.376
					c-0.387-0.099-0.721-0.255-0.997-0.354c-0.552-0.214-0.868-0.337-0.868-0.337c-1.03-0.4-1.541-1.559-1.142-2.589
					c0.4-1.03,1.559-1.541,2.589-1.142c0.027,0.011,0.054,0.022,0.08,0.033l0.173,0.077c0,0,0.24,0.106,0.661,0.293
					c0.215,0.088,0.454,0.225,0.775,0.323c0.313,0.109,0.666,0.233,1.051,0.367c0.402,0.109,0.838,0.228,1.299,0.353
					c0.474,0.102,0.974,0.21,1.491,0.322c1.05,0.189,2.187,0.353,3.341,0.462c2.307,0.221,4.656,0.257,6.414,0.22
					c1.772-0.042,2.908-0.141,2.908-0.141c0.826-0.072,1.553,0.539,1.625,1.365C41.572,84.9,40.995,85.607,40.211,85.718z"/>
			</g>
		</g>
		<g>
			<g>
				<path d="M7.252,30.828l43.5-0.25c1.381-0.008,2.506,1.105,2.514,2.486s-1.105,2.506-2.486,2.514c-0.005,0-0.024,0-0.029,0
					l-43.5-0.25c-1.243-0.007-2.244-1.02-2.237-2.263C5.022,31.831,6.022,30.835,7.252,30.828z"/>
			</g>
			<g>
				<circle cx="35.478" cy="46.52" r="4.876"/>
				<circle cx="35.478" cy="19.635" r="4.876"/>
			</g>
		</g>
	</g>
</g>
<g id="Layer_1">
</g>
</svg>
