<?xml version="1.0" encoding="iso-8859-1"?>
<!-- Generator: Adobe Illustrator 19.2.0, SVG Export Plug-In . SVG Version: 6.00 Build 0)  -->
<!DOCTYPE svg PUBLIC "-//W3C//DTD SVG 1.1//EN" "http://www.w3.org/Graphics/SVG/1.1/DTD/svg11.dtd">
<svg version="1.1" xmlns="http://www.w3.org/2000/svg" xmlns:xlink="http://www.w3.org/1999/xlink" x="0px" y="0px"
	 viewBox="0 0 125.16 125.048" style="enable-background:new 0 0 125.16 125.048;" xml:space="preserve">
<g id="man">
	<g id="man_1_">
		<g>
			<path style="fill:#FFFFFF;" d="M2.5,105.488c0-16.853,26.738-22.406,59.875-22.406s60.134,7.537,60.134,22.796
				c0,10.313-9.268,16.675-20.866,16.675c-13,0-21-6.773-21-17.086c0,9.495-6.5,15.604-18,15.604c-12.5,0-18-6.109-18-15.604
				c0,10.313-8.75,17.086-21.25,17.086C11.796,122.552,2.5,115.801,2.5,105.488z"/>
			<path d="M0.001,105.425l0.023-0.777l0.075-0.967c0.07-0.604,0.164-1.206,0.294-1.805c0.263-1.196,0.666-2.367,1.195-3.471
				c1.056-2.216,2.601-4.12,4.33-5.673c3.493-3.108,7.573-5.001,11.64-6.455c4.09-1.44,8.259-2.395,12.43-3.138
				c4.175-0.736,8.363-1.23,12.551-1.581c4.188-0.351,8.376-0.55,12.56-0.649c4.19-0.085,8.348-0.113,12.557-0.03
				c8.383,0.191,16.783,0.848,25.114,2.355c4.162,0.768,8.312,1.731,12.391,3.097c4.067,1.378,8.11,3.096,11.804,5.729
				c1.835,1.32,3.583,2.891,5.012,4.835c1.428,1.929,2.504,4.277,2.866,6.761c0.196,1.22,0.199,2.539,0.123,3.614
				c-0.086,1.291-0.285,2.419-0.622,3.608c-0.659,2.338-1.834,4.548-3.392,6.393c-3.139,3.725-7.54,5.895-11.935,6.943
				c-2.213,0.531-4.465,0.796-6.703,0.822c-0.293,0-0.531,0.01-0.868,0l-0.777-0.021c-0.515-0.015-1.134-0.057-1.686-0.095
				c-1.11-0.095-2.222-0.234-3.329-0.437c-2.214-0.409-4.415-1.07-6.511-2.058c-2.084-1.009-4.058-2.357-5.703-4.079
				c-1.642-1.718-2.942-3.792-3.729-6.023c-0.804-2.229-1.1-4.575-1.065-6.854l0-0.001c-0.069-1.101,0.768-2.05,1.869-2.119
				c1.101-0.069,2.05,0.768,2.119,1.869l0.001,0.024l0.01,0.226c0.112,2.469-0.241,5.046-1.202,7.485
				c-0.977,2.426-2.615,4.651-4.677,6.303c-2.052,1.678-4.48,2.736-6.904,3.398c-1.218,0.328-2.447,0.561-3.672,0.701
				c-1.24,0.143-2.418,0.21-3.694,0.214c-1.071-0.01-2.42-0.081-3.599-0.212c-1.217-0.131-2.441-0.349-3.66-0.656
				c-2.424-0.618-4.893-1.635-6.971-3.341c-2.096-1.67-3.692-3.992-4.579-6.445c-0.876-2.469-1.149-5.012-1.041-7.447l0-0.001h4
				c0.071,2.802-0.492,5.708-1.775,8.313c-1.282,2.605-3.253,4.846-5.55,6.533c-2.299,1.698-4.91,2.854-7.572,3.599
				c-2.669,0.74-5.403,1.09-8.114,1.135c-1.317,0.016-2.75-0.059-4.111-0.225c-1.369-0.167-2.734-0.427-4.078-0.793
				c-2.686-0.732-5.306-1.89-7.648-3.558c-2.329-1.673-4.362-3.887-5.741-6.503c-1.391-2.608-2.075-5.584-2.055-8.479L0.001,105.425
				z M5,105.488c0.003,2.161,0.512,4.256,1.513,6.108c0.995,1.856,2.472,3.464,4.251,4.731c1.771,1.281,3.839,2.226,6.024,2.836
				c1.093,0.305,2.218,0.528,3.357,0.674c1.148,0.146,2.244,0.211,3.455,0.214c2.344,0.015,4.671-0.237,6.891-0.799
				c2.219-0.56,4.312-1.471,6.138-2.707c1.82-1.244,3.33-2.865,4.358-4.763c1.048-1.889,1.602-4.063,1.657-6.315l0.001-0.049
				c0.027-1.104,0.944-1.977,2.048-1.95c1.087,0.026,1.95,0.918,1.951,1.999l0,0.001c0.113,2.068,0.449,4.078,1.222,5.819
				c0.737,1.752,1.855,3.236,3.34,4.324c1.48,1.087,3.26,1.869,5.207,2.325c0.972,0.23,1.976,0.399,3.003,0.494
				c1.065,0.096,1.971,0.141,3.156,0.14c0.979,0.003,2.057-0.036,3.06-0.141c1.017-0.102,2.013-0.279,2.977-0.525
				c1.932-0.484,3.706-1.306,5.219-2.408c1.509-1.112,2.692-2.588,3.485-4.312c0.831-1.712,1.216-3.682,1.33-5.718h4l0,0.001
				c0.062,1.862,0.389,3.684,1.075,5.333c0.685,1.646,1.672,3.135,2.94,4.373c2.548,2.479,6.093,3.93,9.826,4.528
				c0.936,0.151,1.887,0.248,2.844,0.31c0.482,0.021,0.899,0.045,1.42,0.05l0.778,0.004l0.687-0.016
				c1.906-0.05,3.8-0.277,5.616-0.729c3.635-0.873,6.982-2.686,9.239-5.328c1.126-1.319,1.946-2.848,2.426-4.497
				c0.242-0.802,0.399-1.729,0.456-2.507c0.072-0.992,0.066-1.759-0.055-2.59c-0.432-3.27-2.756-6.173-5.804-8.376
				c-3.051-2.226-6.706-3.856-10.469-5.161c-3.779-1.3-7.718-2.268-11.707-3.023c-7.991-1.494-16.178-2.189-24.372-2.423
				c-4.084-0.12-8.223-0.097-12.324,0.028c-4.108,0.121-8.207,0.341-12.283,0.706c-4.075,0.365-8.13,0.869-12.12,1.597
				c-3.987,0.727-7.92,1.686-11.647,3.033c-3.707,1.348-7.265,3.111-9.962,5.573c-1.341,1.227-2.431,2.627-3.148,4.168
				c-0.36,0.77-0.629,1.574-0.804,2.405c-0.086,0.416-0.148,0.839-0.194,1.266l-0.043,0.583L5,105.551L5,105.488z"/>
		</g>
		<g>
			<path style="fill:#FFFFFF;" d="M122.644,79.085c0,10.313-9.402,18.674-21,18.674c-13,0-21-9.948-21-20.261
				c0,9.495-6.5,18.779-18,18.779c-12.5,0-18-9.285-18-18.779c0,10.313-8.75,20.261-21.25,20.261
				c-11.598,0-20.769-9.139-20.769-19.452l0.019-28.149c0-26.29,26.863-47.602,60-47.602s60,21.312,60,47.602L122.644,79.085z"/>
			<path d="M125.143,79.156l-0.028,1.003c-0.031,0.402-0.059,0.816-0.103,1.208c-0.095,0.757-0.224,1.51-0.402,2.252
				c-0.357,1.483-0.89,2.921-1.573,4.275c-1.368,2.71-3.33,5.075-5.644,6.956c-2.321,1.878-4.987,3.28-7.795,4.183
				c-2.805,0.903-5.775,1.304-8.682,1.201c-0.608-0.011-1.49-0.085-2.195-0.167c-0.729-0.083-1.454-0.211-2.177-0.351
				c-1.442-0.305-2.863-0.74-4.233-1.309c-2.739-1.135-5.268-2.815-7.334-4.941c-2.073-2.118-3.707-4.643-4.789-7.375
				c-1.073-2.736-1.603-5.671-1.544-8.593h4c0.112,2.668-0.307,5.361-1.169,7.926c-0.893,2.553-2.277,4.972-4.127,7.034
				c-1.835,2.075-4.199,3.708-6.771,4.773c-1.288,0.532-2.629,0.921-3.984,1.172c-1.376,0.251-2.681,0.369-4.129,0.37l-0.912-0.027
				c-0.315-0.012-0.695-0.047-1.039-0.072c-0.706-0.064-1.357-0.139-2.037-0.266c-1.345-0.235-2.685-0.594-3.983-1.101
				c-2.593-1.009-5.019-2.633-6.855-4.753c-1.854-2.104-3.173-4.59-3.984-7.165c-0.783-2.588-1.12-5.26-1.01-7.89l0-0.001
				c-0.054-1.103,0.796-2.041,1.899-2.095s2.041,0.796,2.095,1.899l0.001,0.03l0.005,0.167c0.099,3.363-0.664,6.743-2.134,9.764
				c-1.472,3.024-3.621,5.711-6.245,7.834c-2.633,2.112-5.743,3.634-9.021,4.438c-1.638,0.406-3.314,0.637-4.991,0.703l-0.629,0.018
				l-0.368,0.003l-0.284-0.007c-0.38-0.01-0.736-0.011-1.206-0.051c-0.906-0.059-1.711-0.153-2.552-0.306
				C12.536,98.763,6.413,94.63,2.97,88.708c-1.711-2.954-2.76-6.354-2.846-9.826L0.11,69.721l0.003-18.174l0-1.136l0.002-0.363
				l0.009-0.284l0.018-0.568c0.033-0.77,0.02-1.475,0.119-2.337c0.127-1.682,0.37-3.267,0.679-4.85
				c0.64-3.164,1.645-6.251,2.991-9.171c2.685-5.852,6.627-11.028,11.259-15.359c4.629-4.356,9.996-7.824,15.671-10.539
				c2.837-1.368,5.787-2.479,8.775-3.439c2.99-0.962,6.043-1.717,9.13-2.261C51.851,0.68,54.968,0.3,58.095,0.14
				c1.583-0.119,3.081-0.109,4.739-0.14c1.519,0.036,3,0.037,4.62,0.16c3.174,0.185,6.255,0.558,9.346,1.146
				c3.081,0.573,6.136,1.316,9.12,2.297c5.979,1.914,11.724,4.632,16.963,8.168c5.249,3.509,9.957,7.91,13.733,13.062
				c3.767,5.147,6.553,11.118,7.781,17.467c0.145,0.793,0.261,1.593,0.39,2.389c0.112,0.799,0.165,1.605,0.248,2.408
				c0.109,1.607,0.133,3.256,0.123,4.729l-0.005,9.087l-0.009,18.174L125.143,79.156z M120.144,79.085l-0.009-18.174l-0.005-9.087
				c0.007-1.556-0.02-2.939-0.114-4.352c-0.076-0.703-0.12-1.41-0.219-2.11l-0.344-2.094c-1.082-5.564-3.537-10.838-6.921-15.453
				c-3.391-4.616-7.664-8.623-12.488-11.837c-4.81-3.24-10.125-5.754-15.683-7.526c-2.772-0.909-5.619-1.597-8.492-2.128
				c-2.86-0.545-5.807-0.894-8.68-1.058c-1.401-0.112-2.95-0.117-4.46-0.15c-1.369,0.035-2.903,0.021-4.342,0.137
				c-2.923,0.151-5.832,0.51-8.706,1.037c-2.877,0.511-5.721,1.205-8.498,2.099c-2.776,0.89-5.513,1.915-8.135,3.177
				c-5.245,2.503-10.178,5.688-14.382,9.641c-4.211,3.929-7.74,8.576-10.12,13.747c-1.194,2.582-2.077,5.294-2.641,8.066
				c-0.272,1.388-0.485,2.801-0.591,4.14c-0.089,0.643-0.083,1.455-0.115,2.198l-0.018,0.568L5.175,50.21
				c-0.001,0.041,0.001-0.102,0-0.008l0,0.071l0,0.142l-0.001,1.136L5.152,69.724l0.002,9.012c0.059,2.593,0.842,5.163,2.159,7.448
				c2.651,4.583,7.49,7.893,12.765,8.779c5.278,0.907,10.994-0.306,15.214-3.648c4.299-3.217,7.135-8.418,7.352-13.818h4l0,0
				c0.114,2.232,0.495,4.436,1.263,6.46c0.735,2.031,1.826,3.889,3.253,5.385c1.43,1.488,3.146,2.661,5.099,3.384
				c0.973,0.366,1.996,0.628,3.049,0.798c0.516,0.093,1.077,0.148,1.581,0.188c0.263,0.014,0.488,0.039,0.781,0.047l0.912,0.016
				c0.983,0.005,2.113-0.07,3.13-0.25c1.037-0.178,2.048-0.458,3.013-0.843c1.938-0.76,3.66-1.974,5.127-3.469
				c1.461-1.505,2.616-3.344,3.412-5.349c0.829-1.997,1.265-4.17,1.38-6.366c0-1.104,0.895-2,2-2c1.087,0,1.971,0.867,1.999,1.946
				l0.001,0.053c0.06,2.389,0.603,4.757,1.569,6.923c0.953,2.171,2.322,4.148,4.019,5.769c1.697,1.619,3.697,2.903,5.882,3.753
				c1.092,0.426,2.227,0.748,3.386,0.969c0.583,0.098,1.167,0.19,1.759,0.244c0.614,0.051,1.057,0.095,1.776,0.097
				c2.397,0.051,4.767-0.27,7.013-1.008c2.241-0.733,4.347-1.858,6.149-3.331c1.806-1.463,3.313-3.27,4.347-5.298
				c0.518-1.013,0.918-2.079,1.188-3.175c0.135-0.548,0.232-1.104,0.306-1.664l0.075-0.775l0.032-0.987L120.144,79.085z"/>
		</g>
		<g>
			<path style="fill:#FFFFFF;" d="M105.441,73.42c-11.95,2.664-26.749,4.24-42.773,4.24c-16.053,0-30.877-1.567-42.839-4.24"/>
			<path d="M105.755,74.887c0,0-0.325,0.089-0.935,0.256c-0.609,0.164-1.498,0.424-2.674,0.692c-1.17,0.286-2.576,0.599-4.204,0.943
				c-1.625,0.344-3.464,0.712-5.482,1.033c-2.015,0.345-4.206,0.661-6.529,0.949c-2.324,0.276-4.777,0.561-7.322,0.748
				c-2.544,0.202-5.176,0.389-7.854,0.48c-2.684,0.11-5.384,0.149-8.135,0.172c-2.672-0.024-5.435-0.064-8.104-0.173
				c-2.678-0.092-5.309-0.278-7.853-0.48c-5.089-0.407-9.821-1.015-13.852-1.695c-2.018-0.321-3.857-0.689-5.483-1.032
				c-1.626-0.344-3.039-0.659-4.198-0.943c-1.162-0.266-2.065-0.529-2.682-0.695c-0.617-0.168-0.945-0.258-0.945-0.258
				c-0.8-0.219-1.271-1.044-1.053-1.844c0.203-0.744,0.931-1.204,1.676-1.089l0.031,0.005c0,0,1.318,0.202,3.625,0.556
				c2.303,0.365,5.612,0.769,9.586,1.192c3.976,0.412,8.624,0.796,13.615,1.055c2.494,0.146,5.076,0.215,7.698,0.3
				c2.63,0.084,5.255,0.1,7.97,0.101c2.636-0.001,5.324-0.015,7.94-0.1c2.622-0.085,5.204-0.154,7.698-0.301
				c4.991-0.26,9.639-0.645,13.614-1.057c3.971-0.423,7.289-0.828,9.581-1.19c2.319-0.355,3.643-0.558,3.643-0.558
				c0.82-0.128,1.588,0.432,1.716,1.252C106.962,73.968,106.481,74.687,105.755,74.887z"/>
		</g>
		<g>
			<path d="M64.643,46.872c-0.235,3.48-3.239,6.104-6.711,5.862c-3.472-0.242-6.096-3.26-5.861-6.739
				c0.235-3.48,3.239-6.104,6.711-5.862S64.878,43.393,64.643,46.872z"/>
			<g>
				<path d="M85.247,48.789c-0.825,0.931-1.641,1.75-2.504,2.561c-0.854,0.811-1.738,1.585-2.654,2.326
					c-0.449,0.38-0.917,0.739-1.391,1.091c-0.47,0.357-0.94,0.713-1.436,1.039c-0.963,0.687-1.987,1.299-3.008,1.911
					c-1.061,0.559-2.103,1.146-3.231,1.598c-1.09,0.516-2.272,0.865-3.429,1.25c-1.204,0.279-2.392,0.605-3.647,0.698
					c-0.62,0.072-1.237,0.164-1.871,0.132l-0.945-0.007l-0.472-0.005l-0.236-0.003l-0.118-0.002l-0.059-0.001l-0.029,0l-0.164-0.018
					c-1.132-0.182-2.15-0.234-3.493-0.644c-1.321-0.298-2.407-0.802-3.56-1.249c-1.082-0.556-2.194-1.073-3.191-1.743
					c-1.044-0.612-1.984-1.346-2.945-2.052c-0.918-0.752-1.834-1.506-2.682-2.323c-0.441-0.394-0.85-0.815-1.261-1.234
					c-0.416-0.415-0.823-0.838-1.21-1.277c-0.793-0.863-1.55-1.755-2.273-2.677c-0.735-0.93-1.406-1.833-2.099-2.893
					c-0.485-0.742-0.394-1.695,0.159-2.333c0.831-0.957,1.618-1.76,2.474-2.581c0.842-0.815,1.714-1.595,2.618-2.342
					c0.444-0.383,0.906-0.745,1.375-1.1c0.464-0.36,0.929-0.72,1.419-1.049c0.952-0.694,1.966-1.313,2.977-1.933
					c1.051-0.566,2.084-1.162,3.203-1.623c1.081-0.526,2.256-0.883,3.406-1.279c1.197-0.289,2.38-0.626,3.632-0.731
					c0.618-0.078,1.234-0.175,1.867-0.149l0.944-0.002l0.472,0.001l0.236,0.001l0.118,0.001l0.059,0l0.03,0l0.164,0.017
					c1.134,0.17,2.151,0.21,3.501,0.61c1.328,0.288,2.42,0.781,3.581,1.219c1.089,0.546,2.211,1.055,3.218,1.718
					c1.054,0.604,2.004,1.331,2.976,2.031c0.928,0.746,1.856,1.494,2.715,2.306c0.447,0.391,0.862,0.81,1.278,1.227
					c0.422,0.413,0.835,0.833,1.228,1.271c0.806,0.859,1.575,1.747,2.31,2.667c0.749,0.929,1.429,1.824,2.143,2.895
					c0.564,0.846,0.462,1.941-0.181,2.667L85.247,48.789z M80.624,47.116c-0.275-0.374-0.533-0.767-0.817-1.125
					c-0.658-0.841-1.353-1.66-2.076-2.447c-0.353-0.402-0.723-0.787-1.101-1.163c-0.373-0.381-0.744-0.765-1.14-1.118
					c-0.766-0.741-1.582-1.409-2.397-2.081c-0.845-0.617-1.674-1.272-2.569-1.791c-0.865-0.588-1.797-1.007-2.704-1.485
					c-0.938-0.357-1.9-0.799-2.776-0.987c-0.795-0.303-2.036-0.407-3.12-0.576l-0.013-0.002c0.057,0.006-0.146-0.015,0.125,0.013
					h-0.023h-0.046l-0.093,0l-0.185,0l-0.37-0.002l-0.74-0.007c-0.493-0.036-0.99,0.046-1.486,0.104
					c-0.997,0.062-1.981,0.344-2.972,0.562c-0.972,0.333-1.961,0.608-2.906,1.061c-0.966,0.381-1.886,0.905-2.819,1.39
					c-0.907,0.547-1.82,1.086-2.69,1.708c-0.446,0.291-0.873,0.615-1.299,0.94c-0.431,0.318-0.856,0.644-1.267,0.991
					c-0.835,0.674-1.646,1.385-2.426,2.124c-0.775,0.723-1.565,1.523-2.215,2.255l0.159-2.333c0.545,0.814,1.218,1.715,1.887,2.537
					c0.671,0.839,1.378,1.654,2.113,2.437c0.359,0.4,0.735,0.782,1.119,1.156c0.379,0.379,0.756,0.76,1.158,1.11
					c0.777,0.736,1.605,1.398,2.43,2.063c0.856,0.611,1.695,1.258,2.6,1.77c0.874,0.58,1.815,0.99,2.731,1.46
					c0.946,0.348,1.914,0.779,2.797,0.957c0.802,0.293,2.041,0.384,3.128,0.542l0.013,0.002c-0.057-0.006,0.146,0.015-0.125-0.013
					l0.023,0l0.046-0.001l0.093-0.001l0.185-0.002l0.37-0.003l0.74-0.001c0.492,0.03,0.988-0.058,1.483-0.122
					c0.993-0.074,1.972-0.367,2.956-0.595c0.965-0.343,1.947-0.628,2.884-1.09c0.957-0.39,1.868-0.922,2.791-1.415
					c0.898-0.555,1.799-1.101,2.659-1.73c0.441-0.294,0.862-0.622,1.283-0.949c0.425-0.321,0.845-0.65,1.25-1
					c0.824-0.68,1.623-1.396,2.39-2.139C79.994,47.8,80.301,47.447,80.624,47.116z"/>
			</g>
			<g>
				<path d="M15.378,18.7c0,0,0.298-0.161,0.855-0.464c0.524-0.292,1.475-0.77,2.581-1.267c2.242-1.018,5.532-2.263,9.612-3.221
					c4.071-0.963,8.941-1.665,14.198-1.609c1.245-0.001,2.618,0.059,3.965,0.134c1.342,0.084,2.698,0.216,4.064,0.378
					c2.729,0.346,5.49,0.877,8.204,1.634c5.426,1.492,10.67,3.989,14.89,7.381c2.111,1.686,3.961,3.579,5.482,5.561
					c1.525,1.981,2.719,4.045,3.618,6.034c0.89,1.993,1.537,3.896,1.935,5.617c0.226,0.855,0.351,1.671,0.506,2.419
					c0.103,0.754,0.198,1.447,0.284,2.073c0.117,1.255,0.189,2.242,0.193,2.915c0.021,0.673,0.032,1.031,0.032,1.031
					c0.038,1.242-0.938,2.28-2.179,2.318s-2.279-0.938-2.318-2.179l-0.001-0.023l-0.002-0.115c0,0-0.007-0.318-0.019-0.914
					c0.006-0.598-0.051-1.469-0.139-2.575c-0.068-0.549-0.144-1.156-0.227-1.818c-0.132-0.651-0.228-1.367-0.417-2.109
					c-0.325-1.5-0.869-3.144-1.612-4.867c-1.483-3.444-4.068-7.115-7.765-10.116c-3.67-3.024-8.363-5.355-13.358-6.79
					c-2.495-0.728-5.061-1.254-7.617-1.608c-1.28-0.167-2.554-0.306-3.82-0.4c-1.261-0.083-2.466-0.156-3.76-0.171
					c-4.904-0.124-9.497,0.455-13.338,1.302c-3.849,0.839-6.939,1.955-9.023,2.862c-1.061,0.46-1.783,0.803-2.374,1.118
					c-0.563,0.294-0.863,0.45-0.863,0.45c-0.826,0.432-1.846,0.113-2.277-0.713C14.26,20.148,14.571,19.139,15.378,18.7z"/>
			</g>
		</g>
	</g>
</g>
<g id="Layer_1">
</g>
</svg>
