<?xml version="1.0" encoding="iso-8859-1"?>
<!-- Generator: Adobe Illustrator 19.2.0, SVG Export Plug-In . SVG Version: 6.00 Build 0)  -->
<!DOCTYPE svg PUBLIC "-//W3C//DTD SVG 1.1//EN" "http://www.w3.org/Graphics/SVG/1.1/DTD/svg11.dtd">
<svg version="1.1" xmlns="http://www.w3.org/2000/svg" xmlns:xlink="http://www.w3.org/1999/xlink" x="0px" y="0px"
	 viewBox="0 0 125.159 124.994" style="enable-background:new 0 0 125.159 124.994;" xml:space="preserve">
<g id="win">
	<g id="win_1_">
		<g>
			<path style="fill:#FFFFFF;" d="M2.5,105.433c0-16.853,26.738-22.407,59.875-22.407s60.134,7.537,60.134,22.796
				c0,10.314-9.268,16.675-20.866,16.675c-13,0-21-6.773-21-17.087c0,9.495-6.5,15.604-18,15.604c-12.5,0-18-6.109-18-15.604
				c0,10.314-8.75,17.087-21.25,17.087C11.796,122.498,2.5,115.747,2.5,105.433z"/>
			<path d="M0.001,105.37l0.023-0.777l0.075-0.967c0.07-0.604,0.164-1.206,0.294-1.805c0.263-1.196,0.666-2.367,1.195-3.471
				c1.056-2.216,2.601-4.12,4.33-5.673c3.493-3.109,7.573-5.002,11.64-6.455c4.09-1.44,8.259-2.395,12.43-3.138
				c4.175-0.736,8.363-1.23,12.551-1.581c4.188-0.351,8.376-0.55,12.56-0.649c4.19-0.085,8.348-0.113,12.557-0.03
				c8.383,0.191,16.783,0.848,25.114,2.355c4.162,0.768,8.312,1.732,12.391,3.097c4.067,1.378,8.11,3.096,11.804,5.729
				c1.835,1.32,3.582,2.891,5.012,4.835c1.428,1.929,2.503,4.277,2.866,6.761c0.196,1.22,0.199,2.539,0.122,3.614
				c-0.086,1.291-0.285,2.419-0.622,3.608c-0.659,2.338-1.834,4.548-3.392,6.393c-3.139,3.725-7.54,5.895-11.935,6.943
				c-2.213,0.531-4.465,0.796-6.703,0.822c-0.293,0-0.531,0.01-0.868,0l-0.777-0.021c-0.515-0.015-1.134-0.057-1.686-0.095
				c-1.11-0.095-2.222-0.233-3.329-0.437c-2.214-0.409-4.415-1.07-6.511-2.058c-2.084-1.009-4.058-2.357-5.703-4.079
				c-1.642-1.718-2.942-3.792-3.729-6.023c-0.804-2.229-1.1-4.576-1.065-6.854l0-0.001h4c0.112,2.469-0.241,5.046-1.201,7.485
				c-0.977,2.426-2.615,4.651-4.677,6.303c-2.052,1.678-4.48,2.737-6.904,3.398c-1.218,0.328-2.447,0.561-3.672,0.701
				c-1.24,0.143-2.418,0.21-3.695,0.215c-1.071-0.01-2.42-0.081-3.599-0.212c-1.217-0.131-2.441-0.349-3.66-0.656
				c-2.424-0.618-4.893-1.635-6.971-3.341c-2.096-1.67-3.692-3.992-4.579-6.445c-0.876-2.469-1.149-5.012-1.041-7.447l0-0.001
				c-0.043-1.104,0.816-2.033,1.92-2.076c1.103-0.043,2.033,0.816,2.076,1.92l0.001,0.017l0.004,0.14
				c0.071,2.802-0.492,5.708-1.775,8.313c-1.282,2.605-3.253,4.846-5.55,6.533c-2.299,1.698-4.91,2.855-7.572,3.599
				c-2.669,0.74-5.403,1.09-8.114,1.135c-1.317,0.016-2.75-0.059-4.111-0.225c-1.369-0.166-2.734-0.427-4.078-0.793
				c-2.686-0.732-5.306-1.89-7.648-3.558c-2.329-1.674-4.362-3.887-5.741-6.504c-1.391-2.608-2.075-5.584-2.054-8.479L0.001,105.37z
				 M5,105.433c0.003,2.161,0.512,4.256,1.513,6.108c0.995,1.856,2.472,3.464,4.251,4.731c1.771,1.281,3.839,2.226,6.024,2.836
				c1.093,0.305,2.218,0.528,3.357,0.674c1.148,0.146,2.244,0.211,3.455,0.214c2.344,0.015,4.671-0.238,6.891-0.799
				c2.219-0.56,4.312-1.471,6.138-2.708c1.82-1.244,3.33-2.865,4.358-4.763c1.048-1.889,1.602-4.063,1.657-6.315h4l0,0.001
				c0.113,2.068,0.449,4.078,1.222,5.819c0.737,1.752,1.855,3.236,3.34,4.325c1.48,1.087,3.26,1.869,5.207,2.325
				c0.972,0.23,1.976,0.399,3.003,0.495c1.065,0.096,1.971,0.141,3.157,0.14c0.979,0.003,2.057-0.036,3.06-0.141
				c1.017-0.102,2.013-0.279,2.977-0.525c1.932-0.484,3.706-1.306,5.219-2.408c1.509-1.112,2.692-2.589,3.485-4.312
				c0.831-1.712,1.216-3.683,1.33-5.718l0.009-0.157c0.062-1.102,1.005-1.944,2.106-1.883c1.078,0.061,1.908,0.969,1.885,2.04
				l0,0.001c0.062,1.862,0.389,3.684,1.075,5.333c0.685,1.647,1.672,3.135,2.94,4.373c2.548,2.479,6.093,3.93,9.826,4.528
				c0.936,0.151,1.887,0.248,2.844,0.31c0.482,0.021,0.899,0.045,1.42,0.05l0.778,0.004l0.687-0.016
				c1.906-0.05,3.8-0.277,5.616-0.729c3.635-0.873,6.982-2.686,9.239-5.328c1.126-1.319,1.946-2.848,2.426-4.497
				c0.242-0.802,0.399-1.729,0.456-2.507c0.072-0.992,0.066-1.759-0.055-2.59c-0.431-3.27-2.755-6.173-5.803-8.377
				c-3.051-2.226-6.706-3.856-10.469-5.161c-3.779-1.3-7.718-2.269-11.707-3.023c-7.991-1.494-16.178-2.189-24.372-2.423
				c-4.084-0.12-8.223-0.097-12.324,0.028c-4.108,0.121-8.208,0.341-12.284,0.706c-4.075,0.365-8.13,0.869-12.121,1.597
				c-3.987,0.727-7.92,1.686-11.647,3.033c-3.707,1.348-7.265,3.111-9.962,5.574c-1.341,1.227-2.431,2.627-3.148,4.168
				c-0.36,0.77-0.629,1.574-0.804,2.405c-0.086,0.416-0.148,0.839-0.194,1.266l-0.043,0.584L5,105.496L5,105.433z"/>
		</g>
		<g>
			<path style="fill:#FFFFFF;" d="M2.625,21.172c0-10.314,9.402-18.674,21-18.674c13,0,21,9.949,21,20.262
				c0-9.495,6.5-18.78,18-18.78c12.5,0,18,9.285,18,18.78c0-10.314,8.75-20.262,21.25-20.262c11.598,0,20.769,9.139,20.769,19.453
				l-0.019,28.15c0,26.29-26.863,47.603-60,47.603s-60-21.313-60-47.603L2.625,21.172z"/>
			<path d="M0.126,21.101l0.028-1.003c0.031-0.402,0.059-0.816,0.103-1.208c0.095-0.757,0.224-1.51,0.402-2.252
				c0.357-1.484,0.889-2.921,1.573-4.275c1.368-2.711,3.33-5.075,5.643-6.957c2.321-1.877,4.987-3.28,7.795-4.183
				c2.805-0.903,5.775-1.305,8.683-1.201c0.608,0.011,1.49,0.085,2.195,0.167c0.729,0.083,1.454,0.21,2.177,0.351
				c1.442,0.305,2.864,0.74,4.233,1.309c2.739,1.135,5.268,2.815,7.334,4.942c2.073,2.118,3.707,4.643,4.789,7.375
				c1.073,2.736,1.603,5.671,1.544,8.593h-4h0c-0.112-2.668,0.307-5.361,1.169-7.926c0.893-2.554,2.277-4.973,4.127-7.034
				c1.835-2.076,4.199-3.708,6.771-4.773c1.288-0.532,2.629-0.921,3.984-1.172c1.376-0.251,2.681-0.37,4.129-0.37l0.912,0.027
				c0.315,0.012,0.695,0.047,1.039,0.072c0.706,0.064,1.357,0.139,2.037,0.266c1.345,0.235,2.685,0.594,3.983,1.101
				c2.593,1.009,5.019,2.633,6.855,4.753c1.854,2.104,3.173,4.59,3.984,7.165c0.783,2.588,1.12,5.26,1.01,7.89l0,0.001h-4
				c-0.099-3.363,0.664-6.743,2.134-9.764c1.472-3.024,3.621-5.711,6.245-7.834c2.633-2.112,5.743-3.634,9.021-4.438
				c1.638-0.406,3.315-0.637,4.991-0.703l0.629-0.018L102.013,0l0.284,0.007c0.38,0.01,0.736,0.011,1.206,0.05
				c0.906,0.06,1.711,0.153,2.552,0.306c6.679,1.13,12.802,5.263,16.245,11.186c1.711,2.954,2.76,6.354,2.846,9.826l0.014,9.161
				l-0.003,18.174l0,1.136l-0.002,0.363l-0.009,0.284l-0.018,0.568c-0.033,0.77-0.02,1.475-0.119,2.337
				c-0.127,1.682-0.37,3.267-0.679,4.85c-0.64,3.164-1.645,6.251-2.991,9.171c-2.685,5.852-6.627,11.028-11.259,15.36
				c-4.629,4.356-9.996,7.824-15.671,10.539c-2.838,1.368-5.787,2.479-8.775,3.439c-2.99,0.962-6.043,1.717-9.13,2.261
				c-3.084,0.561-6.201,0.941-9.328,1.101c-1.583,0.119-3.081,0.109-4.739,0.14c-1.519-0.036-3-0.037-4.62-0.16
				c-3.174-0.185-6.256-0.558-9.346-1.146c-3.081-0.573-6.136-1.316-9.12-2.297c-5.98-1.915-11.724-4.633-16.963-8.168
				c-5.249-3.509-9.957-7.91-13.733-13.063c-3.767-5.147-6.553-11.118-7.781-17.467c-0.144-0.793-0.261-1.593-0.39-2.389
				c-0.112-0.799-0.165-1.605-0.248-2.408c-0.109-1.607-0.133-3.256-0.123-4.729l0.005-9.087l0.009-18.174L0.126,21.101z
				 M5.125,21.172l0.009,18.174l0.005,9.087c-0.007,1.556,0.02,2.939,0.114,4.352c0.076,0.703,0.12,1.41,0.219,2.111l0.344,2.094
				c1.082,5.564,3.537,10.839,6.92,15.453c3.391,4.616,7.664,8.624,12.488,11.837c4.81,3.24,10.125,5.754,15.683,7.526
				c2.772,0.909,5.619,1.597,8.492,2.129c2.86,0.545,5.807,0.894,8.68,1.058c1.401,0.112,2.951,0.117,4.46,0.15
				c1.369-0.035,2.903-0.021,4.342-0.137c2.923-0.151,5.832-0.51,8.706-1.037c2.877-0.512,5.721-1.205,8.498-2.099
				c2.776-0.89,5.513-1.915,8.135-3.177c5.245-2.503,10.178-5.688,14.382-9.641c4.211-3.929,7.74-8.576,10.12-13.748
				c1.194-2.581,2.076-5.294,2.64-8.066c0.272-1.388,0.485-2.801,0.591-4.14c0.089-0.642,0.083-1.455,0.115-2.198l0.018-0.568
				l0.009-0.284c0.001-0.041-0.001,0.103,0,0.008l0-0.071l0-0.142l0.001-1.136l0.021-18.174l-0.002-9.012
				c-0.059-2.593-0.842-5.164-2.159-7.448c-2.651-4.584-7.49-7.893-12.765-8.78C99.913,4.386,94.197,5.6,89.978,8.941
				c-4.299,3.217-7.135,8.419-7.352,13.818l-0.003,0.08c-0.044,1.103-0.975,1.962-2.078,1.917c-1.075-0.043-1.917-0.932-1.919-1.998
				l0,0c-0.114-2.232-0.495-4.436-1.263-6.461c-0.735-2.031-1.826-3.889-3.253-5.385c-1.43-1.488-3.146-2.661-5.099-3.384
				c-0.973-0.366-1.996-0.628-3.049-0.798c-0.516-0.093-1.077-0.148-1.581-0.188c-0.263-0.014-0.488-0.039-0.781-0.047l-0.912-0.016
				c-0.983-0.005-2.113,0.07-3.13,0.25C58.52,6.91,57.509,7.19,56.544,7.574c-1.938,0.76-3.66,1.974-5.127,3.47
				c-1.461,1.505-2.616,3.344-3.412,5.35c-0.829,1.997-1.265,4.17-1.38,6.366c0,1.104-0.895,2-2,2c-1.087,0-1.971-0.867-1.999-1.946
				l-0.001-0.053c-0.06-2.389-0.603-4.757-1.569-6.923c-0.953-2.171-2.322-4.148-4.019-5.769c-1.697-1.62-3.697-2.904-5.882-3.753
				c-1.092-0.426-2.227-0.748-3.386-0.969c-0.583-0.098-1.167-0.19-1.759-0.244c-0.614-0.051-1.057-0.095-1.776-0.097
				c-2.397-0.051-4.767,0.27-7.013,1.008c-2.241,0.733-4.347,1.858-6.149,3.331c-1.806,1.463-3.313,3.27-4.347,5.298
				c-0.518,1.013-0.918,2.079-1.188,3.176c-0.135,0.548-0.232,1.104-0.306,1.664l-0.075,0.774l-0.032,0.987L5.125,21.172z"/>
		</g>
		<g>
			<path style="fill:#FFFFFF;" d="M19.829,26.837c11.95-2.664,26.749-4.24,42.773-4.24c16.053,0,30.877,1.567,42.839,4.24"/>
			<path d="M19.515,25.37c0,0,0.326-0.084,0.938-0.242c0.61-0.156,1.504-0.4,2.68-0.658c1.172-0.273,2.58-0.572,4.21-0.899
				c1.627-0.327,3.468-0.675,5.487-0.974c4.035-0.618,8.76-1.245,13.846-1.628c2.542-0.195,5.172-0.368,7.847-0.458
				c2.681-0.107,5.38-0.143,8.125-0.163c2.674,0.021,5.43,0.058,8.098,0.164c2.675,0.092,5.304,0.263,7.847,0.458
				c5.086,0.383,9.811,1.009,13.846,1.626c2.019,0.298,3.86,0.647,5.488,0.974c1.627,0.327,3.043,0.627,4.204,0.899
				c1.164,0.256,2.069,0.502,2.688,0.66c0.618,0.16,0.948,0.245,0.948,0.245c0.802,0.207,1.285,1.026,1.078,1.828
				c-0.196,0.758-0.936,1.23-1.694,1.106l-0.038-0.007c0,0-1.315-0.219-3.615-0.604c-2.299-0.39-5.604-0.827-9.575-1.295
				c-3.971-0.475-8.627-0.841-13.62-1.124c-2.496-0.153-5.08-0.236-7.705-0.322c-2.632-0.087-5.264-0.106-7.977-0.11
				c-2.642,0.004-5.33,0.021-7.949,0.109c-2.625,0.086-5.209,0.169-7.705,0.323c-4.993,0.285-9.649,0.651-13.62,1.127
				c-3.969,0.468-7.282,0.906-9.57,1.293c-2.312,0.385-3.634,0.606-3.634,0.606l-0.006,0.001c-0.818,0.136-1.591-0.416-1.728-1.234
				C18.281,26.299,18.772,25.565,19.515,25.37z"/>
		</g>
		<g>
			<g>
				<path d="M60.15,97.704l-0.275-53.95c-0.008-1.519,1.217-2.756,2.736-2.764c1.519-0.008,2.756,1.217,2.764,2.736v0.028
					L65.1,97.704c-0.007,1.367-1.121,2.469-2.488,2.462C61.255,100.159,60.158,99.059,60.15,97.704z"/>
			</g>
			<g>
				<circle cx="85.316" cy="62.007" r="6.808"/>
				<circle cx="39.934" cy="62.007" r="6.808"/>
			</g>
		</g>
	</g>
</g>
<g id="Layer_1">
</g>
</svg>
