<?xml version="1.0" encoding="iso-8859-1"?>
<!-- Generator: Adobe Illustrator 19.2.0, SVG Export Plug-In . SVG Version: 6.00 Build 0)  -->
<!DOCTYPE svg PUBLIC "-//W3C//DTD SVG 1.1//EN" "http://www.w3.org/Graphics/SVG/1.1/DTD/svg11.dtd">
<svg version="1.1" xmlns="http://www.w3.org/2000/svg" xmlns:xlink="http://www.w3.org/1999/xlink" x="0px" y="0px"
	 viewBox="0 0 124.982 125.018" style="enable-background:new 0 0 124.982 125.018;" xml:space="preserve">
<g id="pa">
	<g id="pa_1_">
		<g>
			<path style="fill:#FFFFFF;" d="M47.127,36.109c7.991-5.35,18.432-8.589,29.858-8.589c25.129,0,45.5,15.67,45.5,35
				c0,33.137-26.863,60-60,60s-60-26.863-60-60s26.863-60,60-60h0.125c27.407,0,50.375,16.25,49.125,37"/>
			<path d="M46.318,34.846c0,0,0.362-0.243,1.064-0.713c0.688-0.458,1.854-1.194,3.315-1.995c2.947-1.636,7.511-3.701,13.66-5.119
				c3.072-0.697,6.534-1.217,10.329-1.423c0.957-0.026,1.899-0.087,2.926-0.07c0.954,0.007,1.92,0.009,2.983,0.075
				c2.091,0.086,4.184,0.315,6.37,0.644c4.349,0.686,8.933,1.879,13.509,3.853c4.569,1.959,9.166,4.676,13.244,8.45
				c4.064,3.75,7.63,8.6,9.643,14.406c0.983,2.9,1.547,6.016,1.612,9.192l0.011,0.298c0.003-0.006,0.002,0.176,0,0.206l-0.003,0.136
				l-0.013,0.547l-0.027,1.098c-0.012,0.726-0.033,1.466-0.105,2.265c-0.061,0.781-0.122,1.566-0.184,2.353
				c-0.097,0.769-0.194,1.541-0.292,2.315c-0.46,3.086-1.087,6.199-2.031,9.264c-0.938,3.065-2.106,6.099-3.516,9.062
				c-2.886,5.884-6.682,11.509-11.457,16.379c-9.45,9.798-22.643,16.701-36.876,18.431c-1.771,0.252-3.561,0.361-5.351,0.455
				l-2.753,0.062l-2.59-0.065c-3.643-0.166-7.238-0.634-10.769-1.404c-7.081-1.52-13.887-4.378-20.018-8.268
				C16.682,107.534,7.341,95.307,2.987,81.673C-1.404,68.038-0.854,53.21,3.981,40.46C8.786,27.673,17.66,17.091,28.113,10.262
				c10.445-6.91,22.326-10.133,33.202-10.25c10.854-0.197,20.793,2.091,28.86,5.806c4.042,1.852,7.613,4.083,10.652,6.515
				c3.026,2.45,5.479,5.133,7.39,7.788c1.927,2.653,3.184,5.358,4.045,7.769c0.871,2.418,1.251,4.594,1.427,6.351
				c0.041,0.44,0.08,0.854,0.116,1.243c0.01,0.389,0.019,0.753,0.027,1.09c0.025,0.673,0.022,1.238-0.019,1.692
				c-0.054,0.907-0.081,1.375-0.081,1.375c-0.065,1.101-1.011,1.941-2.112,1.875c-1.048-0.062-1.859-0.921-1.879-1.953l-0.003-0.163
				c0,0-0.007-0.404-0.019-1.185c0.006-0.39-0.022-0.874-0.076-1.445c-0.023-0.286-0.047-0.594-0.073-0.925
				c-0.05-0.327-0.104-0.677-0.161-1.049c-0.449-2.946-1.717-7.282-5.109-11.841c-3.357-4.537-8.83-9.203-16.224-12.574
				c-7.363-3.377-16.583-5.5-26.669-5.295C51.395,5.2,40.534,8.213,30.925,14.528C21.31,20.78,13.132,30.5,8.697,42.239
				c-2.204,5.855-3.509,12.186-3.667,18.625c-0.224,6.468,0.728,13.009,2.718,19.278c4.001,12.53,12.6,23.794,23.934,30.92
				c5.641,3.578,11.897,6.208,18.408,7.604c3.257,0.711,6.56,1.134,9.822,1.289l2.59,0.065l2.418-0.064
				c1.648-0.091,3.296-0.192,4.924-0.428c13.084-1.614,25.185-7.983,33.861-17.001c4.4-4.466,7.894-9.634,10.56-15.033
				c2.606-5.437,4.327-11.144,5.128-16.832c0.091-0.712,0.182-1.422,0.273-2.129c0.056-0.697,0.112-1.39,0.167-2.082
				c0.068-0.673,0.092-1.404,0.105-2.145l0.029-1.098l0.014-0.547l0.004-0.137c0.002-0.061,0,0.03-0.001-0.067l-0.007-0.248
				c-0.027-2.646-0.462-5.243-1.259-7.694c-1.637-4.901-4.646-9.153-8.215-12.52c-3.584-3.374-7.688-5.928-11.831-7.808
				c-4.149-1.892-8.365-3.084-12.392-3.803c-2.009-0.344-4.008-0.603-5.883-0.716c-0.919-0.081-1.902-0.104-2.861-0.13
				c-0.885-0.033-1.821-0.007-2.702-0.007c-3.556,0.093-6.813,0.488-9.709,1.059c-5.803,1.155-10.11,3.005-12.938,4.393
				c-1.435,0.714-2.418,1.276-3.156,1.722c-0.721,0.441-1.093,0.668-1.093,0.668c-0.707,0.432-1.63,0.21-2.063-0.497
				C45.453,36.187,45.655,35.292,46.318,34.846z"/>
		</g>
		<circle cx="70.36" cy="16.645" r="4.125"/>
		<circle cx="84.235" cy="17.769" r="4"/>
		<ellipse transform="matrix(0.0684 -0.9977 0.9977 0.0684 -32.11 138.5879)" cx="58.156" cy="86.488" rx="6.594" ry="6.301"/>
		<g>
			<path d="M85.079,88.74c-0.813,0.958-1.622,1.803-2.476,2.644c-0.846,0.839-1.721,1.645-2.631,2.415
				c-0.447,0.393-0.907,0.773-1.382,1.137c-0.47,0.368-0.931,0.747-1.427,1.087c-0.96,0.716-1.976,1.367-3.001,2.005
				c-1.058,0.593-2.098,1.217-3.233,1.698c-1.094,0.547-2.283,0.928-3.449,1.344c-1.219,0.297-2.417,0.662-3.694,0.768
				c-1.249,0.226-2.546,0.142-3.824,0.145l-1.834-0.258c-0.526-0.043-1.217-0.254-1.856-0.424c-1.347-0.313-2.436-0.842-3.604-1.313
				c-1.09-0.581-2.206-1.129-3.206-1.827c-1.048-0.639-1.983-1.406-2.939-2.145c-0.918-0.778-1.823-1.567-2.665-2.413
				c-0.439-0.407-0.838-0.848-1.248-1.28c-0.414-0.428-0.812-0.869-1.195-1.321c-0.784-0.891-1.529-1.812-2.239-2.762
				c-0.723-0.958-1.382-1.887-2.059-2.973c-0.454-0.728-0.364-1.642,0.156-2.268c0.819-0.983,1.599-1.813,2.446-2.664
				c0.833-0.844,1.697-1.655,2.595-2.43c0.441-0.396,0.896-0.779,1.365-1.146c0.465-0.372,0.92-0.753,1.411-1.097
				c0.949-0.723,1.954-1.381,2.97-2.026c1.048-0.601,2.079-1.233,3.204-1.723c1.085-0.555,2.266-0.946,3.425-1.373
				c1.212-0.307,2.405-0.683,3.678-0.8c0.629-0.079,1.252-0.199,1.897-0.173l0.961-0.006l0.481-0.001h0.24h0.12l0.06,0h0.03h0.015
				c0.069,0.007-0.134-0.015,0.159,0.015c1.149,0.175,2.178,0.214,3.554,0.633c1.354,0.303,2.45,0.822,3.625,1.283
				c1.098,0.572,2.224,1.112,3.233,1.802c1.058,0.632,2.003,1.392,2.97,2.124c0.928,0.772,1.846,1.556,2.699,2.396
				c0.445,0.405,0.85,0.843,1.265,1.272c0.42,0.426,0.824,0.865,1.213,1.315c0.797,0.887,1.553,1.805,2.277,2.752
				c0.737,0.957,1.406,1.879,2.103,2.975c0.527,0.829,0.427,1.879-0.176,2.591L85.079,88.74z M80.478,87.104
				c-0.29-0.414-0.564-0.85-0.865-1.247c-0.649-0.868-1.333-1.716-2.049-2.529c-0.35-0.415-0.713-0.817-1.089-1.205
				c-0.372-0.392-0.735-0.795-1.13-1.16c-0.761-0.766-1.569-1.468-2.383-2.161c-0.841-0.645-1.665-1.33-2.561-1.871
				c-0.865-0.611-1.797-1.055-2.708-1.552c-0.94-0.372-1.912-0.837-2.789-1.029c-0.792-0.314-2.052-0.42-3.151-0.593
				c0.284,0.03,0.072,0.008,0.132,0.015h-0.012l-0.023,0h-0.047l-0.093,0l-0.186,0l-0.373,0l-0.746-0.004
				c-0.497-0.038-0.998,0.066-1.498,0.123c-1.005,0.069-1.994,0.385-2.992,0.615c-0.977,0.358-1.97,0.661-2.918,1.14
				c-0.97,0.405-1.89,0.962-2.821,1.479c-0.911,0.568-1.817,1.146-2.687,1.794c-0.447,0.304-0.866,0.651-1.294,0.985
				c-0.431,0.33-0.851,0.676-1.26,1.036c-0.832,0.702-1.637,1.443-2.411,2.211c-0.769,0.752-1.553,1.579-2.199,2.339l0.156-2.268
				c0.536,0.841,1.199,1.767,1.859,2.617c0.662,0.866,1.358,1.71,2.086,2.519c0.356,0.413,0.725,0.813,1.107,1.198
				c0.378,0.39,0.747,0.791,1.147,1.153c0.773,0.761,1.592,1.457,2.417,2.145c0.852,0.639,1.687,1.317,2.593,1.85
				c0.874,0.603,1.816,1.039,2.735,1.527c0.948,0.363,1.926,0.818,2.81,1c0.461,0.118,0.852,0.283,1.467,0.333l1.548,0.211
				c0.995-0.035,1.986,0.05,2.985-0.154c1.001-0.08,1.985-0.407,2.976-0.647c0.97-0.369,1.955-0.681,2.894-1.168
				c0.961-0.413,1.871-0.979,2.793-1.503c0.901-0.576,1.797-1.16,2.655-1.816c0.441-0.307,0.855-0.657,1.278-0.995
				c0.426-0.333,0.84-0.682,1.243-1.045c0.82-0.708,1.614-1.454,2.375-2.225C79.806,87.866,80.135,87.475,80.478,87.104z"/>
		</g>
		<g>
			<path d="M1.328,62.023c0,0,0.267-0.332,0.767-0.956c0.258-0.312,0.54-0.694,0.94-1.149c0.414-0.456,0.889-0.98,1.422-1.567
				c0.539-0.575,1.166-1.152,1.833-1.812c0.682-0.64,1.461-1.286,2.278-1.993c1.704-1.323,3.655-2.799,5.973-4.102
				c2.305-1.315,4.893-2.598,7.758-3.623c2.863-1.025,5.974-1.85,9.248-2.377c3.258-0.54,6.743-0.747,10.154-0.617
				c3.577,0.144,7.049,0.695,10.5,1.624c3.432,0.93,6.768,2.235,9.854,3.899c3.092,1.652,5.953,3.617,8.499,5.784
				c5.086,4.358,8.836,9.527,11.182,14.37c1.183,2.421,2.031,4.754,2.644,6.864c0.574,2.121,0.954,4.005,1.149,5.575
				c0.202,1.567,0.298,2.81,0.313,3.658c0.027,0.848,0.042,1.3,0.042,1.3c0.04,1.242-0.934,2.281-2.176,2.321
				c-1.242,0.04-2.281-0.934-2.321-2.176l-0.001-0.021l-0.003-0.125c0,0-0.009-0.4-0.027-1.149c-0.004-0.75-0.079-1.849-0.243-3.24
				c-0.156-1.393-0.479-3.069-0.968-4.965c-0.528-1.885-1.263-3.979-2.303-6.165c-2.06-4.371-5.402-9.094-9.996-13.117
				c-2.3-2-4.895-3.822-7.706-5.363c-2.806-1.553-5.849-2.779-8.986-3.665c-3.119-0.884-6.419-1.429-9.547-1.59
				c-3.294-0.159-6.438,0.005-9.492,0.475c-3.041,0.458-5.932,1.194-8.594,2.117c-2.665,0.923-5.07,2.089-7.215,3.282
				c-2.159,1.182-3.97,2.53-5.558,3.733c-0.758,0.646-1.485,1.233-2.119,1.817c-0.615,0.599-1.212,1.135-1.697,1.644
				c-0.476,0.512-0.901,0.969-1.271,1.366c-0.37,0.41-0.68,0.819-0.934,1.119C4.22,63.819,3.95,64.148,3.95,64.148
				c-0.59,0.721-1.654,0.827-2.375,0.236C0.859,63.798,0.751,62.744,1.328,62.023z"/>
		</g>
	</g>
</g>
<g id="Layer_1">
</g>
</svg>
