<?xml version="1.0" encoding="iso-8859-1"?>
<!-- Generator: Adobe Illustrator 19.2.0, SVG Export Plug-In . SVG Version: 6.00 Build 0)  -->
<!DOCTYPE svg PUBLIC "-//W3C//DTD SVG 1.1//EN" "http://www.w3.org/Graphics/SVG/1.1/DTD/svg11.dtd">
<svg version="1.1" xmlns="http://www.w3.org/2000/svg" xmlns:xlink="http://www.w3.org/1999/xlink" x="0px" y="0px"
	 viewBox="0 0 74.061 125.028" style="enable-background:new 0 0 74.061 125.028;" xml:space="preserve">
<g id="nun">
	<g id="nun_1_">
		<g>
			<path style="fill:#FFFFFF;" d="M71.554,111.428c0,6.129-5.144,11.098-11.49,11.098s-11.49-4.969-11.49-11.098
				c0,6.129-5.144,10.304-11.49,10.304s-11.49-4.174-11.49-10.304c0,6.129-5.144,11.098-11.49,11.098s-11.49-4.969-11.49-11.098
				l0.43-5.926c0-16.86,15.234-22.416,34.114-22.416s34.262,7.54,34.262,22.805L71.554,111.428z"/>
			<path d="M73.976,105.788l0.077,5.706l0.008,0.555l-0.033,0.743c-0.04,0.462-0.102,0.911-0.185,1.363
				c-0.171,0.901-0.435,1.785-0.788,2.633c-0.727,1.688-1.807,3.208-3.124,4.463c-1.311,1.266-2.895,2.224-4.58,2.873
				c-1.692,0.64-3.502,0.934-5.284,0.903l-0.615-0.033l-0.711-0.066c-0.457-0.057-0.887-0.128-1.326-0.223
				c-0.871-0.19-1.725-0.456-2.54-0.811c-1.625-0.714-3.122-1.72-4.329-3.001c-1.213-1.271-2.172-2.773-2.783-4.399
				c-0.582-1.635-0.844-3.376-0.688-5.059l-0.001-0.005h3.001c0.167,1.633-0.071,3.358-0.701,4.962
				c-0.639,1.599-1.673,3.053-2.961,4.197c-1.276,1.164-2.805,2-4.393,2.57c-1.598,0.555-3.274,0.808-4.932,0.825l-0.585-0.016
				l-0.652-0.041c-0.431-0.037-0.834-0.084-1.251-0.153c-0.825-0.137-1.647-0.33-2.444-0.613c-1.588-0.569-3.117-1.404-4.394-2.567
				c-1.288-1.143-2.323-2.596-2.964-4.195c-0.631-1.603-0.87-3.329-0.703-4.961l-0.001-0.008h3.001
				c0.174,1.684-0.086,3.43-0.66,5.072c-0.599,1.635-1.553,3.154-2.781,4.418c-1.217,1.278-2.717,2.284-4.348,2.996
				c-1.637,0.7-3.419,1.068-5.202,1.112l-0.616-0.006l-0.716-0.04c-0.46-0.039-0.895-0.093-1.341-0.17
				c-0.885-0.155-1.757-0.394-2.601-0.714c-1.684-0.643-3.264-1.598-4.587-2.85c-1.323-1.249-2.407-2.765-3.147-4.45
				c-0.749-1.681-1.116-3.536-1.099-5.368l0-0.048c0-0.046,0.003-0.096,0.006-0.142l0.486-5.922l-0.007,0.185
				c0.019-2.219,0.281-4.482,0.905-6.692c0.629-2.204,1.633-4.336,2.967-6.229c1.342-1.888,3.01-3.514,4.842-4.823
				c1.832-1.318,3.818-2.322,5.839-3.121c4.053-1.595,8.248-2.384,12.408-2.824c4.17-0.445,8.309-0.547,12.468-0.437
				c4.196,0.132,8.36,0.657,12.493,1.635c4.11,1.012,8.197,2.549,11.868,5.042c1.826,1.248,3.544,2.735,4.983,4.51
				c1.442,1.767,2.627,3.788,3.435,5.957c0.792,2.175,1.181,4.474,1.262,6.739L73.976,105.788z M68.949,112.369l-0.012-0.878
				l-0.087-6.099c-0.02-1.801-0.309-3.56-0.841-5.236c-0.543-1.672-1.372-3.246-2.439-4.681c-1.063-1.44-2.401-2.703-3.869-3.836
				c-2.955-2.262-6.53-3.861-10.272-4.93c-3.74-1.107-7.702-1.603-11.632-1.798c-3.973-0.18-7.994,0.003-11.904,0.534
				c-1.957,0.268-3.887,0.664-5.768,1.162c-1.879,0.504-3.71,1.127-5.433,1.92c-3.454,1.564-6.442,3.847-8.384,6.77
				c-1.917,2.943-2.751,6.505-2.703,10.205l-0.003,0.126L5.6,105.687l-0.374,5.93l0.007-0.189c0.033,2.242,0.964,4.438,2.629,6.01
				c0.822,0.784,1.785,1.44,2.852,1.88c0.532,0.221,1.087,0.393,1.655,0.511c0.281,0.059,0.579,0.104,0.854,0.137l0.39,0.038
				l0.493,0.021c2.345,0.079,4.709-0.725,6.555-2.261c0.918-0.769,1.711-1.709,2.294-2.786c0.613-1.067,0.967-2.278,1.14-3.551
				l0.046-0.337c0.11-0.814,0.86-1.385,1.674-1.274c0.792,0.107,1.353,0.823,1.281,1.612l-0.001,0.006
				c0.167,1.238,0.515,2.39,1.093,3.396c0.563,1.011,1.343,1.872,2.255,2.571c0.923,0.685,1.969,1.233,3.104,1.566
				c0.565,0.169,1.145,0.31,1.738,0.394c0.292,0.044,0.604,0.074,0.888,0.094l0.423,0.021l0.491,0.006
				c2.421,0.014,4.807-0.694,6.643-2.085c0.911-0.7,1.691-1.56,2.253-2.572c0.577-1.006,0.924-2.159,1.091-3.396l0.045-0.334
				c0.11-0.814,0.859-1.385,1.673-1.276c0.792,0.107,1.353,0.822,1.283,1.61l0,0.004c0.155,1.274,0.509,2.488,1.114,3.562
				c0.574,1.084,1.362,2.04,2.295,2.802c0.938,0.755,1.984,1.36,3.111,1.727c0.561,0.186,1.133,0.33,1.715,0.413
				c0.288,0.042,0.591,0.069,0.869,0.085l0.395,0.011l0.493-0.006c2.349-0.068,4.587-1.031,6.238-2.595
				c0.828-0.778,1.495-1.717,1.95-2.74c0.239-0.507,0.426-1.038,0.557-1.585C68.868,112.863,68.911,112.614,68.949,112.369z"/>
		</g>
		<g>
			<path style="fill:#FFFFFF;" d="M35.335,2.526c10.902,0,19.985,6.462,19.985,14.434c0,4.783-3.195,9.01-8.096,11.637
				c9.154,0.518,16.366,6.101,16.366,12.928c0,5.225-4.232,9.717-10.318,11.774c9.959,3.93,16.818,12.17,16.818,21.702
				c0,13.342-12.247,24.157-28.815,24.157c-25.038,0-36.185-21.53-36.185-48.213V26.683C5.09,13.341,18.766,2.526,35.335,2.526z"/>
			<path d="M35.382,0c0.457,0.012,0.835,0,1.356,0.031c0.504,0.021,0.997,0.052,1.467,0.1c0.955,0.084,1.907,0.223,2.852,0.407
				c1.891,0.364,3.751,0.927,5.545,1.696c1.786,0.784,3.51,1.77,5.077,3.021c1.547,1.271,2.975,2.77,4.046,4.578
				c1.059,1.8,1.784,3.887,1.909,6.042c0.027,0.268,0.017,0.537,0.025,0.805l0.002,0.201l-0.002,0.194l-0.005,0.082l-0.022,0.328
				c-0.01,0.377-0.099,1.017-0.186,1.582c-0.203,1.052-0.532,2.059-0.964,3.012c-0.885,1.894-2.145,3.53-3.602,4.864
				c-1.465,1.331-3.108,2.381-4.828,3.195l-0.001,0.001l-0.728-3.29c3.541,0.001,7.142,0.809,10.394,2.548
				c1.634,0.85,3.151,1.99,4.475,3.376c1.314,1.392,2.404,3.09,3.044,5.008c0.315,0.958,0.507,1.967,0.569,2.981l0.012,0.381
				l0.005,0.19l0.002,0.303l-0.034,0.618l-0.017,0.309c-0.008,0.108-0.033,0.267-0.05,0.398l-0.129,0.824
				c-0.228,1.003-0.53,1.961-0.979,2.851c-0.413,0.908-0.974,1.716-1.563,2.483c-0.619,0.738-1.271,1.439-1.99,2.043
				c-0.704,0.626-1.466,1.16-2.246,1.649c-0.787,0.479-1.606,0.883-2.435,1.249c-0.416,0.177-0.84,0.332-1.259,0.496l-1.285,0.398
				l-0.003,0.001l0.082-3.286c4.266,1.48,8.319,3.849,11.606,7.163c3.319,3.261,5.773,7.595,6.678,12.347
				c0.228,1.184,0.354,2.391,0.381,3.599l0.007,0.298l-0.003,0.201l-0.009,0.402c-0.011,0.281-0.001,0.508-0.028,0.834
				c-0.049,0.626-0.088,1.272-0.182,1.852c-0.311,2.381-1.011,4.709-2.017,6.884c-2.029,4.358-5.344,7.989-9.212,10.627
				c-3.881,2.647-8.31,4.344-12.841,5.159c-2.267,0.414-4.562,0.609-6.85,0.619c-1.262-0.036-2.121-0.009-3.367-0.125
				c-0.584-0.051-1.175-0.089-1.752-0.154l-1.703-0.242c-2.264-0.382-4.516-0.929-6.693-1.737c-2.171-0.817-4.268-1.853-6.233-3.1
				c-3.94-2.496-7.246-5.884-9.846-9.649c-2.59-3.786-4.497-7.942-5.886-12.208c-1.384-4.272-2.267-8.656-2.788-13.055
				c-0.25-2.2-0.438-4.406-0.515-6.611c-0.102-2.212-0.081-4.415-0.086-6.539L2.574,35.357l-0.001-6.439l0-1.61l0-0.402l0.007-0.483
				l0.026-0.804c0.02-0.536,0.095-1.259,0.166-1.857c0.1-0.598,0.174-1.201,0.322-1.788c1.02-4.761,3.662-8.994,7.003-12.275
				C13.46,6.41,17.522,3.97,21.844,2.383C26.168,0.788,30.758,0.003,35.335,0L35.382,0z M35.335,5.052
				c-4.007,0.001-8.009,0.689-11.741,2.065c-3.731,1.365-7.184,3.462-9.964,6.178c-2.764,2.716-4.835,6.094-5.617,9.759
				c-0.119,0.454-0.169,0.919-0.25,1.379c-0.047,0.467-0.101,0.812-0.124,1.347l-0.026,0.804l-0.003,0.101l-0.002,0.05
				c-0.002,0.089,0-0.065,0-0.03l0,0.201l0,0.402l0,1.61l-0.001,6.439L7.604,48.235c0.004,2.167-0.016,4.26,0.079,6.336
				c0.071,2.086,0.249,4.161,0.482,6.225c0.487,4.125,1.31,8.194,2.572,12.094c1.266,3.894,2.984,7.612,5.245,10.92
				c2.274,3.288,5.089,6.161,8.412,8.268c1.66,1.052,3.428,1.927,5.273,2.625c1.85,0.688,3.786,1.157,5.752,1.492l1.484,0.212
				l1.454,0.129c0.89,0.104,2.184,0.089,3.065,0.119c2.005-0.01,4.001-0.202,5.955-0.57c3.908-0.728,7.654-2.208,10.86-4.426
				c3.208-2.205,5.842-5.167,7.474-8.595c1.659-3.396,2.224-7.341,1.675-11.041c-0.572-3.729-2.433-7.243-5.046-10.167
				c-2.625-2.93-6.011-5.244-9.711-6.928l-0.114-0.052c-0.872-0.397-1.257-1.426-0.86-2.299c0.211-0.463,0.607-0.791,1.056-0.935
				l0.002-0.001c0.696-0.303,1.377-0.623,2.036-0.973c0.651-0.364,1.283-0.751,1.868-1.187c0.59-0.426,1.165-0.871,1.663-1.375
				c0.521-0.486,0.96-1.03,1.375-1.576c0.372-0.57,0.738-1.139,0.991-1.744c0.284-0.591,0.448-1.228,0.575-1.833
				c0.014-0.134,0.033-0.267,0.057-0.399c0.01-0.073,0.028-0.117,0.034-0.214l0.014-0.309l0.028-0.618
				c-0.006,0.223-0.002,0.057-0.003,0.105l0-0.007l-0.001-0.015l-0.001-0.03l-0.003-0.059l-0.005-0.119l-0.008-0.237
				c-0.044-0.632-0.173-1.255-0.374-1.864c-0.39-1.222-1.108-2.375-2.033-3.399c-0.92-1.033-2.06-1.919-3.304-2.677
				c-2.507-1.506-5.462-2.388-8.499-2.767l-0.185-0.023c-0.947-0.118-1.618-0.981-1.5-1.928c0.075-0.597,0.456-1.09,0.957-1.339
				l0.001,0c2.713-1.698,5.007-4.02,6.004-6.702c0.241-0.667,0.398-1.352,0.505-2.026c0.017-0.306,0.07-0.533,0.065-1.034
				l0.006-0.329l0.001-0.082l0-0.01c0.002-0.09-0.002,0.112-0.002,0.088l-0.001-0.016l-0.002-0.032l-0.009-0.127
				c-0.017-0.169-0.012-0.34-0.042-0.508c-0.146-1.349-0.668-2.645-1.441-3.825c-1.539-2.384-4.095-4.26-6.931-5.503
				c-1.426-0.623-2.934-1.098-4.485-1.41c-0.775-0.157-1.559-0.279-2.35-0.355c-0.402-0.045-0.783-0.071-1.155-0.091
				c-0.354-0.03-0.853-0.025-1.273-0.04L35.335,5.052z"/>
		</g>
		<g>
			<g>
				<path d="M5.805,60.205l27.17-3.986c1.23-0.18,2.373,0.67,2.553,1.9c0.18,1.229-0.67,2.373-1.9,2.553
					c-0.019,0.003-0.048,0.006-0.066,0.009L6.286,63.855c-1.01,0.118-1.924-0.606-2.042-1.616
					C4.129,61.248,4.826,60.349,5.805,60.205z"/>
			</g>
			<g>
				<path d="M5.046,49.741c0,0,1.409-0.266,3.874-0.732c2.467-0.456,5.983-1.154,10.217-1.907c2.116-0.381,4.409-0.794,6.833-1.231
					c1.212-0.218,2.458-0.443,3.731-0.672c0.677-0.117,1.36-0.235,2.051-0.354c0.324-0.038,0.638-0.079,1.087-0.105
					c0.425-0.031,0.789-0.032,1.189-0.03c3.135,0.037,6.403,1.097,9.017,3.208c2.628,2.081,4.515,5.256,4.921,8.757
					c0.433,3.398-0.653,6.993-2.693,9.623c-2.027,2.673-4.938,4.498-7.968,5.291c-0.743,0.207-1.554,0.342-2.254,0.427
					c-0.655,0.079-1.304,0.157-1.946,0.234c-1.285,0.15-2.542,0.297-3.765,0.44c-2.447,0.286-4.761,0.557-6.896,0.806
					c-4.27,0.506-7.838,0.862-10.331,1.142c-2.494,0.271-3.92,0.425-3.92,0.425c-0.989,0.107-1.877-0.607-1.984-1.596
					c-0.105-0.964,0.577-1.834,1.527-1.975c0,0,1.418-0.209,3.9-0.575c2.483-0.356,6.025-0.909,10.286-1.493
					c2.13-0.296,4.437-0.616,6.877-0.954c1.22-0.169,2.474-0.343,3.755-0.521c0.641-0.087,1.289-0.175,1.943-0.263
					c0.609-0.081,1.115-0.17,1.667-0.326c2.157-0.579,4.192-1.893,5.569-3.74c1.382-1.847,2.07-4.146,1.76-6.458
					c-0.249-2.214-1.45-4.363-3.242-5.793c-1.778-1.461-4.069-2.238-6.301-2.278c-0.271-0.004-0.578-0.005-0.817,0.013
					c-0.217,0.005-0.561,0.043-0.893,0.081c-0.611,0.1-1.217,0.198-1.816,0.296c-1.278,0.202-2.528,0.399-3.744,0.591
					c-2.434,0.384-4.735,0.747-6.858,1.082c-4.246,0.68-7.797,1.176-10.276,1.556c-2.481,0.37-3.899,0.582-3.899,0.582
					c-0.983,0.146-1.9-0.532-2.046-1.515C3.457,50.817,4.102,49.921,5.046,49.741z"/>
			</g>
		</g>
	</g>
</g>
<g id="Layer_1">
</g>
</svg>
