<?xml version="1.0" encoding="iso-8859-1"?>
<!-- Generator: Adobe Illustrator 19.2.0, SVG Export Plug-In . SVG Version: 6.00 Build 0)  -->
<!DOCTYPE svg PUBLIC "-//W3C//DTD SVG 1.1//EN" "http://www.w3.org/Graphics/SVG/1.1/DTD/svg11.dtd">
<svg version="1.1" xmlns="http://www.w3.org/2000/svg" xmlns:xlink="http://www.w3.org/1999/xlink" x="0px" y="0px"
	 viewBox="0 0 124.982 125.018" style="enable-background:new 0 0 124.982 125.018;" xml:space="preserve">
<g id="pi">
	<g id="pi_1_">
		<g>
			<path style="fill:#FFFFFF;" d="M47.127,36.109c7.991-5.35,18.432-8.589,29.858-8.589c25.129,0,45.5,15.67,45.5,35
				c0,33.137-26.863,60-60,60s-60-26.863-60-60s26.863-60,60-60h0.125c27.407,0,50.375,16.25,49.125,37"/>
			<path d="M46.318,34.846c0,0,0.362-0.243,1.064-0.713c0.688-0.458,1.854-1.194,3.315-1.995c2.947-1.636,7.511-3.701,13.66-5.119
				c3.072-0.697,6.534-1.217,10.329-1.423c0.957-0.026,1.899-0.087,2.926-0.07c0.954,0.007,1.92,0.009,2.983,0.075
				c2.091,0.086,4.184,0.315,6.37,0.644c4.349,0.686,8.933,1.879,13.509,3.853c4.569,1.959,9.166,4.676,13.244,8.45
				c4.064,3.75,7.63,8.6,9.643,14.406c0.983,2.9,1.547,6.016,1.612,9.192l0.011,0.298c0.003-0.006,0.002,0.176,0,0.206l-0.003,0.136
				l-0.013,0.547l-0.027,1.098c-0.012,0.726-0.033,1.466-0.105,2.265c-0.061,0.781-0.122,1.566-0.184,2.353
				c-0.097,0.769-0.194,1.541-0.292,2.315c-0.46,3.086-1.087,6.199-2.031,9.264c-0.938,3.065-2.106,6.099-3.516,9.062
				c-2.886,5.884-6.682,11.509-11.457,16.379c-9.45,9.798-22.643,16.701-36.876,18.431c-1.771,0.252-3.561,0.361-5.351,0.455
				l-2.753,0.062l-2.59-0.065c-3.643-0.166-7.238-0.634-10.769-1.404c-7.081-1.52-13.887-4.378-20.018-8.268
				C16.682,107.534,7.341,95.307,2.987,81.673C-1.404,68.038-0.854,53.21,3.981,40.46C8.786,27.673,17.66,17.091,28.113,10.262
				c10.445-6.91,22.326-10.133,33.202-10.25c10.854-0.197,20.793,2.091,28.86,5.806c4.042,1.852,7.613,4.083,10.652,6.515
				c3.026,2.45,5.479,5.133,7.39,7.788c1.927,2.653,3.184,5.358,4.045,7.769c0.871,2.418,1.251,4.594,1.427,6.351
				c0.041,0.44,0.08,0.854,0.116,1.243c0.01,0.389,0.019,0.753,0.027,1.09c0.025,0.673,0.022,1.238-0.019,1.692
				c-0.054,0.907-0.081,1.375-0.081,1.375c-0.065,1.101-1.011,1.941-2.112,1.875c-1.048-0.062-1.859-0.921-1.879-1.953l-0.003-0.163
				c0,0-0.007-0.404-0.019-1.185c0.006-0.39-0.022-0.874-0.076-1.445c-0.023-0.286-0.047-0.594-0.073-0.925
				c-0.05-0.328-0.104-0.677-0.16-1.049c-0.449-2.946-1.717-7.282-5.109-11.841c-3.357-4.537-8.83-9.203-16.224-12.574
				c-7.363-3.377-16.583-5.5-26.669-5.295C51.395,5.2,40.534,8.213,30.925,14.528C21.31,20.78,13.132,30.5,8.697,42.239
				c-2.204,5.855-3.509,12.186-3.667,18.625c-0.224,6.468,0.728,13.009,2.718,19.278c4.001,12.53,12.6,23.794,23.934,30.92
				c5.641,3.578,11.897,6.208,18.408,7.604c3.257,0.711,6.56,1.134,9.822,1.289l2.59,0.065l2.418-0.064
				c1.648-0.091,3.296-0.192,4.924-0.428c13.084-1.614,25.185-7.983,33.861-17.001c4.4-4.466,7.894-9.634,10.56-15.033
				c2.606-5.437,4.327-11.144,5.128-16.832c0.091-0.712,0.182-1.422,0.273-2.129c0.056-0.697,0.112-1.39,0.167-2.082
				c0.068-0.673,0.092-1.404,0.105-2.145l0.029-1.098l0.014-0.547l0.004-0.137c0.002-0.061,0,0.03-0.001-0.067l-0.007-0.248
				c-0.027-2.646-0.462-5.243-1.259-7.694c-1.637-4.901-4.646-9.153-8.215-12.52c-3.584-3.374-7.688-5.928-11.831-7.808
				c-4.149-1.892-8.365-3.084-12.392-3.803c-2.009-0.344-4.008-0.603-5.883-0.716c-0.919-0.081-1.902-0.104-2.861-0.13
				c-0.885-0.033-1.821-0.007-2.702-0.007c-3.556,0.093-6.813,0.488-9.709,1.059c-5.803,1.155-10.11,3.005-12.938,4.393
				c-1.435,0.714-2.418,1.276-3.156,1.722c-0.721,0.441-1.093,0.668-1.093,0.668c-0.707,0.432-1.63,0.21-2.063-0.497
				C45.453,36.187,45.655,35.292,46.318,34.846z"/>
		</g>
		<circle cx="70.36" cy="16.645" r="4.125"/>
		<circle cx="84.235" cy="17.769" r="4"/>
		<g>
			<g>
				<path d="M60.01,122.52l-0.275-68c-0.006-1.519,1.22-2.755,2.739-2.761s2.755,1.22,2.761,2.739v0.022l-0.275,68
					c-0.006,1.367-1.118,2.471-2.485,2.465C61.115,124.979,60.016,123.877,60.01,122.52z"/>
			</g>
			<g>
				<circle cx="85.176" cy="79.3" r="6.808"/>
				<circle cx="39.794" cy="79.3" r="6.808"/>
			</g>
		</g>
	</g>
</g>
<g id="Layer_1">
</g>
</svg>
