<?xml version="1.0" encoding="iso-8859-1"?>
<!-- Generator: Adobe Illustrator 19.2.0, SVG Export Plug-In . SVG Version: 6.00 Build 0)  -->
<!DOCTYPE svg PUBLIC "-//W3C//DTD SVG 1.1//EN" "http://www.w3.org/Graphics/SVG/1.1/DTD/svg11.dtd">
<svg version="1.1" xmlns="http://www.w3.org/2000/svg" xmlns:xlink="http://www.w3.org/1999/xlink" x="0px" y="0px"
	 viewBox="0 0 125.192 125.119" style="enable-background:new 0 0 125.192 125.119;" xml:space="preserve">
<g id="jo">
	<g id="jo_1_">
		<g>
			<path style="fill:#FFFFFF;" d="M64.457,13.658c6.09-6.847,14.967-11.16,24.852-11.16c18.363,0,33.25,16.75,33.25,38.253v21.747
				c0,33.137-26.863,60-60,60s-60-26.863-60-60v-5.375c0-25.75,20.625-46.625,46.375-46.625s46.625,20.875,46.625,46.625"/>
			<path d="M62.998,12.29c0,0,0.286-0.33,0.839-0.968c0.549-0.631,1.567-1.671,2.837-2.808c1.31-1.145,3.018-2.466,5.206-3.748
				c2.183-1.278,4.843-2.546,8-3.43c3.176-0.85,6.727-1.485,10.781-1.268c0.459,0.025,0.923,0.051,1.391,0.077l0.706,0.039
				C93,0.203,93.28,0.261,93.541,0.299c1.058,0.18,2.161,0.336,3.236,0.571c1.034,0.299,2.086,0.603,3.157,0.912
				c1.037,0.4,2.079,0.845,3.142,1.283c4.165,1.945,8.17,4.89,11.559,8.713c3.399,3.814,6.137,8.521,7.957,13.766
				c0.893,2.628,1.607,5.38,2.008,8.23c0.184,1.427,0.423,2.865,0.438,4.33c0.071,1.468,0.141,2.954,0.119,4.332
				c0.01,5.638,0.02,11.467,0.03,17.459c0.001,0.749,0.003,1.5,0.004,2.255l-0.005,0.633l-0.013,0.567l-0.027,1.136l-0.027,1.14
				l-0.086,1.214c-0.067,0.807-0.103,1.635-0.2,2.433c-0.332,3.194-0.96,6.392-1.796,9.567c-1.709,6.344-4.478,12.554-8.252,18.241
				c-7.511,11.384-19.196,20.594-32.874,24.989c-6.812,2.193-14.087,3.273-21.299,3.008l-1.308-0.039l-1.384-0.104
				c-0.922-0.071-1.854-0.128-2.745-0.261c-1.805-0.198-3.594-0.52-5.38-0.862c-3.561-0.739-7.055-1.809-10.433-3.159
				c-6.751-2.71-13.048-6.573-18.433-11.422c-5.399-4.831-9.938-10.568-13.369-16.854c-3.4-6.302-5.701-13.127-6.794-20.059
				C0.228,68.862,0.007,65.342,0,61.932c0.005-1.703,0.01-3.399,0.015-5.089c0.097-1.655,0.135-3.263,0.28-4.938
				c0.274-1.738,0.47-3.513,0.833-5.198c0.211-0.828,0.421-1.654,0.631-2.478c0.225-0.82,0.38-1.658,0.703-2.444
				c0.289-0.796,0.577-1.59,0.864-2.382c0.283-0.794,0.564-1.586,0.953-2.331c0.361-0.756,0.722-1.511,1.081-2.263l0.542-1.125
				l0.641-1.068c3.3-5.756,7.696-10.693,12.707-14.532c10.017-7.718,22.475-10.886,33.298-9.888c1.265,0.012,2.7,0.3,4.054,0.497
				c0.682,0.108,1.36,0.216,2.035,0.323c0.661,0.135,1.29,0.326,1.931,0.486c0.637,0.167,1.27,0.334,1.899,0.5
				c0.632,0.156,1.255,0.329,1.851,0.574c1.205,0.448,2.395,0.892,3.57,1.329c4.594,2.024,8.629,4.585,12.102,7.385
				c6.815,5.79,11.18,12.457,13.692,18.313c2.51,5.904,3.21,10.933,3.644,14.301c0.12,1.7,0.137,3.009,0.182,3.888
				c0.034,0.879,0.051,1.333,0.051,1.333c0.042,1.102-0.816,2.029-1.918,2.072c-1.084,0.042-2-0.789-2.069-1.865l-0.013-0.206
				c0,0-0.026-0.417-0.078-1.224c-0.061-0.806-0.101-2.007-0.242-3.561c-0.471-3.076-1.211-7.651-3.602-12.97
				c-2.34-5.299-6.38-11.305-12.601-16.485c-3.177-2.496-6.847-4.769-11.006-6.553c-1.063-0.382-2.14-0.769-3.23-1.16
				c-0.538-0.219-1.101-0.366-1.673-0.498c-0.568-0.142-1.14-0.286-1.715-0.43c-0.574-0.137-1.153-0.309-1.732-0.42
				c-0.577-0.084-1.157-0.168-1.74-0.253c-1.18-0.156-2.287-0.414-3.645-0.417c-0.653-0.029-1.309-0.059-1.969-0.089l-0.992-0.045
				l-0.498-0.022c0.21,0.003-0.009,0.004,0.007,0.007l-0.118,0.006l-0.236,0.013c-1.262,0.064-2.536,0.13-3.822,0.196
				c-1.277,0.148-2.556,0.383-3.853,0.568c-0.654,0.071-1.287,0.25-1.926,0.419c-0.64,0.166-1.282,0.332-1.927,0.499
				c-5.12,1.458-10.15,3.924-14.638,7.382c-4.488,3.449-8.426,7.885-11.377,13.049l-0.577,0.956l-0.48,1.011
				c-0.321,0.675-0.644,1.352-0.967,2.03c-0.353,0.666-0.599,1.378-0.85,2.091c-0.257,0.71-0.514,1.422-0.773,2.135
				c-0.294,0.702-0.423,1.458-0.624,2.192C6.488,46.289,6.3,47.03,6.111,47.772c-0.316,1.48-0.464,2.953-0.722,4.437
				c-0.137,1.577-0.177,3.256-0.27,4.889c0,1.605,0,3.216-0.001,4.833c0.015,3.228,0.221,6.395,0.718,9.588
				c1.014,6.36,3.133,12.612,6.259,18.39c3.157,5.76,7.332,11.019,12.291,15.444c4.947,4.443,10.728,7.972,16.914,10.446
				c3.096,1.232,6.296,2.208,9.558,2.88c1.636,0.309,3.274,0.604,4.929,0.781c0.831,0.124,1.636,0.167,2.447,0.23l1.215,0.094
				l1.296,0.037c6.676,0.241,13.292-0.755,19.539-2.762c12.515-4.025,23.223-12.469,30.098-22.899
				c3.454-5.209,5.985-10.893,7.547-16.697c0.765-2.906,1.332-5.833,1.646-8.756c0.092-0.728,0.12-1.433,0.185-2.147l0.085-1.067
				l0.031-1.14c0.017-0.736,0.034-1.47,0.052-2.202c0.001-0.754,0.003-1.506,0.004-2.255c0.01-5.992,0.02-11.821,0.03-17.459
				c0.027-1.442-0.04-2.748-0.097-4.048c-0.002-1.312-0.22-2.588-0.377-3.859c-0.346-2.537-0.974-4.976-1.753-7.3
				c-1.591-4.636-3.98-8.769-6.917-12.083c-2.928-3.325-6.354-5.85-9.881-7.513c-0.9-0.372-1.786-0.738-2.657-1.097
				c-0.903-0.264-1.791-0.524-2.664-0.779c-0.862-0.187-1.694-0.3-2.516-0.464c-0.211-0.034-0.397-0.087-0.626-0.106l-0.706-0.041
				c-0.468-0.027-0.932-0.055-1.39-0.082l-0.685-0.04l-0.34-0.02l-0.169-0.01c0.256,0.006,0.026,0.003,0.063,0.004l-0.078,0.001
				c-0.417,0.008-0.829,0.015-1.238,0.023C87.115,5.057,86.317,5.11,85.542,5.2c-1.553,0.162-3.012,0.475-4.383,0.814
				c-2.728,0.74-5.075,1.722-7.018,2.764c-1.944,1.045-3.481,2.141-4.699,3.064c-1.223,0.977-2.002,1.689-2.614,2.282
				c-0.601,0.594-0.911,0.901-0.911,0.901c-0.786,0.777-2.053,0.77-2.83-0.016C62.348,14.261,62.323,13.073,62.998,12.29z"/>
		</g>
		<path style="fill:none;stroke:#000000;stroke-width:3.5;stroke-linecap:round;stroke-linejoin:round;stroke-miterlimit:10;" d="
			M88.308,31.837c0,0,6.659-3.502,10.921-4.627"/>
		<path style="fill:none;stroke:#000000;stroke-width:3.5;stroke-linecap:round;stroke-linejoin:round;stroke-miterlimit:10;" d="
			M93.24,42.41c0,0,5.276-2.072,10.02-2.789"/>
		<g>
			<circle style="fill:#FFFFFF;stroke:#000000;stroke-width:5;stroke-miterlimit:10;" cx="49.809" cy="64.242" r="19.5"/>
			<circle cx="49.809" cy="63.385" r="7.5"/>
		</g>
	</g>
</g>
<g id="Layer_1">
</g>
</svg>
