<?xml version="1.0" encoding="iso-8859-1"?>
<!-- Generator: Adobe Illustrator 19.2.0, SVG Export Plug-In . SVG Version: 6.00 Build 0)  -->
<!DOCTYPE svg PUBLIC "-//W3C//DTD SVG 1.1//EN" "http://www.w3.org/Graphics/SVG/1.1/DTD/svg11.dtd">
<svg version="1.1" xmlns="http://www.w3.org/2000/svg" xmlns:xlink="http://www.w3.org/1999/xlink" x="0px" y="0px"
	 viewBox="0 0 70.018 125.03" style="enable-background:new 0 0 70.018 125.03;" xml:space="preserve">
<g id="nu">
	<g id="nu_1_">
		<g>
			<path style="fill:#FFFFFF;" d="M32.763,2.526c10.902,0,19.985,8.025,19.985,17.925c0,5.94-3.195,11.19-8.096,14.451
				c9.154,0.643,16.366,7.577,16.366,16.054c0,6.489-4.232,12.067-10.318,14.622c9.959,4.88,16.818,15.113,16.818,26.951
				c0,16.569-12.247,30-28.815,30c-25.038,0-36.185-26.738-36.185-59.875v-30.13C2.518,15.957,16.194,2.526,32.763,2.526z"/>
			<path d="M32.878,0.003c1.006,0.06,1.872,0.027,3.088,0.219c1.172,0.116,2.213,0.389,3.282,0.634
				c1.043,0.332,2.103,0.629,3.099,1.096c1.024,0.4,1.979,0.956,2.941,1.49c0.923,0.605,1.846,1.211,2.683,1.941
				c0.44,0.337,0.844,0.717,1.235,1.113c0.392,0.394,0.809,0.762,1.148,1.208c0.352,0.433,0.719,0.853,1.051,1.301l0.934,1.395
				c0.554,0.973,1.113,1.952,1.493,3.018c0.213,0.522,0.409,1.049,0.538,1.601c0.132,0.549,0.328,1.081,0.398,1.642l0.253,1.672
				l0.068,1.686l0.014,0.421l-0.021,0.448l-0.041,0.734c-0.07,0.573-0.113,1.209-0.23,1.738c-0.171,1.106-0.514,2.176-0.89,3.219
				c-1.58,4.173-4.642,7.592-8.296,9.779l-0.005,0.003l-0.847-3.203c1.001,0.055,2.01,0.107,3.002,0.311
				c0.502,0.069,0.994,0.187,1.484,0.32c0.491,0.127,0.988,0.241,1.464,0.426c0.97,0.317,1.894,0.755,2.814,1.207l1.331,0.775
				c0.437,0.27,0.847,0.585,1.271,0.879c0.82,0.624,1.622,1.291,2.32,2.064c0.37,0.366,0.71,0.761,1.026,1.179
				c0.328,0.407,0.654,0.816,0.927,1.267c0.596,0.864,1.072,1.811,1.498,2.775c0.187,0.494,0.397,0.981,0.557,1.485l0.419,1.534
				l0.25,1.572c0.068,0.525,0.068,1.057,0.101,1.585l0.017,0.397l-0.015,0.439l-0.031,0.689c-0.027,0.475-0.116,1.1-0.188,1.639
				c-0.205,1.04-0.462,2.07-0.846,3.054c-0.358,0.993-0.839,1.935-1.388,2.825c-0.544,0.895-1.178,1.724-1.857,2.506
				c-0.699,0.764-1.43,1.495-2.238,2.13c-0.796,0.649-1.662,1.2-2.544,1.703c-0.881,0.508-1.812,0.914-2.755,1.27l-0.013,0.006
				l0.093-3.186c4.743,2.12,8.956,5.48,12.134,9.672c3.216,4.174,5.247,9.239,6.052,14.47l0.24,1.974l0.101,1.985l0.012,0.249
				l0.006,0.124c-0.001,0.072,0.006-0.073-0.001,0.177l-0.002,0.058l-0.018,0.459l-0.037,0.918
				c-0.034,0.622-0.028,1.201-0.095,1.859l-0.265,2.036l-0.14,1.017l-0.218,0.969l-0.449,1.935
				c-0.164,0.641-0.403,1.263-0.603,1.895c-1.659,5.046-4.681,9.638-8.619,13.248c-0.468,0.478-0.998,0.886-1.528,1.294
				c-0.53,0.407-1.047,0.833-1.591,1.219l-1.697,1.071c-0.285,0.175-0.563,0.362-0.854,0.525l-0.898,0.448l-1.799,0.888
				l-1.877,0.704l-0.94,0.348c-0.316,0.105-0.644,0.176-0.965,0.265l-1.938,0.502c-0.648,0.156-1.313,0.219-1.97,0.331
				c-0.66,0.08-1.314,0.243-1.979,0.249l-1.989,0.097l-0.497,0.023l-0.249,0.011l-0.062,0.003c0.055,0.002-0.145-0.001-0.145-0.001
				l-0.115-0.004l-0.918-0.031c-1.16-0.007-2.606-0.165-3.937-0.33l-1.961-0.347c-0.65-0.14-1.293-0.319-1.939-0.48
				c-5.147-1.421-9.902-4.276-13.618-8.02c-3.722-3.748-6.57-8.187-8.696-12.839c-1.088-2.322-1.997-4.708-2.775-7.122
				c-0.801-2.41-1.436-4.858-1.996-7.316c-1.097-4.921-1.805-9.898-2.193-14.882c-0.215-2.492-0.316-4.987-0.391-7.48
				c-0.053-2.508-0.049-4.972-0.047-7.412L0.002,44.062l-0.001-7.351L0,33.035l0-0.459l0.024-0.588l0.047-0.918
				c0.036-0.617,0.052-1.213,0.104-1.847c0.366-2.778,0.88-5.394,1.86-7.864c0.867-2.52,2.202-4.841,3.634-7.071
				c3.049-4.343,7.091-7.991,11.783-10.479C22.16,1.358,27.454,0.032,32.763,0L32.878,0.003z M32.763,5.052
				C28.264,5.084,23.801,6.203,19.81,8.27c-3.973,2.106-7.398,5.205-9.985,8.872c-1.2,1.892-2.343,3.843-3.065,5.971
				c-0.179,0.53-0.428,1.039-0.555,1.585l-0.424,1.626c-0.169,0.547-0.243,1.074-0.319,1.601l-0.258,1.581
				c-0.05,0.586-0.068,1.216-0.104,1.822l-0.047,0.918l-0.012,0.229L5.036,32.59l-0.003,0.057c0.006-0.24,0.002-0.034,0.003-0.072
				l0,0.459l-0.001,3.676l-0.001,7.351L5.032,58.765c-0.004,2.461-0.007,4.899,0.043,7.291c0.072,2.405,0.167,4.809,0.374,7.2
				c0.371,4.787,1.048,9.537,2.083,14.185c0.528,2.319,1.124,4.621,1.869,6.863c0.723,2.25,1.563,4.453,2.555,6.569
				c1.938,4.254,4.491,8.179,7.68,11.395c3.194,3.21,7.121,5.548,11.425,6.749c0.543,0.132,1.081,0.286,1.628,0.405l1.658,0.294
				c1.1,0.125,2.09,0.268,3.383,0.281l0.918,0.031l0.115,0.004c0.038,0.001-0.124-0.002-0.03-0.002l0.053-0.003l0.21-0.012
				l0.42-0.024l1.682-0.089c0.564-0.001,1.108-0.155,1.663-0.222c0.55-0.099,1.111-0.147,1.652-0.283l1.617-0.431
				c0.268-0.075,0.543-0.132,0.806-0.222l0.78-0.299l1.563-0.59l1.491-0.752l0.747-0.372c0.242-0.137,0.47-0.298,0.706-0.444
				l1.409-0.896c0.451-0.326,0.876-0.688,1.317-1.027c0.441-0.341,0.883-0.679,1.268-1.085l1.204-1.16
				c0.39-0.398,0.73-0.843,1.1-1.26c0.768-0.814,1.349-1.778,2.006-2.681c0.326-0.454,0.562-0.967,0.85-1.447
				c0.262-0.494,0.587-0.956,0.789-1.481c0.446-1.029,0.954-2.031,1.277-3.111c0.174-0.534,0.389-1.055,0.533-1.599l0.398-1.642
				l0.199-0.82l0.115-0.803l0.244-1.605c0.069-0.558,0.074-1.209,0.114-1.809l0.048-0.918l0.024-0.459l0.003-0.057
				c-0.004,0.212-0.002,0.029-0.003,0.062l-0.002-0.105l-0.005-0.211l-0.036-1.688l-0.157-1.68c-0.548-4.469-2.197-8.8-4.764-12.552
				c-2.589-3.736-6.074-6.874-10.121-9.101l-0.059-0.032c-0.85-0.468-1.16-1.537-0.692-2.387c0.196-0.356,0.498-0.617,0.844-0.766
				l0.011-0.005c0.74-0.388,1.466-0.792,2.148-1.257c0.679-0.467,1.337-0.963,1.922-1.531c0.613-0.537,1.156-1.142,1.67-1.76
				c0.495-0.635,0.95-1.295,1.326-1.995c0.185-0.351,0.378-0.698,0.522-1.066c0.173-0.356,0.312-0.723,0.438-1.095
				c0.27-0.739,0.433-1.507,0.569-2.274c0.025-0.375,0.094-0.66,0.116-1.103l0.025-0.69l0.006-0.172l0.003-0.086l0.002-0.043
				l0-0.011c-0.001,0.037,0.002-0.098-0.002,0.081l-0.001-0.018l-0.019-0.292c-0.033-0.389-0.028-0.782-0.082-1.167l-0.189-1.154
				l-0.3-1.131c-0.115-0.373-0.273-0.733-0.404-1.102c-0.31-0.719-0.663-1.424-1.096-2.087c-0.191-0.347-0.435-0.661-0.677-0.977
				c-0.228-0.326-0.48-0.635-0.761-0.922c-0.523-0.604-1.12-1.148-1.733-1.671c-0.323-0.243-0.628-0.511-0.963-0.741l-1.023-0.667
				c-0.716-0.393-1.438-0.779-2.205-1.081c-0.37-0.185-0.765-0.304-1.155-0.44c-0.389-0.143-0.782-0.274-1.189-0.36
				c-0.801-0.229-1.626-0.347-2.454-0.497l-0.196-0.036c-0.947-0.171-1.575-1.078-1.404-2.025c0.088-0.485,0.373-0.889,0.753-1.143
				l0.004-0.003c2.85-2.158,5.051-5.073,6.053-8.325c0.228-0.817,0.435-1.637,0.53-2.475c0.077-0.432,0.066-0.78,0.112-1.179
				l0.009-0.735l0.002-0.184l0.001-0.092l0.001-0.046l0-0.023l0-0.011c-0.003,0.155-0.001,0.037-0.002,0.069l-0.028-0.313
				l-0.102-1.247l-0.246-1.224c-0.061-0.412-0.241-0.797-0.35-1.196c-0.106-0.402-0.272-0.784-0.45-1.162
				c-0.299-0.776-0.737-1.496-1.161-2.214l-0.723-1.031c-0.259-0.332-0.549-0.641-0.819-0.964c-0.259-0.333-0.589-0.606-0.884-0.909
				c-0.296-0.304-0.603-0.596-0.946-0.852c-0.64-0.564-1.361-1.026-2.073-1.501c-0.751-0.411-1.484-0.863-2.289-1.176
				c-0.774-0.379-1.611-0.606-2.427-0.884c-0.84-0.193-1.695-0.426-2.478-0.503c-0.717-0.157-1.82-0.156-2.768-0.217L32.763,5.052z"
				/>
		</g>
		<g>
			<g>
				<path d="M4.225,74.128l26.167-3.985c1.229-0.187,2.376,0.657,2.563,1.886s-0.657,2.376-1.886,2.563
					c-0.02,0.003-0.049,0.007-0.069,0.009L4.723,77.776c-1.009,0.122-1.927-0.598-2.049-1.607
					C2.555,75.18,3.247,74.278,4.225,74.128z"/>
			</g>
			<g>
				<path d="M3.531,62.655c0,0,1.383-0.218,3.804-0.598c2.422-0.369,5.876-0.949,10.033-1.551c2.078-0.308,4.328-0.641,6.709-0.994
					c1.19-0.176,2.413-0.357,3.663-0.542l0.943-0.134c0.334-0.042,0.669-0.085,1.006-0.127c0.779-0.075,1.554-0.095,2.311-0.061
					c3.061,0.152,6.216,1.277,8.724,3.398c2.513,2.094,4.315,5.231,4.678,8.626c0.405,3.351-0.65,6.831-2.61,9.433
					c-1.957,2.63-4.76,4.457-7.702,5.309c-0.736,0.212-1.479,0.373-2.222,0.476c-0.645,0.082-1.285,0.163-1.917,0.244
					c-1.254,0.152-2.481,0.301-3.676,0.446c-2.389,0.29-4.648,0.564-6.732,0.817c-4.169,0.516-7.652,0.874-10.086,1.159
					c-2.435,0.274-3.827,0.431-3.827,0.431c-0.988,0.111-1.879-0.6-1.99-1.588c-0.108-0.963,0.568-1.834,1.517-1.981
					c0,0,1.384-0.212,3.807-0.582c2.424-0.36,5.88-0.923,10.039-1.512c2.079-0.3,4.331-0.624,6.713-0.967
					c1.191-0.172,2.414-0.348,3.665-0.528c0.62-0.087,1.246-0.175,1.879-0.263c0.534-0.078,1.065-0.199,1.589-0.353
					c2.091-0.62,4.047-1.933,5.377-3.748c1.327-1.813,1.992-4.073,1.706-6.305c-0.226-2.196-1.372-4.279-3.079-5.725
					c-1.702-1.463-3.911-2.283-6.085-2.407c-0.554-0.028-1.083-0.015-1.588,0.025l-0.479,0.052l-0.425,0.055l-0.945,0.123
					c-1.254,0.157-2.48,0.31-3.674,0.459c-2.388,0.298-4.646,0.581-6.73,0.841c-4.166,0.534-7.649,0.901-10.081,1.195
					c-2.434,0.282-3.825,0.444-3.825,0.444c-0.988,0.115-1.881-0.593-1.996-1.581C1.91,63.679,2.583,62.805,3.531,62.655z"/>
			</g>
		</g>
	</g>
</g>
<g id="Layer_1">
</g>
</svg>
