<?xml version="1.0" encoding="iso-8859-1"?>
<!-- Generator: Adobe Illustrator 19.2.0, SVG Export Plug-In . SVG Version: 6.00 Build 0)  -->
<!DOCTYPE svg PUBLIC "-//W3C//DTD SVG 1.1//EN" "http://www.w3.org/Graphics/SVG/1.1/DTD/svg11.dtd">
<svg version="1.1" xmlns="http://www.w3.org/2000/svg" xmlns:xlink="http://www.w3.org/1999/xlink" x="0px" y="0px"
	 viewBox="0 0 75.14 124.998" style="enable-background:new 0 0 75.14 124.998;" xml:space="preserve">
<g id="sa">
	<g id="sa_1_">
		<g>
			<ellipse style="fill:#FFFFFF;" cx="37.57" cy="97.846" rx="30.5" ry="24.653"/>
			<path d="M4.824,97.705c0,0,0.048-0.677,0.137-1.946c-0.003-0.581,0.233-1.569,0.42-2.599c0.053-0.263,0.108-0.536,0.165-0.819
				c0.084-0.261,0.17-0.531,0.26-0.81c0.182-0.555,0.376-1.146,0.58-1.77c0.994-2.42,2.566-5.216,4.996-7.853
				c2.416-2.637,5.646-5.104,9.539-6.995c3.89-1.89,8.447-3.188,13.347-3.595c0.613-0.024,1.231-0.048,1.853-0.073l0.935-0.034
				l0.47-0.017l0.532,0.014c0.598,0.021,1.2,0.042,1.805,0.063l0.91,0.032l0.984,0.111c0.658,0.077,1.319,0.155,1.984,0.233
				c0.663,0.084,1.291,0.245,1.943,0.366c1.304,0.219,2.58,0.619,3.874,0.996c2.554,0.848,5.114,1.902,7.488,3.391
				c1.227,0.673,2.332,1.568,3.483,2.398c1.069,0.944,2.18,1.852,3.131,2.951c1.953,2.122,3.684,4.563,4.809,7.334
				c1.155,2.747,1.798,5.741,1.852,8.762c0,2.793-0.637,6.107-1.765,8.798c-1.101,2.794-2.814,5.267-4.757,7.424
				c-0.946,1.117-2.055,2.043-3.122,3.005c-1.149,0.847-2.255,1.762-3.484,2.454c-2.378,1.528-4.949,2.619-7.52,3.503
				c-1.302,0.395-2.588,0.812-3.902,1.049c-0.654,0.129-1.299,0.3-1.952,0.39c-0.654,0.085-1.305,0.169-1.953,0.253l-0.969,0.123
				l-0.969,0.047c-0.644,0.03-1.285,0.059-1.922,0.088l-0.239,0.01l-0.119,0.005l-0.06,0.003l-0.159-0.003l-0.446-0.02l-0.888-0.039
				c-0.591-0.027-1.178-0.053-1.761-0.079c-1.266-0.166-2.549-0.278-3.747-0.504c-0.592-0.125-1.18-0.249-1.763-0.372
				c-0.585-0.112-1.16-0.25-1.719-0.433c-1.123-0.343-2.242-0.633-3.287-1.086c-0.528-0.208-1.051-0.414-1.569-0.618
				c-0.514-0.215-1.001-0.482-1.494-0.718c-3.931-1.926-7.168-4.466-9.561-7.17c-2.412-2.698-3.954-5.538-4.916-7.983
				c-0.861-2.495-1.231-4.554-1.338-5.962c-0.076-1.412-0.116-2.166-0.116-2.166L4.824,97.705z M9.32,97.846
				c0,0,0.044,0.601,0.127,1.729c0.099,1.124,0.433,2.755,1.142,4.746c0.816,1.95,2.093,4.236,4.133,6.447
				c2.028,2.207,4.79,4.325,8.178,5.969c0.427,0.199,0.843,0.43,1.289,0.611c0.45,0.173,0.904,0.347,1.363,0.523
				c0.902,0.391,1.882,0.628,2.858,0.922c0.485,0.159,0.987,0.275,1.5,0.366c0.509,0.104,1.022,0.209,1.54,0.315
				c1.029,0.187,2.045,0.258,3.09,0.408c0.582,0.022,1.168,0.045,1.758,0.067l0.889,0.033l0.446,0.017
				c0.11,0.002-0.086,0-0.047-0.001l0.052-0.002l0.105-0.004l0.209-0.008c0.559-0.02,1.121-0.039,1.687-0.059l0.851-0.028
				l0.849-0.101c0.568-0.066,1.139-0.133,1.713-0.199c0.573-0.07,1.135-0.219,1.708-0.323c1.154-0.188,2.272-0.546,3.411-0.873
				c2.239-0.746,4.482-1.659,6.527-2.948c1.069-0.576,2.002-1.352,2.996-2.053c0.901-0.807,1.858-1.572,2.648-2.496
				c1.64-1.78,3.075-3.793,3.978-6.035c0.936-2.303,1.424-4.38,1.502-7.023c-0.024-4.829-1.982-9.601-5.342-13.184
				c-0.785-0.942-1.739-1.724-2.639-2.55c-0.993-0.72-1.926-1.515-2.998-2.11c-2.05-1.327-4.304-2.279-6.559-3.06
				c-1.147-0.344-2.275-0.72-3.44-0.925c-0.575-0.113-1.154-0.271-1.718-0.347c-0.563-0.073-1.124-0.146-1.681-0.219l-0.834-0.113
				l-0.91-0.043c-0.605-0.028-1.206-0.056-1.804-0.084l-0.364-0.015l-0.423,0.02l-0.842,0.038c-0.559,0.025-1.115,0.05-1.667,0.074
				c-4.401,0.399-8.455,1.592-11.871,3.281c-3.426,1.68-6.194,3.871-8.199,6.144c-2.023,2.271-3.268,4.6-4.053,6.577
				c-0.155,0.508-0.302,0.988-0.441,1.441c-0.07,0.225-0.139,0.444-0.205,0.655c-0.035,0.204-0.069,0.401-0.102,0.591
				c-0.071,0.378-0.136,0.728-0.196,1.049c-0.028,0.166-0.07,0.3-0.084,0.47c-0.01,0.177-0.019,0.345-0.027,0.504
				c-0.069,1.27-0.106,1.948-0.106,1.948L9.32,97.846z"/>
		</g>
		<g>
			<ellipse style="fill:#FFFFFF;" cx="37.57" cy="72.149" rx="30.5" ry="24.653"/>
			<path d="M4.824,72.009c0,0,0.048-0.677,0.137-1.946c-0.003-0.581,0.233-1.569,0.42-2.599c0.053-0.263,0.108-0.536,0.165-0.819
				c0.084-0.261,0.17-0.531,0.26-0.809c0.182-0.556,0.376-1.146,0.58-1.77c0.994-2.42,2.566-5.215,4.996-7.853
				c2.416-2.637,5.646-5.104,9.539-6.995c3.89-1.89,8.447-3.188,13.347-3.595c0.613-0.024,1.231-0.048,1.853-0.073l0.935-0.034
				l0.47-0.017l0.532,0.014c0.598,0.021,1.2,0.042,1.805,0.063l0.91,0.032l0.984,0.111c0.658,0.077,1.319,0.155,1.984,0.233
				c0.663,0.084,1.291,0.245,1.943,0.366c1.304,0.219,2.58,0.619,3.874,0.996c2.554,0.848,5.114,1.902,7.488,3.391
				c1.227,0.673,2.332,1.568,3.483,2.397c1.069,0.944,2.18,1.852,3.131,2.951c1.953,2.122,3.684,4.563,4.809,7.334
				c0.342,0.663,0.526,1.396,0.768,2.104l0.343,1.071c0.09,0.364,0.152,0.736,0.228,1.104c0.118,0.742,0.346,1.47,0.362,2.227
				l0.078,1.128l0.037,0.564l0.018,0.282l0.009,0.141l0.004,0.071c-0.001,0.086,0.007-0.093,0,0.211L70.2,74.322l-0.031,0.511
				l-0.099,0.585l-0.207,1.171c-0.074,0.387-0.137,0.786-0.227,1.162l-0.333,1.077c-0.236,0.712-0.413,1.45-0.749,2.119
				c-1.101,2.794-2.814,5.267-4.757,7.424c-0.946,1.117-2.055,2.043-3.122,3.005c-1.149,0.848-2.255,1.762-3.484,2.454
				c-2.378,1.527-4.949,2.619-7.52,3.503c-1.302,0.395-2.588,0.812-3.902,1.049c-0.654,0.129-1.299,0.3-1.952,0.39
				c-0.654,0.085-1.305,0.169-1.953,0.253l-0.969,0.123l-0.969,0.047c-0.644,0.03-1.285,0.059-1.922,0.088l-0.239,0.01l-0.119,0.005
				l-0.06,0.002l-0.159-0.003l-0.446-0.02l-0.888-0.039c-0.591-0.027-1.178-0.053-1.761-0.079c-1.266-0.166-2.549-0.278-3.747-0.504
				c-0.592-0.125-1.18-0.249-1.763-0.372c-0.585-0.112-1.16-0.25-1.719-0.433c-1.123-0.343-2.242-0.633-3.287-1.086
				c-0.528-0.208-1.051-0.414-1.569-0.618c-0.514-0.215-1.001-0.482-1.494-0.718c-3.931-1.926-7.168-4.466-9.561-7.17
				c-2.412-2.698-3.954-5.538-4.916-7.983c-0.861-2.495-1.231-4.554-1.338-5.962c-0.076-1.412-0.116-2.166-0.116-2.166L4.824,72.009
				z M9.32,72.149c0,0,0.044,0.601,0.127,1.729c0.099,1.124,0.433,2.755,1.142,4.746c0.816,1.95,2.093,4.236,4.133,6.447
				c2.028,2.207,4.79,4.325,8.178,5.969c0.427,0.199,0.843,0.43,1.289,0.611c0.45,0.173,0.904,0.347,1.363,0.523
				c0.902,0.391,1.882,0.628,2.858,0.922c0.485,0.159,0.987,0.275,1.5,0.367c0.509,0.104,1.022,0.209,1.54,0.315
				c1.029,0.187,2.045,0.258,3.09,0.408c0.582,0.022,1.168,0.045,1.758,0.067l0.889,0.033l0.446,0.017
				c0.11,0.002-0.086,0-0.047-0.001l0.052-0.002l0.105-0.004l0.209-0.008c0.559-0.02,1.121-0.039,1.687-0.059l0.851-0.028
				l0.849-0.101c0.568-0.066,1.139-0.133,1.713-0.199c0.573-0.07,1.135-0.219,1.708-0.323c1.154-0.188,2.272-0.546,3.411-0.873
				c2.239-0.745,4.482-1.659,6.527-2.948c1.069-0.576,2.002-1.352,2.996-2.053c0.901-0.807,1.858-1.572,2.648-2.496
				c1.64-1.78,3.075-3.793,3.978-6.035c0.289-0.536,0.421-1.127,0.62-1.696l0.283-0.859c0.069-0.281,0.108-0.554,0.167-0.832
				l0.171-0.828l0.09-0.414l0.037-0.504l0.139-2.031c-0.01,0.262-0.005,0.04-0.008,0.084l-0.004-0.056l-0.007-0.113l-0.014-0.226
				l-0.027-0.451l-0.049-0.904c0.006-0.607-0.192-1.19-0.272-1.787c-0.057-0.296-0.098-0.596-0.166-0.89l-0.273-0.865
				c-0.192-0.573-0.318-1.169-0.601-1.711c-0.878-2.264-2.296-4.31-3.927-6.125c-0.785-0.942-1.739-1.724-2.639-2.55
				c-0.993-0.72-1.926-1.515-2.998-2.11c-2.05-1.327-4.304-2.279-6.559-3.061c-1.147-0.344-2.275-0.72-3.44-0.925
				c-0.575-0.113-1.154-0.271-1.718-0.347c-0.563-0.073-1.124-0.147-1.681-0.219l-0.834-0.113l-0.91-0.043
				c-0.605-0.028-1.206-0.056-1.804-0.084l-0.364-0.015l-0.423,0.02l-0.842,0.038c-0.559,0.025-1.115,0.049-1.667,0.074
				c-4.401,0.399-8.455,1.592-11.871,3.281c-3.426,1.68-6.194,3.871-8.199,6.144c-2.023,2.271-3.268,4.6-4.053,6.577
				c-0.155,0.508-0.302,0.989-0.441,1.441c-0.07,0.225-0.139,0.444-0.205,0.655c-0.035,0.204-0.069,0.401-0.102,0.591
				c-0.071,0.378-0.136,0.728-0.196,1.049c-0.028,0.166-0.07,0.3-0.084,0.47c-0.01,0.177-0.019,0.345-0.027,0.504
				c-0.069,1.271-0.106,1.948-0.106,1.948L9.32,72.149z"/>
		</g>
		<g>
			<ellipse style="fill:#FFFFFF;" cx="37.57" cy="39.874" rx="35.32" ry="37.375"/>
			<path d="M75.137,39.982c0,0-0.048,0.891-0.138,2.561c-0.029,0.422-0.034,0.874-0.089,1.407c-0.08,0.552-0.168,1.154-0.262,1.805
				c-0.099,0.65-0.205,1.348-0.318,2.093c-0.177,0.713-0.365,1.47-0.563,2.271c-0.331,1.619-1.035,3.315-1.687,5.189
				c-0.417,0.902-0.85,1.841-1.3,2.815c-0.442,0.978-1.069,1.905-1.626,2.907c-2.395,3.906-5.797,7.939-10.37,11.295
				c-4.56,3.347-10.402,5.814-16.854,6.645c-0.8,0.152-1.625,0.118-2.444,0.184l-1.237,0.062l-0.621,0.03
				c0.07,0.003-0.184-0.001-0.184-0.001l-0.073-0.004l-0.147-0.007l-0.294-0.014c-1.579-0.09-3.114-0.083-4.904-0.428l-1.305-0.205
				c-0.441-0.06-0.872-0.142-1.281-0.267c-0.834-0.223-1.671-0.448-2.513-0.673c-0.846-0.212-1.641-0.593-2.47-0.886
				c-0.824-0.309-1.653-0.617-2.431-1.047C15.608,72.677,9.97,67.573,6.073,61.254l-1.398-2.415
				c-0.421-0.83-0.791-1.688-1.187-2.534c-0.187-0.428-0.408-0.843-0.566-1.283l-0.466-1.325c-0.287-0.891-0.671-1.755-0.875-2.673
				C0.531,47.408,0.114,43.638,0,39.874l0.118-2.781c0.028-0.452,0.02-0.876,0.077-1.351l0.194-1.439
				c0.149-0.95,0.228-1.939,0.445-2.855l0.656-2.748c0.197-0.922,0.575-1.791,0.855-2.687l0.457-1.333
				c0.154-0.443,0.373-0.861,0.557-1.292c0.391-0.853,0.755-1.717,1.171-2.554l1.384-2.437c3.861-6.381,9.494-11.572,15.951-14.694
				c0.783-0.44,1.617-0.759,2.447-1.078c0.835-0.304,1.636-0.694,2.49-0.917c0.85-0.235,1.696-0.469,2.537-0.702
				c0.835-0.264,1.71-0.323,2.558-0.491c1.699-0.356,3.413-0.383,5.099-0.486l0.316-0.017l0.158-0.009L37.549,0
				c0,0,0.303,0.008,0.209,0.006l0.586,0.033l1.167,0.065l1.16,0.065c0.378,0.014,0.768,0.041,1.203,0.122
				c1.675,0.277,3.382,0.476,4.886,0.963c0.769,0.22,1.543,0.403,2.288,0.655c0.733,0.285,1.461,0.568,2.182,0.849l1.076,0.423
				l1.021,0.518c0.676,0.347,1.345,0.691,2.009,1.032c0.658,0.349,1.256,0.787,1.877,1.171c0.605,0.408,1.239,0.765,1.801,1.207
				c4.612,3.405,8.005,7.511,10.363,11.475c0.55,1.016,1.168,1.955,1.602,2.943c0.441,0.984,0.866,1.933,1.274,2.844
				c0.634,1.891,1.319,3.6,1.633,5.229c0.19,0.805,0.369,1.566,0.538,2.283c0.103,0.729,0.199,1.412,0.288,2.047
				c0.087,0.635,0.168,1.223,0.242,1.762c0.05,0.541,0.053,1.035,0.078,1.476c0.073,1.765,0.111,2.707,0.111,2.707L75.137,39.982z
				 M70.64,39.874c0,0-0.046-0.841-0.133-2.417c-0.027-0.393-0.031-0.835-0.082-1.316c-0.073-0.479-0.153-1.001-0.239-1.566
				c-0.085-0.564-0.176-1.171-0.274-1.819c-0.159-0.634-0.329-1.308-0.507-2.021c-0.287-1.445-0.93-2.947-1.5-4.617
				c-0.371-0.801-0.758-1.635-1.159-2.5c-0.389-0.87-0.955-1.687-1.446-2.578c-2.127-3.463-5.144-7.028-9.167-9.983
				c-0.49-0.385-1.047-0.685-1.574-1.038c-0.542-0.33-1.06-0.715-1.634-1.012c-0.577-0.292-1.159-0.586-1.747-0.882l-0.884-0.448
				l-0.934-0.356c-0.624-0.24-1.253-0.483-1.887-0.727c-0.644-0.213-1.315-0.361-1.978-0.55c-1.342-0.433-2.658-0.543-4.002-0.79
				c-0.318-0.071-0.696-0.096-1.09-0.109l-1.16-0.059l-1.167-0.059l-0.587-0.03c-0.143-0.004,0.113,0,0.062,0.002l-0.068,0.003
				l-0.136,0.007l-0.273,0.014c-1.453,0.086-2.936,0.079-4.4,0.383c-0.731,0.142-1.49,0.171-2.21,0.401
				c-0.728,0.194-1.46,0.39-2.195,0.586c-0.741,0.179-1.433,0.524-2.159,0.776c-0.721,0.268-1.448,0.532-2.128,0.914
				c-5.622,2.654-10.609,7.151-14.07,12.756l-1.244,2.141c-0.373,0.738-0.698,1.502-1.053,2.252
				c-0.166,0.38-0.368,0.747-0.506,1.139l-0.412,1.179c-0.253,0.793-0.605,1.558-0.782,2.377l-0.604,2.437
				c-0.204,0.813-0.258,1.611-0.401,2.417l-0.187,1.208c-0.057,0.409-0.056,0.88-0.087,1.318L4.5,39.874
				c0.083,3.364,0.415,6.736,1.326,9.969c0.17,0.823,0.516,1.592,0.762,2.391l0.403,1.188c0.135,0.395,0.334,0.764,0.497,1.147
				c0.349,0.757,0.669,1.527,1.037,2.272l1.23,2.163c3.426,5.666,8.408,10.251,14.069,12.989c0.685,0.392,1.417,0.667,2.145,0.945
				c0.732,0.263,1.431,0.617,2.179,0.806c0.743,0.206,1.483,0.411,2.22,0.615c0.369,0.119,0.734,0.19,1.096,0.239l1.085,0.181
				c1.373,0.315,3.035,0.342,4.595,0.441l0.294,0.017l0.147,0.009l0.073,0.004c0.048,0.003-0.156-0.007-0.037-0.005l0.552-0.032
				l1.098-0.063c0.727-0.065,1.46-0.026,2.168-0.171c5.714-0.775,10.877-2.972,14.923-5.977c4.062-3.003,7.07-6.642,9.16-10.162
				c0.483-0.905,1.041-1.733,1.422-2.614c0.392-0.875,0.769-1.718,1.132-2.529c0.552-1.687,1.176-3.201,1.446-4.656
				c0.17-0.717,0.331-1.395,0.482-2.033c0.087-0.631,0.168-1.222,0.244-1.772c0.078-0.549,0.151-1.057,0.218-1.523
				c0.046-0.488,0.048-0.973,0.071-1.385c0.069-1.671,0.107-2.562,0.107-2.562L70.64,39.874z"/>
		</g>
		<g>
			<ellipse transform="matrix(0.997 -0.0768 0.0768 0.997 -3.3886 2.9358)" cx="36.488" cy="45.538" rx="5.733" ry="6"/>
			<g>
				<path d="M56.365,45.166c-0.583,0.872-1.156,1.63-1.767,2.407c-0.607,0.769-1.238,1.517-1.893,2.246
					c-1.311,1.456-2.713,2.843-4.245,4.111c-1.53,1.267-3.187,2.429-5.021,3.359c-1.824,0.929-3.845,1.643-5.994,1.866l-0.402,0.043
					l-0.1,0.01l-0.165,0.008l-0.176,0.006l-0.712,0.019c-0.583-0.017-1.175-0.041-1.693-0.121c-1.069-0.143-2.118-0.388-3.107-0.749
					c-1.99-0.702-3.778-1.746-5.4-2.936c-1.619-1.198-3.08-2.549-4.422-3.989c-0.67-0.722-1.311-1.466-1.922-2.234
					c-0.618-0.781-1.184-1.53-1.769-2.422c-0.382-0.581-0.366-1.308-0.021-1.862c0.553-0.885,1.088-1.626,1.672-2.401
					c0.58-0.76,1.186-1.5,1.82-2.218c1.266-1.437,2.652-2.783,4.169-4.006c1.524-1.213,3.188-2.304,5.028-3.132
					c0.914-0.423,1.881-0.759,2.874-1.02c1.001-0.269,2.002-0.424,3.087-0.486c0.237-0.008,0.435-0.027,0.705-0.025l0.836,0.02
					c0.538,0.039,1.047,0.072,1.558,0.163c1.025,0.146,2.015,0.41,2.973,0.728c1.918,0.641,3.69,1.552,5.334,2.599
					c1.65,1.045,3.169,2.239,4.604,3.513c0.716,0.639,1.407,1.302,2.076,1.989c0.677,0.699,1.3,1.368,1.966,2.182
					c0.557,0.68,0.578,1.624,0.113,2.319L56.365,45.166z M52.136,44.203c-0.237-0.263-0.461-0.542-0.7-0.793
					c-0.598-0.628-1.219-1.237-1.86-1.822c-1.282-1.166-2.634-2.251-4.062-3.176c-1.423-0.931-2.921-1.713-4.464-2.247
					c-0.771-0.265-1.551-0.483-2.335-0.601c-0.387-0.077-0.793-0.102-1.163-0.137l-0.533-0.024
					c-0.187-0.007-0.445,0.011-0.664,0.016c-0.737,0.035-1.555,0.14-2.319,0.342c-0.774,0.195-1.544,0.448-2.292,0.785
					c-1.502,0.653-2.932,1.559-4.276,2.603c-1.34,1.054-2.6,2.245-3.763,3.536c-0.583,0.644-1.143,1.312-1.679,1.998
					c-0.525,0.676-1.063,1.416-1.486,2.075l-0.021-1.861c0.452,0.672,1.021,1.418,1.577,2.1c0.564,0.693,1.157,1.364,1.77,2.011
					c1.23,1.29,2.551,2.479,3.961,3.497c1.411,1.012,2.914,1.852,4.473,2.38c0.777,0.276,1.57,0.444,2.359,0.542
					c0.411,0.059,0.757,0.057,1.111,0.078l0.694-0.027l0.176-0.008l0.044-0.002l0.022-0.001c0.07-0.004-0.084,0.005-0.064,0.003
					l0.009-0.001l0.074-0.009l0.297-0.037c3.19-0.383,6.273-2.2,8.947-4.466c1.346-1.138,2.607-2.41,3.791-3.754
					c0.592-0.673,1.163-1.366,1.711-2.075C51.701,44.83,51.912,44.509,52.136,44.203z"/>
			</g>
			<g>
				<path d="M13.106,13.256c0,0,0.88-0.161,2.421-0.443c0.783-0.124,1.665-0.365,2.852-0.411c0.578-0.043,1.192-0.089,1.84-0.137
					c0.646-0.032,1.336-0.137,2.033-0.077c0.702,0.027,1.433,0.055,2.19,0.084c0.379,0.015,0.764,0.031,1.154,0.047
					c0.389,0.042,0.781,0.114,1.181,0.171c0.798,0.124,1.618,0.251,2.457,0.381c0.833,0.157,1.661,0.434,2.515,0.654
					c0.426,0.118,0.855,0.237,1.288,0.357c0.428,0.133,0.84,0.325,1.264,0.488c0.84,0.35,1.71,0.663,2.549,1.058
					c0.818,0.442,1.642,0.887,2.469,1.334c0.423,0.209,0.814,0.472,1.197,0.746l1.164,0.805l1.163,0.808l1.071,0.919
					c0.693,0.632,1.464,1.182,2.08,1.876c0.638,0.674,1.27,1.343,1.895,2.003c0.588,0.691,1.117,1.418,1.664,2.111
					c0.566,0.681,1.03,1.414,1.476,2.136c0.44,0.725,0.929,1.403,1.298,2.122c0.719,1.446,1.487,2.777,1.957,4.11
					c0.261,0.656,0.512,1.284,0.75,1.881c0.217,0.605,0.369,1.197,0.54,1.744c0.33,1.099,0.63,2.054,0.76,2.87
					c0.325,1.617,0.511,2.541,0.511,2.541c0.218,1.082-0.483,2.136-1.565,2.354c-1.082,0.218-2.136-0.483-2.354-1.565
					c-0.001-0.007-0.003-0.014-0.004-0.021l-0.035-0.188c0,0-0.154-0.833-0.423-2.292c-0.1-0.738-0.36-1.602-0.64-2.597
					c-0.146-0.496-0.27-1.034-0.457-1.583c-0.206-0.542-0.423-1.113-0.65-1.708c-0.397-1.216-1.079-2.421-1.7-3.743
					c-0.32-0.657-0.754-1.271-1.139-1.933c-0.391-0.66-0.795-1.331-1.297-1.949c-0.483-0.631-0.946-1.297-1.464-1.929
					c-0.552-0.604-1.11-1.214-1.673-1.83c-0.541-0.64-1.228-1.134-1.839-1.716l-0.945-0.846l-1.031-0.738l-1.03-0.741
					c-0.339-0.254-0.684-0.498-1.061-0.688c-0.734-0.414-1.465-0.826-2.19-1.236c-0.746-0.367-1.522-0.656-2.269-0.986
					c-0.379-0.152-0.743-0.336-1.126-0.461c-0.387-0.113-0.771-0.226-1.153-0.337c-0.766-0.209-1.504-0.478-2.254-0.632
					c-0.756-0.13-1.495-0.257-2.215-0.381c-0.361-0.059-0.714-0.133-1.066-0.178c-0.355-0.019-0.706-0.038-1.05-0.057
					c-0.689-0.039-1.355-0.077-1.994-0.114c-0.645-0.071-1.238,0.021-1.813,0.038c-0.573,0.031-1.117,0.06-1.628,0.087
					c-1.002-0.001-1.975,0.236-2.739,0.344c-1.545,0.255-2.428,0.4-2.428,0.4c-0.817,0.135-1.589-0.418-1.724-1.236
					C11.76,14.168,12.304,13.403,13.106,13.256z"/>
			</g>
		</g>
	</g>
</g>
<g id="Layer_1">
</g>
</svg>
