<?xml version="1.0" encoding="iso-8859-1"?>
<!-- Generator: Adobe Illustrator 19.2.0, SVG Export Plug-In . SVG Version: 6.00 Build 0)  -->
<!DOCTYPE svg PUBLIC "-//W3C//DTD SVG 1.1//EN" "http://www.w3.org/Graphics/SVG/1.1/DTD/svg11.dtd">
<svg version="1.1" xmlns="http://www.w3.org/2000/svg" xmlns:xlink="http://www.w3.org/1999/xlink" x="0px" y="0px"
	 viewBox="0 0 125 125" style="enable-background:new 0 0 125 125;" xml:space="preserve">
<g id="u">
	<g id="u_1_">
		<circle style="fill:#FFFFFF;stroke:#000000;stroke-width:5;stroke-miterlimit:10;" cx="62.5" cy="62.5" r="60"/>
		<g>
			<path d="M64.545,2.5L65,57c0.012,1.381-1.098,2.509-2.479,2.521S60.012,58.422,60,57.042c0-0.01,0-0.032,0-0.042l0.455-54.5
				c0.009-1.13,0.933-2.038,2.063-2.028C63.635,0.481,64.535,1.387,64.545,2.5z"/>
		</g>
		<g>
			<path d="M85.875,6.5c0,0,0.112,10.368,0.281,25.919c0.026,3.888,0.054,8.1,0.083,12.555c0.015,2.227,0.03,4.516,0.045,6.854
				c0.005,1.169,0.011,2.351,0.016,3.545l0.001,0.448l-0.022,0.571l-0.043,0.9L86.191,58.2l-0.148,1.054
				c-0.173,1.445-0.525,2.733-0.924,4.054c-0.237,0.646-0.461,1.3-0.719,1.942c-0.299,0.625-0.6,1.251-0.901,1.88
				c-1.323,2.455-3.093,4.704-5.221,6.589c-2.126,1.887-4.61,3.407-7.302,4.438c-1.34,0.534-2.745,0.901-4.162,1.177
				c-0.715,0.102-1.427,0.247-2.147,0.303l-1.082,0.059l-0.541,0.028l-0.271,0.013l-0.135,0.007l-0.068,0.003
				c-0.079,0,0.081,0.005-0.194,0l-1.941-0.102c-0.673-0.05-1.485-0.199-2.219-0.306c-1.468-0.285-2.837-0.645-4.188-1.181
				c-2.692-1.031-5.177-2.551-7.302-4.438c-2.128-1.885-3.898-4.135-5.221-6.589c-1.323-2.458-2.154-5.131-2.536-7.806l-0.148-1.002
				l-0.053-1.006c-0.026-0.652-0.082-1.378-0.066-1.942c0.005-1.194,0.011-2.376,0.016-3.545c0.015-2.339,0.031-4.627,0.045-6.854
				c0.029-4.455,0.057-8.667,0.083-12.555C39.013,16.868,39.125,6.5,39.125,6.5c0.012-1.104,0.917-1.99,2.022-1.978
				c1.089,0.012,1.966,0.895,1.978,1.978c0,0,0.112,10.368,0.281,25.919c0.026,3.888,0.054,8.1,0.083,12.555
				c0.015,2.227,0.03,4.516,0.045,6.854c0.005,1.169,0.011,2.351,0.016,3.545c-0.013,0.629,0.045,1.1,0.065,1.651l0.041,0.802
				l0.126,0.796c0.313,2.126,0.975,4.243,2.036,6.189c1.061,1.943,2.476,3.724,4.173,5.213c1.695,1.49,3.669,2.685,5.8,3.491
				c1.048,0.42,2.198,0.705,3.266,0.912c0.548,0.067,1.009,0.184,1.627,0.231l1.942,0.094c-0.235-0.007-0.034-0.004-0.073-0.006
				l0.054-0.003l0.107-0.006l0.215-0.011l0.429-0.021l0.859-0.039c0.571-0.041,1.132-0.162,1.699-0.234
				c1.12-0.216,2.233-0.495,3.292-0.917c2.131-0.805,4.105-2,5.8-3.491c1.697-1.489,3.112-3.27,4.173-5.213l0.722-1.489
				c0.205-0.51,0.381-1.029,0.576-1.539c0.317-1.035,0.613-2.122,0.729-3.092l0.126-0.744l0.049-0.902l0.047-0.9l0.012-0.225
				l0.006-0.112l0.003-0.056c-0.006,0.227-0.002,0.031-0.003,0.067l0.001-0.448c0.005-1.194,0.011-2.376,0.016-3.545
				c0.015-2.339,0.031-4.627,0.045-6.854c0.029-4.455,0.057-8.667,0.083-12.555C81.763,16.868,81.875,6.5,81.875,6.5
				c0.012-1.104,0.917-1.99,2.022-1.978C84.986,4.533,85.862,5.416,85.875,6.5z"/>
		</g>
	</g>
</g>
<g id="Layer_1">
</g>
</svg>
