<?xml version="1.0" encoding="iso-8859-1"?>
<!-- Generator: Adobe Illustrator 19.2.0, SVG Export Plug-In . SVG Version: 6.00 Build 0)  -->
<!DOCTYPE svg PUBLIC "-//W3C//DTD SVG 1.1//EN" "http://www.w3.org/Graphics/SVG/1.1/DTD/svg11.dtd">
<svg version="1.1" xmlns="http://www.w3.org/2000/svg" xmlns:xlink="http://www.w3.org/1999/xlink" x="0px" y="0px"
	 viewBox="0 0 125.125 124.996" style="enable-background:new 0 0 125.125 124.996;" xml:space="preserve">
<g id="tan">
	<g id="tan_1_">
		<g>
			<path style="fill:#FFFFFF;" d="M2.5,105.436c0-16.853,26.738-22.407,59.875-22.407s60.134,7.537,60.134,22.796
				c0,10.314-9.268,16.675-20.866,16.675c-13,0-21-6.773-21-17.087c0,9.495-6.5,15.604-18,15.604c-12.5,0-18-6.109-18-15.604
				c0,10.314-8.75,17.087-21.25,17.087C11.796,122.5,2.5,115.749,2.5,105.436z"/>
			<path d="M0.001,105.373l0.023-0.777l0.075-0.967c0.07-0.604,0.164-1.206,0.294-1.805c0.263-1.196,0.666-2.367,1.195-3.471
				c1.056-2.216,2.601-4.12,4.33-5.673c3.493-3.109,7.573-5.002,11.64-6.455c4.09-1.44,8.259-2.395,12.43-3.138
				c4.175-0.736,8.363-1.23,12.551-1.581c4.188-0.351,8.376-0.55,12.56-0.649c4.19-0.085,8.348-0.113,12.557-0.03
				c8.383,0.191,16.783,0.848,25.114,2.355c4.162,0.768,8.312,1.732,12.391,3.097c4.067,1.378,8.11,3.096,11.804,5.729
				c1.835,1.32,3.582,2.891,5.012,4.835c1.428,1.929,2.503,4.277,2.866,6.761c0.196,1.22,0.199,2.539,0.122,3.614
				c-0.086,1.291-0.285,2.419-0.622,3.608c-0.659,2.338-1.834,4.548-3.392,6.393c-3.139,3.725-7.54,5.895-11.935,6.943
				c-2.213,0.531-4.465,0.796-6.703,0.822c-0.293,0-0.531,0.01-0.868,0l-0.777-0.021c-0.515-0.015-1.134-0.057-1.686-0.095
				c-1.11-0.095-2.222-0.233-3.329-0.437c-2.214-0.409-4.415-1.07-6.511-2.058c-2.084-1.009-4.058-2.357-5.703-4.079
				c-1.642-1.718-2.942-3.792-3.729-6.023c-0.804-2.229-1.1-4.576-1.065-6.854l0-0.001c-0.069-1.101,0.768-2.05,1.869-2.119
				c1.101-0.069,2.05,0.768,2.119,1.869l0.001,0.024l0.01,0.226c0.112,2.469-0.241,5.046-1.201,7.485
				c-0.977,2.426-2.615,4.651-4.677,6.303c-2.052,1.678-4.48,2.737-6.904,3.398c-1.218,0.328-2.447,0.561-3.672,0.701
				c-1.24,0.143-2.418,0.21-3.695,0.215c-1.071-0.01-2.42-0.081-3.599-0.212c-1.217-0.131-2.441-0.349-3.66-0.656
				c-2.424-0.618-4.893-1.635-6.971-3.341c-2.096-1.67-3.692-3.992-4.579-6.445c-0.876-2.469-1.149-5.012-1.041-7.447l0-0.001h4
				c0.071,2.802-0.492,5.708-1.775,8.313c-1.282,2.605-3.253,4.846-5.55,6.533c-2.299,1.698-4.91,2.855-7.572,3.599
				c-2.669,0.74-5.403,1.09-8.114,1.135c-1.317,0.016-2.75-0.059-4.111-0.225c-1.369-0.166-2.734-0.427-4.078-0.793
				c-2.686-0.732-5.306-1.89-7.648-3.558c-2.329-1.674-4.362-3.887-5.741-6.504C0.664,111.307-0.02,108.33,0,105.436L0.001,105.373z
				 M5,105.436c0.003,2.161,0.512,4.256,1.513,6.108c0.995,1.856,2.472,3.464,4.251,4.731c1.771,1.281,3.839,2.226,6.024,2.836
				c1.093,0.305,2.218,0.528,3.357,0.674c1.148,0.146,2.244,0.211,3.455,0.214c2.344,0.015,4.671-0.238,6.891-0.799
				c2.219-0.56,4.312-1.471,6.138-2.708c1.82-1.244,3.33-2.865,4.358-4.763c1.048-1.889,1.602-4.063,1.657-6.315l0.001-0.049
				c0.027-1.104,0.944-1.977,2.048-1.95c1.087,0.027,1.95,0.918,1.951,1.999l0,0.001c0.113,2.068,0.449,4.078,1.222,5.819
				c0.737,1.752,1.855,3.236,3.34,4.325c1.48,1.087,3.26,1.869,5.207,2.325c0.972,0.23,1.976,0.399,3.003,0.495
				c1.065,0.096,1.971,0.141,3.157,0.14c0.979,0.003,2.057-0.036,3.06-0.141c1.017-0.102,2.013-0.279,2.977-0.525
				c1.932-0.484,3.706-1.306,5.219-2.408c1.509-1.112,2.692-2.589,3.485-4.312c0.831-1.712,1.216-3.683,1.33-5.718h4l0,0.001
				c0.062,1.862,0.389,3.684,1.075,5.333c0.685,1.647,1.672,3.135,2.94,4.373c2.548,2.479,6.093,3.93,9.826,4.528
				c0.936,0.151,1.887,0.248,2.844,0.31c0.482,0.021,0.899,0.045,1.42,0.05l0.778,0.004l0.687-0.016
				c1.906-0.05,3.8-0.277,5.616-0.729c3.635-0.873,6.982-2.686,9.239-5.328c1.126-1.319,1.946-2.848,2.426-4.497
				c0.242-0.802,0.399-1.729,0.456-2.507c0.072-0.992,0.066-1.759-0.055-2.59c-0.431-3.27-2.755-6.173-5.803-8.377
				c-3.051-2.226-6.706-3.856-10.469-5.161c-3.779-1.3-7.718-2.269-11.707-3.023c-7.991-1.494-16.178-2.189-24.372-2.423
				c-4.084-0.12-8.223-0.097-12.324,0.028c-4.108,0.121-8.208,0.341-12.284,0.706c-4.075,0.365-8.13,0.869-12.121,1.597
				c-3.987,0.727-7.92,1.686-11.647,3.033c-3.707,1.348-7.265,3.111-9.962,5.574c-1.341,1.227-2.431,2.627-3.148,4.168
				c-0.36,0.77-0.629,1.574-0.804,2.405c-0.086,0.416-0.148,0.839-0.194,1.266l-0.043,0.584L5,105.498L5,105.436z"/>
		</g>
		
			<ellipse style="fill:#FFFFFF;stroke:#000000;stroke-width:5;stroke-miterlimit:10;" cx="62.625" cy="50.103" rx="60" ry="47.603"/>
		
			<line style="fill:none;stroke:#000000;stroke-width:4.5;stroke-linecap:round;stroke-linejoin:round;stroke-miterlimit:10;" x1="62.625" y1="15.723" x2="62.625" y2="2.5"/>
		<g>
			<path style="fill:#FFFFFF;" d="M36.019,22.021c7.718-3.902,16.841-6.299,26.616-6.299c9.893,0,19.118,2.31,26.894,6.299"/>
			<path d="M35.252,20.449c0,0,0.191-0.104,0.548-0.298c0.361-0.192,0.864-0.485,1.594-0.831c1.432-0.698,3.442-1.656,5.992-2.539
				c1.27-0.442,2.659-0.892,4.149-1.292c1.488-0.409,3.074-0.79,4.736-1.069c1.658-0.304,3.387-0.521,5.149-0.689
				c1.775-0.169,3.534-0.237,5.388-0.254c1.688,0.02,3.587,0.108,5.322,0.265c1.759,0.175,3.488,0.381,5.145,0.684
				c1.661,0.28,3.248,0.653,4.737,1.059c1.493,0.391,2.881,0.846,4.155,1.282c1.274,0.438,2.416,0.908,3.42,1.342
				c0.999,0.446,1.865,0.843,2.565,1.199c0.708,0.337,1.242,0.65,1.612,0.847c0.368,0.202,0.565,0.309,0.565,0.309
				c0.848,0.464,1.159,1.528,0.695,2.376c-0.444,0.811-1.436,1.131-2.264,0.752l-0.029-0.014c0,0-0.763-0.352-2.118-0.913
				c-1.348-0.577-3.313-1.307-5.712-2.041c-1.202-0.359-2.509-0.732-3.913-1.041c-1.399-0.327-2.891-0.596-4.436-0.853
				c-1.545-0.263-3.157-0.432-4.796-0.574c-1.667-0.125-3.234-0.182-5.013-0.183c-1.613,0.003-3.323,0.037-4.948,0.175
				c-1.637,0.135-3.247,0.313-4.79,0.577c-3.092,0.494-5.945,1.174-8.346,1.914c-2.394,0.737-4.383,1.471-5.71,2.032
				c-0.659,0.266-1.219,0.511-1.59,0.674c-0.373,0.162-0.572,0.249-0.572,0.249c-0.887,0.386-1.919-0.021-2.305-0.908
				C34.117,21.849,34.466,20.878,35.252,20.449z"/>
		</g>
		<g>
			<path d="M64.7,68.499c-0.286,3.422-3.333,6.051-6.806,5.871s-6.055-3.1-5.769-6.522c0.286-3.422,3.333-6.051,6.806-5.871
				C62.404,62.157,64.986,65.077,64.7,68.499z"/>
			<g>
				<path d="M85.305,70.109c-0.827,0.916-1.645,1.721-2.507,2.521c-0.854,0.799-1.734,1.565-2.647,2.296
					c-0.9,0.744-1.845,1.439-2.808,2.111c-0.958,0.678-1.963,1.298-2.981,1.9c-0.507,0.304-1.047,0.562-1.569,0.844
					c-0.519,0.288-1.061,0.54-1.615,0.773c-1.079,0.515-2.23,0.901-3.377,1.289c-0.577,0.186-1.184,0.305-1.775,0.457l-0.893,0.211
					l-0.92,0.124c-0.616,0.066-1.221,0.195-1.846,0.203l-1.875,0.017l-0.234,0.001l-0.117,0l-0.165-0.012l-0.026-0.003l-0.052-0.007
					l-0.416-0.051L58.65,82.68l-0.832-0.103c-0.289-0.046-0.628-0.141-0.94-0.211c-0.628-0.16-1.288-0.298-1.884-0.493l-1.724-0.643
					c-0.582-0.201-1.102-0.512-1.654-0.766c-0.552-0.257-1.087-0.538-1.592-0.861c-1.051-0.592-2.022-1.282-2.988-1.977
					c-0.931-0.731-1.865-1.461-2.721-2.266c-0.443-0.388-0.87-0.791-1.278-1.21c-0.415-0.413-0.835-0.822-1.225-1.257
					c-0.8-0.853-1.565-1.733-2.294-2.646c-0.742-0.921-1.414-1.817-2.112-2.874c-0.493-0.747-0.401-1.71,0.165-2.35l0.005-0.005
					c0.833-0.94,1.623-1.732,2.478-2.542c0.842-0.803,1.71-1.575,2.612-2.312c0.889-0.75,1.823-1.452,2.775-2.13
					c0.948-0.685,1.942-1.312,2.951-1.922c0.502-0.308,1.037-0.571,1.555-0.857c0.514-0.292,1.052-0.548,1.602-0.787
					c1.071-0.524,2.214-0.92,3.355-1.318c0.574-0.191,1.177-0.315,1.766-0.473l0.89-0.219l0.917-0.133
					c0.614-0.072,1.218-0.206,1.842-0.22l1.874-0.034l0.234-0.003l0.117-0.001l0.243,0.021l0.416,0.047l0.833,0.094l0.833,0.094
					c0.29,0.042,0.63,0.135,0.943,0.203c0.631,0.154,1.294,0.288,1.894,0.478l1.734,0.628c0.586,0.197,1.11,0.503,1.667,0.752
					c0.556,0.253,1.096,0.53,1.606,0.848c1.061,0.584,2.042,1.267,3.019,1.955c0.942,0.724,1.887,1.449,2.755,2.248
					c0.449,0.386,0.881,0.786,1.296,1.203c0.421,0.411,0.848,0.817,1.243,1.25c0.812,0.849,1.59,1.725,2.331,2.636
					c0.756,0.92,1.438,1.808,2.158,2.877c0.573,0.851,0.468,1.959-0.19,2.687L85.305,70.109z M80.679,68.413
					c-0.268-0.358-0.518-0.737-0.794-1.078c-0.66-0.829-1.358-1.632-2.083-2.405c-0.353-0.397-0.733-0.765-1.107-1.138
					c-0.369-0.381-0.753-0.742-1.149-1.089c-0.768-0.725-1.594-1.366-2.414-2.014c-0.845-0.605-1.691-1.211-2.586-1.712
					c-0.434-0.281-0.886-0.518-1.347-0.73c-0.461-0.208-0.903-0.484-1.378-0.642l-1.411-0.53c-0.462-0.151-0.9-0.232-1.349-0.361
					c-0.232-0.055-0.427-0.131-0.689-0.174l-0.832-0.102l-0.832-0.103l-0.416-0.051l-0.052-0.006l-0.026-0.003
					c-0.126-0.011,0.157,0.013,0.124,0.01l-0.012,0l-0.092,0.001l-0.185,0.003l-1.477,0.011c-0.493,0-0.988,0.116-1.483,0.165
					l-0.743,0.094l-0.738,0.178c-0.491,0.129-0.988,0.218-1.475,0.375c-0.971,0.333-1.947,0.651-2.89,1.104
					c-0.479,0.2-0.952,0.417-1.412,0.675c-0.461,0.251-0.936,0.473-1.388,0.745c-0.909,0.538-1.811,1.092-2.681,1.708
					c-0.872,0.608-1.735,1.24-2.56,1.923c-0.836,0.668-1.647,1.373-2.428,2.104c-0.777,0.716-1.57,1.505-2.226,2.23l0.17-2.354
					c0.542,0.801,1.215,1.693,1.886,2.502c0.673,0.827,1.384,1.626,2.121,2.395c0.359,0.395,0.745,0.76,1.126,1.131
					c0.375,0.378,0.764,0.738,1.166,1.081c0.78,0.719,1.617,1.355,2.448,1.997c0.856,0.599,1.712,1.197,2.617,1.69
					c0.439,0.278,0.896,0.51,1.361,0.717c0.466,0.204,0.911,0.475,1.391,0.628l1.421,0.515c0.466,0.146,0.907,0.221,1.359,0.345
					c0.233,0.052,0.43,0.125,0.692,0.166l0.833,0.094l0.833,0.094l0.416,0.047l0.052,0.006l0.026,0.003
					c0.126,0.011-0.157-0.013-0.124-0.01l0.012,0l0.092-0.002l0.185-0.005l1.476-0.029c0.492-0.005,0.986-0.128,1.479-0.182
					l0.74-0.103l0.734-0.186c0.488-0.135,0.982-0.229,1.466-0.392c0.964-0.343,1.933-0.67,2.867-1.132
					c0.475-0.204,0.944-0.426,1.399-0.688c0.457-0.255,0.926-0.481,1.374-0.758c0.899-0.546,1.791-1.107,2.651-1.73
					c0.862-0.615,1.714-1.254,2.528-1.943c0.824-0.674,1.624-1.385,2.393-2.12C80.063,69.071,80.363,68.731,80.679,68.413z"/>
			</g>
			<g>
				<path d="M1.445,48.258c0,0,0.28-0.277,0.806-0.797c0.276-0.26,0.558-0.579,0.997-0.958c0.432-0.377,0.928-0.811,1.484-1.297
					c0.569-0.442,1.199-0.932,1.884-1.465c0.713-0.491,1.475-1.038,2.317-1.576c1.693-1.059,3.653-2.177,5.885-3.187
					c2.234-0.996,4.703-1.98,7.395-2.746c2.687-0.775,5.57-1.412,8.586-1.85c3.027-0.41,6.146-0.619,9.377-0.615
					c1.512,0.008,3.209,0.076,4.82,0.224c1.617,0.14,3.238,0.338,4.845,0.626c6.436,1.093,12.698,3.334,18.016,6.489
					c5.339,3.116,9.7,7.156,12.604,11.297c1.462,2.062,2.57,4.133,3.366,6.055c0.811,1.918,1.27,3.7,1.562,5.177
					c0.142,0.741,0.256,1.406,0.305,1.992c0.068,0.584,0.123,1.08,0.127,1.487c0.032,0.811,0.049,1.243,0.049,1.243
					c0.049,1.241-0.917,2.287-2.158,2.336s-2.287-0.917-2.336-2.158l-0.001-0.022l-0.005-0.156c0,0-0.011-0.355-0.031-1.022
					c0.003-0.334-0.041-0.743-0.091-1.225c-0.032-0.484-0.123-1.034-0.233-1.649c-0.229-1.227-0.588-2.717-1.258-4.349
					c-0.655-1.634-1.581-3.421-2.834-5.234c-2.484-3.636-6.335-7.323-11.184-10.227c-4.823-2.94-10.599-5.094-16.586-6.181
					c-1.494-0.287-3.005-0.489-4.515-0.637c-1.515-0.154-2.947-0.234-4.538-0.262c-2.977-0.036-5.967,0.131-8.805,0.485
					c-2.842,0.383-5.556,0.953-8.083,1.653c-2.533,0.69-4.846,1.588-6.938,2.493c-2.089,0.919-3.914,1.938-5.489,2.898
					c-0.782,0.489-1.487,0.985-2.149,1.428c-0.632,0.481-1.213,0.923-1.738,1.322c-0.488,0.416-0.924,0.788-1.303,1.111
					c-0.38,0.314-0.711,0.674-0.975,0.918c-0.531,0.514-0.814,0.788-0.814,0.788c-0.669,0.649-1.737,0.632-2.386-0.037
					C0.775,49.968,0.789,48.908,1.445,48.258z"/>
			</g>
		</g>
	</g>
</g>
<g id="Layer_1">
</g>
</svg>
