<?xml version="1.0" encoding="iso-8859-1"?>
<!-- Generator: Adobe Illustrator 19.2.0, SVG Export Plug-In . SVG Version: 6.00 Build 0)  -->
<!DOCTYPE svg PUBLIC "-//W3C//DTD SVG 1.1//EN" "http://www.w3.org/Graphics/SVG/1.1/DTD/svg11.dtd">
<svg version="1.1" xmlns="http://www.w3.org/2000/svg" xmlns:xlink="http://www.w3.org/1999/xlink" x="0px" y="0px"
	 viewBox="0 0 125.052 125.056" style="enable-background:new 0 0 125.052 125.056;" xml:space="preserve">
<g id="ma">
	<g id="ma_1_">
		<g>
			<path style="fill:#FFFFFF;" d="M122.536,99.019c0,12.999-9.402,23.538-21,23.538c-13,0-21-12.539-21-25.539
				c0,11.968-6.5,23.671-18,23.671c-12.5,0-18-11.703-18-23.671c0,12.999-8.75,25.539-21.25,25.539
				c-11.598,0-20.769-11.519-20.769-24.519l0.019-35.481c0-33.137,26.863-60,60-60s60,26.863,60,60L122.536,99.019z"/>
			<path d="M125.033,99.132l-0.096,2.241c-0.071,0.803-0.204,1.684-0.314,2.521c-0.132,0.836-0.346,1.611-0.52,2.419
				c-0.188,0.799-0.485,1.57-0.727,2.354c-0.254,0.782-0.624,1.523-0.935,2.285c-0.324,0.757-0.761,1.463-1.141,2.195
				c-0.398,0.723-0.896,1.39-1.344,2.085c-0.475,0.678-1.025,1.304-1.542,1.953c-0.553,0.62-1.158,1.197-1.738,1.792
				c-0.629,0.548-1.274,1.082-1.922,1.608c-0.697,0.467-1.375,0.962-2.095,1.394c-0.747,0.387-1.464,0.833-2.243,1.158
				c-1.545,0.675-3.16,1.216-4.826,1.516c-0.835,0.138-1.667,0.312-2.516,0.324l-1.267,0.067l-0.158,0.008l-0.079,0.004l-0.02,0.001
				l-0.172-0.004l-0.035-0.003l-0.28-0.02l-0.559-0.04c-0.762-0.067-1.429-0.058-2.373-0.266c-0.87-0.177-1.796-0.299-2.571-0.599
				c-0.801-0.278-1.628-0.488-2.379-0.886c-0.761-0.369-1.55-0.689-2.245-1.169c-0.712-0.45-1.445-0.871-2.078-1.421
				c-0.656-0.52-1.322-1.028-1.889-1.635c-0.594-0.581-1.191-1.159-1.691-1.813c-0.528-0.633-1.057-1.264-1.491-1.957
				c-0.461-0.676-0.926-1.349-1.295-2.073c-0.392-0.711-0.8-1.415-1.104-2.164c-0.685-1.464-1.228-2.984-1.659-4.526
				c-0.432-1.545-0.721-3.119-0.932-4.698c-0.071-0.794-0.168-1.585-0.213-2.379l-0.046-2.385l-0.001-0.062
				c-0.021-1.106,0.857-2.019,1.963-2.041s2.019,0.857,2.041,1.963c0.001,0.045,0,0.095-0.002,0.14l0,0.007l0.001,2.204
				c-0.032,0.734-0.104,1.468-0.156,2.203c-0.162,1.466-0.391,2.929-0.739,4.375c-0.357,1.442-0.81,2.87-1.389,4.26
				c-0.567,1.392-1.254,2.752-2.076,4.047c-0.806,1.303-1.772,2.53-2.876,3.646c-0.521,0.583-1.174,1.055-1.762,1.581
				c-0.611,0.504-1.309,0.912-1.966,1.363c-0.694,0.399-1.43,0.737-2.148,1.098c-0.759,0.267-1.519,0.549-2.291,0.778
				c-0.787,0.157-1.575,0.347-2.367,0.456l-1.194,0.086l-0.598,0.039l-0.299,0.019l-0.075,0.004l-0.037,0.002l-0.019,0.001
				l-0.169-0.004l-0.129-0.008l-2.071-0.134c-0.809-0.124-1.657-0.288-2.477-0.451c-0.785-0.218-1.532-0.489-2.296-0.742
				c-0.735-0.325-1.456-0.69-2.176-1.048c-0.67-0.443-1.358-0.867-2-1.344c-0.598-0.526-1.24-1.016-1.788-1.585
				c-1.11-1.132-2.077-2.378-2.872-3.702c-1.602-2.645-2.634-5.511-3.275-8.404c-0.311-1.451-0.508-2.912-0.644-4.371
				c-0.042-0.731-0.103-1.461-0.126-2.19l0.012-2.186l0.001-0.156c0.006-1.106,0.908-1.998,2.014-1.992
				c1.106,0.006,1.998,0.907,1.992,2.013c0,0.043-0.002,0.092-0.005,0.135l-0.001,0.013c0.174,7.404-2.316,14.927-7.387,20.666
				c-2.533,2.854-5.882,5.107-9.628,6.328c-1.862,0.652-3.842,0.917-5.803,1.005l-0.369,0.023c0.108,0.006-0.25-0.002-0.243-0.002
				l-0.081-0.005l-0.162-0.01l-0.649-0.04c-0.439-0.031-0.851-0.043-1.312-0.089l-1.558-0.273c-0.525-0.09-1.04-0.194-1.495-0.357
				c-3.798-1.104-7.234-3.242-9.879-6.025c-2.667-2.773-4.684-6.078-6.028-9.616c-1.363-3.519-1.972-7.372-1.941-11.07l0.001-10.399
				l0.002-20.798l0-2.6l0.003-1.363l0.032-1.299c0.012-1.681,0.168-3.596,0.342-5.397c0.366-3.595,1.105-7.149,2.105-10.619
				c2.019-6.937,5.22-13.542,9.504-19.364c4.264-5.833,9.526-10.933,15.504-14.998c5.991-4.044,12.682-7.049,19.691-8.833
				c3.504-0.896,7.092-1.442,10.694-1.709c0.9-0.079,1.802-0.133,2.705-0.14l1.354-0.033l0.339-0.008L62.446,0l0.231,0.001
				l0.65,0.017c0.873,0.028,1.718,0.032,2.613,0.079l2.757,0.209c7.198,0.732,14.265,2.676,20.789,5.797
				c6.514,3.135,12.476,7.395,17.556,12.532c5.086,5.133,9.235,11.179,12.272,17.732c3.057,6.551,4.89,13.658,5.499,20.851
				c0.172,1.797,0.204,3.606,0.24,5.405l-0.002,5.199l-0.005,10.399l-0.009,20.798L125.033,99.132z M120.036,99.019l-0.009-20.798
				l-0.005-10.399l-0.002-5.199c-0.037-1.667-0.066-3.325-0.226-4.98c-0.567-6.615-2.254-13.14-5.07-19.155
				c-2.797-6.017-6.612-11.574-11.294-16.288c-4.675-4.717-10.158-8.626-16.141-11.501c-5.99-2.86-12.487-4.637-19.081-5.304
				L65.78,5.209c-0.835-0.045-1.724-0.049-2.583-0.076l-0.65-0.016L61.986,5.13l-1.245,0.032c-0.831,0.006-1.659,0.057-2.486,0.131
				c-3.308,0.249-6.601,0.75-9.815,1.577c-6.428,1.64-12.57,4.384-18.077,8.094c-5.493,3.729-10.333,8.412-14.256,13.767
				c-3.942,5.345-6.884,11.409-8.744,17.775c-0.921,3.186-1.606,6.448-1.943,9.752c-0.155,1.648-0.301,3.189-0.319,4.976l-0.033,1.3
				l-0.003,1.237l-0.003,2.6l-0.02,20.798l-0.01,10.399c-0.025,3.232,0.476,6.342,1.611,9.3c1.113,2.939,2.785,5.662,4.923,7.89
				c2.124,2.247,4.799,3.864,7.648,4.704c0.362,0.136,0.699,0.195,1.029,0.25l0.998,0.204c0.4,0.042,0.856,0.058,1.281,0.088
				l0.649,0.04l0.162,0.01l0.081,0.005c0.062,0.004-0.243-0.01-0.081-0.006l0.28-0.018c1.493-0.058,2.992-0.224,4.409-0.712
				c2.849-0.894,5.496-2.582,7.591-4.888c2.137-2.263,3.817-5.024,4.971-8.003c1.175-2.976,1.827-6.177,1.95-9.404l0-0.011h4.001
				l0.132,1.962c0.059,0.651,0.149,1.298,0.22,1.945c0.192,1.287,0.434,2.561,0.771,3.801c0.644,2.482,1.603,4.857,2.942,6.904
				c0.666,1.026,1.44,1.946,2.266,2.791c0.412,0.424,0.891,0.76,1.326,1.152c0.472,0.338,0.974,0.629,1.452,0.956l1.571,0.733
				c0.555,0.163,1.112,0.363,1.657,0.515c0.54,0.085,1.05,0.194,1.604,0.297l2.072,0.112l1.622-0.093
				c0.576-0.075,1.137-0.215,1.709-0.308c0.552-0.165,1.093-0.364,1.644-0.536c0.513-0.267,1.045-0.495,1.553-0.775
				c0.477-0.337,0.994-0.611,1.451-0.985c0.438-0.4,0.935-0.722,1.336-1.174c0.842-0.849,1.628-1.782,2.315-2.806
				c0.696-1.017,1.301-2.118,1.815-3.269c0.526-1.147,0.948-2.353,1.303-3.581c0.369-1.228,0.636-2.49,0.849-3.764
				c0.079-0.641,0.178-1.282,0.244-1.927l0.142-1.944l0-0.006h4l0.125,2.097c0.068,0.696,0.184,1.387,0.271,2.079
				c0.242,1.375,0.547,2.737,0.975,4.057c0.417,1.321,0.904,2.62,1.519,3.848c0.27,0.635,0.633,1.215,0.975,1.806
				c0.321,0.607,0.725,1.152,1.119,1.703c0.37,0.572,0.819,1.073,1.261,1.578c0.417,0.531,0.913,0.977,1.397,1.432
				c0.462,0.484,1.003,0.862,1.527,1.261c0.504,0.431,1.087,0.73,1.645,1.07c0.543,0.371,1.161,0.584,1.748,0.859
				c0.577,0.304,1.22,0.429,1.833,0.634c0.629,0.237,1.205,0.258,1.796,0.388c0.517,0.148,1.354,0.143,2.082,0.188l0.56,0.028
				l0.28,0.014l0.035,0.002c0.039,0.002-0.279-0.009-0.137-0.005l0.015-0.001l0.061-0.004l0.121-0.008l0.972-0.06
				c0.652,0,1.286-0.152,1.925-0.255c1.275-0.232,2.511-0.657,3.703-1.179c0.602-0.249,1.153-0.612,1.736-0.904
				c0.559-0.339,1.086-0.737,1.634-1.096l1.511-1.276c0.454-0.482,0.936-0.937,1.376-1.433c0.405-0.527,0.858-1.017,1.24-1.563
				c0.357-0.563,0.769-1.092,1.091-1.678c0.304-0.596,0.671-1.16,0.934-1.778c0.25-0.623,0.564-1.22,0.771-1.861
				c0.195-0.644,0.45-1.269,0.604-1.926c0.138-0.654,0.33-1.322,0.432-1.962c0.079-0.646,0.19-1.242,0.261-1.926l0.106-2.24
				L120.036,99.019z"/>
		</g>
		<g>
			<path style="fill:#FFFFFF;" d="M105.332,91.879c-11.95,3.358-26.749,5.345-42.773,5.345c-16.053,0-30.877-1.975-42.839-5.345"/>
			<path d="M105.723,93.327c0,0-0.321,0.106-0.924,0.305c-0.602,0.196-1.478,0.504-2.65,0.831c-1.164,0.346-2.563,0.725-4.185,1.141
				c-1.62,0.414-3.455,0.858-5.474,1.251c-2.015,0.42-4.21,0.802-6.54,1.156c-2.331,0.338-4.794,0.683-7.353,0.914
				c-2.557,0.25-5.204,0.471-7.899,0.587c-2.702,0.136-5.414,0.183-8.191,0.209c-2.677-0.026-5.469-0.076-8.153-0.211
				c-2.694-0.118-5.341-0.338-7.898-0.587c-2.559-0.231-5.022-0.575-7.353-0.913c-2.33-0.354-4.526-0.735-6.541-1.155
				c-2.019-0.393-3.855-0.837-5.475-1.25c-1.62-0.416-3.027-0.796-4.178-1.14c-1.156-0.323-2.048-0.635-2.66-0.835
				c-0.611-0.202-0.936-0.309-0.936-0.309c-0.787-0.26-1.215-1.109-0.955-1.896c0.242-0.732,0.992-1.153,1.729-1l0.039,0.008
				c0,0,1.308,0.27,3.596,0.743c2.285,0.478,5.578,1.032,9.539,1.594c3.963,0.551,8.605,1.066,13.597,1.412
				c2.494,0.193,5.078,0.293,7.703,0.403c2.635,0.109,5.252,0.133,7.983,0.137c2.631-0.004,5.329-0.025,7.945-0.136
				c2.624-0.109,5.208-0.211,7.702-0.404c4.991-0.347,9.633-0.863,13.597-1.415c3.958-0.562,7.261-1.117,9.533-1.591
				c2.303-0.475,3.62-0.747,3.62-0.747l0.007-0.001c0.813-0.168,1.607,0.355,1.775,1.167
				C106.879,92.352,106.438,93.092,105.723,93.327z"/>
		</g>
		<g>
			<ellipse transform="matrix(0.0684 -0.9977 0.9977 0.0684 -6.1611 114.4186)" cx="58.188" cy="60.508" rx="6.594" ry="6.301"/>
			<g>
				<path d="M85.111,62.76c-0.813,0.958-1.622,1.803-2.476,2.644c-0.846,0.839-1.721,1.645-2.631,2.415
					c-0.447,0.393-0.907,0.773-1.382,1.137c-0.47,0.368-0.931,0.747-1.427,1.087c-0.96,0.716-1.976,1.367-3.001,2.005
					c-1.058,0.593-2.098,1.217-3.233,1.698c-1.094,0.547-2.283,0.928-3.449,1.344c-1.219,0.297-2.417,0.662-3.694,0.768
					c-1.249,0.226-2.546,0.142-3.824,0.145l-1.834-0.258c-0.526-0.043-1.217-0.254-1.856-0.424
					c-1.347-0.313-2.436-0.842-3.604-1.313c-1.09-0.581-2.206-1.129-3.206-1.827c-1.048-0.639-1.983-1.406-2.939-2.145
					c-0.918-0.778-1.823-1.567-2.665-2.413c-0.439-0.407-0.838-0.848-1.248-1.28c-0.414-0.428-0.812-0.869-1.195-1.321
					c-0.784-0.891-1.529-1.812-2.239-2.762c-0.723-0.958-1.382-1.887-2.059-2.973c-0.454-0.728-0.364-1.642,0.156-2.268
					c0.819-0.983,1.599-1.813,2.446-2.664c0.833-0.844,1.697-1.655,2.595-2.43c0.441-0.396,0.896-0.779,1.365-1.146
					c0.465-0.372,0.92-0.753,1.411-1.097c0.949-0.723,1.954-1.381,2.97-2.026c1.048-0.601,2.079-1.233,3.204-1.723
					c1.085-0.555,2.266-0.946,3.425-1.373c1.212-0.307,2.405-0.683,3.678-0.8c0.629-0.079,1.252-0.199,1.897-0.173l0.961-0.006
					l0.481-0.001h0.24h0.12l0.06,0h0.03h0.015c0.069,0.007-0.134-0.015,0.159,0.015c1.149,0.175,2.178,0.214,3.554,0.633
					c1.354,0.303,2.45,0.822,3.625,1.283c1.098,0.572,2.224,1.112,3.233,1.802c1.058,0.632,2.003,1.392,2.97,2.124
					c0.928,0.772,1.846,1.556,2.699,2.396c0.445,0.405,0.85,0.843,1.265,1.272c0.42,0.426,0.824,0.865,1.213,1.315
					c0.797,0.887,1.553,1.805,2.277,2.752c0.737,0.957,1.406,1.879,2.103,2.975c0.527,0.829,0.427,1.879-0.176,2.591L85.111,62.76z
					 M80.51,61.125c-0.29-0.414-0.564-0.85-0.865-1.247c-0.649-0.868-1.333-1.716-2.049-2.529c-0.35-0.415-0.713-0.817-1.089-1.205
					c-0.372-0.392-0.735-0.795-1.13-1.16c-0.761-0.766-1.569-1.468-2.383-2.161c-0.841-0.645-1.665-1.33-2.561-1.871
					c-0.865-0.611-1.797-1.055-2.708-1.552c-0.94-0.372-1.912-0.837-2.789-1.029c-0.792-0.314-2.052-0.42-3.151-0.593
					c0.284,0.03,0.072,0.008,0.132,0.015h-0.012l-0.023,0h-0.047l-0.093,0l-0.186,0l-0.373,0l-0.746-0.004
					c-0.497-0.038-0.998,0.066-1.498,0.123c-1.005,0.069-1.994,0.385-2.992,0.615c-0.977,0.358-1.97,0.661-2.918,1.14
					c-0.97,0.405-1.89,0.962-2.821,1.479c-0.911,0.568-1.817,1.146-2.687,1.794c-0.447,0.304-0.866,0.651-1.294,0.985
					c-0.431,0.33-0.851,0.676-1.26,1.036c-0.832,0.702-1.637,1.443-2.411,2.211c-0.769,0.752-1.553,1.579-2.199,2.339l0.156-2.268
					c0.536,0.841,1.199,1.767,1.859,2.617c0.662,0.866,1.358,1.71,2.086,2.519c0.356,0.413,0.725,0.813,1.107,1.198
					c0.378,0.39,0.747,0.791,1.147,1.153c0.773,0.761,1.592,1.457,2.417,2.145c0.852,0.639,1.687,1.317,2.593,1.85
					c0.874,0.603,1.816,1.039,2.735,1.527c0.948,0.363,1.926,0.818,2.81,1c0.462,0.118,0.852,0.283,1.467,0.333l1.548,0.211
					c0.995-0.035,1.986,0.05,2.985-0.154c1.001-0.08,1.985-0.407,2.976-0.647c0.97-0.369,1.955-0.681,2.894-1.168
					c0.961-0.413,1.871-0.979,2.793-1.503c0.901-0.576,1.797-1.16,2.655-1.816c0.441-0.307,0.855-0.657,1.278-0.995
					c0.426-0.333,0.84-0.682,1.243-1.045c0.82-0.708,1.614-1.454,2.375-2.225C79.838,61.887,80.167,61.495,80.51,61.125z"/>
			</g>
			<g>
				<path d="M14.473,24.606c0,0,0.313-0.178,0.901-0.511c0.568-0.32,1.541-0.852,2.704-1.401c2.35-1.139,5.837-2.549,10.207-3.565
					c2.184-0.505,4.585-0.904,7.145-1.125c1.279-0.118,2.598-0.171,3.947-0.195c0.667,0.011,1.342,0.022,2.023,0.033
					c0.648,0,1.398,0.081,2.102,0.12c2.835,0.224,5.697,0.7,8.563,1.465c2.859,0.763,5.693,1.811,8.401,3.124
					c5.425,2.615,10.312,6.313,14.13,10.493c3.835,4.173,6.599,8.793,8.315,13.015c0.846,2.117,1.488,4.116,1.912,5.927
					c0.227,0.901,0.369,1.761,0.532,2.549c0.113,0.798,0.217,1.53,0.311,2.192c0.128,1.332,0.213,2.379,0.216,3.097
					c0.023,0.717,0.035,1.099,0.035,1.099c0.04,1.242-0.934,2.281-2.176,2.321c-1.242,0.04-2.281-0.935-2.321-2.176l-0.001-0.02
					l-0.003-0.125c0,0-0.008-0.338-0.023-0.972c0.006-0.635-0.063-1.562-0.161-2.742c-0.077-0.587-0.162-1.238-0.255-1.946
					c-0.141-0.7-0.255-1.466-0.45-2.27c-0.359-1.615-0.915-3.403-1.651-5.308c-1.497-3.796-3.942-7.993-7.386-11.822
					c-3.428-3.834-7.854-7.262-12.793-9.706c-2.466-1.227-5.051-2.215-7.665-2.942c-2.608-0.728-5.271-1.196-7.82-1.425
					c-0.644-0.041-1.228-0.124-1.907-0.132c-0.646-0.018-1.285-0.036-1.918-0.053c-1.252,0.003-2.477,0.03-3.666,0.12
					c-2.379,0.166-4.615,0.498-6.65,0.933c-4.073,0.876-7.334,2.13-9.533,3.152c-1.125,0.511-1.901,0.918-2.515,1.249
					c-0.593,0.323-0.909,0.496-0.909,0.496c-0.818,0.447-1.843,0.146-2.29-0.673C13.383,26.073,13.674,25.06,14.473,24.606z"/>
			</g>
		</g>
	</g>
</g>
<g id="Layer_1">
</g>
</svg>
