<?xml version="1.0" encoding="iso-8859-1"?>
<!-- Generator: Adobe Illustrator 19.2.0, SVG Export Plug-In . SVG Version: 6.00 Build 0)  -->
<!DOCTYPE svg PUBLIC "-//W3C//DTD SVG 1.1//EN" "http://www.w3.org/Graphics/SVG/1.1/DTD/svg11.dtd">
<svg version="1.1" xmlns="http://www.w3.org/2000/svg" xmlns:xlink="http://www.w3.org/1999/xlink" x="0px" y="0px"
	 viewBox="0 0 125.012 125.915" style="enable-background:new 0 0 125.012 125.915;" xml:space="preserve">
<g id="un">
	<g id="un_1_">
		<g>
			<path style="fill:#FFFFFF;" d="M2.5,106.224c0-16.982,26.738-22.579,59.875-22.579s60.134,7.595,60.134,22.971
				c0,10.393-9.268,16.803-20.866,16.803c-13,0-21-6.825-21-17.217c0,9.568-6.5,15.724-18,15.724c-12.5,0-18-6.156-18-15.724
				c0,10.393-8.75,17.217-21.25,17.217C11.796,123.419,2.5,116.617,2.5,106.224z"/>
			<path d="M0.001,106.162l0.023-0.779l0.074-0.966c0.068-0.604,0.162-1.206,0.29-1.805c0.259-1.196,0.658-2.37,1.181-3.476
				c1.045-2.222,2.579-4.14,4.302-5.708c3.481-3.138,7.564-5.056,11.636-6.527c4.095-1.458,8.271-2.423,12.451-3.175
				c4.183-0.744,8.38-1.244,12.576-1.598c4.197-0.354,8.394-0.555,12.586-0.655c4.199-0.086,8.366-0.114,12.583-0.028
				c8.4,0.195,16.819,0.862,25.165,2.391c4.17,0.779,8.327,1.756,12.41,3.142c4.07,1.4,8.118,3.14,11.8,5.814
				c1.829,1.34,3.566,2.933,4.979,4.896c1.415,1.947,2.455,4.311,2.801,6.794c0.186,1.24,0.184,2.506,0.102,3.615
				c-0.094,1.28-0.289,2.416-0.629,3.603c-0.662,2.338-1.837,4.547-3.391,6.4c-3.134,3.737-7.539,5.927-11.945,6.98
				c-2.218,0.534-4.476,0.801-6.72,0.823l-0.421,0.003l-0.252,0.001l-0.195-0.005l-0.779-0.021
				c-0.524-0.018-1.141-0.057-1.694-0.099c-1.113-0.094-2.227-0.241-3.337-0.445c-2.218-0.419-4.424-1.088-6.519-2.094
				c-2.086-1.019-4.051-2.393-5.689-4.125c-1.632-1.734-2.917-3.818-3.694-6.054c-0.796-2.234-1.084-4.581-1.051-6.861l0-0.001
				c-0.069-1.102,0.768-2.05,1.87-2.119c1.101-0.069,2.05,0.768,2.119,1.87l0.001,0.025l0.01,0.224
				c0.111,2.474-0.236,5.054-1.187,7.502c-0.968,2.435-2.595,4.673-4.652,6.346c-2.049,1.696-4.483,2.772-6.916,3.443
				c-1.222,0.334-2.456,0.568-3.686,0.711c-1.245,0.145-2.427,0.213-3.709,0.218c-1.074-0.01-2.43-0.082-3.613-0.215
				c-1.222-0.132-2.451-0.354-3.674-0.666c-2.433-0.628-4.909-1.662-6.983-3.387c-2.094-1.689-3.672-4.029-4.552-6.488
				c-0.866-2.477-1.135-5.023-1.027-7.464l0-0.001h4c0.07,2.806-0.484,5.716-1.757,8.333c-1.272,2.616-3.233,4.876-5.527,6.582
				c-2.296,1.719-4.914,2.89-7.584,3.645c-2.677,0.751-5.422,1.106-8.143,1.151c-1.321,0.017-2.761-0.06-4.127-0.229
				c-1.374-0.169-2.743-0.434-4.092-0.805c-2.694-0.742-5.32-1.916-7.66-3.604c-2.328-1.692-4.351-3.925-5.719-6.553
				c-1.381-2.62-2.054-5.6-2.035-8.498L0.001,106.162z M5,106.224c0.003,2.174,0.508,4.283,1.505,6.15
				c0.991,1.87,2.463,3.494,4.241,4.774c1.769,1.296,3.838,2.252,6.027,2.87c1.095,0.309,2.222,0.535,3.364,0.683
				c1.151,0.148,2.249,0.214,3.464,0.217c2.35,0.015,4.684-0.241,6.907-0.811c2.223-0.568,4.319-1.488,6.141-2.741
				c1.818-1.259,3.323-2.895,4.347-4.809c1.044-1.904,1.593-4.091,1.648-6.355l0.001-0.049c0.027-1.104,0.944-1.977,2.048-1.95
				c1.087,0.027,1.95,0.918,1.951,1.999l0,0.001c0.114,2.077,0.446,4.099,1.216,5.855c0.735,1.764,1.846,3.268,3.33,4.368
				c1.478,1.1,3.258,1.893,5.208,2.355c0.973,0.233,1.979,0.405,3.01,0.501c1.069,0.098,1.975,0.143,3.165,0.142
				c0.981,0.003,2.063-0.037,3.068-0.144c1.02-0.104,2.018-0.282,2.983-0.532c1.936-0.491,3.71-1.323,5.221-2.439
				c1.505-1.128,2.686-2.617,3.475-4.355c0.828-1.726,1.208-3.709,1.323-5.754h4l0,0.001c0.075,3.755,1.453,7.271,3.988,9.767
				c2.538,2.5,6.076,3.979,9.813,4.588c0.938,0.15,1.888,0.255,2.847,0.316c0.484,0.025,0.904,0.046,1.419,0.053l0.779,0.005
				l0.195,0.001c-0.023-0.002,0.096-0.004,0.138-0.006l0.358-0.01c1.909-0.047,3.805-0.275,5.624-0.73
				c3.64-0.877,6.987-2.702,9.245-5.357c1.124-1.327,1.948-2.862,2.433-4.518c0.246-0.808,0.399-1.732,0.463-2.523
				c0.076-0.961,0.075-1.785-0.042-2.603c-0.402-3.296-2.702-6.223-5.731-8.456c-3.034-2.255-6.689-3.905-10.451-5.229
				c-3.78-1.317-7.723-2.299-11.718-3.064c-8.002-1.515-16.205-2.219-24.415-2.457c-4.092-0.122-8.239-0.099-12.349,0.026
				c-4.116,0.122-8.224,0.343-12.307,0.712c-4.083,0.369-8.145,0.878-12.142,1.613c-3.993,0.735-7.932,1.703-11.66,3.066
				c-3.708,1.362-7.264,3.146-9.95,5.63c-1.336,1.238-2.419,2.649-3.131,4.2c-0.357,0.775-0.624,1.584-0.798,2.42
				c-0.084,0.419-0.146,0.844-0.192,1.273l-0.043,0.588L5,106.286L5,106.224z"/>
		</g>
		<ellipse style="fill:#FFFFFF;stroke:#000000;stroke-width:5;stroke-miterlimit:10;" cx="62.5" cy="50.468" rx="60" ry="47.968"/>
		<g>
			<path d="M64.546,2.5L65,46.071c0.014,1.381-1.093,2.512-2.474,2.526c-1.381,0.014-2.512-1.093-2.526-2.474
				c0-0.013,0-0.039,0-0.052L60.455,2.5c0.012-1.13,0.937-2.036,2.067-2.024C63.636,0.487,64.533,1.391,64.546,2.5z"/>
		</g>
		<g>
			<path d="M85.875,5.698c0,0,0.035,2.18,0.097,5.996c0.044,3.815,0.108,9.266,0.184,15.807c0.026,3.27,0.054,6.813,0.083,10.561
				c0.015,1.874,0.03,3.799,0.045,5.766l0.006,0.74l0.003,0.371l0.001,0.186l-0.007,0.246l-0.005,0.093
				c-0.03,0.496-0.06,0.995-0.09,1.496c-0.068,0.568-0.202,1.237-0.317,1.853c-0.109,0.646-0.334,1.156-0.503,1.743
				c-1.582,4.53-5.041,8.297-9.185,10.621c-2.07,1.184-4.299,2.09-6.609,2.689c-2.317,0.572-4.696,0.857-7.078,0.894l-1.735-0.072
				c-0.512-0.002-1.169-0.097-1.779-0.168c-1.262-0.119-2.394-0.399-3.564-0.653c-2.311-0.599-4.539-1.506-6.609-2.689
				c-4.144-2.324-7.604-6.091-9.185-10.621c-0.41-1.125-0.636-2.298-0.808-3.464c-0.036-0.589-0.071-1.174-0.107-1.757
				c-0.014-0.545,0.003-1.005,0.003-1.507c0.015-1.967,0.031-3.892,0.045-5.766c0.029-3.747,0.057-7.29,0.083-10.561
				c0.076-6.541,0.139-11.991,0.184-15.807c0.062-3.816,0.097-5.996,0.097-5.996c0.018-1.104,0.928-1.986,2.032-1.968
				c1.082,0.017,1.949,0.894,1.968,1.968c0,0,0.035,2.18,0.097,5.996c0.044,3.815,0.108,9.266,0.184,15.807
				c0.026,3.27,0.054,6.813,0.083,10.561c0.015,1.874,0.03,3.799,0.045,5.766c0.008,0.481-0.001,1.011,0.02,1.459
				c0.027,0.409,0.055,0.821,0.082,1.234c0.137,0.816,0.287,1.64,0.588,2.438c1.136,3.196,3.704,6.103,7.049,7.944
				c1.659,0.935,3.471,1.667,5.37,2.151c0.952,0.196,1.94,0.436,2.851,0.51c0.472,0.052,0.893,0.135,1.473,0.138l1.533,0.06
				c1.981-0.025,3.95-0.252,5.857-0.708c1.898-0.483,3.71-1.216,5.37-2.151c3.345-1.841,5.913-4.748,7.049-7.944
				c0.109-0.395,0.308-0.824,0.354-1.183c0.062-0.381,0.158-0.698,0.222-1.122c0.033-0.501,0.066-0.999,0.099-1.495l0.007-0.093
				c-0.001,0.053,0.007-0.184-0.002,0.106l0-0.047l0.001-0.186l0.003-0.371l0.006-0.74c0.015-1.967,0.031-3.892,0.045-5.766
				c0.029-3.747,0.057-7.29,0.083-10.561c0.076-6.541,0.139-11.991,0.184-15.807c0.062-3.816,0.097-5.996,0.097-5.996
				c0.018-1.104,0.928-1.986,2.032-1.968C84.989,3.748,85.857,4.624,85.875,5.698z"/>
		</g>
	</g>
</g>
<g id="Layer_1">
</g>
</svg>
