<?xml version="1.0" encoding="iso-8859-1"?>
<!-- Generator: Adobe Illustrator 19.2.0, SVG Export Plug-In . SVG Version: 6.00 Build 0)  -->
<!DOCTYPE svg PUBLIC "-//W3C//DTD SVG 1.1//EN" "http://www.w3.org/Graphics/SVG/1.1/DTD/svg11.dtd">
<svg version="1.1" xmlns="http://www.w3.org/2000/svg" xmlns:xlink="http://www.w3.org/1999/xlink" x="0px" y="0px"
	 viewBox="0 0 140 140" style="enable-background:new 0 0 140 140;" xml:space="preserve">
<g id="esun">
	<g id="esun_3_">
		<path style="fill:#FFFFFF;stroke:#000000;stroke-width:5;stroke-miterlimit:10;" d="M130.413,69.919v30c0,16.569-13.431,30-30,30
			h-60c-16.569,0-30-13.431-30-30v-30c0-33.137,26.863-60,60-60S130.413,36.782,130.413,69.919z"/>
		<g>
			<path style="fill:none;stroke:#000000;stroke-width:4;stroke-miterlimit:10;" d="M47.413,127.669v-33.25
				c0-12.703,10.297-23,23-23l0,0c12.703,0,23,10.297,23,23v33.25"/>
			
				<line style="fill:none;stroke:#000000;stroke-width:4;stroke-linecap:round;stroke-linejoin:round;stroke-miterlimit:10;" x1="70.413" y1="127.419" x2="70.413" y2="92.669"/>
			<g>
				
					<ellipse style="fill:none;stroke:#000000;stroke-width:4;stroke-linecap:round;stroke-linejoin:round;stroke-miterlimit:10;" cx="87.652" cy="53.612" rx="12.239" ry="10.555"/>
				
					<ellipse style="fill:none;stroke:#000000;stroke-width:4;stroke-linecap:round;stroke-linejoin:round;stroke-miterlimit:10;" cx="70.413" cy="30.223" rx="12.239" ry="10.555"/>
				
					<ellipse style="fill:none;stroke:#000000;stroke-width:4;stroke-linecap:round;stroke-linejoin:round;stroke-miterlimit:10;" cx="53.174" cy="53.612" rx="12.239" ry="10.555"/>
			</g>
		</g>
	</g>
</g>
<g id="Layer_1">
</g>
</svg>
