<?xml version="1.0" encoding="iso-8859-1"?>
<!-- Generator: Adobe Illustrator 19.2.0, SVG Export Plug-In . SVG Version: 6.00 Build 0)  -->
<!DOCTYPE svg PUBLIC "-//W3C//DTD SVG 1.1//EN" "http://www.w3.org/Graphics/SVG/1.1/DTD/svg11.dtd">
<svg version="1.1" xmlns="http://www.w3.org/2000/svg" xmlns:xlink="http://www.w3.org/1999/xlink" x="0px" y="0px"
	 viewBox="0 0 140 140" style="enable-background:new 0 0 140 140;" xml:space="preserve">
<g id="kala">
	<g id="kala_1_">
		<path style="fill:#FFFFFF;stroke:#000000;stroke-width:5;stroke-miterlimit:10;" d="M130.413,69.919v30c0,16.569-13.431,30-30,30
			h-60c-16.569,0-30-13.431-30-30v-30c0-33.137,26.863-60,60-60S130.413,36.782,130.413,69.919z"/>
		<g>
			<path d="M12.988,115.877c0,0,0.117-0.392,0.336-1.127c0.224-0.718,0.565-1.758,1.039-3.062c0.951-2.606,2.425-6.283,4.644-10.499
				c2.248-4.19,5.249-8.942,9.357-13.383c2.053-2.213,4.389-4.336,7.019-6.182c2.645-1.853,5.511-3.397,8.729-4.478l1.105-0.351
				c0.361-0.119,0.732-0.235,1.169-0.332c0.836-0.204,1.671-0.423,2.507-0.525c1.656-0.292,3.411-0.337,5.16-0.109
				c1.75,0.209,3.517,0.827,5.012,1.812c1.507,0.97,2.731,2.252,3.677,3.607c1.874,2.748,2.749,5.681,3.378,8.395
				c0.585,2.732,0.84,5.315,1.004,7.681c0.308,4.735,0.195,8.632,0.14,11.346c-0.064,2.704-0.101,4.249-0.101,4.249l0,0.008
				c-0.02,0.828-0.707,1.484-1.535,1.464c-0.806-0.019-1.449-0.674-1.465-1.472c0,0-0.028-1.547-0.078-4.254
				c-0.067-2.694-0.117-6.539-0.519-11.056c-0.211-2.254-0.548-4.674-1.115-7.133c-0.596-2.432-1.445-4.952-2.896-6.988
				c-1.454-2.021-3.496-3.407-6.051-3.69c-1.264-0.156-2.613-0.14-3.989,0.113c-0.696,0.083-1.352,0.267-2.018,0.425
				c-0.32,0.064-0.685,0.179-1.059,0.303l-1.104,0.355c-2.647,0.899-5.289,2.305-7.614,3.959c-2.348,1.66-4.466,3.592-6.347,5.633
				c-3.767,4.094-6.588,8.578-8.707,12.554c-2.142,3.976-3.587,7.479-4.513,9.944c-0.462,1.234-0.792,2.212-1.007,2.875
				c-0.202,0.652-0.309,1-0.309,1l-0.024,0.077c-0.326,1.055-1.446,1.646-2.501,1.32C13.266,118.034,12.676,116.926,12.988,115.877z
				"/>
		</g>
		<g>
			<ellipse transform="matrix(0.2686 -0.9633 0.9633 0.2686 -68.4113 126.7207)" cx="49.235" cy="108.407" rx="4.434" ry="4.434"/>
			<g>
				<path d="M66.461,114.222c-0.744,0.561-1.471,1.045-2.23,1.515c-0.753,0.471-1.522,0.912-2.309,1.323
					c-0.783,0.418-1.586,0.803-2.408,1.153c-0.814,0.364-1.662,0.664-2.508,0.964c-0.866,0.255-1.724,0.534-2.624,0.701
					c-0.882,0.22-1.806,0.301-2.717,0.416c-0.929,0.025-1.855,0.094-2.794-0.023c-0.939-0.028-1.864-0.286-2.791-0.47l-1.298-0.453
					c-0.383-0.111-0.845-0.351-1.287-0.567c-0.929-0.414-1.664-0.945-2.45-1.448c-0.72-0.57-1.469-1.117-2.11-1.761
					c-0.684-0.608-1.273-1.291-1.883-1.957c-0.569-0.695-1.139-1.389-1.648-2.123c-0.522-0.724-1.01-1.469-1.464-2.232
					c-0.462-0.759-0.892-1.534-1.292-2.327c-0.409-0.801-0.772-1.571-1.13-2.464c-0.252-0.629-0.037-1.33,0.479-1.719
					c0.767-0.579,1.478-1.05,2.241-1.524c0.753-0.471,1.522-0.912,2.309-1.323c0.783-0.418,1.586-0.803,2.408-1.153
					c0.814-0.364,1.662-0.664,2.508-0.964c0.866-0.255,1.724-0.534,2.624-0.701c0.882-0.22,1.806-0.301,2.717-0.416
					c0.929-0.025,1.855-0.094,2.794,0.023c0.468,0.04,0.937,0.059,1.4,0.177l0.696,0.145l0.348,0.074l0.174,0.037l0.087,0.019
					l0.043,0.009l0.022,0.005l0.011,0.002l0.105,0.032c0.815,0.305,1.565,0.49,2.492,0.99c0.929,0.414,1.664,0.945,2.45,1.448
					c0.72,0.57,1.469,1.117,2.11,1.761c0.684,0.608,1.273,1.291,1.883,1.957c0.569,0.695,1.139,1.389,1.648,2.123
					c0.522,0.724,1.01,1.469,1.464,2.232c0.462,0.759,0.892,1.534,1.292,2.327c0.409,0.801,0.772,1.571,1.13,2.464
					c0.252,0.629,0.038,1.329-0.478,1.719L66.461,114.222z M63.66,112.502c-0.171-0.37-0.328-0.755-0.513-1.113
					c-0.367-0.727-0.764-1.442-1.187-2.138c-0.416-0.7-0.863-1.382-1.336-2.038c-0.462-0.668-0.974-1.288-1.483-1.912
					c-0.541-0.587-1.064-1.199-1.657-1.721c-0.56-0.568-1.196-1.021-1.806-1.512c-0.651-0.411-1.304-0.878-1.939-1.153
					c-0.559-0.348-1.469-0.605-2.248-0.893c0.185,0.058,0.046,0.015,0.085,0.028l-0.009-0.002l-0.017-0.003l-0.035-0.007
					l-0.069-0.014l-0.139-0.028L51.03,99.94l-0.554-0.116c-0.364-0.101-0.75-0.109-1.13-0.142c-0.756-0.102-1.534-0.035-2.307-0.022
					c-0.776,0.105-1.555,0.163-2.328,0.359c-0.778,0.14-1.541,0.393-2.308,0.615c-0.758,0.271-1.517,0.537-2.258,0.869
					c-0.744,0.316-1.48,0.669-2.198,1.052c-0.722,0.376-1.432,0.783-2.122,1.215c-0.684,0.421-1.391,0.897-1.984,1.344l0.479-1.719
					c0.276,0.688,0.635,1.462,1.002,2.176c0.367,0.727,0.764,1.442,1.187,2.138c0.416,0.7,0.863,1.382,1.336,2.038
					c0.462,0.668,0.974,1.288,1.483,1.912c0.541,0.587,1.064,1.199,1.657,1.721c0.56,0.568,1.196,1.021,1.806,1.512
					c0.651,0.411,1.304,0.878,1.939,1.153c0.322,0.16,0.605,0.339,1.043,0.469l1.111,0.394c0.744,0.133,1.467,0.356,2.239,0.37
					c0.756,0.102,1.534,0.035,2.307,0.022c0.776-0.105,1.555-0.163,2.328-0.359c0.778-0.14,1.541-0.393,2.308-0.615
					c0.758-0.271,1.517-0.537,2.258-0.869c0.744-0.316,1.48-0.669,2.198-1.052c0.722-0.376,1.432-0.783,2.122-1.215
					C62.991,112.977,63.322,112.731,63.66,112.502z"/>
			</g>
		</g>
		<g>
			<path d="M100.55,98.87c0,0,0.433,0.213,1.192,0.586c0.375,0.175,0.845,0.425,1.39,0.729c0.548,0.294,1.157,0.633,1.789,1.029
				c0.648,0.379,1.328,0.823,2.04,1.307c0.724,0.465,1.437,1.028,2.197,1.579c0.73,0.59,1.503,1.179,2.235,1.841
				c0.756,0.636,1.469,1.341,2.197,2.032c0.695,0.723,1.409,1.431,2.05,2.183c0.669,0.729,1.268,1.496,1.864,2.227
				c0.563,0.755,1.128,1.473,1.605,2.193c0.49,0.713,0.946,1.392,1.332,2.042c0.406,0.638,0.749,1.239,1.043,1.778
				c0.303,0.534,0.561,1.004,0.752,1.402c0.397,0.789,0.623,1.239,0.623,1.239c0.496,0.987,0.099,2.19-0.888,2.686
				c-0.987,0.496-2.19,0.099-2.686-0.888c-0.008-0.016-0.016-0.033-0.024-0.049l-0.039-0.084c0,0-0.194-0.418-0.534-1.151
				c-0.163-0.37-0.384-0.807-0.647-1.305c-0.253-0.503-0.55-1.065-0.904-1.661c-0.334-0.608-0.733-1.244-1.162-1.914
				c-0.417-0.678-0.917-1.352-1.411-2.066c-0.527-0.689-1.056-1.416-1.652-2.108c-0.569-0.715-1.208-1.387-1.828-2.079
				c-0.654-0.658-1.292-1.335-1.973-1.945c-0.657-0.637-1.357-1.204-2.016-1.775c-0.69-0.532-1.334-1.079-1.994-1.532
				c-0.647-0.471-1.266-0.906-1.858-1.277c-0.584-0.393-1.125-0.716-1.605-0.995c-0.473-0.286-0.9-0.533-1.285-0.729
				c-0.746-0.397-1.172-0.624-1.172-0.624c-0.731-0.389-1.008-1.298-0.619-2.029C98.945,98.795,99.827,98.515,100.55,98.87z"/>
		</g>
		<g>
			<path d="M9.977,57.278c0,0,0.494-0.431,1.422-1.239c0.461-0.404,1.124-0.908,1.854-1.494c0.747-0.568,1.596-1.193,2.578-1.867
				c3.913-2.688,9.89-5.988,17.572-8.503c3.833-1.266,8.081-2.336,12.639-3.067c4.546-0.739,9.417-1.179,14.463-1.127
				c5.041,0.032,10.263,0.556,15.465,1.696c5.191,1.162,10.385,2.932,15.185,5.614c4.776,2.67,9.205,6.322,12.208,11.074
				c1.491,2.363,2.617,4.98,3.189,7.698c0.115,0.701,0.272,1.321,0.343,2.084c0.062,0.624,0.135,1.226,0.141,1.978
				c0.065,1.444-0.063,2.745-0.231,4.092c-0.813,5.331-3.304,9.966-6.226,13.68c-2.948,3.732-6.334,6.662-9.637,9.033
				c-6.658,4.72-12.975,7.248-17.407,8.762c-2.227,0.749-4.002,1.253-5.216,1.576c-1.217,0.312-1.866,0.478-1.866,0.478
				l-0.844-3.397c0,0,0.619-0.168,1.781-0.483c1.158-0.324,2.849-0.831,4.964-1.574c2.114-0.744,4.642-1.761,7.441-3.12
				c2.796-1.359,5.857-3.091,8.94-5.313c3.067-2.23,6.171-4.968,8.797-8.341c2.611-3.359,4.709-7.424,5.354-11.869
				c0.129-1.093,0.23-2.271,0.17-3.325c0.006-0.499-0.07-1.142-0.138-1.77c-0.044-0.49-0.19-1.101-0.277-1.649
				c-0.47-2.241-1.402-4.406-2.662-6.406c-2.531-4.016-6.423-7.288-10.781-9.719c-4.373-2.445-9.214-4.106-14.093-5.197
				c-4.891-1.072-9.841-1.573-14.635-1.602c-4.796-0.051-9.431,0.367-13.785,1.075c-4.349,0.697-8.395,1.717-12.035,2.92
				c-7.298,2.39-12.92,5.504-16.563,8.005c-0.91,0.625-1.713,1.216-2.385,1.726c-0.658,0.533-1.21,0.94-1.674,1.347
				c-0.927,0.808-1.422,1.239-1.422,1.239L9.977,57.278z"/>
		</g>
		<g>
			<path d="M9.979,68.319c0,0,0.522-0.37,1.435-1.017c0.433-0.325,1.083-0.714,1.763-1.161c0.692-0.466,1.482-0.892,2.339-1.402
				c0.864-0.487,1.816-0.987,2.828-1.497c1.022-0.492,2.097-1.014,3.237-1.485c1.126-0.506,2.325-0.937,3.53-1.402
				c1.221-0.421,2.457-0.862,3.716-1.225c1.248-0.402,2.521-0.707,3.763-1.045c1.257-0.278,2.484-0.596,3.69-0.808
				c1.2-0.246,2.366-0.444,3.475-0.608c1.105-0.191,2.16-0.294,3.13-0.42c0.969-0.133,1.865-0.18,2.654-0.26
				c0.79-0.08,1.481-0.115,2.05-0.144c1.137-0.063,1.787-0.099,1.787-0.099c0.827-0.046,1.534,0.588,1.58,1.415
				c0.045,0.814-0.568,1.512-1.376,1.577l-0.053,0.004c0,0-0.626,0.05-1.722,0.138c-0.548,0.042-1.214,0.092-1.973,0.187
				c-0.759,0.097-1.621,0.161-2.55,0.313c-0.93,0.145-1.942,0.267-3,0.478c-1.062,0.183-2.176,0.401-3.321,0.665
				c-1.152,0.231-2.318,0.566-3.513,0.86c-1.179,0.353-2.388,0.673-3.567,1.086c-1.192,0.375-2.355,0.824-3.504,1.251
				c-1.132,0.47-2.258,0.904-3.308,1.409c-1.066,0.471-2.064,0.987-3.013,1.472c-0.938,0.502-1.817,0.991-2.611,1.465
				c-0.78,0.491-1.53,0.919-2.12,1.341c-0.611,0.426-1.127,0.739-1.583,1.097c-0.897,0.669-1.41,1.052-1.41,1.052
				c-0.885,0.661-2.138,0.48-2.799-0.405c-0.661-0.885-0.48-2.138,0.405-2.799C9.949,68.341,9.968,68.327,9.979,68.319z"/>
		</g>
		<g>
			<path d="M9.965,80.329c0,0,0.317-0.225,0.871-0.619c0.554-0.388,1.445-0.994,2.459-1.617c2.05-1.282,4.892-2.794,7.832-4.042
				c2.933-1.269,5.96-2.267,8.249-2.922c1.145-0.326,2.104-0.58,2.779-0.739c0.674-0.164,1.059-0.257,1.059-0.257
				c0.805-0.195,1.616,0.299,1.812,1.104c0.193,0.794-0.292,1.597-1.079,1.805c0,0-1.475,0.39-3.642,1.103
				c-2.165,0.715-5.014,1.784-7.738,3.095c-2.733,1.293-5.336,2.817-7.189,4.082c-0.946,0.638-1.643,1.154-2.187,1.567
				c-0.538,0.416-0.846,0.653-0.846,0.653c-0.874,0.675-2.131,0.514-2.806-0.36c-0.675-0.874-0.514-2.131,0.36-2.806
				C9.919,80.362,9.946,80.343,9.965,80.329z"/>
		</g>
	</g>
</g>
<g id="Layer_1">
</g>
</svg>
