<?xml version="1.0" encoding="iso-8859-1"?>
<!-- Generator: Adobe Illustrator 19.2.0, SVG Export Plug-In . SVG Version: 6.00 Build 0)  -->
<!DOCTYPE svg PUBLIC "-//W3C//DTD SVG 1.1//EN" "http://www.w3.org/Graphics/SVG/1.1/DTD/svg11.dtd">
<svg version="1.1" xmlns="http://www.w3.org/2000/svg" xmlns:xlink="http://www.w3.org/1999/xlink" x="0px" y="0px"
	 viewBox="0 0 140 140" style="enable-background:new 0 0 140 140;" xml:space="preserve">
<g id="mun">
	<g id="mun_3_">
		<path style="fill:#FFFFFF;stroke:#000000;stroke-width:5;stroke-miterlimit:10;" d="M130.413,99.919c0,16.569-13.431,30-30,30h-60
			c-16.569,0-30-13.431-30-30v-60c0-16.569,13.431-30,30-30h60c16.569,0,30,13.431,30,30V99.919z"/>
		<g>
			<g>
				<path d="M95.746,9.919c0,0,0.054,13.289,0.134,33.222c0.016,9.966,0.034,21.594,0.054,34.052
					c0.001,0.779,0.002,1.561,0.004,2.345c-0.038,0.821-0.077,1.645-0.116,2.472c-0.108,0.874-0.251,1.786-0.389,2.679
					c-0.217,0.845-0.434,1.693-0.652,2.543c-1.05,3.351-2.825,6.515-5.189,9.201c-2.36,2.689-5.307,4.901-8.605,6.412
					c-1.645,0.767-3.386,1.315-5.158,1.729c-0.888,0.192-1.795,0.296-2.693,0.442c-0.452,0.046-0.907,0.056-1.361,0.084
					l-0.681,0.035l-0.341,0.017l-0.17,0.008l-0.085,0.004c-0.079,0,0.057,0.006-0.199,0.001c-0.836-0.048-1.645-0.075-2.502-0.141
					c-0.933-0.143-1.898-0.255-2.801-0.451c-1.772-0.413-3.514-0.962-5.158-1.729c-3.298-1.511-6.245-3.723-8.605-6.412
					c-2.364-2.686-4.139-5.85-5.189-9.201c-0.218-0.85-0.435-1.697-0.651-2.542c-0.131-0.861-0.271-1.719-0.382-2.577
					c-0.041-0.862-0.083-1.72-0.124-2.576c0.001-0.785,0.002-1.567,0.004-2.345c0.02-12.458,0.038-24.086,0.054-34.052
					C45.026,23.207,45.08,9.919,45.08,9.919h4c0,0,0.054,13.289,0.134,33.222c0.016,9.966,0.034,21.594,0.054,34.052
					c0.001,0.779,0.002,1.561,0.004,2.345c0.037,0.713,0.073,1.428,0.11,2.146c0.107,0.708,0.214,1.419,0.322,2.132
					c0.181,0.697,0.363,1.397,0.545,2.099c0.877,2.765,2.354,5.375,4.317,7.59c1.96,2.217,4.402,4.037,7.123,5.275
					c1.357,0.63,2.794,1.072,4.253,1.412c0.717,0.152,1.408,0.22,2.112,0.349c0.798,0.06,1.65,0.086,2.473,0.131
					c-0.204-0.007-0.016-0.004-0.043-0.007l0.07-0.004l0.141-0.007l0.281-0.015l0.563-0.028c0.375-0.023,0.752-0.025,1.125-0.062
					c0.739-0.126,1.488-0.202,2.22-0.358c1.459-0.341,2.896-0.782,4.253-1.412c2.721-1.237,5.164-3.057,7.123-5.275
					c1.963-2.215,3.44-4.825,4.317-7.59c0.182-0.701,0.364-1.4,0.545-2.097c0.105-0.679,0.21-1.355,0.315-2.029
					c0.039-0.753,0.079-1.503,0.118-2.25c0.001-0.785,0.002-1.567,0.004-2.345c0.02-12.458,0.038-24.086,0.054-34.052
					c0.081-19.933,0.134-33.222,0.134-33.222H95.746z"/>
			</g>
			<g>
				<path d="M85.202,79.36c0,0-0.013,0.311-0.038,0.893c-0.01,0.155-0.003,0.288-0.03,0.507c-0.03,0.223-0.063,0.465-0.098,0.728
					c-0.04,0.259-0.073,0.552-0.133,0.836c-0.068,0.275-0.141,0.568-0.217,0.877c-0.337,1.222-0.873,2.7-1.855,4.187
					c-0.964,1.487-2.328,3.011-4.148,4.238c-1.817,1.219-4.084,2.131-6.584,2.436c-0.311,0.048-0.628,0.046-0.945,0.07l-0.478,0.025
					l-0.24,0.012l-0.322-0.012c-0.565-0.04-1.036-0.027-1.803-0.159c-1.438-0.184-2.646-0.591-3.931-1.134
					c-1.259-0.552-2.431-1.324-3.521-2.212c-1.076-0.911-2.013-1.997-2.816-3.185c-0.784-1.204-1.383-2.532-1.813-3.917
					c-0.181-0.703-0.37-1.405-0.449-2.129c-0.053-0.359-0.109-0.718-0.114-1.081l-0.024-0.543l-0.011-0.272l-0.005-0.136
					l-0.003-0.068l-0.001-0.034l0.001-0.141c0.052-0.649,0.03-1.159,0.178-1.997c0.096-0.794,0.296-1.477,0.484-2.174
					c0.448-1.373,1.062-2.685,1.856-3.868c0.812-1.168,1.759-2.224,2.826-3.12c1.085-0.87,2.247-1.623,3.493-2.158
					c1.244-0.523,2.527-0.926,3.819-1.081c0.641-0.12,1.285-0.12,1.917-0.153l0.119-0.005l0.059-0.002l0.157,0.002l0.204,0.009
					l0.407,0.019c0.285,0.02,0.507,0.009,0.838,0.053c1.346,0.168,2.502,0.411,3.592,0.844c1.102,0.388,2.092,0.942,3.006,1.518
					c1.804,1.202,3.172,2.69,4.151,4.15c0.994,1.461,1.548,2.923,1.901,4.136c0.174,0.611,0.304,1.163,0.365,1.653
					c0.083,0.487,0.143,0.901,0.15,1.241c0.038,0.678,0.058,1.04,0.058,1.04L85.202,79.36z M80.955,79.252
					c0,0-0.011-0.259-0.033-0.745c0.004-0.245-0.038-0.541-0.093-0.889c-0.032-0.352-0.123-0.746-0.24-1.184
					c-0.24-0.869-0.609-1.925-1.311-2.986c-0.686-1.063-1.659-2.159-2.96-3.038c-0.662-0.416-1.37-0.831-2.166-1.114
					c-0.774-0.332-1.675-0.495-2.44-0.622c-0.197-0.039-0.516-0.036-0.771-0.056l-0.407-0.022l-0.204-0.011
					c-0.099-0.002,0.105,0.002,0.077,0.002l-0.022,0.001l-0.043,0.003l-0.087,0.005c-0.461,0.036-0.932,0.027-1.395,0.126
					c-0.939,0.113-1.86,0.425-2.758,0.805c-0.899,0.392-1.73,0.953-2.514,1.583c-0.769,0.654-1.433,1.436-2.009,2.283
					c-0.557,0.862-0.975,1.811-1.284,2.794c-0.121,0.502-0.263,1.014-0.304,1.458c-0.097,0.384-0.089,1.124-0.124,1.715
					c0.006-0.207,0.003-0.043,0.004-0.083l0.002,0.024l0.003,0.049l0.007,0.097l0.013,0.194l0.023,0.388
					c0.002,0.26,0.051,0.514,0.094,0.768c0.058,0.514,0.211,1.007,0.34,1.503c0.327,0.972,0.76,1.903,1.327,2.745
					c0.585,0.827,1.259,1.58,2.019,2.218c0.778,0.612,1.6,1.154,2.485,1.529c0.441,0.185,0.888,0.354,1.341,0.478l0.681,0.172
					c0.224,0.055,0.416,0.062,0.623,0.101c0.337,0.087,0.981,0.091,1.51,0.12l0.103,0.005l0.051,0.002l0.026,0.001
					c0.034,0.001-0.201-0.006-0.092-0.003l0.168-0.009l0.335-0.016c0.222-0.016,0.446-0.005,0.663-0.04
					c1.748-0.203,3.333-0.82,4.62-1.662c1.284-0.854,2.261-1.915,2.962-2.951c0.715-1.036,1.102-2.076,1.358-2.935
					c0.059-0.218,0.115-0.424,0.167-0.618c0.044-0.189,0.057-0.348,0.088-0.506c0.028-0.155,0.055-0.299,0.079-0.43
					c0.025-0.134,0.024-0.329,0.036-0.464c0.034-0.582,0.052-0.892,0.052-0.892L80.955,79.252z"/>
			</g>
			<g>
				<polygon points="68.413,66.585 68.663,9.919 72.163,9.919 72.413,66.585 				"/>
			</g>
		</g>
	</g>
</g>
<g id="Layer_1">
</g>
</svg>
