<?xml version="1.0" encoding="iso-8859-1"?>
<!-- Generator: Adobe Illustrator 19.2.0, SVG Export Plug-In . SVG Version: 6.00 Build 0)  -->
<!DOCTYPE svg PUBLIC "-//W3C//DTD SVG 1.1//EN" "http://www.w3.org/Graphics/SVG/1.1/DTD/svg11.dtd">
<svg version="1.1" xmlns="http://www.w3.org/2000/svg" xmlns:xlink="http://www.w3.org/1999/xlink" x="0px" y="0px"
	 viewBox="0 0 140 140" style="enable-background:new 0 0 140 140;" xml:space="preserve">
<g id="selo">
	<g id="selo_3_">
		<g>
			<path style="fill:#FFFFFF;" d="M130.413,69.919v25.997c0,19.003-13.431,34.003-30,34.003c-29.667,0-30-27.44-30-36.004
				c0,8.564-0.333,36.004-30,36.004c-16.569,0-30-14.333-30-34.003V69.919v-30c0-16.569,13.431-30,30-30h60
				c16.569,0,30,13.431,30,30V69.919z"/>
			<path d="M132.687,69.919l0.058,16.244l0.029,8.122l0.004,1.015l0.002,0.508l-0.008,0.358l-0.01,0.254l-0.082,2.029l-0.041,1.014
				c-0.032,0.355-0.087,0.73-0.13,1.094l-0.284,2.2c-0.077,0.744-0.287,1.417-0.426,2.129c-0.165,0.701-0.292,1.411-0.492,2.103
				l-0.655,2.062l-0.331,1.03l-0.419,0.999l-0.844,1.997c-0.306,0.654-0.669,1.283-1.003,1.925
				c-0.634,1.305-1.491,2.483-2.279,3.701c-1.718,2.335-3.624,4.571-5.904,6.414c-1.081,0.99-2.323,1.78-3.531,2.611
				c-0.601,0.421-1.278,0.726-1.914,1.092c-0.649,0.346-1.281,0.727-1.976,0.981l-2.045,0.843c-0.689,0.261-1.412,0.432-2.117,0.648
				c-1.403,0.479-2.886,0.621-4.338,0.897c-0.733,0.086-1.474,0.103-2.211,0.154l-1.107,0.062l-0.138,0.008l-0.069,0.004
				l-0.139-0.002l-0.254-0.009l-0.507-0.017c-0.682-0.027-1.34-0.037-2.042-0.079l-2.207-0.208
				c-2.882-0.357-5.733-1.003-8.486-2.089c-2.745-1.079-5.357-2.61-7.625-4.555c-2.286-1.928-4.163-4.297-5.632-6.834
				c-1.479-2.538-2.574-5.248-3.341-8.005c-0.793-2.755-1.247-5.564-1.514-8.361c-0.266-2.795-0.316-5.603-0.264-8.342l0-0.003h4
				c0.155,7.263-0.491,14.932-3.7,21.982c-0.81,1.75-1.776,3.445-2.91,5.043c-1.144,1.592-2.483,3.059-3.963,4.37
				c-1.478,1.32-3.148,2.402-4.866,3.362c-1.749,0.898-3.561,1.675-5.429,2.205c-0.923,0.321-1.875,0.474-2.812,0.715
				c-0.943,0.19-1.892,0.324-2.839,0.477c-0.947,0.087-1.897,0.196-2.844,0.26l-1.418,0.049l-0.709,0.024l-0.355,0.012l-0.089,0.003
				c0.092,0.003-0.229-0.003-0.223-0.003l-0.168-0.009l-2.686-0.143c-0.958-0.106-1.998-0.296-2.991-0.453
				c-1.952-0.422-3.815-0.937-5.62-1.716c-7.23-2.993-13.178-8.745-16.588-15.643c-1.737-3.436-2.95-7.11-3.652-10.867
				C7.902,99.841,7.835,95.9,7.866,92.412l-0.019-21.52l-0.01-21.52l0.005-5.38l0.002-2.69l0.001-1.345l0.07-1.473
				c0.055-0.904,0.051-1.748,0.24-2.795l0.227-1.501c0.07-0.505,0.156-1,0.291-1.462c0.255-0.939,0.455-1.896,0.764-2.818
				c0.336-0.914,0.662-1.832,1.015-2.739c3.06-7.175,8.778-13.133,15.79-16.509c3.499-1.697,7.307-2.754,11.178-3.12l2.91-0.144
				l2.696-0.002l5.38,0.005l43.039,0.068l5.38,0.013l2.69,0.006l0.672,0.002l0.168,0l0.291,0.009l0.336,0.018l1.343,0.071
				l1.35,0.078l1.492,0.22l1.49,0.231c0.5,0.073,0.948,0.227,1.424,0.338c1.89,0.434,3.718,1.105,5.493,1.874
				c7.108,3.122,12.932,8.943,16.159,15.973c1.623,3.51,2.601,7.315,2.892,11.166c0.04,0.951,0.115,1.96,0.117,2.862l-0.005,2.69
				l-0.01,5.38L132.687,69.919z M128.139,69.919l-0.04-21.52l-0.01-5.38l-0.005-2.69c-0.006-0.891-0.081-1.671-0.113-2.512
				c-0.263-3.297-1.11-6.538-2.506-9.53c-2.772-5.991-7.777-10.955-13.842-13.574c-1.515-0.644-3.069-1.213-4.679-1.57
				c-0.397-0.09-0.803-0.232-1.192-0.281l-1.169-0.175l-1.167-0.185c-0.43-0.034-0.891-0.047-1.335-0.071l-1.343-0.065l-0.336-0.016
				l-0.084-0.004c-0.055-0.003,0.177,0.005,0.039,0.002l-0.168,0l-0.672,0.002l-2.69,0.006l-5.38,0.013l-43.039,0.068l-5.38,0.005
				l-2.684,0.006l-2.463,0.127c-3.27,0.318-6.474,1.215-9.423,2.651c-5.908,2.855-10.736,7.901-13.302,13.946l-0.849,2.308
				c-0.26,0.776-0.418,1.584-0.637,2.373c-0.121,0.4-0.184,0.789-0.233,1.173l-0.179,1.158c-0.16,0.717-0.167,1.674-0.217,2.559
				l-0.061,1.214l0.001,1.345l0.002,2.69l0.005,5.38l-0.01,21.52l-0.019,21.52c-0.035,3.681,0.031,6.936,0.585,10.278
				c0.614,3.298,1.669,6.493,3.16,9.46c2.93,5.968,7.984,10.793,14.003,13.305c1.486,0.654,3.1,1.09,4.644,1.433
				c0.778,0.114,1.501,0.274,2.322,0.376l2.686,0.147l2.415-0.051c0.842-0.05,1.676-0.14,2.515-0.205
				c0.823-0.13,1.654-0.236,2.469-0.392c0.799-0.204,1.631-0.319,2.405-0.588c1.591-0.431,3.092-1.07,4.542-1.789
				c1.412-0.78,2.783-1.639,3.992-2.703c1.206-1.063,2.333-2.225,3.309-3.529c0.967-1.31,1.815-2.722,2.542-4.213
				c1.444-2.993,2.367-6.281,2.985-9.651c0.603-3.385,0.835-6.84,0.879-10.377l0.001-0.053c0.014-1.104,0.92-1.989,2.025-1.975
				c1.104,0.014,1.989,0.92,1.975,2.025l0,0.003l0,0.003c0.036,2.676,0.171,5.288,0.502,7.876c0.326,2.584,0.848,5.122,1.59,7.561
				c0.731,2.444,1.739,4.771,3.03,6.887c1.279,2.125,2.877,4.008,4.742,5.562c1.86,1.561,3.99,2.789,6.288,3.668
				c2.294,0.882,4.767,1.422,7.257,1.708l1.837,0.162c0.649,0.034,1.346,0.038,2.016,0.058l0.507,0.012l0.254,0.006l0.032,0.001
				c0.077,0.001-0.07-0.001-0.044-0.001l0.058-0.003l0.115-0.007l0.92-0.052c0.613-0.043,1.23-0.046,1.84-0.114
				c1.204-0.24,2.441-0.326,3.608-0.734c0.587-0.181,1.192-0.31,1.767-0.527l1.712-0.699c0.584-0.202,1.113-0.53,1.66-0.817
				c0.535-0.308,1.109-0.55,1.616-0.908c1.019-0.706,2.08-1.355,3-2.201c1.951-1.551,3.59-3.471,5.088-5.476
				c0.68-1.056,1.438-2.063,1.988-3.201c0.292-0.558,0.614-1.1,0.884-1.669l0.742-1.742l0.373-0.87l0.291-0.903l0.589-1.804
				c0.181-0.606,0.292-1.232,0.443-1.847c0.123-0.615,0.327-1.241,0.387-1.847l0.254-1.825c0.041-0.307,0.094-0.601,0.126-0.92
				l0.048-1.014l0.097-2.028l0.012-0.254l0.006-0.127c0.003-0.104-0.002,0.106-0.001,0.073l0-0.032l0-0.063l0.002-0.508l0.004-1.015
				l0.029-8.122L128.139,69.919z"/>
		</g>
		<g>
			<path d="M90.441,48.398c-1.874-0.043-3.749-0.049-5.623-0.123L84.8,48.275c-1.071-0.042-1.916-0.913-1.951-1.968
				c-0.039-1.259-0.061-2.518-0.077-3.777l-0.029-1.888l-0.014-0.944l-0.046-0.844c-0.024-0.299-0.022-0.663-0.068-0.909
				l-0.123-0.753c-0.051-0.492-0.25-1.05-0.36-1.572c-0.343-1.035-0.732-2.061-1.301-2.987c-0.519-0.955-1.215-1.792-1.935-2.586
				c-0.758-0.756-1.571-1.464-2.486-2.004c-0.443-0.293-0.931-0.503-1.401-0.743c-0.496-0.175-0.972-0.414-1.488-0.522
				c-0.254-0.064-0.504-0.148-0.761-0.201l-0.777-0.122c-0.257-0.055-0.519-0.07-0.782-0.076l-0.393-0.02l-0.197-0.011l-0.098-0.006
				l-0.049-0.003l-0.025-0.001l-0.012-0.001c0.05-0.002-0.13,0.003,0.11-0.004l-0.943,0.045l-0.472,0.022
				c-0.147,0.011-0.241,0.041-0.364,0.059l-0.7,0.11c-0.242,0.049-0.504,0.134-0.755,0.196c-0.517,0.106-0.994,0.342-1.492,0.516
				c-0.471,0.237-0.962,0.446-1.407,0.738c-0.92,0.537-1.738,1.243-2.502,1.999c-0.724,0.795-1.415,1.64-1.933,2.598
				c-0.567,0.93-0.952,1.96-1.292,2.998c-0.273,1.058-0.508,2.138-0.542,3.242c-0.015,0.282-0.043,0.534-0.051,0.843l-0.015,0.944
				l-0.03,1.888l-0.06,3.777c-0.017,1.079-0.885,1.945-1.955,1.969l-0.014,0l-3.295,0.069l-1.647,0.034l-0.412,0.009l-0.206,0.004
				l-0.051,0.001c0.035-0.001-0.096,0.002,0.075-0.002l-0.013,0.001l-0.026,0.002L50.331,48.4l-0.822,0.052
				c-0.597,0.014-0.965,0.112-1.426,0.166c-0.441,0.055-0.927,0.202-1.388,0.293c-0.915,0.269-1.818,0.581-2.651,1.021l-0.626,0.324
				l-0.589,0.378c-0.409,0.231-0.752,0.54-1.127,0.81c-0.69,0.6-1.355,1.236-1.852,1.974c-0.536,0.714-0.924,1.506-1.199,2.319
				c-0.306,0.81-0.372,1.668-0.418,2.516c0.038,0.214,0.025,1.159,0.127,1.36l0.101,0.542l0.19,0.615
				c0.275,0.813,0.664,1.605,1.199,2.319c0.497,0.738,1.162,1.374,1.852,1.974c0.375,0.27,0.719,0.579,1.127,0.81l0.589,0.378
				l0.626,0.324c0.833,0.44,1.736,0.751,2.651,1.021c0.929,0.224,1.876,0.407,2.841,0.46c0.903,0.084,2.109,0.074,3.178,0.106
				l3.295,0.069l0.005,0c1.08,0.022,1.943,0.899,1.964,1.969l0.069,3.777l0.034,1.888l0.017,0.944l0.053,0.844
				c0.027,0.299,0.023,0.663,0.07,0.908l0.123,0.753c0.051,0.491,0.25,1.049,0.36,1.572c0.343,1.035,0.731,2.06,1.3,2.986
				c0.521,0.953,1.212,1.793,1.928,2.59c0.759,0.756,1.571,1.464,2.487,2.004c0.443,0.293,0.931,0.503,1.401,0.742
				c0.496,0.175,0.972,0.414,1.488,0.522c1.003,0.326,2.061,0.393,3.107,0.442c0.336-0.042,1.298-0.026,1.656-0.129l0.698-0.113
				c0.242-0.05,0.502-0.136,0.754-0.199c0.516-0.108,0.992-0.346,1.488-0.522c0.469-0.239,0.958-0.449,1.401-0.742
				c0.915-0.54,1.728-1.247,2.487-2.004c0.716-0.797,1.406-1.637,1.928-2.59c0.569-0.926,0.957-1.951,1.3-2.986
				c0.276-1.055,0.515-2.132,0.553-3.235c0.016-0.282,0.045-0.533,0.053-0.842l0.017-0.944l0.034-1.888l0.069-3.777
				c0.02-1.082,0.896-1.948,1.969-1.969l2.943-0.054l1.472-0.027l0.736-0.014l0.368-0.007l0.092-0.002l0.011,0
				c-0.17,0.003-0.041,0.001-0.076,0.001l0.023-0.001l0.046-0.003l0.184-0.011c0.468-0.038,1.029-0.04,1.42-0.104
				c0.402-0.074,0.78-0.09,1.202-0.194c0.839-0.175,1.665-0.407,2.45-0.727c0.391-0.163,0.788-0.313,1.153-0.523
				c0.379-0.185,0.745-0.389,1.088-0.626c0.715-0.433,1.348-0.967,1.939-1.527c0.294-0.282,0.543-0.599,0.817-0.895
				c0.218-0.332,0.49-0.634,0.676-0.98c0.192-0.343,0.406-0.675,0.539-1.04c0.174-0.35,0.288-0.717,0.391-1.086
				c0.141-0.361,0.146-0.749,0.236-1.119c0.034-0.187,0.022-0.38,0.039-0.57l0.017-0.285l0.01-0.142l0.003-0.036
				c-0.003-0.125,0.005,0.161,0.004,0.127l-0.001-0.011l-0.001-0.023l-0.005-0.092l-0.042-0.735l-0.022-0.363l-0.054-0.239
				l-0.088-0.48c-0.034-0.167-0.11-0.361-0.16-0.541c-0.201-0.741-0.581-1.431-0.976-2.109c-0.456-0.648-0.946-1.285-1.554-1.833
				c-0.293-0.283-0.6-0.554-0.939-0.792c-0.315-0.267-0.669-0.486-1.022-0.708c-0.704-0.448-1.473-0.803-2.26-1.116
				c-0.395-0.154-0.809-0.262-1.212-0.4l-1.25-0.291l-1.277-0.181L90.441,48.398z M90.441,44.216l1.647,0.052l1.642,0.193
				c0.541,0.11,1.086,0.21,1.625,0.337c0.531,0.16,1.071,0.295,1.594,0.484c1.046,0.383,2.075,0.834,3.043,1.413
				c0.485,0.288,0.969,0.58,1.418,0.933c0.465,0.326,0.899,0.699,1.316,1.093c0.853,0.767,1.588,1.676,2.255,2.635
				c0.614,0.999,1.178,2.05,1.516,3.201c0.086,0.291,0.185,0.558,0.255,0.87l0.179,0.967l0.079,0.485l0.025,0.371l0.047,0.734
				l0.006,0.092l0.006,0.184l-0.003,0.056l-0.013,0.225l-0.028,0.449c-0.026,0.299-0.027,0.601-0.079,0.896
				c-0.123,0.586-0.18,1.191-0.385,1.754c-0.168,0.575-0.36,1.139-0.622,1.672c-0.223,0.554-0.533,1.053-0.833,1.56
				c-0.294,0.51-0.674,0.953-1.013,1.426c-0.387,0.428-0.761,0.873-1.178,1.266c-0.836,0.782-1.726,1.505-2.698,2.077
				c-0.476,0.307-0.972,0.57-1.48,0.806c-0.497,0.263-1.02,0.456-1.541,0.656c-1.042,0.394-2.119,0.671-3.205,0.87
				c-0.535,0.115-1.143,0.153-1.71,0.224c-0.582,0.065-1.006,0.041-1.517,0.063l-0.184,0.004l-0.271,0.002l-0.368-0.007
				l-0.736-0.013l-1.472-0.027l-2.943-0.054l1.969-1.969l0.069,3.777l0.034,1.888l0.017,0.944c0.004,0.321-0.015,0.698-0.023,1.045
				c-0.021,1.418-0.291,2.825-0.632,4.206c-0.41,1.363-0.904,2.715-1.623,3.958c-0.667,1.271-1.554,2.42-2.523,3.486
				c-1.009,1.032-2.11,1.989-3.359,2.746c-0.607,0.4-1.275,0.71-1.927,1.035c-0.683,0.263-1.349,0.576-2.065,0.745
				c-0.358,0.096-0.698,0.205-1.071,0.284l-1.165,0.192c-0.88,0.143-1.189,0.098-2.106,0.165c-1.462-0.057-2.94-0.192-4.342-0.641
				c-0.717-0.17-1.383-0.482-2.065-0.745c-0.652-0.325-1.32-0.635-1.927-1.035c-1.249-0.756-2.35-1.713-3.359-2.746
				c-0.968-1.067-1.855-2.215-2.523-3.486c-0.718-1.244-1.213-2.595-1.623-3.958c-0.147-0.709-0.357-1.353-0.438-2.117l-0.142-1.117
				c-0.046-0.377-0.034-0.646-0.051-0.975l-0.023-1.042l0.017-0.944l0.034-1.888l0.069-3.777l1.969,1.969l-3.295,0.069
				c-1.127,0.012-2.119,0.076-3.41,0.025c-1.231-0.036-2.455-0.238-3.665-0.505c-1.2-0.315-2.39-0.702-3.518-1.257
				c-1.146-0.513-2.207-1.224-3.212-2.004c-0.976-0.822-1.911-1.721-2.663-2.795c-0.784-1.042-1.4-2.234-1.835-3.495l-0.298-0.958
				c-0.08-0.347-0.143-0.717-0.207-1.076c-0.162-0.872-0.105-1.039-0.175-1.917c0.053-1.338,0.213-2.694,0.68-3.951
				c0.435-1.261,1.05-2.453,1.835-3.495c0.752-1.074,1.688-1.973,2.663-2.795c1.005-0.78,2.066-1.491,3.212-2.004
				c1.128-0.555,2.318-0.942,3.518-1.257c0.617-0.116,1.192-0.27,1.843-0.344c0.63-0.068,1.346-0.173,1.85-0.163l0.824-0.017
				l0.294-0.004l0.206,0.004l0.412,0.009l1.647,0.034l3.295,0.069l-1.969,1.969l-0.06-3.777l-0.03-1.888l-0.015-0.944
				c-0.003-0.321,0.017-0.698,0.025-1.044c0.025-1.417,0.299-2.821,0.643-4.199c0.413-1.36,0.91-2.707,1.631-3.946
				c0.671-1.265,1.557-2.408,2.517-3.478c1.003-1.033,2.099-1.992,3.343-2.751c0.605-0.401,1.271-0.713,1.921-1.039
				c0.681-0.264,1.345-0.579,2.061-0.751c0.357-0.097,0.696-0.207,1.069-0.288l1.164-0.195c0.188-0.027,0.403-0.067,0.569-0.081
				l0.471-0.029l0.942-0.058l0.139-0.002l0.017,0.001l0.034,0.002l0.069,0.003l0.137,0.007l0.275,0.015l0.549,0.031
				c0.367,0.016,0.732,0.043,1.094,0.115l1.086,0.183c0.358,0.077,0.709,0.188,1.063,0.283c0.717,0.17,1.383,0.482,2.066,0.745
				c0.652,0.325,1.32,0.635,1.927,1.035c1.249,0.756,2.35,1.713,3.359,2.745c0.964,1.071,1.846,2.222,2.515,3.491
				c0.718,1.243,1.212,2.594,1.622,3.956c0.147,0.709,0.357,1.353,0.438,2.116l0.142,1.116c0.047,0.377,0.033,0.646,0.052,0.975
				l0.017,0.472l0.009,0.236l0.006,0.216l-0.002,0.118l-0.014,0.944l-0.029,1.888c-0.016,1.259-0.039,2.518-0.077,3.777
				l-1.969-1.969C86.692,44.264,88.566,44.258,90.441,44.216z"/>
		</g>
		<g>
			<path d="M10.179,100.808c0,0,0.228-0.07,0.655-0.202c0.439-0.132,1.075-0.327,1.879-0.54c0.806-0.228,1.789-0.462,2.916-0.751
				c1.131-0.257,2.402-0.585,3.805-0.852c2.8-0.567,6.082-1.16,9.627-1.621c1.771-0.242,3.615-0.385,5.482-0.588
				c1.876-0.117,3.778-0.287,5.689-0.354c1.912-0.044,3.822-0.135,5.708-0.052c1.885,0.055,3.739,0.065,5.533,0.239
				c1.794,0.134,3.529,0.236,5.161,0.521c0.817,0.119,1.612,0.234,2.381,0.345c0.384,0.057,0.762,0.112,1.132,0.167
				c0.368,0.077,0.729,0.153,1.082,0.228c1.414,0.293,2.708,0.572,3.85,0.834c1.135,0.296,2.111,0.622,2.92,0.856
				c1.608,0.499,2.527,0.784,2.527,0.784c0.79,0.245,1.232,1.084,0.987,1.874c-0.233,0.75-1,1.186-1.753,1.019l-0.125-0.028
				c0,0-0.898-0.202-2.47-0.556c-0.786-0.174-1.727-0.426-2.826-0.64c-1.111-0.169-2.358-0.376-3.716-0.613
				c-0.339-0.058-0.686-0.118-1.039-0.178c-0.358-0.038-0.722-0.077-1.092-0.117c-0.741-0.078-1.506-0.159-2.293-0.242
				c-1.569-0.199-3.242-0.265-4.967-0.381c-1.722-0.147-3.516-0.132-5.334-0.162c-1.817-0.069-3.669,0.081-5.519,0.08
				c-1.85,0.042-3.7,0.188-5.522,0.28c-1.817,0.178-3.612,0.295-5.339,0.512c-1.728,0.209-3.405,0.366-4.984,0.606
				c-1.585,0.201-3.075,0.447-4.451,0.672c-2.75,0.457-5.038,0.873-6.623,1.217c-0.788,0.167-1.406,0.298-1.828,0.388
				c-0.425,0.097-0.651,0.148-0.651,0.148l-0.025,0.006c-0.808,0.184-1.612-0.322-1.796-1.13
				C8.984,101.806,9.439,101.039,10.179,100.808z"/>
		</g>
		<g>
			<path d="M12.785,110.482c0,0,0.21-0.066,0.603-0.191c0.405-0.125,0.99-0.31,1.731-0.509c0.743-0.215,1.648-0.435,2.685-0.707
				c1.041-0.245,2.213-0.548,3.505-0.8c2.58-0.529,5.603-1.099,8.873-1.518c1.632-0.226,3.333-0.361,5.054-0.551
				c1.73-0.11,3.484-0.27,5.246-0.333c1.764-0.026,3.525-0.115,5.265-0.036c1.739,0.051,3.449,0.061,5.104,0.224
				c1.655,0.121,3.254,0.232,4.76,0.494c1.505,0.248,2.939,0.371,4.238,0.692c1.305,0.272,2.496,0.54,3.549,0.783
				c1.047,0.277,1.946,0.582,2.692,0.8c1.482,0.467,2.329,0.734,2.329,0.734c0.789,0.249,1.227,1.09,0.978,1.878
				c-0.235,0.746-1.001,1.179-1.751,1.012l-0.126-0.029c0,0-0.825-0.186-2.27-0.511c-0.722-0.16-1.586-0.393-2.596-0.59
				c-1.02-0.157-2.168-0.341-3.415-0.562c-1.239-0.258-2.626-0.316-4.066-0.495c-1.441-0.187-2.981-0.233-4.566-0.344
				c-1.583-0.136-3.232-0.121-4.903-0.149c-1.671-0.063-3.374,0.073-5.074,0.086c-1.701,0.038-3.402,0.172-5.078,0.256
				c-1.671,0.164-3.321,0.272-4.91,0.472c-1.588,0.201-3.131,0.341-4.583,0.561c-1.458,0.184-2.828,0.409-4.094,0.616
				c-2.529,0.425-4.635,0.798-6.093,1.114c-0.724,0.152-1.293,0.272-1.681,0.353c-0.391,0.088-0.599,0.135-0.599,0.135l-0.026,0.006
				c-0.809,0.182-1.612-0.326-1.794-1.134C11.602,111.478,12.052,110.717,12.785,110.482z"/>
		</g>
	</g>
</g>
<g id="Layer_1">
</g>
</svg>
