<?xml version="1.0" encoding="iso-8859-1"?>
<!-- Generator: Adobe Illustrator 19.2.0, SVG Export Plug-In . SVG Version: 6.00 Build 0)  -->
<!DOCTYPE svg PUBLIC "-//W3C//DTD SVG 1.1//EN" "http://www.w3.org/Graphics/SVG/1.1/DTD/svg11.dtd">
<svg version="1.1" xmlns="http://www.w3.org/2000/svg" xmlns:xlink="http://www.w3.org/1999/xlink" x="0px" y="0px"
	 viewBox="0 0 124.493 63.177" style="enable-background:new 0 0 124.493 63.177;" xml:space="preserve">
<g id="la">
	<g id="la_2_">
		<g>
			<path style="fill:#FFFFFF;" d="M96.428,56.584c-9.713,2.871-20.897,4.044-33.089,4.044c-12.486,0-24.285-1.598-34.149-4.612
				l-18.47-17.158l5-19.75l94.5-0.25l4,17.25L96.428,56.584z"/>
			<path d="M96.971,58.509l-2.034,0.648c-0.706,0.197-1.42,0.413-2.122,0.593c-1.405,0.371-2.816,0.715-4.234,1.019
				c-2.841,0.586-5.702,1.044-8.569,1.404c-1.433,0.189-2.87,0.333-4.307,0.442c-1.437,0.121-2.875,0.214-4.313,0.286
				c-1.438,0.078-2.875,0.13-4.312,0.167c-1.443,0.036-2.86,0.063-4.322,0.053c-1.402-0.011-2.859-0.049-4.313-0.1
				c-1.441-0.058-2.881-0.135-4.32-0.232c-2.877-0.206-5.754-0.475-8.612-0.908c-5.717-0.829-11.398-2.065-16.896-3.947
				l-0.011-0.003c-0.277-0.08-0.521-0.218-0.722-0.398l-0.055-0.05L9.089,40.629l-0.008-0.007c-0.669-0.617-0.905-1.531-0.696-2.356
				l5.05-19.737l0.003-0.012c0.272-1.061,1.228-1.766,2.275-1.766l94.5-0.008h0.011c1.002,0,1.84,0.7,2.055,1.637l3.956,17.26
				l0.002,0.01c0.152,0.664-0.043,1.335-0.456,1.815L97.938,57.896c-0.249,0.285-0.56,0.483-0.896,0.591L96.971,58.509z
				 M95.333,54.792l17.325-20.042l-0.454,1.825l-4.044-17.24l2.065,1.637l-94.499,0.492l2.278-1.778l-4.949,19.763l-0.695-2.355
				l0.008,0.007l18.184,17.45l-0.777-0.447l0.01,0.003c2.678,0.699,5.379,1.325,8.11,1.811c2.725,0.514,5.473,0.929,8.234,1.244
				c2.762,0.302,5.531,0.572,8.31,0.732c1.389,0.079,2.78,0.139,4.172,0.181c1.379,0.033,2.755,0.057,4.188,0.053
				c1.373,0.001,2.789,0.007,4.18-0.018c1.397-0.02,2.792-0.055,4.185-0.116c1.393-0.055,2.785-0.129,4.173-0.231
				c1.389-0.099,2.775-0.211,4.158-0.337c2.767-0.254,5.521-0.606,8.249-1.073c1.368-0.216,2.727-0.472,4.08-0.752
				c0.68-0.135,1.332-0.297,2.001-0.443L95.333,54.792z"/>
		</g>
		<g>
			<g>
				<path style="fill:#FFFFFF;" d="M32.168,36.921v11.034c0,6.999-5.674,12.672-12.672,12.672
					c-10.917,0-16.997-17.015-16.997-28.123l0,0c0-16.569,13.431-30,30-30h60c16.569,0,30,13.431,30,30l0,0
					c0,11.463-6.247,28.123-16.997,28.123c-6.999,0-12.672-5.674-12.672-12.672V37.338"/>
				<path d="M34.168,36.921c0,0,0.051,1.122,0.145,3.226c0.049,1.052,0.089,2.349,0.13,3.875c0.022,0.763,0.045,1.582,0.07,2.457
					c0.015,0.902,0.087,1.695-0.019,3.029c-0.208,2.317-0.974,4.903-2.616,7.226c-1.619,2.315-4.066,4.389-7.166,5.53
					c-1.547,0.554-3.238,0.893-4.979,0.909l-0.163,0.004l-0.273-0.005l-0.274-0.014l-0.55-0.027c-0.421-0.034-0.989-0.121-1.474-0.2
					c-0.91-0.204-1.82-0.471-2.678-0.861c-1.727-0.761-3.274-1.868-4.611-3.149c-1.329-1.291-2.466-2.75-3.46-4.301
					c-1.974-3.113-3.436-6.576-4.488-10.26C0.722,40.67,0.035,36.765,0,32.6c-0.012-4.147,0.786-8.492,2.469-12.535
					c1.671-4.06,4.24-7.849,7.529-11.002c3.285-3.152,7.293-5.684,11.732-7.225c2.215-0.776,4.528-1.314,6.883-1.596
					c1.177-0.147,2.365-0.214,3.554-0.231c1.108-0.003,2.219-0.005,3.332-0.008c8.837,0,17.814,0,26.791,0s17.954,0,26.791,0
					c2.24,0.031,4.292-0.097,6.856,0.171c2.36,0.244,4.683,0.747,6.912,1.488c4.462,1.477,8.535,3.923,11.86,7.048
					c3.301,3.142,5.949,6.894,7.554,10.975c1.595,4.092,2.194,8.369,2.229,12.468c-0.002,4.097-0.395,8.014-1.264,11.745
					c-0.863,3.724-2.274,7.238-4.315,10.286c-2.064,3.015-4.716,5.646-7.998,7.195c-1.634,0.762-3.414,1.203-5.153,1.27
					c-0.575,0.027-0.726,0.023-1.228,0.006c-0.456-0.018-0.865-0.057-1.273-0.093c-0.818-0.095-1.619-0.255-2.393-0.473
					c-3.099-0.879-5.723-2.717-7.439-4.967c-1.73-2.246-2.645-4.795-2.916-7.118c-0.07-0.582-0.11-1.151-0.11-1.703
					c-0.011-0.575,0.011-0.946,0.023-1.408c0.027-0.874,0.052-1.694,0.075-2.457c0.044-1.525,0.083-2.823,0.145-3.875
					c0.096-2.104,0.181-3.226,0.181-3.226c0.084-1.105,1.047-1.932,2.152-1.848c1.002,0.076,1.776,0.876,1.848,1.848
					c0,0,0.085,1.122,0.181,3.226c0.062,1.052,0.101,2.349,0.145,3.875c0.023,0.763,0.048,1.582,0.075,2.457
					c0.012,0.419,0.025,0.852,0.038,1.297c0.011,0.377,0.053,0.762,0.114,1.152c0.236,1.563,0.872,3.234,2.007,4.767
					c1.132,1.517,2.736,2.965,4.85,3.792c0.526,0.204,1.079,0.372,1.655,0.497c0.292,0.055,0.587,0.11,0.847,0.132
					c0.212,0.029,0.784,0.059,0.934,0.05c1.167,0.006,2.355-0.269,3.487-0.835c2.282-1.139,4.158-3.463,5.658-6.116
					c1.51-2.678,2.785-5.72,3.862-8.984c1.048-3.261,1.862-6.828,1.804-10.449c-0.029-3.612-1.013-7.261-2.639-10.607
					c-1.601-3.356-3.778-6.539-6.627-9.144c-2.804-2.642-6.232-4.707-9.983-5.983c-1.876-0.637-3.832-1.074-5.827-1.294
					c-1.794-0.234-4.155-0.151-6.33-0.166c-8.837,0-17.814,0-26.791,0s-17.954,0-26.791,0c-1.096,0.003-2.19,0.005-3.282,0.008
					c-1.01,0.016-2.016,0.071-3.012,0.196c-1.993,0.239-3.947,0.694-5.819,1.349c-3.751,1.299-7.142,3.444-9.925,6.114
					c-2.787,2.671-4.962,5.878-6.373,9.31C5.664,25.424,4.996,29.022,5,32.586c0.025,3.556,0.637,7.112,1.569,10.4
					c0.938,3.291,2.241,6.356,3.902,8.915c1.643,2.561,3.697,4.586,5.881,5.51c0.541,0.245,1.094,0.393,1.64,0.52
					c0.254,0.025,0.417,0.074,0.73,0.106l0.55,0.026l0.274,0.013l0.068,0.003c-0.228-0.006-0.032-0.003-0.069-0.004l0.109-0.003
					c1.167-0.011,2.282-0.243,3.307-0.608c2.054-0.743,3.72-2.093,4.825-3.635c1.116-1.542,1.727-3.232,1.921-4.812
					c0.096-0.622,0.08-1.693,0.115-2.538c0.025-0.874,0.048-1.694,0.07-2.457c0.04-1.525,0.081-2.823,0.13-3.875
					c0.095-2.104,0.145-3.226,0.145-3.226c0.05-1.105,0.986-1.96,2.09-1.91C33.299,35.058,34.119,35.901,34.168,36.921z"/>
			</g>
		</g>
		<g>
			<g>
				<path d="M54.552,40.576c0,0,0.001,0.143,0.002,0.41c0.001,0.134,0.002,0.298,0.003,0.492c0.007,0.186,0.001,0.415-0.039,0.722
					c-0.033,0.294-0.07,0.619-0.11,0.974c-0.056,0.341-0.138,0.692-0.217,1.077c-0.174,0.762-0.441,1.61-0.847,2.487
					c-0.394,0.882-0.924,1.792-1.583,2.688c-0.661,0.897-1.486,1.753-2.447,2.525c-0.982,0.748-2.105,1.412-3.369,1.854
					c-1.269,0.443-2.639,0.679-4.104,0.492c-0.155-0.025-0.252-0.019-0.455-0.069l-0.629-0.177l-0.618-0.205
					c-0.181-0.08-0.332-0.17-0.499-0.256c-0.675-0.328-1.216-0.78-1.737-1.226c-1.006-0.927-1.696-1.981-2.302-3.003
					c-0.564-1.036-0.997-2.077-1.31-3.074c-0.335-0.994-0.565-1.948-0.741-2.832c-0.18-0.883-0.288-1.701-0.34-2.428
					c-0.073-0.725-0.083-1.361-0.096-1.883c-0.022-0.521,0.028-0.935,0.03-1.214c0.012-0.279,0.019-0.428,0.019-0.428
					c0.025-0.552,0.492-0.979,1.044-0.955c0.506,0.023,0.907,0.417,0.952,0.907l0.004,0.048c0,0,0.05,0.544,0.174,1.486
					c0.07,0.471,0.148,1.042,0.294,1.688c0.123,0.648,0.324,1.369,0.541,2.146c0.224,0.775,0.501,1.605,0.865,2.439
					c0.333,0.852,0.813,1.67,1.288,2.496c0.518,0.785,1.096,1.566,1.778,2.129c0.345,0.257,0.688,0.528,1.051,0.668
					c0.087,0.04,0.181,0.096,0.26,0.127c0.068,0.011,0.134,0.026,0.197,0.046c0.063,0.02,0.125,0.044,0.187,0.074
					c0.07,0.028,0.264,0.027,0.39,0.042c0.792,0.075,1.74-0.054,2.57-0.381c0.844-0.323,1.645-0.78,2.365-1.319
					c0.697-0.573,1.331-1.191,1.86-1.849c0.522-0.663,0.954-1.344,1.278-2.011c0.326-0.666,0.571-1.304,0.756-1.881
					c0.082-0.291,0.159-0.562,0.229-0.814c0.046-0.24,0.089-0.46,0.127-0.659c0.048-0.184,0.07-0.398,0.087-0.6
					c0.02-0.193,0.036-0.357,0.05-0.49c0.027-0.266,0.042-0.408,0.042-0.408c0.084-0.825,0.822-1.426,1.647-1.342
					C53.972,39.168,54.546,39.821,54.552,40.576z"/>
			</g>
			<g>
				<path d="M73.442,40.563c0,0,0.004,0.133,0.012,0.383c-0.003,0.264,0.044,0.583,0.008,1.114
					c-0.035,0.535-0.069,1.202-0.195,1.901c-0.045,0.359-0.117,0.737-0.22,1.132c-0.088,0.398-0.203,0.812-0.359,1.235
					c-0.135,0.429-0.305,0.868-0.513,1.312c-0.182,0.454-0.436,0.898-0.689,1.359c-0.535,0.904-1.179,1.839-2.049,2.656
					c-0.848,0.825-1.859,1.603-3.063,2.118c-0.288,0.15-0.604,0.25-0.918,0.355c-0.313,0.109-0.628,0.211-0.96,0.266
					c-0.329,0.057-0.655,0.153-0.991,0.169l-0.504,0.036l-0.252,0.016l-0.126,0.008l-0.063,0.004l-0.032,0.002l-0.016,0.001
					l-0.145-0.003l-0.795-0.056c-0.113-0.002-0.293-0.03-0.483-0.065l-0.547-0.102c-0.381-0.064-0.695-0.168-1.004-0.275
					c-0.314-0.105-0.63-0.205-0.918-0.355c-1.204-0.515-2.215-1.293-3.063-2.118c-0.87-0.817-1.514-1.752-2.049-2.656
					c-0.253-0.461-0.506-0.905-0.689-1.359c-0.208-0.444-0.377-0.883-0.513-1.312c-0.156-0.423-0.271-0.837-0.359-1.235
					c-0.102-0.395-0.174-0.773-0.22-1.132c-0.128-0.711-0.155-1.337-0.191-1.85c-0.036-0.512,0.006-0.916,0.004-1.189
					c0.008-0.273,0.012-0.419,0.012-0.419c0.023-0.827,0.712-1.479,1.539-1.456c0.762,0.021,1.375,0.607,1.449,1.345l0.011,0.111
					c0,0,0.049,0.484,0.165,1.31c0.076,0.411,0.147,0.912,0.312,1.464c0.064,0.281,0.153,0.572,0.268,0.871
					c0.101,0.304,0.201,0.623,0.348,0.938c0.124,0.325,0.276,0.652,0.457,0.975c0.157,0.337,0.373,0.65,0.578,0.979
					c0.437,0.636,0.946,1.267,1.547,1.799c0.59,0.545,1.268,1.005,1.996,1.306c0.176,0.097,0.365,0.145,0.551,0.205
					c0.189,0.065,0.377,0.128,0.521,0.141l0.233,0.05c0.069,0.021,0.15,0.042,0.303,0.045l0.795,0.047
					c-0.256-0.009-0.066-0.003-0.12-0.005l0.009-0.001l0.018-0.001l0.036-0.003l0.073-0.005l0.146-0.01l0.291-0.015
					c0.196,0.002,0.383-0.068,0.575-0.093c0.194-0.022,0.38-0.086,0.565-0.15c0.186-0.06,0.376-0.108,0.551-0.205
					c0.727-0.301,1.406-0.761,1.996-1.306c0.601-0.532,1.11-1.163,1.547-1.799c0.206-0.329,0.421-0.641,0.578-0.979
					c0.181-0.323,0.332-0.65,0.457-0.975c0.147-0.316,0.247-0.635,0.348-0.938c0.115-0.299,0.204-0.59,0.268-0.871
					c0.167-0.565,0.231-1.024,0.308-1.412c0.071-0.392,0.096-0.808,0.128-1.04c0.027-0.248,0.042-0.381,0.042-0.381
					c0.091-0.825,0.834-1.421,1.66-1.329C72.858,39.198,73.42,39.826,73.442,40.563z"/>
			</g>
			<g>
				<path d="M91.832,37.783c0,0,0.007,0.142,0.02,0.408c0.003,0.275,0.054,0.636,0.033,1.171c-0.012,0.531-0.025,1.184-0.097,1.899
					c-0.052,0.724-0.161,1.539-0.344,2.418c-0.179,0.88-0.411,1.83-0.754,2.818c-0.318,0.992-0.766,2.025-1.34,3.053
					c-0.617,1.015-1.351,2.044-2.361,2.955c-1.022,0.89-2.401,1.635-3.935,1.805l-0.573,0.06l-0.072,0.007l-0.018,0.002
					l-0.125-0.004l-0.026-0.001l-0.106-0.006l-0.212-0.012c-0.308-0.028-0.504-0.002-0.915-0.081
					c-0.363-0.063-0.749-0.12-1.089-0.207l-0.962-0.294c-1.251-0.453-2.359-1.124-3.33-1.873c-0.96-0.764-1.762-1.631-2.424-2.519
					c-0.648-0.897-1.177-1.8-1.564-2.679c-0.403-0.872-0.666-1.717-0.837-2.474c-0.077-0.382-0.161-0.735-0.213-1.067
					c-0.038-0.334-0.073-0.64-0.104-0.917c-0.077-0.551-0.027-0.993-0.042-1.288c0.001-0.296,0.001-0.455,0.001-0.455
					c0.003-0.826,0.674-1.493,1.5-1.491c0.767,0.002,1.398,0.582,1.481,1.326l0.019,0.165c0,0,0.014,0.125,0.041,0.358
					c0.038,0.232,0.038,0.576,0.129,1.003c0.04,0.213,0.084,0.449,0.132,0.707c0.059,0.254,0.149,0.524,0.228,0.814
					c0.182,0.573,0.425,1.209,0.749,1.871c0.318,0.666,0.751,1.341,1.263,2.005c0.53,0.65,1.148,1.279,1.845,1.845
					c0.712,0.542,1.505,1.003,2.342,1.335l0.639,0.208c0.202,0.055,0.376,0.075,0.564,0.126c0.138,0.06,0.515,0.055,0.768,0.083
					l0.212,0.015l0.106,0.008l0.026,0.002c-0.045-0.001,0.12,0.004-0.098-0.003l0.008-0.001l0.034-0.004l0.272-0.023
					c0.725-0.041,1.455-0.352,2.144-0.882c0.677-0.556,1.274-1.292,1.797-2.065c0.478-0.813,0.963-1.616,1.301-2.457
					c0.369-0.822,0.647-1.645,0.873-2.413c0.219-0.769,0.419-1.484,0.543-2.128c0.148-0.648,0.223-1.195,0.293-1.651
					c0.072-0.451,0.1-0.87,0.133-1.125c0.028-0.265,0.044-0.406,0.044-0.406c0.059-0.551,0.553-0.95,1.104-0.891
					C91.434,36.887,91.808,37.298,91.832,37.783z"/>
			</g>
		</g>
		<path style="fill:#FFFFFF;stroke:#000000;stroke-width:4;stroke-linecap:round;stroke-linejoin:round;stroke-miterlimit:10;" d="
			M18.464,31.192c11.089,6.506,26.961,9.583,44.597,9.583s33.508-3.077,44.597-9.583"/>
	</g>
</g>
<g id="Layer_1">
</g>
</svg>
