<?xml version="1.0" encoding="iso-8859-1"?>
<!-- Generator: Adobe Illustrator 19.2.0, SVG Export Plug-In . SVG Version: 6.00 Build 0)  -->
<!DOCTYPE svg PUBLIC "-//W3C//DTD SVG 1.1//EN" "http://www.w3.org/Graphics/SVG/1.1/DTD/svg11.dtd">
<svg version="1.1" xmlns="http://www.w3.org/2000/svg" xmlns:xlink="http://www.w3.org/1999/xlink" x="0px" y="0px"
	 viewBox="0 0 129.88 129.866" style="enable-background:new 0 0 129.88 129.866;" xml:space="preserve">
<g id="ali">
	<g id="ali_1_">
		<path style="fill:#FFFFFF;stroke:#000000;stroke-width:5;stroke-miterlimit:10;" d="M122.5,97.366c0,16.569-13.431,30-30,30h-60
			c-16.569,0-30-13.431-30-30v-60c0-16.569,13.431-30,30-30h60c16.569,0,30,13.431,30,30V97.366z"/>
		<g>
			<path style="fill:#FFFFFF;" d="M112.908,31.516c-19.936,28.16-52.46,66.185-52.46,66.185c-7.81,7.81-20.474,7.81-28.284,0l0,0
				c-7.81-7.81-7.81-20.474,0-28.284c0,0,35.89-30.697,63.756-50.727C111.571,7.441,123.219,16.953,112.908,31.516z"/>
			<path d="M114.532,32.684l-3.073,4.294c-1.012,1.434-2.087,2.854-3.128,4.281c-2.088,2.865-4.228,5.662-6.352,8.483l-6.459,8.384
				l-6.509,8.341c-4.369,5.536-8.782,11.035-13.23,16.506c-4.458,5.466-8.914,10.918-13.484,16.31l-0.057,0.067l-0.072,0.072
				c-2.069,2.075-4.555,3.753-7.271,4.879c-2.715,1.131-5.652,1.717-8.591,1.722c-2.939,0.005-5.88-0.57-8.602-1.693
				c-1.361-0.561-2.668-1.257-3.893-2.074c-0.612-0.41-1.202-0.85-1.774-1.313l-0.836-0.719l-0.844-0.803l-0.678-0.71l-0.758-0.872
				c-0.472-0.578-0.908-1.163-1.32-1.777c-0.818-1.226-1.514-2.533-2.075-3.895c-1.123-2.724-1.699-5.667-1.694-8.607
				c0.005-2.94,0.591-5.878,1.723-8.595c1.127-2.718,2.805-5.205,4.882-7.275l0.072-0.072l0.068-0.058
				c7.586-6.442,15.256-12.735,22.99-18.974C61.3,42.352,69.094,36.189,76.99,30.148c3.947-3.022,7.928-6.003,11.937-8.952
				l6.071-4.39c2.13-1.492,4.445-2.824,6.974-3.778c2.523-0.94,5.298-1.561,8.244-1.238c1.462,0.168,2.971,0.605,4.333,1.44
				c1.361,0.824,2.528,2.071,3.248,3.509c0.731,1.437,1.025,3.007,1.038,4.49c0.006,1.489-0.242,2.916-0.64,4.253
				c-0.802,2.681-2.137,5.039-3.653,7.191L114.532,32.684z M111.276,30.361c1.331-1.897,2.442-3.931,3.052-6.014
				c0.614-2.065,0.664-4.214-0.15-5.77c-0.779-1.557-2.417-2.516-4.43-2.725c-2.005-0.221-4.221,0.226-6.318,1.027
				c-2.113,0.806-4.132,1.964-6.053,3.323l-5.949,4.375c-3.951,2.968-7.879,5.971-11.776,9.018
				c-7.796,6.091-15.5,12.309-23.146,18.6c-7.642,6.291-15.23,12.673-22.754,19.08l0.139-0.129c-1.625,1.635-2.922,3.577-3.793,5.7
				c-0.874,2.121-1.323,4.418-1.318,6.715c0.005,2.297,0.465,4.589,1.347,6.703c0.44,1.057,0.985,2.069,1.624,3.019
				c0.32,0.472,0.669,0.935,1.021,1.374l0.525,0.615l0.675,0.713l0.579,0.55l0.65,0.563c0.445,0.362,0.903,0.706,1.377,1.028
				c0.95,0.639,1.963,1.184,3.021,1.625c2.115,0.882,4.409,1.342,6.707,1.348c2.298,0.005,4.596-0.444,6.719-1.319
				c2.124-0.872,4.068-2.169,5.703-3.796L58.6,96.12c4.557-5.329,9.12-10.688,13.623-16.082c4.507-5.394,8.98-10.817,13.408-16.274
				l6.596-8.22c2.196-2.742,4.332-5.529,6.487-8.302c2.124-2.791,4.277-5.575,6.35-8.388c1.041-1.411,2.099-2.792,3.124-4.228
				l3.095-4.277L111.276,30.361z"/>
		</g>
		<g>
			<path d="M44.97,81.714l57.32-56.524c0.664-0.654,1.732-0.647,2.386,0.017c0.649,0.658,0.646,1.714,0,2.37l-56.524,57.32
				c-0.873,0.885-2.297,0.895-3.182,0.022s-0.895-2.297-0.022-3.182C44.952,81.731,44.966,81.718,44.97,81.714z"/>
		</g>
		<g>
			<circle style="fill:#FFFFFF;" cx="107.5" cy="22.366" r="20"/>
			<path d="M129.877,22.486c0,0-0.03,0.49-0.086,1.408c-0.021,0.239-0.015,0.464-0.062,0.79c-0.05,0.329-0.105,0.688-0.165,1.077
				c-0.066,0.384-0.119,0.814-0.216,1.237c-0.11,0.413-0.226,0.852-0.35,1.316c-0.538,1.832-1.379,4.04-2.888,6.242
				c-1.483,2.204-3.558,4.447-6.292,6.241c-2.733,1.777-6.114,3.086-9.82,3.499c-0.461,0.067-0.931,0.056-1.401,0.086l-0.708,0.029
				l-0.356,0.014l-0.188-0.004l-0.081-0.005l-0.162-0.01c-0.879-0.064-1.681-0.055-2.747-0.254
				c-2.052-0.269-3.889-0.868-5.774-1.667c-1.862-0.811-3.596-1.952-5.213-3.261c-1.589-1.351-2.989-2.944-4.202-4.689
				c-1.18-1.772-2.089-3.734-2.752-5.784c-0.627-2.067-0.918-4.226-0.971-6.387l0.07-1.575c-0.001-0.461,0.081-1.036,0.162-1.601
				c0.121-1.152,0.406-2.184,0.671-3.233c0.64-2.065,1.529-4.048,2.696-5.846c1.197-1.773,2.595-3.394,4.191-4.768
				c1.622-1.334,3.366-2.501,5.243-3.336c1.875-0.816,3.815-1.458,5.779-1.718c0.973-0.197,1.953-0.207,2.918-0.272l0.181-0.01
				l0.09-0.005L107.488,0l0.161,0.004l0.323,0.013l0.643,0.026c0.444,0.028,0.814,0.009,1.31,0.075
				c0.971,0.144,1.999,0.228,2.86,0.482c0.446,0.111,0.889,0.221,1.328,0.331c0.428,0.149,0.852,0.297,1.272,0.443
				c1.688,0.583,3.205,1.422,4.61,2.294c2.768,1.829,4.851,4.127,6.303,6.383c1.485,2.251,2.292,4.489,2.8,6.338
				c0.116,0.468,0.225,0.91,0.328,1.327c0.088,0.419,0.129,0.82,0.188,1.189c0.115,0.739,0.198,1.369,0.199,1.885
				c0.042,1.028,0.064,1.576,0.064,1.576L129.877,22.486z M125.12,22.366c0,0-0.027-0.432-0.078-1.242
				c-0.002-0.407-0.082-0.901-0.184-1.479c-0.052-0.288-0.085-0.603-0.16-0.93c-0.087-0.324-0.18-0.669-0.279-1.033
				c-0.427-1.438-1.077-3.176-2.271-4.907c-1.177-1.728-2.79-3.51-4.924-4.967c-1.083-0.694-2.247-1.384-3.557-1.862
				c-0.326-0.123-0.654-0.247-0.985-0.372c-0.342-0.092-0.687-0.184-1.034-0.277c-0.71-0.232-1.355-0.262-2.044-0.41
				c-0.337-0.066-0.822-0.063-1.229-0.098l-0.642-0.039l-0.322-0.02c-0.12-0.003,0.118,0.001,0.081,0.002l-0.036,0.002l-0.071,0.003
				l-0.143,0.006c-0.762,0.044-1.542,0.019-2.312,0.168c-1.56,0.163-3.099,0.651-4.605,1.26c-1.508,0.628-2.913,1.536-4.24,2.57
				c-1.303,1.073-2.448,2.356-3.444,3.763c-0.966,1.431-1.707,3.016-2.262,4.673c-0.224,0.845-0.479,1.7-0.574,2.502
				c-0.071,0.404-0.155,0.797-0.166,1.32l-0.079,1.366c0.038,1.764,0.255,3.522,0.75,5.209c0.532,1.671,1.254,3.278,2.207,4.735
				c0.979,1.436,2.123,2.746,3.432,3.842c1.332,1.059,2.748,1.993,4.271,2.645c0.364,0.2,0.769,0.296,1.149,0.449
				c0.387,0.133,0.761,0.303,1.161,0.382c0.393,0.1,0.784,0.2,1.174,0.3c0.388,0.097,0.753,0.115,1.126,0.18
				c0.677,0.147,1.635,0.142,2.483,0.187l0.162,0.007l0.081,0.003l0.04,0.002c0.037,0.002-0.173-0.006-0.067-0.004l0.29-0.019
				l0.576-0.036c0.382-0.033,0.766-0.022,1.138-0.087c3.002-0.388,5.703-1.495,7.871-2.972c2.168-1.491,3.789-3.328,4.935-5.109
				c1.17-1.779,1.787-3.547,2.184-5.003c0.091-0.368,0.176-0.716,0.257-1.044c0.067-0.322,0.087-0.608,0.132-0.882
				c0.041-0.271,0.079-0.522,0.114-0.752c0.035-0.233,0.028-0.525,0.043-0.744c0.037-0.919,0.056-1.41,0.056-1.41L125.12,22.366z"/>
		</g>
	</g>
</g>
<g id="Layer_1">
</g>
</svg>
