<?xml version="1.0" encoding="iso-8859-1"?>
<!-- Generator: Adobe Illustrator 19.2.0, SVG Export Plug-In . SVG Version: 6.00 Build 0)  -->
<!DOCTYPE svg PUBLIC "-//W3C//DTD SVG 1.1//EN" "http://www.w3.org/Graphics/SVG/1.1/DTD/svg11.dtd">
<svg version="1.1" xmlns="http://www.w3.org/2000/svg" xmlns:xlink="http://www.w3.org/1999/xlink" x="0px" y="0px"
	 viewBox="0 0 125 125" style="enable-background:new 0 0 125 125;" xml:space="preserve">
<g id="seme">
	<g id="seme_1_">
		<circle style="fill:#FFFFFF;stroke:#000000;stroke-width:5;stroke-miterlimit:10;" cx="62.5" cy="62.5" r="60"/>
		<g>
			<path d="M121.904,51.551c0,0-0.272,0.072-0.782,0.207c-0.551,0.14-1.313,0.327-2.316,0.518c-0.998,0.191-2.217,0.383-3.621,0.54
				c-1.423,0.144-2.953,0.284-4.775,0.272c-0.844-0.02-1.665,0.004-2.621-0.054c-0.951-0.074-1.97-0.092-2.952-0.232
				c-1.992-0.198-4.084-0.583-6.228-1.118c-2.133-0.597-4.318-1.36-6.459-2.447c-2.127-1.102-4.248-2.522-5.996-4.608
				c-0.829-1.087-1.626-2.282-2.039-3.728c-0.101-0.359-0.223-0.71-0.284-1.079l-0.113-1.127l-0.022-0.282l-0.01-0.141l-0.005-0.07
				l-0.002-0.035l0.014-0.268l0.042-0.408l0.085-0.815c0.169-0.73,0.394-1.677,0.703-2.293c0.317-0.623,0.607-1.282,1.02-1.795
				l0.586-0.807c0.2-0.26,0.429-0.474,0.643-0.71l0.653-0.684c0.227-0.207,0.462-0.395,0.692-0.591
				c1.854-1.539,3.807-2.652,5.719-3.431c1.909-0.787,3.75-1.368,5.466-1.76c0.857-0.204,1.679-0.39,2.468-0.508
				c0.786-0.14,1.534-0.256,2.24-0.317c1.408-0.174,2.638-0.228,3.649-0.275c1.011-0.058,1.806-0.007,2.347-0.014
				c0.541,0.006,0.829,0.009,0.829,0.009v4c0,0-0.265,0.018-0.762,0.05c-0.496,0.044-1.227,0.056-2.147,0.157
				c-0.921,0.096-2.039,0.206-3.301,0.436c-0.637,0.085-1.299,0.243-2,0.388c-0.706,0.128-1.43,0.321-2.182,0.528
				c-1.509,0.397-3.092,0.965-4.677,1.681c-1.581,0.722-3.144,1.639-4.466,2.77l-0.495,0.425L90.379,34.4
				c-0.137,0.157-0.302,0.302-0.421,0.466l-0.342,0.493c-0.271,0.318-0.377,0.672-0.562,1.003c-0.116,0.185-0.102,0.291-0.149,0.415
				c-0.035,0.132-0.095,0.211-0.146,0.382l-0.076,0.815l-0.038,0.409c0.005-0.1-0.013,0.259,0.01-0.217l0.003,0.016l0.005,0.032
				l0.01,0.064l0.018,0.128c0.022,0.17,0.039,0.341,0.048,0.513c0.027,0.172,0.111,0.339,0.152,0.512
				c0.166,0.694,0.623,1.377,1.11,2.057c1.087,1.335,2.684,2.493,4.412,3.397c1.742,0.904,3.616,1.584,5.474,2.124
				c1.872,0.51,3.724,0.919,5.516,1.144c0.899,0.157,1.737,0.184,2.568,0.28c0.829,0.079,1.741,0.082,2.556,0.125
				c1.499,0.044,3.014,0.012,4.279-0.068c1.284-0.084,2.399-0.206,3.311-0.337c0.908-0.131,1.636-0.251,2.098-0.341
				c0.501-0.1,0.768-0.154,0.768-0.154L121.904,51.551z"/>
		</g>
		<g>
			<path d="M120.984,75.675c0,0-0.267-0.054-0.768-0.154c-0.462-0.09-1.19-0.212-2.098-0.342c-0.912-0.132-2.027-0.255-3.311-0.339
				c-1.265-0.08-2.78-0.115-4.28-0.068c-0.815,0.043-1.727,0.046-2.556,0.125c-0.831,0.095-1.668,0.123-2.568,0.279
				c-1.791,0.226-3.645,0.63-5.516,1.145c-1.857,0.542-3.732,1.221-5.474,2.125c-1.729,0.904-3.326,2.062-4.414,3.397
				c-0.487,0.68-0.945,1.363-1.111,2.058c-0.041,0.173-0.12,0.341-0.145,0.513c-0.01,0.172-0.026,0.343-0.048,0.513l-0.018,0.128
				l-0.01,0.064l-0.005,0.032l-0.003,0.016c-0.023-0.477-0.005-0.118-0.01-0.218l0.038,0.409l0.075,0.815
				c0.051,0.171,0.111,0.249,0.146,0.381c0.046,0.124,0.032,0.229,0.149,0.414c0.185,0.332,0.291,0.685,0.561,1.003l0.341,0.493
				c0.118,0.163,0.284,0.309,0.42,0.466l0.424,0.465l0.495,0.425c1.32,1.134,2.887,2.044,4.467,2.766
				c1.584,0.717,3.166,1.285,4.675,1.683c0.752,0.207,1.476,0.4,2.182,0.529c0.701,0.144,1.363,0.302,1.999,0.388
				c1.262,0.231,2.38,0.342,3.301,0.438c0.92,0.101,1.651,0.113,2.147,0.158c0.497,0.033,0.762,0.051,0.762,0.051v4
				c0,0-0.288,0.003-0.829,0.01c-0.541-0.006-1.336,0.045-2.347-0.013c-1.011-0.046-2.242-0.099-3.65-0.272
				c-0.706-0.06-1.454-0.177-2.24-0.318c-0.789-0.117-1.611-0.303-2.469-0.507c-1.717-0.391-3.557-0.972-5.467-1.758
				c-1.913-0.779-3.862-1.898-5.718-3.434c-0.23-0.196-0.465-0.384-0.692-0.591l-0.653-0.684c-0.214-0.236-0.443-0.45-0.643-0.71
				l-0.586-0.808c-0.413-0.513-0.703-1.172-1.02-1.795c-0.309-0.616-0.534-1.563-0.704-2.294l-0.085-0.815l-0.043-0.408
				l-0.014-0.269l0.002-0.035l0.005-0.07l0.01-0.141l0.022-0.282l0.113-1.128c0.063-0.369,0.19-0.719,0.291-1.078
				c0.413-1.446,1.209-2.64,2.038-3.728c1.747-2.086,3.868-3.506,5.995-4.608c2.141-1.086,4.325-1.851,6.458-2.446
				c2.146-0.531,4.236-0.919,6.228-1.117c0.982-0.141,2-0.159,2.951-0.233c0.956-0.058,1.777-0.034,2.621-0.055
				c1.822-0.009,3.352,0.128,4.775,0.272c1.404,0.156,2.623,0.347,3.621,0.538c1.003,0.191,1.766,0.378,2.317,0.517
				c0.51,0.135,0.782,0.207,0.782,0.207L120.984,75.675z"/>
		</g>
		<g>
			<path d="M60.982,80.195c0,0-0.021,0.554-0.06,1.592c-0.14,1.27-0.39,2.983-1.249,5.009c-0.872,2.005-2.359,4.317-4.742,6.27
				c-2.378,1.914-5.689,3.463-9.495,3.643l-0.713,0.037l-0.09,0.004l-0.045,0.002l-0.154-0.004l-0.156-0.008l-0.313-0.016
				l-0.63-0.032c-0.201-0.006-0.423-0.021-0.701-0.066c-0.516-0.077-1.062-0.141-1.565-0.251c-0.487-0.126-0.978-0.254-1.474-0.383
				c-1.955-0.611-3.86-1.617-5.544-2.991c-3.387-2.711-5.801-7.065-6.082-11.818l-0.043-0.889l-0.005-0.111l-0.002-0.056l0-0.131
				l0.006-0.193l0.013-0.387l0.026-0.776c0.018-0.28,0.057-0.606,0.087-0.908c0.112-1.243,0.387-2.383,0.753-3.574
				c0.776-2.356,2.194-4.485,3.802-6.226c1.616-1.755,3.409-3.199,5.221-4.541c1.817-1.338,3.67-2.573,5.526-3.781
				c1.829-1.191,3.596-2.371,5.293-3.62c1.689-1.247,3.286-2.553,4.588-3.972c1.302-1.422,2.29-2.938,2.843-4.601
				c0.535-1.654,0.719-3.529,0.612-5.342c-0.201-3.402-1.953-6.619-4.434-8.592c-2.467-2.034-5.543-2.871-8.311-2.704
				c-2.784,0.095-5.207,1.204-6.979,2.59c-1.786,1.398-2.934,3.082-3.619,4.554c-0.695,1.482-0.929,2.765-1.071,3.632
				c-0.071,0.881-0.108,1.351-0.108,1.351l-0.014,0.173c-0.088,1.099-1.051,1.918-2.15,1.83c-1.047-0.084-1.841-0.969-1.837-2.003
				c0,0,0.004-0.622,0.07-1.789c0.136-1.156,0.377-2.884,1.241-4.913c0.872-2.005,2.358-4.318,4.742-6.27
				c2.379-1.914,5.688-3.463,9.497-3.643c1.885-0.102,3.881,0.108,5.84,0.716c1.955,0.611,3.86,1.617,5.544,2.991
				c3.388,2.725,5.799,7.033,6.083,11.85c0.124,2.274-0.076,4.624-0.837,6.993c-0.776,2.356-2.194,4.485-3.802,6.226
				c-1.616,1.755-3.409,3.199-5.221,4.541c-1.813,1.335-3.688,2.585-5.526,3.781c-3.59,2.366-7.243,4.756-9.881,7.593
				c-1.302,1.422-2.29,2.938-2.843,4.601c-0.251,0.826-0.473,1.736-0.542,2.571c-0.021,0.217-0.053,0.406-0.07,0.644l-0.026,0.776
				l-0.013,0.387l-0.006,0.193c-0.001,0.034,0.003-0.118,0.002-0.035l0.002,0.041l0.005,0.082l0.034,0.651
				c0.205,3.467,1.954,6.637,4.436,8.624c1.232,1.003,2.62,1.737,4.043,2.182c0.361,0.093,0.719,0.186,1.073,0.277
				c0.345,0.075,0.659,0.102,0.985,0.166c0.142,0.035,0.343,0.05,0.565,0.057l0.63,0.032l0.313,0.016l0.156,0.008
				c0.114,0.003-0.111-0.001-0.077-0.002l0.033-0.002l0.066-0.003l0.523-0.025c2.787-0.095,5.208-1.205,6.981-2.591
				c1.788-1.397,2.935-3.083,3.619-4.555c0.7-1.486,0.924-2.784,1.062-3.537c0.077-1.009,0.119-1.548,0.119-1.548l0.002-0.025
				c0.084-1.101,1.046-1.926,2.147-1.841C60.21,78.208,61.021,79.128,60.982,80.195z"/>
		</g>
	</g>
</g>
<g id="Layer_1">
</g>
</svg>
