<?xml version="1.0" encoding="iso-8859-1"?>
<!-- Generator: Adobe Illustrator 19.2.0, SVG Export Plug-In . SVG Version: 6.00 Build 0)  -->
<!DOCTYPE svg PUBLIC "-//W3C//DTD SVG 1.1//EN" "http://www.w3.org/Graphics/SVG/1.1/DTD/svg11.dtd">
<svg version="1.1" xmlns="http://www.w3.org/2000/svg" xmlns:xlink="http://www.w3.org/1999/xlink" x="0px" y="0px"
	 viewBox="0 0 140 140" style="enable-background:new 0 0 140 140;" xml:space="preserve">
<g id="noka">
	<g id="noka_3_">
		<g>
			
				<ellipse transform="matrix(0.9905 -0.1379 0.1379 0.9905 -4.2745 4.5026)" style="fill:#FFFFFF;" cx="30.37" cy="33.111" rx="12.608" ry="15.333"/>
			<path d="M44.848,31.18c0,0,0.031,0.342,0.09,0.984c0.015,0.16,0.031,0.34,0.049,0.537c0.005,0.228,0.01,0.477,0.016,0.746
				c0.009,0.544,0.023,1.175-0.045,1.828c-0.068,1.332-0.349,2.948-0.933,4.729c-0.588,1.778-1.555,3.714-3.064,5.54
				c-0.738,0.924-1.678,1.76-2.722,2.532c-1.085,0.718-2.288,1.383-3.644,1.77c-0.329,0.126-0.679,0.181-1.027,0.257l-0.525,0.107
				l-0.264,0.052l-0.351,0.035c-0.302,0.025-0.606,0.05-0.911,0.075c-0.295,0.03-0.762-0.003-1.139-0.011
				c-1.571-0.07-2.996-0.387-4.404-0.985c-1.396-0.574-2.718-1.368-3.87-2.359c-1.17-0.973-2.213-2.109-3.079-3.369
				c-0.895-1.243-1.608-2.615-2.168-4.045l-0.403-1.081l-0.316-1.109c-0.114-0.369-0.199-0.743-0.266-1.122l-0.11-0.566
				l-0.055-0.283l-0.027-0.142l-0.014-0.071l-0.007-0.035l-0.018-0.128l-0.116-1.024L15.47,33.53l-0.024-0.605l-0.033-1.221
				l0.062-1.159c0.108-1.541,0.382-3.078,0.872-4.551c0.456-1.481,1.128-2.899,1.978-4.201c0.832-1.312,1.892-2.488,3.097-3.474
				c1.187-1.01,2.585-1.768,4.034-2.263c0.72-0.273,1.465-0.423,2.203-0.56l0.138-0.027l0.069-0.013l0.034-0.007l0.183-0.02
				l0.226-0.017l0.449-0.035c0.31-0.019,0.548-0.06,0.996-0.038c0.401,0.01,0.8,0.024,1.194,0.053
				c0.38,0.038,0.712,0.114,1.065,0.173c0.704,0.097,1.349,0.347,2,0.534c1.252,0.489,2.427,1.053,3.399,1.789
				c1.983,1.424,3.403,3.119,4.416,4.723c1.006,1.613,1.666,3.125,2.076,4.401c0.234,0.63,0.369,1.212,0.493,1.717
				c0.137,0.501,0.216,0.935,0.266,1.288c0.113,0.704,0.174,1.079,0.174,1.079L44.848,31.18z M40.876,31.649
				c0,0-0.062-0.301-0.179-0.865c-0.05-0.284-0.127-0.629-0.257-1.025c-0.116-0.399-0.239-0.86-0.45-1.35
				c-0.348-1.006-0.963-2.152-1.814-3.324c-0.854-1.165-2-2.341-3.438-3.231c-0.71-0.461-1.495-0.817-2.319-1.111
				c-0.424-0.091-0.84-0.261-1.282-0.292c-0.214-0.025-0.449-0.077-0.648-0.089c-0.188,0.003-0.375-0.01-0.564-0.026
				c-0.143-0.037-0.496,0.007-0.784,0.026l-0.449,0.035l-0.226,0.017c-0.145,0.016,0.165-0.019,0.126-0.014l-0.021,0.005
				l-0.042,0.009l-0.085,0.018c-0.453,0.091-0.914,0.171-1.356,0.347c-0.893,0.305-1.765,0.768-2.559,1.409
				c-0.801,0.623-1.547,1.395-2.152,2.312c-0.627,0.897-1.157,1.91-1.527,3.005c-0.403,1.082-0.647,2.246-0.768,3.43l-0.079,0.892
				l-0.005,0.837l-0.006,0.425l0.042,0.514l0.084,1.027c-0.02-0.177-0.003-0.033-0.006-0.065l0.005,0.028l0.01,0.056l0.019,0.112
				l0.038,0.224l0.074,0.448c0.041,0.301,0.099,0.598,0.183,0.888l0.22,0.879l0.293,0.853c0.404,1.13,0.927,2.214,1.589,3.185
				c0.633,0.993,1.409,1.868,2.261,2.607c0.839,0.761,1.786,1.347,2.76,1.773c0.482,0.237,0.988,0.368,1.483,0.522
				c0.489,0.085,1.042,0.232,1.457,0.224c0.242,0.002,0.392,0.057,0.708,0.031c0.306-0.022,0.61-0.044,0.912-0.066l0.113-0.008
				l0.057-0.004l0.028-0.002c0.037-0.003-0.214,0.022-0.097,0.009l0.18-0.037l0.358-0.072c0.237-0.05,0.48-0.075,0.703-0.166
				c0.929-0.247,1.759-0.709,2.534-1.198c0.74-0.548,1.434-1.132,1.987-1.819c1.15-1.334,1.867-2.861,2.32-4.256
				c0.442-1.405,0.662-2.694,0.7-3.764c0.054-0.545,0.031-0.988,0.025-1.379c-0.003-0.198-0.006-0.381-0.008-0.549
				c-0.02-0.197-0.038-0.376-0.055-0.536c-0.066-0.641-0.101-0.983-0.101-0.983L40.876,31.649z"/>
		</g>
		<g>
			
				<ellipse transform="matrix(0.9963 -0.0855 0.0855 0.9963 -2.56 4.7428)" style="fill:#FFFFFF;" cx="54.079" cy="32.253" rx="14.667" ry="16"/>
			<path d="M70.762,30.917c0,0,0.012,0.376,0.034,1.082c0.005,0.178,0.01,0.377,0.016,0.596c-0.013,0.255-0.027,0.534-0.043,0.835
				c-0.018,0.301-0.038,0.624-0.059,0.969c-0.048,0.326-0.1,0.671-0.154,1.037c-0.218,1.455-0.672,3.212-1.569,5.07
				c-0.88,1.86-2.218,3.815-4.099,5.556c-1.866,1.748-4.404,3.147-7.301,3.809c-0.357,0.108-0.733,0.125-1.103,0.19l-0.56,0.079
				l-0.281,0.039l-0.361,0.017c-0.668,0.017-1.285,0.072-2.177-0.017c-0.855-0.028-1.607-0.194-2.393-0.338
				c-0.389-0.081-0.767-0.213-1.154-0.32c-0.389-0.104-0.77-0.234-1.139-0.398c-3.017-1.17-5.715-3.321-7.661-6.042
				c-1.985-2.709-3.174-6.008-3.535-9.381c-0.035-1-0.13-1.464-0.072-2.481c0.022-0.445,0.024-0.911,0.072-1.34l0.171-1.267
				c0.305-1.672,0.744-3.335,1.489-4.866c1.407-3.087,3.699-5.763,6.528-7.504c1.403-0.876,2.921-1.553,4.484-1.935
				c0.772-0.234,1.562-0.326,2.34-0.438l0.146-0.02l0.073-0.01l0.036-0.005l0.169-0.01l0.248-0.009l0.493-0.018l0.49-0.018
				l0.244-0.009l0.309,0.016c0.823,0.044,1.662,0.107,2.362,0.275c0.737,0.119,1.435,0.333,2.118,0.557
				c0.69,0.202,1.316,0.531,1.954,0.791c0.602,0.329,1.206,0.638,1.745,1.012c2.187,1.47,3.811,3.266,4.958,5.008
				c1.161,1.742,1.857,3.432,2.297,4.844c0.108,0.354,0.21,0.69,0.306,1.006c0.069,0.322,0.133,0.624,0.194,0.905
				c0.13,0.56,0.212,1.04,0.244,1.434c0.09,0.784,0.138,1.202,0.138,1.202L70.762,30.917z M66.628,31.176
				c0,0-0.051-0.328-0.147-0.944c-0.033-0.31-0.113-0.685-0.233-1.118c-0.054-0.218-0.112-0.452-0.174-0.702
				c-0.085-0.242-0.175-0.5-0.27-0.772c-0.165-0.553-0.459-1.121-0.745-1.748c-0.35-0.595-0.709-1.248-1.198-1.871
				c-0.946-1.26-2.222-2.527-3.844-3.5c-0.402-0.247-0.842-0.439-1.266-0.68c-0.457-0.162-0.896-0.404-1.381-0.527
				c-0.932-0.322-2.032-0.466-2.909-0.533l-0.176-0.021l-0.244,0.006l-0.49,0.012l-0.493,0.012l-0.248,0.006
				c-0.132,0.008,0.145-0.01,0.108-0.006l-0.025,0.004l-0.05,0.007l-0.101,0.015c-0.536,0.079-1.087,0.122-1.619,0.287
				c-1.083,0.244-2.137,0.706-3.131,1.31c-1.991,1.205-3.704,3.099-4.824,5.366c-0.593,1.122-0.945,2.373-1.217,3.635l-0.157,0.961
				c-0.045,0.316-0.045,0.605-0.075,0.91c-0.09,0.484,0.004,1.526-0.009,2.03c0.211,2.619,1.046,5.194,2.516,7.321
				c1.457,2.123,3.485,3.793,5.718,4.705c0.273,0.133,0.555,0.234,0.843,0.313c0.286,0.083,0.565,0.194,0.853,0.257
				c0.577,0.11,1.167,0.256,1.674,0.273c0.461,0.081,1.189,0.041,1.848,0.022l0.124-0.004l0.062-0.002l0.031-0.001
				c0.035-0.001-0.19,0.01-0.082,0.003l0.209-0.031l0.417-0.059c0.275-0.05,0.558-0.049,0.822-0.135
				c2.148-0.49,4.057-1.505,5.488-2.842c1.456-1.315,2.454-2.873,3.124-4.328c0.68-1.46,1.016-2.845,1.167-3.992
				c0.039-0.286,0.076-0.558,0.111-0.813c0.01-0.241,0.02-0.467,0.029-0.677c0.012-0.21,0.023-0.404,0.033-0.582
				c-0.009-0.214-0.017-0.409-0.024-0.583c-0.033-0.705-0.051-1.081-0.051-1.081L66.628,31.176z"/>
		</g>
		<g>
			<ellipse style="fill:#FFFFFF;" cx="77.58" cy="29.419" rx="16.833" ry="18.833"/>
			<path d="M96.411,29.51c0,0-0.022,0.437-0.063,1.257c-0.011,0.206-0.023,0.436-0.036,0.688c-0.038,0.286-0.079,0.598-0.124,0.935
				c-0.048,0.337-0.099,0.699-0.153,1.085c-0.07,0.375-0.17,0.755-0.263,1.166c-0.368,1.636-1.037,3.591-2.193,5.639
				c-1.155,2.038-2.774,4.208-5.066,6.046c-2.256,1.866-5.273,3.262-8.648,3.776c-0.418,0.095-0.85,0.084-1.28,0.124l-0.649,0.041
				l-0.326,0.02l-0.408-0.014c-0.386-0.018-0.774-0.036-1.164-0.053l-0.293-0.013l-0.35-0.05l-0.704-0.107
				c-0.974-0.116-1.811-0.397-2.7-0.64c-0.848-0.334-1.738-0.621-2.543-1.086c-1.67-0.824-3.192-1.971-4.551-3.288
				c-1.385-1.302-2.534-2.855-3.502-4.513c-0.995-1.652-1.682-3.479-2.208-5.343l-0.341-1.417c-0.095-0.476-0.151-0.959-0.227-1.439
				c-0.08-0.481-0.138-0.963-0.151-1.449l-0.041-0.728l-0.02-0.364l-0.01-0.182l-0.005-0.091l-0.002-0.046
				c0-0.063-0.004,0.076,0-0.152L58.436,28l0.027-0.663l0.09-0.763c0.066-0.505,0.117-1.026,0.206-1.516l0.313-1.429
				c0.49-1.884,1.146-3.74,2.117-5.429c0.942-1.698,2.087-3.289,3.472-4.635c1.36-1.363,2.902-2.546,4.604-3.399
				c0.82-0.48,1.727-0.782,2.593-1.128c0.902-0.257,1.788-0.551,2.706-0.657c0.905-0.183,1.815-0.203,2.712-0.241l0.168-0.007
				l0.084-0.003l0.042-0.002l0.177,0.005l0.288,0.02l0.573,0.039c0.405,0.04,0.699,0.018,1.203,0.116
				c0.924,0.149,1.85,0.305,2.629,0.574c0.824,0.209,1.582,0.554,2.33,0.88c0.747,0.326,1.424,0.758,2.104,1.14
				c0.629,0.459,1.289,0.857,1.846,1.353c2.303,1.902,3.925,4.117,5.037,6.206c1.114,2.095,1.764,4.066,2.104,5.716
				c0.086,0.413,0.181,0.801,0.244,1.17c0.047,0.372,0.09,0.72,0.131,1.045c0.039,0.324,0.076,0.624,0.109,0.899
				c0.01,0.276,0.02,0.527,0.028,0.752c0.028,0.898,0.043,1.377,0.043,1.377L96.411,29.51z M92.413,29.419
				c0,0-0.024-0.396-0.07-1.139c-0.011-0.185-0.023-0.392-0.037-0.62c-0.035-0.225-0.073-0.471-0.114-0.737
				c-0.04-0.266-0.082-0.551-0.128-0.855c-0.06-0.301-0.15-0.616-0.228-0.951c-0.314-1.338-0.873-2.934-1.844-4.567
				c-0.955-1.634-2.315-3.316-4.125-4.698c-0.436-0.367-0.953-0.633-1.434-0.97c-0.525-0.256-1.036-0.569-1.598-0.783
				c-0.561-0.216-1.125-0.449-1.728-0.583c-0.611-0.201-1.16-0.252-1.719-0.355l-0.211-0.039l-0.279-0.015l-0.57-0.026l-0.573-0.026
				l-0.288-0.013c-0.136-0.004,0.144,0.003,0.104,0.003l-0.03,0.002l-0.061,0.005l-0.121,0.01c-0.646,0.05-1.302,0.065-1.947,0.222
				c-0.657,0.084-1.288,0.318-1.939,0.492c-0.621,0.268-1.279,0.466-1.873,0.832c-2.449,1.283-4.622,3.402-6.112,6.012
				c-0.786,1.285-1.319,2.732-1.742,4.206l-0.273,1.124c-0.074,0.368-0.109,0.719-0.171,1.079l-0.087,0.538l-0.04,0.648
				l-0.073,1.312c0.005-0.201,0.002-0.035,0.004-0.07l0.001,0.036l0.003,0.073l0.005,0.146l0.01,0.292l0.018,0.584
				c-0.003,0.391,0.035,0.778,0.093,1.163c0.053,0.385,0.083,0.774,0.15,1.156l0.246,1.136c0.387,1.494,0.889,2.97,1.651,4.292
				c0.736,1.33,1.609,2.584,2.669,3.622c1.04,1.052,2.198,1.97,3.465,2.622c0.608,0.381,1.284,0.594,1.922,0.875
				c0.664,0.188,1.343,0.435,1.945,0.509l0.461,0.092l0.231,0.048l0.293,0.02c0.39,0.026,0.778,0.052,1.163,0.078l0.144,0.01
				l0.072,0.005l0.036,0.002c0.038,0.002-0.197-0.007-0.083-0.004l0.249-0.013l0.497-0.023c0.329-0.027,0.662,0.002,0.982-0.071
				c2.586-0.344,4.933-1.399,6.739-2.863c1.822-1.445,3.185-3.173,4.097-4.857c0.929-1.68,1.468-3.291,1.755-4.644
				c0.072-0.337,0.157-0.66,0.209-0.955c0.038-0.29,0.073-0.562,0.106-0.815c0.036-0.253,0.069-0.486,0.099-0.7
				c0.011-0.251,0.021-0.479,0.029-0.684c0.033-0.82,0.051-1.258,0.051-1.258L92.413,29.419z"/>
		</g>
		<g>
			<path style="fill:#FFFFFF;" d="M108.58,9.919c12.058,0,21.833,9.775,21.833,21.833v8.167v60c0,16.569-13.431,30-30,30h-60
				c-16.569,0-30-13.431-30-30V68.252c0-16.569,13.431-30,30-30c0,0,21.333,0,31.667,0C91.08,38.252,88.413,9.919,108.58,9.919z"/>
			<path d="M108.643,7.42c0,0,0.41,0.011,1.205,0.033c0.944,0.06,2.238,0.161,3.898,0.518c1.655,0.368,3.687,0.964,5.88,2.094
				c2.197,1.107,4.558,2.747,6.729,5.059c2.167,2.303,4.13,5.314,5.336,8.954c0.611,1.813,1.018,3.778,1.169,5.836
				c0.049,0.514,0.057,1.034,0.07,1.558c0.002,0.48,0.005,0.965,0.007,1.454c0.001,0.958,0.001,1.933,0.002,2.923
				c0.005,7.922,0.011,16.861,0.017,26.611c0.004,9.751,0.007,20.314,0.011,31.487c-0.001,1.397-0.002,2.803-0.004,4.218
				l-0.001,1.063l-0.011,1.131l-0.028,1.069l-0.083,1.193c-0.132,1.595-0.362,3.113-0.729,4.654
				c-0.347,1.535-0.82,3.051-1.408,4.529c-2.32,5.927-6.501,11.261-11.965,14.984c-2.731,1.857-5.766,3.321-8.985,4.278
				c-3.194,0.963-6.655,1.409-9.946,1.36c-6.272-0.01-12.62-0.019-19.019-0.029c-12.798-0.025-25.799-0.051-38.8-0.077l-1.219,0.002
				l-0.67-0.006l-0.609-0.015c-0.762-0.003-1.769-0.09-2.632-0.172c-1.746-0.178-3.473-0.529-5.165-0.992
				c-3.39-0.92-6.6-2.446-9.503-4.394c-5.79-3.932-10.253-9.74-12.48-16.308c-1.142-3.271-1.707-6.721-1.754-10.145
				c-0.006-3.18-0.011-6.344-0.017-9.49c-0.005-6.272-0.01-12.468-0.015-18.562l-0.002-2.281l-0.001-1.137l0-0.567l0.015-0.63
				c0.013-0.386,0.01-0.736,0.036-1.15l0.093-1.265c0.088-0.829,0.171-1.624,0.319-2.426c0.532-3.199,1.562-6.285,3.007-9.112
				c2.874-5.674,7.363-10.305,12.573-13.346c5.196-3.08,11.153-4.491,16.758-4.425c5.256,0.017,10.335,0.033,15.21,0.049
				c4.875,0.016,9.548,0.031,13.991,0.045c0.555,0.002,1.107,0.004,1.656,0.005l0.411,0.001l0.356-0.008
				c0.264-0.009,0.57-0.01,0.763-0.033c0.866-0.058,1.822-0.211,2.66-0.449c1.711-0.474,3.221-1.312,4.544-2.402
				c2.653-2.197,4.551-5.235,6.289-8.099c1.732-2.891,3.314-5.713,5.086-8.163c1.76-2.452,3.729-4.539,5.805-5.998
				c2.067-1.471,4.143-2.312,5.836-2.753c1.701-0.455,3.031-0.575,3.913-0.629c0.885-0.051,1.338-0.05,1.338-0.05L108.643,7.42z
				 M108.58,12.419c0,0-0.36-0.004-1.047,0.027c-0.686,0.032-1.701,0.115-2.95,0.436c-1.251,0.311-2.727,0.887-4.281,1.96
				c-1.557,1.066-3.16,2.684-4.741,4.83c-1.591,2.145-3.139,4.8-4.95,7.776c-0.911,1.485-1.903,3.049-3.084,4.63
				c-1.182,1.575-2.566,3.182-4.318,4.597c-1.74,1.414-3.888,2.592-6.247,3.216c-1.192,0.318-2.355,0.501-3.648,0.575
				c-0.346,0.027-0.583,0.022-0.863,0.03l-0.873,0.008c-0.548,0.002-1.1,0.004-1.656,0.005c-4.444,0.014-9.116,0.03-13.991,0.045
				c-4.875,0.016-9.954,0.032-15.21,0.049c-4.895-0.022-9.883,1.223-14.304,3.879c-4.413,2.622-8.2,6.597-10.594,11.42
				c-1.199,2.406-2.054,5.014-2.517,7.716c-0.127,0.669-0.198,1.37-0.272,2.034l-0.078,0.986c-0.024,0.338-0.024,0.743-0.037,1.112
				l-0.014,0.503l0,0.567l-0.001,1.137l-0.002,2.281c-0.005,6.094-0.01,12.29-0.015,18.562c0,3.127,0,6.272,0.001,9.434
				c0.038,2.912,0.506,5.836,1.467,8.61c1.868,5.571,5.652,10.523,10.567,13.884c2.466,1.661,5.188,2.97,8.068,3.757
				c1.437,0.396,2.904,0.701,4.391,0.856c0.754,0.066,1.367,0.143,2.23,0.152l0.609,0.016l0.548,0.006l1.219,0.002
				c13.001-0.026,26.002-0.052,38.8-0.077c6.399-0.01,12.747-0.02,19.019-0.029c5.86,0.094,11.464-1.61,16.084-4.79
				c4.613-3.155,8.141-7.674,10.086-12.672c0.495-1.247,0.891-2.525,1.18-3.819c0.307-1.28,0.503-2.622,0.605-3.883l0.069-0.947
				l0.026-1.07l0.008-0.469l0-0.533l-0.001-1.063c-0.001-1.415-0.002-2.821-0.004-4.218c0.004-11.173,0.008-21.736,0.011-31.487
				c0.006-9.751,0.012-18.689,0.017-26.611c0.001-0.99,0.001-1.965,0.002-2.923c-0.002-0.469-0.004-0.935-0.005-1.396
				c-0.011-0.417-0.014-0.831-0.054-1.239c-0.118-1.634-0.436-3.19-0.92-4.625c-0.949-2.883-2.503-5.276-4.224-7.108
				c-1.724-1.84-3.597-3.148-5.34-4.026c-1.738-0.901-3.348-1.372-4.66-1.667c-1.321-0.287-2.365-0.362-2.99-0.411
				c-0.779-0.023-1.181-0.034-1.181-0.034L108.58,12.419z"/>
		</g>
		<path style="fill:#FFFFFF;stroke:#000000;stroke-width:4;stroke-linecap:round;stroke-linejoin:round;stroke-miterlimit:10;" d="
			M86.617,67.613c-3.652,8.354-19.444,14.639-38.371,14.639c-6.802,0-13.199-0.812-18.773-2.239"/>
		<path style="fill:#FFFFFF;stroke:#000000;stroke-width:4;stroke-linecap:round;stroke-linejoin:round;stroke-miterlimit:10;" d="
			M38.904,102.077c4.787-4.82,15.156-8.158,27.176-8.158c4.866,0,9.462,0.547,13.526,1.518"/>
	</g>
</g>
<g id="Layer_1">
</g>
</svg>
