<?xml version="1.0" encoding="iso-8859-1"?>
<!-- Generator: Adobe Illustrator 19.2.0, SVG Export Plug-In . SVG Version: 6.00 Build 0)  -->
<!DOCTYPE svg PUBLIC "-//W3C//DTD SVG 1.1//EN" "http://www.w3.org/Graphics/SVG/1.1/DTD/svg11.dtd">
<svg version="1.1" xmlns="http://www.w3.org/2000/svg" xmlns:xlink="http://www.w3.org/1999/xlink" x="0px" y="0px"
	 viewBox="0 0 125 125.25" style="enable-background:new 0 0 125 125.25;" xml:space="preserve">
<g id="kiwen">
	<g id="kiwen_2_">
		<path style="fill:#FFFFFF;stroke:#000000;stroke-width:5;stroke-linecap:round;stroke-linejoin:round;stroke-miterlimit:10;" d="
			M92.5,25.997c19.25,0,30,13.431,30,30V74.5c0,33.137-26.863,48.25-60,48.25s-60-15.113-60-48.25c0,0,0-12,0-18.503
			C2.5,23.25,28.326,2.5,55.25,2.5c9.4,0,11.94,9.306,15.472,23.5L92.5,25.997z"/>
		
			<line style="fill:none;stroke:#000000;stroke-width:4;stroke-linecap:round;stroke-linejoin:round;stroke-miterlimit:10;" x1="2.5" y1="54" x2="121.75" y2="54"/>
		
			<line style="fill:none;stroke:#000000;stroke-width:4;stroke-linecap:round;stroke-linejoin:round;stroke-miterlimit:10;" x1="6.5" y1="92" x2="119.25" y2="92"/>
		<g>
			<g>
				
					<line style="fill:none;stroke:#000000;stroke-width:4;stroke-linecap:round;stroke-linejoin:round;stroke-miterlimit:10;" x1="24.459" y1="63.054" x2="48.877" y2="82.946"/>
				
					<line style="fill:none;stroke:#000000;stroke-width:4;stroke-linecap:round;stroke-linejoin:round;stroke-miterlimit:10;" x1="48.877" y1="63.054" x2="24.459" y2="82.946"/>
			</g>
			<g>
				
					<line style="fill:none;stroke:#000000;stroke-width:4;stroke-linecap:round;stroke-linejoin:round;stroke-miterlimit:10;" x1="75.373" y1="63.054" x2="99.791" y2="82.946"/>
				
					<line style="fill:none;stroke:#000000;stroke-width:4;stroke-linecap:round;stroke-linejoin:round;stroke-miterlimit:10;" x1="99.791" y1="63.054" x2="75.373" y2="82.946"/>
			</g>
		</g>
	</g>
</g>
<g id="Layer_1">
</g>
</svg>
