<?xml version="1.0" encoding="iso-8859-1"?>
<!-- Generator: Adobe Illustrator 19.2.0, SVG Export Plug-In . SVG Version: 6.00 Build 0)  -->
<!DOCTYPE svg PUBLIC "-//W3C//DTD SVG 1.1//EN" "http://www.w3.org/Graphics/SVG/1.1/DTD/svg11.dtd">
<svg version="1.1" xmlns="http://www.w3.org/2000/svg" xmlns:xlink="http://www.w3.org/1999/xlink" x="0px" y="0px"
	 viewBox="0 0 140 140" style="enable-background:new 0 0 140 140;" xml:space="preserve">
<g id="lete">
	<g id="lete_1_">
		<g>
			<path style="fill:#FFFFFF;" d="M130.413,28.256v41.788c0,33.068-26.807,59.875-59.875,59.875s-59.875-26.807-59.875-59.875
				l-0.249-41.788c0-10.127,6.716-18.337,15-18.337s15,8.21,15,18.337c0-10.127,6.716-18.337,15-18.337s15,8.21,15,18.337
				c0-10.127,6.716-18.337,15-18.337s15,8.21,15,18.337c0-10.127,6.716-18.337,15-18.337S130.413,18.128,130.413,28.256z"/>
			<path d="M132.913,28.256v40.52v1.266l-0.033,1.329c-0.032,0.856-0.015,1.656-0.102,2.574c-0.07,0.892-0.125,1.793-0.213,2.677
				l-0.332,2.617c-0.527,3.478-1.338,6.913-2.43,10.258c-2.161,6.701-5.553,12.983-9.828,18.563
				c-4.269,5.594-9.536,10.405-15.419,14.256c-5.877,3.87-12.447,6.668-19.28,8.336c-3.415,0.846-6.908,1.376-10.417,1.602
				c-0.876,0.083-1.754,0.106-2.633,0.123l-1.318,0.033l-0.329,0.008l-0.381-0.007l-0.633-0.016
				c-0.853-0.03-1.666-0.024-2.553-0.083l-2.682-0.202c-6.998-0.731-13.893-2.563-20.256-5.581
				c-6.357-3.008-12.237-7.048-17.239-11.996c-5-4.942-9.211-10.698-12.302-17.022c-3.071-6.324-5.153-13.157-5.928-20.153
				c-0.422-3.482-0.457-7.074-0.459-10.388l-0.06-10.13L7.963,36.58l-0.03-5.065l-0.015-2.532L7.914,28.35l0.023-0.751l0.049-1.265
				c0.192-1.983,0.498-3.837,1.102-5.631c0.609-1.789,1.354-3.556,2.423-5.16c1.048-1.609,2.315-3.101,3.825-4.365
				c1.522-1.247,3.27-2.267,5.177-2.928c1.889-0.678,3.996-0.936,5.956-0.759L27.1,7.538l0.81,0.143
				c0.53,0.107,1.106,0.19,1.56,0.362c0.476,0.161,0.964,0.297,1.426,0.488l1.361,0.627c1.759,0.935,3.309,2.168,4.631,3.574
				c1.337,1.402,2.352,3.035,3.206,4.711c1.703,3.377,2.372,7.133,2.319,10.797l0.001,0.015h-4.001l-0.002-1.789
				c0.013-0.597,0.096-1.192,0.144-1.79c0.146-1.189,0.353-2.381,0.69-3.545c0.142-0.589,0.352-1.159,0.571-1.727l0.323-0.854
				l0.391-0.829l0.395-0.829l0.463-0.798l0.469-0.796l0.536-0.759l0.544-0.756l0.611-0.711l0.627-0.699l0.693-0.645
				c0.449-0.443,0.951-0.833,1.467-1.208c0.494-0.401,1.055-0.72,1.608-1.048c1.11-0.65,2.325-1.139,3.58-1.503
				c0.625-0.186,1.281-0.273,1.922-0.403c0.65-0.078,1.308-0.104,1.962-0.147l0.973,0.06c0.285,0.025,0.517,0.023,0.846,0.07
				c0.688,0.125,1.431,0.229,2.066,0.416c1.255,0.364,2.471,0.852,3.581,1.501c0.553,0.329,1.114,0.646,1.608,1.047
				c0.516,0.376,1.02,0.764,1.468,1.207l0.693,0.645l0.627,0.699l0.612,0.711l0.544,0.756l0.537,0.759l0.47,0.796l0.464,0.798
				l0.395,0.829c0.274,0.548,0.518,1.107,0.715,1.683c0.218,0.569,0.429,1.138,0.571,1.727c0.337,1.164,0.545,2.355,0.691,3.544
				c0.048,0.598,0.131,1.192,0.145,1.789l-0.002,1.789l0.001,0.01h-4.001l-0.002-1.789c0.012-0.597,0.096-1.192,0.144-1.79
				c0.146-1.189,0.353-2.381,0.69-3.545c0.142-0.589,0.352-1.159,0.571-1.728l0.323-0.854l0.391-0.829l0.395-0.829l0.464-0.798
				l0.47-0.796l0.536-0.759l0.544-0.756l0.611-0.711l0.627-0.699l0.693-0.645c0.449-0.443,0.952-0.832,1.468-1.208
				c0.494-0.401,1.055-0.72,1.608-1.048c1.11-0.65,2.326-1.139,3.581-1.503c0.626-0.185,1.281-0.272,1.922-0.403
				c0.65-0.077,1.308-0.104,1.962-0.147l0.973,0.061C86.669,7.505,86.9,7.503,87.23,7.55c0.688,0.125,1.431,0.229,2.065,0.417
				c1.255,0.364,2.471,0.852,3.581,1.502c0.553,0.328,1.114,0.646,1.608,1.048c0.516,0.376,1.019,0.764,1.468,1.208l0.693,0.645
				l0.627,0.699l0.612,0.711l0.544,0.756l0.537,0.759l0.47,0.796l0.464,0.798l0.395,0.829l0.391,0.829l0.324,0.854
				c0.218,0.568,0.429,1.138,0.571,1.728c0.337,1.164,0.545,2.356,0.691,3.545c0.048,0.598,0.132,1.192,0.145,1.79l-0.002,1.789
				l0,0.005h-4l0.027-1.787c0.017-0.596,0.103-1.19,0.155-1.786c0.152-1.186,0.365-2.375,0.708-3.533
				c0.144-0.587,0.353-1.156,0.571-1.722l0.323-0.851l0.39-0.827l0.395-0.826l0.463-0.795l0.469-0.793l0.535-0.756l0.543-0.753
				l0.61-0.708l0.622-0.7l0.687-0.646c0.445-0.445,0.944-0.835,1.457-1.212c0.491-0.403,1.049-0.723,1.599-1.053
				c1.104-0.654,2.315-1.148,3.567-1.518c0.624-0.188,1.278-0.278,1.919-0.412c0.323-0.053,0.652-0.06,0.979-0.09l0.491-0.035
				l0.246-0.016l0.123-0.008l0.061-0.004l0.031-0.002l0.015-0.001l0.17,0.004c0.559,0.039,1.062,0.05,1.667,0.111
				c0.689,0.12,1.436,0.219,2.072,0.402c1.26,0.354,2.484,0.834,3.604,1.477c0.558,0.325,1.124,0.64,1.624,1.039
				c0.522,0.373,1.031,0.76,1.485,1.202l0.702,0.643l0.638,0.696l0.63,0.703l0.563,0.75l0.553,0.757l0.486,0.795l0.481,0.798
				l0.412,0.83l0.408,0.832l0.341,0.857c0.231,0.571,0.45,1.145,0.608,1.737c0.374,1.168,0.619,2.368,0.801,3.571
				c0.066,0.605,0.168,1.207,0.199,1.814L132.913,28.256z M127.913,28.256l-0.066-1.457c-0.026-0.485-0.117-0.963-0.168-1.444
				c-0.152-0.954-0.347-1.905-0.649-2.817c-0.123-0.467-0.299-0.912-0.482-1.354l-0.266-0.667l-0.322-0.637l-0.318-0.639
				l-0.373-0.603l-0.37-0.604l-0.421-0.562l-0.415-0.567l-0.465-0.518l-0.464-0.518l-0.508-0.464
				c-0.325-0.329-0.689-0.6-1.056-0.865c-0.351-0.294-0.747-0.503-1.131-0.734c-0.772-0.454-1.599-0.774-2.439-1.022
				c-0.412-0.123-0.759-0.148-1.139-0.253c-0.48-0.056-1.073-0.076-1.604-0.116c0.305,0.01,0.079,0.003,0.144,0.005l-0.01,0.001
				l-0.02,0.001l-0.041,0.002l-0.082,0.005l-0.164,0.009l-0.327,0.016c-0.218,0.015-0.439,0.005-0.655,0.036
				c-0.428,0.091-0.868,0.124-1.292,0.243c-0.849,0.232-1.689,0.538-2.477,0.981c-0.392,0.225-0.796,0.43-1.156,0.719
				c-0.376,0.261-0.749,0.529-1.084,0.855l-0.523,0.46l-0.48,0.515l-0.485,0.512l-0.436,0.563l-0.439,0.563l-0.387,0.606
				l-0.391,0.605l-0.335,0.642l-0.339,0.642l-0.283,0.672c-0.195,0.446-0.382,0.897-0.519,1.368
				c-0.333,0.921-0.56,1.884-0.743,2.855c-0.067,0.49-0.172,0.977-0.213,1.472l-0.108,1.491l-0.008,0.116
				c-0.08,1.101-1.037,1.928-2.138,1.848c-1.04-0.076-1.836-0.942-1.853-1.965l0-0.004l-0.137-1.488
				c-0.046-0.494-0.153-0.98-0.223-1.468c-0.189-0.968-0.422-1.927-0.761-2.843c-0.138-0.469-0.324-0.918-0.52-1.363l-0.283-0.669
				l-0.339-0.639l-0.335-0.64l-0.39-0.602l-0.386-0.603l-0.438-0.56l-0.435-0.56l-0.484-0.509l-0.475-0.515l-0.517-0.462
				c-0.331-0.327-0.701-0.596-1.074-0.859c-0.356-0.292-0.758-0.497-1.146-0.725c-0.782-0.447-1.617-0.758-2.462-0.996
				c-0.414-0.118-0.765-0.139-1.146-0.237c-0.209-0.035-0.528-0.036-0.787-0.055l-0.409-0.022l-0.205-0.011l-0.102-0.006
				l-0.051-0.003l-0.026-0.001l-0.013-0.001c0.065,0.002-0.163-0.005,0.142,0.004c-0.435,0.036-0.873,0.04-1.308,0.081
				c-0.427,0.094-0.866,0.13-1.288,0.253c-0.845,0.238-1.68,0.55-2.462,0.997c-0.389,0.227-0.79,0.434-1.146,0.725
				c-0.373,0.262-0.742,0.532-1.073,0.859l-0.517,0.462l-0.475,0.515l-0.484,0.509l-0.435,0.56l-0.437,0.56l-0.386,0.603
				l-0.39,0.602l-0.335,0.64l-0.339,0.639l-0.283,0.67c-0.195,0.444-0.381,0.893-0.519,1.363c-0.339,0.916-0.572,1.875-0.76,2.843
				c-0.187,0.972-0.274,1.959-0.361,2.956l-0.016,0.182c-0.095,1.098-1.062,1.912-2.161,1.817c-1.041-0.09-1.827-0.972-1.824-1.999
				l0-0.008l-0.137-1.488c-0.047-0.494-0.153-0.98-0.224-1.468c-0.189-0.968-0.422-1.926-0.761-2.842
				c-0.138-0.469-0.325-0.918-0.52-1.362c-0.173-0.455-0.386-0.888-0.622-1.308l-0.335-0.64l-0.39-0.602l-0.386-0.603l-0.438-0.559
				l-0.434-0.56l-0.484-0.509l-0.475-0.514l-0.517-0.462c-0.331-0.327-0.701-0.595-1.074-0.858
				c-0.356-0.292-0.758-0.497-1.146-0.724c-0.782-0.447-1.617-0.757-2.462-0.996c-0.414-0.117-0.764-0.138-1.145-0.237
				c-0.211-0.035-0.529-0.035-0.788-0.055l-0.409-0.022l-0.205-0.011l-0.102-0.006l-0.051-0.003l-0.026-0.001l-0.013-0.001
				c-0.142-0.004,0.179,0.005,0.142,0.005c-0.435,0.036-0.873,0.039-1.308,0.081c-0.427,0.094-0.866,0.13-1.288,0.253
				c-0.845,0.238-1.68,0.55-2.462,0.997c-0.389,0.227-0.79,0.434-1.146,0.725c-0.373,0.262-0.742,0.532-1.073,0.859l-0.517,0.462
				l-0.475,0.515l-0.483,0.51l-0.435,0.56l-0.437,0.56l-0.386,0.603l-0.39,0.602l-0.335,0.64l-0.339,0.639l-0.283,0.67
				c-0.195,0.444-0.381,0.893-0.519,1.363c-0.339,0.916-0.571,1.875-0.76,2.843c-0.187,0.972-0.274,1.959-0.36,2.956l-0.016,0.182
				c-0.095,1.099-1.063,1.912-2.161,1.817c-1.042-0.09-1.827-0.972-1.824-1.999l0-0.012c-0.13-3.077-0.89-6.106-2.328-8.725
				c-1.415-2.624-3.539-4.792-6.02-6.039l-0.951-0.407c-0.32-0.124-0.654-0.196-0.978-0.303c-0.34-0.127-0.612-0.125-0.907-0.192
				l-0.435-0.089l-0.632-0.031c-1.399-0.087-2.724,0.064-4.011,0.541c-1.279,0.455-2.487,1.16-3.574,2.055
				c-1.081,0.91-2.001,2.033-2.808,3.239c-0.823,1.202-1.4,2.578-1.89,3.971c-0.492,1.407-0.72,2.909-0.887,4.278l-0.056,1.265
				l-0.022,0.514l0.004,0.633l0.015,2.532l0.03,5.065l0.121,20.259l0.06,10.13c0.004,3.436,0.038,6.611,0.425,9.837
				c0.711,6.437,2.628,12.712,5.449,18.528c2.841,5.816,6.718,11.111,11.319,15.66c4.603,4.555,10.016,8.269,15.859,11.036
				c5.848,2.777,12.192,4.456,18.618,5.131l2.368,0.182c0.797,0.056,1.675,0.052,2.508,0.082l0.633,0.016l0.252,0.005l0.303-0.008
				l1.214-0.031c0.81-0.015,1.619-0.035,2.425-0.113c3.23-0.207,6.441-0.694,9.581-1.473c6.28-1.534,12.321-4.103,17.727-7.665
				c5.411-3.543,10.262-7.969,14.188-13.118c3.931-5.135,7.055-10.91,9.038-17.071c1.003-3.074,1.749-6.232,2.235-9.43l0.306-2.407
				l0.191-2.371c0.082-0.763,0.067-1.655,0.099-2.485l0.031-1.203v-1.266V28.256z"/>
		</g>
		<g>
			<path d="M44.571,48.862c0,0-0.002,0.796-0.005,2.189c-0.001,0.349-0.003,0.735-0.005,1.155c-0.045,0.447-0.093,0.931-0.144,1.447
				c-0.054,0.517-0.111,1.067-0.172,1.648c-0.051,0.585-0.217,1.153-0.329,1.772c-0.129,0.613-0.263,1.252-0.401,1.913
				c-0.201,0.645-0.409,1.312-0.623,1.997c-0.108,0.343-0.217,0.69-0.328,1.042c-0.123,0.347-0.283,0.685-0.425,1.034
				c-0.296,0.695-0.598,1.404-0.905,2.126c-0.766,1.366-1.458,2.843-2.439,4.174c-0.871,1.406-1.992,2.657-3.054,3.955
				c-1.19,1.18-2.332,2.418-3.651,3.42c-1.235,1.106-2.643,1.938-3.94,2.836c-0.693,0.377-1.375,0.747-2.042,1.109
				c-0.336,0.176-0.66,0.369-0.997,0.525c-0.342,0.145-0.68,0.287-1.013,0.428c-0.668,0.28-1.317,0.553-1.946,0.817
				c-0.651,0.203-1.279,0.399-1.883,0.587c-0.608,0.172-1.177,0.396-1.744,0.5c-0.565,0.115-1.101,0.223-1.605,0.325
				c-0.504,0.101-0.977,0.195-1.413,0.283c-0.442,0.045-0.849,0.087-1.216,0.124c-1.47,0.143-2.311,0.225-2.311,0.225l-0.153-3.997
				c0,0,0.745-0.059,2.049-0.163c0.326-0.026,0.688-0.054,1.081-0.085c0.388-0.071,0.807-0.148,1.255-0.23
				c0.449-0.081,0.926-0.167,1.429-0.258c0.507-0.078,1.011-0.274,1.554-0.415c0.54-0.155,1.102-0.317,1.684-0.484
				c0.562-0.225,1.144-0.457,1.741-0.695c0.3-0.119,0.603-0.239,0.91-0.36c0.302-0.133,0.592-0.301,0.895-0.453
				c0.602-0.31,1.216-0.628,1.841-0.95c1.165-0.786,2.447-1.494,3.568-2.468c1.204-0.87,2.24-1.967,3.337-3
				c0.969-1.151,2.009-2.251,2.813-3.504c0.913-1.178,1.551-2.501,2.276-3.717c0.289-0.646,0.573-1.282,0.851-1.904
				c0.135-0.313,0.288-0.615,0.405-0.926c0.105-0.316,0.209-0.628,0.312-0.936c0.207-0.616,0.408-1.215,0.603-1.795
				c0.136-0.596,0.268-1.172,0.394-1.725c0.111-0.552,0.282-1.086,0.33-1.586c0.062-0.501,0.121-0.976,0.177-1.423
				c0.058-0.447,0.112-0.865,0.162-1.252c0.01-0.419,0.019-0.804,0.027-1.151c0.031-1.392,0.048-2.188,0.048-2.188L44.571,48.862z"
				/>
		</g>
		<g>
			<path d="M99.5,48.825c0,0,0.017,0.796,0.048,2.188c0.008,0.348,0.017,0.732,0.027,1.151c0.05,0.387,0.104,0.805,0.162,1.252
				c0.056,0.447,0.115,0.922,0.177,1.423c0.048,0.5,0.219,1.034,0.33,1.586c0.126,0.553,0.258,1.129,0.394,1.725
				c0.195,0.58,0.396,1.179,0.603,1.795c0.103,0.308,0.206,0.62,0.312,0.936c0.117,0.311,0.27,0.614,0.405,0.926
				c0.278,0.622,0.562,1.257,0.851,1.904c0.725,1.217,1.362,2.54,2.276,3.717c0.803,1.253,1.844,2.353,2.813,3.504
				c1.097,1.033,2.133,2.13,3.337,3c1.12,0.974,2.402,1.682,3.568,2.468c0.625,0.322,1.24,0.64,1.841,0.95
				c0.302,0.151,0.593,0.319,0.895,0.453c0.307,0.122,0.611,0.242,0.91,0.36c0.598,0.239,1.179,0.471,1.741,0.695
				c0.582,0.167,1.144,0.329,1.684,0.484c0.543,0.141,1.048,0.337,1.554,0.415c0.503,0.091,0.981,0.177,1.429,0.258
				c0.448,0.082,0.867,0.159,1.255,0.23c0.393,0.031,0.755,0.059,1.081,0.085c1.304,0.104,2.049,0.163,2.049,0.163l-0.153,3.997
				c0,0-0.84-0.082-2.311-0.225c-0.367-0.037-0.773-0.079-1.216-0.124c-0.437-0.087-0.909-0.182-1.413-0.283
				c-0.504-0.102-1.04-0.211-1.605-0.325c-0.568-0.103-1.136-0.328-1.744-0.5c-0.604-0.188-1.232-0.384-1.883-0.587
				c-0.628-0.264-1.278-0.536-1.946-0.817c-0.333-0.141-0.671-0.284-1.013-0.428c-0.336-0.157-0.66-0.349-0.997-0.525
				c-0.667-0.362-1.349-0.733-2.042-1.109c-1.296-0.898-2.704-1.73-3.94-2.836c-1.32-1.003-2.461-2.241-3.651-3.42
				c-1.062-1.298-2.183-2.549-3.054-3.955c-0.981-1.33-1.673-2.807-2.439-4.174c-0.307-0.722-0.609-1.431-0.905-2.126
				c-0.143-0.349-0.302-0.687-0.425-1.034c-0.111-0.352-0.22-0.699-0.328-1.042c-0.214-0.685-0.422-1.352-0.623-1.997
				c-0.139-0.661-0.273-1.299-0.401-1.913c-0.113-0.619-0.279-1.187-0.329-1.772c-0.061-0.58-0.118-1.13-0.172-1.648
				c-0.052-0.517-0.1-1-0.144-1.447c-0.002-0.42-0.003-0.806-0.005-1.155c-0.003-1.393-0.005-2.189-0.005-2.189L99.5,48.825z"/>
		</g>
		<g>
			<path d="M39.423,119.145l3.145-0.243c0.972-0.148,1.889-0.338,2.841-0.495c0.947-0.224,1.898-0.527,2.851-0.782
				c0.933-0.32,1.84-0.714,2.765-1.063c0.894-0.419,1.761-0.895,2.646-1.337l2.5-1.599l2.323-1.853
				c0.705-0.697,1.439-1.367,2.127-2.082c0.633-0.765,1.311-1.496,1.914-2.286c0.555-0.825,1.171-1.613,1.685-2.467
				c0.474-0.876,1.02-1.717,1.443-2.622c0.39-0.919,0.859-1.808,1.193-2.752c0.305-0.953,0.686-1.885,0.936-2.856
				c0.22-0.979,0.503-1.945,0.678-2.935c0.136-0.996,0.311-1.989,0.42-2.99l0.167-3.022h3l0.169,3.032
				c0.108,1.004,0.287,2,0.423,2.999c0.172,0.993,0.462,1.961,0.683,2.943c0.248,0.975,0.637,1.907,0.945,2.862
				c0.332,0.947,0.81,1.835,1.204,2.756c0.422,0.908,0.979,1.747,1.458,2.624c0.515,0.857,1.141,1.641,1.702,2.466
				c0.606,0.792,1.294,1.519,1.932,2.283c0.692,0.716,1.436,1.381,2.147,2.077l2.341,1.848l2.518,1.592
				c0.891,0.439,1.765,0.911,2.663,1.33c0.93,0.348,1.844,0.737,2.781,1.057c0.96,0.255,1.907,0.551,2.871,0.779
				c0.98,0.163,1.954,0.355,2.935,0.501l2.972,0.227l0.19,0.014c1.101,0.084,1.925,1.044,1.841,2.145
				c-0.084,1.101-1.044,1.925-2.145,1.841c-0.01-0.001-0.029-0.002-0.039-0.003l-3.333-0.32c-1.101-0.183-2.196-0.418-3.291-0.629
				c-1.082-0.277-2.146-0.628-3.217-0.942c-1.05-0.381-2.074-0.836-3.109-1.254c-1.003-0.49-1.98-1.037-2.968-1.557
				c-0.942-0.599-1.865-1.23-2.794-1.846c-0.864-0.707-1.738-1.401-2.585-2.124c-0.786-0.79-1.599-1.554-2.355-2.369
				c-0.701-0.864-1.448-1.693-2.104-2.588c-0.611-0.927-1.283-1.817-1.837-2.777c-0.517-0.981-1.108-1.925-1.557-2.937
				c-0.421-1.024-0.921-2.017-1.268-3.066c-0.323-1.056-0.723-2.091-0.976-3.165c-0.226-1.079-0.517-2.147-0.684-3.234
				c-0.132-1.093-0.302-2.182-0.396-3.275l-0.117-3.291c-0.029-0.828,0.618-1.524,1.447-1.553c0.828-0.029,1.524,0.618,1.553,1.447
				c0.001,0.034,0.001,0.073,0,0.107l-0.116,3.28c-0.096,1.09-0.262,2.175-0.393,3.264c-0.17,1.083-0.453,2.148-0.677,3.223
				c-0.255,1.069-0.646,2.102-0.966,3.155c-0.349,1.044-0.838,2.038-1.254,3.059c-0.449,1.007-1.028,1.953-1.539,2.933
				c-0.551,0.957-1.212,1.85-1.817,2.776c-0.653,0.893-1.389,1.726-2.083,2.59c-0.751,0.814-1.555,1.584-2.334,2.375
				c-0.843,0.722-1.707,1.424-2.566,2.131c-0.923,0.619-1.838,1.256-2.776,1.856c-0.982,0.522-1.952,1.076-2.952,1.566
				c-1.031,0.421-2.05,0.881-3.096,1.262c-1.07,0.317-2.121,0.671-3.213,0.95c-1.117,0.218-2.26,0.461-3.363,0.64l-3.139,0.305
				c-1.099,0.108-2.078-0.696-2.186-1.796s0.696-2.078,1.796-2.186C39.391,119.147,39.413,119.145,39.423,119.145z"/>
		</g>
		<path style="fill:none;stroke:#000000;stroke-width:4;stroke-miterlimit:10;" d="M130.413,27.881
			c0,12.952-26.807,23.451-59.875,23.451S10.413,40.833,10.413,27.881"/>
	</g>
</g>
<g id="Layer_1">
</g>
</svg>
