<?xml version="1.0" encoding="iso-8859-1"?>
<!-- Generator: Adobe Illustrator 19.2.0, SVG Export Plug-In . SVG Version: 6.00 Build 0)  -->
<!DOCTYPE svg PUBLIC "-//W3C//DTD SVG 1.1//EN" "http://www.w3.org/Graphics/SVG/1.1/DTD/svg11.dtd">
<svg version="1.1" xmlns="http://www.w3.org/2000/svg" xmlns:xlink="http://www.w3.org/1999/xlink" x="0px" y="0px"
	 viewBox="0 0 140 140" style="enable-background:new 0 0 140 140;" xml:space="preserve">
<g id="loje">
	<g id="loje_3_">
		<circle style="fill:#FFFFFF;" cx="70.58" cy="64.492" r="54.037"/>
		<g>
			<path style="fill:#FFFFFF;stroke:#000000;stroke-width:5;stroke-linecap:round;stroke-linejoin:round;stroke-miterlimit:10;" d="
				M88.053,79.749c0-11.704,9.488-21.191,21.191-21.191s21.191,9.488,21.191,21.191l-0.045,20.295c0,16.569-13.431,30-30,30h-60
				c-16.569,0-30-13.431-30-30V79.749c0-11.704,9.488-21.191,21.191-21.191s21.191,9.488,21.191,21.191
				c0-9.742,7.898-17.64,17.64-17.64S88.053,70.007,88.053,79.749z"/>
		</g>
		<path style="fill:none;stroke:#000000;stroke-width:5;stroke-linecap:round;stroke-linejoin:round;stroke-miterlimit:10;" d="
			M15.413,64.794c0-30.376,24.624-55,55-55s55,24.624,55,55"/>
		<g>
			<g>
				
					<line style="fill:none;stroke:#000000;stroke-width:3.5;stroke-linecap:round;stroke-linejoin:round;stroke-miterlimit:10;" x1="78.414" y1="64.11" x2="78.414" y2="10.544"/>
				
					<line style="fill:none;stroke:#000000;stroke-width:3;stroke-linecap:round;stroke-linejoin:round;stroke-miterlimit:10;" x1="70.413" y1="62.109" x2="70.413" y2="10.544"/>
				
					<line style="fill:none;stroke:#000000;stroke-width:3.5;stroke-linecap:round;stroke-linejoin:round;stroke-miterlimit:10;" x1="62.413" y1="64.11" x2="62.413" y2="10.544"/>
			</g>
			<g>
				
					<line style="fill:none;stroke:#000000;stroke-width:3.5;stroke-linecap:round;stroke-linejoin:round;stroke-miterlimit:10;" x1="37.03" y1="32.044" x2="53.41" y2="51.276"/>
				
					<line style="fill:none;stroke:#000000;stroke-width:3.5;stroke-linecap:round;stroke-linejoin:round;stroke-miterlimit:10;" x1="53.41" y1="32.044" x2="37.03" y2="51.276"/>
			</g>
			<g>
				
					<line style="fill:none;stroke:#000000;stroke-width:3.5;stroke-linecap:round;stroke-linejoin:round;stroke-miterlimit:10;" x1="87.417" y1="32.044" x2="103.797" y2="51.276"/>
				
					<line style="fill:none;stroke:#000000;stroke-width:3.5;stroke-linecap:round;stroke-linejoin:round;stroke-miterlimit:10;" x1="103.797" y1="32.044" x2="87.417" y2="51.276"/>
			</g>
		</g>
	</g>
</g>
<g id="Layer_1">
</g>
</svg>
