<?xml version="1.0" encoding="iso-8859-1"?>
<!-- Generator: Adobe Illustrator 19.2.0, SVG Export Plug-In . SVG Version: 6.00 Build 0)  -->
<!DOCTYPE svg PUBLIC "-//W3C//DTD SVG 1.1//EN" "http://www.w3.org/Graphics/SVG/1.1/DTD/svg11.dtd">
<svg version="1.1" xmlns="http://www.w3.org/2000/svg" xmlns:xlink="http://www.w3.org/1999/xlink" x="0px" y="0px"
	 viewBox="0 0 140 140" style="enable-background:new 0 0 140 140;" xml:space="preserve">
<g id="moku">
	<g id="moku_1_">
		<path style="fill:#FFFFFF;" d="M10.404,33.456c0-12.999,9.402-23.537,21-23.537c13,0,21,12.539,21,25.539
			c0-11.968,6.5-23.671,18-23.671c12.5,0,18,11.703,18,23.671c0-12.999,8.75-25.539,21.25-25.539
			c11.598,0,20.769,11.519,20.769,24.519l-0.019,35.481c0,33.137-26.863,60-60,60s-60-26.863-60-60L10.404,33.456z"/>
		<path d="M7.906,33.343l0.096-2.241c0.071-0.803,0.204-1.684,0.314-2.521c0.132-0.836,0.346-1.611,0.52-2.418
			c0.188-0.799,0.485-1.57,0.727-2.355c0.254-0.782,0.624-1.523,0.935-2.285c0.324-0.757,0.761-1.464,1.141-2.195
			c0.398-0.723,0.896-1.39,1.344-2.085c0.475-0.678,1.025-1.304,1.542-1.952c0.553-0.62,1.158-1.197,1.738-1.792
			c0.629-0.548,1.274-1.082,1.922-1.608c0.697-0.467,1.375-0.962,2.095-1.393c0.747-0.387,1.464-0.833,2.243-1.158
			c1.545-0.675,3.16-1.215,4.826-1.516c0.835-0.138,1.667-0.312,2.516-0.324l1.267-0.067l0.158-0.008l0.079-0.004l0.02-0.001
			l0.172,0.004l0.035,0.003l0.28,0.02l0.559,0.04c0.762,0.067,1.429,0.058,2.373,0.266c0.87,0.177,1.796,0.299,2.571,0.599
			c0.801,0.278,1.628,0.488,2.379,0.886c0.761,0.369,1.55,0.689,2.245,1.169c0.712,0.45,1.445,0.871,2.078,1.42
			c0.656,0.52,1.322,1.028,1.889,1.635c0.594,0.581,1.191,1.159,1.691,1.813c0.528,0.633,1.057,1.264,1.491,1.957
			c0.461,0.676,0.926,1.349,1.295,2.072c0.392,0.711,0.8,1.415,1.104,2.164c0.685,1.464,1.228,2.984,1.659,4.526
			c0.432,1.545,0.721,3.119,0.932,4.698c0.071,0.794,0.168,1.585,0.213,2.379l0.046,2.385h-4l0-0.007l-0.001-2.204
			c0.032-0.734,0.104-1.468,0.156-2.203c0.162-1.465,0.391-2.929,0.739-4.375c0.357-1.442,0.81-2.87,1.389-4.26
			c0.567-1.392,1.254-2.752,2.076-4.047c0.806-1.303,1.772-2.53,2.876-3.646c0.521-0.583,1.174-1.055,1.762-1.581
			c0.611-0.504,1.309-0.912,1.966-1.363c0.694-0.399,1.43-0.737,2.148-1.098c0.76-0.267,1.519-0.549,2.291-0.778
			c0.787-0.157,1.575-0.347,2.367-0.456l1.194-0.086l0.598-0.039l0.299-0.019l0.075-0.005l0.037-0.002l0.019-0.001l0.169,0.004
			L70.692,9.3l2.071,0.134c0.809,0.124,1.657,0.288,2.477,0.451c0.785,0.218,1.532,0.489,2.296,0.742
			c0.735,0.325,1.456,0.69,2.176,1.047c0.669,0.443,1.358,0.867,2,1.344c0.598,0.526,1.24,1.015,1.788,1.585
			c1.11,1.132,2.077,2.378,2.872,3.702c1.602,2.645,2.634,5.512,3.275,8.403c0.311,1.451,0.508,2.912,0.644,4.371
			c0.042,0.731,0.103,1.461,0.126,2.19l-0.012,2.186h-4.001l0.001-0.013c-0.174-7.404,2.316-14.927,7.387-20.666
			c2.533-2.854,5.882-5.107,9.628-6.328c1.862-0.652,3.842-0.917,5.803-1.005l0.369-0.023c-0.108-0.006,0.25,0.003,0.243,0.002
			l0.081,0.005l0.162,0.01l0.649,0.04c0.439,0.031,0.851,0.043,1.312,0.089l1.558,0.273c0.525,0.09,1.04,0.194,1.495,0.357
			c3.798,1.104,7.234,3.242,9.879,6.025c2.667,2.773,4.684,6.079,6.028,9.616c1.363,3.519,1.972,7.372,1.941,11.07l-0.001,10.399
			l-0.002,20.798l0,2.6l-0.003,1.363l-0.032,1.299c-0.012,1.681-0.168,3.596-0.342,5.397c-0.366,3.595-1.105,7.149-2.105,10.619
			c-2.019,6.936-5.22,13.542-9.504,19.364c-4.264,5.833-9.526,10.933-15.504,14.998c-5.991,4.044-12.682,7.049-19.691,8.833
			c-3.504,0.897-7.092,1.442-10.694,1.709c-0.9,0.079-1.802,0.133-2.705,0.14l-1.354,0.033l-0.339,0.008l-0.169,0.004l-0.231-0.001
			l-0.65-0.017c-0.873-0.028-1.718-0.032-2.613-0.079l-2.757-0.209c-7.198-0.732-14.265-2.676-20.789-5.798
			c-6.514-3.135-12.476-7.395-17.556-12.532c-5.086-5.133-9.235-11.179-12.272-17.732c-3.057-6.551-4.89-13.658-5.499-20.851
			c-0.172-1.797-0.204-3.606-0.24-5.405l0.002-5.2l0.005-10.399l0.009-20.798L7.906,33.343z M12.904,33.456l0.009,20.798
			l0.005,10.399l0.002,5.2c0.037,1.667,0.066,3.325,0.226,4.98c0.567,6.615,2.254,13.14,5.07,19.155
			c2.797,6.017,6.612,11.574,11.294,16.288c4.675,4.717,10.158,8.626,16.141,11.501c5.99,2.86,12.487,4.637,19.081,5.304
			l2.428,0.185c0.835,0.045,1.724,0.049,2.583,0.076l0.65,0.016l0.561-0.014l1.245-0.032c0.831-0.006,1.659-0.057,2.486-0.131
			c3.308-0.249,6.601-0.75,9.815-1.577c6.428-1.64,12.57-4.384,18.077-8.094c5.493-3.729,10.333-8.412,14.256-13.767
			c3.942-5.345,6.884-11.409,8.744-17.775c0.921-3.186,1.606-6.448,1.943-9.752c0.155-1.648,0.301-3.19,0.319-4.976l0.033-1.299
			l0.003-1.237l0.003-2.6l0.02-20.798l0.01-10.399c0.025-3.232-0.476-6.342-1.611-9.3c-1.113-2.94-2.785-5.662-4.923-7.891
			c-2.124-2.247-4.799-3.864-7.648-4.704c-0.362-0.136-0.699-0.195-1.029-0.25l-0.998-0.204c-0.4-0.042-0.856-0.058-1.281-0.088
			l-0.649-0.04l-0.162-0.01l-0.081-0.005c-0.062-0.004,0.243,0.009,0.081,0.006l-0.28,0.018c-1.493,0.058-2.992,0.224-4.409,0.712
			c-2.849,0.894-5.496,2.582-7.591,4.888c-2.137,2.263-3.817,5.024-4.971,8.003c-1.175,2.976-1.827,6.177-1.95,9.404l0,0.011
			c-0.007,1.104-0.907,1.993-2.01,1.987c-1.052-0.006-1.91-0.824-1.982-1.857l-0.009-0.13l-0.132-1.962
			c-0.06-0.651-0.149-1.298-0.22-1.945c-0.192-1.287-0.434-2.561-0.771-3.801c-0.644-2.482-1.603-4.857-2.942-6.904
			c-0.666-1.026-1.44-1.946-2.266-2.791c-0.412-0.424-0.891-0.76-1.326-1.152c-0.472-0.338-0.974-0.629-1.452-0.956l-1.571-0.733
			c-0.555-0.163-1.112-0.363-1.657-0.515c-0.54-0.085-1.05-0.194-1.604-0.296l-2.072-0.112l-1.622,0.093
			c-0.576,0.075-1.137,0.215-1.709,0.308c-0.552,0.164-1.093,0.364-1.644,0.536c-0.513,0.267-1.045,0.495-1.553,0.775
			c-0.477,0.338-0.994,0.611-1.451,0.985c-0.438,0.4-0.935,0.723-1.336,1.175c-0.842,0.849-1.628,1.782-2.315,2.806
			c-0.696,1.017-1.301,2.118-1.815,3.269c-0.526,1.147-0.948,2.353-1.303,3.581c-0.369,1.227-0.636,2.489-0.849,3.764
			c-0.079,0.641-0.178,1.282-0.244,1.927l-0.142,1.944l0,0.006c-0.016,1.104-0.925,1.986-2.029,1.969
			c-1.051-0.016-1.901-0.84-1.966-1.872l-0.006-0.097l-0.125-2.097c-0.068-0.696-0.184-1.387-0.271-2.079
			c-0.242-1.375-0.547-2.737-0.975-4.057c-0.417-1.321-0.904-2.62-1.519-3.848c-0.27-0.635-0.633-1.215-0.975-1.806
			c-0.321-0.607-0.725-1.152-1.119-1.703c-0.37-0.572-0.819-1.073-1.261-1.578c-0.417-0.531-0.913-0.977-1.397-1.431
			c-0.462-0.484-1.003-0.862-1.527-1.262c-0.504-0.431-1.087-0.73-1.645-1.07c-0.543-0.371-1.161-0.584-1.748-0.859
			c-0.577-0.304-1.22-0.429-1.833-0.634c-0.629-0.237-1.205-0.258-1.796-0.388c-0.517-0.148-1.354-0.143-2.082-0.188l-0.56-0.027
			l-0.28-0.014l-0.035-0.002c-0.039-0.002,0.279,0.009,0.137,0.005l-0.015,0.001l-0.061,0.004l-0.121,0.008l-0.972,0.059
			c-0.652,0.001-1.286,0.152-1.925,0.255c-1.275,0.232-2.511,0.657-3.703,1.179c-0.602,0.249-1.153,0.612-1.736,0.904
			c-0.559,0.339-1.086,0.737-1.634,1.096l-1.511,1.276c-0.454,0.482-0.936,0.937-1.376,1.433c-0.405,0.527-0.858,1.017-1.24,1.563
			c-0.357,0.564-0.769,1.092-1.091,1.679c-0.304,0.596-0.671,1.16-0.934,1.778c-0.25,0.623-0.564,1.22-0.771,1.86
			c-0.195,0.644-0.45,1.27-0.604,1.926c-0.138,0.654-0.33,1.322-0.432,1.962c-0.079,0.646-0.19,1.242-0.261,1.926l-0.106,2.24
			L12.904,33.456z"/>
	</g>
</g>
<g id="Layer_1">
</g>
</svg>
