<?xml version="1.0" encoding="iso-8859-1"?>
<!-- Generator: Adobe Illustrator 19.2.0, SVG Export Plug-In . SVG Version: 6.00 Build 0)  -->
<!DOCTYPE svg PUBLIC "-//W3C//DTD SVG 1.1//EN" "http://www.w3.org/Graphics/SVG/1.1/DTD/svg11.dtd">
<svg preserveAspectRatio="none" version="1.1" xmlns="http://www.w3.org/2000/svg" xmlns:xlink="http://www.w3.org/1999/xlink" x="0px" y="0px"
	 viewBox="0 0 140 140" style="enable-background:new 0 0 140 140;" xml:space="preserve">
<g id="jan">
	<g id="jaki_1_">
		<g>
			<path style="fill:#FFFFFF;" d="M123.413,48.419c0,16.569-13.431,30-30,30h-46c-16.569,0-30-13.431-30-30v-8.5
				c0-16.569,13.431-30,30-30h46c16.569,0,30,13.431,30,30V48.419z"/>
			<path d="M125.641,48.532c0,0-0.016,0.29-0.047,0.852c-0.044,0.574-0.048,1.369-0.166,2.51c-0.32,2.436-0.918,5.838-2.74,9.815
				c-0.488,0.975-0.937,2.037-1.607,3.041c-0.315,0.513-0.638,1.037-0.968,1.574c-0.365,0.512-0.761,1.02-1.154,1.545
				c-0.749,1.083-1.732,2.039-2.677,3.093c-0.495,0.505-1.051,0.967-1.59,1.464c-0.273,0.245-0.548,0.492-0.825,0.74
				c-0.298,0.223-0.599,0.449-0.902,0.676c-2.376,1.881-5.245,3.442-8.425,4.618c-3.179,1.169-6.725,1.951-10.45,1.971
				c-7.055,0.052-14.547-0.01-22.554-0.01c-3.994,0.011-8.097,0.022-12.291,0.034c-2.097,0.007-4.216,0.014-6.356,0.022
				c-1.07,0.004-2.145,0.007-3.225,0.011l-1.623,0.006l-0.407,0.001l-0.204,0.001l-0.309-0.011l-0.815-0.038
				c-1.09-0.054-2.148-0.063-3.392-0.286l-1.804-0.27c-0.588-0.115-1.15-0.28-1.728-0.419c-0.571-0.154-1.155-0.274-1.719-0.46
				l-1.68-0.607c-1.141-0.362-2.194-0.941-3.283-1.445c-4.301-2.148-8.088-5.395-11.038-9.306
				c-2.943-3.912-5.073-8.536-5.925-13.443c-0.178-1.229-0.439-2.453-0.455-3.701l-0.098-1.865c-0.023-0.61-0.01-1.169-0.017-1.756
				l-0.02-7.084l0.082-1.741l0.041-0.87c0.005-0.282,0.029-0.582,0.086-0.913l0.28-1.921l0.148-0.959l0.228-0.909l0.463-1.817
				c0.145-0.608,0.404-1.181,0.602-1.773c0.221-0.584,0.409-1.181,0.66-1.752l0.805-1.689c0.492-1.15,1.221-2.17,1.842-3.248
				c0.679-1.04,1.448-2.022,2.204-3.004c1.63-1.867,3.369-3.65,5.366-5.104c3.929-2.97,8.496-5.082,13.262-5.983l1.792-0.281
				c0.597-0.094,1.191-0.196,1.794-0.207c1.177-0.052,2.456-0.165,3.52-0.141c2.213-0.007,4.409-0.015,6.588-0.022
				c8.714-0.029,17.138-0.068,25.126-0.033c3.994,0.009,7.879,0.017,11.637,0.025c0.47,0.001,0.938,0.002,1.403,0.003l0.473,0.005
				l0.348,0.018l0.693,0.036c0.461,0.024,0.92,0.048,1.377,0.072l0.689,0.041l0.757,0.11c0.996,0.165,2.028,0.266,2.964,0.5
				c0.931,0.242,1.857,0.471,2.763,0.726c3.598,1.146,6.817,2.888,9.557,4.943c2.749,2.048,5.045,4.409,6.804,6.905
				c0.227,0.307,0.451,0.612,0.674,0.914c0.211,0.31,0.392,0.637,0.587,0.951c0.378,0.634,0.75,1.258,1.115,1.87
				c0.307,0.644,0.609,1.276,0.905,1.896c0.146,0.311,0.29,0.619,0.433,0.924c0.115,0.317,0.229,0.63,0.342,0.941
				c0.224,0.621,0.443,1.23,0.657,1.826c0.188,0.604,0.319,1.211,0.474,1.796c0.138,0.589,0.315,1.155,0.407,1.724
				c0.085,0.57,0.168,1.126,0.249,1.667c0.067,0.543,0.184,1.066,0.203,1.583c0.024,0.516,0.048,1.018,0.071,1.504
				c0.021,0.486,0.042,0.957,0.062,1.412c-0.001,0.426-0.001,0.838-0.002,1.235c-0.008,1.579-0.014,2.923-0.019,4.012
				c-0.01,2.179-0.016,3.34-0.016,3.34L125.641,48.532z M121.183,48.419c0,0-0.006-1.162-0.016-3.34
				c-0.005-1.089-0.012-2.433-0.019-4.012c-0.003-0.393-0.007-0.8-0.01-1.222c-0.023-0.392-0.046-0.797-0.07-1.215
				c-0.023-0.418-0.046-0.849-0.07-1.293c-0.016-0.445-0.129-0.892-0.19-1.357c-0.073-0.464-0.147-0.94-0.223-1.428
				c-0.081-0.487-0.245-0.969-0.366-1.473c-0.139-0.499-0.25-1.019-0.416-1.534c-0.189-0.508-0.383-1.026-0.58-1.556
				c-0.098-0.265-0.196-0.533-0.296-0.803c-0.126-0.259-0.253-0.521-0.381-0.785c-0.257-0.528-0.519-1.067-0.786-1.615
				c-0.318-0.52-0.643-1.049-0.972-1.588c-0.169-0.267-0.323-0.546-0.506-0.809c-0.194-0.256-0.39-0.514-0.587-0.773
				c-1.518-2.122-3.503-4.116-5.862-5.837c-2.355-1.72-5.088-3.204-8.148-4.162c-0.775-0.199-1.558-0.401-2.348-0.605
				c-0.79-0.196-1.557-0.249-2.346-0.394l-0.591-0.096c-0.215-0.02-0.452-0.025-0.678-0.038c-0.457-0.022-0.916-0.044-1.377-0.067
				l-0.693-0.034l-0.348-0.017c0.219,0.005,0.011,0.001,0.037,0.003l-0.087,0l-0.175,0c-0.466,0.001-0.934,0.002-1.403,0.003
				c-3.758,0.008-7.643,0.016-11.637,0.025c-7.988,0.036-16.412-0.003-25.126-0.033c-2.179-0.007-4.375-0.014-6.588-0.022
				c-1.15-0.03-2.086,0.074-3.135,0.103c-0.515,0-1.021,0.089-1.528,0.167l-1.527,0.226c-4.061,0.735-7.959,2.515-11.335,5.029
				c-1.72,1.225-3.209,2.75-4.622,4.333c-0.647,0.84-1.315,1.673-1.903,2.56c-0.529,0.923-1.175,1.785-1.594,2.771l-0.702,1.44
				c-0.219,0.487-0.377,1-0.571,1.498c-0.171,0.506-0.405,0.993-0.529,1.514l-0.404,1.555l-0.205,0.777l-0.118,0.762l-0.246,1.523
				c-0.052,0.241-0.077,0.519-0.086,0.819l-0.047,0.87l-0.094,1.74l-0.02,6.854c0.003,0.573-0.014,1.176,0.005,1.725l0.077,1.61
				c-0.003,1.079,0.229,2.131,0.369,3.193c0.698,4.234,2.514,8.23,5.036,11.634c2.529,3.4,5.789,6.248,9.509,8.131
				c0.943,0.438,1.849,0.959,2.839,1.272l1.453,0.54c0.488,0.166,0.995,0.268,1.49,0.406c0.496,0.123,0.996,0.276,1.487,0.376
				l1.459,0.228c0.917,0.201,2.052,0.229,3.137,0.288l0.815,0.044l0.102,0.005c-0.013,0,0.173,0.007-0.003,0.002l0.204,0.001
				l0.407,0.001l1.623,0.006c1.08,0.004,2.155,0.007,3.225,0.011c2.14,0.007,4.26,0.015,6.356,0.022
				c4.194,0.012,8.297,0.023,12.291,0.034c7.969-0.029,15.584,0.002,22.468-0.074c3.258-0.024,6.338-0.726,9.101-1.753
				c2.762-1.038,5.245-2.421,7.294-4.079c0.262-0.199,0.523-0.396,0.781-0.592c0.238-0.22,0.474-0.437,0.709-0.653
				c0.462-0.438,0.945-0.839,1.371-1.282c0.805-0.93,1.662-1.757,2.296-2.708c0.337-0.458,0.667-0.907,0.991-1.347
				c0.28-0.468,0.554-0.926,0.822-1.373c0.579-0.871,0.948-1.799,1.366-2.643c1.549-3.451,2.018-6.438,2.272-8.301
				c0.101-1.023,0.102-1.904,0.139-2.452c0.026-0.562,0.039-0.852,0.039-0.852L121.183,48.419z"/>
		</g>
		<g>
			<path style="fill:#FFFFFF;" d="M76.586,29.503c1.747,2.964,2.783,6.659,2.783,10.666c0,18.417-20.081,17.667-20.081,17.667
				c-4.073,0-7.375-3.302-7.375-7.375V36.669c0-10.217,8.283-18.5,18.5-18.5l0,0c10.217,0,18.5,8.283,18.5,18.5v10.25
				c0,3.75,2.5,8.083,11.729,10.825c16.771,4.841,29.771,19.98,29.771,38.487v3.688c0,16.569-15.433,30-32.001,30H42.414
				c-16.569,0-32.001-13.431-32.001-30v-3.688c0-21.953,18.25-37.312,42-42.062"/>
			<path d="M77.457,29.011c0,0,0.054,0.09,0.16,0.267c0.105,0.168,0.266,0.451,0.478,0.843c0.405,0.759,0.955,1.908,1.464,3.487
				c0.506,1.575,0.954,3.589,1.064,5.994l0.015,0.455c0.007,0.246-0.002,0.32-0.002,0.49c-0.005,0.296-0.009,0.597-0.014,0.903
				c0.011,0.59-0.096,1.332-0.147,2.027c-0.201,1.385-0.475,2.86-1.055,4.358c-0.571,1.493-1.39,3.01-2.512,4.406
				c-1.123,1.39-2.535,2.662-4.171,3.677c-3.276,2.058-7.276,3.24-11.591,3.594c-0.545,0.043-1.089,0.069-1.671,0.074
				c-0.347,0.002-0.595-0.021-0.854-0.029c-0.114,0-0.283-0.018-0.468-0.045l-0.531-0.076c-1.318-0.231-2.555-0.751-3.656-1.537
				c-1.096-0.781-2.043-1.812-2.713-3.03c-0.667-1.218-1.051-2.615-1.106-4.033c0.008-4.623,0.017-9.484,0.025-14.557
				c0.035-5.475,2.534-11.243,7.098-15.101c2.253-1.948,5.003-3.4,7.98-4.202c3.002-0.788,6.152-0.901,9.302-0.278
				c6.252,1.219,11.992,5.676,14.656,11.86c0.674,1.534,1.146,3.166,1.429,4.836c0.301,1.663,0.278,3.442,0.291,4.914
				c0.014,1.545,0.028,3.097,0.042,4.656c0.007,0.779,0.014,1.561,0.021,2.344l0.011,1.176l0.003,0.294c0,0.009,0.003,0.188,0,0.057
				l0.008,0.147l0.033,0.576c0.054,0.435,0.21,1.07,0.428,1.585c0.215,0.539,0.557,1.038,0.918,1.532
				c0.786,0.961,1.848,1.808,3.059,2.52c1.217,0.708,2.554,1.316,3.976,1.798c0.724,0.257,1.394,0.445,2.204,0.7l1.159,0.351
				l1.234,0.422c6.456,2.287,12.418,6.092,17.257,11.143c4.843,5.032,8.469,11.363,10.274,18.249
				c0.908,3.434,1.351,7.016,1.359,10.556l0.003,2.514l0.001,0.629l-0.008,0.701l-0.035,1.257c-0.117,1.943-0.397,3.71-0.836,5.502
				c-0.867,3.567-2.454,6.916-4.468,9.928c-2.05,2.991-4.545,5.654-7.381,7.86c-5.645,4.44-12.604,7.142-19.742,7.595
				c-1.841,0.102-3.455,0.064-5.097,0.074c-1.644,0.002-3.285,0.004-4.921,0.005c-3.273,0.004-6.529,0.007-9.766,0.01
				c-6.473,0-12.868,0-19.158,0.001c-6.29-0.007-12.475-0.013-18.529-0.02c-0.893,0.003-1.528-0.024-2.346-0.054
				c-0.844-0.059-1.693-0.117-2.481-0.232c-1.605-0.2-3.183-0.517-4.718-0.944c-3.079-0.829-5.987-2.085-8.666-3.637
				c-5.36-3.107-9.764-7.513-12.72-12.601c-1.485-2.541-2.582-5.261-3.269-8.038c-0.346-1.387-0.589-2.789-0.719-4.187
				c-0.152-1.379-0.146-2.852-0.146-4.054c-0.013-2.476,0.009-5.082,0.368-7.69c0.337-2.546,0.915-5.004,1.697-7.326
				c1.576-4.648,3.974-8.697,6.664-12.081c1.358-1.686,2.796-3.206,4.253-4.591c1.48-1.359,2.961-2.602,4.452-3.698
				c2.973-2.208,5.922-3.89,8.645-5.246c5.475-2.682,10.072-3.998,13.194-4.814c1.569-0.388,2.777-0.663,3.597-0.819
				c0.817-0.165,1.239-0.251,1.239-0.251c1.082-0.219,2.137,0.481,2.356,1.563c0.215,1.064-0.458,2.102-1.51,2.345l-0.062,0.014
				c0,0-0.398,0.091-1.169,0.268c-0.773,0.167-1.91,0.458-3.383,0.862C45.322,58.1,41.03,59.478,36,62.071
				c-4.987,2.586-10.831,6.455-15.61,12.529c-2.364,3.029-4.431,6.597-5.772,10.66c-0.664,2.031-1.15,4.176-1.426,6.406
				c-0.289,2.169-0.293,4.504-0.277,7.056c0.004,1.311,0,2.387,0.129,3.562c0.109,1.158,0.313,2.317,0.603,3.469
				c0.576,2.304,1.493,4.577,2.752,6.718c2.499,4.287,6.286,8.084,10.913,10.749c4.632,2.68,10.015,4.23,15.664,4.145
				c6.054-0.006,12.239-0.013,18.529-0.02c6.29,0,12.685,0,19.158,0.001c3.237,0.003,6.493,0.007,9.766,0.01
				c1.636,0.002,3.277,0.004,4.921,0.005c1.646-0.004,3.33,0.028,4.786-0.054c6.05-0.368,12.071-2.674,16.936-6.491
				c4.877-3.785,8.622-9.096,10.095-15.02c0.369-1.463,0.602-3.023,0.698-4.428l0.038-1.257l0.007-0.242l0-0.314l0.001-0.629
				l0.003-2.514c0.012-3.163-0.357-6.279-1.135-9.313c-1.54-6.068-4.721-11.666-8.973-16.206c-4.241-4.55-9.579-8.049-15.298-10.155
				l-1.056-0.379l-1.154-0.366c-0.725-0.24-1.601-0.51-2.387-0.806c-1.612-0.584-3.2-1.326-4.725-2.254
				c-1.517-0.935-2.982-2.103-4.174-3.628c-0.57-0.786-1.101-1.621-1.463-2.557c-0.364-0.95-0.606-1.854-0.697-2.987l-0.023-0.601
				l-0.006-0.384l0.003-0.294l0.011-1.176c0.007-0.783,0.014-1.564,0.021-2.344c0.014-1.559,0.028-3.111,0.042-4.656
				c0.019-1.613,0.044-2.926-0.186-4.283c-0.218-1.346-0.584-2.664-1.118-3.906c-2.103-5.01-6.737-8.684-11.808-9.716
				c-2.502-0.523-5.181-0.463-7.599,0.162c-2.435,0.636-4.699,1.8-6.564,3.386c-3.782,3.153-5.88,7.837-5.952,12.416
				c0.013,4.991,0.026,9.774,0.039,14.323c0.057,1.751,0.992,3.345,2.326,4.316c0.656,0.49,1.44,0.825,2.198,0.966l0.249,0.043
				c0.074,0.018,0.164,0.035,0.312,0.039l0.708,0.037c0.457,0.009,0.943,0,1.418-0.025c3.83-0.204,7.402-1.178,10.17-2.823
				c2.791-1.635,4.673-3.994,5.707-6.451c0.532-1.226,0.815-2.493,1.037-3.682c0.06-0.606,0.18-1.117,0.195-1.753
				c0.016-0.306,0.032-0.606,0.048-0.901c0.005-0.125,0.022-0.344,0.017-0.388l0.001-0.408c0.008-2.158-0.304-3.986-0.688-5.422
				c-0.386-1.438-0.83-2.498-1.156-3.188c-0.158-0.331-0.288-0.592-0.393-0.78c-0.097-0.182-0.147-0.275-0.147-0.275
				c-0.26-0.487-0.076-1.093,0.412-1.353C76.6,28.39,77.184,28.557,77.457,29.011z"/>
		</g>
		<circle cx="64.579" cy="38.878" r="3.375"/>
		<g>
			
				<line style="fill:none;stroke:#000000;stroke-width:3;stroke-linecap:round;stroke-linejoin:round;stroke-miterlimit:10;" x1="49.08" y1="103.766" x2="80.724" y2="75.583"/>
			
				<line style="fill:none;stroke:#000000;stroke-width:3;stroke-linecap:round;stroke-linejoin:round;stroke-miterlimit:10;" x1="60.102" y1="113.583" x2="91.746" y2="85.4"/>
			
				<line style="fill:none;stroke:#000000;stroke-width:3;stroke-linecap:round;stroke-linejoin:round;stroke-miterlimit:10;" x1="80.724" y1="113.583" x2="49.08" y2="85.4"/>
			
				<line style="fill:none;stroke:#000000;stroke-width:3;stroke-linecap:round;stroke-linejoin:round;stroke-miterlimit:10;" x1="91.746" y1="103.766" x2="60.102" y2="75.583"/>
		</g>
	</g>
</g>
<g id="Layer_1">
</g>
</svg>
