<?xml version="1.0" encoding="iso-8859-1"?>
<!-- Generator: Adobe Illustrator 19.2.0, SVG Export Plug-In . SVG Version: 6.00 Build 0)  -->
<!DOCTYPE svg PUBLIC "-//W3C//DTD SVG 1.1//EN" "http://www.w3.org/Graphics/SVG/1.1/DTD/svg11.dtd">
<svg version="1.1" xmlns="http://www.w3.org/2000/svg" xmlns:xlink="http://www.w3.org/1999/xlink" x="0px" y="0px"
	 viewBox="0 0 125.362 125.784" style="enable-background:new 0 0 125.362 125.784;" xml:space="preserve">
<g id="supa">
	<g id="supa_1_">
		<circle style="fill:#FFFFFF;" cx="64.274" cy="59.688" r="43"/>
		<g>
			<path style="fill:#FFFFFF;" d="M91.617,41.693c-8.886,1.887-18.675,2.924-28.935,2.924c-10.24,0-20.032-1.028-28.906-2.909
				c1.343,3.028,2.072,6.529,2.072,10.244c0,11.598-7.462,21-16.667,21s-16.667-9.402-16.667-21V39.784
				c0-20.527,26.938-37.167,60.167-37.167s60.167,16.64,60.167,37.167v12.167c0,11.598-7.462,21-16.667,21s-16.667-9.402-16.667-21
				C89.516,48.228,90.269,44.725,91.617,41.693z"/>
			<path d="M88.499,44.476c-0.024,0.005-0.047,0.012-0.071,0.017c-1.207,0.256-2.418,0.497-3.632,0.721
				c-2.432,0.423-4.875,0.772-7.326,1.062c-2.45,0.304-4.913,0.472-7.375,0.615c-2.463,0.135-4.929,0.21-7.395,0.226
				c-1.238-0.011-2.437-0.031-3.697-0.067c-1.236-0.039-2.466-0.09-3.698-0.156c-2.462-0.142-4.925-0.308-7.375-0.611
				c-4.902-0.564-9.779-1.394-14.565-2.618l-0.003-0.001l2.243-2.768c1.451,3.331,2.119,6.915,2.169,10.463l0,0.739l-0.025,0.623
				l-0.051,1.246c-0.074,0.87-0.19,1.831-0.325,2.719c-0.339,1.753-0.749,3.505-1.437,5.17c-1.278,3.355-3.326,6.469-6.098,8.929
				c-1.426,1.182-2.991,2.237-4.749,2.957c-1.759,0.686-3.639,1.161-5.555,1.187l-0.179,0.011l-0.089,0.005
				c-0.086,0,0.067,0.008-0.216,0.001l-0.311-0.016L18.117,74.9c-0.413-0.02-0.807-0.024-1.346-0.132
				c-0.501-0.086-1.01-0.171-1.503-0.275l-1.368-0.423c-1.783-0.651-3.495-1.535-4.959-2.705c-1.484-1.143-2.814-2.475-3.906-3.964
				c-1.141-1.462-2.019-3.086-2.787-4.749c-1.472-3.359-2.163-7.007-2.23-10.634L0.003,42.04l-0.002-1.247L0,40.17l0-0.312
				l0.011-0.414c0.043-0.847,0.029-1.601,0.174-2.618c0.188-1.953,0.65-3.655,1.192-5.427c1.188-3.46,2.994-6.654,5.205-9.454
				c4.461-5.596,10.238-9.783,16.362-12.965c6.15-3.179,12.716-5.371,19.402-6.828C49.055,0.681,55.832,0.041,62.734,0
				c3.264,0.015,6.825,0.194,10.181,0.543c3.398,0.342,6.78,0.883,10.124,1.613c6.685,1.459,13.251,3.653,19.4,6.834
				c6.123,3.184,11.899,7.373,16.357,12.972c2.208,2.802,4.013,5.997,5.199,9.458c0.536,1.748,1.008,3.533,1.181,5.37
				c0.141,0.911,0.136,1.835,0.18,2.754l0.006,2.516l-0.019,10.074l-0.057,1.245c-0.022,0.42-0.023,0.807-0.094,1.304
				c-0.119,0.938-0.206,1.907-0.42,2.779L124.49,58.8l-0.387,1.316c-0.229,0.885-0.61,1.727-0.931,2.585
				c-0.749,1.676-1.605,3.322-2.734,4.809c-1.077,1.515-2.396,2.882-3.883,4.059c-2.989,2.374-6.75,3.832-10.848,3.693l-1.244-0.086
				c-0.451-0.049-1.014-0.169-1.513-0.262c-0.254-0.053-0.52-0.098-0.763-0.162l-0.692-0.224c-0.456-0.163-0.933-0.278-1.367-0.487
				c-1.794-0.735-3.384-1.817-4.832-3.022c-2.813-2.506-4.892-5.666-6.158-9.073c-1.31-3.391-1.838-7.051-1.734-10.595
				C87.48,49.014,87.857,46.712,88.499,44.476z M93.445,42.505c-1.195,2.779-1.776,5.869-1.801,8.898
				c-0.026,3.104,0.539,6.124,1.647,8.931c1.072,2.815,2.812,5.327,4.984,7.227c1.119,0.898,2.31,1.697,3.609,2.208
				c0.315,0.155,0.658,0.217,0.984,0.335l0.494,0.16c0.159,0.039,0.306,0.055,0.458,0.086c0.318,0.049,0.566,0.134,0.939,0.176
				l1.245,0.072l0.311,0.018c-0.27-0.007-0.038-0.005-0.082-0.008l0.064-0.005l0.128-0.01l0.513-0.038
				c0.342-0.025,0.686-0.027,1.02-0.118l1.009-0.2l0.981-0.328c1.282-0.503,2.542-1.148,3.629-2.082
				c1.104-0.896,2.114-1.95,2.945-3.157c0.878-1.17,1.545-2.506,2.14-3.863c0.247-0.704,0.559-1.381,0.732-2.113l0.308-1.078
				l0.217-1.104c0.178-0.747,0.214-1.441,0.311-2.15c0.058-0.326,0.057-0.772,0.074-1.182l0.043-1.246l-0.012-9.873l-0.012-2.47
				c-0.044-0.74-0.03-1.484-0.153-2.218c-0.136-1.479-0.533-2.923-0.967-4.349c-0.982-2.826-2.485-5.505-4.396-7.917
				c-3.856-4.824-9.069-8.643-14.725-11.558c-5.676-2.919-11.835-4.968-18.135-6.325c-3.153-0.68-6.349-1.183-9.567-1.498
				c-3.258-0.322-6.344-0.479-9.729-0.49C56.263,5.261,49.725,5.849,43.437,7.22c-6.301,1.355-12.46,3.402-18.138,6.319
				c-5.657,2.912-10.871,6.73-14.73,11.552c-1.915,2.411-3.417,5.089-4.402,7.915c-0.202,0.717-0.455,1.424-0.596,2.154
				l-0.227,1.092c-0.069,0.36-0.09,0.696-0.142,1.044c-0.118,0.628-0.121,1.541-0.163,2.354l-0.011,2.39l-0.011,9.967
				c-0.021,3.02,0.56,6.017,1.615,8.809c0.568,1.374,1.216,2.729,2.076,3.928c0.813,1.236,1.813,2.323,2.914,3.261
				c1.081,0.981,2.368,1.648,3.675,2.181l1.004,0.346l0.943,0.205c0.272,0.092,0.711,0.116,1.127,0.146l0.622,0.048l0.311,0.024
				c-0.231-0.008-0.026-0.005-0.06-0.008l0.066-0.004l0.132-0.009c1.42-0.001,2.812-0.352,4.148-0.848
				c1.334-0.53,2.556-1.343,3.7-2.262c2.215-1.944,3.996-4.494,5.06-7.361c2.226-5.671,2.065-12.426-0.403-17.944
				c-0.45-1.006,0.001-2.187,1.007-2.636c0.373-0.167,0.77-0.21,1.145-0.147l0.091,0.015l0.003,0
				c2.358,0.383,4.714,0.759,7.085,1.036c2.366,0.31,4.739,0.562,7.118,0.75c2.38,0.174,4.758,0.36,7.143,0.452
				c1.191,0.05,2.387,0.084,3.577,0.107c1.166,0.02,2.393,0.025,3.582,0.021c2.387,0.014,4.774-0.029,7.158-0.13
				c2.385-0.093,4.763-0.28,7.143-0.455c2.378-0.189,4.752-0.443,7.117-0.755c1.185-0.144,2.367-0.305,3.548-0.48l3.551-0.564
				l0.065-0.01c1.098-0.174,2.129,0.574,2.303,1.672C93.645,41.782,93.588,42.169,93.445,42.505z"/>
		</g>
		<g>
			<path style="fill:#FFFFFF;" d="M122.849,97.784c0,14.083-11.044,25.5-24.667,25.5H27.516c-13.623,0-24.667-11.417-24.667-25.5
				l0,0c0-14.083,11.044-25.5,24.667-25.5h70.667C111.806,72.284,122.849,83.701,122.849,97.784L122.849,97.784z"/>
			<path d="M125.047,97.892c0,0-0.013,0.292-0.038,0.857c-0.013,0.283-0.028,0.633-0.047,1.05c-0.009,0.208-0.019,0.433-0.03,0.675
				c-0.035,0.268-0.073,0.555-0.114,0.859c-0.088,0.61-0.186,1.292-0.295,2.042c-0.173,0.71-0.362,1.484-0.566,2.321
				c-0.225,0.831-0.57,1.695-0.887,2.631c-0.377,0.912-0.821,1.869-1.317,2.861c-1.076,1.942-2.432,4.018-4.274,5.979
				c-1.854,1.939-4.128,3.803-6.867,5.298c-2.729,1.498-5.936,2.605-9.427,3.001c-0.87,0.099-1.759,0.117-2.656,0.174
				c-0.88,0.037-1.664,0.015-2.515,0.026c-1.676,0.006-3.391,0.012-5.142,0.019c-7.006,0.025-14.595,0.053-22.622,0.082
				c-8.027,0.006-16.492,0.013-25.249,0.02c-4.379,0-8.83,0-13.336,0h-1.692h-0.424l-0.554-0.024l-0.848-0.044l-0.849-0.044
				l-0.425-0.022l-0.486-0.07l-1.952-0.301c-2.486-0.546-4.91-1.282-7.143-2.513c-2.239-1.177-4.356-2.635-6.173-4.419
				c-0.964-0.837-1.748-1.848-2.599-2.796c-0.735-1.04-1.546-2.032-2.151-3.16c-1.343-2.174-2.3-4.573-2.987-7.031l-0.461-1.862
				c-0.112-0.629-0.195-1.263-0.291-1.895l-0.137-0.949L0.44,99.698l-0.047-0.957l-0.022-0.478L0.36,98.024l-0.005-0.12
				c0-0.094-0.007,0.042-0.002-0.242l0.096-1.749l0.05-0.877l0.142-0.99c0.1-0.657,0.191-1.324,0.31-1.97l0.47-1.857
				c0.699-2.451,1.666-4.84,3.017-7c0.608-1.121,1.423-2.107,2.16-3.138c0.853-0.94,1.638-1.944,2.605-2.769
				c1.822-1.762,3.938-3.195,6.171-4.348c2.218-1.204,4.656-1.92,7.087-2.436c1.233-0.19,2.46-0.403,3.701-0.409
				c1.28-0.08,2.373-0.047,3.503-0.04c4.506,0.037,8.958,0.074,13.336,0.11c8.757,0.041,17.222,0.112,25.249,0.086
				c8.027-0.013,15.617-0.026,22.622-0.037c1.751-0.003,3.466-0.006,5.142-0.008c0.419-0.001,0.836-0.001,1.25-0.002l0.619-0.001
				l0.416,0.003l0.307,0.016c0.829,0.052,1.599,0.059,2.448,0.145c0.889,0.132,1.78,0.254,2.634,0.412
				c0.817,0.214,1.624,0.426,2.419,0.634c0.77,0.286,1.529,0.569,2.277,0.846c0.735,0.307,1.426,0.685,2.123,1.019
				c2.727,1.462,5,3.296,6.857,5.21c1.847,1.936,3.212,3.991,4.298,5.919c0.502,0.984,0.951,1.935,1.334,2.842
				c0.323,0.931,0.673,1.79,0.904,2.618c0.21,0.834,0.405,1.606,0.583,2.313c0.11,0.72,0.211,1.375,0.3,1.961
				c0.043,0.293,0.083,0.57,0.12,0.828c0.014,0.261,0.028,0.504,0.04,0.73c0.024,0.451,0.044,0.831,0.06,1.136
				c0.03,0.611,0.046,0.927,0.046,0.927L125.047,97.892z M120.649,97.784c0,0-0.013-0.268-0.038-0.786
				c-0.012-0.259-0.026-0.581-0.043-0.964c-0.008-0.191-0.017-0.398-0.026-0.619c-0.031-0.219-0.065-0.453-0.1-0.701
				c-0.071-0.497-0.151-1.051-0.238-1.662c-0.147-0.599-0.307-1.252-0.48-1.959c-0.188-0.702-0.487-1.427-0.747-2.219
				c-0.321-0.768-0.695-1.573-1.11-2.411c-0.911-1.633-2.048-3.383-3.596-5.03c-1.559-1.626-3.464-3.187-5.748-4.435
				c-0.585-0.281-1.162-0.609-1.778-0.871c-0.626-0.239-1.262-0.481-1.907-0.727c-0.666-0.18-1.342-0.362-2.027-0.547
				c-0.668-0.113-1.345-0.228-2.031-0.345c-0.736-0.087-1.587-0.099-2.391-0.153l-0.307-0.017c0.189,0.005,0.008,0.001,0.031,0.002
				l-0.077,0l-0.154,0l-0.619-0.001c-0.414-0.001-0.831-0.001-1.25-0.002c-1.676-0.003-3.391-0.006-5.142-0.008
				c-7.006-0.011-14.595-0.024-22.622-0.037C60.222,74.267,51.757,74.338,43,74.379c-4.379,0.036-8.83,0.073-13.336,0.11
				c-1.124,0.01-2.292,0.002-3.273,0.09c-1.032,0.014-2.043,0.22-3.06,0.387c-2,0.471-4.004,1.076-5.816,2.111
				c-1.826,0.984-3.559,2.19-5.038,3.679c-0.793,0.689-1.422,1.54-2.128,2.316c-0.591,0.87-1.269,1.682-1.754,2.622
				c-1.103,1.797-1.872,3.787-2.428,5.818l-0.374,1.539l-0.217,1.491l-0.114,0.743l-0.039,0.872l-0.075,1.75
				c0.008-0.211,0.005-0.002,0.008-0.023l0.005,0.099l0.01,0.198l0.02,0.396l0.039,0.793l0.038,0.793l0.118,0.783l0.236,1.566
				l0.384,1.535c0.569,2.025,1.348,4.004,2.459,5.788c0.489,0.933,1.17,1.738,1.764,2.6c0.708,0.769,1.338,1.612,2.134,2.289
				c1.484,1.467,3.217,2.649,5.037,3.608c1.797,1.009,3.814,1.593,5.759,2.034l1.419,0.23l0.355,0.061l0.425,0.022l0.849,0.044
				l0.848,0.044l0.212,0.011l0.106,0.006c0.152,0.005-0.089,0.001-0.025,0h0.424h1.692c4.506,0,8.958,0,13.336,0
				c8.757,0.007,17.222,0.013,25.249,0.02c8.027,0.029,15.617,0.056,22.622,0.082c1.751,0.006,3.466,0.013,5.142,0.019
				c0.824-0.004,1.698,0.022,2.453-0.007c0.736-0.048,1.468-0.049,2.183-0.123c2.866-0.297,5.505-1.182,7.769-2.401
				c2.272-1.215,4.175-2.747,5.738-4.347c1.552-1.622,2.698-3.352,3.62-4.97c0.42-0.83,0.8-1.629,1.127-2.392
				c0.266-0.787,0.57-1.507,0.764-2.205c0.179-0.703,0.344-1.354,0.496-1.95c0.09-0.581,0.171-1.108,0.244-1.581
				c0.038-0.237,0.074-0.461,0.107-0.67c0.013-0.241,0.025-0.466,0.036-0.674c0.022-0.417,0.041-0.767,0.056-1.05
				c0.03-0.565,0.046-0.856,0.046-0.856L120.649,97.784z"/>
		</g>
		<g>
			<path d="M27.78,95.833c0,0,1.078-0.174,2.965-0.479c0.944-0.147,2.09-0.325,3.405-0.53c1.325-0.188,2.842-0.364,4.489-0.554
				c0.824-0.095,1.683-0.194,2.572-0.297c0.887-0.079,1.803-0.16,2.745-0.244c1.885-0.165,3.872-0.367,5.934-0.45
				c2.061-0.108,4.189-0.247,6.355-0.295c2.165-0.073,4.365-0.147,6.565-0.152c2.2-0.019,4.4,0.006,6.565,0.055
				c2.165,0.02,4.294,0.121,6.355,0.187c4.12,0.174,7.958,0.469,11.245,0.762c3.288,0.278,6.018,0.645,7.933,0.884
				c0.958,0.138,1.711,0.247,2.224,0.322c0.521,0.083,0.799,0.127,0.799,0.127c0.982,0.156,1.652,1.078,1.496,2.059
				c-0.149,0.939-0.999,1.593-1.931,1.512l-0.06-0.005c0,0-1.069-0.095-2.939-0.262c-1.884-0.162-4.585-0.35-7.83-0.543
				c-3.243-0.216-7.036-0.34-11.096-0.478c-2.031-0.045-4.129-0.126-6.263-0.125c-2.133-0.028-4.299-0.032-6.465,0.007
				c-2.167-0.012-4.332,0.038-6.463,0.091c-2.133,0.027-4.227,0.145-6.255,0.232c-2.029,0.078-3.986,0.21-5.843,0.319
				c-0.929,0.056-1.832,0.11-2.706,0.163c-0.867,0.075-1.705,0.148-2.51,0.218c-1.612,0.136-3.09,0.26-4.4,0.371
				c-1.323,0.143-2.476,0.268-3.426,0.371c-1.901,0.194-2.988,0.306-2.988,0.306c-0.989,0.102-1.874-0.618-1.975-1.607
				C26.178,96.843,26.848,95.986,27.78,95.833z"/>
		</g>
		<g>
			
				<line style="fill:none;stroke:#000000;stroke-width:3.5;stroke-linecap:round;stroke-linejoin:round;stroke-miterlimit:10;" x1="44.016" y1="42.952" x2="81.683" y2="72.284"/>
			
				<line style="fill:none;stroke:#000000;stroke-width:3.5;stroke-linecap:round;stroke-linejoin:round;stroke-miterlimit:10;" x1="44.016" y1="72.284" x2="81.683" y2="42.952"/>
		</g>
	</g>
</g>
<g id="Layer_1">
</g>
</svg>
