<?xml version="1.0" encoding="iso-8859-1"?>
<!-- Generator: Adobe Illustrator 19.2.0, SVG Export Plug-In . SVG Version: 6.00 Build 0)  -->
<!DOCTYPE svg PUBLIC "-//W3C//DTD SVG 1.1//EN" "http://www.w3.org/Graphics/SVG/1.1/DTD/svg11.dtd">
<svg version="1.1" xmlns="http://www.w3.org/2000/svg" xmlns:xlink="http://www.w3.org/1999/xlink" x="0px" y="0px"
	 viewBox="0 0 140 140" style="enable-background:new 0 0 140 140;" xml:space="preserve">
<g id="kiwen">
	<g id="kiwen_3_">
		<path style="fill:#FFFFFF;stroke:#000000;stroke-width:5;stroke-linecap:round;stroke-linejoin:round;stroke-miterlimit:10;" d="
			M100.413,33.291c19.25,0,30,13.431,30,30v18.503c0,33.137-26.863,48.25-60,48.25s-60-15.113-60-48.25c0,0,0-12,0-18.503
			c0-32.747,25.826-53.497,52.75-53.497c9.4,0,11.94,9.306,15.472,23.5L100.413,33.291z"/>
		
			<line style="fill:none;stroke:#000000;stroke-width:4;stroke-linecap:round;stroke-linejoin:round;stroke-miterlimit:10;" x1="10.413" y1="61.294" x2="129.663" y2="61.294"/>
		
			<line style="fill:none;stroke:#000000;stroke-width:4;stroke-linecap:round;stroke-linejoin:round;stroke-miterlimit:10;" x1="14.413" y1="99.294" x2="127.163" y2="99.294"/>
		<g>
			<g>
				
					<line style="fill:none;stroke:#000000;stroke-width:4;stroke-linecap:round;stroke-linejoin:round;stroke-miterlimit:10;" x1="32.372" y1="70.347" x2="56.79" y2="90.24"/>
				
					<line style="fill:none;stroke:#000000;stroke-width:4;stroke-linecap:round;stroke-linejoin:round;stroke-miterlimit:10;" x1="56.79" y1="70.347" x2="32.372" y2="90.24"/>
			</g>
			<g>
				
					<line style="fill:none;stroke:#000000;stroke-width:4;stroke-linecap:round;stroke-linejoin:round;stroke-miterlimit:10;" x1="83.286" y1="70.347" x2="107.704" y2="90.24"/>
				
					<line style="fill:none;stroke:#000000;stroke-width:4;stroke-linecap:round;stroke-linejoin:round;stroke-miterlimit:10;" x1="107.704" y1="70.347" x2="83.286" y2="90.24"/>
			</g>
		</g>
	</g>
</g>
<g id="Layer_1">
</g>
</svg>
