<?xml version="1.0" encoding="iso-8859-1"?>
<!-- Generator: Adobe Illustrator 19.2.0, SVG Export Plug-In . SVG Version: 6.00 Build 0)  -->
<!DOCTYPE svg PUBLIC "-//W3C//DTD SVG 1.1//EN" "http://www.w3.org/Graphics/SVG/1.1/DTD/svg11.dtd">
<svg version="1.1" xmlns="http://www.w3.org/2000/svg" xmlns:xlink="http://www.w3.org/1999/xlink" x="0px" y="0px"
	 viewBox="0 0 125.002 125.308" style="enable-background:new 0 0 125.002 125.308;" xml:space="preserve">
<g id="sijelo">
	<g id="sijelo_1_">
		<g>
			<path style="fill:#FFFFFF;" d="M107.383,50.857c3.269-3.512,5.284-8.206,5.284-13.382c0-10.862-8.805-19.667-19.667-19.667
				c-9.233,0-16.958,6.371-19.074,14.951c-3.166-2.468-7.121-3.951-11.427-3.951c-4.306,0-8.26,1.483-11.425,3.95
				c-2.116-8.579-9.841-14.95-19.073-14.95c-10.862,0-19.667,8.805-19.667,19.667c0,5.176,2.015,9.871,5.284,13.382
				C8.588,54.899,2.5,62.499,2.5,71.216v4.69c0,25.903,26.863,46.902,60,46.902s60-20.999,60-46.902v-4.69
				C122.5,62.499,116.412,54.899,107.383,50.857z"/>
			<path d="M105.702,49.362c0.23-0.273,0.521-0.587,0.7-0.827c0.19-0.244,0.382-0.482,0.574-0.763
				c0.392-0.533,0.732-1.101,1.062-1.671c0.637-1.155,1.141-2.377,1.505-3.636c0.357-1.261,0.575-2.558,0.653-3.866
				c0.03-0.326,0.019-0.655,0.03-0.982l0.002-0.123l0-0.015c0-0.032,0.005,0.222,0.002,0.106l-0.002-0.035l-0.004-0.07l-0.016-0.28
				l-0.032-0.559c-0.024-0.367-0.037-0.759-0.07-1.106l-0.156-0.897c-0.177-1.196-0.602-2.513-1.072-3.703
				c-0.268-0.593-0.558-1.178-0.854-1.758c-0.36-0.543-0.639-1.14-1.052-1.648c-0.392-0.522-0.765-1.058-1.227-1.522
				c-0.222-0.239-0.432-0.489-0.662-0.721l-0.726-0.657c-0.962-0.886-2.063-1.596-3.187-2.256c-1.165-0.582-2.361-1.116-3.626-1.436
				c-0.629-0.17-1.259-0.334-1.909-0.412c-0.322-0.048-0.643-0.116-0.967-0.15l-0.979-0.056l-0.49-0.031l-0.123-0.008l-0.061-0.004
				L93,20.275c0.207-0.004,0.047-0.001,0.089-0.002l-0.035,0.001l-0.28,0.01l-1.12,0.039c-0.402,0.002-0.629,0.072-0.953,0.1
				c-0.306,0.048-0.591,0.047-0.919,0.132c-1.288,0.229-2.542,0.623-3.752,1.127c-1.183,0.553-2.374,1.134-3.422,1.94
				c-1.066,0.772-2.062,1.656-2.92,2.666c-0.884,0.987-1.641,2.088-2.286,3.252c-0.664,1.16-1.115,2.423-1.534,3.698l-0.06,0.181
				c-0.34,1.035-1.455,1.597-2.49,1.257c-0.231-0.076-0.444-0.196-0.623-0.339l-0.002-0.002l0,0
				c0.065-0.087-0.585,0.745-0.311,0.391l-0.004-0.003l-0.008-0.006l-0.017-0.012l-0.034-0.025l-0.067-0.05l-0.134-0.1l-0.268-0.2
				L71.3,33.951c-0.374-0.242-0.755-0.472-1.145-0.686c-0.781-0.426-1.595-0.787-2.433-1.077c-0.838-0.291-1.699-0.511-2.573-0.658
				c-0.437-0.072-0.877-0.126-1.319-0.166l-0.664-0.042l-0.613-0.015l-0.769,0.017l-0.619,0.041
				c-0.434,0.039-0.88,0.093-1.315,0.165c-0.874,0.147-1.735,0.367-2.573,0.658c-1.676,0.581-3.257,1.445-4.665,2.542
				c-1.088,0.848-2.658,0.653-3.506-0.435c-0.195-0.25-0.335-0.526-0.421-0.812l-0.037-0.126l0-0.001l0,0
				c0.969-0.244,0.266-0.076,0.481-0.135l-0.005-0.015l-0.01-0.03l-0.02-0.06l-0.039-0.12l-0.078-0.239l-0.155-0.478
				c-0.092-0.322-0.214-0.634-0.351-0.94c-0.133-0.307-0.252-0.619-0.392-0.922l-0.463-0.888c-0.645-1.165-1.399-2.271-2.291-3.254
				c-0.856-1.012-1.852-1.899-2.918-2.674c-1.049-0.805-2.236-1.399-3.426-1.942c-1.216-0.492-2.467-0.896-3.757-1.123
				c-1.277-0.211-2.63-0.336-3.885-0.239l-1.119,0.065c-0.34,0.037-0.609,0.104-0.917,0.15c-0.302,0.058-0.591,0.079-0.904,0.16
				l-0.945,0.254c-1.261,0.336-2.457,0.864-3.623,1.447c-1.123,0.66-2.225,1.37-3.187,2.256l-0.726,0.657
				c-0.229,0.232-0.44,0.482-0.662,0.721c-0.462,0.464-0.836,1-1.228,1.522c-0.413,0.508-0.692,1.104-1.052,1.648
				c-0.298,0.578-0.584,1.166-0.846,1.761c-0.47,1.213-0.887,2.457-1.079,3.751l-0.159,0.967l-0.061,0.98
				c-0.014,0.309-0.052,0.693-0.051,0.942c0.01,0.356,0.003,0.791,0.032,1.061c0.069,1.229,0.298,2.581,0.654,3.824
				c0.715,2.523,2.028,4.884,3.799,6.861l0.009,0.01c0.837,0.935,0.758,2.371-0.177,3.208c-0.169,0.151-0.364,0.277-0.56,0.369
				l-0.004,0.002c-4.053,1.92-7.694,4.699-10.201,8.215c-1.247,1.756-2.194,3.69-2.752,5.714c-0.151,0.503-0.225,1.023-0.346,1.532
				c-0.067,0.518-0.139,1.036-0.187,1.556c-0.01,0.542-0.048,1-0.047,1.609v1.809v1.809l0.004,0.824l0.029,0.904
				c0.008,1.259,0.145,2.299,0.245,3.379c0.303,2.221,0.8,4.429,1.484,6.577c0.727,2.137,1.634,4.214,2.7,6.216
				c1.096,1.988,2.363,3.884,3.748,5.697c1.419,1.789,2.963,3.485,4.616,5.078c1.685,1.559,3.431,3.064,5.311,4.405
				c3.731,2.715,7.822,4.958,12.102,6.754c4.295,1.763,8.767,3.139,13.349,3.996c4.557,0.87,9.293,1.308,13.865,1.322
				c1.194-0.033,2.438-0.027,3.591-0.092c1.148-0.079,2.282-0.11,3.45-0.248c1.162-0.103,2.321-0.233,3.474-0.411
				c1.158-0.141,2.302-0.368,3.449-0.572c4.582-0.858,9.054-2.233,13.349-3.997c4.279-1.797,8.371-4.04,12.101-6.755
				c1.88-1.341,3.625-2.846,5.311-4.406c1.653-1.593,3.196-3.29,4.616-5.079c1.385-1.814,2.651-3.71,3.747-5.697
				c1.066-2.002,1.973-4.079,2.699-6.216c0.685-2.15,1.18-4.352,1.484-6.582c0.278-2.244,0.284-4.431,0.277-6.912v-1.809v-0.226
				v-0.057c-0.002-0.116,0.003,0.095,0.002,0.052l-0.004-0.113l-0.017-0.452l-0.033-0.904c-0.053-0.533-0.119-0.965-0.182-1.465
				c-0.122-0.509-0.195-1.029-0.347-1.532c-0.558-2.024-1.505-3.957-2.753-5.713c-2.507-3.516-6.15-6.293-10.203-8.214
				c-1.141-0.541-1.628-1.904-1.087-3.046c0.084-0.178,0.188-0.34,0.309-0.484L105.702,49.362z M110.911,50.1
				c1.427,0.76,2.823,1.588,4.128,2.572c2.078,1.588,3.972,3.464,5.547,5.62c1.574,2.152,2.824,4.593,3.582,7.213
				c0.201,0.65,0.319,1.326,0.476,1.99c0.109,0.693,0.215,1.457,0.279,2.123l0.045,0.903l0.023,0.452L125,71.307v0.226v1.809
				c0.008,2.341,0.006,4.989-0.316,7.538c-0.344,2.552-0.912,5.069-1.694,7.517c-0.824,2.434-1.852,4.788-3.057,7.044
				c-1.234,2.24-2.651,4.364-4.197,6.383c-1.578,1.992-3.287,3.87-5.11,5.624c-1.852,1.718-3.77,3.366-5.819,4.83
				c-4.071,2.963-8.501,5.388-13.114,7.325c-4.627,1.902-9.428,3.374-14.331,4.293c-1.227,0.219-2.452,0.46-3.689,0.612
				c-1.232,0.189-2.47,0.328-3.711,0.439c-1.229,0.144-2.509,0.186-3.767,0.268c-1.256,0.067-2.426,0.06-3.643,0.093
				c-5.077-0.012-9.987-0.479-14.909-1.411c-4.903-0.919-9.704-2.39-14.331-4.292c-4.613-1.936-9.043-4.362-13.114-7.324
				c-2.049-1.464-3.968-3.111-5.82-4.829c-1.822-1.754-3.532-3.631-5.11-5.624c-1.546-2.019-2.964-4.143-4.197-6.382
				c-1.205-2.256-2.234-4.61-3.058-7.043c-0.783-2.45-1.35-4.961-1.696-7.521c-0.133-1.321-0.276-2.679-0.281-3.835l-0.029-0.904
				L0,75.156v-1.809v-1.809c-0.003-0.598,0.053-1.343,0.083-2.007c0.068-0.68,0.169-1.358,0.272-2.032
				c0.158-0.664,0.276-1.339,0.476-1.99c0.758-2.619,2.007-5.061,3.581-7.213c1.575-2.157,3.469-4.032,5.546-5.621
				c2.09-1.576,4.37-2.85,6.735-3.87l0.004-0.002L15.97,52.39c-2.297-2.403-4.064-5.335-5.084-8.537
				c-0.518-1.615-0.806-3.226-0.938-4.978c-0.043-0.474-0.036-0.788-0.053-1.178c-0.01-0.498,0.026-0.86,0.038-1.297
				c0.021-0.419,0.031-0.839,0.065-1.257l0.18-1.248c0.232-1.667,0.726-3.289,1.33-4.861c0.334-0.771,0.704-1.532,1.094-2.276
				c0.451-0.71,0.833-1.468,1.355-2.129c0.502-0.676,0.994-1.36,1.582-1.964c0.285-0.309,0.561-0.628,0.857-0.926l0.933-0.851
				c1.244-1.136,2.658-2.066,4.116-2.907c1.5-0.763,3.052-1.446,4.69-1.851l1.226-0.304c0.412-0.096,0.871-0.142,1.305-0.211
				c0.432-0.058,0.898-0.133,1.301-0.167l1.12-0.048c1.73-0.093,3.372,0.085,5.033,0.387c1.648,0.325,3.255,0.843,4.785,1.53
				c1.504,0.734,2.975,1.554,4.273,2.608c1.316,1.024,2.527,2.184,3.563,3.486c1.065,1.279,1.923,2.715,2.648,4.2l0.513,1.13
				c0.154,0.383,0.285,0.776,0.426,1.164c0.146,0.386,0.275,0.778,0.371,1.18l0.159,0.598l0.079,0.299l0.039,0.149l0.02,0.075
				l0.01,0.037l0.005,0.019c0.218-0.047-0.481,0.132,0.49-0.101l0,0l0,0.001l-3.964-1.373c1.83-1.426,3.897-2.559,6.099-3.322
				c1.101-0.382,2.235-0.672,3.384-0.865c0.577-0.095,1.15-0.166,1.738-0.218l0.917-0.056l0.769-0.017
				c0.689,0.004,1.193,0.026,1.798,0.073c0.58,0.051,1.159,0.122,1.734,0.217c1.15,0.193,2.283,0.483,3.384,0.865
				c1.101,0.382,2.169,0.855,3.19,1.412c0.51,0.28,1.007,0.58,1.495,0.896l0.718,0.492l0.349,0.26l0.174,0.13l0.087,0.065
				l0.043,0.033l0.022,0.016l0.011,0.008l0.005,0.004c0.276-0.351-0.37,0.483-0.302,0.398l0,0l0.003,0.002l-3.172,1.099
				c0.382-1.599,0.866-3.194,1.609-4.678c0.725-1.486,1.58-2.928,2.652-4.202c1.035-1.304,2.245-2.468,3.561-3.494
				c1.3-1.054,2.767-1.887,4.278-2.611c1.536-0.675,3.14-1.205,4.79-1.528c0.811-0.161,1.791-0.283,2.568-0.35l1.119-0.057
				l0.28-0.014l0.178-0.004l0.079,0.003l0.157,0.006l0.629,0.025l1.259,0.057c0.418,0.037,0.834,0.111,1.251,0.167
				c0.415,0.068,0.837,0.106,1.246,0.203l1.225,0.313c1.634,0.421,3.187,1.099,4.688,1.862c1.458,0.841,2.873,1.77,4.117,2.907
				l0.933,0.851c0.296,0.298,0.572,0.617,0.857,0.926c0.589,0.604,1.081,1.288,1.583,1.964c0.522,0.662,0.904,1.42,1.356,2.129
				c0.392,0.744,0.757,1.507,1.086,2.28c0.603,1.594,1.09,3.144,1.337,4.909l0.182,1.318c0.031,0.396,0.037,0.753,0.056,1.131
				l0.024,0.56l0.012,0.28l0.008,0.266l-0.004,0.157c-0.016,0.419-0.014,0.839-0.055,1.257c-0.122,1.673-0.422,3.339-0.938,4.937
				c-0.514,1.597-1.205,3.134-2.056,4.57C111.695,48.998,111.31,49.555,110.911,50.1z"/>
		</g>
		<g>
			<path style="fill:#FFFFFF;" d="M46.192,33.138c-2.121-3.139-3.359-6.923-3.359-10.996c0-10.862,8.805-19.667,19.667-19.667
				s19.667,8.805,19.667,19.667c0,4.499-1.511,8.646-4.053,11.96"/>
			<path d="M44.515,34.227c0,0-0.048-0.069-0.141-0.204c-0.096-0.145-0.221-0.307-0.424-0.633c-0.4-0.626-0.921-1.474-1.459-2.677
				c-0.538-1.19-1.085-2.692-1.463-4.482c-0.187-0.894-0.327-1.859-0.402-2.882c-0.023-0.256-0.035-0.515-0.04-0.778l-0.012-0.397
				l0.014-0.478c0.018-0.484,0.037-0.978,0.056-1.484c0.202-2.349,0.752-4.767,1.789-7.142c1.033-2.381,2.569-4.715,4.598-6.705
				c2.017-1.997,4.503-3.665,7.279-4.778c2.796-1.116,5.774-1.674,8.909-1.578c0.698,0.053,1.277,0.029,2.127,0.179
				c0.786,0.125,1.611,0.216,2.319,0.433c0.732,0.193,1.47,0.36,2.168,0.648c0.708,0.258,1.415,0.51,2.077,0.861
				c2.7,1.282,5.077,3.097,6.969,5.209c1.906,2.106,3.29,4.531,4.188,6.963c0.897,2.435,1.337,4.887,1.345,7.14
				c0.006,0.297,0.03,0.526,0.02,0.869c-0.009,0.248-0.017,0.494-0.025,0.737c-0.035,0.57-0.08,1.119-0.151,1.618
				c-0.138,1.017-0.336,1.972-0.575,2.854c-0.49,1.762-1.117,3.232-1.731,4.384c-0.609,1.156-1.191,2.003-1.602,2.565
				c-0.423,0.554-0.648,0.849-0.648,0.849c-0.67,0.877-1.924,1.045-2.801,0.375c-0.846-0.646-1.032-1.834-0.444-2.705l0.071-0.105
				c0,0,0.17-0.251,0.489-0.721c0.313-0.473,0.732-1.193,1.19-2.142c0.457-0.949,0.909-2.151,1.243-3.573
				c0.161-0.712,0.286-1.479,0.363-2.293c0.04-0.417,0.057-0.811,0.077-1.208c0.002-0.241,0.005-0.485,0.007-0.731
				c0.001-0.152-0.027-0.422-0.038-0.63c-0.095-3.575-1.582-7.704-4.586-10.985c-1.491-1.637-3.357-3.036-5.461-4.013
				c-0.513-0.274-1.067-0.458-1.616-0.654c-0.54-0.226-1.117-0.339-1.684-0.488c-0.581-0.178-1.103-0.205-1.645-0.303
				c-0.475-0.116-1.253-0.103-1.899-0.146c-2.254-0.07-4.693,0.323-6.828,1.175c-2.16,0.843-4.109,2.124-5.698,3.67
				c-1.586,1.549-2.834,3.336-3.694,5.18c-0.869,1.854-1.33,3.75-1.542,5.421c-0.032,0.505-0.063,0.999-0.094,1.482L45.1,22.107
				l-0.006,0.09l-0.003,0.045c-0.003,0.11,0.002-0.124,0.002-0.093l0,0.02l0.002,0.316c-0.001,0.21,0.002,0.417,0.011,0.621
				c0.025,0.817,0.103,1.591,0.222,2.312c0.241,1.441,0.627,2.665,1.02,3.642c0.387,0.969,0.789,1.737,1.046,2.189
				c0.271,0.482,0.489,0.812,0.476,0.799c0.602,0.926,0.339,2.165-0.588,2.767C46.355,35.416,45.117,35.153,44.515,34.227z"/>
		</g>
		<g>
			<path style="fill:#FFFFFF;" d="M29.556,37.581c8.558-4.26,20.381-6.416,33.44-6.416c12.562,0,23.98,2.438,32.448,6.416"/>
			<path d="M28.916,36.225c0,0,0.231-0.129,0.665-0.372c0.43-0.24,1.055-0.611,1.956-1.025c0.887-0.437,1.937-0.893,3.178-1.395
				c1.237-0.497,2.648-1.027,4.217-1.488c1.563-0.492,3.276-0.934,5.102-1.341c1.828-0.382,3.762-0.774,5.778-1.032
				c4.026-0.59,8.353-0.857,12.671-0.898c1.145-0.011,2.125,0.02,3.221,0.047c1.093,0.045,2.187,0.083,3.247,0.164
				c2.133,0.121,4.223,0.386,6.239,0.67c2.017,0.28,3.951,0.667,5.774,1.075c1.822,0.416,3.531,0.872,5.088,1.369
				c1.563,0.471,2.971,0.99,4.202,1.49c1.234,0.492,2.297,0.954,3.159,1.364c0.87,0.392,1.528,0.758,1.979,1
				c0.451,0.242,0.691,0.37,0.691,0.37c0.731,0.392,1.006,1.302,0.614,2.033c-0.357,0.666-1.144,0.953-1.834,0.703l-0.056-0.02
				c0,0-0.242-0.088-0.696-0.252c-0.45-0.172-1.12-0.397-1.97-0.688c-0.847-0.297-1.89-0.622-3.096-0.958
				c-0.603-0.17-1.244-0.346-1.929-0.506c-0.679-0.178-1.395-0.356-2.148-0.522c-1.501-0.346-3.143-0.657-4.882-0.966
				c-1.745-0.284-3.59-0.545-5.506-0.761c-1.917-0.213-3.906-0.362-5.929-0.475c-1.017-0.067-2.021-0.088-3.032-0.121
				c-1.035-0.007-2.074-0.015-3.114-0.022c-2.07-0.003-4.137,0.053-6.168,0.162c-2.029,0.12-4.026,0.237-5.945,0.455
				c-3.846,0.388-7.396,0.984-10.397,1.655c-1.5,0.337-2.865,0.682-4.065,1.022c-1.193,0.341-2.249,0.675-3.059,0.975
				c-0.812,0.284-1.501,0.535-1.965,0.725c-0.463,0.18-0.71,0.276-0.71,0.276c-0.774,0.301-1.645-0.082-1.947-0.856
				C27.974,37.374,28.272,36.585,28.916,36.225z"/>
		</g>
		<path style="fill:#FFFFFF;stroke:#000000;stroke-width:4;stroke-linecap:round;stroke-linejoin:round;stroke-miterlimit:10;" d="
			M43.249,50.914c5.001-2.489,11.91-3.749,19.541-3.749c7.34,0,14.012,1.425,18.961,3.749"/>
		<g>
			<path style="fill:#FFFFFF;" d="M27.666,89.474c35,0,36.001-19.999,69.667-19.999"/>
			<path d="M27.591,87.476c0,0,1.147-0.057,3.155-0.158c0.99-0.071,2.253-0.065,3.59-0.227c1.325-0.169,2.82-0.36,4.45-0.569
				c1.622-0.321,3.391-0.675,5.235-1.114c1.806-0.577,3.753-1.04,5.663-1.852c1.949-0.688,3.885-1.638,5.863-2.583
				c0.978-0.515,1.963-1.034,2.952-1.556c0.99-0.553,1.983-1.108,2.977-1.663c2.009-1.114,4.022-2.253,6.086-3.311
				c1.007-0.554,2.065-1.033,3.102-1.516c0.518-0.241,1.034-0.481,1.545-0.72c0.514-0.234,1.051-0.418,1.57-0.627
				c1.049-0.391,2.058-0.832,3.086-1.157c1.034-0.308,2.047-0.609,3.032-0.902c0.977-0.328,1.965-0.483,2.908-0.687
				c0.945-0.193,1.859-0.38,2.735-0.559c1.765-0.251,3.392-0.393,4.829-0.556c0.719-0.098,1.392-0.11,2.014-0.121
				c0.622-0.016,1.193-0.031,1.709-0.044c2.062-0.051,3.241-0.08,3.241-0.08c1.103-0.027,2.019,0.845,2.046,1.948
				c0.027,1.084-0.815,1.988-1.891,2.044l-0.155,0.008c0,0-1.117,0.058-3.071,0.158c-0.488,0.025-1.029,0.052-1.617,0.082
				c-0.589,0.025-1.226,0.051-1.894,0.163c-1.34,0.18-2.852,0.383-4.501,0.604c-0.809,0.174-1.652,0.355-2.525,0.543
				c-0.87,0.196-1.785,0.341-2.679,0.656c-0.905,0.278-1.834,0.563-2.783,0.854c-0.945,0.306-1.876,0.729-2.842,1.096
				c-0.479,0.198-0.97,0.368-1.449,0.591c-0.478,0.228-0.959,0.458-1.442,0.689c-0.968,0.461-1.951,0.914-2.922,1.46
				c-1.953,1.022-3.929,2.162-5.927,3.294c-1.012,0.564-2.025,1.128-3.033,1.69c-1.038,0.54-2.071,1.078-3.097,1.612
				c-2.105,0.995-4.177,1.996-6.296,2.736c-2.066,0.868-4.187,1.356-6.154,1.938c-1.999,0.448-3.902,0.798-5.662,1.115
				c-1.792,0.188-3.435,0.36-4.891,0.513c-1.447,0.128-2.633,0.086-3.648,0.131c-2.01,0.046-3.158,0.072-3.158,0.072l-0.006,0
				c-1.104,0.025-2.02-0.85-2.045-1.954C25.667,88.434,26.514,87.531,27.591,87.476z"/>
		</g>
	</g>
</g>
<g id="Layer_1">
</g>
</svg>
