<?xml version="1.0" encoding="iso-8859-1"?>
<!-- Generator: Adobe Illustrator 19.2.0, SVG Export Plug-In . SVG Version: 6.00 Build 0)  -->
<!DOCTYPE svg PUBLIC "-//W3C//DTD SVG 1.1//EN" "http://www.w3.org/Graphics/SVG/1.1/DTD/svg11.dtd">
<svg version="1.1" xmlns="http://www.w3.org/2000/svg" xmlns:xlink="http://www.w3.org/1999/xlink" x="0px" y="0px"
	 viewBox="0 0 140 140" style="enable-background:new 0 0 140 140;" xml:space="preserve">
<g id="tomo">
	<g id="tomo_1_">
		<path style="fill:#FFFFFF;stroke:#000000;stroke-width:5;stroke-miterlimit:10;" d="M130.413,69.919v30c0,16.569-13.431,30-30,30
			h-60c-16.569,0-30-13.431-30-30v-30c0-33.137,26.863-60,60-60S130.413,36.782,130.413,69.919z"/>
		<g>
			<path d="M25.006,126.359c0,0,0.033-2.501,0.09-6.878c0.046-4.377,0.166-10.629,0.204-18.132
				c0.039-3.775,0.032-7.762,0.115-12.167c0.189-4.674,1.549-9.494,4.162-13.832c2.615-4.317,6.482-8.075,11.166-10.564
				c4.653-2.518,10.176-3.651,15.457-3.304c5.441,0.317,10.649,2.229,14.96,5.324c4.309,3.084,7.671,7.308,9.677,11.947
				c1.012,2.316,1.685,4.729,2.08,7.129c0.171,1.204,0.308,2.402,0.331,3.591c0.045,1.213,0.025,2.222,0.041,3.322
				c0.029,4.298,0.056,8.362,0.081,12.114c0.166,15.006,0.277,25.009,0.277,25.009c0.015,1.381-1.092,2.512-2.472,2.528
				c-1.381,0.015-2.512-1.092-2.528-2.472c0-0.014,0-0.041,0-0.055c0,0,0.111-10.004,0.277-25.009
				c0.025-3.751,0.052-7.815,0.081-12.114c0-1.05,0.032-2.219,0.005-3.211c-0.004-1.018-0.111-2.043-0.241-3.074
				c-0.305-2.056-0.869-4.124-1.729-6.109c-1.697-3.978-4.57-7.62-8.26-10.287c-3.665-2.674-8.216-4.343-12.771-4.628
				c-4.699-0.314-9.337,0.706-13.354,2.879c-4.014,2.155-7.324,5.403-9.549,9.113c-2.228,3.707-3.368,7.899-3.459,11.811
				c-0.019,4.191,0.048,8.333,0.064,12.06c0.037,7.503,0.157,13.755,0.204,18.132c0.057,4.377,0.09,6.878,0.09,6.878
				c0.018,1.381-1.087,2.515-2.467,2.533c-1.381,0.018-2.515-1.087-2.533-2.467C25.005,126.406,25.005,126.376,25.006,126.359z"/>
		</g>
		<g>
			<path d="M46.504,128.988c0,0,0-4.495,0-11.238c0-3.371,0-7.305,0-11.519c0-2.107,0-4.284,0-6.497l0.009-0.882l0.023-0.838
				c0.046-0.629,0.084-1.273,0.172-1.867c0.152-1.211,0.396-2.417,0.743-3.593c0.671-2.36,1.73-4.604,3.059-6.615
				c1.333-2.012,2.951-3.78,4.716-5.25c1.774-1.46,3.686-2.629,5.615-3.477c1.922-0.868,3.861-1.396,5.671-1.712
				c3.632-0.622,6.73-0.305,8.83,0.118c1.052,0.21,1.864,0.444,2.413,0.614c0.546,0.18,0.837,0.276,0.837,0.276
				c1.049,0.346,1.618,1.477,1.272,2.526s-1.477,1.618-2.526,1.272l-0.074-0.024c0,0-0.242-0.08-0.697-0.23
				c-0.457-0.142-1.133-0.337-2.009-0.512c-1.738-0.352-4.338-0.617-7.372-0.097c-1.507,0.265-3.122,0.701-4.723,1.426
				c-1.608,0.705-3.202,1.681-4.683,2.899c-1.472,1.228-2.824,2.704-3.936,4.382c-1.108,1.679-1.991,3.547-2.549,5.512
				c-0.29,0.979-0.493,1.984-0.619,2.994c-0.077,0.515-0.098,0.986-0.141,1.468l-0.023,0.829l-0.008,0.781c0,2.212,0,4.39,0,6.497
				c0,4.214,0,8.148,0,11.519c0,6.743,0,11.238,0,11.238c0,1.105-0.895,2-2,2S46.504,130.092,46.504,128.988z"/>
		</g>
	</g>
</g>
<g id="Layer_1">
</g>
</svg>
