<?xml version="1.0" encoding="iso-8859-1"?>
<!-- Generator: Adobe Illustrator 19.2.0, SVG Export Plug-In . SVG Version: 6.00 Build 0)  -->
<!DOCTYPE svg PUBLIC "-//W3C//DTD SVG 1.1//EN" "http://www.w3.org/Graphics/SVG/1.1/DTD/svg11.dtd">
<svg version="1.1" xmlns="http://www.w3.org/2000/svg" xmlns:xlink="http://www.w3.org/1999/xlink" x="0px" y="0px"
	 viewBox="0 0 124.637 125.216" style="enable-background:new 0 0 124.637 125.216;" xml:space="preserve">
<g id="pipi">
	<g id="pipi_2_">
		<g>
			
				<ellipse transform="matrix(0.9778 -0.2098 0.2098 0.9778 -9.7347 14.2588)" style="fill:#FFFFFF;" cx="62.356" cy="53.024" rx="60.256" ry="50.027"/>
			<path d="M123.731,39.935c0,0,0.059,0.334,0.173,0.981c0.113,0.649,0.303,1.57,0.443,2.987c0.317,2.739,0.518,6.671-0.186,11.654
				c-0.386,2.474-0.98,5.186-1.917,8.043c-0.958,2.849-2.249,5.837-3.935,8.851c-3.36,6.028-8.348,12.143-14.921,17.409
				c-6.567,5.26-14.707,9.628-23.873,12.445c-1.153,0.325-2.312,0.663-3.488,0.962c-1.194,0.264-2.344,0.585-3.594,0.805
				c-1.177,0.222-2.338,0.462-3.609,0.629c-0.623,0.09-1.248,0.181-1.875,0.272c-0.622,0.065-1.246,0.13-1.872,0.195
				c-5.002,0.544-10.178,0.537-15.387-0.036c-1.305-0.12-2.603-0.352-3.91-0.54c-1.297-0.257-2.609-0.466-3.903-0.787
				c-2.606-0.565-5.184-1.35-7.736-2.258c-5.094-1.844-10.036-4.382-14.549-7.661c-2.272-1.617-4.384-3.482-6.378-5.475
				c-2-1.991-3.812-4.194-5.408-6.554C4.562,77.169,2.263,71.79,0.996,66.187c-0.564-2.696-0.923-5.716-0.981-8.55
				c-0.084-2.872,0.192-5.74,0.661-8.554c0.472-2.817,1.208-5.58,2.189-8.235c0.978-2.654,2.12-5.243,3.512-7.673
				c5.475-9.813,13.756-17.523,22.808-22.894c9.081-5.412,18.999-8.472,28.548-9.704c9.577-1.192,18.85-0.49,27.027,1.675
				c8.185,2.166,15.263,5.744,20.792,9.924c2.771,2.084,5.169,4.304,7.203,6.53c2.019,2.243,3.663,4.489,5.018,6.601
				c2.659,4.268,4.081,7.999,4.877,10.565c0.426,1.28,0.649,2.289,0.816,2.964c0.165,0.676,0.251,1.025,0.251,1.025L123.731,39.935z
				 M118.827,40.909c0,0-0.077-0.31-0.226-0.909c-0.15-0.6-0.347-1.497-0.729-2.63c-0.711-2.277-1.977-5.581-4.349-9.379
				c-1.213-1.879-2.683-3.884-4.497-5.894c-1.83-1.995-3.995-3.993-6.511-5.879c-5.024-3.771-11.487-7.076-19.046-9.091
				c-7.549-2.011-16.17-2.693-25.109-1.586c-8.917,1.167-18.179,4.046-26.591,9.084c-8.386,5.002-15.994,12.134-20.98,21.02
				c-1.27,2.203-2.298,4.539-3.184,6.924c-0.888,2.387-1.55,4.859-1.974,7.37c-0.42,2.509-0.676,5.059-0.602,7.608
				c0.063,2.585,0.326,4.972,0.857,7.591c1.076,4.989,3.055,9.788,5.917,14.024c1.407,2.131,3.016,4.13,4.789,5.97
				c1.773,1.837,3.661,3.575,5.716,5.092c8.167,6.172,18.074,9.704,27.849,10.844c4.899,0.569,9.784,0.608,14.519,0.122l1.769-0.193
				l1.727-0.26c1.13-0.148,2.326-0.399,3.498-0.627c1.106-0.197,2.249-0.52,3.36-0.77c1.111-0.288,2.205-0.615,3.294-0.926
				c8.664-2.681,16.275-6.914,22.338-11.913c6.071-5.005,10.609-10.721,13.612-16.273c1.508-2.776,2.647-5.506,3.482-8.091
				c0.814-2.593,1.315-5.036,1.636-7.255c0.576-4.438,0.342-8.024,0.048-10.32c-0.112-1.116-0.32-2.105-0.442-2.749
				c-0.122-0.646-0.185-0.979-0.185-0.979L118.827,40.909z"/>
		</g>
		<ellipse cx="36.81" cy="36.029" rx="4.167" ry="5.333"/>
		<ellipse cx="55.311" cy="29.028" rx="4.167" ry="5.333"/>
		<ellipse cx="73.813" cy="28.362" rx="4.167" ry="5.333"/>
		<g>
			<path style="fill:#FFFFFF;" d="M22.978,68.029c0,0,28.331-33.333,77.333-13.664c3.333,57,2.665,68.331,2.665,68.331
				l-24.333-17.667L67.31,122.362l-15-15l-14.332,15C37.978,122.362,24.978,86.362,22.978,68.029z"/>
			<path d="M21.46,66.727c1.288-1.45,2.563-2.646,3.926-3.854c1.353-1.191,2.756-2.315,4.199-3.382
				c2.887-2.134,5.941-4.034,9.123-5.691c6.366-3.306,13.262-5.615,20.35-6.757c7.087-1.148,14.342-1.163,21.417-0.147
				c7.084,0.994,13.984,2.976,20.577,5.611l0.003,0.001c0.733,0.279,1.2,0.953,1.249,1.687l0.003,0.052
				c0.744,11.381,1.445,22.766,2.047,34.164c0.292,5.7,0.573,11.401,0.791,17.113c0.106,2.856,0.206,5.714,0.273,8.579l0.079,4.307
				c0.008,1.466,0.027,2.832-0.026,4.428l0,0.004l-0.003,0.043c-0.081,1.366-1.255,2.407-2.621,2.326
				c-0.506-0.03-0.965-0.209-1.341-0.493l-24.037-18.07l-0.002-0.001l2.849-0.524l-10.914,17.605l-0.001,0.002l-0.043,0.065
				c-0.75,1.128-2.273,1.434-3.401,0.684c-0.151-0.1-0.296-0.224-0.416-0.349l-14.645-15.352l-0.001-0.001l2.86-0.033l-13.97,15.344
				l-0.001,0.001c-0.934,1.002-2.505,1.058-3.507,0.123c-0.303-0.282-0.523-0.636-0.652-1.001c-1.56-4.492-3.023-8.966-4.451-13.476
				c-1.426-4.505-2.791-9.031-4.076-13.585c-0.657-2.272-1.257-4.565-1.875-6.85c-0.577-2.301-1.178-4.593-1.695-6.915
				c-0.27-1.157-0.541-2.313-0.771-3.485c-0.232-1.171-0.5-2.328-0.701-3.51l-0.606-3.545l-0.462-3.599
				C20.917,67.677,21.109,67.126,21.46,66.727z M25.098,68.706l0.366,2.499l0.644,3.4c0.213,1.133,0.497,2.265,0.742,3.397
				c0.242,1.133,0.528,2.262,0.813,3.391c0.546,2.261,1.179,4.51,1.785,6.763c0.65,2.245,1.28,4.493,1.97,6.73
				c1.35,4.478,2.781,8.938,4.274,13.378c1.491,4.435,3.032,8.878,4.637,13.248l-4.159-0.878l0.001-0.001l14.692-14.653l0.039-0.039
				c0.78-0.778,2.042-0.776,2.819,0.004l0.002,0.002l0.001,0.001l15.352,14.645l-3.86,0.4l0.001-0.002l11.75-17.058l0.043-0.063
				c0.618-0.897,1.847-1.124,2.744-0.506c0.019,0.013,0.044,0.031,0.062,0.044l0.002,0.001l24.625,17.261l-3.964,1.876l0-0.002
				c0.059-1.252,0.07-2.736,0.08-4.12l-0.016-4.242c-0.026-2.833-0.082-5.673-0.147-8.513c-0.134-5.682-0.331-11.37-0.539-17.057
				c-0.434-11.376-0.968-22.755-1.545-34.133l1.251,1.739l-0.003-0.001c-6.337-2.532-12.926-4.42-19.645-5.362
				c-6.712-0.964-13.549-0.945-20.217,0.134c-6.668,1.074-13.151,3.244-19.147,6.358c-2.996,1.56-5.875,3.351-8.59,5.358
				c-1.357,1.003-2.674,2.059-3.936,3.169C27.011,66.773,25.999,67.752,25.098,68.706z"/>
		</g>
	</g>
</g>
<g id="Layer_1">
</g>
</svg>
