<?xml version="1.0" encoding="iso-8859-1"?>
<!-- Generator: Adobe Illustrator 19.2.0, SVG Export Plug-In . SVG Version: 6.00 Build 0)  -->
<!DOCTYPE svg PUBLIC "-//W3C//DTD SVG 1.1//EN" "http://www.w3.org/Graphics/SVG/1.1/DTD/svg11.dtd">
<svg version="1.1" xmlns="http://www.w3.org/2000/svg" xmlns:xlink="http://www.w3.org/1999/xlink" x="0px" y="0px"
	 viewBox="0 0 125.113 68.464" style="enable-background:new 0 0 125.113 68.464;" xml:space="preserve">
<g id="kama">
	<g id="kama_1_">
		<g>
			<path style="fill:#FFFFFF;" d="M35.858,8.962c30.668,0,38.333-2.672,56.667-6.004s30.333,10.669,30,32.001v1.001
				c0,16.569-13.333,30-30,30c-23.667,0-59-3.333-59-3.333"/>
			<path d="M35.846,6.962c0,0,0.842-0.016,2.42-0.045c1.583-0.022,3.894-0.073,6.809-0.175c2.922-0.098,6.475-0.27,10.53-0.521
				c4.056-0.263,8.608-0.68,13.533-1.405c4.927-0.708,10.234-1.769,15.919-2.921c1.424-0.282,2.868-0.568,4.329-0.857
				c0.733-0.141,1.47-0.283,2.212-0.426l0.278-0.054l0.139-0.027l0.276-0.043l0.561-0.075l1.127-0.15c1.41-0.269,3.25-0.247,5-0.264
				c0.867,0.039,1.71,0.169,2.572,0.255c0.863,0.057,1.711,0.276,2.563,0.491c3.393,0.823,6.771,2.357,9.543,4.699
				c2.8,2.299,5.075,5.196,6.812,8.352c1.755,3.164,2.817,6.615,3.608,10.086l0.476,2.627c0.161,0.876,0.197,1.761,0.3,2.643
				c0.231,1.765,0.199,3.53,0.25,5.296l0.008,1.248l-0.006,0.446l-0.016,0.315l-0.033,0.63l-0.066,1.261
				c-0.024,0.422-0.027,0.823-0.114,1.314l-0.427,2.814l-0.677,2.652c-1.042,3.491-2.658,6.789-4.741,9.72
				c-4.126,5.931-10.307,10.081-16.807,12.165c-3.289,0.976-6.645,1.413-9.934,1.433c-1.52-0.023-3.023-0.046-4.509-0.069
				c-1.5-0.043-2.982-0.086-4.443-0.127c-5.819-0.205-11.302-0.504-16.36-0.816c-10.114-0.641-18.522-1.321-24.4-1.896
				c-5.882-0.586-9.242-0.92-9.242-0.92c-1.099-0.109-1.901-1.089-1.792-2.188c0.108-1.081,1.057-1.875,2.133-1.797l0.034,0.003
				c0,0,3.35,0.246,9.212,0.676c5.87,0.374,14.253,0.993,24.315,1.486c5.03,0.244,10.48,0.469,16.234,0.596
				c1.432,0.022,2.883,0.045,4.352,0.068c1.484,0.003,2.987,0.006,4.506,0.009c2.789-0.069,5.631-0.424,8.405-1.26
				c5.471-1.794,10.688-5.298,14.14-10.323c1.745-2.479,3.093-5.259,3.961-8.198l0.563-2.23l0.329-2.173
				c0.075-0.337,0.081-0.78,0.102-1.198l0.061-1.261l0.03-0.631l0.015-0.315c0.004-0.142-0.001,0.106-0.001,0.051l0-0.079l0-0.158
				l-0.013-1.278c-0.049-1.599-0.002-3.211-0.21-4.787c-0.091-0.789-0.114-1.592-0.257-2.368l-0.413-2.33
				c-0.689-3.054-1.598-6.061-3.066-8.714c-1.451-2.65-3.302-5.005-5.518-6.846c-2.194-1.881-4.832-3.069-7.541-3.743
				c-0.679-0.175-1.351-0.365-2.058-0.403c-0.694-0.067-1.396-0.186-2.075-0.22c-1.35,0.035-2.592-0.064-4.186,0.199l-1.128,0.135
				l-0.562,0.067l-0.07,0.008c0.249-0.038,0.029-0.003,0.067-0.009l-0.138,0.025l-0.276,0.049c-0.736,0.132-1.467,0.262-2.194,0.392
				c-1.456,0.268-2.894,0.533-4.312,0.794c-5.675,1.071-11.12,2.086-16.205,2.749c-5.081,0.679-9.767,1.045-13.905,1.258
				c-4.141,0.221-7.741,0.285-10.712,0.307c-2.978,0.026-5.297,0.015-6.871-0.004c-1.579-0.012-2.421-0.018-2.421-0.018
				c-1.105-0.008-1.994-0.91-1.986-2.014C33.891,7.862,34.767,6.984,35.846,6.962z"/>
		</g>
		<g>
			<path style="fill:#FFFFFF;" d="M85.877,14.857c-9.406,1.537-24.197,2.773-45.286,2.814C38.033,9.869,30.704,4.23,22.047,4.23
				c-10.782,0-19.523,8.741-19.523,19.523v22.684c0,10.782,8.741,19.523,19.523,19.523c10.782,0,19.523-8.741,19.523-19.523v-2.015
				h20.62c30.667,0,40.34-8.797,40.34-17.55S95.443,13.293,85.877,14.857z"/>
			<path d="M86.186,16.833c-1.848,0.297-3.796,0.571-5.684,0.805c-1.9,0.23-3.8,0.438-5.7,0.614
				c-3.801,0.357-7.602,0.624-11.403,0.828c-7.603,0.412-15.204,0.568-22.8,0.591l-0.003,0c-0.828,0.027-1.55-0.477-1.838-1.206
				l-0.067-0.171c-0.483-1.229-1.058-2.416-1.776-3.513c-0.744-1.077-1.54-2.117-2.477-3.024c-1.862-1.818-4.107-3.219-6.535-4.066
				c-1.213-0.423-2.471-0.725-3.75-0.845c-0.636-0.094-1.281-0.088-1.922-0.109l-0.12-0.004L22.05,6.73
				c0.242-0.006,0.047-0.001,0.092-0.002l-0.034,0.002l-0.275,0.015l-0.551,0.029l-1.101,0.058
				c-0.591,0.117-1.159,0.172-1.768,0.307c-0.612,0.186-1.253,0.275-1.844,0.526c-0.599,0.225-1.209,0.421-1.773,0.728l-0.864,0.418
				l-0.818,0.503c-2.177,1.344-4.054,3.187-5.397,5.365c-1.363,2.162-2.249,4.618-2.549,7.161c-0.068,0.636-0.073,1.278-0.12,1.919
				l-0.005,2.205l-0.01,4.411l0.002,8.821l0.009,4.411l0.004,2.205l0.001,0.551l0.022,0.423l0.058,1.101
				c0.179,2.433,0.995,4.99,2.309,7.164c1.302,2.196,3.083,4.125,5.216,5.545c2.138,1.41,4.584,2.335,7.122,2.683
				c0.629,0.135,1.277,0.1,1.916,0.156l0.24,0.014l0.06,0.004l0.03,0.002c-0.046,0.002,0.146-0.002-0.096,0.005l0.138-0.007
				l0.551-0.027l1.101-0.053c0.668-0.064,1.193-0.17,1.806-0.246c0.617-0.17,1.254-0.279,1.861-0.485
				c2.444-0.784,4.714-2.126,6.6-3.896c1.915-1.745,3.368-3.979,4.313-6.399c0.495-1.205,0.805-2.482,1.018-3.775
				c0.126-0.645,0.119-1.307,0.192-1.962c0.038-0.695,0.042-1.459,0.065-2.185l0-0.003l0.001-0.035
				c0.019-1.092,0.912-1.964,1.999-1.965h11.562h5.781h2.89l2.852-0.046l2.89-0.053l2.818-0.162c1.877-0.075,3.754-0.286,5.63-0.484
				c0.943-0.077,1.867-0.236,2.795-0.38c0.923-0.157,1.864-0.259,2.774-0.46l2.734-0.587c0.907-0.208,1.782-0.495,2.675-0.737
				c0.904-0.223,1.739-0.582,2.602-0.886c0.876-0.285,1.681-0.685,2.495-1.067c1.644-0.748,3.105-1.732,4.46-2.79
				c1.253-1.143,2.364-2.398,3.072-3.837c0.677-1.449,0.967-3.015,0.898-4.637c-0.025-0.479-0.037-0.997-0.122-1.323
				c-0.075-0.374-0.091-0.738-0.229-1.133c-0.199-0.784-0.484-1.536-0.87-2.222c-0.755-1.383-1.872-2.533-3.242-3.36
				c-1.368-0.831-2.976-1.337-4.657-1.549c-1.684-0.214-3.437-0.144-5.18,0.122L86.186,16.833z M85.555,12.883
				c2.065-0.318,4.197-0.414,6.337-0.141c2.134,0.271,4.287,0.925,6.217,2.095c1.929,1.158,3.592,2.858,4.678,4.86
				c0.554,0.993,0.958,2.06,1.234,3.14c0.283,1.05,0.458,2.393,0.473,3.249c0.108,2.224-0.317,4.542-1.291,6.586
				c-1.001,2.042-2.485,3.707-4.084,5.146c-1.669,1.326-3.438,2.486-5.303,3.34c-0.929,0.438-1.856,0.889-2.815,1.205
				c-0.953,0.339-1.896,0.734-2.866,0.977c-0.966,0.264-1.926,0.574-2.897,0.797l-2.917,0.627c-0.972,0.213-1.952,0.321-2.928,0.487
				c-0.977,0.152-1.953,0.317-2.932,0.399c-1.956,0.207-3.91,0.426-5.886,0.506l-2.953,0.167l-2.89,0.053l-2.928,0.046h-2.89h-5.781
				H41.571l2-2l0,0.003c0.014,0.744,0.047,1.45,0.046,2.225c-0.037,0.809-0.003,1.627-0.111,2.435
				c-0.118,0.805-0.166,1.626-0.384,2.416c-0.176,0.799-0.362,1.597-0.662,2.362c-1.08,3.087-2.828,5.972-5.182,8.281
				c-2.352,2.305-5.225,4.09-8.36,5.163c-0.779,0.279-1.594,0.45-2.392,0.673c-0.839,0.144-1.764,0.306-2.557,0.387l-1.101,0.058
				l-0.551,0.029l-0.138,0.007c-0.265,0.007-0.096,0.001-0.165,0.002l-0.039-0.002l-0.078-0.003l-0.31-0.014
				c-0.826-0.057-1.659-0.033-2.477-0.19c-3.289-0.435-6.479-1.628-9.255-3.449c-2.772-1.83-5.096-4.313-6.799-7.163
				c-1.699-2.872-2.741-6.061-2.978-9.497l-0.053-1.101l-0.013-0.275L0,46.364l0.001-0.551l0.004-2.205l0.009-4.411l0.002-8.821
				l-0.01-4.411L0.001,23.76c0.044-0.826,0.056-1.658,0.142-2.482c0.372-3.3,1.5-6.519,3.277-9.326
				c1.765-2.818,4.202-5.195,7.033-6.929l1.067-0.642l1.121-0.543c0.737-0.386,1.526-0.651,2.307-0.934
				c0.772-0.31,1.599-0.446,2.397-0.67c0.825-0.181,1.724-0.281,2.582-0.405l1.101-0.053L21.58,1.75l0.275-0.013l0.196-0.006
				l0.078,0.004l0.155,0.007c0.827,0.041,1.655,0.065,2.474,0.2c1.644,0.201,3.258,0.626,4.804,1.21
				c3.106,1.148,5.894,3.067,8.127,5.464c1.129,1.191,2.079,2.538,2.897,3.947c0.803,1.423,1.42,2.937,1.907,4.484l-1.904-1.377
				l0.003,0c7.541-0.022,15.079-0.178,22.593-0.585c3.757-0.202,7.507-0.465,11.242-0.817c1.868-0.173,3.73-0.377,5.588-0.601
				c1.868-0.232,3.668-0.484,5.557-0.787L85.555,12.883z"/>
		</g>
		<g>
			<path d="M29.913,49.518c0,0-0.423-0.258-1.163-0.709c-0.364-0.205-0.828-0.526-1.365-0.918c-0.267-0.192-0.551-0.396-0.85-0.611
				c-0.276-0.229-0.567-0.47-0.87-0.721c-0.619-0.489-1.231-1.083-1.875-1.717c-0.649-0.627-1.263-1.359-1.903-2.109
				c-0.604-0.78-1.234-1.583-1.78-2.467c-0.593-0.853-1.068-1.799-1.569-2.727c-0.452-0.954-0.9-1.912-1.239-2.898
				c-0.396-0.965-0.629-1.969-0.909-2.921c-0.199-0.973-0.441-1.907-0.533-2.816c-0.059-0.453-0.117-0.893-0.172-1.318
				c-0.025-0.429-0.049-0.843-0.073-1.241c-0.068-0.796-0.038-1.526-0.025-2.174c-0.001-0.649,0.036-1.213,0.093-1.675
				c0.091-0.927,0.143-1.456,0.143-1.456c0.108-1.099,1.087-1.903,2.186-1.794s1.903,1.087,1.794,2.186
				c-0.002,0.017-0.003,0.033-0.006,0.05l-0.02,0.158c0,0-0.058,0.455-0.161,1.251c-0.065,0.397-0.112,0.882-0.126,1.442
				c-0.028,0.558-0.079,1.189-0.038,1.878c0.008,0.345,0.017,0.703,0.026,1.075c0.037,0.37,0.076,0.752,0.115,1.145
				c0.05,0.791,0.243,1.605,0.383,2.457c0.222,0.833,0.389,1.717,0.712,2.567c0.267,0.871,0.635,1.718,1.002,2.568
				c0.416,0.824,0.801,1.672,1.302,2.436c0.453,0.794,0.989,1.517,1.498,2.224c0.545,0.676,1.065,1.345,1.623,1.916
				c0.552,0.578,1.076,1.125,1.613,1.573c0.261,0.232,0.511,0.454,0.749,0.665c0.245,0.188,0.477,0.366,0.695,0.533
				c0.426,0.337,0.814,0.633,1.199,0.867c0.726,0.474,1.14,0.745,1.14,0.745c0.694,0.453,0.889,1.383,0.436,2.076
				C31.506,49.737,30.602,49.936,29.913,49.518z"/>
		</g>
		<g>
			<path d="M52.401,57.95c0,0-0.114-0.172-0.314-0.472c-0.189-0.282-0.516-0.802-0.825-1.364c-0.649-1.142-1.375-2.756-1.859-4.461
				c-0.485-1.704-0.714-3.482-0.737-4.819c-0.021-0.668-0.003-1.227,0.022-1.616c0.025-0.39,0.039-0.612,0.039-0.612
				c0.053-0.827,0.766-1.455,1.593-1.402c0.827,0.053,1.455,0.766,1.402,1.593c-0.001,0.016-0.002,0.033-0.004,0.049l-0.007,0.071
				c0,0-0.019,0.188-0.052,0.517c-0.034,0.329-0.067,0.802-0.071,1.37c-0.024,1.136,0.112,2.658,0.474,4.145
				c0.362,1.486,0.94,2.922,1.475,3.951c0.269,0.531,0.476,0.895,0.675,1.22c0.188,0.308,0.296,0.483,0.296,0.483
				c0.361,0.589,0.176,1.358-0.413,1.719C53.52,58.675,52.772,58.505,52.401,57.95z"/>
		</g>
		<g>
			<path d="M61.734,57.95c0,0-0.114-0.172-0.314-0.472c-0.189-0.282-0.516-0.802-0.825-1.364c-0.649-1.142-1.375-2.756-1.859-4.461
				c-0.485-1.704-0.714-3.482-0.737-4.819c-0.021-0.668-0.003-1.227,0.022-1.616c0.025-0.39,0.039-0.612,0.039-0.612
				c0.053-0.827,0.766-1.455,1.593-1.402c0.827,0.053,1.455,0.766,1.402,1.593c-0.001,0.016-0.002,0.033-0.004,0.049l-0.007,0.071
				c0,0-0.019,0.188-0.052,0.517c-0.034,0.329-0.067,0.802-0.071,1.37c-0.024,1.136,0.112,2.658,0.474,4.145
				c0.362,1.486,0.94,2.922,1.475,3.951c0.269,0.531,0.476,0.895,0.675,1.22c0.188,0.308,0.296,0.483,0.296,0.483
				c0.361,0.589,0.176,1.358-0.413,1.719C62.853,58.675,62.105,58.505,61.734,57.95z"/>
		</g>
		<circle cx="75.488" cy="52.056" r="2.631"/>
		<circle cx="88.561" cy="51.198" r="2.631"/>
	</g>
</g>
<g id="Layer_1">
</g>
</svg>
