<?xml version="1.0" encoding="iso-8859-1"?>
<!-- Generator: Adobe Illustrator 19.2.0, SVG Export Plug-In . SVG Version: 6.00 Build 0)  -->
<!DOCTYPE svg PUBLIC "-//W3C//DTD SVG 1.1//EN" "http://www.w3.org/Graphics/SVG/1.1/DTD/svg11.dtd">
<svg version="1.1" xmlns="http://www.w3.org/2000/svg" xmlns:xlink="http://www.w3.org/1999/xlink" x="0px" y="0px"
	 viewBox="0 0 140 140" style="enable-background:new 0 0 140 140;" xml:space="preserve">
<g id="alawa">
	<g id="alawa_3_">
		<path style="fill:#FFFFFF;stroke:#000000;stroke-width:5;stroke-miterlimit:10;" d="M10.413,69.919V51.252
			c0-16.569,13.431-30,30-30h60c16.569,0,30,13.431,30,30v18.667c0,33.137-26.863,60-60,60S10.413,103.056,10.413,69.919z"/>
		<g>
			<ellipse style="fill:#FFFFFF;" cx="70.413" cy="26.419" rx="25.255" ry="16.5"/>
			<path d="M97.912,26.592c0,0-0.045,0.516-0.13,1.483c0.001,0.207-0.111,0.616-0.184,0.976c-0.091,0.377-0.19,0.788-0.297,1.233
				c-0.131,0.417-0.311,0.813-0.486,1.261c-0.091,0.221-0.184,0.448-0.281,0.682c-0.113,0.223-0.246,0.443-0.374,0.674
				c-0.996,1.865-2.611,3.854-4.811,5.562c-2.189,1.723-4.921,3.215-8.043,4.319c-3.124,1.095-6.633,1.839-10.375,2.056
				c-0.958,0.022-1.833,0.08-2.894,0.07c-0.93-0.041-1.8-0.016-2.809-0.111c-2.031-0.17-4.016-0.421-6.017-0.92
				c-2.01-0.439-4.003-1.142-5.972-1.978c-1.956-0.883-3.86-1.989-5.655-3.337c-1.759-1.401-3.388-3.09-4.624-5.144
				c-1.238-2.039-2.026-4.491-2.051-7l0.111-1.724c0.074-0.583,0.247-1.303,0.391-1.944c0.368-1.235,0.818-2.349,1.441-3.395
				c1.211-2.091,2.825-3.827,4.578-5.275c3.569-2.82,7.652-4.539,11.686-5.515c2.016-0.526,4.04-0.8,6.021-0.989
				c0.991-0.107,1.975-0.097,2.946-0.147l0.182-0.007l0.091-0.003l0.172,0l0.341,0.012l0.678,0.023
				c0.451,0.015,0.899,0.031,1.343,0.046c0.938,0.066,1.924,0.18,2.861,0.272c0.912,0.153,1.81,0.304,2.694,0.452
				c0.873,0.21,1.734,0.407,2.57,0.634c0.827,0.271,1.644,0.517,2.432,0.8c3.146,1.162,5.884,2.725,8.063,4.512
				c2.191,1.769,3.785,3.809,4.755,5.707c0.125,0.235,0.254,0.458,0.364,0.685c0.093,0.238,0.183,0.469,0.271,0.692
				c0.167,0.451,0.345,0.864,0.463,1.267c0.181,0.827,0.377,1.523,0.435,2.104c0.078,1.168,0.12,1.791,0.12,1.791L97.912,26.592z
				 M93.418,26.419c0,0-0.038-0.41-0.11-1.178c-0.041-0.383-0.205-0.84-0.317-1.389c-0.086-0.269-0.224-0.547-0.34-0.851
				c-0.06-0.152-0.123-0.308-0.187-0.469c-0.081-0.156-0.181-0.311-0.273-0.473c-0.702-1.309-1.89-2.809-3.664-4.178
				c-1.758-1.377-4.052-2.642-6.752-3.592c-0.678-0.23-1.386-0.427-2.097-0.651c-0.73-0.173-1.473-0.349-2.229-0.529
				c-0.769-0.127-1.551-0.256-2.345-0.387c-0.785-0.068-1.544-0.165-2.381-0.226c-0.445-0.014-0.893-0.028-1.344-0.043l-0.678-0.022
				l-0.341-0.011c-0.088-0.001,0.072,0,0.041,0.001l-0.04,0.001l-0.08,0.002l-0.16,0.005c-0.853,0.039-1.723,0.015-2.592,0.102
				c-1.738,0.149-3.517,0.365-5.266,0.805c-1.767,0.38-3.49,0.997-5.177,1.706c-1.668,0.752-3.251,1.68-4.707,2.759
				c-1.41,1.122-2.649,2.427-3.538,3.891c-0.459,0.714-0.786,1.533-1.033,2.267c-0.073,0.37-0.195,0.649-0.273,1.087l-0.068,0.774
				l-0.034,0.387l-0.017,0.193l-0.008,0.097l-0.004,0.048c0.002-0.061-0.009,0.205,0.002-0.125
				c-0.057,3.323,1.999,6.504,4.819,8.813c2.882,2.288,6.397,3.814,9.943,4.665c1.764,0.467,3.581,0.706,5.27,0.874
				c0.85,0.099,1.835,0.089,2.729,0.138c0.765,0.011,1.694-0.049,2.515-0.067c3.37-0.203,6.516-0.871,9.234-1.896
				c2.724-1.009,5.024-2.345,6.771-3.785c1.765-1.431,2.932-2.981,3.608-4.323c0.089-0.167,0.185-0.325,0.263-0.485
				c0.061-0.165,0.12-0.324,0.177-0.479c0.108-0.306,0.244-0.603,0.318-0.857c0.047-0.244,0.096-0.466,0.147-0.668
				c0.041-0.225,0.124-0.332,0.124-0.615c0.065-0.969,0.099-1.486,0.099-1.486L93.418,26.419z"/>
		</g>
		
			<polygon style="fill:#FFFFFF;stroke:#000000;stroke-width:4;stroke-linecap:round;stroke-linejoin:round;stroke-miterlimit:10;" points="
			83.126,78.722 95.839,58.252 70.413,58.252 44.988,58.252 57.7,78.722 63.886,88.683 44.988,88.683 57.7,109.153 70.413,129.624 
			83.126,109.153 95.839,88.683 76.94,88.683 		"/>
	</g>
</g>
<g id="Layer_1">
</g>
</svg>
