<?xml version="1.0" encoding="iso-8859-1"?>
<!-- Generator: Adobe Illustrator 19.2.0, SVG Export Plug-In . SVG Version: 6.00 Build 0)  -->
<!DOCTYPE svg PUBLIC "-//W3C//DTD SVG 1.1//EN" "http://www.w3.org/Graphics/SVG/1.1/DTD/svg11.dtd">
<svg version="1.1" xmlns="http://www.w3.org/2000/svg" xmlns:xlink="http://www.w3.org/1999/xlink" x="0px" y="0px"
	 viewBox="0 0 140 140" style="enable-background:new 0 0 140 140;" xml:space="preserve">
<g id="mute">
	<g id="mute_1_">
		<path style="fill:#FFFFFF;" d="M27.849,83.412c10,10.557,14.594,23.087,31.63,13.489c6.036,4.401,13.731,3.855,16.884-0.705
			c6.461,3.565,20.153,7.936,26.653-9.145s6.833-29.725,6.833-29.725h-35l-31.667,1.644L27.849,83.412z"/>
		<g>
			<path style="fill:#FFFFFF;" d="M105.849,66.759c-15.75,5.5-56,3.5-56,3.5v10.126c0,10.701-8.674,19.375-19.375,19.375
				s-19.375-8.674-19.375-19.375l-0.25-10.875c0-16.569,13.431-30,30-30h60.25c16.569,0,31.464,9.243,28.5,25.25
				c-1.25,6.75-2.739,12.8-1,20.5c1.75,7.75-1.25,14.25-11.75,14.25s-12.625-1.375-17.5-6.25"/>
			<path d="M106.307,68.187l-1.682,0.547l-1.793,0.493c-1.174,0.293-2.35,0.548-3.527,0.778c-2.355,0.446-4.714,0.784-7.073,1.067
				c-4.719,0.557-9.442,0.88-14.161,1.092c-4.72,0.211-9.439,0.304-14.155,0.315c-4.722,0.007-9.42-0.052-14.165-0.223l-0.001,0
				l2.099-1.997l0.171,9.231c0.004,0.409,0.02,0.714,0.015,1.209c-0.002,0.387,0.007,0.747-0.026,1.224
				c-0.038,0.922-0.156,1.727-0.302,2.588c-0.295,1.694-0.82,3.347-1.516,4.924c-2.752,6.349-8.798,11.127-15.641,12.418
				c-1.678,0.328-3.506,0.46-5.117,0.383c-1.854-0.092-3.492-0.384-5.187-0.874c-3.336-0.983-6.428-2.78-8.93-5.19
				c-2.51-2.399-4.446-5.407-5.565-8.704c-0.562-1.646-0.94-3.36-1.088-5.092c-0.032-0.433-0.075-0.866-0.078-1.3l-0.03-1.174
				l-0.055-2.307L8.388,72.98l-0.055-2.307l-0.025-1.276l0.028-1.154c0.126-3.405,0.775-6.669,1.902-9.83
				c2.263-6.294,6.535-11.821,12.015-15.641c5.455-3.853,12.188-5.911,18.828-5.855l18.462,0.016l36.923,0.039l4.615,0.005
				c1.563,0.009,3.264,0.094,4.874,0.26c3.24,0.358,6.463,1.044,9.572,2.173c3.108,1.118,6.105,2.697,8.776,4.816
				c2.655,2.125,4.953,4.878,6.385,8.101c0.714,1.606,1.213,3.31,1.487,5.038c0.267,1.729,0.283,3.474,0.135,5.177
				c-0.064,0.856-0.207,1.691-0.351,2.526l-0.458,2.283c-0.307,1.508-0.605,2.988-0.852,4.457c-0.466,2.937-0.748,5.824-0.482,8.673
				c0.126,1.423,0.352,2.834,0.673,4.23c0.171,0.763,0.354,1.68,0.458,2.531c0.109,0.864,0.155,1.752,0.132,2.654
				c-0.049,1.797-0.397,3.7-1.287,5.467c-0.87,1.77-2.296,3.317-3.934,4.359c-3.32,2.097-7.073,2.373-10.265,2.259
				c-1.519-0.048-3.195-0.124-4.793-0.322c-1.619-0.196-3.3-0.477-4.973-1.105c-1.672-0.608-3.279-1.567-4.566-2.688
				c-1.278-1.142-2.336-2.33-3.324-3.545c-0.525-0.646-0.427-1.596,0.219-2.121c0.559-0.455,1.346-0.442,1.888-0.011l0.014,0.011
				c1.195,0.949,2.329,1.937,3.499,2.663c1.153,0.752,2.292,1.278,3.56,1.585c2.546,0.597,5.521,0.605,8.522,0.576
				c0.805-0.016,1.433-0.014,2.129-0.068c0.681-0.04,1.339-0.136,1.98-0.255c1.275-0.244,2.455-0.646,3.415-1.246
				c1.95-1.138,3.002-3.189,3.156-5.763c0.04-0.635,0.035-1.289-0.025-1.954c-0.062-0.678-0.148-1.278-0.305-2.018
				c-0.341-1.609-0.574-3.247-0.69-4.891c-0.242-3.292-0.009-6.584,0.473-9.72c0.223-1.572,0.493-3.116,0.761-4.631l0.391-2.253
				c0.095-0.685,0.197-1.369,0.225-2.051c0.169-2.725-0.24-5.408-1.361-7.8c-1.093-2.399-2.824-4.52-4.972-6.231
				c-2.158-1.701-4.67-3.04-7.352-3.995c-2.68-0.968-5.518-1.57-8.393-1.882c-1.453-0.143-2.827-0.212-4.341-0.222l-4.615,0.005
				l-36.923,0.039L41.08,42.103c-5.673-0.055-11.264,1.656-15.885,4.893c-4.623,3.209-8.24,7.865-10.154,13.159
				c-0.952,2.631-1.509,5.472-1.617,8.218l-0.03,1.153l0.023,1.031l0.051,2.307l0.101,4.614l0.051,2.307l0.026,1.133
				c-0.001,0.336,0.036,0.669,0.058,1.003c0.11,1.335,0.4,2.649,0.828,3.914c0.852,2.532,2.338,4.854,4.271,6.708
				c1.926,1.864,4.306,3.252,6.869,4.014c1.256,0.377,2.671,0.612,3.889,0.679c1.463,0.066,2.724-0.013,4.07-0.252
				c2.637-0.476,5.164-1.595,7.29-3.251c2.129-1.647,3.887-3.795,5.054-6.237c0.58-1.222,1.034-2.509,1.303-3.842
				c0.133-0.651,0.247-1.371,0.298-1.985c0.042-0.289,0.055-0.699,0.074-1.081c0.021-0.273,0.018-0.738,0.028-1.098l0.171-9.231
				l0.001-0.072c0.02-1.086,0.917-1.949,2.002-1.929c0.03,0.001,0.066,0.002,0.096,0.004l0.001,0
				c4.635,0.249,9.325,0.393,13.991,0.468c4.671,0.072,9.343,0.063,14.006-0.063c4.661-0.127,9.318-0.364,13.932-0.825
				c2.306-0.235,4.602-0.523,6.867-0.91c1.131-0.2,2.252-0.422,3.361-0.678l1.61-0.41l1.676-0.512l0.014-0.004
				c0.792-0.242,1.631,0.204,1.873,0.996C107.517,67.106,107.082,67.935,106.307,68.187z"/>
		</g>
		<g>
			<path d="M41.722,95.832c0,0,0.173,0.082,0.498,0.237c0.287,0.127,0.702,0.323,1.278,0.533c1.119,0.44,2.765,0.933,4.773,1.104
				c0.502,0.04,1.025,0.066,1.568,0.055c0.287-0.01,0.579-0.02,0.875-0.03c0.262-0.024,0.528-0.049,0.797-0.074
				c1.14-0.14,2.324-0.429,3.492-0.882c2.344-0.894,4.585-2.524,6.322-4.603c1.775-2.052,3.037-4.553,3.689-7.043
				c0.333-1.244,0.525-2.483,0.6-3.667c0.061-1.132,0.059-2.459,0.09-3.58c0.034-1.143,0.07-2.191,0.128-3.12
				c0.055-0.929,0.079-1.739,0.141-2.406c0.099-1.334,0.183-2.096,0.183-2.096c0.092-0.828,0.838-1.426,1.666-1.334
				c0.715,0.079,1.258,0.647,1.334,1.334c0,0,0.084,0.762,0.183,2.096c0.062,0.667,0.086,1.477,0.141,2.406
				c0.057,0.929,0.094,1.977,0.128,3.12c0.013,1.165,0.079,2.317,0.018,3.803c-0.068,1.432-0.277,2.94-0.658,4.463
				c-0.748,3.049-2.242,6.155-4.421,8.756c-2.196,2.581-5.077,4.597-8.095,5.699c-1.505,0.557-3.032,0.903-4.495,1.058
				c-0.383,0.028-0.761,0.055-1.134,0.082c-0.34,0.005-0.675,0.01-1.004,0.015c-0.691-0.015-1.356-0.074-1.991-0.153
				c-2.549-0.348-4.519-1.243-5.795-1.952c-0.63-0.361-1.121-0.696-1.451-0.929c-0.284-0.221-0.435-0.338-0.435-0.338
				c-0.658-0.512-0.776-1.46-0.265-2.117C40.325,95.699,41.096,95.534,41.722,95.832z"/>
		</g>
		<g>
			<path d="M59.818,95.832c0,0,0.173,0.082,0.498,0.237c0.287,0.127,0.702,0.323,1.278,0.533c1.119,0.44,2.765,0.933,4.773,1.104
				c0.502,0.04,1.025,0.066,1.568,0.055c0.287-0.01,0.579-0.02,0.875-0.03c0.262-0.024,0.528-0.049,0.797-0.074
				c1.14-0.14,2.324-0.429,3.492-0.882c2.344-0.894,4.585-2.524,6.322-4.603c1.775-2.052,3.037-4.553,3.689-7.043
				c0.333-1.244,0.525-2.483,0.6-3.667c0.061-1.132,0.059-2.459,0.09-3.58c0.034-1.143,0.07-2.191,0.128-3.12
				c0.055-0.929,0.079-1.739,0.141-2.406c0.099-1.334,0.183-2.096,0.183-2.096c0.092-0.828,0.838-1.426,1.666-1.334
				c0.715,0.079,1.258,0.647,1.334,1.334c0,0,0.084,0.762,0.183,2.096c0.062,0.667,0.086,1.477,0.141,2.406
				c0.057,0.929,0.094,1.977,0.128,3.12c0.013,1.165,0.079,2.317,0.018,3.803c-0.068,1.432-0.277,2.94-0.658,4.463
				c-0.748,3.049-2.242,6.155-4.421,8.756c-2.196,2.581-5.077,4.597-8.095,5.699c-1.505,0.557-3.032,0.903-4.495,1.058
				c-0.383,0.028-0.761,0.055-1.134,0.082c-0.34,0.005-0.675,0.01-1.004,0.015c-0.691-0.015-1.356-0.074-1.991-0.153
				c-2.549-0.348-4.519-1.243-5.795-1.952c-0.63-0.361-1.121-0.696-1.451-0.929c-0.284-0.221-0.435-0.338-0.435-0.338
				c-0.658-0.512-0.776-1.46-0.265-2.117C58.421,95.699,59.192,95.534,59.818,95.832z"/>
		</g>
		<g>
			<path d="M77.914,95.832c0,0,0.181,0.086,0.521,0.248c0.294,0.128,0.737,0.338,1.337,0.553c0.59,0.22,1.307,0.474,2.15,0.668
				c0.845,0.185,1.798,0.365,2.85,0.427c0.52,0.038,1.086,0.046,1.629,0.02c0.715-0.021,1.114-0.062,1.756-0.16
				c1.188-0.177,2.417-0.521,3.617-1.055c1.205-0.521,2.375-1.238,3.454-2.11c1.088-0.864,2.047-1.918,2.924-3.032
				c1.73-2.26,2.874-4.969,3.365-7.621c0.245-1.314,0.35-2.669,0.32-3.853c-0.029-1.371-0.056-2.667-0.081-3.863
				c-0.026-1.196-0.003-2.295-0.006-3.267c0-0.973,0.005-1.821,0.029-2.52c0.028-1.398,0.071-2.198,0.071-2.198
				c0.044-0.831,0.754-1.469,1.585-1.424c0.735,0.039,1.319,0.599,1.413,1.303c0,0,0.107,0.794,0.248,2.185
				c0.081,0.695,0.154,1.54,0.232,2.51c0.075,0.97,0.187,2.063,0.258,3.257c0.072,1.194,0.149,2.488,0.231,3.857
				c0.077,1.555-0.036,3.099-0.305,4.73c-0.547,3.234-1.887,6.582-3.996,9.43c-2.109,2.845-5.025,5.102-8.126,6.389
				c-1.545,0.657-3.131,1.073-4.658,1.277c-0.713,0.109-1.647,0.166-2.222,0.168c-0.746,0.022-1.428-0.031-2.099-0.102
				c-2.678-0.293-4.755-1.211-6.095-1.944c-0.665-0.376-1.169-0.723-1.523-0.967c-0.297-0.231-0.455-0.354-0.455-0.354
				c-0.658-0.512-0.776-1.46-0.265-2.117C76.517,95.699,77.288,95.534,77.914,95.832z"/>
		</g>
	</g>
</g>
<g id="Layer_1">
</g>
</svg>
