<?xml version="1.0" encoding="iso-8859-1"?>
<!-- Generator: Adobe Illustrator 19.2.0, SVG Export Plug-In . SVG Version: 6.00 Build 0)  -->
<!DOCTYPE svg PUBLIC "-//W3C//DTD SVG 1.1//EN" "http://www.w3.org/Graphics/SVG/1.1/DTD/svg11.dtd">
<svg version="1.1" xmlns="http://www.w3.org/2000/svg" xmlns:xlink="http://www.w3.org/1999/xlink" x="0px" y="0px"
	 viewBox="0 0 65 125" style="enable-background:new 0 0 65 125;" xml:space="preserve">
<g id="anu">
	<g id="anu_2_">
		<path style="fill:#FFFFFF;stroke:#000000;stroke-width:5;stroke-miterlimit:10;" d="M62.5,92.5c0,16.569-13.431,30-30,30l0,0
			c-16.569,0-30-13.431-30-30v-60c0-16.569,13.431-30,30-30l0,0c16.569,0,30,13.431,30,30V92.5z"/>
		<path style="fill:none;stroke:#000000;stroke-width:4;stroke-linecap:round;stroke-linejoin:round;stroke-miterlimit:10;" d="
			M42.834,47.498c0,5.121-4.627,9.273-10.334,9.273s-10.334-4.152-10.334-9.273s2.94-7.674,10.334-11.967
			s10.334-6.845,10.334-11.967s-4.627-9.273-10.334-9.273s-10.334,4.152-10.334,9.273"/>
		<path style="fill:none;stroke:#000000;stroke-width:4;stroke-linecap:round;stroke-linejoin:round;stroke-miterlimit:10;" d="
			M42.834,101.769c0,5.121-4.627,9.273-10.334,9.273s-10.334-4.152-10.334-9.273c0-5.121,2.94-7.674,10.334-11.967
			c7.394-4.293,10.334-6.845,10.334-11.967c0-5.121-4.627-9.273-10.334-9.273s-10.334,4.152-10.334,9.273"/>
	</g>
</g>
<g id="Layer_1">
</g>
</svg>
