<?xml version="1.0" encoding="iso-8859-1"?>
<!-- Generator: Adobe Illustrator 19.2.0, SVG Export Plug-In . SVG Version: 6.00 Build 0)  -->
<!DOCTYPE svg PUBLIC "-//W3C//DTD SVG 1.1//EN" "http://www.w3.org/Graphics/SVG/1.1/DTD/svg11.dtd">
<svg version="1.1" xmlns="http://www.w3.org/2000/svg" xmlns:xlink="http://www.w3.org/1999/xlink" x="0px" y="0px"
	 viewBox="0 0 124 124" style="enable-background:new 0 0 124 124;" xml:space="preserve">
<g id="kulupu">
	<g id="kulupu_2_">
		<path style="fill:#FFFFFF;" d="M22.897,114.215c10.5,8,12.051,7.223,21.275,5.362c2.975,2.638,10.59,2.367,13.724-0.264
			c1.501,2.903,10.231,4.201,13.532,0.008c2.219,2.895,14.219,6.395,25.219-13.855s0-26.25,0-26.25H30.25L22.897,114.215z"/>
		<path style="fill:#FFFFFF;stroke:#000000;stroke-width:4;stroke-miterlimit:10;" d="M69.891,119.75c2.83,2,6.174,2,6.174,2
			c8.524,0,15.434-6.716,15.434-15V85H86.5h-49v22c0,8.284-6.716,15-15,15H17c-8.284,0-15-6.716-15-15V84.5c0-8.284,6.716-15,15-15
			h5V42C22,19.909,39.909,2,62,2s40,17.909,40,40v27.5h5c8.284,0,15,6.716,15,15V107c0,8.284-6.716,15-15,15h-5.5
			c-5.156,0-9.705-2.602-12.405-6.564"/>
		<path style="fill:none;stroke:#000000;stroke-width:4;stroke-miterlimit:10;" d="M51.6,85v21.75c0,8.284-6.91,15-15.434,15
			c0,0-3.087,0.125-5.916-1.875"/>
		<path style="fill:none;stroke:#000000;stroke-width:4;stroke-miterlimit:10;" d="M64.9,85v21.75c0,8.284-6.91,15-15.434,15
			c0,0-3.344,0-6.174-2"/>
		<path style="fill:none;stroke:#000000;stroke-width:4;stroke-miterlimit:10;" d="M78.199,85v21.75c0,8.284-6.91,15-15.434,15
			c0,0-3.344,0-6.174-2"/>
		<path style="fill:none;stroke:#000000;stroke-width:4;stroke-miterlimit:10;" d="M39.006,69.5V43.327
			c0-12.699,10.295-22.994,22.994-22.994s22.994,10.295,22.994,22.994V69.5H39.006z"/>
		<line style="fill:none;stroke:#000000;stroke-width:4;stroke-miterlimit:10;" x1="44.173" y1="28.833" x2="84.994" y2="69.5"/>
		<line style="fill:none;stroke:#000000;stroke-width:4;stroke-miterlimit:10;" x1="79.827" y1="28.833" x2="39.006" y2="69.5"/>
	</g>
</g>
<g id="Layer_1">
</g>
</svg>
