<?xml version="1.0" encoding="iso-8859-1"?>
<!-- Generator: Adobe Illustrator 19.2.0, SVG Export Plug-In . SVG Version: 6.00 Build 0)  -->
<!DOCTYPE svg PUBLIC "-//W3C//DTD SVG 1.1//EN" "http://www.w3.org/Graphics/SVG/1.1/DTD/svg11.dtd">
<svg version="1.1" xmlns="http://www.w3.org/2000/svg" xmlns:xlink="http://www.w3.org/1999/xlink" x="0px" y="0px"
	 viewBox="0 0 125 125" style="enable-background:new 0 0 125 125;" xml:space="preserve">
<g id="nimi">
	<g id="nimi_1_">
		<path style="fill:#FFFFFF;stroke:#000000;stroke-width:5;stroke-linecap:round;stroke-linejoin:round;stroke-miterlimit:10;" d="
			M112.75,84.21c5.805,3.678,9.75,10.159,9.75,17.54l0,0c0,11.46-9.29,20.75-20.75,20.75h-78.5c-11.46,0-20.75-9.29-20.75-20.75l0,0
			c0-7.646,3.593-14.327,9.75-17.926V52.75C12.25,24.998,34.748,2.5,62.5,2.5s50.25,22.498,50.25,50.25V84.21z"/>
		
			<line style="fill:none;stroke:#000000;stroke-width:3.5;stroke-linecap:round;stroke-linejoin:round;stroke-miterlimit:10;" x1="62.5" y1="25.499" x2="62.5" y2="99.498"/>
		<path style="fill:none;stroke:#000000;stroke-width:3.5;stroke-linecap:round;stroke-linejoin:round;stroke-miterlimit:10;" d="
			M91.349,50.764c-8.945,1.41-18.674,2.184-28.849,2.184c-10.281,0-20.107-0.79-29.129-2.228"/>
		<path style="fill:none;stroke:#000000;stroke-width:3.5;stroke-linecap:round;stroke-linejoin:round;stroke-miterlimit:10;" d="
			M91.349,75.859c-8.945,1.41-18.674,2.184-28.849,2.184c-10.281,0-20.107-0.79-29.129-2.228"/>
		<path style="fill:none;stroke:#000000;stroke-width:4;stroke-linecap:round;stroke-linejoin:round;stroke-miterlimit:10;" d="
			M91.974,54.973v44.525H33.026V54.973c0-16.278,13.196-29.474,29.474-29.474S91.974,38.695,91.974,54.973z"/>
	</g>
</g>
<g id="Layer_1">
</g>
</svg>
