<?xml version="1.0" encoding="iso-8859-1"?>
<!-- Generator: Adobe Illustrator 19.2.0, SVG Export Plug-In . SVG Version: 6.00 Build 0)  -->
<!DOCTYPE svg PUBLIC "-//W3C//DTD SVG 1.1//EN" "http://www.w3.org/Graphics/SVG/1.1/DTD/svg11.dtd">
<svg version="1.1" xmlns="http://www.w3.org/2000/svg" xmlns:xlink="http://www.w3.org/1999/xlink" x="0px" y="0px"
	 viewBox="0 0 140 140" style="enable-background:new 0 0 140 140;" xml:space="preserve">
<g id="nimi">
	<g id="nimi_1_">
		<path style="fill:#FFFFFF;stroke:#000000;stroke-width:5;stroke-linecap:round;stroke-linejoin:round;stroke-miterlimit:10;" d="
			M120.663,91.629c5.805,3.678,9.75,10.159,9.75,17.54l0,0c0,11.46-9.29,20.75-20.75,20.75h-78.5c-11.46,0-20.75-9.29-20.75-20.75
			l0,0c0-7.646,3.593-14.327,9.75-17.926V60.169c0-27.752,22.498-50.25,50.25-50.25s50.25,22.498,50.25,50.25V91.629z"/>
		
			<line style="fill:none;stroke:#000000;stroke-width:3.5;stroke-linecap:round;stroke-linejoin:round;stroke-miterlimit:10;" x1="70.413" y1="32.918" x2="70.413" y2="106.917"/>
		<path style="fill:none;stroke:#000000;stroke-width:3.5;stroke-linecap:round;stroke-linejoin:round;stroke-miterlimit:10;" d="
			M99.262,58.182c-8.945,1.41-18.674,2.184-28.849,2.184c-10.281,0-20.107-0.79-29.129-2.228"/>
		<path style="fill:none;stroke:#000000;stroke-width:3.5;stroke-linecap:round;stroke-linejoin:round;stroke-miterlimit:10;" d="
			M99.262,83.278c-8.945,1.41-18.674,2.184-28.849,2.184c-10.281,0-20.107-0.79-29.129-2.228"/>
		<path style="fill:none;stroke:#000000;stroke-width:4;stroke-linecap:round;stroke-linejoin:round;stroke-miterlimit:10;" d="
			M99.887,62.392v44.525H40.94V62.392c0-16.278,13.196-29.474,29.474-29.474S99.887,46.114,99.887,62.392z"/>
	</g>
</g>
<g id="Layer_1">
</g>
</svg>
