<?xml version="1.0" encoding="iso-8859-1"?>
<!-- Generator: Adobe Illustrator 19.2.0, SVG Export Plug-In . SVG Version: 6.00 Build 0)  -->
<!DOCTYPE svg PUBLIC "-//W3C//DTD SVG 1.1//EN" "http://www.w3.org/Graphics/SVG/1.1/DTD/svg11.dtd">
<svg version="1.1" xmlns="http://www.w3.org/2000/svg" xmlns:xlink="http://www.w3.org/1999/xlink" x="0px" y="0px"
	 viewBox="0 0 140 140" style="enable-background:new 0 0 140 140;" xml:space="preserve">
<g id="poka">
	<g id="poka_1_">
		<g>
			<circle style="fill:#FFFFFF;" cx="70.413" cy="69.919" r="60"/>
			<path d="M132.912,69.982c0,0-0.009,0.368-0.027,1.081c-0.033,0.73-0.004,1.726-0.14,3.22c-0.192,2.942-0.654,7.108-2.097,12.304
				c-1.43,5.163-3.832,11.321-7.957,17.572c-4.094,6.239-9.893,12.596-17.553,17.726c-3.829,2.551-8.102,4.789-12.744,6.547
				c-4.638,1.768-9.669,2.962-14.904,3.577c-1.308,0.167-2.635,0.226-3.966,0.331c-1.347,0.015-2.651,0.114-4.056,0.055
				c-0.649-0.016-1.3-0.033-1.953-0.049c-0.662-0.024-1.378-0.094-2.067-0.141c-1.407-0.077-2.755-0.283-4.131-0.453
				c-2.733-0.428-5.488-0.965-8.196-1.776c-1.368-0.357-2.7-0.854-4.054-1.302c-1.324-0.529-2.681-0.998-3.98-1.618
				c-10.526-4.639-20.064-12.492-26.743-22.573c-3.341-5.032-5.977-10.59-7.751-16.442c-0.899-2.924-1.527-5.929-2.003-8.955
				c-0.198-1.52-0.404-3.04-0.49-4.571c-0.06-0.764-0.123-1.529-0.128-2.295l-0.057-2.362c0.043-2.855,0.247-6.107,0.704-9.098
				c0.486-3.024,1.123-6.024,2.031-8.942c1.792-5.841,4.443-11.382,7.794-16.393c6.699-10.039,16.227-17.849,26.73-22.443
				c5.236-2.344,10.732-3.822,16.178-4.651c1.368-0.171,2.725-0.379,4.087-0.455c0.68-0.047,1.357-0.118,2.034-0.144
				c0.677-0.018,1.353-0.037,2.026-0.055c0.361-0.007,0.619-0.023,1.062-0.021l0.969,0.023c0.645,0.015,1.288,0.03,1.929,0.046
				c1.333,0.101,2.707,0.162,4.006,0.326c5.217,0.604,10.233,1.787,14.86,3.541c4.63,1.745,8.894,3.97,12.717,6.508
				c7.646,5.104,13.457,11.421,17.561,17.641c4.137,6.229,6.554,12.373,7.999,17.527c1.456,5.171,1.934,9.391,2.129,12.253
				c0.14,1.432,0.118,2.536,0.152,3.277c0.02,0.742,0.03,1.125,0.03,1.125L132.912,69.982z M127.913,69.919
				c0,0-0.008-0.353-0.024-1.037c-0.03-0.683,0-1.701-0.123-3.02c-0.162-2.637-0.578-6.524-1.891-11.293
				c-1.302-4.754-3.491-10.431-7.276-16.205c-3.757-5.76-9.083-11.653-16.146-16.4c-3.53-2.359-7.47-4.43-11.749-6.061
				c-4.276-1.64-8.916-2.746-13.75-3.324c-1.211-0.157-2.388-0.207-3.61-0.311c-0.641-0.017-1.284-0.035-1.929-0.052l-0.969-0.026
				l-0.882,0.019c-0.625,0.015-1.252,0.029-1.881,0.044c-0.628,0.022-1.256,0.087-1.887,0.128c-1.265,0.064-2.523,0.257-3.793,0.409
				c-2.526,0.389-5.069,0.89-7.567,1.649c-1.263,0.33-2.49,0.797-3.739,1.211c-1.219,0.494-2.472,0.926-3.669,1.505
				c-9.702,4.308-18.496,11.583-24.621,20.902c-3.064,4.651-5.472,9.779-7.087,15.17c-0.819,2.693-1.383,5.462-1.814,8.248
				c-0.402,2.835-0.56,5.471-0.593,8.506l0.055,2.054c0.003,0.707,0.062,1.41,0.118,2.114c0.077,1.411,0.27,2.808,0.45,4.207
				c0.441,2.784,1.015,5.547,1.842,8.235c1.632,5.38,4.055,10.491,7.129,15.121c6.145,9.277,14.929,16.508,24.608,20.772
				c1.193,0.573,2.443,1,3.659,1.489c1.246,0.409,2.469,0.871,3.728,1.196c2.49,0.749,5.023,1.238,7.537,1.634
				c1.262,0.153,2.528,0.348,3.748,0.412c0.622,0.042,1.211,0.107,1.854,0.131c0.653,0.017,1.304,0.033,1.953,0.049
				c1.191,0.055,2.467-0.041,3.685-0.051c1.225-0.1,2.448-0.151,3.65-0.306c4.816-0.567,9.441-1.662,13.706-3.289
				c4.267-1.618,8.198-3.675,11.722-6.021c7.049-4.721,12.387-10.575,16.154-16.315c3.797-5.752,6.002-11.414,7.318-16.16
				c1.326-4.743,1.758-8.685,1.924-11.242c0.127-1.257,0.103-2.383,0.135-3.077c0.018-0.713,0.027-1.081,0.027-1.081L127.913,69.919
				z"/>
		</g>
		<g>
			<path d="M129.07,53.55c0,0-0.381,0.281-1.094,0.809c-0.738,0.518-1.706,1.323-3.147,2.264c-0.715,0.474-1.506,0.998-2.367,1.569
				c-0.863,0.57-1.825,1.104-2.838,1.719c-1.005,0.626-2.122,1.209-3.297,1.83c-0.588,0.309-1.186,0.638-1.813,0.943
				c-0.633,0.293-1.28,0.594-1.942,0.9c-1.313,0.639-2.72,1.208-4.179,1.792c-1.446,0.623-2.991,1.118-4.56,1.684
				c-1.572,0.559-3.223,1.006-4.892,1.531c-1.688,0.439-3.412,0.91-5.178,1.3c-1.769,0.372-3.563,0.797-5.393,1.1
				c-0.914,0.165-1.833,0.331-2.757,0.497c-0.926,0.14-1.857,0.281-2.791,0.422c-3.738,0.572-7.543,0.989-11.346,1.362
				c-3.805,0.34-7.609,0.595-11.351,0.807c-3.74,0.217-7.486,0.311-11.058,0.332c-3.583,0.025-7.044-0.039-10.325-0.178
				c-3.281-0.135-6.382-0.305-9.243-0.541c-2.862-0.209-5.484-0.509-7.805-0.795c-2.322-0.306-4.345-0.625-6.01-0.914
				c-1.666-0.314-2.97-0.578-3.86-0.8c-0.889-0.208-1.363-0.318-1.363-0.318c-1.075-0.251-1.743-1.326-1.492-2.401
				c0.245-1.047,1.271-1.708,2.317-1.51l0.083,0.016c0,0,0.451,0.086,1.298,0.248c0.839,0.179,2.098,0.366,3.695,0.626
				c1.607,0.23,3.566,0.479,5.826,0.709c2.265,0.206,4.824,0.422,7.629,0.587c2.802,0.179,5.847,0.29,9.069,0.364
				c3.222,0.076,6.624,0.068,10.138,0.039c3.525-0.043,7.114-0.153,10.813-0.39c3.698-0.23,7.447-0.509,11.182-0.858
				c3.733-0.344,7.46-0.73,11.093-1.264c0.909-0.132,1.814-0.263,2.714-0.393c0.894-0.156,1.784-0.311,2.668-0.465
				c1.776-0.282,3.498-0.681,5.203-1.029c1.702-0.361,3.345-0.817,4.973-1.197c1.597-0.474,3.184-0.87,4.686-1.375
				c1.499-0.512,2.981-0.954,4.358-1.521c1.393-0.529,2.738-1.044,3.99-1.627c0.632-0.279,1.251-0.552,1.855-0.819
				c0.599-0.278,1.169-0.582,1.737-0.855c1.13-0.556,2.207-1.075,3.178-1.643c0.974-0.554,1.918-1.04,2.736-1.548
				c0.818-0.508,1.57-0.974,2.249-1.395c1.358-0.832,2.442-1.636,3.174-2.113c0.734-0.499,1.125-0.765,1.125-0.765
				c0.914-0.621,2.158-0.384,2.779,0.529C130.141,51.707,129.927,52.915,129.07,53.55z"/>
		</g>
		<g>
			<path d="M51.909,12.84c0,0,0.626,0.693,1.722,1.907c0.27,0.325,0.586,0.591,0.899,1.053c0.316,0.438,0.658,0.911,1.023,1.416
				c0.355,0.509,0.77,1.045,1.133,1.625c0.334,0.587,0.685,1.204,1.051,1.848c0.79,1.266,1.367,2.752,2.076,4.285
				c0.355,0.768,0.591,1.595,0.901,2.42c0.291,0.831,0.617,1.674,0.834,2.556c0.242,0.877,0.488,1.768,0.738,2.67
				c0.196,0.91,0.394,1.831,0.594,2.76c0.215,0.928,0.367,1.868,0.51,2.813c0.139,0.944,0.324,1.892,0.426,2.842
				c0.225,1.898,0.447,3.798,0.569,5.665c0.172,1.87,0.224,3.701,0.325,5.478c0.05,1.77,0.118,3.487,0.134,5.103
				c0.016,1.616,0.031,3.144,0.044,4.554c0.015,5.6,0.026,9.334,0.026,9.334l0,0.028c0.004,1.381-1.112,2.503-2.493,2.507
				s-2.503-1.112-2.507-2.493c0-0.01,0-0.032,0-0.042c0,0,0.052-3.741,0.131-9.351c0.01-1.392,0.02-2.901,0.032-4.496
				c0.011-1.595-0.028-3.264-0.047-4.997c-0.069-1.722-0.09-3.513-0.226-5.309c-0.087-1.807-0.27-3.622-0.454-5.439
				c-0.081-0.911-0.243-1.802-0.359-2.701c-0.12-0.898-0.248-1.791-0.436-2.659c-0.172-0.873-0.343-1.738-0.512-2.594
				c-0.217-0.839-0.432-1.668-0.643-2.483c-0.186-0.826-0.473-1.595-0.727-2.36c-0.272-0.756-0.473-1.528-0.784-2.223
				c-0.621-1.388-1.115-2.756-1.803-3.883c-0.316-0.58-0.619-1.136-0.907-1.665c-0.305-0.506-0.635-0.932-0.92-1.364
				c-0.29-0.426-0.561-0.824-0.811-1.193c-0.221-0.37-0.593-0.712-0.839-1.019c-1.076-1.231-1.69-1.935-1.69-1.935
				c-0.727-0.831-0.643-2.095,0.188-2.822C49.93,11.956,51.178,12.033,51.909,12.84z"/>
		</g>
		<g>
			<path d="M68.483,9.34c0,0,0.648,0.718,1.782,1.974c0.279,0.336,0.607,0.613,0.929,1.089c0.326,0.452,0.679,0.94,1.055,1.462
				c0.366,0.526,0.794,1.078,1.169,1.677c0.345,0.606,0.707,1.244,1.086,1.909c0.816,1.308,1.412,2.844,2.144,4.428
				c0.366,0.793,0.61,1.648,0.931,2.501c0.301,0.859,0.637,1.73,0.861,2.642c0.25,0.906,0.505,1.828,0.762,2.761
				c0.202,0.941,0.407,1.893,0.614,2.854c0.222,0.96,0.379,1.932,0.527,2.909c0.144,0.977,0.335,1.957,0.439,2.939
				c0.232,1.964,0.462,3.928,0.587,5.86c0.177,1.934,0.231,3.829,0.334,5.668c0.051,1.831,0.121,3.607,0.137,5.28
				c0.016,1.672,0.031,3.253,0.044,4.713c0.014,5.797,0.024,9.661,0.024,9.661l0,0.028c0.003,1.381-1.113,2.503-2.494,2.506
				c-1.381,0.003-2.503-1.113-2.506-2.494c0-0.009,0-0.031,0-0.04c0,0,0.053-3.872,0.132-9.679c0.01-1.442,0.02-3.003,0.031-4.655
				c0.011-1.651-0.03-3.38-0.051-5.174c-0.072-1.784-0.094-3.637-0.236-5.498c-0.09-1.871-0.281-3.752-0.472-5.634
				c-0.084-0.943-0.252-1.867-0.373-2.798c-0.125-0.93-0.258-1.855-0.453-2.755c-0.179-0.904-0.356-1.801-0.531-2.688
				c-0.225-0.87-0.448-1.729-0.667-2.574c-0.193-0.856-0.491-1.653-0.754-2.446c-0.282-0.784-0.491-1.584-0.813-2.304
				c-0.644-1.439-1.157-2.858-1.871-4.026c-0.328-0.602-0.642-1.178-0.941-1.727c-0.317-0.525-0.659-0.968-0.956-1.416
				c-0.301-0.442-0.583-0.856-0.843-1.239c-0.23-0.385-0.615-0.737-0.87-1.056c-1.114-1.274-1.75-2.003-1.75-2.003
				c-0.728-0.831-0.644-2.095,0.187-2.822C66.504,8.456,67.752,8.533,68.483,9.34z"/>
		</g>
		
			<circle style="fill:none;stroke:#000000;stroke-width:4;stroke-linecap:round;stroke-linejoin:round;stroke-miterlimit:10;" cx="39.538" cy="47.294" r="10.625"/>
		
			<circle style="fill:none;stroke:#000000;stroke-width:4;stroke-linecap:round;stroke-linejoin:round;stroke-miterlimit:10;" cx="99.538" cy="41.544" r="10.625"/>
	</g>
</g>
<g id="Layer_1">
</g>
</svg>
