<?xml version="1.0" encoding="iso-8859-1"?>
<!-- Generator: Adobe Illustrator 19.2.0, SVG Export Plug-In . SVG Version: 6.00 Build 0)  -->
<!DOCTYPE svg PUBLIC "-//W3C//DTD SVG 1.1//EN" "http://www.w3.org/Graphics/SVG/1.1/DTD/svg11.dtd">
<svg version="1.1" xmlns="http://www.w3.org/2000/svg" xmlns:xlink="http://www.w3.org/1999/xlink" x="0px" y="0px"
	 viewBox="0 0 140 140" style="enable-background:new 0 0 140 140;" xml:space="preserve">
<g id="linja">
	<g id="linja_1_">
		<g id="Layer_4">
			<circle style="fill:#FFFFFF;" cx="70.413" cy="69.919" r="44.345"/>
		</g>
		<g id="Layer_3">
			<circle style="fill:#FFFFFF;" cx="70.413" cy="69.919" r="44.345"/>
			
				<path id="Path" style="fill:#FFFFFF;stroke:#000000;stroke-width:5;stroke-linecap:round;stroke-linejoin:round;stroke-miterlimit:10;" d="
				M55.422,21.542c-25.156,1.789-45.008,22.764-45.008,48.376c0,33.137,26.863,60,60,60s60-26.863,60-60s-23.78-60-56.917-60
				c-9.297,0-18.083,3.5-18.083,14.333c0,9.297,10.559,15.517,16.333,18.667c6.417,3.5,18,10.838,18,25.67
				S80.282,89.756,67.58,89.756s-23-8.667-23-21.167c0-7.364,4.969-14.334,12.333-14.334s13.333,4.414,13.333,14.334"/>
		</g>
	</g>
</g>
<g id="Layer_1">
</g>
</svg>
