<?xml version="1.0" encoding="iso-8859-1"?>
<!-- Generator: Adobe Illustrator 19.2.0, SVG Export Plug-In . SVG Version: 6.00 Build 0)  -->
<!DOCTYPE svg PUBLIC "-//W3C//DTD SVG 1.1//EN" "http://www.w3.org/Graphics/SVG/1.1/DTD/svg11.dtd">
<svg version="1.1" xmlns="http://www.w3.org/2000/svg" xmlns:xlink="http://www.w3.org/1999/xlink" x="0px" y="0px"
	 viewBox="0 0 125 125" style="enable-background:new 0 0 125 125;" xml:space="preserve">
<g id="mi">
	<g id="mi_2_">
		<path style="fill:#FFFFFF;stroke:#000000;stroke-width:5;stroke-miterlimit:10;" d="M122.5,92.5c0,16.569-13.431,30-30,30h-60
			c-16.569,0-30-13.431-30-30v-60c0-16.569,13.431-30,30-30h60c16.569,0,30,13.431,30,30V92.5z"/>
		<g>
			<circle style="fill:#FFFFFF;" cx="62.5" cy="62.5" r="29"/>
			<path d="M62.601,35.497c0,0-0.71,0.04-2.043,0.116c-0.323,0.027-0.727,0.022-1.092,0.082c-0.362,0.06-0.757,0.126-1.185,0.197
				c-0.428,0.078-0.884,0.123-1.379,0.236c-0.498,0.132-1.027,0.273-1.586,0.421c-2.211,0.639-4.882,1.642-7.517,3.501
				c-2.643,1.812-5.331,4.337-7.463,7.643c-2.091,3.316-3.67,7.348-4.175,11.801c-0.086,0.553-0.062,1.121-0.101,1.686l-0.038,0.852
				l-0.02,0.428c0.003,0.131-0.007-0.119-0.004-0.072L36,62.448l0.005,0.117l0.01,0.235c0.068,1.233,0.061,2.604,0.282,3.631
				c0.097,0.556,0.132,1.104,0.27,1.678c0.144,0.576,0.289,1.154,0.434,1.736c0.115,0.591,0.362,1.145,0.556,1.718
				c0.224,0.562,0.363,1.162,0.656,1.701c0.932,2.265,2.279,4.385,3.823,6.386c1.601,1.965,3.516,3.7,5.623,5.213
				c2.14,1.473,4.525,2.608,7.028,3.424c1.273,0.334,2.54,0.712,3.858,0.863c0.652,0.108,1.304,0.228,1.969,0.235l0.992,0.057
				l0.496,0.029l0.248,0.015l0.124,0.008l0.062,0.004c-0.024,0.002,0.142,0-0.039,0.006c1.39-0.104,2.932-0.092,4.112-0.361
				c0.631-0.127,1.248-0.147,1.89-0.351l1.911-0.505c2.503-0.816,4.888-1.951,7.028-3.424c2.107-1.513,4.022-3.248,5.623-5.213
				c1.544-2.001,2.891-4.12,3.823-6.386c0.927-2.254,1.667-4.563,1.926-6.903c0.227-1.156,0.2-2.326,0.269-3.471l0.01-0.215
				l0.005-0.107l0.003-0.054c0.001-0.045,0.005,0.201,0.002,0.069l-0.021-0.468l-0.041-0.932c-0.041-0.599-0.025-1.279-0.111-1.801
				c-0.197-1.058-0.235-2.078-0.56-3.144c-0.131-0.528-0.261-1.051-0.39-1.571c-0.179-0.504-0.357-1.005-0.533-1.501
				c-0.696-1.991-1.665-3.795-2.682-5.474c-2.132-3.306-4.82-5.831-7.463-7.643c-2.636-1.859-5.307-2.862-7.517-3.501
				c-0.559-0.148-1.088-0.289-1.586-0.421c-0.502-0.114-0.985-0.164-1.427-0.243c-0.444-0.072-0.855-0.138-1.232-0.199
				c-0.377-0.059-0.726-0.05-1.035-0.076C63.162,35.539,62.5,35.5,62.5,35.5L62.601,35.497z M62.5,31.5c0,0,0.759,0.033,2.184,0.095
				c0.355,0.025,0.756,0.016,1.19,0.075c0.434,0.063,0.908,0.132,1.42,0.206c0.511,0.083,1.066,0.139,1.646,0.263
				c0.576,0.144,1.188,0.297,1.835,0.459c2.556,0.717,5.65,1.827,8.788,3.853c3.134,1.999,6.363,4.834,8.995,8.636
				c1.254,1.93,2.503,4.013,3.344,6.368c0.215,0.586,0.444,1.173,0.649,1.773c0.162,0.614,0.326,1.232,0.491,1.855
				c0.379,1.212,0.506,2.618,0.733,3.967c0.104,0.687,0.089,1.246,0.14,1.882l0.053,0.931l0.027,0.468
				c-0.002-0.093,0.005,0.192,0.005,0.186l-0.003,0.064l-0.007,0.127l-0.014,0.255c-0.088,1.359-0.095,2.741-0.369,4.113
				c-0.355,2.769-1.251,5.504-2.391,8.154c-1.189,2.643-2.851,5.091-4.741,7.366c-1.947,2.238-4.242,4.19-6.747,5.857
				c-2.543,1.619-5.332,2.849-8.225,3.766c-1.472,0.374-2.927,0.78-4.514,0.949c-1.618,0.292-2.94,0.237-4.387,0.33l-2.379-0.097
				c-0.762-0.006-1.514-0.128-2.266-0.241c-1.517-0.162-2.986-0.567-4.458-0.942c-2.893-0.918-5.682-2.147-8.225-3.766
				c-2.504-1.667-4.8-3.619-6.747-5.857c-1.89-2.275-3.552-4.722-4.741-7.366c-1.144-2.681-2.027-5.315-2.4-8.224
				c-0.281-1.5-0.268-2.682-0.357-3.953l-0.013-0.235L31.007,62.7l-0.003-0.059c0,0.005-0.005-0.281-0.002-0.189l0.027-0.508
				l0.056-1.01c0.052-0.67,0.045-1.341,0.15-1.997c0.657-5.275,2.581-10.061,5.208-13.852c2.632-3.801,5.86-6.636,8.995-8.636
				c3.138-2.026,6.232-3.136,8.788-3.853c0.647-0.162,1.259-0.315,1.835-0.459c0.587-0.125,1.169-0.186,1.694-0.269
				c0.529-0.075,1.019-0.144,1.467-0.207c0.446-0.059,0.792-0.046,1.133-0.07c1.333-0.059,2.044-0.09,2.044-0.09L62.5,31.5z"/>
		</g>
		<path style="fill:none;stroke:#000000;stroke-width:4;stroke-miterlimit:10;" d="M105,87.5c0,2.761-2.239,5-5,5H25
			c-2.761,0-5-2.239-5-5v-50c0-2.761,2.239-5,5-5h75c2.761,0,5,2.239,5,5V87.5z"/>
	</g>
</g>
<g id="Layer_1">
</g>
</svg>
