<?xml version="1.0" encoding="iso-8859-1"?>
<!-- Generator: Adobe Illustrator 19.2.0, SVG Export Plug-In . SVG Version: 6.00 Build 0)  -->
<!DOCTYPE svg PUBLIC "-//W3C//DTD SVG 1.1//EN" "http://www.w3.org/Graphics/SVG/1.1/DTD/svg11.dtd">
<svg version="1.1" xmlns="http://www.w3.org/2000/svg" xmlns:xlink="http://www.w3.org/1999/xlink" x="0px" y="0px"
	 viewBox="0 0 140 140" style="enable-background:new 0 0 140 140;" xml:space="preserve">
<g id="awen">
	<g id="awen_1_">
		<circle style="fill:#FFFFFF;" cx="68.396" cy="66.686" r="43.982"/>
		<circle style="fill:#FFFFFF;stroke:#000000;stroke-width:5;stroke-miterlimit:10;" cx="39.413" cy="38.919" r="26.5"/>
		<g>
			<path style="fill:#FFFFFF;" d="M99.662,31.419c0,11.736-7.513,21.25-19.249,21.25s-21.25-9.514-21.25-21.25
				s9.514-21.5,21.25-21.5h8.375c22.989,0,41.625,18.636,41.625,41.625c0,0,0,64.125,0,78.375H52.038
				c-22.989,0-41.625-18.636-41.625-41.625v-8.375c0-11.736,9.514-21.25,21.25-21.25s21.25,9.514,21.25,21.25
				s-9.514,19.249-21.25,19.249"/>
			<path d="M101.661,31.459c0.068,5.506-1.495,11.389-5.166,15.957c-1.821,2.279-4.171,4.182-6.826,5.479
				c-2.653,1.305-5.587,1.981-8.487,2.093c-5.805,0.284-11.697-1.776-16.128-5.558c-4.463-3.747-7.468-9.216-8.188-15.029
				c-0.102-0.723-0.154-1.453-0.181-2.182l-0.016-0.547l-0.006-0.335l0.006-0.245c0.012-0.338,0.008-0.628,0.032-1.007
				c0.083-1.567,0.301-2.939,0.65-4.382c0.696-2.838,1.913-5.543,3.568-7.945c3.289-4.817,8.395-8.395,14.124-9.729
				c1.427-0.338,2.887-0.54,4.35-0.606l1.09-0.027l0.981-0.001l1.962-0.001l3.924-0.003l0.981-0.001l0.555,0.001l0.49,0.012
				c0.667,0.024,1.277,0.014,1.992,0.067c5.647,0.309,11.053,1.703,16.106,4.055c5.032,2.349,9.607,5.659,13.419,9.693
				c3.815,4.03,6.866,8.786,8.929,13.945c2.067,5.157,3.141,10.712,3.156,16.261l0.013,15.704l-0.08,62.788
				c-0.002,1.383-1.118,2.502-2.5,2.5l-62.746,0.08l-15.752-0.013l-1.96-0.051l-2.124-0.154c-1.397-0.143-2.761-0.328-4.128-0.594
				c-2.726-0.524-5.403-1.306-7.981-2.334c-5.159-2.053-9.916-5.094-13.951-8.9c-4.038-3.802-7.354-8.368-9.713-13.392
				c-2.364-5.02-3.764-10.498-4.082-16.033c-0.147-2.837-0.069-5.363-0.087-7.996l0.001-1.961l0.001-0.98l0.022-1.044
				c0.025-0.66,0.086-1.53,0.185-2.213c0.087-0.725,0.22-1.447,0.383-2.159c1.266-5.726,4.767-10.892,9.57-14.225
				c4.78-3.369,10.857-4.866,16.64-4.072c5.807,0.732,11.268,3.741,15.005,8.208c3.773,4.425,5.821,10.343,5.535,16.106
				c-0.116,2.935-0.794,5.839-2.1,8.498c-1.298,2.652-3.201,4.999-5.48,6.818c-4.585,3.667-10.406,5.227-15.988,5.159
				c-1.105-0.013-1.989-0.92-1.976-2.024c0.013-1.087,0.896-1.96,1.976-1.976c4.833-0.064,9.651-1.565,13.195-4.569
				c1.769-1.487,3.212-3.317,4.177-5.381c0.972-2.053,1.469-4.358,1.523-6.644c0.137-4.703-1.525-9.32-4.556-12.842
				c-3.009-3.535-7.354-5.875-11.941-6.414c-4.595-0.589-9.361,0.576-13.132,3.244c-3.791,2.637-6.548,6.721-7.534,11.223
				c-0.128,0.561-0.233,1.128-0.299,1.7c-0.083,0.611-0.114,1.047-0.143,1.692l-0.019,0.916l0.001,0.98l0.001,1.961
				c0.018,2.595-0.045,5.302,0.088,7.687c0.287,4.906,1.532,9.744,3.629,14.181c2.092,4.44,5.033,8.479,8.612,11.841
				c3.576,3.364,7.788,6.048,12.347,7.855c2.279,0.905,4.643,1.592,7.052,2.052c1.2,0.233,2.429,0.396,3.632,0.519l1.787,0.131
				l1.96,0.048l15.622-0.01l62.746,0.08l-2.5,2.5l-0.08-62.788l0.007-15.69c-0.008-4.916-0.951-9.817-2.77-14.376
				c-1.816-4.56-4.508-8.77-7.881-12.342c-3.37-3.575-7.417-6.511-11.865-8.595c-4.422-2.084-9.34-3.332-14.144-3.601
				c-0.59-0.05-1.29-0.043-1.929-0.067l-0.49-0.013l-0.427,0l-0.981-0.001l-3.924-0.003l-1.962-0.001l-0.981-0.001l-0.872,0.021
				c-1.15,0.051-2.293,0.208-3.411,0.471c-4.483,1.034-8.534,3.85-11.151,7.674c-1.315,1.905-2.282,4.046-2.835,6.289
				c-0.276,1.097-0.457,2.322-0.514,3.368c-0.022,0.274-0.021,0.639-0.032,0.954l-0.006,0.245c-0.001,0.035,0.002-0.082,0.001-0.007
				l0.001,0.054l0.002,0.108l0.009,0.434c0.017,0.577,0.051,1.156,0.129,1.728c0.529,4.592,2.866,8.942,6.398,11.959
				c3.512,3.037,8.157,4.708,12.826,4.575c2.325-0.052,4.606-0.546,6.669-1.518c2.066-0.964,3.899-2.406,5.388-4.176
				c1.495-1.767,2.636-3.866,3.394-6.119c0.38-1.127,0.666-2.292,0.861-3.478c0.101-0.589,0.171-1.2,0.225-1.785l0.063-0.88
				l0.032-0.981c0.036-1.104,0.961-1.969,2.065-1.933c1.072,0.035,1.919,0.908,1.934,1.969L101.661,31.459z"/>
		</g>
		
			<line style="fill:none;stroke:#000000;stroke-width:4;stroke-linecap:round;stroke-linejoin:round;stroke-miterlimit:10;" x1="62.413" y1="98.169" x2="98.538" y2="62.044"/>
		
			<line style="fill:none;stroke:#000000;stroke-width:4;stroke-linecap:round;stroke-linejoin:round;stroke-miterlimit:10;" x1="66.163" y1="113.919" x2="114.288" y2="65.794"/>
	</g>
</g>
<g id="Layer_1">
</g>
</svg>
