<?xml version="1.0" encoding="iso-8859-1"?>
<!-- Generator: Adobe Illustrator 19.2.0, SVG Export Plug-In . SVG Version: 6.00 Build 0)  -->
<!DOCTYPE svg PUBLIC "-//W3C//DTD SVG 1.1//EN" "http://www.w3.org/Graphics/SVG/1.1/DTD/svg11.dtd">
<svg version="1.1" xmlns="http://www.w3.org/2000/svg" xmlns:xlink="http://www.w3.org/1999/xlink" x="0px" y="0px"
	 viewBox="0 0 125.088 133.028" style="enable-background:new 0 0 125.088 133.028;" xml:space="preserve">
<g id="lawa">
	<g id="lawa_1_">
		<g>
			<path style="fill:#FFFFFF;" d="M13.295,69.505c-2.759-5.196-3.75-10.068-3.75-16.083c0-42.75,41.75-39.669,53-50.919
				c11.26,11.26,53,8.169,53,50.919c0,5.926-1.483,10.949-4.165,16.083"/>
			<path d="M11.514,70.416c-0.448-0.851-0.963-1.882-1.373-2.854c-0.413-0.988-0.802-1.991-1.116-3.02
				c-0.644-2.053-1.068-4.174-1.301-6.287C7.5,56.133,7.406,54.05,7.496,51.941c0.043-1.019,0.014-1.982,0.116-3.048l0.292-3.181
				l0.506-3.115c0.178-1.037,0.475-2.059,0.71-3.089c0.548-2.045,1.245-4.062,2.113-6.016c0.394-0.993,0.955-1.914,1.429-2.873
				c0.505-0.944,1.12-1.828,1.678-2.743c0.626-0.869,1.263-1.736,1.929-2.575c0.718-0.793,1.378-1.647,2.151-2.385
				c0.762-0.749,1.507-1.521,2.334-2.192l1.215-1.038l1.269-0.959c1.691-1.286,3.488-2.39,5.3-3.447
				c1.835-1.005,3.693-1.962,5.587-2.795c1.886-0.864,3.798-1.615,5.707-2.357c3.816-1.459,7.662-2.729,11.337-4.136
				c1.845-0.696,3.621-1.455,5.287-2.302c1.655-0.848,3.2-1.814,4.321-2.953l0.001,0l0.143-0.125
				c0.989-0.867,2.48-0.798,3.393,0.125c1.123,1.14,2.669,2.107,4.325,2.957C70.306,4.54,72.083,5.3,73.93,5.997
				c3.679,1.409,7.528,2.679,11.348,4.14c1.91,0.743,3.825,1.494,5.712,2.36c1.895,0.835,3.755,1.793,5.592,2.799
				c1.813,1.061,3.613,2.165,5.303,3.455l1.271,0.96l1.214,1.041c0.828,0.672,1.57,1.449,2.334,2.196
				c0.769,0.743,1.433,1.595,2.151,2.39c0.66,0.846,1.306,1.707,1.924,2.582c0.558,0.917,1.178,1.799,1.676,2.748
				c0.472,0.961,1.039,1.88,1.426,2.878c0.868,1.955,1.562,3.976,2.105,6.024c0.233,1.031,0.537,2.053,0.705,3.092l0.501,3.118
				l0.289,3.128c0.093,1.043,0.074,2.084,0.115,3.125c0.01,0.533,0.035,1.014,0.031,1.589c-0.01,0.502-0.016,0.995-0.052,1.563
				c-0.054,1.099-0.162,2.145-0.322,3.213c-0.616,4.26-2.139,8.34-4.102,12.032l-0.003,0.006c-0.519,0.975-1.73,1.345-2.705,0.827
				c-0.968-0.515-1.34-1.713-0.837-2.685c1.777-3.434,3.062-7.033,3.564-10.766c0.129-0.925,0.217-1.886,0.252-2.8
				c0.026-0.437,0.028-0.952,0.033-1.457l-0.047-1.431c-0.05-0.97-0.039-1.948-0.136-2.911l-0.296-2.886l-0.488-2.843
				c-0.161-0.948-0.451-1.859-0.667-2.79c-0.508-1.838-1.146-3.631-1.931-5.351c-0.346-0.883-0.862-1.677-1.281-2.521
				c-0.444-0.831-1.002-1.592-1.493-2.394c-0.552-0.76-1.126-1.507-1.709-2.244c-0.644-0.688-1.223-1.432-1.913-2.079
				c-0.684-0.651-1.338-1.332-2.085-1.921l-1.087-0.916l-1.15-0.848c-1.524-1.141-3.177-2.13-4.848-3.087
				c-1.707-0.909-3.438-1.783-5.24-2.554c-1.783-0.797-3.629-1.499-5.48-2.197c-3.72-1.38-7.54-2.596-11.402-4.027
				c-1.929-0.706-3.874-1.506-5.807-2.463c-1.923-0.972-3.879-2.109-5.622-3.822h3.535l-0.001,0.001
				c-1.742,1.712-3.697,2.847-5.618,3.818c-1.931,0.957-3.874,1.755-5.801,2.461c-3.858,1.429-7.674,2.644-11.391,4.023
				c-1.849,0.697-3.693,1.399-5.475,2.194c-1.8,0.769-3.53,1.641-5.235,2.55c-1.671,0.954-3.321,1.943-4.846,3.081l-1.149,0.847
				l-1.088,0.913c-0.746,0.589-1.403,1.265-2.085,1.917c-0.693,0.643-1.269,1.389-1.913,2.076c-0.589,0.731-1.153,1.483-1.713,2.237
				c-0.492,0.8-1.044,1.564-1.495,2.39c-0.42,0.843-0.93,1.639-1.284,2.517c-0.785,1.717-1.424,3.507-1.937,5.342
				c-0.218,0.93-0.501,1.842-0.671,2.787l-0.492,2.839l-0.292,2.828c-0.107,0.936-0.092,1.992-0.144,2.982
				c-0.106,1.911-0.035,3.863,0.145,5.743c0.189,1.889,0.54,3.736,1.082,5.53c0.263,0.899,0.594,1.778,0.948,2.65
				c0.365,0.886,0.74,1.662,1.219,2.597c0.503,0.983,0.113,2.188-0.87,2.691c-0.976,0.499-2.169,0.119-2.679-0.847L11.514,70.416z"
				/>
		</g>
		<g>
			<path style="fill:#FFFFFF;" d="M62.377,130.505H34.545c-16.569,0-32.001-13.431-32.001-30v-3.688
				c0-18.507,13-33.646,29.771-38.487c9.229-2.742,11.729-7.075,11.729-10.825v-10.25c0-10.217,8.283-18.5,18.5-18.5h0.001l0,0
				c10.217,0,18.5,8.283,18.5,18.5v10.25c0,3.75,2.5,8.083,11.729,10.825c16.771,4.841,29.771,19.98,29.771,38.487v3.688
				c0,16.569-15.433,30-32.001,30H62.711H62.377z"/>
			<path d="M62.377,133.005l-23.581,0.019l-2.948,0.002l-1.537-0.004l-1.485-0.041c-2.242-0.112-4.262-0.427-6.346-0.928
				c-4.116-1.001-8.032-2.739-11.543-5.085c-3.51-2.345-6.625-5.304-9.104-8.763c-2.479-3.452-4.307-7.426-5.193-11.641
				c-0.45-2.09-0.649-4.291-0.642-6.382l0.002-2.948c0.018-1.12,0.009-1.933,0.097-3.08c0.265-4.237,1.182-8.336,2.709-12.248
				c3.022-7.825,8.47-14.597,15.248-19.421c3.385-2.426,7.122-4.35,11.045-5.742c0.49-0.175,0.981-0.348,1.481-0.495l1.391-0.433
				c0.458-0.149,0.96-0.295,1.382-0.447l1.221-0.457c1.662-0.667,3.206-1.505,4.442-2.526c1.257-1.013,2.09-2.226,2.432-3.53
				c0.178-0.683,0.186-1.235,0.184-2.344l0.015-2.948l0.041-5.895l0.016-0.796c0.011-0.254,0.011-0.471,0.032-0.756
				c0.041-0.587,0.095-1.166,0.178-1.702c0.163-1.094,0.399-2.178,0.734-3.232c1.323-4.222,4.025-7.981,7.594-10.543
				c3.558-2.574,7.951-3.957,12.302-3.886h0.001c4.359-0.071,8.759,1.316,12.321,3.899c3.57,2.572,6.276,6.341,7.588,10.575
				c0.658,2.09,0.968,4.397,0.946,6.494l0.041,5.906l0.015,2.953l0.004,0.738l0.001,0.185c-0.004-0.192,0-0.027,0-0.058l0.002,0.046
				l0.004,0.092l0.018,0.369c0.003,0.144,0.017,0.214,0.03,0.273l0.031,0.202c0.011,0.13,0.075,0.32,0.105,0.478
				c0.357,1.303,1.204,2.516,2.474,3.524c1.243,1.021,2.8,1.851,4.468,2.515l1.273,0.472l1.311,0.418
				c0.959,0.307,1.851,0.553,2.897,0.939c3.964,1.417,7.673,3.349,11.068,5.787c6.77,4.857,12.213,11.657,15.203,19.512
				c1.503,3.914,2.419,8.064,2.656,12.252c0.074,1.028,0.078,2.134,0.085,3.103l0.002,2.953l-0.039,1.55
				c-0.02,0.507-0.084,1.107-0.128,1.656c-0.121,1.095-0.289,2.144-0.52,3.202c-0.92,4.215-2.783,8.18-5.291,11.619
				c-2.509,3.446-5.65,6.386-9.184,8.709c-3.535,2.323-7.472,4.033-11.604,5.001c-2.065,0.483-4.179,0.78-6.306,0.874l-1.587,0.036
				l-1.476-0.001L86,133.024L62.377,133.005z M62.377,128.005L86,127.986l2.953-0.002l1.476-0.001l1.365-0.033
				c1.806-0.083,3.608-0.338,5.374-0.755c3.534-0.833,6.927-2.311,9.967-4.316c6.085-3.986,10.759-10.198,12.288-17.185
				c0.192-0.865,0.334-1.762,0.432-2.623c0.031-0.432,0.085-0.811,0.106-1.287l0.039-1.402l0.002-2.953
				c-0.006-0.999-0.007-1.864-0.071-2.799c-0.201-3.676-0.998-7.308-2.311-10.744c-2.607-6.892-7.403-12.919-13.409-17.243
				c-2.995-2.165-6.34-3.903-9.785-5.142c-0.798-0.306-1.804-0.589-2.718-0.888l-1.497-0.495l-1.489-0.57
				c-1.974-0.815-3.941-1.847-5.735-3.341c-1.788-1.447-3.393-3.568-4.034-6.088c-0.068-0.324-0.152-0.606-0.197-0.966l-0.066-0.53
				c-0.022-0.185-0.039-0.359-0.038-0.461l-0.014-0.369l-0.009-0.288l0.001-0.185l0.004-0.738l0.015-2.953l0.041-5.906
				c0.049-1.84-0.159-3.482-0.638-5.162c-0.947-3.317-3.031-6.29-5.779-8.416c-2.757-2.122-6.205-3.338-9.727-3.388h-0.001
				c-3.516,0.05-6.958,1.262-9.713,3.378c-2.748,2.118-4.828,5.085-5.785,8.392c-0.245,0.824-0.41,1.67-0.521,2.521
				c-0.06,0.437-0.084,0.838-0.11,1.231c-0.013,0.205-0.01,0.48-0.016,0.716l0,0.677l0.041,5.895l0.015,2.948
				c0.015,0.852,0.03,2.286-0.298,3.512c-0.613,2.523-2.201,4.659-3.98,6.118c-1.786,1.5-3.746,2.545-5.716,3.365l-1.535,0.589
				c-0.502,0.183-0.943,0.314-1.418,0.474l-1.421,0.449c-0.443,0.13-0.878,0.286-1.313,0.442c-3.48,1.241-6.799,2.954-9.8,5.114
				C14.96,70.87,10.161,76.874,7.524,83.74c-1.333,3.409-2.135,7.077-2.354,10.685c-0.075,0.812-0.073,1.967-0.085,2.811
				l0.002,2.948c0,1.839,0.165,3.571,0.54,5.324c1.471,6.986,6.089,13.218,12.132,17.243c3.02,2.025,6.395,3.527,9.917,4.39
				c1.734,0.43,3.616,0.708,5.301,0.796l1.462,0.043l1.41,0.005l2.948,0.002L62.377,128.005z"/>
		</g>
		
			<circle style="fill:none;stroke:#000000;stroke-width:4;stroke-linecap:round;stroke-linejoin:round;stroke-miterlimit:10;" cx="62.545" cy="91.005" r="20.5"/>
	</g>
</g>
<g id="Layer_1">
</g>
</svg>
