<?xml version="1.0" encoding="iso-8859-1"?>
<!-- Generator: Adobe Illustrator 19.2.0, SVG Export Plug-In . SVG Version: 6.00 Build 0)  -->
<!DOCTYPE svg PUBLIC "-//W3C//DTD SVG 1.1//EN" "http://www.w3.org/Graphics/SVG/1.1/DTD/svg11.dtd">
<svg version="1.1" xmlns="http://www.w3.org/2000/svg" xmlns:xlink="http://www.w3.org/1999/xlink" x="0px" y="0px"
	 viewBox="0 0 125 125" style="enable-background:new 0 0 125 125;" xml:space="preserve">
<g id="sina">
	<g id="sina_2_">
		<path style="fill:#FFFFFF;stroke:#000000;stroke-width:5;stroke-miterlimit:10;" d="M122.5,62.5v30c0,16.569-13.431,30-30,30h-60
			c-16.569,0-30-13.431-30-30v-30c0-33.137,26.863-60,60-60S122.5,29.363,122.5,62.5z"/>
		<g>
			<g>
				<path d="M23.096,122.5c0,0,0.112-14.069,0.281-35.172c0.026-5.276,0.054-10.991,0.083-17.036
					c0.004-0.756,0.007-1.516,0.011-2.282c0.041-0.8,0.083-1.606,0.125-2.416c0.013-1.496,0.35-3.245,0.606-4.934
					c0.103-0.867,0.393-1.643,0.584-2.475c0.238-0.812,0.372-1.661,0.7-2.454c0.295-0.803,0.592-1.61,0.89-2.42
					c0.268-0.823,0.72-1.572,1.076-2.366c0.697-1.601,1.677-3.064,2.589-4.578c0.484-0.738,1.048-1.427,1.572-2.145l0.804-1.068
					l0.899-0.995c2.32-2.735,5.175-5.032,8.218-7.033l2.349-1.42l2.48-1.199c0.816-0.429,1.686-0.733,2.554-1.045
					c0.874-0.291,1.717-0.687,2.621-0.887C55.087,29.506,58.8,29.098,62.5,29l2.736,0.131c0.445,0.03,0.865,0.024,1.33,0.083
					l1.411,0.206c0.931,0.157,1.899,0.243,2.798,0.468l2.688,0.687c0.904,0.2,1.747,0.596,2.621,0.887
					c0.868,0.312,1.738,0.616,2.554,1.045l2.48,1.199l2.349,1.42c3.043,2.002,5.898,4.298,8.218,7.033l0.899,0.995l0.804,1.068
					c0.525,0.718,1.088,1.407,1.572,2.145c0.912,1.514,1.892,2.976,2.589,4.578c0.356,0.794,0.808,1.543,1.076,2.366
					c0.298,0.81,0.595,1.617,0.89,2.42c0.329,0.793,0.462,1.642,0.7,2.454c0.19,0.825,0.483,1.625,0.581,2.459
					c0.248,1.657,0.586,3.289,0.608,4.932c0.042,0.816,0.084,1.628,0.126,2.434c0.004,0.766,0.007,1.527,0.011,2.282
					c0.029,6.045,0.057,11.761,0.083,17.036c0.169,21.103,0.281,35.172,0.281,35.172h-5c0,0,0.112-14.069,0.281-35.172
					c0.026-5.276,0.054-10.991,0.083-17.036c0.004-0.756,0.007-1.516,0.011-2.282c-0.032-0.723-0.064-1.452-0.096-2.184
					c0.004-1.469-0.298-2.924-0.497-4.407c-0.073-0.748-0.339-1.46-0.499-2.199c-0.211-0.725-0.318-1.487-0.615-2.194
					c-0.261-0.718-0.524-1.439-0.788-2.164c-0.231-0.738-0.643-1.404-0.956-2.116c-0.611-1.436-1.495-2.74-2.298-4.101
					c-0.431-0.662-0.937-1.276-1.403-1.922l-0.713-0.961l-0.805-0.89c-2.063-2.461-4.622-4.517-7.338-6.323l-2.098-1.281
					l-2.218-1.078c-0.727-0.391-1.508-0.661-2.284-0.942c-0.783-0.26-1.533-0.628-2.344-0.804l-2.406-0.623
					c-0.802-0.206-1.595-0.264-2.393-0.41l-1.195-0.192c-0.406-0.057-0.869-0.055-1.3-0.086L62.5,33
					c-3.324,0.11-6.653,0.475-9.827,1.446c-0.811,0.176-1.561,0.544-2.344,0.804c-0.777,0.28-1.557,0.551-2.284,0.942l-2.218,1.078
					l-2.098,1.281c-2.716,1.805-5.275,3.861-7.338,6.323l-0.805,0.89l-0.713,0.961c-0.465,0.645-0.972,1.26-1.403,1.922
					c-0.803,1.361-1.688,2.665-2.298,4.101c-0.313,0.711-0.725,1.377-0.956,2.116c-0.264,0.724-0.526,1.446-0.788,2.164
					c-0.297,0.707-0.404,1.468-0.615,2.194c-0.158,0.731-0.428,1.467-0.496,2.183c-0.191,1.452-0.494,2.789-0.499,4.405
					c-0.033,0.739-0.065,1.473-0.097,2.202c0.004,0.766,0.007,1.527,0.011,2.282c0.029,6.045,0.057,11.761,0.083,17.036
					c0.169,21.103,0.281,35.172,0.281,35.172H23.096z"/>
			</g>
			<g>
				<path d="M33.552,122.5c0,0,0.054-7.131,0.134-17.828c0.016-5.348,0.034-11.588,0.054-18.273c0.005-1.671,0.01-3.371,0.015-5.091
					l0.003-0.252l0.009-0.161l0.017-0.323c0.018-0.229,0.009-0.401,0.048-0.677c0.079-0.537,0.145-1.112,0.289-1.587
					c0.227-1.003,0.647-1.956,1.13-2.867c1.02-1.798,2.501-3.352,4.312-4.403c1.787-1.091,3.904-1.609,5.988-1.633
					c0.657,0.042,0.86,0.006,1.503,0.103l0.836,0.125l0.765,0.19c1.013,0.267,1.989,0.676,2.884,1.215
					c1.811,1.05,3.292,2.605,4.312,4.403c1.002,1.796,1.515,3.899,1.497,5.868c0.005,1.72,0.01,3.419,0.015,5.091
					c0.02,6.685,0.038,12.925,0.054,18.273c0.081,10.697,0.134,17.828,0.134,17.828h-4c0,0,0.054-7.131,0.134-17.828
					c0.016-5.348,0.034-11.588,0.054-18.273c0.005-1.671,0.01-3.371,0.015-5.091c0.018-1.471-0.331-2.857-1.017-4.137
					c-1.377-2.557-4.228-4.267-7.186-4.266c-2.958,0-5.809,1.709-7.186,4.266c-0.326,0.64-0.625,1.299-0.772,1.999
					c-0.111,0.359-0.12,0.653-0.184,0.969c-0.03,0.151-0.026,0.414-0.041,0.614l-0.015,0.323l-0.008,0.161
					c0.004-0.168,0.001-0.023,0.002-0.051l0,0.04l0,0.081c0.005,1.72,0.01,3.419,0.015,5.091c0.02,6.685,0.038,12.925,0.054,18.273
					c0.081,10.697,0.134,17.828,0.134,17.828H33.552z"/>
			</g>
			<g>
				<path d="M61.605,122.5c0,0,0.054-9.214,0.134-23.036c0.016-6.911,0.034-14.973,0.054-23.612c0.005-2.16,0.01-4.355,0.015-6.578
					l0.003-0.299l0.011-0.208l0.022-0.417c0.022-0.292,0.012-0.527,0.061-0.866c0.1-0.662,0.177-1.363,0.359-1.96
					c0.282-1.251,0.807-2.44,1.408-3.578c1.272-2.244,3.12-4.186,5.38-5.498c2.23-1.364,4.871-2.01,7.474-2.042
					c0.787,0.053,1.121,0.01,1.892,0.132l1.029,0.154l0.954,0.238c0.642,0.137,1.24,0.413,1.857,0.626
					c0.584,0.291,1.196,0.532,1.742,0.892c2.26,1.312,4.108,3.254,5.38,5.498c1.249,2.245,1.888,4.858,1.864,7.329
					c0.005,2.223,0.01,4.418,0.015,6.578c0.02,8.638,0.038,16.701,0.054,23.612c0.081,13.822,0.134,23.036,0.134,23.036h-4
					c0,0,0.054-9.214,0.134-23.036c0.016-6.911,0.034-14.973,0.054-23.612c0.005-2.16,0.01-4.355,0.015-6.578
					c0.023-1.974-0.451-3.869-1.385-5.598c-1.868-3.463-5.735-5.777-9.74-5.771c-4.005-0.006-7.872,2.308-9.74,5.771
					c-0.444,0.867-0.848,1.761-1.049,2.71c-0.148,0.481-0.168,0.902-0.254,1.342c-0.04,0.213-0.034,0.54-0.054,0.803l-0.02,0.417
					l-0.01,0.208c0.004-0.164,0.001-0.016,0.002-0.039l0,0.052l0,0.104c0.005,2.223,0.01,4.418,0.015,6.578
					c0.02,8.638,0.038,16.701,0.054,23.612c0.081,13.822,0.134,23.036,0.134,23.036H61.605z"/>
			</g>
		</g>
	</g>
</g>
<g id="Layer_1">
</g>
</svg>
