<?xml version="1.0" encoding="iso-8859-1"?>
<!-- Generator: Adobe Illustrator 19.2.0, SVG Export Plug-In . SVG Version: 6.00 Build 0)  -->
<!DOCTYPE svg PUBLIC "-//W3C//DTD SVG 1.1//EN" "http://www.w3.org/Graphics/SVG/1.1/DTD/svg11.dtd">
<svg version="1.1" xmlns="http://www.w3.org/2000/svg" xmlns:xlink="http://www.w3.org/1999/xlink" x="0px" y="0px"
	 viewBox="0 0 124.826 124.981" style="enable-background:new 0 0 124.826 124.981;" xml:space="preserve">
<g id="kute">
	<g id="kute_1_">
		<g>
			<path style="fill:#FFFFFF;" d="M122.575,88.479c0,19.003-13.431,34.003-30,34.003c-29.667,0-30-27.44-30-36.004
				c0,8.564-0.333,36.004-30,36.004c-16.569,0-30-14.333-30-34.003V62.481c0-33.137,26.863-60,60-60s60,26.863,60,60V88.479z"/>
			<path d="M124.768,88.527l-0.029,1.624l-0.101,1.745c-0.096,1.155-0.225,2.282-0.413,3.416c-0.37,2.261-0.933,4.495-1.691,6.666
				c-1.496,4.346-3.773,8.458-6.8,11.992c-3.017,3.531-6.803,6.486-11.115,8.411c-2.153,0.962-4.424,1.675-6.751,2.105
				c-1.164,0.216-2.34,0.35-3.52,0.435l-1.772,0.059c-0.625-0.014-1.082-0.013-1.683-0.039c-2.344-0.101-4.602-0.339-6.893-0.837
				c-2.276-0.484-4.534-1.203-6.682-2.214c-2.152-0.998-4.185-2.301-5.998-3.858c-1.819-1.551-3.395-3.374-4.702-5.339
				c-2.624-3.943-4.186-8.389-5.069-12.838c-0.867-4.46-1.066-8.986-0.974-13.377l0-0.003h4c0.147,7.268-0.482,14.946-3.707,22
				c-1.595,3.504-3.89,6.813-6.885,9.417c-2.982,2.614-6.582,4.478-10.308,5.566c-1.864,0.551-3.76,0.938-5.658,1.176
				c-1.923,0.236-3.742,0.347-5.741,0.338l-1.35-0.037l-1.521-0.12c-0.984-0.113-1.944-0.244-2.906-0.445
				c-1.918-0.388-3.799-0.961-5.606-1.709c-7.27-2.981-13.128-8.826-16.581-15.697c-1.765-3.431-2.935-7.13-3.623-10.888
				c-0.324-1.884-0.527-3.783-0.623-5.685c-0.061-1.949-0.04-3.686-0.046-5.492L0.001,63.364L0,62.691l0.012-0.738l0.033-1.346
				l0.036-1.35l0.105-1.428c0.069-0.953,0.133-1.91,0.268-2.829c0.13-0.927,0.203-1.862,0.391-2.78
				c0.606-3.695,1.543-7.338,2.823-10.858c2.542-7.046,6.361-13.62,11.206-19.322c4.837-5.708,10.706-10.542,17.251-14.17
				c6.537-3.641,13.734-6.089,21.131-7.202c3.695-0.556,7.457-0.752,11.17-0.635l1.348,0.04l1.425,0.11
				c0.951,0.073,1.906,0.138,2.823,0.276c1.857,0.211,3.698,0.545,5.529,0.917c7.317,1.549,14.323,4.483,20.601,8.518
				c6.277,4.04,11.828,9.199,16.292,15.177c4.457,5.981,7.839,12.758,9.914,19.919c1.036,3.58,1.766,7.25,2.14,10.957
				c0.162,1.855,0.297,3.713,0.307,5.575c0.043,1.863,0.005,3.609,0.012,5.418l-0.048,21.538L124.768,88.527z M120.381,88.479
				l-0.048-21.538c-0.014-1.779,0.015-3.624-0.035-5.35c-0.016-1.73-0.151-3.453-0.307-5.173c-0.363-3.436-1.055-6.833-2.029-10.143
				c-1.953-6.62-5.104-12.882-9.261-18.391c-4.161-5.507-9.323-10.246-15.138-13.942c-5.817-3.691-12.286-6.358-19.031-7.744
				c-1.688-0.332-3.384-0.631-5.095-0.815c-0.859-0.126-1.696-0.174-2.535-0.235l-1.259-0.095L64.299,5.02
				c-3.46-0.088-6.897,0.088-10.302,0.609c-6.8,1.038-13.404,3.299-19.406,6.657c-6.009,3.344-11.395,7.8-15.829,13.054
				c-4.441,5.248-7.934,11.291-10.254,17.757c-1.169,3.23-2.02,6.573-2.569,9.963c-0.265,1.688-0.503,3.42-0.605,5.08l-0.1,1.256
				l-0.039,1.341l-0.035,1.346l-0.012,0.608l-0.001,0.673L5.128,84.902c0.001,1.784-0.018,3.637,0.031,5.276
				c0.083,1.684,0.258,3.359,0.539,5.014c0.6,3.299,1.613,6.521,3.13,9.481c2.97,5.936,7.937,10.857,13.993,13.353
				c1.508,0.626,3.075,1.107,4.674,1.434c0.796,0.17,1.615,0.281,2.413,0.376l1.163,0.099l1.341,0.039
				c3.29,0.036,6.748-0.305,9.889-1.216c3.168-0.894,6.101-2.393,8.546-4.491c2.449-2.09,4.428-4.748,5.861-7.746
				c1.451-2.993,2.375-6.285,2.988-9.659c0.606-3.388,0.835-6.845,0.879-10.386l0.001-0.055c0.014-1.104,0.92-1.989,2.024-1.975
				s1.989,0.92,1.975,2.024l0,0.006l0,0.003c0.05,4.266,0.386,8.439,1.306,12.467c0.897,4.013,2.36,7.866,4.62,11.105
				c2.252,3.237,5.285,5.811,8.863,7.424c1.781,0.818,3.684,1.409,5.646,1.808c1.947,0.411,4.017,0.605,5.999,0.674
				c0.482,0.02,1.108,0.015,1.566,0.023l1.475-0.042c0.981-0.068,1.959-0.173,2.927-0.348c1.935-0.349,3.828-0.932,5.633-1.728
				c3.611-1.59,6.899-3.991,9.554-7.005c2.668-3.001,4.75-6.553,6.136-10.374c0.685-1.914,1.2-3.892,1.546-5.903
				c0.175-1.002,0.299-2.027,0.391-3.03l0.101-1.497l0.042-1.624L120.381,88.479z"/>
		</g>
		<g>
			<path d="M25.791,91.058c0,0,0.085-0.224,0.245-0.644c0.159-0.412,0.399-1,0.714-1.742c0.632-1.482,1.585-3.563,2.858-5.995
				c1.27-2.432,2.887-5.201,4.816-8.048c0.965-1.423,2.017-2.86,3.146-4.277c1.136-1.412,2.328-2.82,3.619-4.147
				c1.269-1.345,2.639-2.601,4.026-3.795c1.42-1.159,2.859-2.257,4.345-3.195c0.745-0.466,1.468-0.938,2.225-1.323
				c0.742-0.41,1.472-0.802,2.219-1.121c0.734-0.342,1.451-0.667,2.175-0.913c0.717-0.262,1.4-0.54,2.089-0.714
				c0.684-0.186,1.329-0.404,1.962-0.535c0.634-0.128,1.235-0.249,1.799-0.362c1.135-0.193,2.138-0.272,2.957-0.372
				c1.65-0.054,2.592-0.084,2.592-0.084c0.93-0.03,1.709,0.699,1.739,1.63c0.03,0.919-0.681,1.689-1.594,1.738l-0.145,0.008
				c0,0-0.84,0.044-2.309,0.121c-0.727,0.108-1.616,0.193-2.62,0.384c-0.499,0.111-1.03,0.229-1.589,0.353
				c-0.559,0.125-1.128,0.336-1.732,0.51c-0.608,0.162-1.212,0.427-1.845,0.672c-0.64,0.229-1.275,0.534-1.925,0.853
				c-0.661,0.294-1.31,0.662-1.97,1.044c-0.673,0.356-1.319,0.799-1.983,1.233c-1.327,0.873-2.62,1.903-3.9,2.988
				c-1.252,1.124-2.493,2.304-3.648,3.579c-1.174,1.254-2.263,2.594-3.303,3.939c-1.033,1.35-1.998,2.723-2.883,4.087
				c-1.77,2.727-3.256,5.388-4.417,7.724c-1.164,2.334-2.03,4.329-2.595,5.73c-0.271,0.699-0.483,1.249-0.628,1.624
				c-0.13,0.364-0.2,0.559-0.2,0.559l-0.019,0.054c-0.419,1.17-1.707,1.779-2.877,1.36c-1.17-0.419-1.779-1.707-1.36-2.877
				C25.779,91.089,25.787,91.068,25.791,91.058z"/>
		</g>
		<path style="fill:none;stroke:#000000;stroke-width:4.5;stroke-linecap:round;stroke-linejoin:round;stroke-miterlimit:10;" d="
			M35.245,31.145c0,0,21.578-4.692,32.333,23.999c12.997,34.671,36.997,35.667,36.997,35.667"/>
	</g>
</g>
<g id="Layer_1">
</g>
</svg>
