<?xml version="1.0" encoding="iso-8859-1"?>
<!-- Generator: Adobe Illustrator 19.2.0, SVG Export Plug-In . SVG Version: 6.00 Build 0)  -->
<!DOCTYPE svg PUBLIC "-//W3C//DTD SVG 1.1//EN" "http://www.w3.org/Graphics/SVG/1.1/DTD/svg11.dtd">
<svg version="1.1" xmlns="http://www.w3.org/2000/svg" xmlns:xlink="http://www.w3.org/1999/xlink" x="0px" y="0px"
	 viewBox="0 0 140 140" style="enable-background:new 0 0 140 140;" xml:space="preserve">
<g id="pana">
	<g id="pana_3_">
		
			<ellipse transform="matrix(0.8132 -0.582 0.582 0.8132 -25.607 53.424)" style="fill:#FFFFFF;stroke:#000000;stroke-width:5;stroke-miterlimit:10;" cx="70.413" cy="66.599" rx="63.546" ry="52.84"/>
		<g>
			<path style="fill:#FFFFFF;" d="M81.221,104.907c22.717-16.26,34.39-44.738,25.015-58.019
				c-9.515-13.481-37.642-7.609-59.515,9.769c-25.185,20.01-40.76,50.894-35.25,63.75c4.5,10.5,12.5,9.5,18.25,9.5h68
				c0,0,19.5-0.5,19.5-16.5C117.221,94.407,81.221,104.907,81.221,104.907z"/>
			<path d="M80.326,103.704c0,0,0.286-0.223,0.841-0.656c0.56-0.431,1.389-1.074,2.377-1.926c2.002-1.718,4.938-4.339,8.213-8.063
				c3.255-3.732,6.931-8.565,10.079-14.675c1.602-3.034,3.017-6.407,4.102-10.055c1.037-3.646,1.744-7.62,1.448-11.634
				c-0.264-3.984-1.632-8.029-4.689-10.784c-3.025-2.763-7.452-4.203-12.131-4.374c-4.693-0.214-9.628,0.574-14.492,1.979
				c-4.872,1.407-9.714,3.42-14.391,5.93c-4.69,2.49-9.209,5.499-13.489,8.897c-1.014,0.845-2.192,1.772-3.183,2.66
				c-1.035,0.884-2.057,1.813-3.077,2.761c-2.023,1.902-4.014,3.863-5.908,5.93c-3.814,4.109-7.362,8.53-10.56,13.204
				c-3.196,4.671-6.056,9.602-8.331,14.748c-2.247,5.119-4.025,10.552-4.254,15.8c-0.03,1.298,0.029,2.571,0.242,3.765
				c0.141,0.576,0.244,1.176,0.464,1.694l0.143,0.402l0.035,0.101c-0.08-0.169,0.011,0.023,0.009,0.017l0.117,0.243l0.468,0.973
				l0.234,0.486l0.231,0.375l0.45,0.742c0.321,0.485,0.705,0.98,1.077,1.435c0.782,0.89,1.671,1.614,2.643,2.199
				c1.987,1.105,4.379,1.527,7.046,1.543c2.818-0.005,5.622-0.011,8.41-0.016c5.604,0,11.141,0,16.586,0c10.891,0,21.419,0,31.403,0
				c4.992,0,9.848,0,14.544,0l0.771-0.004l0.753-0.055c0.523-0.049,1.052-0.112,1.576-0.194c1.049-0.16,2.083-0.374,3.083-0.644
				c1.997-0.544,3.874-1.292,5.49-2.275c1.619-0.979,2.968-2.189,3.943-3.581c0.994-1.382,1.579-2.965,1.887-4.602
				c0.149-0.822,0.213-1.662,0.22-2.503l0.003-0.078c0.002,0.043-0.001-0.208,0.006,0.078l-0.012-0.18l-0.024-0.36l-0.049-0.716
				c-0.009-0.552-0.135-0.732-0.186-1.075c-0.034-0.303-0.167-0.628-0.288-0.95c-0.062-0.158-0.103-0.328-0.176-0.477l-0.243-0.429
				c-0.082-0.141-0.147-0.292-0.235-0.427l-0.3-0.379c-0.1-0.125-0.186-0.26-0.292-0.38l-0.353-0.334
				c-1.879-1.791-4.798-2.663-7.547-3.091c-2.778-0.447-5.487-0.483-7.929-0.384c-4.905,0.173-8.798,0.811-11.434,1.225
				c-1.32,0.218-2.325,0.422-3.001,0.55c-0.664,0.135-1.006,0.205-1.006,0.205l-0.088,0.018c-0.815,0.166-1.61-0.359-1.776-1.174
				C79.659,104.613,79.891,104.044,80.326,103.704z M80.801,103.467c0,0,0.358-0.121,1.052-0.355
				c0.685-0.23,1.705-0.533,3.043-0.904c2.679-0.736,6.641-1.707,11.88-2.275c2.623-0.253,5.571-0.4,8.875-0.068
				c1.653,0.178,3.389,0.483,5.193,1.122c1.795,0.62,3.666,1.615,5.287,3.18l0.599,0.599c0.187,0.215,0.354,0.452,0.53,0.681
				l0.517,0.701c0.156,0.245,0.285,0.508,0.426,0.765l0.408,0.782c0.122,0.266,0.205,0.545,0.306,0.819
				c0.197,0.549,0.393,1.1,0.488,1.733c0.104,0.584,0.26,1.32,0.25,1.727l0.039,0.717l0.019,0.36l0.01,0.181
				c0.012,0.346,0.001,0.155,0.003,0.258l-0.004,0.103c-0.028,1.093-0.11,2.211-0.314,3.344c-0.413,2.255-1.277,4.587-2.721,6.597
				c-1.42,2.027-3.331,3.704-5.437,4.976c-2.11,1.281-4.411,2.182-6.783,2.828c-1.188,0.32-2.398,0.571-3.63,0.759
				c-0.616,0.096-1.238,0.171-1.874,0.23c-0.323,0.03-0.629,0.053-0.992,0.071l-0.327,0.008h-0.22h-0.44c-4.697,0-9.553,0-14.544,0
				c-9.984,0-20.512,0-31.403,0c-5.446,0-10.982,0-16.586,0c-2.817,0.005-5.651,0.01-8.5,0.015
				c-2.973-0.018-6.394-0.489-9.429-2.197c-1.487-0.876-2.829-1.99-3.94-3.261c-0.538-0.648-1.038-1.294-1.507-2.006l-0.664-1.105
				l-0.321-0.552l-0.234-0.486l-0.468-0.973L9.27,121.6l-0.105-0.228l-0.057-0.153l-0.225-0.614
				c-0.328-0.819-0.488-1.648-0.677-2.473c-0.295-1.65-0.369-3.277-0.314-4.869c0.139-3.179,0.784-6.206,1.627-9.129
				c0.855-2.922,1.944-5.737,3.175-8.469c2.467-5.465,5.504-10.6,8.875-15.451c3.373-4.851,7.095-9.416,11.091-13.659
				c1.985-2.134,4.07-4.158,6.189-6.121c1.064-0.973,2.139-1.937,3.255-2.876c1.119-0.982,2.163-1.78,3.31-2.717
				c4.528-3.53,9.294-6.639,14.248-9.213c4.942-2.593,10.062-4.673,15.275-6.128c5.207-1.448,10.541-2.276,15.836-1.991
				c2.641,0.149,5.274,0.586,7.786,1.456c2.506,0.865,4.885,2.191,6.852,3.979c0.501,0.444,0.98,0.992,1.456,1.489l0.539,0.686
				l0.268,0.342l0.134,0.17c0.143,0.19,0.078,0.112,0.126,0.181l0.066,0.103c0.723,1.085,1.354,2.216,1.821,3.39
				c0.963,2.341,1.434,4.761,1.604,7.101c0.327,4.703-0.492,9.079-1.625,13.048c-1.187,3.962-2.714,7.564-4.423,10.786
				c-3.461,6.428-7.385,11.455-10.932,15.255c-3.554,3.812-6.696,6.42-8.919,8.128c-1.119,0.874-1.97,1.471-2.544,1.872
				c-0.574,0.407-0.871,0.616-0.871,0.616L80.801,103.467z"/>
		</g>
		<path style="fill:#FFFFFF;stroke:#000000;stroke-width:4;stroke-linecap:round;stroke-linejoin:round;stroke-miterlimit:10;" d="
			M31.971,30.157c8.442,10.18,23.09,20.608,23.09,20.608"/>
		<path style="fill:#FFFFFF;stroke:#000000;stroke-width:4;stroke-linecap:round;stroke-linejoin:round;stroke-miterlimit:10;" d="
			M20.432,44.407c7.169,8.645,19.608,17.5,19.608,17.5"/>
	</g>
</g>
<g id="Layer_1">
</g>
</svg>
