<?xml version="1.0" encoding="iso-8859-1"?>
<!-- Generator: Adobe Illustrator 19.2.0, SVG Export Plug-In . SVG Version: 6.00 Build 0)  -->
<!DOCTYPE svg PUBLIC "-//W3C//DTD SVG 1.1//EN" "http://www.w3.org/Graphics/SVG/1.1/DTD/svg11.dtd">
<svg version="1.1" xmlns="http://www.w3.org/2000/svg" xmlns:xlink="http://www.w3.org/1999/xlink" x="0px" y="0px"
	 viewBox="0 0 140 140" style="enable-background:new 0 0 140 140;" xml:space="preserve">
<g id="kon">
	<g id="kon_3_">
		<g>
			<path style="fill:#FFFFFF;" d="M32.41,79.289c0,0,4.499-7.624,14.124-7.624c11.626,0,16.001,8.46,33.001,8.46
				c12.625,0,30.125-4.962,30.125-17.55c0-8.753-6.331-13.579-15.897-12.016c-9.406,1.537-16.728,12.229-33.728,6.729
				c-12.275-3.971-21.446-15.75-30.102-15.75c-10.782,0-19.523,7.136-19.523,17.918v22.684c0,10.782,8.741,19.523,19.523,19.523
				c6.977,0,18.102-2.875,18.102-11.875c12.875,8.125,24.5,11.875,44.125,11.875c24.125,0,38.25-13.431,38.25-30v-1.001
				c0.333-21.333-11.667-35.333-30-32.001S78.16,49.664,46.285,49.664"/>
			<path d="M31.124,78.517c0.93-1.521,1.976-2.692,3.192-3.829c1.21-1.111,2.568-2.078,4.047-2.842
				c2.935-1.531,6.436-2.184,9.62-1.976c3.331,0.136,6.503,1.084,9.386,2.294c2.886,1.204,5.534,2.543,8.248,3.532
				c2.707,1.005,5.475,1.695,8.317,2.072c2.825,0.358,5.777,0.43,8.643,0.238c2.894-0.191,5.785-0.608,8.592-1.289
				c2.806-0.667,5.554-1.574,8.056-2.849c2.494-1.267,4.768-2.91,6.322-4.988c0.775-1.036,1.36-2.172,1.712-3.379
				c0.173-0.605,0.287-1.226,0.358-1.857c0.045-0.641,0.075-1.251,0.028-1.988c-0.131-2.583-1.055-5.12-2.829-6.777
				c-1.757-1.696-4.308-2.527-6.981-2.615c-1.326-0.044-2.74,0.066-4.046,0.316L93.24,52.69l-0.447,0.117
				c-0.287,0.063-0.633,0.189-0.949,0.28c-0.646,0.221-1.293,0.464-1.942,0.751c-2.598,1.126-5.217,2.676-8.057,4.008
				c-2.831,1.339-5.941,2.437-9.197,2.865c-3.251,0.442-6.566,0.236-9.712-0.427c-1.564-0.343-3.133-0.764-4.601-1.288
				c-1.56-0.554-3.011-1.194-4.43-1.904c-2.833-1.421-5.463-3.103-7.996-4.817c-2.532-1.712-4.969-3.482-7.425-5.026
				c-2.44-1.532-4.967-2.867-7.339-3.223c-1.072-0.156-2.549-0.064-3.845,0.096c-1.338,0.179-2.648,0.492-3.903,0.932
				c-2.512,0.876-4.779,2.319-6.547,4.19c-1.768,1.874-2.997,4.197-3.561,6.721c-0.298,1.284-0.384,2.516-0.379,3.949v4.524
				l0.009,18.033c0.041,5.313,2.797,10.413,7.095,13.458c2.126,1.544,4.607,2.579,7.2,3.006c2.545,0.411,5.388,0.251,8.107-0.249
				c2.701-0.523,5.343-1.439,7.375-2.91c2.037-1.474,3.262-3.502,3.339-5.984l0-0.003l0.001-0.033
				c0.035-1.113,0.966-1.988,2.079-1.953c0.359,0.011,0.701,0.121,0.988,0.294c3.644,2.224,7.393,4.214,11.278,5.825
				c3.873,1.64,7.905,2.834,12.025,3.671c4.122,0.834,8.336,1.291,12.584,1.494c2.126,0.091,4.257,0.142,6.395,0.134
				c0.967,0.016,2.156-0.032,3.187-0.064c1.017-0.06,2.034-0.116,3.074-0.233c4.131-0.422,8.197-1.284,12-2.76
				c3.799-1.464,7.333-3.545,10.243-6.263c2.913-2.708,5.17-6.052,6.516-9.745c0.673-1.846,1.124-3.775,1.335-5.74
				c0.097-0.993,0.144-1.953,0.15-2.986c-0.006-1.057,0.017-2.207-0.02-3.215c-0.106-4.066-0.759-8.213-2.074-12.015
				c-1.324-3.805-3.367-7.316-6.152-10.016c-2.785-2.689-6.3-4.506-10.123-5.177c-1.911-0.331-3.883-0.412-5.864-0.273
				c-0.495,0.052-0.992,0.074-1.487,0.147l-1.445,0.217l-3.192,0.635c-3.999,0.878-8.059,2.251-12.129,3.711
				c-4.083,1.47-8.344,2.915-12.713,3.884c-4.362,1.004-8.789,1.607-13.199,1.927c-4.414,0.37-8.816,0.402-13.208,0.406
				c-1.104,0.001-2.001-0.893-2.002-1.998c-0.001-1.089,0.869-1.976,1.953-2.001l0.049-0.001c4.296-0.095,8.593-0.217,12.834-0.665
				c4.246-0.407,8.451-1.017,12.546-2.031c4.109-0.975,8.078-2.381,12.148-3.911c4.087-1.526,8.251-3.028,12.734-4.077l3.192-0.683
				c1.232-0.229,2.332-0.391,3.526-0.496c2.349-0.206,4.753-0.141,7.125,0.274c4.75,0.807,9.303,3.122,12.762,6.485
				c3.461,3.378,5.855,7.61,7.368,11.999c1.518,4.418,2.247,8.956,2.379,13.571c0.042,1.163,0.02,2.187,0.029,3.302l-0.038,1.751
				c-0.03,0.59-0.088,1.18-0.133,1.77c-0.247,2.357-0.784,4.692-1.594,6.93c-1.609,4.486-4.376,8.527-7.837,11.723
				c-3.459,3.213-7.569,5.597-11.873,7.245c-4.312,1.645-8.823,2.629-13.341,3.006c-1.121,0.11-2.275,0.162-3.428,0.211
				c-1.14,0.019-2.124,0.052-3.33,0.02c-2.208-0.026-4.421-0.112-6.635-0.242c-4.427-0.28-8.871-0.827-13.255-1.785
				c-4.378-0.963-8.706-2.304-12.803-4.137c-4.098-1.83-7.988-4.039-11.697-6.443l3.067-1.691l0,0.004
				c0.041,1.783-0.31,3.667-1.141,5.346c-0.82,1.685-2.068,3.093-3.443,4.196c-2.781,2.207-5.975,3.372-9.153,4.081
				c-1.597,0.35-3.21,0.578-4.844,0.687c-1.602,0.112-3.373,0.063-5.035-0.212c-3.363-0.533-6.609-1.851-9.368-3.851
				c-5.543-3.964-9.057-10.648-9.13-17.443L7.91,64.439v-4.524c-0.012-1.58,0.11-3.378,0.495-5.036
				c0.731-3.369,2.41-6.576,4.804-9.074c2.376-2.523,5.405-4.322,8.594-5.391c1.599-0.534,3.243-0.899,4.898-1.095
				c1.694-0.167,3.257-0.29,5.175-0.011c3.622,0.639,6.475,2.356,9.105,4.026c2.626,1.708,5.045,3.523,7.486,5.224
				c2.435,1.703,4.884,3.303,7.429,4.619c1.269,0.657,2.578,1.247,3.854,1.721c1.367,0.508,2.714,0.881,4.09,1.204
				c2.745,0.613,5.534,0.814,8.272,0.479c2.742-0.327,5.407-1.212,8.037-2.414c2.646-1.18,5.235-2.71,8.172-3.991
				c0.731-0.32,1.497-0.609,2.279-0.873c0.408-0.119,0.772-0.251,1.221-0.356l0.65-0.161l0.561-0.11
				c1.658-0.309,3.269-0.429,4.957-0.373c1.675,0.069,3.379,0.355,5.026,0.947c1.638,0.606,3.219,1.519,4.521,2.769
				c1.303,1.241,2.33,2.774,2.979,4.41c0.668,1.65,0.992,3.315,1.096,5.066c0.052,0.769,0.03,1.669-0.037,2.531
				c-0.091,0.869-0.249,1.733-0.489,2.58c-0.485,1.692-1.303,3.279-2.33,4.658c-2.069,2.776-4.842,4.728-7.695,6.201
				c-5.77,2.907-12.003,4.165-18.235,4.572c-3.153,0.191-6.258,0.11-9.418-0.295c-3.14-0.41-6.252-1.229-9.183-2.369
				c-2.943-1.121-5.671-2.546-8.339-3.695c-2.652-1.163-5.352-1.952-8.063-2.13c-2.829-0.237-5.477,0.187-7.95,1.351
				c-1.222,0.578-2.386,1.31-3.438,2.195c-1.035,0.864-2.048,1.94-2.74,2.965l-0.052,0.077c-0.463,0.686-1.395,0.866-2.081,0.403
				C30.897,80.091,30.71,79.197,31.124,78.517z"/>
		</g>
		<circle cx="78.341" cy="89.792" r="2.349"/>
		<circle cx="91.475" cy="89.415" r="2.349"/>
		<circle cx="103.609" cy="86.04" r="2.349"/>
		<circle cx="113.366" cy="78.132" r="2.349"/>
	</g>
</g>
<g id="Layer_1">
</g>
</svg>
