<?xml version="1.0" encoding="iso-8859-1"?>
<!-- Generator: Adobe Illustrator 19.2.0, SVG Export Plug-In . SVG Version: 6.00 Build 0)  -->
<!DOCTYPE svg PUBLIC "-//W3C//DTD SVG 1.1//EN" "http://www.w3.org/Graphics/SVG/1.1/DTD/svg11.dtd">
<svg version="1.1" xmlns="http://www.w3.org/2000/svg" xmlns:xlink="http://www.w3.org/1999/xlink" x="0px" y="0px"
	 viewBox="0 0 140 140" style="enable-background:new 0 0 140 140;" xml:space="preserve">
<g id="lipu">
	<g id="lipu_3_">
		<g>
			<path style="fill:#FFFFFF;" d="M58.288,67.896c0,13.22-9.125,24.938-23.938,24.938c-14.688,0-23.938-9.695-23.938-22.915
				c0-33.137,26.863-60,60-60c21.93,0,39.708,16.25,39.708,36.25s-13.893,40.67-13.893,40.67c4.185-1.586,9.89-2.985,14.788-2.985
				c10.712,0,19.396,5.815,19.396,19.067c0,16.569-11.25,26.998-33.002,26.998H40.413h-8.063c-10.528,0-19.063-7.534-19.063-18.062
				c0-4.948,0.828-9.669,3.976-13.845s6.399-7.176,6.399-7.176"/>
			<path d="M59.787,67.961l-0.05,2.135c-0.022,0.716-0.147,1.518-0.221,2.275c-0.06,0.782-0.257,1.496-0.393,2.242
				c-0.124,0.746-0.346,1.469-0.571,2.191c-0.879,2.892-2.233,5.664-4.053,8.129c-1.812,2.467-4.104,4.62-6.748,6.23
				c-2.633,1.629-5.593,2.696-8.615,3.254c-0.759,0.107-1.517,0.286-2.281,0.328l-2.293,0.135l-0.143,0.008
				c-0.063,0,0.039,0.005-0.158,0.002l-0.067-0.002l-0.267-0.008l-0.534-0.017l-1.067-0.034c-0.681,0.006-1.493-0.109-2.271-0.199
				c-3.107-0.381-6.07-1.191-8.892-2.58c-2.805-1.374-5.357-3.347-7.401-5.76c-2.051-2.411-3.55-5.266-4.472-8.255
				c-0.934-2.986-1.259-6.139-1.206-9.17l0.046-2.137l0.159-2.255c0.04-0.759,0.132-1.492,0.225-2.225
				c0.098-0.733,0.162-1.472,0.289-2.201c0.453-2.927,1.137-5.814,1.972-8.657c0.897-2.824,1.942-5.603,3.203-8.288
				c2.528-5.366,5.849-10.35,9.792-14.779c3.949-4.422,8.518-8.293,13.549-11.438c5.028-3.143,10.504-5.589,16.224-7.174
				c1.419-0.437,2.879-0.719,4.322-1.063c1.462-0.251,2.915-0.562,4.392-0.718c1.469-0.217,2.948-0.322,4.428-0.429
				c0.739-0.07,1.481-0.054,2.222-0.084l1.112-0.028l0.278-0.007l0.069-0.002l0.186,0.002l0.133,0.006l0.533,0.024l2.133,0.097
				l1.066,0.049c0.356,0.017,0.76,0.092,1.138,0.136l2.303,0.315c0.381,0.058,0.772,0.098,1.145,0.173l1.102,0.256
				c1.468,0.347,2.95,0.646,4.368,1.177l2.148,0.719c0.703,0.273,1.388,0.597,2.082,0.895c5.512,2.451,10.609,5.989,14.602,10.593
				c4,4.58,6.969,10.119,8.414,16.086c0.212,0.737,0.282,1.506,0.427,2.258c0.115,0.758,0.279,1.51,0.35,2.273l0.131,2.296
				l0.062,1.148l0.015,0.287l-0.013,0.372l-0.022,0.533c-0.079,1.44-0.054,2.791-0.28,4.359l-0.267,2.283
				c-0.096,0.757-0.258,1.467-0.384,2.203c-1.088,5.835-2.891,11.46-5.184,16.83c-2.311,5.395-4.917,10.518-8.157,15.547
				l-3.093-3.899c4.406-1.633,8.912-2.741,13.698-3.096c0.601-0.035,1.203-0.062,1.814-0.065l0.318-0.001l0.208,0.007l0.416,0.014
				l0.832,0.028c0.517-0.001,1.211,0.093,1.83,0.152c0.644,0.053,1.258,0.153,1.858,0.276c2.422,0.445,4.84,1.242,7.07,2.51
				c2.229,1.257,4.245,3.016,5.755,5.13c1.525,2.106,2.544,4.504,3.158,6.926c0.132,0.608,0.308,1.216,0.396,1.826l0.243,1.831
				c0.088,0.611,0.072,1.214,0.111,1.822l0.037,0.91l0.009,0.227l-0.009,0.327l-0.018,0.416l-0.071,1.662l-0.041,0.838l-0.119,0.93
				l-0.251,1.86c-0.072,0.627-0.26,1.195-0.387,1.795c-0.15,0.591-0.268,1.188-0.448,1.772l-0.616,1.736l-0.312,0.867
				c-0.121,0.283-0.265,0.558-0.398,0.837l-0.818,1.665c-0.284,0.549-0.653,1.053-0.979,1.58c-0.351,0.511-0.64,1.067-1.059,1.528
				c-0.797,0.951-1.545,1.951-2.482,2.765c-3.566,3.456-8.017,5.764-12.563,7.121c-4.565,1.37-9.246,1.893-13.858,1.966
				c-4.535,0.075-8.902,0.026-13.361,0.045L31.9,132.505l-1.67-0.082l-1.954-0.26c-1.248-0.243-2.451-0.524-3.637-0.954
				c-2.365-0.83-4.606-2.065-6.563-3.675c-3.929-3.191-6.628-8.003-7.163-13.047c-0.115-0.625-0.091-1.256-0.138-1.883
				c-0.01-0.317-0.04-0.623-0.031-0.948l0.013-0.84c0.03-1.232,0.115-2.393,0.273-3.608c0.314-2.404,0.955-4.853,2.046-7.135
				c0.539-1.142,1.2-2.229,1.94-3.247c0.412-0.575,0.677-0.9,1.068-1.397l1.108-1.355c1.507-1.776,3.026-3.421,4.777-5.076
				c1.003-0.949,2.585-0.904,3.534,0.099s0.904,2.585-0.099,3.534l-0.044,0.042c-1.469,1.399-2.966,3.019-4.319,4.634l-0.994,1.224
				c-0.294,0.375-0.722,0.919-0.949,1.25c-0.561,0.778-1.056,1.596-1.46,2.464c-0.817,1.73-1.318,3.624-1.572,5.617
				c-0.127,0.985-0.199,2.04-0.219,3.026l-0.009,0.824c-0.006,0.23,0.023,0.477,0.032,0.714c0.044,0.476,0.011,0.965,0.109,1.432
				c0.421,3.806,2.417,7.294,5.368,9.689c1.474,1.202,3.177,2.135,4.997,2.767c0.901,0.329,1.867,0.542,2.794,0.725l1.344,0.188
				l1.653,0.075l53.129-0.067l6.656,0.004l3.328,0.002c1.106-0.001,2.237,0.014,3.278-0.033c4.249-0.058,8.476-0.542,12.425-1.725
				c3.944-1.172,7.575-3.104,10.397-5.83c0.756-0.636,1.326-1.435,1.963-2.175c0.34-0.355,0.553-0.804,0.833-1.204
				c0.255-0.417,0.556-0.805,0.778-1.242l0.648-1.323c0.106-0.221,0.225-0.437,0.322-0.663l0.247-0.7l0.503-1.398
				c0.147-0.474,0.239-0.97,0.364-1.454c0.101-0.485,0.273-0.976,0.32-1.454l0.199-1.437l0.106-0.718
				c0.022-0.262,0.027-0.55,0.042-0.823l0.073-1.662l0.018-0.416l0.005-0.104l0.002-0.052c0.002-0.043-0.004,0.187-0.003,0.068
				l-0.008-0.188l-0.032-0.753c-0.034-0.498-0.011-1.011-0.087-1.498l-0.192-1.469c-0.067-0.488-0.212-0.948-0.309-1.424
				c-0.913-3.756-3.1-6.958-6.408-8.779c-1.63-0.93-3.479-1.554-5.414-1.912c-0.487-0.103-0.967-0.182-1.431-0.217
				c-0.485-0.044-0.89-0.128-1.484-0.131l-0.831-0.029l-0.416-0.015l-0.208-0.007c-0.038-0.001,0.14,0.002,0.043,0.001l-0.047,0.001
				l-0.094,0.002c-0.499,0.002-1.005,0.025-1.512,0.052c-4.071,0.287-8.278,1.299-12.184,2.75c-1.355,0.503-2.862-0.187-3.365-1.542
				c-0.298-0.803-0.177-1.658,0.252-2.327l0.02-0.03c1.449-2.225,2.862-4.694,4.142-7.137c1.274-2.467,2.488-4.969,3.562-7.524
				c2.186-5.093,3.874-10.382,4.881-15.739c0.115-0.667,0.272-1.347,0.354-2.002l0.233-1.958c0.207-1.251,0.196-2.757,0.274-4.158
				l0.023-0.533l0.006-0.133l0.003-0.067c0,0.025,0.004-0.149,0.001,0.038l-0.014-0.246l-0.056-0.984l-0.105-1.968
				c-0.059-0.653-0.206-1.296-0.302-1.945c-0.126-0.643-0.173-1.304-0.359-1.935c-1.235-5.108-3.776-9.886-7.252-13.884
				c-3.467-4.019-7.95-7.138-12.814-9.309c-0.613-0.263-1.216-0.554-1.837-0.797l-1.902-0.635c-1.251-0.479-2.568-0.736-3.869-1.049
				l-0.976-0.232c-0.324-0.065-0.644-0.094-0.965-0.143l-1.926-0.275c-0.328-0.04-0.625-0.11-0.98-0.127l-1.066-0.05l-2.133-0.1
				l-0.533-0.025l-0.133-0.006c-0.048-0.002,0.179,0.005,0.053,0.003l-0.064,0.002l-0.256,0.007l-1.023,0.026
				c-0.681,0.028-1.365,0.008-2.044,0.074c-1.36,0.099-2.721,0.19-4.07,0.39c-1.358,0.138-2.691,0.428-4.036,0.653
				c-1.325,0.318-2.667,0.569-3.97,0.972c-5.255,1.447-10.289,3.688-14.916,6.572c-4.63,2.885-8.838,6.441-12.478,10.505
				c-1.834,2.022-3.47,4.213-5.005,6.467c-1.518,2.268-2.845,4.657-4.057,7.101c-1.183,2.46-2.168,5.01-3.021,7.604
				c-0.791,2.613-1.449,5.268-1.893,7.966c-0.125,0.672-0.188,1.353-0.285,2.03c-0.093,0.679-0.185,1.357-0.225,2.02l-0.165,2.003
				l-0.066,2.132c-0.066,2.653,0.184,5.23,0.925,7.694c1.438,4.918,4.83,9.136,9.424,11.481c2.265,1.184,4.856,1.939,7.384,2.302
				c0.634,0.086,1.229,0.207,1.975,0.218l1.066,0.055l0.533,0.028l0.267,0.014l0.067,0.003c-0.153-0.004-0.007-0.003-0.025-0.004
				l0.123-0.005l1.971-0.077c0.659-0.018,1.297-0.168,1.948-0.242c5.148-0.818,9.986-3.492,13.205-7.689
				c1.625-2.069,2.882-4.444,3.734-6.969c0.219-0.63,0.432-1.263,0.567-1.92c0.143-0.648,0.356-1.306,0.422-1.946
				c0.085-0.657,0.226-1.259,0.276-1.964l0.134-2.131c0.052-0.827,0.764-1.455,1.591-1.403
				C59.187,66.478,59.805,67.16,59.787,67.961z"/>
		</g>
		<g>
			<path d="M58.419,129.493c0,0,0.044-0.537,0.126-1.543c0.02-0.252,0.043-0.533,0.069-0.842c0.042-0.327,0.125-0.72,0.197-1.124
				c0.078-0.409,0.161-0.848,0.25-1.317c0.09-0.47,0.184-0.977,0.322-1.433c0.265-0.946,0.526-2.015,0.873-3.139
				c0.37-1.108,0.741-2.325,1.194-3.589c0.913-2.524,1.997-5.339,3.291-8.343c1.262-3.022,2.763-6.219,4.366-9.59
				c1.622-3.361,3.389-6.871,5.282-10.473c1.996-3.665,3.757-7.097,5.147-10.978c0.657-1.918,1.297-3.867,1.678-5.849
				c0.249-0.987,0.338-1.983,0.504-2.976c0.059-0.989,0.201-1.99,0.152-2.968c0.032-0.991-0.095-1.95-0.186-2.915
				c-0.188-0.937-0.339-1.888-0.666-2.771c-0.599-1.779-1.462-3.451-2.688-4.845c-0.279-0.368-0.646-0.666-0.961-1.005l-0.244-0.248
				l-0.122-0.124l-0.061-0.062c-0.097-0.083,0.099,0.078,0.064,0.05l-0.039-0.031l-0.62-0.489c-0.409-0.313-0.832-0.678-1.226-0.945
				l-1.134-0.682c-0.354-0.245-0.776-0.445-1.208-0.634l-1.266-0.591c-0.886-0.279-1.749-0.63-2.643-0.833
				c-3.574-0.864-7.23-0.741-10.506,0.147c-0.407,0.123-0.812,0.246-1.214,0.367c-0.401,0.124-0.81,0.218-1.181,0.415
				c-0.76,0.342-1.508,0.679-2.244,1.01c-0.709,0.391-1.377,0.838-2.051,1.239c-0.331,0.211-0.676,0.395-0.989,0.622
				c-0.303,0.243-0.604,0.483-0.901,0.721c-0.597,0.475-1.181,0.939-1.753,1.393c-0.52,0.52-1.029,1.028-1.524,1.524
				c-0.488,0.504-0.994,0.966-1.433,1.467c-0.419,0.523-0.825,1.031-1.22,1.523c-0.395,0.492-0.778,0.968-1.148,1.428
				c-0.379,0.452-0.653,0.963-0.97,1.411c-0.609,0.918-1.169,1.76-1.674,2.522c-0.941,1.572-1.583,2.874-2.069,3.731
				c-0.471,0.867-0.723,1.33-0.723,1.33l-0.059,0.108c-0.395,0.727-1.305,0.996-2.031,0.6c-0.709-0.386-0.981-1.264-0.627-1.981
				c0,0,0.245-0.494,0.703-1.419c0.475-0.918,1.098-2.301,2.031-3.996c0.507-0.828,1.068-1.746,1.679-2.744
				c0.319-0.492,0.594-1.039,0.994-1.536c0.387-0.506,0.788-1.029,1.202-1.57c0.415-0.541,0.844-1.099,1.286-1.674
				c0.466-0.556,1.008-1.082,1.532-1.646c0.534-0.556,1.072-1.137,1.645-1.711c0.627-0.523,1.268-1.059,1.922-1.606
				c0.329-0.273,0.66-0.548,0.996-0.827c0.348-0.263,0.734-0.487,1.105-0.735c0.756-0.478,1.508-0.997,2.313-1.462
				c0.843-0.403,1.701-0.813,2.572-1.229c0.426-0.23,0.901-0.36,1.367-0.517c0.469-0.153,0.941-0.307,1.416-0.462
				c3.829-1.136,8.21-1.394,12.505-0.385c1.074,0.235,2.12,0.631,3.186,0.968c0.512,0.23,1.026,0.46,1.542,0.691
				c0.515,0.223,1.032,0.462,1.546,0.794l1.542,0.935c0.47,0.318,0.845,0.638,1.273,0.959l0.625,0.481l0.039,0.03
				c-0.008-0.009,0.211,0.176,0.137,0.116l0.079,0.077l0.159,0.155l0.317,0.31c0.412,0.425,0.868,0.808,1.242,1.276
				c3.183,3.612,4.745,8.585,4.708,13.232c0.062,1.178-0.077,2.323-0.14,3.48c-0.168,1.131-0.27,2.284-0.53,3.385
				c-0.409,2.239-1.081,4.373-1.774,6.471c-1.411,4.135-3.44,8.172-5.268,11.616c-1.824,3.571-3.528,7.056-5.086,10.381
				c-1.538,3.333-2.973,6.493-4.19,9.439c-1.245,2.939-2.274,5.661-3.133,8.078c-0.425,1.209-0.762,2.347-1.107,3.395
				c-0.317,1.049-0.543,2.011-0.783,2.88c-0.133,0.448-0.192,0.82-0.258,1.175c-0.069,0.356-0.134,0.689-0.194,0.999
				c-0.058,0.316-0.129,0.584-0.167,0.872c-0.023,0.309-0.045,0.59-0.064,0.842c-0.076,1.007-0.117,1.544-0.117,1.544l-0.003,0.04
				c-0.104,1.377-1.304,2.409-2.681,2.305s-2.409-1.304-2.305-2.681L58.419,129.493z"/>
		</g>
		<circle cx="29.166" cy="53.668" r="3.099"/>
		<circle cx="40.663" cy="39.041" r="3.099"/>
		<circle cx="58.163" cy="31.417" r="3.099"/>
	</g>
</g>
<g id="Layer_1">
</g>
</svg>
