<?xml version="1.0" encoding="iso-8859-1"?>
<!-- Generator: Adobe Illustrator 19.2.0, SVG Export Plug-In . SVG Version: 6.00 Build 0)  -->
<!DOCTYPE svg PUBLIC "-//W3C//DTD SVG 1.1//EN" "http://www.w3.org/Graphics/SVG/1.1/DTD/svg11.dtd">
<svg version="1.1" xmlns="http://www.w3.org/2000/svg" xmlns:xlink="http://www.w3.org/1999/xlink" x="0px" y="0px"
	 viewBox="0 0 125 125" style="enable-background:new 0 0 125 125;" xml:space="preserve">
<g id="pilin">
	<g id="pilin_1_">
		<circle style="fill:#FFFFFF;stroke:#000000;stroke-width:5;stroke-miterlimit:10;" cx="62.5" cy="62.5" r="60"/>
		<g>
			<ellipse style="fill:#FFFFFF;" cx="62.5" cy="90.5" rx="35.322" ry="32"/>
			<path d="M100.069,90.626l-0.219,3.302c-0.206,1.208-0.401,2.429-0.644,3.62c-0.34,1.134-0.64,2.282-1.024,3.398
				c-0.464,1.086-0.867,2.201-1.392,3.255c-0.579,1.025-1.08,2.099-1.732,3.076l-0.994,1.455c-0.331,0.485-0.653,0.977-1.047,1.412
				l-1.13,1.346c-0.369,0.455-0.754,0.895-1.186,1.291l-1.252,1.226l-0.627,0.611l-0.679,0.551
				c-0.923,0.711-1.772,1.522-2.769,2.127c-0.982,0.622-1.903,1.345-2.95,1.854c-1.034,0.526-2.014,1.163-3.102,1.574l-1.599,0.681
				l-0.8,0.339l-0.826,0.267l-1.652,0.531c-0.549,0.184-1.1,0.356-1.669,0.465c-1.131,0.232-2.246,0.553-3.39,0.704
				c-1.145,0.137-2.286,0.325-3.433,0.413L62.5,124.25l-0.069-0.252l-2.479-0.067c-0.416-0.016-0.821-0.013-1.245-0.043
				l-1.306-0.152c-0.866-0.114-1.754-0.184-2.606-0.341l-2.531-0.541c-3.333-0.863-6.638-2.024-9.635-3.794
				c-0.782-0.383-1.495-0.883-2.222-1.361c-0.718-0.49-1.476-0.927-2.136-1.501l-2.039-1.64l-1.881-1.828
				c-2.41-2.529-4.546-5.369-6.104-8.548c-1.538-3.181-2.587-6.606-3.078-10.134l-0.186-2.66l-0.043-0.666l-0.011-0.167
				l-0.003-0.042l0.004-0.165l0.004-0.077l0.015-0.31l0.06-1.238c-0.004-1.57,0.367-3.508,0.674-5.296
				c0.806-3.479,2.194-6.8,4.02-9.852c1.828-3.062,4.23-5.725,6.86-8.085c2.637-2.378,5.71-4.196,8.879-5.724l2.424-1.061
				l2.507-0.838c0.828-0.308,1.69-0.492,2.547-0.692c0.861-0.18,1.706-0.45,2.581-0.55l2.614-0.366
				c0.87-0.139,1.753-0.114,2.629-0.177l1.317-0.061l0.329-0.015l0.082-0.004l0.194,0.004l0.155,0.007l0.619,0.03l2.476,0.12
				c0.844,0.059,1.781,0.224,2.667,0.336l1.346,0.191c0.441,0.078,0.861,0.194,1.292,0.289c0.856,0.205,1.716,0.394,2.567,0.618
				l2.507,0.836c3.287,1.243,6.507,2.772,9.35,4.886c0.749,0.471,1.414,1.059,2.097,1.62c0.677,0.57,1.383,1.106,1.984,1.76
				c0.622,0.631,1.253,1.253,1.862,1.895l1.682,2.063c2.127,2.838,3.891,5.97,5.063,9.343c1.126,3.386,1.701,6.938,1.738,10.499
				L100.069,90.626z M95.572,90.5c-0.083-3.056-0.616-6.078-1.611-8.96c-1.042-2.869-2.596-5.533-4.459-7.956l-1.474-1.762
				l-1.638-1.616c-0.522-0.564-1.152-1.013-1.739-1.507c-0.596-0.484-1.171-0.997-1.83-1.399c-2.477-1.835-5.309-3.145-8.189-4.224
				l-2.2-0.724c-0.748-0.19-1.505-0.349-2.257-0.527c-0.376-0.081-0.754-0.187-1.127-0.25l-1.11-0.148
				c-0.754-0.089-1.446-0.232-2.25-0.287l-2.477-0.107l-0.619-0.027L62.437,61l-0.039-0.002c-0.038-0.002,0.192,0.005,0.078,0.003
				l-0.072,0.003l-0.29,0.013l-1.16,0.052c-0.771,0.055-1.552,0.019-2.316,0.144l-2.298,0.313c-0.771,0.079-1.51,0.325-2.267,0.477
				c-0.753,0.173-1.512,0.325-2.236,0.598l-2.2,0.722l-2.121,0.923c-2.769,1.329-5.465,2.894-7.75,4.952
				c-2.304,2.013-4.424,4.277-6.027,6.883c-1.602,2.598-2.833,5.415-3.571,8.375c-0.244,1.466-0.604,2.771-0.639,4.518l-0.078,1.237
				l-0.02,0.309L29.426,90.6c-0.004,0.125,0.002-0.127,0.002-0.088l0.002,0.036l0.007,0.143l0.026,0.572l0.097,2.29
				c0.352,3.038,1.178,6.015,2.443,8.823c1.285,2.805,3.105,5.351,5.186,7.655l1.632,1.672l1.789,1.512
				c0.574,0.534,1.25,0.937,1.884,1.395c0.643,0.446,1.271,0.918,1.971,1.278l2.05,1.159l2.15,0.971
				c0.705,0.355,1.464,0.574,2.204,0.846c0.748,0.246,1.474,0.571,2.25,0.73l2.299,0.584c0.766,0.171,1.53,0.254,2.296,0.389
				l1.15,0.187c0.398,0.045,0.821,0.058,1.23,0.089l2.475,0.16L62.5,120.75l3.153-0.176c1.046-0.101,2.081-0.296,3.121-0.436
				c1.039-0.154,2.044-0.473,3.067-0.698c0.515-0.105,1.011-0.273,1.504-0.45l1.486-0.509l0.743-0.253l0.715-0.322l1.431-0.641
				c0.976-0.383,1.841-0.983,2.763-1.468c0.935-0.469,1.741-1.143,2.611-1.711c0.887-0.551,1.62-1.3,2.434-1.943l0.597-0.499
				l0.544-0.555l1.089-1.107c0.378-0.355,0.709-0.752,1.025-1.161l0.974-1.204c0.344-0.387,0.614-0.827,0.895-1.258l0.847-1.29
				c0.558-0.864,0.965-1.812,1.46-2.709c0.439-0.925,0.762-1.9,1.154-2.843c0.311-0.972,0.545-1.967,0.828-2.946l0.478-2.894
				l0.156-3.299L95.572,90.5z"/>
		</g>
		<g>
			<path d="M87.055,99.043c0,0-0.038,0.552-0.109,1.588c-0.025,0.267-0.022,0.53-0.076,0.884c-0.058,0.356-0.121,0.744-0.189,1.164
				c-0.075,0.415-0.134,0.878-0.244,1.339c-0.124,0.451-0.255,0.931-0.394,1.438c-0.605,2.002-1.541,4.41-3.209,6.805
				c-1.641,2.394-3.922,4.826-6.908,6.771c-2.994,1.91-6.66,3.357-10.701,3.817c-0.502,0.075-1.015,0.063-1.528,0.098l-0.772,0.034
				l-0.388,0.017l-0.443-0.015c-0.986-0.058-1.921-0.038-3.05-0.241c-2.207-0.259-4.247-0.915-6.308-1.77
				c-2.052-0.856-3.974-2.076-5.777-3.487c-1.772-1.457-3.349-3.184-4.712-5.098c-1.33-1.94-2.364-4.097-3.131-6.361
				c-0.322-1.15-0.667-2.302-0.823-3.496c-0.103-0.592-0.212-1.185-0.231-1.786l-0.061-0.9l-0.03-0.451l-0.015-0.225l-0.007-0.113
				l-0.004-0.056c0-0.064-0.005,0.063-0.001-0.158c0.06-1.133,0.001-2.136,0.22-3.447c0.124-1.277,0.432-2.433,0.718-3.606
				c0.696-2.311,1.671-4.536,2.96-6.56c1.324-1.995,2.873-3.828,4.659-5.373c1.813-1.503,3.763-2.822,5.868-3.766
				c2.11-0.906,4.289-1.615,6.491-1.896c1.092-0.216,2.191-0.222,3.272-0.29l0.203-0.01l0.101-0.005l0.051-0.003l0.173,0.004
				l0.364,0.02l0.724,0.04c0.499,0.039,0.921,0.026,1.473,0.108c1.082,0.177,2.22,0.283,3.18,0.582
				c0.496,0.131,0.988,0.261,1.477,0.39c0.474,0.173,0.945,0.345,1.412,0.515c1.875,0.668,3.535,1.659,5.072,2.656
				c3.031,2.088,5.287,4.661,6.873,7.16c1.616,2.497,2.481,4.969,3.023,7.008c0.123,0.515,0.239,1.003,0.348,1.462
				c0.093,0.462,0.133,0.903,0.195,1.309c0.12,0.813,0.205,1.505,0.201,2.072c0.037,1.129,0.056,1.731,0.056,1.731L87.055,99.043z
				 M83.057,98.942c0,0-0.036-0.504-0.105-1.448c-0.009-0.474-0.106-1.049-0.232-1.721c-0.064-0.335-0.106-0.701-0.198-1.081
				c-0.106-0.377-0.218-0.777-0.336-1.2c-0.513-1.669-1.292-3.68-2.697-5.675c-1.379-1.995-3.292-4.024-5.789-5.642
				c-1.27-0.769-2.633-1.504-4.139-2.031c-0.375-0.134-0.753-0.269-1.135-0.405c-0.393-0.098-0.789-0.196-1.188-0.295
				c-0.812-0.249-1.561-0.272-2.351-0.424c-0.387-0.067-0.929-0.056-1.391-0.088l-0.725-0.033l-0.364-0.016
				c-0.128-0.003,0.122,0.002,0.082,0.002l-0.041,0.002l-0.081,0.004l-0.163,0.008c-0.867,0.055-1.753,0.033-2.627,0.207
				c-1.771,0.197-3.516,0.761-5.22,1.462c-1.713,0.706-3.315,1.727-4.829,2.895c-1.483,1.214-2.803,2.656-3.952,4.248
				c-1.116,1.619-1.98,3.418-2.633,5.305c-0.266,0.962-0.566,1.935-0.686,2.863c-0.218,0.865-0.224,2.09-0.318,3.164
				c0.006-0.186,0.003-0.025,0.004-0.054l0.002,0.047l0.003,0.095l0.006,0.189l0.012,0.379l0.023,0.758
				c-0.008,0.508,0.07,1.007,0.139,1.508c0.088,1.011,0.352,1.988,0.581,2.973c0.582,1.933,1.387,3.801,2.462,5.503
				c1.11,1.674,2.402,3.221,3.899,4.524c1.524,1.26,3.154,2.381,4.92,3.174c1.753,0.753,3.637,1.37,5.403,1.588
				c0.837,0.187,1.888,0.191,2.849,0.256l0.183,0.01l0.091,0.005l0.046,0.003c0.032,0.002-0.115-0.005-0.033-0.003l0.34-0.02
				l0.676-0.039c0.448-0.036,0.899-0.024,1.337-0.097c3.525-0.443,6.718-1.722,9.252-3.481c2.542-1.761,4.43-3.931,5.754-6.031
				c1.354-2.097,2.061-4.172,2.512-5.879c0.102-0.431,0.199-0.839,0.29-1.223c0.076-0.38,0.099-0.726,0.149-1.051
				c0.045-0.324,0.087-0.624,0.125-0.898c0.038-0.277,0.027-0.597,0.042-0.847c0.033-1.037,0.051-1.591,0.051-1.591L83.057,98.942z"
				/>
		</g>
		<g>
			
				<line style="fill:none;stroke:#000000;stroke-width:4;stroke-linecap:round;stroke-linejoin:round;stroke-miterlimit:10;" x1="111.005" y1="56.422" x2="102.57" y2="62.997"/>
			
				<line style="fill:none;stroke:#000000;stroke-width:4;stroke-linecap:round;stroke-linejoin:round;stroke-miterlimit:10;" x1="89.829" y1="35.26" x2="85.066" y2="45.507"/>
			
				<line style="fill:none;stroke:#000000;stroke-width:4;stroke-linecap:round;stroke-linejoin:round;stroke-miterlimit:10;" x1="62.365" y1="27.626" x2="62.366" y2="39.196"/>
			
				<line style="fill:none;stroke:#000000;stroke-width:4;stroke-linecap:round;stroke-linejoin:round;stroke-miterlimit:10;" x1="34.903" y1="35.266" x2="39.667" y2="45.511"/>
			
				<line style="fill:none;stroke:#000000;stroke-width:4;stroke-linecap:round;stroke-linejoin:round;stroke-miterlimit:10;" x1="13.73" y1="56.432" x2="22.166" y2="63.006"/>
		</g>
	</g>
</g>
<g id="Layer_1">
</g>
</svg>
