<?xml version="1.0" encoding="iso-8859-1"?>
<!-- Generator: Adobe Illustrator 19.2.0, SVG Export Plug-In . SVG Version: 6.00 Build 0)  -->
<!DOCTYPE svg PUBLIC "-//W3C//DTD SVG 1.1//EN" "http://www.w3.org/Graphics/SVG/1.1/DTD/svg11.dtd">
<svg version="1.1" xmlns="http://www.w3.org/2000/svg" xmlns:xlink="http://www.w3.org/1999/xlink" x="0px" y="0px"
	 viewBox="0 0 140 140" style="enable-background:new 0 0 140 140;" xml:space="preserve">
<g id="lape">
	<g id="lape_1_">
		<path style="fill:#FFFFFF;stroke:#000000;stroke-width:5;stroke-miterlimit:10;" d="M62.413,27.252h38c16.569,0,30,13.431,30,30
			v12.667c0,33.137-26.863,60-60,60s-60-26.863-60-60V57.252c0-13.086,8.187-24.271,20.25-28.333"/>
		<path style="fill:#FFFFFF;stroke:#000000;stroke-width:5;stroke-miterlimit:10;" d="M74.746,99.252c-24.301,0-44-19.699-44-44
			v-29.5c0-8.745,7.089-15.833,15.833-15.833s15.833,7.089,15.833,15.833v16.5c0,13.991,11.342,25.333,25.333,25.333H87.58
			c8.745,0,15.833,7.089,15.833,15.833S96.324,99.252,87.58,99.252H74.746z"/>
		<path style="fill:none;stroke:#000000;stroke-width:4.5;stroke-linecap:round;stroke-linejoin:round;stroke-miterlimit:10;" d="
			M84.08,83.294c-23.333,0-37.458-15.744-37.458-35.718v-20.99"/>
		<g>
			<path d="M62.934,97.717l-4.259,16.4c-0.278,1.069-1.37,1.711-2.439,1.433c-1.069-0.278-1.711-1.37-1.433-2.439
				c0.004-0.016,0.011-0.041,0.016-0.057l4.741-16.267c0.27-0.928,1.242-1.461,2.17-1.191C62.64,95.862,63.169,96.805,62.934,97.717
				z"/>
		</g>
		<g>
			<path d="M47.189,89.616l-9.984,11.004c-0.742,0.818-2.007,0.88-2.825,0.137s-0.88-2.007-0.137-2.825
				c0.013-0.015,0.033-0.035,0.046-0.049l10.349-10.662c0.673-0.694,1.781-0.71,2.475-0.037
				C47.791,87.843,47.819,88.92,47.189,89.616z"/>
		</g>
		<g>
			<path d="M35.139,75.678l-11.23,5.394c-0.996,0.478-2.191,0.059-2.669-0.937c-0.478-0.996-0.059-2.191,0.937-2.669
				c0.022-0.01,0.051-0.024,0.073-0.033l11.437-4.939c0.887-0.383,1.918,0.026,2.301,0.913
				C36.362,74.271,35.98,75.273,35.139,75.678z"/>
		</g>
		<g>
			<path d="M30.794,60.322l-10.803,1.581c-1.093,0.16-2.109-0.596-2.269-1.69c-0.16-1.093,0.596-2.109,1.69-2.269
				c0.028-0.004,0.063-0.008,0.091-0.011l10.864-1.085c0.962-0.096,1.82,0.606,1.916,1.568
				C32.375,59.35,31.712,60.186,30.794,60.322z"/>
		</g>
	</g>
</g>
<g id="Layer_1">
</g>
</svg>
