<?xml version="1.0" encoding="iso-8859-1"?>
<!-- Generator: Adobe Illustrator 19.2.0, SVG Export Plug-In . SVG Version: 6.00 Build 0)  -->
<!DOCTYPE svg PUBLIC "-//W3C//DTD SVG 1.1//EN" "http://www.w3.org/Graphics/SVG/1.1/DTD/svg11.dtd">
<svg version="1.1" xmlns="http://www.w3.org/2000/svg" xmlns:xlink="http://www.w3.org/1999/xlink" x="0px" y="0px"
	 viewBox="0 0 125 124.997" style="enable-background:new 0 0 125 124.997;" xml:space="preserve">
<g id="meli">
	<g id="meli_2_">
		<g>
			<path style="fill:#FFFFFF;" d="M108.275,81.611c8.873,4.329,14.225,9.934,14.225,16.055c0,13.715-26.863,24.833-60,24.833
				s-60-11.118-60-24.833c0-5.997,5.137-11.498,13.689-15.79"/>
			<path d="M109.184,79.83c0,0,0.163,0.074,0.48,0.218c0.321,0.151,0.778,0.339,1.407,0.655c1.29,0.657,3.127,1.583,5.317,3.147
				c1.096,0.775,2.277,1.714,3.47,2.89c1.191,1.172,2.387,2.607,3.376,4.411c0.982,1.794,1.715,4.023,1.764,6.462
				c-0.001,0.087,0.007-0.114-0.002,0.209l-0.003,0.046l-0.005,0.092l-0.011,0.184l-0.022,0.37
				c-0.025,0.272-0.006,0.442-0.068,0.803c-0.116,0.647-0.203,1.402-0.405,1.963c-0.174,0.604-0.366,1.208-0.634,1.777
				c-0.232,0.593-0.535,1.141-0.848,1.69c-1.262,2.192-2.982,4.078-4.91,5.711c-1.931,1.639-4.074,3.055-6.345,4.317
				c-4.553,2.506-9.612,4.406-14.926,5.921c-10.655,2.95-22.351,4.292-34.014,4.302c-1.507-0.011-2.862-0.003-4.355-0.052
				c-1.474-0.033-2.934-0.093-4.382-0.177c-2.903-0.168-5.792-0.398-8.65-0.75c-5.716-0.673-11.311-1.719-16.642-3.163
				c-5.323-1.47-10.394-3.325-14.963-5.786c-4.534-2.464-8.714-5.499-11.454-9.72c-1.357-2.093-2.202-4.57-2.322-6.997l-0.025-0.453
				L0,97.673l0.015-0.316l0.047-0.719c0.002-0.201,0.067-0.574,0.113-0.874c0.052-0.309,0.099-0.635,0.166-0.922
				c0.279-1.099,0.635-2.14,1.106-3.06c1.874-3.722,4.518-5.941,6.65-7.55c2.168-1.604,4.008-2.569,5.255-3.216
				c1.256-0.628,1.939-0.926,1.939-0.926l1.794,3.575c0,0-0.592,0.35-1.703,1.006c-1.098,0.664-2.675,1.695-4.488,3.152
				c-0.888,0.742-1.847,1.591-2.717,2.611c-0.882,1.005-1.729,2.151-2.323,3.447c-1.238,2.573-1.218,5.725,0.742,8.776
				c1.965,3.051,5.505,5.762,9.609,7.946c4.121,2.211,8.882,3.935,13.919,5.325c5.045,1.384,10.401,2.408,15.897,3.072
				c2.746,0.348,5.532,0.579,8.332,0.75c1.405,0.086,2.803,0.148,4.195,0.184c1.37,0.052,2.884,0.052,4.245,0.064
				c5.639-0.027,11.274-0.371,16.767-1.067c5.492-0.696,10.839-1.744,15.876-3.155c5.024-1.424,9.763-3.193,13.86-5.436
				c4.056-2.235,7.574-5,9.357-8.11c0.221-0.385,0.439-0.766,0.586-1.158c0.19-0.383,0.306-0.773,0.42-1.158
				c0.156-0.41,0.139-0.683,0.238-1.016c0.024-0.063,0.033-0.183,0.039-0.315l0.023-0.373l0.037-0.576
				c-0.003-1.493-0.406-2.913-1.065-4.194c-0.654-1.286-1.559-2.407-2.473-3.397c-0.915-0.994-1.874-1.842-2.795-2.559
				c-1.842-1.429-3.454-2.443-4.521-3.075c-1.16-0.662-1.778-1.015-1.778-1.015L109.184,79.83z"/>
		</g>
		<ellipse style="fill:#FFFFFF;stroke:#000000;stroke-width:5;stroke-miterlimit:10;" cx="62.5" cy="50.833" rx="60" ry="48.333"/>
		<g>
			<path d="M25.769,69.278c2.823-4.211,5.711-8.377,8.588-12.55c2.865-4.182,5.767-8.338,8.682-12.485l8.724-12.456l8.767-12.426
				l0.005-0.007c0.639-0.905,1.89-1.121,2.795-0.483c0.193,0.136,0.359,0.307,0.488,0.49l34.846,49.857
				c0.71,1.016,0.462,2.416-0.554,3.127c-0.393,0.275-0.844,0.406-1.29,0.405l-0.005,0l-69.282-0.105
				c-1.186-0.002-2.145-0.964-2.143-2.15c0.001-0.442,0.135-0.852,0.364-1.193L25.769,69.278z M31.661,68.349l65.153-0.099
				l-1.849,3.531L60.529,21.639h3.288l-8.554,12.574l-8.596,12.544c-2.859,4.186-5.73,8.363-8.639,12.515
				C35.916,62.305,33.791,65.328,31.661,68.349z"/>
		</g>
	</g>
</g>
<g id="Layer_1">
</g>
</svg>
