<?xml version="1.0" encoding="iso-8859-1"?>
<!-- Generator: Adobe Illustrator 19.2.0, SVG Export Plug-In . SVG Version: 6.00 Build 0)  -->
<!DOCTYPE svg PUBLIC "-//W3C//DTD SVG 1.1//EN" "http://www.w3.org/Graphics/SVG/1.1/DTD/svg11.dtd">
<svg version="1.1" xmlns="http://www.w3.org/2000/svg" xmlns:xlink="http://www.w3.org/1999/xlink" x="0px" y="0px"
	 viewBox="0 0 140 140" style="enable-background:new 0 0 140 140;" xml:space="preserve">
<g id="luka">
	<g id="luka_3_">
		<g>
			<g>
				<path style="fill:#FFFFFF;" d="M80.615,24.585c0-8.284,11.17-15,24.949-15c20.75,0,24.949,6.716,24.949,15s-11.17,15-24.949,15
					c13.779,0,24.949,3.5,24.949,15c0,11.667-11.17,15-24.949,15c13.779,0,24.949,3.5,24.949,15c0,12.333-11.17,15-24.949,15
					c13.779,0,24.949,6.716,24.949,15s-5.032,15-24.949,15c-13.779,0-24.949-6.716-24.949-15"/>
				<path d="M79.116,24.522l0.009-0.757l0.09-0.938c0.089-0.587,0.214-1.158,0.382-1.721c0.34-1.122,0.861-2.172,1.483-3.129
					c1.256-1.912,2.888-3.484,4.666-4.754c1.778-1.279,3.699-2.306,5.693-3.099c1.99-0.81,4.048-1.398,6.129-1.841
					c2.083-0.438,4.196-0.696,6.315-0.815c1.052-0.06,2.146-0.069,3.131-0.07c1.008,0.003,2.097,0.011,3.124,0.059
					c2.08,0.093,4.172,0.276,6.275,0.609c2.101,0.343,4.219,0.809,6.314,1.604c2.082,0.79,4.185,1.898,5.963,3.594
					c1.785,1.677,3.089,3.964,3.689,6.279c0.313,1.157,0.485,2.316,0.569,3.45l0.047,0.846l0.01,0.419l0.005,0.21l0.002,0.105
					l-0.005,0.201c-0.013,0.264-0.013,0.477-0.038,0.783c-0.038,0.349-0.077,0.715-0.133,1.049
					c-0.436,2.542-1.705,4.788-3.255,6.553c-1.565,1.778-3.404,3.157-5.327,4.274c-1.938,1.099-3.971,1.925-6.035,2.574
					c-2.069,0.627-4.172,1.097-6.294,1.331c-2.119,0.244-4.246,0.344-6.36,0.246l-0.001,0v-4c2.803-0.104,5.63-0.029,8.482,0.274
					c2.845,0.339,5.722,0.908,8.545,2.015c1.409,0.554,2.801,1.258,4.1,2.18c1.299,0.914,2.515,2.042,3.491,3.388
					c0.982,1.337,1.723,2.863,2.18,4.435c0.112,0.393,0.199,0.789,0.296,1.185l0.199,1.19l0.115,1.186l0.039,1.25l-0.037,1.025
					l-0.119,1.256l-0.199,1.189c-0.096,0.395-0.182,0.791-0.293,1.183c-0.452,1.57-1.186,3.099-2.166,4.44
					c-0.973,1.35-2.19,2.485-3.493,3.398c-1.302,0.923-2.699,1.624-4.111,2.173c-2.83,1.097-5.71,1.651-8.554,1.978
					c-2.851,0.292-5.675,0.359-8.475,0.256l0,0v-4c2.812-0.104,5.648-0.029,8.509,0.276c2.853,0.342,5.74,0.916,8.572,2.033
					c1.413,0.559,2.808,1.271,4.108,2.202c1.303,0.919,2.513,2.067,3.484,3.421c0.978,1.347,1.711,2.883,2.158,4.462
					c0.441,1.607,0.62,3.134,0.613,4.807l-0.037,1.034l-0.114,1.243l-0.188,1.181l-0.273,1.179
					c-0.425,1.567-1.123,3.114-2.087,4.483c-0.959,1.371-2.168,2.555-3.491,3.476c-1.318,0.935-2.738,1.629-4.167,2.165
					c-2.866,1.067-5.763,1.563-8.612,1.85c-2.857,0.25-5.677,0.291-8.473,0.187l0-4l0.001,0c2.11-0.098,4.233,0.002,6.348,0.245
					c2.119,0.232,4.217,0.701,6.283,1.325c4.101,1.288,8.189,3.281,11.351,6.817c1.555,1.755,2.823,3.993,3.275,6.525
					c0.11,0.629,0.173,1.268,0.184,1.909l0.004,0.12l0,0.157l-0.005,0.189l-0.011,0.378c-0.004,0.239-0.033,0.588-0.051,0.876
					c-0.094,1.169-0.288,2.321-0.628,3.479c-0.659,2.31-1.995,4.534-3.767,6.179c-1.766,1.653-3.829,2.808-5.903,3.604
					c-2.08,0.817-4.193,1.316-6.291,1.672c-2.1,0.352-4.193,0.548-6.273,0.648c-1.041,0.051-2.078,0.061-3.113,0.065l-1.58-0.012
					c-0.516-0.021-0.978-0.02-1.538-0.06c-2.161-0.124-4.237-0.38-6.326-0.822c-2.078-0.443-4.131-1.034-6.117-1.844
					c-1.99-0.793-3.906-1.821-5.68-3.1c-1.774-1.27-3.402-2.839-4.654-4.75c-1.255-1.895-2.032-4.242-1.959-6.597h3
					c0.056,1.691,0.706,3.306,1.727,4.721c1.029,1.414,2.399,2.639,3.949,3.635c1.542,1.009,3.252,1.805,5.02,2.455
					c1.769,0.654,3.619,1.121,5.492,1.455c1.865,0.334,3.807,0.502,5.669,0.548c0.446,0.02,0.991,0.004,1.482,0.008l1.441-0.037
					c0.979-0.035,1.956-0.076,2.925-0.156c3.863-0.272,7.731-0.838,11.073-2.204c1.67-0.67,3.156-1.58,4.316-2.703
					c1.158-1.127,1.946-2.492,2.373-4.062c0.215-0.779,0.344-1.625,0.396-2.465c0.007-0.215,0.027-0.367,0.027-0.632l0.004-0.378
					l0.002-0.189l0.001-0.047c-0.002,0.087-0.002,0.005-0.003,0.015l-0.004-0.069c-0.007-0.367-0.045-0.731-0.108-1.094
					c-0.259-1.449-1.023-2.864-2.128-4.118c-1.09-1.266-2.493-2.373-4.044-3.295c-1.539-0.947-3.237-1.711-4.997-2.333
					c-1.77-0.606-3.605-1.064-5.472-1.416c-1.87-0.343-3.775-0.533-5.693-0.64l-0.001,0c-1.103,0.025-2.018-0.85-2.042-1.953
					c-0.024-1.088,0.825-1.992,1.906-2.041l0.136-0.006c2.689-0.12,5.363-0.258,7.958-0.644c2.591-0.353,5.132-0.895,7.384-1.828
					c2.24-0.941,4.185-2.222,5.372-4.007c0.605-0.883,1.048-1.875,1.331-2.957l0.182-0.827l0.126-0.853l0.07-0.806l0.026-1.022
					c0.01-1.068-0.107-2.294-0.392-3.335c-0.291-1.063-0.75-2.042-1.372-2.924c-1.222-1.785-3.206-3.088-5.433-4.082
					c-2.246-0.981-4.767-1.588-7.342-1.988c-2.577-0.436-5.236-0.604-7.909-0.727l-0.091-0.004c-1.103-0.05-1.956-0.985-1.906-2.088
					c0.049-1.071,0.936-1.906,1.997-1.908h0c2.668-0.121,5.321-0.283,7.894-0.707c2.571-0.389,5.089-0.977,7.333-1.941
					c2.226-0.976,4.202-2.266,5.428-4.035c0.621-0.876,1.081-1.851,1.376-2.912l0.191-0.81l0.13-0.836l0.071-0.787l0.025-1.025
					l-0.021-0.8l-0.073-0.856l-0.129-0.834l-0.192-0.807c-0.297-1.057-0.76-2.029-1.384-2.906c-1.236-1.768-3.215-3.065-5.44-4.05
					c-2.243-0.974-4.757-1.575-7.324-1.973c-2.57-0.433-5.22-0.601-7.884-0.723l-0.136-0.006c-1.102-0.05-1.955-0.985-1.905-2.087
					c0.05-1.086,0.96-1.93,2.041-1.907l0.001,0c1.922-0.107,3.83-0.298,5.703-0.642c1.87-0.354,3.709-0.812,5.481-1.421
					c1.764-0.624,3.462-1.392,5.003-2.341c1.551-0.926,2.956-2.035,4.042-3.308c1.1-1.259,1.865-2.676,2.113-4.13l0.067-0.451
					c0.02-0.195,0.024-0.488,0.037-0.728l-0.003-0.579l-0.025-0.665c-0.049-0.879-0.164-1.727-0.364-2.522
					c-0.395-1.596-1.151-2.954-2.282-4.075c-1.129-1.123-2.64-1.994-4.309-2.658c-1.669-0.67-3.505-1.117-5.377-1.455
					c-1.878-0.333-3.809-0.535-5.758-0.66c-0.987-0.078-1.916-0.114-2.925-0.15c-1.032-0.031-1.957-0.054-2.921-0.032
					c-1.913,0.044-3.824,0.212-5.704,0.542c-1.877,0.334-3.731,0.798-5.504,1.452c-1.772,0.649-3.486,1.445-5.032,2.454
					c-1.554,0.996-2.928,2.223-3.961,3.638c-0.513,0.709-0.929,1.468-1.23,2.26c-0.145,0.397-0.261,0.805-0.351,1.213l-0.098,0.564
					l-0.055,0.755L79.116,24.522z"/>
			</g>
		</g>
		<path style="fill:#FFFFFF;stroke:#000000;stroke-width:5;stroke-miterlimit:10;" d="M105.564,99.585c0,16.569-13.431,30-30,30
			H42.315c-16.569,0-30-13.431-30-30l-2.001-60c0-16.569,13.431-30,30-30h35.25c16.569,0,30,13.431,30,30V99.585z"/>
		<path style="fill:none;stroke:#000000;stroke-width:4;stroke-miterlimit:10;" d="M10.314,47.086c18.5,2.749,33.875,0,42.5,0
			s16,5.162,16,13.999s-6.639,15.489-16,16c-20.625,1.126-29.958,0.919-41.333-0.833"/>
		<path style="fill:none;stroke:#000000;stroke-width:4;stroke-linecap:round;stroke-linejoin:round;stroke-miterlimit:10;" d="
			M11.147,62.085c0,0,17.429,1.667,38.833-0.833"/>
		
			<line style="fill:none;stroke:#000000;stroke-width:3.5;stroke-linejoin:round;stroke-miterlimit:10;" x1="43.314" y1="77.582" x2="44.649" y2="130.252"/>
		
			<line style="fill:none;stroke:#000000;stroke-width:3.5;stroke-linejoin:round;stroke-miterlimit:10;" x1="41.647" y1="9.585" x2="42.567" y2="47.579"/>
	</g>
</g>
<g id="Layer_1">
</g>
</svg>
