<?xml version="1.0" encoding="iso-8859-1"?>
<!-- Generator: Adobe Illustrator 19.2.0, SVG Export Plug-In . SVG Version: 6.00 Build 0)  -->
<!DOCTYPE svg PUBLIC "-//W3C//DTD SVG 1.1//EN" "http://www.w3.org/Graphics/SVG/1.1/DTD/svg11.dtd">
<svg version="1.1" xmlns="http://www.w3.org/2000/svg" xmlns:xlink="http://www.w3.org/1999/xlink" x="0px" y="0px"
	 viewBox="0 0 140 140" style="enable-background:new 0 0 140 140;" xml:space="preserve">
<g id="soweli">
	<g id="soweli_1_">
		<g>
			<circle style="fill:#FFFFFF;" cx="31.913" cy="35.169" r="21.5"/>
			<path d="M54.983,35.248c0,0-0.034,0.527-0.097,1.514c-0.023,0.253-0.018,0.509-0.068,0.84c-0.053,0.333-0.111,0.696-0.174,1.088
				c-0.069,0.389-0.122,0.82-0.223,1.253c-0.115,0.425-0.237,0.877-0.365,1.354c-0.559,1.885-1.399,4.164-2.916,6.466
				c-1.49,2.303-3.579,4.685-6.387,6.619c-2.805,1.917-6.313,3.369-10.208,3.883c-0.484,0.081-0.979,0.079-1.474,0.121l-0.747,0.047
				l-0.375,0.023l-0.441-0.012c-0.944-0.047-1.82-0.018-2.933-0.207c-2.162-0.238-4.132-0.855-6.146-1.67
				c-1.994-0.832-3.857-2.022-5.608-3.391c-1.723-1.412-3.246-3.097-4.564-4.958c-1.285-1.887-2.283-3.982-3.019-6.18
				C8.54,39.822,8.202,37.5,8.119,35.169l0.058-1.698c-0.005-0.494,0.081-1.117,0.165-1.729c0.125-1.248,0.426-2.364,0.706-3.499
				c0.68-2.235,1.629-4.386,2.882-6.34c1.282-1.93,2.81-3.679,4.57-5.121c1.791-1.394,3.7-2.597,5.737-3.438
				c2.035-0.821,4.122-1.449,6.22-1.669c1.04-0.182,2.083-0.164,3.107-0.206l0.192-0.006l0.096-0.003l0.048-0.001l0.156,0.005
				l0.347,0.024l0.69,0.048c0.473,0.044,0.88,0.038,1.4,0.122c1.018,0.181,2.083,0.291,2.987,0.586
				c0.466,0.129,0.929,0.258,1.388,0.385c0.445,0.169,0.886,0.336,1.324,0.502c1.754,0.659,3.318,1.581,4.759,2.528
				c2.842,1.976,4.958,4.397,6.449,6.744c1.518,2.347,2.329,4.671,2.837,6.587c0.115,0.484,0.224,0.942,0.327,1.374
				c0.087,0.434,0.125,0.849,0.182,1.23c0.112,0.764,0.192,1.414,0.188,1.947c0.034,1.061,0.052,1.626,0.052,1.626L54.983,35.248z
				 M51.841,35.169c0,0-0.035-0.488-0.101-1.403c-0.009-0.459-0.103-1.016-0.225-1.668c-0.062-0.325-0.104-0.68-0.193-1.048
				c-0.102-0.365-0.211-0.753-0.326-1.163c-0.497-1.618-1.254-3.568-2.615-5.501c-1.335-1.935-3.192-3.902-5.619-5.457
				c-1.234-0.736-2.552-1.459-4.02-1.939c-0.365-0.124-0.732-0.248-1.103-0.374c-0.381-0.089-0.765-0.178-1.152-0.268
				c-0.785-0.228-1.519-0.24-2.285-0.373c-0.376-0.058-0.888-0.04-1.33-0.064l-0.691-0.022l-0.347-0.011
				c-0.114-0.003,0.106,0.002,0.069,0.003l-0.039,0.003l-0.078,0.006L31.629,15.9c-0.833,0.075-1.681,0.078-2.515,0.268
				c-1.689,0.235-3.342,0.82-4.943,1.532c-1.602,0.732-3.079,1.76-4.458,2.911c-1.356,1.188-2.562,2.56-3.637,4.049
				c-1.04,1.518-1.843,3.203-2.448,4.969c-0.246,0.9-0.525,1.813-0.632,2.666c-0.079,0.43-0.173,0.848-0.188,1.411l-0.101,1.463
				c0.017,1.888,0.224,3.777,0.733,5.597c0.549,1.802,1.304,3.543,2.311,5.128c1.04,1.559,2.25,2.995,3.643,4.213
				c1.419,1.177,2.942,2.218,4.587,2.958c1.621,0.717,3.392,1.313,5.017,1.53c0.76,0.183,1.776,0.197,2.689,0.267l0.174,0.011
				l0.087,0.006l0.043,0.003c0.035,0.002-0.144-0.005-0.05-0.003l0.318-0.012l0.634-0.023c0.42-0.026,0.844-0.004,1.256-0.065
				c3.316-0.347,6.346-1.492,8.81-3.072c2.461-1.598,4.345-3.603,5.681-5.582c1.363-1.978,2.09-3.973,2.536-5.622
				c0.101-0.417,0.197-0.812,0.287-1.183c0.075-0.369,0.101-0.708,0.152-1.025c0.046-0.317,0.088-0.61,0.126-0.878
				c0.038-0.27,0.029-0.57,0.044-0.81c0.036-0.989,0.056-1.516,0.056-1.516L51.841,35.169z"/>
		</g>
		<g>
			<circle style="fill:#FFFFFF;" cx="108.913" cy="35.169" r="21.5"/>
			<path d="M132.765,35.288c0,0-0.037,0.526-0.105,1.513c-0.024,0.256-0.021,0.501-0.073,0.847
				c-0.056,0.349-0.118,0.729-0.184,1.141c-0.074,0.407-0.132,0.861-0.239,1.31c-0.12,0.439-0.248,0.905-0.383,1.397
				c-0.588,1.944-1.499,4.283-3.119,6.608c-1.591,2.328-3.827,4.672-6.736,6.535c-2.912,1.839-6.488,3.176-10.386,3.577
				c-0.485,0.067-0.98,0.049-1.474,0.077l-0.744,0.024l-0.373,0.011l-0.173-0.005l-0.087-0.006l-0.174-0.012
				c-0.94-0.077-1.824-0.08-2.914-0.297c-2.118-0.3-4.059-0.939-6.019-1.788c-1.939-0.866-3.752-2.055-5.443-3.424
				c-1.662-1.412-3.122-3.08-4.398-4.9c-1.238-1.851-2.192-3.9-2.892-6.043c-0.66-2.161-0.969-4.42-1.032-6.684
				c0.072-1.236,0.032-2.093,0.245-3.341c0.117-1.188,0.409-2.274,0.679-3.375c0.658-2.168,1.576-4.254,2.79-6.15
				c1.245-1.87,2.705-3.582,4.375-5.037c1.694-1.418,3.519-2.665,5.491-3.563c1.97-0.878,4.011-1.575,6.084-1.868
				c1.027-0.219,2.064-0.237,3.084-0.316l0.191-0.013l0.096-0.006l0.048-0.003l0.155,0.003l0.347,0.011l0.691,0.023
				c0.475,0.027,0.881,0.004,1.403,0.071c1.023,0.148,2.102,0.227,3.02,0.491c0.474,0.115,0.944,0.228,1.411,0.341
				c0.454,0.155,0.905,0.309,1.352,0.462c1.795,0.607,3.411,1.488,4.911,2.404c2.953,1.916,5.24,4.311,6.773,6.733
				c1.584,2.4,2.451,4.785,2.986,6.76c0.122,0.499,0.238,0.971,0.347,1.416c0.093,0.447,0.136,0.875,0.198,1.269
				c0.121,0.789,0.208,1.46,0.208,2.01c0.043,1.096,0.065,1.68,0.065,1.68L132.765,35.288z M128.059,35.169
				c0,0-0.031-0.469-0.088-1.349c-0.004-0.442-0.092-0.978-0.204-1.606c-0.058-0.313-0.094-0.655-0.177-1.01
				c-0.096-0.352-0.198-0.726-0.305-1.121c-0.47-1.559-1.17-3.448-2.466-5.328c-1.292-1.861-2.98-3.853-5.296-5.468
				c-1.176-0.767-2.441-1.53-3.869-2.063c-0.355-0.137-0.713-0.275-1.074-0.415c-0.373-0.103-0.75-0.207-1.129-0.312
				c-0.772-0.258-1.491-0.301-2.252-0.468c-0.374-0.074-0.886-0.074-1.327-0.115l-0.69-0.047l-0.347-0.024
				c-0.112-0.003,0.104,0,0.068,0.001l-0.039,0.001l-0.078,0.003l-0.157,0.005c-0.835,0.038-1.691,0.004-2.538,0.157
				c-1.714,0.162-3.412,0.678-5.078,1.333c-1.667,0.674-3.227,1.658-4.704,2.786c-1.446,1.175-2.72,2.585-3.832,4.133
				c-1.079,1.575-1.914,3.325-2.541,5.158c-0.256,0.934-0.544,1.876-0.659,2.79c-0.204,0.826-0.194,2.092-0.268,2.96
				c0.036,1.955,0.273,3.908,0.819,5.782c0.585,1.857,1.384,3.643,2.439,5.265c1.081,1.599,2.356,3.052,3.809,4.27
				c1.479,1.177,3.052,2.219,4.752,2.925c1.676,0.684,3.475,1.258,5.144,1.413c0.785,0.154,1.792,0.137,2.709,0.176l0.174,0.006
				l0.087,0.003l0.043,0.001c0.033,0.002-0.132-0.005-0.043-0.004l0.32-0.024l0.637-0.046c0.422-0.041,0.845-0.034,1.257-0.11
				c3.314-0.459,6.276-1.72,8.632-3.378c2.361-1.669,4.098-3.712,5.333-5.667c1.26-1.956,1.915-3.891,2.333-5.48
				c0.095-0.402,0.185-0.782,0.269-1.14c0.07-0.353,0.089-0.668,0.136-0.968c0.042-0.298,0.08-0.573,0.116-0.825
				c0.036-0.255,0.025-0.566,0.039-0.803c0.031-0.989,0.048-1.516,0.048-1.516L128.059,35.169z"/>
		</g>
		<g>
			<circle style="fill:#FFFFFF;" cx="70.413" cy="108.419" r="21.5"/>
			<path d="M94.41,108.545c0,0-0.137,0.521-0.338,1.502c-0.059,0.254-0.095,0.499-0.19,0.839c-0.096,0.339-0.201,0.709-0.314,1.109
				c-0.113,0.394-0.218,0.827-0.363,1.257c-0.155,0.42-0.319,0.866-0.493,1.337c-0.756,1.838-1.511,4.133-3.023,6.456
				c-1.453,2.337-3.467,4.795-6.224,6.906c-2.752,2.088-6.321,3.741-10.342,4.275c-0.499,0.082-1.009,0.08-1.52,0.122l-0.769,0.046
				l-0.387,0.022c0.097,0.003-0.187-0.001-0.174-0.002l-0.043-0.003l-0.087-0.005l-0.174-0.01c-0.947-0.069-1.799-0.058-2.972-0.275
				c-0.545-0.091-1.122-0.161-1.642-0.302c-0.516-0.145-1.035-0.291-1.556-0.438c-0.526-0.129-1.025-0.35-1.531-0.551
				c-0.499-0.22-1.024-0.381-1.5-0.658c-1.985-0.942-3.791-2.27-5.452-3.745c-1.637-1.518-3.021-3.297-4.222-5.186
				c-1.154-1.926-2.042-4.004-2.678-6.161c-0.61-2.17-0.853-4.42-0.902-6.663c0.086-1.212,0.057-2.096,0.274-3.314
				c0.129-1.167,0.433-2.239,0.712-3.323c0.677-2.134,1.612-4.178,2.826-6.032c1.248-1.827,2.701-3.495,4.357-4.902
				c1.684-1.365,3.489-2.559,5.428-3.409c1.937-0.829,3.936-1.482,5.958-1.737c1.002-0.2,2.012-0.202,3.004-0.265l0.186-0.01
				l0.093-0.005l0.046-0.002l0.12,0.003l0.347,0.018l0.69,0.035c0.469,0.035,0.892,0.021,1.39,0.095
				c3.993,0.471,7.396,1.854,10.243,3.728c2.818,1.889,4.943,4.233,6.454,6.524c1.538,2.29,2.381,4.576,2.918,6.468
				c0.123,0.479,0.239,0.932,0.348,1.358c0.094,0.429,0.138,0.841,0.202,1.219c0.125,0.758,0.216,1.404,0.22,1.934
				c0.052,1.056,0.08,1.619,0.08,1.619L94.41,108.545z M90.413,108.419c0,0-0.025-0.491-0.073-1.41c0-0.462-0.083-1.024-0.192-1.682
				c-0.056-0.328-0.091-0.687-0.173-1.06c-0.096-0.37-0.197-0.763-0.304-1.179c-0.468-1.642-1.193-3.63-2.534-5.621
				c-1.315-1.992-3.164-4.034-5.615-5.677c-1.246-0.78-2.584-1.548-4.083-2.076c-0.373-0.135-0.749-0.272-1.128-0.409
				c-0.391-0.1-0.784-0.201-1.181-0.302c-0.799-0.249-1.58-0.288-2.384-0.441c-0.398-0.068-0.893-0.058-1.34-0.092l-0.69-0.035
				l-0.347-0.018c-0.082-0.002,0.063,0,0.033,0.001l-0.04,0.002l-0.081,0.004l-0.162,0.008c-0.864,0.053-1.746,0.036-2.618,0.208
				c-1.765,0.2-3.506,0.761-5.204,1.464c-1.7,0.722-3.281,1.76-4.767,2.94c-1.459,1.223-2.74,2.676-3.85,4.268
				c-1.078,1.618-1.897,3.41-2.505,5.276c-0.246,0.951-0.522,1.907-0.626,2.842c-0.199,0.856-0.178,2.095-0.239,2.987
				c0.05,1.976,0.352,3.938,0.949,5.803c0.649,1.844,1.514,3.602,2.652,5.148c1.156,1.53,2.506,2.872,3.985,3.985
				c1.51,1.071,3.09,1.973,4.743,2.604c0.396,0.197,0.836,0.28,1.246,0.426c0.419,0.121,0.818,0.298,1.246,0.368
				c0.42,0.095,0.838,0.19,1.254,0.285c0.413,0.089,0.796,0.102,1.187,0.173c0.7,0.156,1.741,0.152,2.65,0.199l0.174,0.007
				l0.087,0.004l0.043,0.002c0.043,0.002-0.213-0.007-0.087-0.004l0.307-0.013l0.612-0.024c0.405-0.026,0.814-0.004,1.211-0.064
				c3.19-0.327,6.159-1.272,8.676-2.681c2.513-1.421,4.472-3.349,5.845-5.295c1.368-1.957,2.18-3.937,2.429-5.633
				c0.056-0.423,0.109-0.823,0.159-1.2c0.031-0.372,0.004-0.708,0.012-1.021c-0.005-0.309-0.009-0.595-0.014-0.856
				c-0.007-0.261-0.056-0.572-0.077-0.811c-0.101-0.996-0.185-1.528-0.185-1.528L90.413,108.419z"/>
		</g>
		<g>
			<path style="fill:#FFFFFF;" d="M130.413,95.916c0,19.003-13.431,34.003-30,34.003c-29.667,0-30-27.44-30-36.004
				c0,8.564-0.333,36.004-30,36.004c-16.569,0-30-14.333-30-34.003V69.919c0-33.137,26.863-60,60-60s60,26.863,60,60V95.916z"/>
			<path d="M132.685,96.017l-0.133,3.246c-0.094,1.126-0.279,2.327-0.423,3.486c-0.17,1.161-0.474,2.255-0.708,3.385
				c-0.248,1.122-0.666,2.201-0.996,3.303c-0.34,1.1-0.853,2.141-1.276,3.213c-0.436,1.069-1.045,2.06-1.564,3.092
				c-0.544,1.021-1.236,1.958-1.852,2.94c-0.655,0.956-1.422,1.837-2.134,2.755c-0.769,0.873-1.604,1.691-2.408,2.535
				c-0.885,0.762-1.764,1.537-2.679,2.266c-0.973,0.654-1.904,1.376-2.922,1.964l-1.549,0.848c-0.514,0.288-1.035,0.563-1.59,0.769
				c-1.099,0.429-2.16,0.961-3.314,1.24c-1.135,0.331-2.265,0.687-3.442,0.84l-1.75,0.297c-0.586,0.075-1.179,0.083-1.768,0.125
				l-1.845,0.096l-1.623-0.056c-1.04-0.006-2.273-0.153-3.438-0.26c-1.164-0.154-2.296-0.323-3.438-0.572
				c-2.281-0.464-4.524-1.235-6.677-2.218c-4.321-1.969-8.089-5.259-10.685-9.196c-2.625-3.937-4.187-8.382-5.071-12.828
				c-0.876-4.457-1.076-8.982-0.988-13.373h4l0,0.006c0.153,7.269-0.495,14.943-3.711,21.998c-0.812,1.751-1.781,3.446-2.918,5.044
				c-1.144,1.594-2.489,3.058-3.971,4.368c-1.479,1.322-3.154,2.399-4.874,3.358c-1.749,0.901-3.566,1.667-5.435,2.2
				c-0.925,0.316-1.876,0.473-2.815,0.713c-0.944,0.182-1.894,0.325-2.841,0.472c-0.948,0.086-1.899,0.199-2.846,0.258l-1.42,0.049
				l-0.71,0.024l-0.355,0.012l-0.089,0.003l-0.22-0.007l-0.168-0.009l-2.688-0.143c-0.971-0.118-2.003-0.3-3-0.461
				c-1.948-0.428-3.813-0.949-5.618-1.73c-7.231-3.011-13.158-8.786-16.563-15.692c-1.732-3.442-2.925-7.123-3.631-10.881
				c-0.638-3.751-0.69-7.682-0.662-11.174L7.863,70.785l0-0.673l0.013-0.737l0.033-1.346l0.037-1.351L8.05,65.25
				c0.068-0.953,0.135-1.908,0.269-2.827c0.129-0.926,0.205-1.861,0.391-2.779c0.606-3.692,1.541-7.335,2.821-10.853
				c2.541-7.042,6.358-13.615,11.201-19.314c4.835-5.706,10.701-10.54,17.245-14.168c6.535-3.641,13.73-6.089,21.127-7.203
				c3.695-0.559,7.457-0.748,11.169-0.641l1.349,0.037l1.426,0.106c0.951,0.07,1.906,0.134,2.824,0.269
				c1.858,0.206,3.701,0.535,5.533,0.903c7.328,1.521,14.337,4.475,20.62,8.509c6.282,4.043,11.837,9.207,16.304,15.19
				c4.462,5.986,7.836,12.773,9.92,19.937c1.039,3.582,1.771,7.255,2.148,10.965c0.163,1.857,0.299,3.716,0.31,5.58
				c0.044,1.864,0.007,3.609,0.015,5.419l-0.036,21.537L132.685,96.017z M128.139,95.916l-0.036-21.537
				c-0.013-1.779,0.017-3.625-0.032-5.349c-0.015-1.728-0.149-3.449-0.304-5.167c-0.36-3.433-1.05-6.826-2.021-10.133
				c-1.942-6.616-5.1-12.868-9.25-18.372c-4.156-5.501-9.312-10.237-15.12-13.929c-5.809-3.692-12.274-6.342-19.006-7.757
				c-1.686-0.337-3.379-0.642-5.09-0.83c-0.859-0.128-1.695-0.18-2.534-0.243L73.489,12.5l-1.342-0.037
				c-3.46-0.099-6.897,0.082-10.302,0.6c-6.8,1.035-13.406,3.292-19.41,6.647c-6.011,3.341-11.4,7.796-15.838,13.048
				c-4.445,5.247-7.943,11.289-10.267,17.756c-1.171,3.231-2.023,6.574-2.575,9.965c-0.267,1.688-0.504,3.422-0.606,5.082
				l-0.099,1.257l-0.039,1.34l-0.035,1.346l-0.012,0.608l0,0.673l-0.014,21.537c-0.031,3.682,0.024,6.953,0.571,10.295
				c0.62,3.299,1.659,6.503,3.147,9.477c2.931,5.974,7.969,10.82,13.992,13.345c1.488,0.656,3.099,1.094,4.647,1.444
				c0.776,0.116,1.51,0.268,2.317,0.38l2.688,0.147l0.168,0.009c-0.033-0.001,0.192,0.008-0.052,0l0.079-0.002l0.318-0.008
				l0.636-0.016l1.271-0.03c0.843-0.045,1.677-0.139,2.517-0.203c0.826-0.123,1.655-0.238,2.473-0.386
				c0.8-0.203,1.631-0.322,2.408-0.586c1.591-0.434,3.099-1.063,4.548-1.785c1.415-0.778,2.791-1.632,4-2.699
				c1.208-1.062,2.341-2.221,3.316-3.528c0.969-1.309,1.82-2.722,2.549-4.213c1.446-2.995,2.374-6.285,2.991-9.657
				c0.604-3.388,0.837-6.845,0.881-10.385l0-0.006c-0.015-1.104,0.868-2.012,1.972-2.027s2.012,0.868,2.027,1.972l0,0.005
				l0.001,0.05c0.048,4.265,0.379,8.439,1.302,12.466c0.895,4.013,2.36,7.866,4.622,11.104c2.258,3.227,5.272,5.83,8.862,7.426
				c1.793,0.791,3.674,1.429,5.646,1.807c0.974,0.204,1.992,0.343,2.973,0.465c0.993,0.074,1.912,0.202,3.041,0.199l1.624,0.039
				l1.398-0.086c0.49-0.036,0.984-0.034,1.471-0.096l1.453-0.249c0.98-0.114,1.917-0.422,2.862-0.692
				c0.963-0.217,1.845-0.68,2.766-1.027c0.465-0.165,0.901-0.398,1.332-0.642l1.308-0.697c0.864-0.48,1.654-1.09,2.491-1.623
				c0.783-0.611,1.538-1.263,2.307-1.896c0.693-0.72,1.421-1.406,2.094-2.146c0.618-0.789,1.299-1.531,1.878-2.352
				c0.541-0.848,1.164-1.645,1.648-2.53c0.461-0.897,1.016-1.748,1.409-2.681c0.377-0.938,0.859-1.837,1.16-2.806
				c0.291-0.972,0.676-1.916,0.897-2.908c0.206-0.989,0.495-1.987,0.642-2.968c0.121-0.989,0.292-1.929,0.39-2.958l0.153-3.245
				L128.139,95.916z"/>
		</g>
		<g>
			<path style="fill:#FFFFFF;" d="M88.663,85.234c0,4.849-8.171,20.184-18.25,20.184s-18.25-15.335-18.25-20.184
				s8.171-6.816,18.25-6.816S88.663,80.385,88.663,85.234z"/>
			<path d="M90.97,85.34c-0.017,0.025,0.026,0.276-0.16,1.406c-0.165,0.9-0.505,2.077-1.063,3.465
				c-0.554,1.391-1.338,2.985-2.375,4.727c-1.046,1.735-2.351,3.614-4.028,5.492c-1.67,1.876-3.736,3.759-6.408,5.235
				c-1.337,0.724-2.854,1.319-4.519,1.584c-0.83,0.129-1.688,0.197-2.556,0.149c-0.188-0.01-0.344-0.008-0.559-0.028l-0.699-0.087
				c-0.488-0.052-0.875-0.164-1.307-0.256c-3.382-0.864-6.205-2.924-8.555-5.25c-2.34-2.367-4.313-5.055-5.927-7.968
				c-0.799-1.465-1.524-2.969-2.097-4.602c-0.285-0.821-0.543-1.658-0.711-2.614c-0.035-0.253-0.076-0.489-0.099-0.757l-0.025-0.416
				l-0.005-0.104l-0.002-0.052c-0.013,0.205,0.015-0.339,0.014-0.295l0.014-0.145l0.054-0.578l0.015-0.148l0.062-0.263l0.147-0.527
				c0.441-1.43,1.148-2.188,1.92-2.978c0.78-0.694,1.598-1.232,2.406-1.64c1.62-0.827,3.221-1.31,4.771-1.657
				c3.108-0.707,6.063-0.937,8.855-1.061c0.698-0.032,1.383-0.033,2.06-0.051c0.667,0.006,1.324,0.012,1.971,0.018
				c1.325,0.033,2.622,0.104,3.836,0.199c2.45,0.223,4.717,0.592,6.746,1.162c2.024,0.572,3.835,1.336,5.282,2.428
				c1.446,1.069,2.448,2.58,2.695,3.751c0.202,0.557,0.167,1.008,0.217,1.303c0.022,0.297,0.033,0.451,0.033,0.451L90.97,85.34z
				 M86.354,85.234c-0.017,0.005-0.017-0.177-0.097-0.462c-0.05-0.275-0.297-0.681-1.051-1.241
				c-0.757-0.547-2.059-1.115-3.719-1.529c-1.662-0.419-3.668-0.721-5.902-0.885c-1.129-0.086-2.277-0.148-3.485-0.179
				c-1.289-0.019-2.497-0.029-3.815-0.003c-2.584,0.07-5.322,0.253-7.957,0.812c-1.319,0.266-2.601,0.662-3.691,1.176
				c-0.55,0.255-1.008,0.561-1.387,0.865c-0.158,0.159-0.317,0.311-0.433,0.462c-0.082,0.147-0.222,0.332-0.199,0.326
				c-0.009,0.008-0.022,0.014-0.04,0.021l-0.031,0.011l-0.018,0.139l-0.07,0.576l-0.017,0.144c-0.005,0.068,0.024-0.451,0.012-0.222
				l0.001,0.021l0.002,0.041l0.004,0.165l0.04,0.398c0.083,0.578,0.259,1.242,0.47,1.9c0.423,1.327,1.025,2.673,1.693,3.975
				c1.361,2.6,3.051,5.073,5.03,7.115c1.978,2.021,4.265,3.643,6.609,4.26c2.334,0.644,4.656,0.149,6.712-0.998
				c2.062-1.122,3.774-2.784,5.185-4.438c2.823-3.353,4.486-6.772,5.354-9.094c0.431-1.17,0.655-2.082,0.737-2.63
				c0.06-0.32,0.064-0.859,0.065-0.832L86.354,85.234z"/>
		</g>
		<path style="fill:#FFFFFF;stroke:#000000;stroke-width:4;stroke-linecap:round;stroke-linejoin:round;stroke-miterlimit:10;" d="
			M108.413,60.546c0,16.638-16.46,4.123-37.999,4.123s-37.999,12.514-37.999-4.123s16.46-33.127,37.999-33.127
			S108.413,43.908,108.413,60.546z"/>
		<g>
			<path style="fill:#FFFFFF;" d="M49.893,52.306c5.594-3.605,12.732-5.886,20.662-5.886c7.796,0,14.827,2.205,20.377,5.705"/>
			<path d="M48.841,50.605c0,0,0.139-0.097,0.399-0.278c0.264-0.18,0.619-0.449,1.187-0.79c1.099-0.677,2.62-1.586,4.608-2.434
				c1.978-0.837,4.35-1.704,6.984-2.26c2.627-0.589,5.493-0.894,8.358-0.92c0.8,0.007,1.344,0.011,2.113,0.052
				c0.74,0.034,1.461,0.086,2.156,0.159c1.405,0.134,2.779,0.357,4.095,0.635c1.32,0.259,2.573,0.619,3.747,0.992
				c1.172,0.382,2.266,0.784,3.256,1.207c1.988,0.824,3.541,1.735,4.612,2.381c0.54,0.317,0.94,0.606,1.219,0.793
				c0.277,0.189,0.425,0.29,0.425,0.29c0.913,0.622,1.149,1.867,0.526,2.781c-0.586,0.86-1.724,1.119-2.618,0.626l-0.042-0.024
				c0,0-0.558-0.31-1.555-0.803c-0.989-0.508-2.448-1.145-4.235-1.795c-1.787-0.653-3.934-1.238-6.272-1.656
				c-1.167-0.222-2.387-0.365-3.628-0.483c-0.628-0.06-1.244-0.099-1.848-0.122c-0.574-0.033-1.381-0.03-1.931-0.035
				c-2.538,0.005-5.069,0.256-7.402,0.699c-1.166,0.223-2.287,0.474-3.336,0.768c-1.051,0.285-2.029,0.613-2.92,0.943
				c-1.774,0.66-3.25,1.329-4.199,1.826c-0.466,0.231-0.892,0.464-1.168,0.616c-0.278,0.152-0.427,0.233-0.427,0.233
				c-0.971,0.529-2.188,0.171-2.717-0.8C47.736,52.304,48.02,51.183,48.841,50.605z"/>
		</g>
	</g>
</g>
<g id="Layer_1">
</g>
</svg>
