<?xml version="1.0" encoding="iso-8859-1"?>
<!-- Generator: Adobe Illustrator 19.2.0, SVG Export Plug-In . SVG Version: 6.00 Build 0)  -->
<!DOCTYPE svg PUBLIC "-//W3C//DTD SVG 1.1//EN" "http://www.w3.org/Graphics/SVG/1.1/DTD/svg11.dtd">
<svg version="1.1" xmlns="http://www.w3.org/2000/svg" xmlns:xlink="http://www.w3.org/1999/xlink" x="0px" y="0px"
	 viewBox="0 0 125.11 125.249" style="enable-background:new 0 0 125.11 125.249;" xml:space="preserve">
<g id="sitelen">
	<g id="sitelen_2_">
		<g>
			<path style="fill:#FFFFFF;" d="M59.306,106.249c0,9.113,4.72,16.5,10.542,16.5c5.822,0,10.542-7.387,10.542-16.5
				c0,9.113,4.72,16.5,10.542,16.5s10.542-7.387,10.542-16.5c0,9.113,4.72,16.5,10.542,16.5c5.822,0,10.542-7.387,10.542-16.5
				v-43.75c0-33.137-26.863-60-60-60s-60,26.863-60,60v30c0,16.569,13.25,30,30,30S59.306,106.249,59.306,106.249z"/>
			<path d="M61.305,106.184c0.082,0.892,0.143,1.823,0.276,2.55c0.046,0.383,0.119,0.777,0.213,1.18
				c0.089,0.398,0.154,0.801,0.278,1.186c0.191,0.788,0.444,1.549,0.712,2.3l0.461,1.093l0.531,1.041
				c0.385,0.67,0.803,1.299,1.245,1.893l0.708,0.824c0.262,0.227,0.506,0.487,0.771,0.698c0.536,0.4,1.081,0.777,1.65,0.965
				c0.559,0.253,1.132,0.291,1.698,0.334c-0.39,0.015-0.102,0.004-0.187,0.007l0.01-0.001l0.021-0.001l0.042-0.003l0.084-0.006
				l0.167-0.012l0.335-0.024l0.335-0.024c0.132-0.004,0.122-0.036,0.19-0.049c0.099-0.034,0.199-0.059,0.303-0.077
				c0.095-0.004,0.266-0.103,0.397-0.145c0.569-0.187,1.114-0.564,1.65-0.964c0.264-0.211,0.508-0.471,0.771-0.698l0.708-0.824
				c0.442-0.593,0.86-1.222,1.245-1.892l0.531-1.041l0.461-1.093c0.268-0.751,0.521-1.512,0.712-2.3
				c0.124-0.386,0.19-0.789,0.278-1.186c0.093-0.397,0.168-0.799,0.216-1.207c0.136-0.81,0.189-1.633,0.272-2.459l0-0.001h4
				c0.083,0.826,0.136,1.649,0.272,2.459c0.048,0.408,0.123,0.81,0.216,1.207c0.089,0.398,0.154,0.801,0.278,1.186
				c0.191,0.788,0.444,1.549,0.712,2.3l0.461,1.093l0.531,1.041c0.385,0.67,0.803,1.299,1.245,1.893l0.708,0.824
				c0.262,0.227,0.506,0.487,0.771,0.698c0.536,0.4,1.081,0.777,1.65,0.965c0.559,0.253,1.132,0.291,1.698,0.334
				c-0.391,0.016-0.102,0.004-0.187,0.007l0.01-0.001l0.021-0.001l0.042-0.003l0.084-0.006l0.167-0.012l0.335-0.024l0.335-0.024
				c0.132-0.004,0.122-0.036,0.19-0.049c0.193-0.066,0.391-0.075,0.699-0.222c0.569-0.187,1.114-0.564,1.65-0.964
				c0.264-0.211,0.508-0.471,0.771-0.698l0.708-0.824c0.442-0.593,0.86-1.222,1.245-1.892l0.531-1.041l0.461-1.093
				c0.268-0.751,0.521-1.512,0.712-2.3c0.124-0.386,0.19-0.789,0.278-1.186c0.093-0.397,0.168-0.799,0.216-1.207
				c0.136-0.81,0.189-1.633,0.272-2.459l0-0.002h4c0.12,1.852,0.397,3.678,0.902,5.415c0.483,1.738,1.191,3.395,2.126,4.815
				c0.898,1.446,2.09,2.59,3.336,3.238c0.631,0.284,1.26,0.513,1.899,0.507l0.238,0.021c0.197-0.006-0.205,0.016-0.126,0.01
				l0.094-0.007l0.187-0.015l0.749-0.06c0.13-0.045,0.225-0.085,0.342-0.111c0.059-0.017,0.108-0.017,0.177-0.04l0.232-0.1
				c0.634-0.202,1.23-0.649,1.82-1.105c0.56-0.526,1.119-1.093,1.579-1.79c0.954-1.355,1.678-2.971,2.169-4.674
				c0.492-1.706,0.756-3.503,0.815-5.311c0.044-0.859,0.019-1.941,0.024-2.922l-0.002-3.007l-0.02-24.059l-0.01-12.03l-0.001-1.504
				l-0.001-0.752l-0.012-0.687c-0.035-0.99-0.033-2.031-0.098-2.98c-0.083-0.938-0.128-1.866-0.235-2.814
				c-0.13-0.951-0.228-1.906-0.381-2.853c-1.205-7.581-3.944-14.912-8.03-21.415c-4.075-6.508-9.468-12.191-15.755-16.604
				c-6.283-4.42-13.46-7.561-20.976-9.153C67.021,4.66,59.12,4.603,51.611,6.061c-7.544,1.453-14.78,4.454-21.149,8.753
				c-6.367,4.301-11.856,9.895-16.044,16.331c-4.195,6.433-7.075,13.712-8.4,21.272l-0.248,1.418l-0.181,1.428l-0.18,1.428
				l-0.11,1.436l-0.11,1.436l-0.037,1.44l-0.038,1.44l-0.003,1.501l-0.009,12.03l-0.009,12.03l-0.002,3.007l-0.003,1.377
				l0.074,1.502l0.074,1.502l0.203,1.305l0.193,1.3l0.336,1.333c1.763,7.13,6.556,13.444,12.954,17.063
				c3.186,1.822,6.745,2.984,10.401,3.4c0.911,0.127,1.838,0.111,2.756,0.179l0.345,0.019l0.086,0.005
				c0.161-0.002-0.124,0.009-0.059,0.005l0.188-0.01l0.751-0.039l1.502-0.079c0.533-0.004,0.936-0.097,1.355-0.174l1.267-0.219
				c0.417-0.044,0.862-0.199,1.299-0.32l1.316-0.374c3.482-1.124,6.738-3.05,9.687-5.399c1.489-1.161,2.857-2.49,4.187-3.852
				c1.307-1.356,2.573-2.895,3.6-4.334l0.01-0.014c0.654-0.917,1.928-1.13,2.845-0.476C60.958,105.067,61.25,105.617,61.305,106.184
				z M57.663,111.9c-0.148,0.176-0.286,0.368-0.437,0.543c-1.378,1.59-2.853,3.107-4.482,4.47c-3.21,2.76-6.906,5.114-11.06,6.498
				l-1.57,0.474c-0.527,0.152-1.032,0.332-1.612,0.417l-1.694,0.308c-0.567,0.102-1.148,0.211-1.621,0.219l-1.5,0.1l-0.75,0.05
				l-0.188,0.013c0,0-0.346,0.011-0.247,0.005l-0.101-0.005l-0.406-0.019c-1.081-0.07-2.168-0.063-3.243-0.207
				c-4.312-0.485-8.535-1.853-12.312-4.006c-7.585-4.274-13.272-11.74-15.375-20.188l-0.395-1.584l-0.255-1.673l-0.236-1.67
				l-0.076-1.502l-0.076-1.502l-0.005-1.63l-0.002-3.007l-0.009-12.03L0,63.944l0-1.506l0.038-1.566l0.039-1.566l0.116-1.563
				l0.118-1.563l0.192-1.556l0.198-1.555l0.271-1.544c1.457-8.236,4.608-16.165,9.185-23.159
				c4.569-6.999,10.547-13.071,17.479-17.739c6.933-4.667,14.815-7.922,23.024-9.491c2.058-0.393,4.109-0.681,6.216-0.872
				c1.045-0.066,2.161-0.191,3.149-0.203l1.503-0.037l0.752-0.018L62.468,0l0.258,0.003l0.391,0.009
				c4.173,0.031,8.348,0.476,12.436,1.339c8.18,1.718,15.999,5.124,22.841,9.921c6.848,4.789,12.723,10.959,17.171,18.037
				c4.452,7.073,7.477,15.058,8.77,23.324c0.165,1.032,0.273,2.072,0.41,3.108c0.116,1.045,0.171,2.121,0.256,3.18
				c0.067,1.051,0.061,2.018,0.095,3.031l0.012,0.816l-0.001,0.752l-0.001,1.504l-0.01,12.03l-0.02,24.059l-0.002,3.007
				c-0.009,1.024,0.019,1.948-0.032,3.092c-0.076,2.196-0.399,4.396-1.021,6.542c-0.626,2.143-1.544,4.244-2.901,6.17
				c-0.656,0.971-1.492,1.864-2.407,2.692c-0.975,0.781-2.028,1.534-3.304,1.982c-0.554,0.265-1.432,0.422-2.138,0.56l-0.75,0.059
				l-0.187,0.015l-0.094,0.007c0.017,0.003-0.448,0.014-0.314,0.004l-0.511-0.038c-1.375-0.06-2.681-0.524-3.842-1.107
				c-2.293-1.253-3.975-3.107-5.15-5.082c-2.321-4.003-3.131-8.458-2.952-12.767l0.01-0.239c0.046-1.103,0.977-1.96,2.08-1.915
				c1.103,0.046,1.96,0.977,1.914,2.08c-0.001,0.022-0.003,0.052-0.004,0.073l0,0.002c0.025,0.964,0.055,1.933-0.031,2.903
				c-0.019,0.486-0.067,0.971-0.136,1.455c-0.064,0.484-0.108,0.972-0.215,1.453c-0.174,0.967-0.44,1.921-0.727,2.872l-0.511,1.411
				l-0.619,1.386c-0.226,0.457-0.487,0.903-0.734,1.354c-0.267,0.443-0.584,0.865-0.878,1.296c-0.324,0.418-0.679,0.822-1.023,1.229
				c-0.396,0.379-0.77,0.772-1.197,1.128c-0.872,0.694-1.82,1.354-2.939,1.779c-0.29,0.107-0.516,0.234-0.862,0.316
				c-0.332,0.087-0.667,0.165-1.004,0.235c-0.382,0.088-0.582,0.094-0.801,0.113l-0.335,0.029l-0.167,0.015l-0.084,0.007
				l-0.281,0.015c-1.215-0.055-2.448-0.25-3.533-0.732c-1.119-0.425-2.067-1.085-2.939-1.78c-0.427-0.356-0.801-0.749-1.197-1.128
				c-0.344-0.407-0.7-0.811-1.023-1.229c-0.294-0.431-0.611-0.854-0.878-1.296c-0.246-0.451-0.508-0.897-0.733-1.354l-0.619-1.386
				l-0.511-1.411c-0.288-0.952-0.553-1.906-0.727-2.872c-0.106-0.481-0.15-0.969-0.214-1.453c-0.069-0.484-0.117-0.969-0.135-1.455
				c-0.086-0.969-0.055-1.939-0.031-2.903l0.005-0.214c0.028-1.105,0.946-1.978,2.051-1.95s1.978,0.946,1.95,2.051
				c-0.001,0.036-0.003,0.078-0.006,0.113l0,0.001c0.025,0.964,0.056,1.933-0.031,2.903c-0.019,0.486-0.067,0.971-0.135,1.455
				c-0.064,0.484-0.108,0.972-0.215,1.453c-0.174,0.967-0.44,1.921-0.727,2.872l-0.511,1.411l-0.619,1.386
				c-0.226,0.457-0.487,0.903-0.733,1.354c-0.267,0.443-0.584,0.866-0.878,1.296c-0.323,0.418-0.679,0.822-1.023,1.229
				c-0.396,0.379-0.77,0.772-1.197,1.128c-0.872,0.694-1.82,1.354-2.939,1.779c-0.29,0.107-0.516,0.234-0.862,0.316
				c-0.332,0.087-0.667,0.165-1.004,0.235c-0.382,0.088-0.583,0.095-0.801,0.114l-0.335,0.029l-0.167,0.015l-0.084,0.007
				l-0.281,0.015c-1.215-0.055-2.448-0.25-3.533-0.732c-1.119-0.425-2.067-1.085-2.939-1.78c-0.427-0.356-0.801-0.749-1.197-1.128
				c-0.344-0.407-0.7-0.811-1.023-1.229c-0.294-0.431-0.611-0.854-0.878-1.297c-0.246-0.451-0.508-0.897-0.733-1.354l-0.619-1.386
				l-0.511-1.411c-0.288-0.952-0.553-1.906-0.727-2.872C57.675,112.006,57.673,111.953,57.663,111.9z"/>
		</g>
		<g>
			<path d="M2.118,71.314c0,0,0.345-0.124,0.991-0.357c0.653-0.244,1.614-0.618,2.823-1.135c2.408-1.046,5.842-2.608,9.706-4.899
				c0.479-0.291,0.968-0.588,1.467-0.891c0.533-0.309,1.075-0.624,1.627-0.945c0.548-0.309,1.214-0.615,1.833-0.927
				c0.632-0.292,1.272-0.539,1.924-0.814c2.633-0.995,5.588-1.703,8.765-1.744c3.149-0.075,6.62,0.698,9.576,2.672
				c0.695,0.545,1.436,1.05,2.026,1.721c0.3,0.326,0.645,0.621,0.902,0.981l0.789,1.069l0.195,0.269l0.049,0.067l0.091,0.153
				l0.071,0.125l0.284,0.499l0.568,0.998c0.391,0.617,0.732,1.453,1.082,2.223c1.356,3.104,2.136,6.254,2.516,9.419
				c0.355,3.146,0.436,6.23,0.331,9.177c-0.221,5.895-0.931,11.269-1.612,15.842c-0.337,2.288-0.661,4.375-0.987,6.22
				c-0.319,1.843-0.598,3.449-0.827,4.772c-0.487,2.638-0.766,4.145-0.766,4.145l-0.001,0.008c-0.151,0.815-0.934,1.354-1.749,1.204
				c-0.771-0.142-1.294-0.856-1.221-1.622c0,0,0.15-1.531,0.412-4.209c0.152-1.334,0.337-2.955,0.548-4.813
				c0.224-1.851,0.476-3.94,0.752-6.219c0.274-2.274,0.546-4.735,0.813-7.326c0.266-2.593,0.465-5.319,0.549-8.123
				c0.078-2.803-0.028-5.673-0.372-8.527c-0.114-0.705-0.228-1.414-0.343-2.124c-0.126-0.706-0.328-1.39-0.484-2.09
				c-0.134-0.708-0.393-1.37-0.605-2.05l-0.33-1.017l-0.407-0.933c-0.281-0.627-0.483-1.232-0.906-1.92l-0.56-1.003l-0.28-0.501
				l-0.07-0.125l-0.017-0.031c-0.054-0.09,0.053,0.087,0.036,0.061l-0.036-0.048l-0.143-0.193l-0.562-0.779
				c-0.178-0.268-0.431-0.463-0.639-0.7c-0.405-0.491-0.939-0.831-1.417-1.233c-2.075-1.398-4.653-2.068-7.237-2.022
				c-2.58,0.015-5.136,0.525-7.443,1.354c-0.566,0.229-1.146,0.437-1.681,0.671c-0.528,0.258-1.021,0.456-1.559,0.744
				c-1.081,0.603-2.125,1.186-3.127,1.745c-4.143,2.257-7.762,3.765-10.342,4.694c-1.288,0.47-2.314,0.807-3.021,1.028
				c-0.72,0.215-1.104,0.33-1.104,0.33C2.2,74.42,1.365,73.97,1.128,73.176c-0.229-0.766,0.183-1.571,0.925-1.839L2.118,71.314z"/>
		</g>
		<g>
			<path d="M1.647,87.901c0,0,0.654-0.323,1.8-0.889c1.135-0.56,2.83-1.373,4.845-2.268c1.007-0.458,2.108-0.934,3.283-1.416
				c1.165-0.504,2.421-0.972,3.71-1.481c1.303-0.476,2.644-0.985,4.032-1.436c0.693-0.228,1.392-0.457,2.094-0.688
				c0.71-0.209,1.422-0.418,2.135-0.628c1.426-0.416,2.872-0.776,4.299-1.112c1.433-0.321,2.848-0.619,4.236-0.836
				c1.376-0.268,2.739-0.376,4.016-0.551c1.294-0.075,2.508-0.225,3.646-0.218c1.135-0.015,2.175-0.05,3.102,0.023
				c0.926,0.054,1.734,0.062,2.397,0.166c1.329,0.161,2.088,0.253,2.088,0.253c0.932,0.113,1.595,0.96,1.482,1.891
				c-0.113,0.932-0.96,1.595-1.891,1.482l-0.013-0.002l-0.127-0.016c0,0-0.689-0.089-1.896-0.245
				c-0.599-0.103-1.346-0.112-2.195-0.17c-0.848-0.076-1.816-0.05-2.87-0.046c-1.054-0.019-2.201,0.117-3.412,0.174
				c-1.209,0.158-2.49,0.244-3.805,0.49c-1.319,0.193-2.674,0.468-4.049,0.763c-1.371,0.311-2.764,0.643-4.143,1.034
				c-0.69,0.196-1.379,0.393-2.067,0.588c-0.682,0.218-1.361,0.434-2.034,0.649c-1.349,0.425-2.658,0.91-3.929,1.362
				c-1.261,0.486-2.488,0.931-3.631,1.414c-1.151,0.461-2.231,0.917-3.221,1.357c-1.994,0.866-3.598,1.617-4.758,2.178
				c-1.15,0.556-1.807,0.873-1.807,0.873c-0.746,0.36-1.643,0.048-2.003-0.698C0.602,89.157,0.91,88.265,1.647,87.901z"/>
		</g>
		<g>
			<path d="M5.257,104.479c0,0,0.145-0.091,0.418-0.261c0.281-0.168,0.692-0.415,1.217-0.728c1.039-0.618,2.545-1.439,4.375-2.385
				c0.929-0.444,1.918-0.962,2.997-1.441c1.076-0.486,2.207-1.007,3.408-1.478c1.186-0.506,2.44-0.964,3.72-1.416
				c1.265-0.489,2.609-0.837,3.924-1.26c1.331-0.378,2.686-0.687,4.012-1.013c1.352-0.229,2.671-0.517,3.972-0.679
				c1.31-0.114,2.564-0.313,3.776-0.336c1.213-0.004,2.359-0.061,3.42-0.013c1.063,0.097,2.038,0.187,2.901,0.266
				c0.865,0.066,1.603,0.308,2.22,0.415c1.228,0.267,1.929,0.42,1.929,0.42c0.943,0.205,1.54,1.136,1.335,2.078
				c-0.205,0.943-1.136,1.54-2.078,1.335l-0.013-0.003l-0.224-0.051c0,0-0.616-0.139-1.693-0.382
				c-0.544-0.098-1.18-0.329-1.956-0.392c-0.773-0.08-1.645-0.17-2.596-0.269c-0.957-0.055-2.008-0.01-3.112-0.023
				c-1.106,0.004-2.278,0.183-3.489,0.269c-1.21,0.136-2.453,0.395-3.722,0.592c-1.255,0.296-2.538,0.571-3.806,0.915
				c-1.257,0.391-2.537,0.702-3.756,1.159c-1.23,0.419-2.437,0.843-3.584,1.317c-1.16,0.438-2.256,0.928-3.299,1.385
				c-1.046,0.449-2.006,0.94-2.908,1.357c-1.776,0.893-3.241,1.669-4.239,2.247c-0.492,0.287-0.879,0.512-1.143,0.666
				c-0.266,0.162-0.407,0.248-0.407,0.248l-0.022,0.013c-0.707,0.431-1.63,0.207-2.061-0.5
				C4.344,105.829,4.562,104.914,5.257,104.479z"/>
		</g>
		<g>
			<path d="M123.93,54.944c0,0-0.237,0.454-0.68,1.305c-0.215,0.422-0.48,0.944-0.915,1.613c-0.413,0.642-0.856,1.444-1.439,2.188
				c-0.561,0.778-1.188,1.634-1.961,2.491c-0.724,0.902-1.627,1.761-2.566,2.704c-1.954,1.802-4.334,3.645-7.159,5.271
				c-2.82,1.628-6.083,3.034-9.676,4.004c-0.905,0.212-1.818,0.452-2.751,0.645c-0.941,0.154-1.889,0.338-2.855,0.468
				c-0.97,0.091-1.949,0.216-2.941,0.278c-0.497,0.017-0.996,0.033-1.497,0.05l-0.754,0.024l-0.378,0.012l-0.047,0.001l-0.147-0.004
				l-0.09-0.004l-0.18-0.009c-0.959-0.046-1.926-0.092-2.899-0.139c-0.471-0.004-1.011-0.091-1.536-0.16
				c-0.527-0.072-1.055-0.144-1.585-0.216c-0.525-0.083-1.071-0.127-1.582-0.245l-1.538-0.355c-1.028-0.235-2.065-0.458-3.067-0.825
				c-4.062-1.258-8.028-3.147-11.532-5.719c-3.517-2.546-6.587-5.727-8.952-9.314c-2.369-3.583-4-7.582-4.79-11.611
				c-0.15-1.015-0.378-2.013-0.45-3.018c-0.051-1.006-0.101-2.003-0.151-2.989l-0.004-0.092l-0.002-0.046l0.003-0.12l0.009-0.173
				l0.017-0.345l0.035-0.686c0.035-0.47,0.019-0.878,0.097-1.394c0.132-0.98,0.21-1.984,0.428-2.885
				c0.72-3.687,2.058-7.012,3.682-9.825c1.624-2.82,3.523-5.133,5.371-6.986c1.855-1.85,3.636-3.288,5.201-4.315
				c0.76-0.547,1.482-0.967,2.105-1.338c0.616-0.384,1.158-0.677,1.606-0.899c0.887-0.459,1.36-0.703,1.36-0.703
				c0.735-0.38,1.639-0.092,2.02,0.643c0.371,0.716,0.107,1.594-0.588,1.99l-0.085,0.048c0,0-0.427,0.243-1.229,0.699
				c-0.405,0.219-0.894,0.508-1.445,0.884c-0.559,0.363-1.207,0.772-1.882,1.301c-1.395,0.994-2.959,2.372-4.604,4.075
				c-1.631,1.716-3.285,3.837-4.667,6.381c-1.383,2.538-2.486,5.499-3.038,8.74c-0.18,0.817-0.203,1.601-0.306,2.411
				c-0.06,0.379-0.038,0.884-0.061,1.325l-0.018,0.687l-0.009,0.345l-0.005,0.173c0-0.02-0.003,0.106,0.001-0.034l0.003,0.04
				l0.005,0.081c0.055,0.859,0.11,1.727,0.166,2.604c0.07,0.874,0.291,1.738,0.426,2.62c0.733,3.493,2.192,6.952,4.307,10.065
				c2.106,3.121,4.86,5.874,7.983,8.12c3.117,2.265,6.664,3.927,10.299,5.028c0.894,0.328,1.825,0.516,2.746,0.721l1.376,0.312
				c0.457,0.105,0.905,0.13,1.355,0.2l1.343,0.182c0.448,0.059,0.875,0.139,1.381,0.142c0.974,0.041,1.941,0.082,2.9,0.122
				l0.18,0.008l0.09,0.004c-0.03-0.001,0.131,0.004-0.057-0.001l0.042-0.002l0.339-0.012l0.676-0.024
				c0.45-0.015,0.898-0.031,1.343-0.046c0.889-0.057,1.765-0.173,2.634-0.253c0.864-0.119,1.711-0.287,2.552-0.423
				c0.834-0.174,1.647-0.392,2.455-0.58c3.204-0.871,6.101-2.128,8.596-3.574c2.499-1.445,4.591-3.074,6.304-4.655
				c1.668-1.627,3.012-3.155,3.966-4.522c0.53-0.664,0.853-1.276,1.202-1.797c0.338-0.491,0.615-1.022,0.837-1.455
				c0.448-0.849,0.687-1.302,0.687-1.302c0.579-1.099,1.94-1.521,3.04-0.941S124.51,53.844,123.93,54.944z"/>
		</g>
		<g>
			<path d="M64.356,43.364c0,0,0.657-0.176,1.806-0.485c1.151-0.291,2.794-0.734,4.786-1.202c1.992-0.461,4.313-1.016,6.826-1.531
				c2.519-0.492,5.213-1.007,7.951-1.402c1.367-0.204,2.745-0.36,4.108-0.481c1.361-0.139,2.711-0.203,4.016-0.252
				c0.653-0.014,1.296-0.028,1.924-0.042c0.628,0.013,1.243,0.025,1.841,0.038c1.194,0.041,2.322,0.091,3.356,0.168
				c2.073,0.128,3.778,0.372,4.97,0.514c1.189,0.169,1.868,0.266,1.868,0.266c0.821,0.117,1.392,0.877,1.275,1.698
				c-0.109,0.765-0.776,1.312-1.53,1.289l-0.031-0.001c0,0-0.673-0.023-1.851-0.063c-1.175-0.06-2.855-0.084-4.852-0.13
				c-1-0.022-2.079-0.012-3.219,0.008c-1.139,0.03-2.337,0.078-3.574,0.145c-1.237,0.083-2.514,0.18-3.812,0.315
				c-1.299,0.117-2.616,0.309-3.939,0.476c-2.644,0.338-5.295,0.8-7.781,1.244C76,44.38,73.672,44.795,71.676,45.15
				c-2.004,0.35-3.674,0.642-4.843,0.846c-1.174,0.192-1.845,0.301-1.845,0.301c-0.819,0.134-1.591-0.422-1.724-1.241
				C63.138,44.291,63.624,43.564,64.356,43.364z"/>
		</g>
		<g>
			<path d="M79.805,26.192c0,0,0.052,0.487,0.142,1.339c0.037,0.428,0.081,0.949,0.133,1.545c0.042,0.6,0.114,1.281,0.144,2.018
				c0.074,1.473,0.161,3.19,0.222,5.029c0.046,1.838,0.076,3.799,0.07,5.758c-0.001,1.959-0.025,3.918-0.086,5.753
				c-0.041,1.835-0.158,3.547-0.231,5.013c-0.067,1.467-0.197,2.688-0.26,3.544c-0.085,0.856-0.134,1.345-0.134,1.345
				c-0.082,0.827-0.819,1.43-1.645,1.348c-0.749-0.074-1.315-0.686-1.354-1.415l0-0.008c0,0-0.026-0.487-0.073-1.34
				c-0.025-0.853-0.108-2.074-0.123-3.536c-0.025-1.463-0.087-3.17-0.088-4.997c-0.017-1.827-0.009-3.776,0.005-5.723
				c0.021-1.947,0.042-3.893,0.062-5.718c0.035-1.823,0.068-3.524,0.095-4.982c0.033-1.454,0.06-2.666,0.08-3.515
				c0.027-0.856,0.042-1.346,0.042-1.346c0.025-0.83,0.718-1.482,1.548-1.457C79.115,24.871,79.727,25.456,79.805,26.192z"/>
		</g>
		<g>
			<path d="M94.795,25.822c0,0,0.09,0.458,0.247,1.26c0.145,0.79,0.349,1.981,0.522,3.402c0.154,1.408,0.349,3.049,0.469,4.809
				c0.124,1.759,0.203,3.636,0.258,5.511c0.035,1.876,0.058,3.75,0.024,5.506c-0.018,1.756-0.108,3.394-0.16,4.797
				c-0.058,1.404-0.17,2.572-0.227,3.391c-0.067,0.817-0.124,1.291-0.124,1.291l-0.002,0.015c-0.099,0.825-0.848,1.414-1.673,1.315
				c-0.737-0.088-1.285-0.695-1.324-1.412c0,0-0.025-0.461-0.07-1.269c-0.024-0.81-0.107-1.969-0.14-3.358
				c-0.046-1.389-0.1-3.009-0.158-4.745c-0.046-1.733-0.095-3.582-0.145-5.431c-0.047-1.845-0.094-3.69-0.137-5.42
				c-0.053-1.724-0.102-3.334-0.144-4.713c-0.08-1.36-0.075-2.488-0.143-3.314c-0.034-0.816-0.053-1.283-0.053-1.283
				c-0.036-0.83,0.608-1.532,1.438-1.568C94.007,24.576,94.654,25.104,94.795,25.822z"/>
		</g>
	</g>
</g>
<g id="Layer_1">
</g>
</svg>
