<?xml version="1.0" encoding="iso-8859-1"?>
<!-- Generator: Adobe Illustrator 19.2.0, SVG Export Plug-In . SVG Version: 6.00 Build 0)  -->
<!DOCTYPE svg PUBLIC "-//W3C//DTD SVG 1.1//EN" "http://www.w3.org/Graphics/SVG/1.1/DTD/svg11.dtd">
<svg version="1.1" xmlns="http://www.w3.org/2000/svg" xmlns:xlink="http://www.w3.org/1999/xlink" x="0px" y="0px"
	 viewBox="0 0 140 140" style="enable-background:new 0 0 140 140;" xml:space="preserve">
<g id="ilo">
	<g id="ilo_1_">
		<g>
			<path style="fill:#FFFFFF;stroke:#000000;stroke-width:5;stroke-miterlimit:10;" d="M70.413,98.981c0,17.121-11.879,31-29,31
				s-31-13.879-31-31c0-49,60-47.75,60-47.75S70.413,91.783,70.413,98.981z"/>
			<g>
				<line style="fill:#FFFFFF;" x1="24.663" y1="86.731" x2="39.976" y2="74.919"/>
				<path d="M23.594,85.346l15.16-12.01c0.866-0.686,2.124-0.54,2.81,0.326c0.686,0.866,0.54,2.124-0.326,2.81
					c-0.011,0.009-0.03,0.023-0.041,0.032L25.732,88.117c-0.773,0.58-1.87,0.424-2.45-0.348
					C22.711,87.008,22.854,85.933,23.594,85.346z"/>
			</g>
			<g>
				<line style="fill:#FFFFFF;" x1="31.413" y1="100.232" x2="48.413" y2="85.732"/>
				<path d="M30.278,98.9l16.838-14.69c0.832-0.726,2.096-0.64,2.822,0.192c0.726,0.832,0.64,2.096-0.192,2.822
					c-0.009,0.008-0.025,0.022-0.034,0.029l-17.162,14.31c-0.742,0.619-1.846,0.519-2.465-0.223
					C29.474,100.608,29.564,99.524,30.278,98.9z"/>
			</g>
		</g>
		<g>
			<path style="fill:#FFFFFF;stroke:#000000;stroke-width:5;stroke-miterlimit:10;" d="M70.413,98.981c0,17.121,11.879,31,29,31
				s31-13.879,31-31c0-49-60-47.75-60-47.75S70.413,91.783,70.413,98.981z"/>
			<g>
				<line style="fill:#FFFFFF;" x1="116.163" y1="86.731" x2="100.851" y2="74.919"/>
				<path d="M115.094,88.117L99.629,76.502c-0.883-0.663-1.062-1.917-0.398-2.8c0.663-0.883,1.917-1.062,2.8-0.398
					c0.011,0.008,0.03,0.023,0.041,0.032l15.16,12.01c0.758,0.6,0.885,1.701,0.285,2.459
					C116.927,88.549,115.85,88.684,115.094,88.117z"/>
			</g>
			<g>
				<line style="fill:#FFFFFF;" x1="109.413" y1="100.232" x2="92.413" y2="85.732"/>
				<path d="M108.277,101.563l-17.162-14.31c-0.848-0.707-0.963-1.969-0.255-2.817s1.969-0.963,2.817-0.255
					c0.009,0.007,0.025,0.021,0.034,0.029l16.838,14.69c0.728,0.635,0.804,1.741,0.168,2.469
					C110.091,102.088,109.006,102.17,108.277,101.563z"/>
			</g>
		</g>
		<g>
			<path style="fill:#FFFFFF;" d="M92.038,75.315v33.042c0,11.943-9.682,21.625-21.625,21.625l0,0
				c-11.943,0-21.625-9.682-21.625-21.625V75.315"/>
			<path d="M94.288,75.315c0,0,0.112,8.376,0.174,20.941c0.02,3.141,0.041,6.544,0.064,10.143c0.003,0.45,0.006,0.903,0.009,1.359
				l0.001,0.749l-0.017,0.69c0.001,0.426-0.064,1.052-0.098,1.572c-0.066,0.522-0.115,1.041-0.209,1.561
				c-0.343,2.081-0.966,4.165-1.891,6.154c-1.831,3.982-4.854,7.579-8.719,10.086c-3.874,2.527-8.457,3.926-13.251,3.91
				c-0.956-0.009-2.308-0.08-3.425-0.25c-1.153-0.179-2.3-0.407-3.414-0.75c-2.233-0.664-4.36-1.651-6.285-2.91
				c-3.865-2.507-6.889-6.105-8.719-10.086c-0.924-1.989-1.547-4.073-1.891-6.154c-0.172-1.04-0.276-2.08-0.307-3.108
				c-0.039-1.078-0.006-1.898-0.008-2.823c0.023-3.599,0.044-7.002,0.064-10.143c0.061-12.565,0.174-20.941,0.174-20.941h4.5
				c0,0,0.112,8.376,0.174,20.941c0.02,3.141,0.041,6.544,0.064,10.143c0.017,1.886-0.024,3.457,0.28,5.112
				c0.276,1.647,0.771,3.293,1.506,4.864c1.455,3.146,3.862,5.99,6.914,7.987c1.522,1.001,3.203,1.785,4.967,2.314
				c0.88,0.275,1.788,0.453,2.7,0.6c0.953,0.137,1.696,0.186,2.833,0.207l0.632-0.02c0.232-0.001,0.463-0.02,0.694-0.039
				c0.463-0.026,0.922-0.087,1.38-0.148c0.912-0.146,1.821-0.324,2.7-0.6c1.764-0.529,3.445-1.312,4.967-2.314
				c3.052-1.997,5.459-4.841,6.914-7.987c0.735-1.572,1.231-3.217,1.506-4.864c0.077-0.409,0.114-0.828,0.169-1.232
				c0.021-0.412,0.076-0.71,0.079-1.208l0.018-0.69l0.005-0.623c0.003-0.456,0.006-0.909,0.009-1.359
				c0.023-3.599,0.044-7.002,0.064-10.143c0.061-12.565,0.174-20.941,0.174-20.941H94.288z"/>
		</g>
		<g>
			<path style="fill:#FFFFFF;" d="M123.538,45.481c0,16.43-13.32,29.75-29.75,29.75h-46.75c-16.43,0-29.75-13.32-29.75-29.75l0,0
				c0-16.43,13.32-29.75,29.75-29.75h46.75C110.219,15.731,123.538,29.051,123.538,45.481L123.538,45.481z"/>
			<path d="M126.035,45.608c0,0-0.068,1.097-0.196,3.155c-0.329,2.325-0.838,5.587-2.502,9.389
				c-1.649,3.791-4.502,8.083-8.898,11.805c-2.242,1.787-4.794,3.52-7.77,4.77c-2.965,1.249-6.261,2.137-9.769,2.479
				c-0.879,0.037-1.766,0.075-2.663,0.112c-0.896,0.035-1.701-0.004-2.568-0.002c-1.709-0.01-3.45-0.02-5.222-0.031
				c-3.542-0.012-7.204-0.025-10.969-0.037c-7.53-0.041-15.47,0.034-23.684,0.047c-1.027,0.009-2.058,0.018-3.093,0.028
				l-1.556,0.014l-1.667-0.062l-1.566-0.065l-1.723-0.235c-0.573-0.087-1.161-0.154-1.724-0.265l-1.649-0.407
				c-4.395-1.122-8.607-3.221-12.211-6.15c-3.584-2.951-6.557-6.707-8.606-10.954c-1.06-2.108-1.797-4.372-2.362-6.67
				c-0.299-1.146-0.412-2.332-0.619-3.5c-0.085-0.587-0.086-1.181-0.131-1.772l-0.051-0.888l-0.025-0.444L14.8,45.703l-0.006-0.111
				c-0.001-0.093-0.007,0.052-0.003-0.238c0.066-1.106,0.082-2.16,0.188-3.309c0.194-1.206,0.31-2.474,0.6-3.626
				c0.545-2.307,1.265-4.584,2.311-6.709c2.02-4.28,4.977-8.084,8.562-11.088c3.605-2.981,7.837-5.141,12.274-6.307l1.665-0.424
				c0.559-0.115,1.127-0.182,1.689-0.274l1.688-0.25l1.696-0.087l1.681-0.075l1.556,0.002c1.035,0.001,2.066,0.002,3.093,0.003
				c8.214,0.005,16.154,0.01,23.684,0.014c3.765-0.004,7.427-0.008,10.969-0.012c1.771-0.002,3.512-0.004,5.222-0.006
				c0.427,0,0.853-0.001,1.276-0.001l0.633-0.001l0.443,0.008l0.314,0.016c0.837,0.041,1.666,0.082,2.487,0.123
				c3.717,0.379,6.978,1.307,9.976,2.591c2.994,1.289,5.553,3.058,7.796,4.878c4.397,3.788,7.223,8.126,8.846,11.944
				c1.643,3.84,2.111,7.115,2.418,9.31c0.139,2.219,0.179,3.405,0.179,3.405L126.035,45.608z M121.038,45.481
				c0,0-0.055-1.002-0.159-2.882c-0.275-1.852-0.664-4.615-2.057-7.85c-1.374-3.218-3.777-6.87-7.49-10.065
				c-1.901-1.524-4.055-3.023-6.581-4.098c-2.501-1.081-5.36-1.863-8.184-2.183c-0.82-0.042-1.649-0.085-2.486-0.128l-0.314-0.016
				l-0.079-0.004c-0.054-0.003,0.189,0.005,0.049,0.002l-0.158,0l-0.633-0.001c-0.423,0-0.849-0.001-1.276-0.001
				c-1.709-0.002-3.45-0.004-5.222-0.006c-3.542-0.004-7.204-0.008-10.969-0.012c-7.53,0.004-15.47,0.009-23.684,0.014
				c-1.027,0.001-2.058,0.002-3.093,0.003l-1.556,0.002l-1.438,0.072l-1.434,0.071l-1.422,0.219
				c-0.473,0.079-0.953,0.131-1.424,0.229l-1.4,0.364c-3.728,0.996-7.3,2.792-10.35,5.304c-3.03,2.532-5.532,5.741-7.243,9.346
				c-0.892,1.788-1.494,3.709-1.963,5.652c-0.25,0.969-0.313,1.896-0.496,2.845c-0.101,1.028-0.125,2.169-0.192,3.248
				c0.008-0.221,0.005-0.007,0.008-0.032l0.004,0.094l0.009,0.188l0.017,0.376l0.032,0.753c0.031,0.501,0.016,1.007,0.082,1.504
				c0.17,0.988,0.235,1.998,0.477,2.971c0.45,1.952,1.035,3.887,1.913,5.691c1.683,3.639,4.168,6.896,7.199,9.481
				c3.051,2.564,6.643,4.421,10.413,5.461l1.416,0.381c0.468,0.101,0.927,0.155,1.39,0.238l1.386,0.234l1.564,0.093l1.452,0.085
				l1.556,0.014c1.035,0.009,2.066,0.019,3.093,0.028c8.214,0.013,16.154,0.088,23.684,0.047c3.765-0.013,7.427-0.025,10.969-0.037
				c1.771-0.011,3.512-0.021,5.222-0.031c0.841-0.017,1.731,0.005,2.509-0.044c0.778-0.047,1.548-0.093,2.31-0.139
				c3.034-0.357,5.858-1.179,8.391-2.294c2.544-1.114,4.706-2.65,6.608-4.207c3.714-3.261,6.09-6.96,7.437-10.204
				c0.32-0.819,0.578-1.613,0.85-2.347c0.251-0.742,0.378-1.469,0.558-2.127c0.194-0.668,0.27-1.265,0.342-1.81
				c0.082-0.546,0.157-1.042,0.224-1.486c0.093-2.043,0.143-3.132,0.143-3.132L121.038,45.481z"/>
		</g>
		<g>
			<circle style="fill:#FFFFFF;" cx="70.413" cy="30.419" r="20.562"/>
			<path d="M93.223,30.533c0,0-0.031,0.504-0.089,1.448c-0.021,0.245-0.016,0.479-0.063,0.811c-0.051,0.334-0.108,0.699-0.168,1.093
				c-0.068,0.39-0.121,0.826-0.22,1.257c-0.112,0.421-0.231,0.868-0.357,1.341c-0.549,1.867-1.406,4.117-2.945,6.361
				c-1.513,2.245-3.627,4.531-6.409,6.367c-2.786,1.809-6.218,3.176-10.005,3.621c-0.47,0.072-0.951,0.064-1.432,0.098l-0.724,0.035
				l-0.364,0.017l-0.437-0.015c-0.904-0.053-1.732-0.032-2.821-0.222c-2.104-0.248-3.993-0.859-5.935-1.662
				c-1.918-0.819-3.708-1.979-5.381-3.314c-1.645-1.377-3.098-3.009-4.358-4.801c-1.227-1.82-2.176-3.838-2.873-5.952
				c-0.659-2.131-0.973-4.36-1.041-6.595l0.064-1.626c-0.002-0.472,0.082-1.069,0.166-1.656c0.125-1.197,0.419-2.264,0.692-3.349
				c0.661-2.137,1.579-4.19,2.786-6.052c1.234-1.839,2.686-3.514,4.345-4.925c1.684-1.372,3.492-2.57,5.436-3.423
				c1.941-0.835,3.947-1.487,5.974-1.747c1.005-0.199,2.016-0.205,3.011-0.267l0.187-0.01l0.093-0.005l0.047-0.002l0.169,0.004
				l0.332,0.017l0.66,0.034c0.456,0.034,0.836,0.02,1.347,0.093c1,0.159,2.057,0.256,2.94,0.526
				c0.457,0.119,0.912,0.237,1.362,0.354c0.438,0.158,0.872,0.314,1.303,0.469c1.729,0.612,3.267,1.511,4.69,2.424
				c2.808,1.91,4.909,4.272,6.392,6.573c1.511,2.299,2.33,4.584,2.845,6.471c0.117,0.477,0.228,0.929,0.332,1.354
				c0.089,0.428,0.13,0.837,0.19,1.213c0.116,0.754,0.199,1.396,0.2,1.922c0.041,1.048,0.063,1.607,0.063,1.607L93.223,30.533z
				 M88.726,30.419c0,0-0.029-0.449-0.083-1.291c-0.004-0.423-0.087-0.936-0.194-1.536c-0.055-0.3-0.089-0.626-0.169-0.966
				c-0.092-0.337-0.189-0.694-0.292-1.072c-0.446-1.493-1.126-3.296-2.37-5.09c-1.219-1.795-2.919-3.629-5.15-5.096
				c-1.135-0.697-2.354-1.371-3.706-1.849c-0.337-0.122-0.676-0.245-1.018-0.369c-0.353-0.089-0.709-0.179-1.067-0.27
				c-0.732-0.229-1.396-0.249-2.102-0.391c-0.345-0.062-0.845-0.054-1.264-0.085l-0.66-0.033l-0.332-0.016
				c-0.126-0.003,0.125,0.002,0.086,0.002l-0.037,0.002l-0.073,0.004l-0.147,0.007c-0.781,0.049-1.579,0.029-2.366,0.186
				c-1.595,0.176-3.166,0.684-4.702,1.315c-1.537,0.65-2.966,1.586-4.315,2.649c-1.32,1.105-2.484,2.415-3.504,3.846
				c-0.986,1.458-1.744,3.074-2.312,4.763c-0.23,0.862-0.491,1.734-0.588,2.547c-0.073,0.41-0.16,0.808-0.171,1.347l-0.089,1.397
				c0.027,1.8,0.235,3.599,0.729,5.328c0.532,1.712,1.26,3.363,2.225,4.864c0.994,1.477,2.156,2.831,3.491,3.969
				c1.359,1.1,2.807,2.073,4.369,2.758c0.373,0.21,0.79,0.311,1.179,0.473c0.397,0.141,0.782,0.319,1.193,0.404
				c0.405,0.107,0.807,0.213,1.208,0.319c0.399,0.102,0.776,0.13,1.162,0.203c0.702,0.165,1.684,0.172,2.556,0.23l0.166,0.009
				l0.083,0.005l0.042,0.002c0.036,0.002-0.166-0.006-0.063-0.004l0.3-0.017l0.597-0.032c0.395-0.031,0.793-0.017,1.18-0.08
				c3.11-0.378,5.931-1.495,8.184-3.031c2.257-1.542,3.944-3.451,5.133-5.303c1.216-1.85,1.857-3.687,2.27-5.2
				c0.094-0.383,0.183-0.745,0.267-1.085c0.07-0.336,0.091-0.636,0.138-0.922c0.043-0.284,0.082-0.546,0.118-0.787
				c0.037-0.243,0.029-0.541,0.044-0.767c0.037-0.945,0.057-1.45,0.057-1.45L88.726,30.419z"/>
		</g>
	</g>
</g>
<g id="Layer_1">
</g>
</svg>
