<?xml version="1.0" encoding="iso-8859-1"?>
<!-- Generator: Adobe Illustrator 19.2.0, SVG Export Plug-In . SVG Version: 6.00 Build 0)  -->
<!DOCTYPE svg PUBLIC "-//W3C//DTD SVG 1.1//EN" "http://www.w3.org/Graphics/SVG/1.1/DTD/svg11.dtd">
<svg version="1.1" xmlns="http://www.w3.org/2000/svg" xmlns:xlink="http://www.w3.org/1999/xlink" x="0px" y="0px"
	 viewBox="0 0 140 140" style="enable-background:new 0 0 140 140;" xml:space="preserve">
<g id="kepeken">
	<g id="kepeken_3_">
		<g>
			<path style="fill:#FFFFFF;" d="M37.525,25.835c0-11.833,3.843-15.917,8.583-15.917c6.667,0,7.583,9.931,7.583,15.5
				c0-5.569-0.084-15.5,7.416-15.5s7.583,9.931,7.583,15.5c0-5.569,2.918-15.5,10.418-15.5s5.766,18.1,5.766,18.1
				c4.785-4.682,13.081-8.974,16.982-4.694c4.537,4.978-2.291,17.093-4.309,19.866l-0.021,76.729c0,5.523-4.477,10-10,10h-40
				c-5.523,0-10-4.477-10-10V25.835z"/>
			<path d="M35.026,25.809l0.025-1.236c0.019-0.438,0.027-0.886,0.059-1.314c0.046-0.862,0.127-1.73,0.23-2.601
				c0.221-1.742,0.551-3.509,1.163-5.277c0.617-1.753,1.52-3.563,3.042-5.089c0.751-0.759,1.684-1.408,2.699-1.862
				c1.023-0.446,2.116-0.682,3.171-0.731c0.133-0.011,0.263-0.009,0.394-0.011l0.196-0.001l0.098,0l0.185,0.008
				c0.222,0.019,0.366,0.019,0.653,0.053c0.661,0.08,1.216,0.211,1.752,0.407c1.089,0.391,2.077,1.05,2.834,1.829
				c0.769,0.777,1.324,1.647,1.767,2.514c0.44,0.871,0.764,1.75,1.018,2.625c0.491,1.755,0.728,3.488,0.854,5.201
				c0.131,1.713,0.124,3.409,0.027,5.092l0,0.002h-3c-0.231-1.608-0.359-3.262-0.39-4.958c-0.005-1.696,0.096-3.438,0.507-5.238
				c0.198-0.902,0.49-1.815,0.92-2.727c0.428-0.909,1-1.828,1.788-2.643c0.789-0.809,1.814-1.469,2.893-1.87
				C58.45,7.78,59,7.64,59.543,7.549c0.269-0.035,0.545-0.086,0.809-0.1l0.397-0.015l0.198-0.006l0.099-0.003l0.197,0.002
				l0.603,0.031c0.253,0.021,0.594,0.067,0.884,0.109c0.572,0.102,1.097,0.243,1.641,0.446c1.074,0.403,2.087,1.063,2.856,1.877
				c1.562,1.636,2.309,3.545,2.732,5.321c0.435,1.79,0.552,3.534,0.567,5.231c-0.006,1.698-0.123,3.357-0.337,4.974l0,0.003
				l-3.001,0c-0.187-1.883-0.024-3.729,0.266-5.572c0.335-1.834,0.869-3.657,1.72-5.418c0.843-1.756,2.036-3.474,3.758-4.851
				c0.866-0.672,1.869-1.235,2.951-1.608c0.54-0.187,1.098-0.327,1.658-0.42c0.28-0.036,0.563-0.092,0.843-0.103l0.421-0.02
				l0.21-0.008l0.053-0.002l0.146,0.001l0.081,0.003l0.161,0.005c0.047,0.001,0.104,0.003,0.223,0.014
				c0.195,0.019,0.42,0.039,0.59,0.072c0.344,0.059,0.689,0.146,1.026,0.262c0.675,0.232,1.306,0.585,1.841,1
				c1.078,0.839,1.78,1.854,2.282,2.831c0.982,1.968,1.391,3.868,1.645,5.727c0.254,1.857,0.309,3.679,0.274,5.481
				c-0.029,0.901-0.082,1.796-0.154,2.689c-0.067,0.902-0.169,1.763-0.319,2.7l0,0.007l-3.39-1.62
				c1.27-1.331,2.65-2.527,4.141-3.601c1.504-1.055,3.111-1.996,4.895-2.729c0.892-0.368,1.836-0.663,2.843-0.868
				c1.007-0.198,2.08-0.314,3.229-0.204c1.139,0.109,2.362,0.436,3.447,1.098c0.538,0.329,1.048,0.716,1.479,1.16l0.166,0.164
				l0.211,0.246l0.202,0.247l0.101,0.123l0.15,0.214l0.299,0.459c0.68,1.142,0.992,2.254,1.158,3.358
				c0.157,1.096,0.147,2.14,0.059,3.138c-0.179,1.999-0.672,3.817-1.276,5.559c-0.616,1.733-1.335,3.393-2.157,4.992
				c-0.415,0.798-0.851,1.583-1.314,2.359c-0.469,0.782-0.938,1.532-1.535,2.349l-0.005,0.007l0.479-1.47l0.188,60.555l0.006,15.139
				l0,0.946l-0.011,0.373l-0.012,0.236l-0.024,0.472c0,0.13-0.035,0.378-0.064,0.594l-0.097,0.66
				c-0.06,0.459-0.182,0.799-0.277,1.203c-0.435,1.547-1.169,3.007-2.144,4.277c-1.94,2.55-4.884,4.322-8.064,4.819
				c-0.397,0.063-0.793,0.126-1.194,0.135c-0.385,0.019-0.845,0.046-1.121,0.039l-1.892,0.001l-3.785,0.001l-7.569,0.003
				l-15.139,0.005l-7.569,0.003l-3.923-0.004l-0.945-0.047c-0.404-0.042-0.873-0.112-1.304-0.181
				c-0.816-0.167-1.571-0.385-2.325-0.686c-2.994-1.193-5.468-3.565-6.803-6.49c-0.671-1.459-1.058-3.051-1.137-4.648l-0.027-0.599
				l-0.002-0.489l0.002-0.946l0.004-1.892l0.068-30.278l0.137-60.555L35.026,25.809z M40.025,25.835l0.137,60.555l0.068,30.278
				l0.004,1.892l0.002,0.946l0.004,0.457l0.021,0.346c0.05,0.92,0.274,1.821,0.661,2.652c0.765,1.667,2.203,3.017,3.899,3.696
				c0.418,0.169,0.879,0.296,1.298,0.387c0.193,0.022,0.347,0.06,0.568,0.095l0.945,0.048l3.646-0.001l7.569,0.003l15.139,0.005
				l7.569,0.003l3.785,0.001l1.892,0.001c0.355,0.007,0.524-0.02,0.77-0.027c0.232,0.003,0.458-0.042,0.684-0.077
				c1.81-0.281,3.495-1.29,4.613-2.756c0.56-0.729,0.979-1.562,1.228-2.443c0.043-0.211,0.142-0.469,0.15-0.639l0.046-0.276
				c0.017-0.096,0.043-0.159,0.046-0.345l0.04-0.809l0.001-0.946l0.014-15.139l0.221-60.555c0.002-0.541,0.174-1.042,0.465-1.452
				l0.014-0.019l0.004-0.005c0.394-0.566,0.817-1.267,1.205-1.954c0.392-0.694,0.765-1.406,1.118-2.125
				c0.716-1.435,1.356-2.901,1.873-4.376c0.497-1.472,0.911-2.959,1.055-4.351c0.073-0.694,0.082-1.361,0.007-1.951
				c-0.065-0.577-0.251-1.126-0.436-1.451c-0.016-0.025-0.029-0.052-0.039-0.082c-0.009-0.018-0.001-0.022-0.023-0.054l-0.099-0.125
				l-0.198-0.25l-0.05-0.062l-0.025-0.031l-0.006-0.008c0.196,0.228,0.052,0.061,0.095,0.111l-0.008-0.007l-0.06-0.061
				c-0.151-0.177-0.324-0.309-0.503-0.435c-0.359-0.246-0.814-0.397-1.359-0.477c-1.104-0.154-2.519,0.122-3.901,0.603
				c-1.395,0.483-2.789,1.188-4.115,2.016c-1.335,0.817-2.621,1.758-3.785,2.804l-0.133,0.12c-0.807,0.725-2.049,0.658-2.774-0.149
				c-0.402-0.448-0.559-1.038-0.483-1.591l0.001-0.004l-0.026-2.457c-0.019-0.828-0.057-1.655-0.116-2.476
				c-0.097-1.641-0.265-3.264-0.532-4.812c-0.281-1.533-0.668-3.035-1.258-4.142c-0.295-0.543-0.617-0.963-0.902-1.185
				c-0.31-0.222-0.462-0.306-0.945-0.328l-0.381,0.012c-0.151-0.003-0.293,0.028-0.44,0.036c-0.29,0.035-0.573,0.094-0.851,0.177
				c-0.554,0.165-1.087,0.429-1.597,0.79c-1.04,0.7-1.952,1.815-2.725,3.088c-0.765,1.282-1.391,2.73-1.874,4.239
				c-0.518,1.503-0.838,3.09-1.046,4.652l-0.046,0.349c-0.108,0.814-0.856,1.387-1.67,1.279c-0.8-0.106-1.366-0.831-1.284-1.628
				l0-0.003c-0.212-1.603-0.362-3.166-0.607-4.68c-0.226-1.511-0.543-2.976-0.981-4.288c-0.455-1.302-1.056-2.441-1.791-3.093
				c-0.368-0.327-0.739-0.56-1.176-0.713c-0.213-0.074-0.469-0.135-0.689-0.171l-0.313-0.04l-0.603-0.02l-0.019-0.001l-0.009,0
				c0.212,0.005,0.055,0.002,0.101,0.003l-0.026,0.002l-0.052,0.004l-0.103,0.007l-0.206,0.01c-0.139,0.001-0.259,0.03-0.39,0.039
				c-0.252,0.036-0.485,0.091-0.701,0.166c-0.431,0.152-0.804,0.367-1.148,0.703c-0.723,0.634-1.302,1.775-1.739,3.079
				c-0.426,1.313-0.721,2.783-0.938,4.297c-0.241,1.518-0.378,3.086-0.606,4.697l-0.056,0.395c-0.115,0.812-0.866,1.378-1.679,1.263
				c-0.805-0.114-1.368-0.854-1.266-1.658l0-0.002c-0.102-1.585-0.259-3.159-0.498-4.695c-0.246-1.532-0.597-3.032-1.111-4.389
				c-0.495-1.352-1.178-2.586-2.009-3.306c-0.415-0.357-0.835-0.599-1.295-0.736c-0.236-0.075-0.486-0.103-0.636-0.123
				c-0.119-0.014-0.385-0.012-0.57-0.019l-0.038-0.001l-0.019,0l-0.01,0c-0.027-0.001,0.197,0.005,0.099,0.003l-0.055,0.004
				l-0.11,0.007c-0.073,0.005-0.148,0.006-0.218,0.017c-0.577,0.057-1.096,0.208-1.562,0.441c-0.464,0.237-0.894,0.541-1.276,0.96
				c-0.773,0.82-1.379,2.009-1.794,3.346c-0.42,1.337-0.697,2.799-0.857,4.301c-0.076,0.754-0.137,1.514-0.166,2.285
				c-0.023,0.388-0.022,0.757-0.034,1.136l-0.006,1.215L40.025,25.835z"/>
		</g>
		<g>
			<path d="M98.444,47.314c0,0-0.181,0.189-0.52,0.543c-0.35,0.353-0.804,0.877-1.526,1.529c-0.69,0.673-1.561,1.421-2.567,2.269
				c-0.521,0.404-1.076,0.834-1.66,1.287c-0.607,0.423-1.245,0.871-1.924,1.317c-1.377,0.862-2.892,1.776-4.585,2.57
				c-1.676,0.827-3.512,1.567-5.464,2.167c-1.943,0.635-4.016,1.066-6.13,1.416c-2.139,0.334-4.255,0.47-6.514,0.505
				c-2.028-0.03-4.337-0.191-6.423-0.508c-2.111-0.347-4.177-0.773-6.124-1.378c-1.952-0.582-3.795-1.287-5.483-2.08
				c-1.704-0.76-3.238-1.635-4.634-2.465c-0.691-0.427-1.338-0.862-1.956-1.269c-0.596-0.439-1.161-0.856-1.692-1.248
				c-1.029-0.826-1.916-1.555-2.606-2.203c-0.715-0.619-1.216-1.171-1.577-1.525c-0.355-0.36-0.545-0.552-0.545-0.552l1.856-1.856
				c0,0,0.189,0.168,0.544,0.484c0.357,0.313,0.862,0.79,1.555,1.34c0.671,0.576,1.533,1.216,2.526,1.941
				c0.511,0.341,1.055,0.704,1.628,1.087c0.594,0.35,1.2,0.746,1.856,1.122c1.32,0.733,2.766,1.505,4.365,2.163
				c1.584,0.692,3.312,1.28,5.116,1.816c1.804,0.543,3.718,0.916,5.669,1.22c1.989,0.274,3.858,0.396,6.011,0.414
				c1.921-0.019,3.987-0.12,5.92-0.41c1.945-0.305,3.855-0.679,5.646-1.248c1.794-0.549,3.506-1.167,5.073-1.887
				c1.584-0.686,3.008-1.493,4.31-2.255c0.637-0.407,1.247-0.796,1.827-1.167c0.565-0.396,1.1-0.772,1.604-1.126
				c0.979-0.751,1.826-1.411,2.474-1.986c0.663-0.545,1.198-1.066,1.557-1.39c0.361-0.332,0.553-0.509,0.553-0.509L98.444,47.314z"
				/>
		</g>
		<g>
			<path d="M59.998,71.794c0,0-0.403-0.077-1.109-0.212c-0.682-0.125-1.785-0.372-2.994-0.709c-0.614-0.162-1.273-0.36-1.963-0.594
				c-0.697-0.211-1.409-0.501-2.155-0.772c-0.731-0.31-1.498-0.604-2.247-0.97c-0.761-0.341-1.51-0.736-2.261-1.128
				c-0.737-0.416-1.482-0.819-2.182-1.271c-0.714-0.43-1.387-0.897-2.043-1.343c-0.641-0.465-1.267-0.908-1.833-1.363
				c-0.57-0.45-1.107-0.878-1.581-1.297c-0.966-0.819-1.73-1.547-2.256-2.064c-0.524-0.519-0.824-0.816-0.824-0.816l1.789-1.746
				c0,0,0.284,0.281,0.781,0.773c0.499,0.49,1.222,1.18,2.136,1.954c0.449,0.397,0.956,0.801,1.494,1.226
				c0.534,0.43,1.125,0.847,1.73,1.286c0.618,0.42,1.252,0.861,1.924,1.265c0.659,0.426,1.36,0.804,2.053,1.196
				c0.706,0.367,1.41,0.739,2.125,1.059c0.703,0.345,1.425,0.62,2.111,0.912c0.701,0.253,1.369,0.527,2.024,0.725
				c0.648,0.22,1.266,0.406,1.844,0.558c1.164,0.321,2.068,0.528,2.798,0.663c0.706,0.135,1.109,0.212,1.109,0.212L59.998,71.794z"
				/>
		</g>
		<g>
			<path d="M98.382,59.918c0,0-0.286,0.269-0.787,0.741c-0.493,0.456-1.303,1.185-2.25,1.919c-1.899,1.526-4.619,3.305-7.506,4.756
				c-2.886,1.455-5.921,2.578-8.249,3.241c-1.16,0.345-2.142,0.582-2.831,0.736c-0.69,0.152-1.085,0.239-1.085,0.239l-0.496-2.45
				c0,0,0.373-0.082,1.027-0.226c0.653-0.145,1.583-0.37,2.684-0.698c2.208-0.628,5.092-1.696,7.827-3.074
				c2.735-1.375,5.302-3.054,7.08-4.484c0.915-0.714,1.569-1.301,2.086-1.778c0.501-0.471,0.787-0.741,0.787-0.741L98.382,59.918z"
				/>
		</g>
		<g>
			<path d="M79.564,57.892c0,0,0.006,0.174,0.017,0.501c0.011,0.313,0.026,0.842,0.015,1.475c-0.028,1.268-0.071,3.095-0.465,5.291
				c-0.199,1.097-0.464,2.289-0.889,3.538c-0.424,1.246-0.985,2.565-1.854,3.831c-0.857,1.261-2.031,2.494-3.544,3.346
				c-1.499,0.877-3.275,1.273-4.943,1.292c-0.536-0.016-0.674-0.007-1.224-0.069c-0.475-0.042-0.881-0.129-1.305-0.217
				c-0.841-0.199-1.663-0.517-2.42-0.929c-1.532-0.822-2.725-2.046-3.606-3.297c-0.883-1.262-1.462-2.579-1.89-3.827
				c-0.433-1.25-0.703-2.443-0.903-3.541c-0.399-2.198-0.441-4.025-0.469-5.294c-0.012-1.27,0.032-1.991,0.032-1.991h3.2
				c0,0,0.028,0.674,0.12,1.84c0.087,1.164,0.282,2.826,0.697,4.732c0.414,1.891,1.136,4.069,2.392,5.832
				c0.633,0.867,1.396,1.609,2.3,2.073c0.45,0.236,0.93,0.417,1.442,0.531c0.257,0.046,0.533,0.103,0.752,0.116
				c0.14,0.034,0.702,0.036,0.861,0.042c1.111-0.006,2.145-0.228,3.029-0.731c0.894-0.483,1.655-1.234,2.275-2.12
				c1.243-1.785,1.957-3.969,2.367-5.864c0.412-1.909,0.606-3.571,0.693-4.736c0.04-0.583,0.072-1.042,0.094-1.354
				c0.017-0.326,0.026-0.501,0.026-0.501L79.564,57.892z"/>
		</g>
	</g>
</g>
<g id="Layer_1">
</g>
</svg>
