<?xml version="1.0" encoding="iso-8859-1"?>
<!-- Generator: Adobe Illustrator 19.2.0, SVG Export Plug-In . SVG Version: 6.00 Build 0)  -->
<!DOCTYPE svg PUBLIC "-//W3C//DTD SVG 1.1//EN" "http://www.w3.org/Graphics/SVG/1.1/DTD/svg11.dtd">
<svg version="1.1" xmlns="http://www.w3.org/2000/svg" xmlns:xlink="http://www.w3.org/1999/xlink" x="0px" y="0px"
	 viewBox="0 0 140 140" style="enable-background:new 0 0 140 140;" xml:space="preserve">
<g id="suno">
	<g id="suno_1_">
		<circle style="fill:#FFFFFF;stroke:#000000;stroke-width:5;stroke-miterlimit:10;" cx="70.31" cy="70.02" r="60"/>
		<g>
			<circle style="fill:#FFFFFF;stroke:#000000;stroke-width:5;stroke-miterlimit:10;" cx="70.31" cy="70.02" r="18"/>
			<g>
				<path d="M72.163,7.959c0,0,0.136,0.125,0.392,0.36c0.266,0.259,0.605,0.524,1.132,1.073c0.255,0.26,0.537,0.547,0.844,0.86
					c0.281,0.316,0.584,0.658,0.908,1.024c0.633,0.742,1.321,1.602,2.002,2.59c0.693,0.979,1.364,2.094,2.022,3.3
					c0.628,1.221,1.25,2.532,1.754,3.942c0.538,1.398,0.937,2.896,1.284,4.425c0.306,1.539,0.548,3.117,0.63,4.706
					c0.063,0.813,0.05,1.544,0.063,2.424c-0.023,0.731-0.041,1.455-0.119,2.293c-0.143,1.594-0.365,3.093-0.717,4.549
					c-0.348,1.446-0.753,2.83-1.253,4.098c-0.486,1.273-1.02,2.447-1.58,3.494c-0.544,1.056-1.122,1.98-1.652,2.784
					c-0.535,0.801-1.028,1.482-1.461,2.02c-0.42,0.549-0.778,0.957-1.02,1.237c-0.242,0.28-0.37,0.43-0.37,0.43l-3-2.646
					c0,0,0.11-0.133,0.315-0.383c0.207-0.249,0.513-0.612,0.869-1.1c0.369-0.478,0.786-1.082,1.237-1.79
					c0.447-0.711,0.935-1.525,1.386-2.453c0.468-0.92,0.91-1.949,1.307-3.061c0.412-1.107,0.733-2.313,1.008-3.568
					c0.278-1.248,0.443-2.598,0.534-3.906c0.05-0.614,0.058-1.358,0.064-2.101c-0.031-0.592-0.029-1.344-0.1-2.005
					c-0.099-1.366-0.339-2.715-0.626-4.027c-0.328-1.302-0.692-2.576-1.179-3.758c-0.453-1.195-1.011-2.3-1.565-3.329
					c-0.584-1.014-1.173-1.951-1.78-2.77c-0.596-0.828-1.197-1.546-1.747-2.164c-0.28-0.303-0.543-0.587-0.785-0.85
					c-0.245-0.239-0.469-0.458-0.672-0.657c-0.189-0.194-0.39-0.38-0.591-0.55c-0.189-0.166-0.349-0.308-0.479-0.422
					c-0.26-0.229-0.399-0.352-0.399-0.352L72.163,7.959z"/>
			</g>
			<g>
				<path d="M8.603,67.761c0,0,0.128-0.135,0.367-0.387c0.261-0.262,0.54-0.6,1.099-1.121c0.264-0.251,0.557-0.53,0.876-0.833
					c0.322-0.276,0.669-0.575,1.041-0.894c0.756-0.621,1.634-1.294,2.634-1.965c0.999-0.673,2.124-1.336,3.35-1.967
					c1.238-0.605,2.56-1.217,3.988-1.69c1.417-0.5,2.919-0.907,4.467-1.197c1.544-0.32,3.141-0.463,4.733-0.554l1.196-0.021
					c0.219,0,0.354-0.014,0.641-0.002l0.555,0.019c0.705,0.009,1.558,0.089,2.361,0.154c1.561,0.176,3.082,0.455,4.532,0.814
					c2.895,0.749,5.479,1.842,7.556,3.011c2.087,1.155,3.682,2.349,4.752,3.229c0.543,0.432,0.942,0.803,1.219,1.051
					c0.276,0.249,0.423,0.381,0.423,0.381l-2.712,2.94c0,0-0.131-0.113-0.378-0.325c-0.246-0.212-0.602-0.53-1.084-0.896
					c-0.95-0.749-2.364-1.761-4.2-2.727c-1.826-0.979-4.087-1.876-6.601-2.472c-1.26-0.283-2.578-0.496-3.927-0.62
					c-0.656-0.034-1.271-0.093-2.047-0.089l-0.555-0.007c-0.084-0.005-0.319,0.011-0.471,0.015l-1.03,0.039
					c-1.369,0.111-2.737,0.257-4.053,0.562c-1.321,0.275-2.596,0.651-3.796,1.103c-1.21,0.426-2.325,0.977-3.369,1.511
					c-1.032,0.561-1.977,1.143-2.814,1.734c-0.838,0.588-1.571,1.176-2.202,1.716c-0.31,0.277-0.599,0.536-0.867,0.776
					c-0.244,0.242-0.468,0.464-0.67,0.665c-0.393,0.366-0.766,0.818-0.991,1.054c-0.234,0.257-0.359,0.395-0.359,0.395L8.603,67.761
					z"/>
			</g>
			<g>
				<path d="M68.052,131.726c0,0-0.131-0.125-0.377-0.358c-0.257-0.258-0.583-0.523-1.091-1.067
					c-0.246-0.258-0.517-0.543-0.813-0.854c-0.27-0.314-0.563-0.653-0.875-1.015c-0.609-0.734-1.272-1.585-1.927-2.56
					c-0.667-0.967-1.313-2.064-1.945-3.251c-0.605-1.2-1.202-2.489-1.688-3.872c-0.519-1.371-0.9-2.84-1.237-4.338
					c-0.291-1.508-0.531-3.052-0.608-4.608c-0.066-0.797-0.046-1.508-0.065-2.376c0.024-0.72,0.038-1.419,0.113-2.24
					c0.133-1.564,0.347-3.03,0.682-4.457c0.645-2.842,1.637-5.394,2.707-7.456c0.521-1.039,1.074-1.951,1.583-2.745
					c0.513-0.791,0.986-1.465,1.401-1.998c0.403-0.543,0.747-0.949,0.98-1.226c0.232-0.278,0.356-0.426,0.356-0.426l3.044,2.595
					c0,0-0.105,0.132-0.302,0.38c-0.198,0.247-0.492,0.607-0.833,1.09c-0.354,0.473-0.753,1.071-1.185,1.77
					c-0.428,0.701-0.894,1.505-1.326,2.419c-0.892,1.812-1.702,4.043-2.206,6.51c-0.263,1.222-0.422,2.546-0.503,3.824
					c-0.049,0.6-0.051,1.339-0.059,2.062c0.036,0.572,0.027,1.314,0.101,1.959c0.093,1.338,0.333,2.658,0.606,3.943
					c0.32,1.275,0.668,2.524,1.139,3.684c0.438,1.172,0.974,2.258,1.509,3.269c0.562,0.998,1.129,1.92,1.715,2.729
					c0.574,0.817,1.154,1.527,1.684,2.139c0.27,0.301,0.523,0.582,0.757,0.842c0.236,0.237,0.453,0.455,0.648,0.652
					c0.357,0.384,0.806,0.749,1.033,0.968c0.251,0.228,0.385,0.35,0.385,0.35L68.052,131.726z"/>
			</g>
			<g>
				<path d="M132.375,71.866c0,0-0.126,0.137-0.362,0.394c-0.261,0.268-0.526,0.608-1.079,1.138c-0.261,0.256-0.55,0.54-0.864,0.849
					c-0.318,0.282-0.662,0.587-1.029,0.912c-0.746,0.635-1.612,1.326-2.605,2.011c-0.986,0.695-2.107,1.368-3.32,2.029
					c-1.231,0.625-2.547,1.253-3.968,1.754c-2.821,1.053-5.993,1.712-9.186,1.898c-0.814,0.046-1.561,0.053-2.428,0.049
					l-1.108-0.038l-1.21-0.09c-1.594-0.153-3.105-0.384-4.565-0.744c-1.452-0.36-2.84-0.775-4.112-1.284
					c-1.275-0.499-2.453-1.041-3.501-1.612c-1.057-0.554-1.982-1.141-2.787-1.68c-0.801-0.544-1.482-1.044-2.02-1.484
					c-0.549-0.426-0.956-0.79-1.236-1.035c-0.28-0.245-0.429-0.376-0.429-0.376l2.67-2.979c0,0,0.133,0.111,0.383,0.32
					c0.249,0.21,0.611,0.521,1.099,0.882c0.477,0.375,1.082,0.798,1.789,1.258c0.711,0.454,1.526,0.95,2.456,1.411
					c0.921,0.479,1.954,0.926,3.068,1.335c1.111,0.419,2.321,0.75,3.581,1.036c1.255,0.285,2.605,0.457,3.928,0.557l0.99,0.056
					l1.109,0.014c0.614-0.015,1.356-0.032,2.025-0.087c1.373-0.106,2.733-0.323,4.051-0.618c1.312-0.319,2.591-0.688,3.782-1.172
					c1.204-0.45,2.313-1.014,3.351-1.565c1.019-0.587,1.962-1.177,2.787-1.787c0.832-0.599,1.555-1.202,2.177-1.754
					c0.305-0.282,0.591-0.546,0.855-0.79c0.24-0.246,0.461-0.472,0.66-0.676c0.196-0.191,0.382-0.391,0.553-0.593
					c0.167-0.19,0.309-0.351,0.424-0.482c0.23-0.262,0.353-0.401,0.353-0.401L132.375,71.866z"/>
			</g>
		</g>
	</g>
</g>
<g id="Layer_1">
</g>
</svg>
