<?xml version="1.0" encoding="iso-8859-1"?>
<!-- Generator: Adobe Illustrator 19.2.0, SVG Export Plug-In . SVG Version: 6.00 Build 0)  -->
<!DOCTYPE svg PUBLIC "-//W3C//DTD SVG 1.1//EN" "http://www.w3.org/Graphics/SVG/1.1/DTD/svg11.dtd">
<svg version="1.1" xmlns="http://www.w3.org/2000/svg" xmlns:xlink="http://www.w3.org/1999/xlink" x="0px" y="0px"
	 viewBox="0 0 125 125" style="enable-background:new 0 0 125 125;" xml:space="preserve">
<g id="ijo">
	<g id="ijo_1_">
		<path style="fill:#FFFFFF;stroke:#000000;stroke-width:5;stroke-miterlimit:10;" d="M32.5,122.5c-16.569,0-30-13.431-30-30
			c0-8.284,3.358-15.784,8.787-21.213l58.476-58.359C75.265,6.543,83.41,2.5,92.5,2.5c16.569,0,30,13.431,30,30v60
			c0,16.569-13.431,30-30,30H32.5z"/>
		
			<ellipse transform="matrix(0.9397 -0.342 0.342 0.9397 -12.6771 18.1047)" style="fill:#FFFFFF;stroke:#000000;stroke-width:5;stroke-miterlimit:10;" cx="45" cy="45" rx="40" ry="40"/>
		<g>
			<path style="fill:none;stroke:#000000;stroke-width:4;stroke-miterlimit:10;" d="M42.767,6.704l13.855,38.065
				c2.147,5.899-0.74,12.366-6.449,14.443l0,0c-5.709,2.078-12.077-1.02-14.224-6.919L22.094,14.229"/>
			
				<ellipse transform="matrix(0.9397 -0.342 0.342 0.9397 -17.264 11.0282)" style="fill:none;stroke:#000000;stroke-width:3;stroke-miterlimit:10;" cx="22.64" cy="54.469" rx="8.25" ry="8.25"/>
			
				<ellipse transform="matrix(0.9397 -0.342 0.342 0.9397 -8.8421 25.6154)" style="fill:none;stroke:#000000;stroke-width:3;stroke-miterlimit:10;" cx="68.215" cy="37.881" rx="8.25" ry="8.25"/>
		</g>
		<path style="fill:none;stroke:#000000;stroke-width:4;stroke-miterlimit:10;" d="M3.183,98.244
			c3.906-5.945,10.635-9.869,18.28-9.869c12.071,0,21.857,9.786,21.857,21.857c0,4.498-1.359,8.679-3.688,12.154"/>
		<path style="fill:none;stroke:#000000;stroke-width:3;stroke-miterlimit:10;" d="M7.206,107.734
			c1.819-5.16,6.738-8.858,12.521-8.858c7.33,0,13.272,5.942,13.272,13.272c0,2.731-0.825,5.27-2.24,7.38
			c-0.758,1.131-1.686,2.139-2.747,2.988"/>
		<g>
			<path d="M75.727,71.338l17.296,16.707c0.596,0.576,0.612,1.525,0.037,2.121c-0.56,0.58-1.478,0.609-2.076,0.079L73.008,74.272
				c-0.826-0.734-0.9-1.998-0.167-2.824s1.998-0.9,2.824-0.167C75.685,71.298,75.709,71.321,75.727,71.338z"/>
		</g>
		<g>
			<path d="M81.506,61.335l22.776,13.814c0.708,0.43,0.934,1.352,0.505,2.061c-0.419,0.691-1.311,0.922-2.012,0.533l-23.278-12.95
				c-0.965-0.537-1.313-1.755-0.776-2.721s1.755-1.313,2.721-0.776C81.46,61.308,81.487,61.324,81.506,61.335z"/>
		</g>
	</g>
</g>
<g id="Layer_1">
</g>
</svg>
