<?xml version="1.0" encoding="iso-8859-1"?>
<!-- Generator: Adobe Illustrator 19.2.0, SVG Export Plug-In . SVG Version: 6.00 Build 0)  -->
<!DOCTYPE svg PUBLIC "-//W3C//DTD SVG 1.1//EN" "http://www.w3.org/Graphics/SVG/1.1/DTD/svg11.dtd">
<svg version="1.1" xmlns="http://www.w3.org/2000/svg" xmlns:xlink="http://www.w3.org/1999/xlink" x="0px" y="0px"
	 viewBox="0 0 125 125" style="enable-background:new 0 0 125 125;" xml:space="preserve">
<g id="nena">
	<g id="nena_1_">
		<path style="fill:#FFFFFF;stroke:#000000;stroke-width:5;stroke-linecap:round;stroke-linejoin:round;stroke-miterlimit:10;" d="
			M14.25,92.5V59.498C14.25,26.361,38.483,2.5,68.375,2.5l24.125,0c16.569,0,30,13.431,30,30l0,26.998V92.5
			c0,16.569-12.116,30-27.062,30H41.312H2.5C2.5,122.5,14.25,115.25,14.25,92.5z"/>
		<g>
			<ellipse style="fill:#FFFFFF;" cx="53.124" cy="91.375" rx="16.625" ry="18.625"/>
			<path d="M71.847,91.47c0,0-0.021,0.432-0.061,1.243c-0.01,0.203-0.022,0.43-0.035,0.68c-0.037,0.285-0.078,0.596-0.122,0.932
				c-0.047,0.335-0.097,0.696-0.151,1.081c-0.069,0.374-0.168,0.751-0.259,1.16c-0.363,1.626-1.026,3.571-2.172,5.61
				c-1.137,2.035-2.777,4.174-5.06,5.988c-2.253,1.835-5.254,3.214-8.601,3.68c-0.414,0.088-0.842,0.072-1.267,0.107l-0.642,0.033
				l-0.322,0.015l-0.402-0.016c-0.381-0.02-0.765-0.04-1.15-0.061l-0.29-0.015l-0.345-0.052l-0.694-0.11
				c-0.959-0.12-1.783-0.403-2.658-0.648c-0.834-0.335-1.708-0.623-2.498-1.087c-1.639-0.823-3.128-1.962-4.455-3.267
				c-1.35-1.292-2.467-2.827-3.403-4.463c-0.963-1.629-1.622-3.427-2.122-5.258l-0.323-1.39c-0.089-0.467-0.14-0.941-0.211-1.411
				c-0.075-0.471-0.127-0.944-0.137-1.42l-0.065-1.521l0.063-1.297l0.036-0.654l0.097-0.741c0.07-0.49,0.126-0.994,0.217-1.471
				l0.323-1.39c0.5-1.831,1.159-3.629,2.122-5.258c0.936-1.636,2.053-3.171,3.403-4.463c1.327-1.306,2.816-2.444,4.455-3.267
				c0.79-0.464,1.664-0.752,2.498-1.087c0.87-0.245,1.721-0.53,2.604-0.639c0.87-0.183,1.747-0.207,2.611-0.25l0.162-0.008
				l0.081-0.004l0.04-0.002l0.15,0.004l0.285,0.015l0.566,0.03c0.397,0.034,0.702,0.007,1.178,0.097
				c0.885,0.134,1.772,0.271,2.532,0.523c0.799,0.195,1.54,0.511,2.272,0.814c0.731,0.303,1.396,0.709,2.066,1.069
				c0.62,0.435,1.273,0.81,1.824,1.284c2.283,1.814,3.924,3.953,5.06,5.988c1.146,2.039,1.808,3.983,2.172,5.61
				c0.091,0.407,0.191,0.791,0.259,1.156c0.052,0.368,0.101,0.712,0.146,1.033c0.044,0.321,0.085,0.618,0.122,0.89
				c0.015,0.274,0.028,0.522,0.04,0.745c0.042,0.891,0.064,1.367,0.064,1.367L71.847,91.47z M67.649,91.375
				c0,0-0.017-0.389-0.048-1.119c-0.007-0.183-0.016-0.386-0.025-0.611c-0.03-0.222-0.063-0.465-0.098-0.727
				c-0.034-0.262-0.071-0.544-0.11-0.845c-0.053-0.298-0.136-0.609-0.207-0.942c-0.282-1.328-0.812-2.909-1.724-4.556
				c-0.902-1.646-2.206-3.361-3.985-4.797c-0.428-0.381-0.939-0.662-1.415-1.015c-0.52-0.274-1.029-0.602-1.591-0.835
				c-0.562-0.233-1.127-0.489-1.737-0.635c-0.614-0.213-1.183-0.282-1.765-0.397c-0.253-0.076-0.704-0.064-1.057-0.097l-0.566-0.034
				l-0.284-0.017c-0.113-0.003,0.113,0.001,0.079,0.002l-0.031,0.002l-0.062,0.004L52.9,74.765c-0.66,0.044-1.332,0.055-1.993,0.208
				c-0.674,0.079-1.32,0.317-1.986,0.498c-0.635,0.273-1.308,0.481-1.914,0.854c-1.263,0.638-2.42,1.542-3.462,2.581
				c-1.063,1.023-1.944,2.263-2.689,3.583c-0.771,1.312-1.286,2.779-1.686,4.268l-0.256,1.133c-0.068,0.372-0.098,0.73-0.154,1.095
				l-0.078,0.545l-0.03,0.642l-0.054,1.297c0.005-0.177,0.002-0.028,0.004-0.058l0.002,0.036l0.003,0.073l0.007,0.146l0.013,0.292
				l0.024,0.584c0.001,0.391,0.043,0.778,0.104,1.162c0.056,0.384,0.091,0.773,0.161,1.154l0.256,1.133
				c0.4,1.489,0.915,2.956,1.686,4.268c0.745,1.32,1.626,2.56,2.689,3.583c1.042,1.039,2.199,1.943,3.462,2.581
				c0.606,0.373,1.279,0.581,1.914,0.854c0.661,0.181,1.334,0.422,1.932,0.49l0.458,0.087l0.228,0.046l0.29,0.017
				c0.386,0.023,0.769,0.046,1.15,0.069l0.143,0.009l0.071,0.004l0.036,0.002c0.037,0.002-0.193-0.007-0.081-0.004l0.247-0.017
				l0.491-0.031c0.325-0.032,0.653-0.009,0.968-0.087c2.545-0.382,4.843-1.432,6.601-2.892c1.779-1.436,3.083-3.151,3.985-4.797
				c0.912-1.647,1.442-3.228,1.724-4.556c0.071-0.33,0.155-0.648,0.206-0.937c0.037-0.284,0.072-0.55,0.104-0.797
				c0.035-0.247,0.068-0.476,0.098-0.685c0.011-0.248,0.021-0.474,0.03-0.676c0.034-0.811,0.052-1.243,0.052-1.243L67.649,91.375z"
				/>
		</g>
		<g>
			<ellipse style="fill:#FFFFFF;" cx="91.999" cy="96.145" rx="11.5" ry="12.883"/>
			<path d="M105.497,96.235c0,0-0.016,0.299-0.045,0.86c-0.008,0.141-0.016,0.298-0.026,0.471c-0.027,0.207-0.057,0.432-0.09,0.676
				c-0.059,0.496-0.15,1.047-0.301,1.614c-0.265,1.163-0.744,2.553-1.569,4.01c-0.819,1.455-2,2.984-3.644,4.28
				c-1.622,1.311-3.785,2.299-6.196,2.624c-0.298,0.062-0.606,0.051-0.912,0.074l-0.462,0.022l-0.232,0.01l-0.305-0.011
				c-0.528-0.028-1.02-0.026-1.757-0.162c-0.706-0.087-1.294-0.287-1.926-0.462c-0.601-0.238-1.231-0.445-1.8-0.775
				c-2.348-1.201-4.329-3.178-5.659-5.525c-0.693-1.165-1.171-2.449-1.533-3.758c-0.17-0.66-0.313-1.326-0.389-2.003
				c-0.055-0.337-0.093-0.675-0.102-1.015l-0.027-0.51L78.511,96.4l-0.006-0.128l-0.003-0.064l-0.001-0.032l0.001-0.122l0.047-0.897
				l0.027-0.454l0.071-0.538c0.051-0.355,0.094-0.723,0.161-1.065l0.234-0.994c0.362-1.309,0.839-2.594,1.533-3.758
				c1.33-2.348,3.311-4.325,5.659-5.525c1.164-0.61,2.415-1.037,3.676-1.229c0.627-0.129,1.258-0.145,1.879-0.173l0.116-0.005
				l0.058-0.002l0.029-0.001l0.131,0.004l0.197,0.01l0.392,0.019c0.279,0.022,0.474,0.002,0.829,0.065
				c1.34,0.17,2.421,0.495,3.48,0.953c0.526,0.217,1.006,0.506,1.488,0.764c0.447,0.31,0.916,0.579,1.314,0.917
				c1.644,1.296,2.825,2.826,3.644,4.28c0.826,1.457,1.304,2.848,1.569,4.01c0.154,0.579,0.238,1.105,0.295,1.565
				c0.075,0.458,0.113,0.85,0.12,1.169c0.032,0.637,0.049,0.977,0.049,0.977L105.497,96.235z M101.499,96.145
				c0,0-0.01-0.258-0.029-0.742c0.002-0.243-0.022-0.541-0.077-0.887c-0.036-0.349-0.092-0.748-0.204-1.185
				c-0.182-0.881-0.528-1.929-1.125-3.022c-0.591-1.091-1.447-2.229-2.613-3.18c-0.28-0.254-0.616-0.437-0.927-0.673
				c-0.341-0.18-0.674-0.399-1.041-0.553c-0.709-0.333-1.567-0.573-2.266-0.686c-0.149-0.052-0.478-0.046-0.717-0.069l-0.392-0.025
				l-0.197-0.013c-0.101-0.003,0.11,0.002,0.081,0.002l-0.02,0.002l-0.041,0.003l-0.081,0.006c-0.433,0.032-0.873,0.04-1.306,0.144
				c-0.874,0.142-1.737,0.455-2.551,0.9c-1.64,0.867-3.071,2.323-4.031,4.086c-0.506,0.87-0.841,1.844-1.101,2.831l-0.166,0.751
				c-0.043,0.244-0.06,0.473-0.096,0.709l-0.05,0.352l-0.019,0.442l-0.033,0.898c0.004-0.173,0.002-0.034,0.003-0.066l0.001,0.024
				l0.002,0.048l0.004,0.097l0.008,0.194l0.014,0.387c-0.001,0.259,0.025,0.516,0.065,0.77c0.047,0.515,0.149,1.018,0.268,1.517
				c0.26,0.987,0.595,1.961,1.101,2.831c0.96,1.763,2.391,3.219,4.031,4.086c0.396,0.249,0.837,0.384,1.252,0.567
				c0.431,0.119,0.879,0.282,1.25,0.325c0.323,0.096,0.902,0.122,1.429,0.154l0.099,0.006l0.049,0.003l0.025,0.002
				c0.032,0.002-0.184-0.006-0.083-0.004l0.162-0.012l0.322-0.022c0.213-0.022,0.428-0.007,0.634-0.06
				c1.665-0.261,3.168-0.953,4.32-1.922c1.166-0.951,2.022-2.089,2.613-3.18c0.597-1.092,0.944-2.141,1.125-3.022
				c0.114-0.448,0.165-0.821,0.198-1.135c0.023-0.159,0.044-0.307,0.063-0.442c0.007-0.171,0.013-0.327,0.018-0.467
				c0.021-0.561,0.032-0.86,0.032-0.86L101.499,96.145z"/>
		</g>
	</g>
</g>
<g id="Layer_1">
</g>
</svg>
