<?xml version="1.0" encoding="iso-8859-1"?>
<!-- Generator: Adobe Illustrator 19.2.0, SVG Export Plug-In . SVG Version: 6.00 Build 0)  -->
<!DOCTYPE svg PUBLIC "-//W3C//DTD SVG 1.1//EN" "http://www.w3.org/Graphics/SVG/1.1/DTD/svg11.dtd">
<svg version="1.1" xmlns="http://www.w3.org/2000/svg" xmlns:xlink="http://www.w3.org/1999/xlink" x="0px" y="0px"
	 viewBox="0 0 140 140" style="enable-background:new 0 0 140 140;" xml:space="preserve">
<g id="kule">
	<g id="kule_1_">
		<circle style="fill:#FFFFFF;" cx="71.362" cy="64.237" r="54.051"/>
		<g>
			<path style="fill:#FFFFFF;stroke:#000000;stroke-width:5;stroke-linecap:round;stroke-linejoin:round;stroke-miterlimit:10;" d="
				M88.053,79.749c0-11.704,9.488-21.191,21.191-21.191s21.191,9.488,21.191,21.191l-0.045,20.295c0,16.569-13.431,30-30,30h-60
				c-16.569,0-30-13.431-30-30V79.749c0-11.704,9.488-21.191,21.191-21.191s21.191,9.488,21.191,21.191
				c0-9.742,7.898-17.64,17.64-17.64S88.053,70.007,88.053,79.749z"/>
		</g>
		<path style="fill:none;stroke:#000000;stroke-width:5;stroke-linecap:round;stroke-linejoin:round;stroke-miterlimit:10;" d="
			M15.413,64.794c0-30.376,24.624-55,55-55s55,24.624,55,55"/>
		<g>
			
				<line style="fill:none;stroke:#000000;stroke-width:4;stroke-linecap:round;stroke-linejoin:round;stroke-miterlimit:10;" x1="80.255" y1="63.044" x2="104.492" y2="21.063"/>
			
				<line style="fill:none;stroke:#000000;stroke-width:4;stroke-linecap:round;stroke-linejoin:round;stroke-miterlimit:10;" x1="70.066" y1="62.043" x2="70.066" y2="10.543"/>
			
				<line style="fill:none;stroke:#000000;stroke-width:4;stroke-linecap:round;stroke-linejoin:round;stroke-miterlimit:10;" x1="59.877" y1="63.044" x2="36.081" y2="21.828"/>
		</g>
	</g>
</g>
<g id="Layer_1">
</g>
</svg>
