<?xml version="1.0" encoding="iso-8859-1"?>
<!-- Generator: Adobe Illustrator 19.2.0, SVG Export Plug-In . SVG Version: 6.00 Build 0)  -->
<!DOCTYPE svg PUBLIC "-//W3C//DTD SVG 1.1//EN" "http://www.w3.org/Graphics/SVG/1.1/DTD/svg11.dtd">
<svg version="1.1" xmlns="http://www.w3.org/2000/svg" xmlns:xlink="http://www.w3.org/1999/xlink" x="0px" y="0px"
	 viewBox="0 0 140 140" style="enable-background:new 0 0 140 140;" xml:space="preserve">
<g id="pali">
	<g id="pali_1_">
		<path style="fill:#FFFFFF;stroke:#000000;stroke-width:5;stroke-linecap:round;stroke-linejoin:round;stroke-miterlimit:10;" d="
			M130.413,75.419c0-30.1-24.862-54.5-57.999-54.5S10.413,45.585,10.413,73.417c0,0,16.333,0.502,16.333,11.503
			c0,29.665,22.689,44.999,51.5,44.999S130.413,105.518,130.413,75.419"/>
		<g>
			<circle style="fill:#FFFFFF;" cx="74.581" cy="24.085" r="14.167"/>
			<path d="M91.008,24.2c0,0-0.023,0.347-0.067,0.997c-0.016,0.172-0.012,0.323-0.047,0.565c-0.038,0.245-0.079,0.512-0.124,0.801
				c-0.05,0.285-0.092,0.607-0.165,0.919c-0.082,0.303-0.169,0.624-0.261,0.964c-0.401,1.342-1.026,2.957-2.138,4.565
				c-1.094,1.608-2.619,3.241-4.619,4.551c-2.004,1.287-4.464,2.267-7.179,2.583c-0.337,0.051-0.681,0.046-1.026,0.069l-0.519,0.024
				l-0.26,0.011l-0.333-0.01c-0.628-0.036-1.174-0.017-1.985-0.153c-1.54-0.181-2.873-0.611-4.274-1.187
				c-1.376-0.586-2.662-1.414-3.864-2.371c-1.182-0.986-2.226-2.154-3.135-3.438c-0.885-1.303-1.573-2.75-2.078-4.268
				c-0.479-1.53-0.711-3.132-0.764-4.739l0.04-1.156c-0.003-0.315,0.054-0.757,0.114-1.188c0.091-0.883,0.298-1.649,0.493-2.43
				c0.47-1.541,1.127-3.022,1.992-4.367c0.886-1.327,1.924-2.543,3.121-3.561c1.212-0.993,2.516-1.859,3.918-2.478
				c1.4-0.606,2.849-1.079,4.312-1.27c0.726-0.144,1.456-0.152,2.174-0.197l0.135-0.007l0.067-0.003l0.034-0.002l0.156,0.004
				l0.229,0.01l0.455,0.019c0.32,0.022,0.563,0.013,0.941,0.064c0.735,0.112,1.524,0.19,2.156,0.383
				c0.331,0.086,0.659,0.172,0.984,0.257c0.317,0.114,0.63,0.227,0.942,0.339c1.25,0.443,2.365,1.086,3.389,1.754
				c2.025,1.385,3.538,3.094,4.602,4.76c1.084,1.664,1.67,3.314,2.036,4.676c0.18,0.687,0.313,1.304,0.369,1.852
				c0.081,0.544,0.139,1.007,0.139,1.385c0.026,0.755,0.04,1.157,0.04,1.157L91.008,24.2z M86.485,24.085
				c0,0-0.021-0.292-0.061-0.839c-0.003-0.275-0.06-0.608-0.133-0.997c-0.048-0.394-0.163-0.834-0.307-1.321
				c-0.296-0.966-0.743-2.132-1.557-3.289c-0.799-1.156-1.903-2.338-3.35-3.28c-0.739-0.441-1.522-0.882-2.396-1.19
				c-0.85-0.359-1.844-0.529-2.664-0.661c-0.212-0.042-0.575-0.036-0.858-0.058l-0.455-0.027l-0.228-0.013
				c-0.122-0.003,0.133,0.002,0.099,0.002l-0.024,0.001l-0.047,0.002l-0.095,0.005c-0.505,0.032-1.022,0.014-1.531,0.115
				c-1.032,0.108-2.048,0.436-3.043,0.839c-0.996,0.416-1.923,1.021-2.8,1.705c-0.857,0.715-1.62,1.556-2.287,2.481
				c-0.646,0.943-1.143,1.989-1.52,3.084c-0.151,0.559-0.326,1.13-0.389,1.632c-0.048,0.255-0.109,0.499-0.119,0.881l-0.034,0.52
				l-0.017,0.26l-0.008,0.13l-0.004,0.065l-0.002,0.033c0.001-0.04-0.004,0.135,0.001-0.081c0.013,1.174,0.14,2.346,0.456,3.476
				c0.342,1.118,0.809,2.198,1.435,3.183c0.644,0.969,1.402,1.857,2.273,2.604c0.888,0.721,1.832,1.362,2.854,1.813
				c0.509,0.222,1.026,0.426,1.551,0.578l0.79,0.212c0.26,0.068,0.495,0.083,0.741,0.132c0.424,0.109,1.124,0.119,1.719,0.159
				l0.115,0.007l0.057,0.003l0.029,0.002c0.032,0.002-0.174-0.005-0.075-0.003l0.197-0.012l0.391-0.022
				c0.259-0.021,0.52-0.011,0.773-0.053c2.037-0.251,3.885-0.983,5.353-2c1.472-1.018,2.566-2.274,3.334-3.489
				c0.786-1.213,1.193-2.414,1.455-3.4c0.06-0.249,0.116-0.485,0.169-0.707c0.043-0.216,0.053-0.402,0.082-0.582
				c0.026-0.178,0.051-0.343,0.073-0.494c0.023-0.154,0.018-0.369,0.027-0.522c0.022-0.651,0.034-0.999,0.034-0.999L86.485,24.085z"
				/>
		</g>
		<g>
			<path d="M25.406,86.158c0,0,0.641-0.974,1.762-2.678c0.597-0.856,1.408-1.914,2.304-3.103c0.971-1.117,2.003-2.428,3.319-3.703
				c0.32-0.326,0.647-0.659,0.98-0.998c0.357-0.317,0.72-0.64,1.09-0.968c0.37-0.328,0.746-0.661,1.129-1
				c0.407-0.312,0.82-0.628,1.239-0.949c1.653-1.311,3.583-2.463,5.635-3.54c2.103-0.981,4.343-1.904,6.752-2.419
				c2.397-0.53,4.904-0.799,7.411-0.696c2.505,0.13,4.989,0.602,7.328,1.39c2.345,0.773,4.531,1.895,6.454,3.244
				c1.918,1.351,3.647,2.858,5.016,4.525c1.377,1.653,2.533,3.348,3.351,5.042c0.875,1.665,1.43,3.305,1.86,4.765
				c0.386,1.473,0.65,2.778,0.757,3.864c0.17,1.081,0.16,1.939,0.191,2.522c0.022,0.583,0.034,0.894,0.034,0.894h-3.5
				c0,0-0.013-0.271-0.038-0.78c-0.032-0.508-0.023-1.259-0.181-2.195c-0.096-0.945-0.338-2.072-0.677-3.343
				c-0.383-1.258-0.866-2.67-1.632-4.097c-0.709-1.456-1.721-2.903-2.911-4.318c-1.183-1.429-2.685-2.709-4.339-3.861
				c-1.66-1.151-3.544-2.102-5.564-2.75c-2.014-0.662-4.149-1.053-6.304-1.153c-2.158-0.072-4.319,0.176-6.397,0.648
				c-2.088,0.456-4.044,1.287-5.892,2.157c-1.806,0.971-3.518,1.997-4.997,3.192c-0.375,0.29-0.745,0.577-1.109,0.859
				c-0.344,0.31-0.683,0.615-1.016,0.915c-0.333,0.299-0.661,0.594-0.983,0.882c-0.302,0.312-0.598,0.619-0.888,0.919
				c-1.194,1.166-2.137,2.39-3.026,3.42c-0.801,1.088-1.5,1.997-2.066,2.816c-1.11,1.712-1.744,2.69-1.744,2.69L25.406,86.158z"/>
		</g>
		<ellipse transform="matrix(0.0684 -0.9977 0.9977 0.0684 -34.9168 144.6378)" cx="59.992" cy="91.016" rx="4.434" ry="4.434"/>
		<g>
			<path d="M81.59,93.496c-0.629,0.706-1.249,1.326-1.905,1.94c-0.65,0.614-1.321,1.201-2.017,1.761
				c-0.69,0.567-1.406,1.105-2.148,1.613c-0.731,0.52-1.509,0.984-2.285,1.447c-0.805,0.423-1.596,0.868-2.453,1.211
				c-0.827,0.391-1.725,0.655-2.602,0.948c-0.914,0.21-1.815,0.46-2.768,0.531c-0.934,0.158-1.901,0.088-2.854,0.089l-1.37-0.19
				c-0.395-0.033-0.903-0.178-1.383-0.304c-1.004-0.226-1.832-0.604-2.706-0.944c-0.822-0.419-1.667-0.81-2.425-1.318
				c-0.793-0.463-1.507-1.019-2.237-1.554c-0.696-0.571-1.393-1.141-2.036-1.761c-0.655-0.609-1.28-1.244-1.876-1.904
				c-0.602-0.654-1.176-1.331-1.724-2.03c-0.558-0.705-1.066-1.39-1.592-2.194c-0.37-0.566-0.301-1.294,0.122-1.78
				c0.631-0.725,1.228-1.334,1.877-1.956c0.639-0.618,1.3-1.209,1.985-1.775c0.68-0.572,1.386-1.116,2.118-1.63
				c0.722-0.526,1.49-0.996,2.257-1.467c0.796-0.43,1.58-0.883,2.428-1.234c0.82-0.399,1.71-0.672,2.582-0.974
				c0.908-0.219,1.805-0.479,2.755-0.56c0.469-0.058,0.936-0.137,1.417-0.118l0.717-0.003l0.358,0l0.179,0l0.09,0l0.045,0l0.022,0
				l0.011,0l0.117,0.011c0.863,0.13,1.627,0.152,2.654,0.453c1.009,0.217,1.843,0.585,2.724,0.918
				c0.829,0.411,1.682,0.794,2.448,1.295c0.802,0.457,1.525,1.005,2.264,1.535c0.706,0.565,1.412,1.13,2.066,1.745
				c0.665,0.604,1.301,1.235,1.907,1.891c0.613,0.651,1.198,1.324,1.758,2.02c0.571,0.704,1.087,1.382,1.632,2.196
				c0.44,0.658,0.361,1.512-0.142,2.077L81.59,93.496z M77.995,92.193c-0.201-0.272-0.389-0.559-0.595-0.819
				c-0.498-0.637-1.024-1.257-1.572-1.852c-0.542-0.601-1.109-1.178-1.698-1.725c-0.58-0.561-1.199-1.065-1.815-1.574
				c-0.641-0.466-1.268-0.96-1.946-1.352c-0.655-0.444-1.36-0.76-2.048-1.12c-0.71-0.272-1.437-0.601-2.099-0.743
				c-0.599-0.23-1.549-0.304-2.367-0.434c0.209,0.022,0.053,0.006,0.097,0.011h-0.009h-0.018l-0.035,0l-0.07,0l-0.14,0l-0.28-0.001
				l-0.56-0.006c-0.373-0.028-0.749,0.039-1.125,0.081c-0.755,0.047-1.5,0.263-2.25,0.426c-0.736,0.253-1.485,0.461-2.202,0.804
				c-0.732,0.288-1.43,0.684-2.137,1.052c-0.688,0.413-1.38,0.821-2.04,1.292c-0.667,0.455-1.318,0.944-1.947,1.46
				c-0.634,0.51-1.25,1.047-1.842,1.606c-0.588,0.547-1.188,1.152-1.682,1.706l0.122-1.78c0.414,0.616,0.925,1.297,1.434,1.919
				c0.51,0.635,1.047,1.251,1.605,1.843c0.552,0.597,1.131,1.17,1.729,1.713c0.59,0.556,1.219,1.055,1.845,1.558
				c0.65,0.46,1.287,0.948,1.973,1.334c0.663,0.437,1.377,0.746,2.072,1.097c0.717,0.264,1.45,0.583,2.117,0.716
				c0.344,0.088,0.65,0.202,1.108,0.239l1.161,0.153c0.748-0.026,1.492,0.042,2.242-0.104c0.751-0.057,1.492-0.283,2.237-0.455
				c0.73-0.262,1.473-0.479,2.182-0.829c0.725-0.296,1.414-0.7,2.112-1.074c0.68-0.42,1.362-0.835,2.013-1.311
				c0.658-0.461,1.299-0.956,1.918-1.477c0.624-0.515,1.229-1.057,1.81-1.62C77.536,92.691,77.76,92.434,77.995,92.193z"/>
		</g>
		<path style="fill:none;stroke:#000000;stroke-width:3.5;stroke-linecap:round;stroke-linejoin:round;stroke-miterlimit:10;" d="
			M91.416,74.917c0,0,8.999-4.5,23-6.667"/>
		<path style="fill:none;stroke:#000000;stroke-width:3.5;stroke-linecap:round;stroke-linejoin:round;stroke-miterlimit:10;" d="
			M117.416,80.236c0,0-8.001,4.681-23,6.667"/>
	</g>
</g>
<g id="Layer_1">
</g>
</svg>
