<?xml version="1.0" encoding="iso-8859-1"?>
<!-- Generator: Adobe Illustrator 19.2.0, SVG Export Plug-In . SVG Version: 6.00 Build 0)  -->
<!DOCTYPE svg PUBLIC "-//W3C//DTD SVG 1.1//EN" "http://www.w3.org/Graphics/SVG/1.1/DTD/svg11.dtd">
<svg version="1.1" xmlns="http://www.w3.org/2000/svg" xmlns:xlink="http://www.w3.org/1999/xlink" x="0px" y="0px"
	 viewBox="0 0 125.087 125" style="enable-background:new 0 0 125.087 125;" xml:space="preserve">
<g id="kasi">
	<g id="kasi_2_">
		<path style="fill:#FFFFFF;stroke:#000000;stroke-width:5;stroke-linecap:round;stroke-linejoin:round;stroke-miterlimit:10;" d="
			M122.5,62.5l-3.002,47.999c0,5.523-4.477,12.001-10,12.001H32.5c-16.569,0-30-13.431-30-30c0,0,0-64.75,0-90
			c34.333,9.667,32,0,60,0C95.637,2.5,122.5,29.363,122.5,62.5z"/>
		<path style="fill:#FFFFFF;stroke:#000000;stroke-width:4;stroke-linecap:round;stroke-linejoin:round;stroke-miterlimit:10;" d="
			M51.014,75.566c-7.124-0.938-13.781-3.36-19.648-6.947"/>
		<path style="fill:#FFFFFF;stroke:#000000;stroke-width:4;stroke-linecap:round;stroke-linejoin:round;stroke-miterlimit:10;" d="
			M45.68,87.232c-7.124-0.938-13.781-3.36-19.648-6.947"/>
		<path style="fill:#FFFFFF;stroke:#000000;stroke-width:4;stroke-linecap:round;stroke-linejoin:round;stroke-miterlimit:10;" d="
			M90.595,59.533c-1.172-6.564-0.9-13.132,0.624-19.329"/>
		<path style="fill:#FFFFFF;stroke:#000000;stroke-width:4;stroke-linecap:round;stroke-linejoin:round;stroke-miterlimit:10;" d="
			M78.059,59.979c-1.172-6.564-0.9-13.132,0.624-19.329"/>
		<path style="fill:#FFFFFF;stroke:#000000;stroke-width:4;stroke-linecap:round;stroke-linejoin:round;stroke-miterlimit:10;" d="
			M123.087,60.16c-1.715,4.386-4.344,8.497-7.887,12.04c-13.733,13.733-36,13.733-49.733,0l0.067-0.067
			c13.733,13.733,13.733,36,0,49.733"/>
	</g>
</g>
<g id="Layer_1">
</g>
</svg>
