<?xml version="1.0" encoding="iso-8859-1"?>
<!-- Generator: Adobe Illustrator 19.2.0, SVG Export Plug-In . SVG Version: 6.00 Build 0)  -->
<!DOCTYPE svg PUBLIC "-//W3C//DTD SVG 1.1//EN" "http://www.w3.org/Graphics/SVG/1.1/DTD/svg11.dtd">
<svg version="1.1" xmlns="http://www.w3.org/2000/svg" xmlns:xlink="http://www.w3.org/1999/xlink" x="0px" y="0px"
	 viewBox="0 0 140 140" style="enable-background:new 0 0 140 140;" xml:space="preserve">
<g id="a">
	<g id="a_1_">
		<path style="fill:#FFFFFF;stroke:#000000;stroke-width:5;stroke-miterlimit:10;" d="M130.411,69.919v30c0,16.569-13.431,30-30,30
			h-60c-16.569,0-30-13.431-30-30v-30c0-33.137,26.863-60,60-60S130.411,36.782,130.411,69.919z"/>
		<g>
			<path d="M9.115,70.395c0,0,0.191-0.16,0.549-0.459c0.399-0.3,0.763-0.734,1.76-1.307c0.454-0.266,0.968-0.622,1.517-0.873
				c0.548-0.229,1.14-0.477,1.773-0.743c0.642-0.221,1.342-0.384,2.071-0.589c0.731-0.197,1.513-0.256,2.322-0.393
				c0.81-0.128,1.652-0.101,2.524-0.155c0.871-0.033,1.758,0.07,2.676,0.105c0.912,0.075,1.832,0.247,2.78,0.375
				c0.934,0.187,1.876,0.424,2.839,0.644c0.936,0.301,1.897,0.585,2.85,0.919c0.931,0.387,1.894,0.734,2.824,1.169
				c0.914,0.467,1.867,0.879,2.761,1.404c0.884,0.541,1.814,1.017,2.662,1.619c1.734,1.148,3.377,2.425,4.902,3.783
				c0.742,0.711,1.488,1.368,2.203,2.107c0.656,0.673,1.324,1.423,1.975,2.171c2.501,2.959,4.469,6.012,5.869,8.779
				c1.417,2.761,2.274,5.226,2.774,6.98c0.24,0.882,0.415,1.579,0.507,2.064c0.1,0.482,0.153,0.738,0.153,0.738l-2.946,0.565
				c0,0-0.052-0.23-0.149-0.661c-0.088-0.432-0.258-1.06-0.487-1.857c-0.48-1.586-1.3-3.837-2.653-6.375
				c-1.336-2.542-3.214-5.357-5.578-8.067c-0.586-0.651-1.188-1.312-1.884-2.005c-0.631-0.632-1.357-1.25-2.039-1.886
				c-1.422-1.226-2.948-2.374-4.552-3.401c-0.784-0.542-1.644-0.957-2.457-1.442c-0.823-0.468-1.698-0.824-2.534-1.239
				c-0.851-0.382-1.728-0.679-2.575-1.019c-0.864-0.287-1.731-0.525-2.575-0.786c-0.861-0.178-1.704-0.379-2.533-0.533
				c-0.834-0.093-1.649-0.238-2.442-0.29c-0.791-0.012-1.568-0.098-2.305-0.054c-0.732,0.064-1.458,0.042-2.121,0.164
				c-0.659,0.13-1.316,0.179-1.896,0.351c-0.576,0.179-1.138,0.312-1.639,0.492c-0.483,0.212-0.936,0.41-1.354,0.593
				c-0.403,0.19-0.673,0.412-0.975,0.576c-0.551,0.25-1.125,0.85-1.464,1.117c-0.354,0.305-0.542,0.467-0.542,0.467L9.115,70.395z"
				/>
		</g>
		<ellipse transform="matrix(0.0684 -0.9977 0.9977 0.0684 -64.3046 128.4993)" cx="36.656" cy="98.683" rx="4.434" ry="4.434"/>
		<path style="fill:none;stroke:#000000;stroke-width:4;stroke-linecap:round;stroke-linejoin:round;stroke-miterlimit:10;" d="
			M130.416,66.631c-14.819,1.815-36.214,2.954-60.005,2.954v0.333v60"/>
		<path style="fill:none;stroke:#000000;stroke-width:3;stroke-linecap:round;stroke-linejoin:round;stroke-miterlimit:10;" d="
			M130.416,86.964c-14.819,1.815-36.214,2.954-60.005,2.954"/>
		<path style="fill:none;stroke:#000000;stroke-width:3;stroke-linecap:round;stroke-linejoin:round;stroke-miterlimit:10;" d="
			M130.416,106.964c-14.819,1.815-36.214,2.954-60.005,2.954"/>
		<g>
			<path d="M59.066,99.999c-0.616,0.7-1.23,1.321-1.878,1.934c-0.642,0.614-1.306,1.201-1.995,1.762
				c-0.683,0.567-1.391,1.107-2.125,1.615c-0.724,0.521-1.493,0.986-2.262,1.451c-0.797,0.424-1.581,0.871-2.428,1.216
				c-0.819,0.393-1.708,0.659-2.577,0.956c-0.905,0.212-1.798,0.467-2.741,0.542c-0.925,0.162-1.883,0.097-2.829,0.103l-1.363-0.182
				c-0.397-0.031-0.899-0.173-1.375-0.295c-0.993-0.218-1.821-0.59-2.692-0.923c-0.821-0.412-1.664-0.797-2.422-1.299
				c-0.793-0.457-1.508-1.007-2.239-1.536c-0.698-0.566-1.396-1.131-2.042-1.746c-0.658-0.604-1.286-1.235-1.885-1.89
				c-0.605-0.65-1.183-1.323-1.735-2.018c-0.562-0.702-1.074-1.383-1.604-2.185c-0.374-0.565-0.305-1.295,0.122-1.78
				c0.635-0.722,1.235-1.327,1.887-1.945c0.642-0.614,1.306-1.201,1.995-1.762c0.683-0.567,1.391-1.107,2.125-1.615
				c0.724-0.521,1.493-0.986,2.262-1.451c0.797-0.424,1.581-0.871,2.428-1.216c0.819-0.393,1.708-0.659,2.577-0.956
				c0.905-0.212,1.798-0.467,2.741-0.542c0.467-0.055,0.93-0.131,1.407-0.109l0.711,0.001l0.355,0.002l0.178,0.001l0.089,0.001
				l0.044,0l0.022,0l0.011,0l0.109,0.01c0.86,0.134,1.632,0.164,2.64,0.467c0.993,0.218,1.821,0.59,2.692,0.923
				c0.821,0.412,1.664,0.797,2.422,1.299c0.793,0.457,1.508,1.007,2.239,1.536c0.698,0.566,1.396,1.131,2.042,1.746
				c0.658,0.604,1.286,1.235,1.885,1.89c0.605,0.65,1.183,1.323,1.735,2.018c0.562,0.702,1.074,1.383,1.604,2.185
				c0.374,0.565,0.306,1.294-0.121,1.78L59.066,99.999z M55.975,98.881c-0.242-0.328-0.474-0.673-0.727-0.987
				c-0.506-0.638-1.039-1.258-1.594-1.854c-0.549-0.601-1.124-1.179-1.72-1.726c-0.587-0.561-1.215-1.065-1.838-1.573
				c-0.649-0.466-1.284-0.959-1.971-1.351c-0.663-0.443-1.378-0.758-2.074-1.116c-0.72-0.271-1.454-0.596-2.132-0.738
				c-0.618-0.228-1.561-0.295-2.382-0.42c0.192,0.02,0.048,0.006,0.089,0.01l-0.009,0l-0.018,0l-0.035,0l-0.071,0l-0.142,0.001
				l-0.283,0l-0.566-0.002c-0.377-0.025-0.756,0.044-1.135,0.089c-0.761,0.053-1.51,0.276-2.263,0.445
				c-0.739,0.259-1.49,0.474-2.207,0.822c-0.733,0.294-1.43,0.696-2.137,1.069c-0.687,0.418-1.378,0.832-2.036,1.307
				c-0.665,0.46-1.314,0.954-1.94,1.475c-0.631,0.514-1.244,1.056-1.833,1.619c-0.585,0.551-1.181,1.16-1.671,1.717l0.122-1.78
				c0.409,0.618,0.917,1.303,1.421,1.929c0.506,0.638,1.039,1.258,1.594,1.854c0.549,0.601,1.124,1.179,1.72,1.726
				c0.587,0.561,1.215,1.065,1.838,1.573c0.649,0.466,1.284,0.959,1.971,1.351c0.663,0.443,1.378,0.758,2.074,1.116
				c0.72,0.271,1.454,0.596,2.132,0.738c0.348,0.092,0.661,0.21,1.116,0.249l1.168,0.162c0.755-0.02,1.509,0.052,2.267-0.089
				c0.761-0.053,1.51-0.276,2.263-0.445c0.739-0.259,1.49-0.474,2.207-0.822c0.733-0.294,1.43-0.696,2.137-1.069
				c0.687-0.418,1.378-0.832,2.036-1.307c0.665-0.46,1.314-0.954,1.94-1.475c0.631-0.514,1.244-1.056,1.833-1.619
				C55.416,99.48,55.691,99.173,55.975,98.881z"/>
		</g>
	</g>
</g>
<g id="Layer_1">
</g>
</svg>
