<?xml version="1.0" encoding="iso-8859-1"?>
<!-- Generator: Adobe Illustrator 19.2.0, SVG Export Plug-In . SVG Version: 6.00 Build 0)  -->
<!DOCTYPE svg PUBLIC "-//W3C//DTD SVG 1.1//EN" "http://www.w3.org/Graphics/SVG/1.1/DTD/svg11.dtd">
<svg version="1.1" xmlns="http://www.w3.org/2000/svg" xmlns:xlink="http://www.w3.org/1999/xlink" x="0px" y="0px"
	 viewBox="0 0 125 125" style="enable-background:new 0 0 125 125;" xml:space="preserve">
<g id="ala">
	<g id="ala_1_">
		<path style="fill:#FFFFFF;stroke:#000000;stroke-width:5;stroke-miterlimit:10;" d="M122.5,92.5c0,16.569-13.431,30-30,30h-60
			c-16.569,0-30-13.431-30-30v-60c0-16.569,13.431-30,30-30h60c16.569,0,30,13.431,30,30V92.5z"/>
		<g>
			<g>
				<g>
					<path style="fill:#FFFFFF;" d="M97.855,76.642L83.713,62.5l14.142-14.142c5.858-5.858,5.858-15.355,0-21.213
						s-15.355-5.858-21.213,0L62.5,41.287L48.358,27.145c-5.858-5.858-15.355-5.858-21.213,0c-5.858,5.858-5.858,15.355,0,21.213
						L41.287,62.5L27.145,76.642c-5.858,5.858-5.858,15.355,0,21.213s15.355,5.858,21.213,0L62.5,83.713l14.142,14.142
						c5.858,5.858,15.355,5.858,21.213,0C103.713,91.997,103.713,82.5,97.855,76.642z"/>
					<path d="M96.365,78.133L82.299,63.914c-0.773-0.781-0.774-2.036-0.009-2.819l0.009-0.01l7.613-7.786l3.834-3.866l1.917-1.932
						l0.479-0.483l0.12-0.121l0.06-0.06c0.021-0.022-0.133,0.14-0.061,0.064l0.014-0.016l0.028-0.032l0.227-0.253
						c0.279-0.327,0.66-0.699,0.855-0.989l0.62-0.874l0.587-1.003l0.486-1.055c0.147-0.358,0.255-0.731,0.388-1.095
						c0.452-1.482,0.634-3.046,0.534-4.59c-0.099-1.545-0.479-3.068-1.116-4.472c-0.306-0.708-0.707-1.372-1.14-2.008
						c-0.238-0.304-0.447-0.63-0.701-0.92l-0.392-0.427l-0.195-0.215l-0.097-0.108l-0.048-0.054l-0.024-0.027l-0.012-0.013
						c0.033,0.03-0.09-0.087,0.07,0.065l-1.006-0.917c-0.326-0.281-0.585-0.428-0.874-0.657c-0.597-0.405-1.289-0.826-1.988-1.126
						c-1.404-0.638-2.927-1.018-4.472-1.116c-3.088-0.2-6.259,0.731-8.688,2.674c-1.125,0.899-2.477,2.341-3.752,3.582L71.7,35.088
						l-7.786,7.613c-0.787,0.77-2.045,0.765-2.829,0L53.3,35.088l-3.866-3.834l-1.932-1.917l-0.483-0.479l-0.121-0.12l-0.06-0.06
						c-0.022-0.021,0.14,0.133,0.064,0.061l-0.016-0.014l-0.032-0.028L46.6,28.468c-0.327-0.279-0.699-0.66-0.989-0.855l-0.874-0.62
						l-1.003-0.587l-1.055-0.486c-0.358-0.147-0.731-0.255-1.095-0.389c-1.482-0.452-3.046-0.634-4.59-0.534
						c-3.098,0.188-6.071,1.546-8.258,3.738l-0.838,0.924c-0.281,0.326-0.428,0.585-0.657,0.874
						c-0.405,0.597-0.826,1.289-1.126,1.988c-0.638,1.404-1.018,2.927-1.116,4.472c-0.2,3.088,0.731,6.259,2.674,8.688
						c0.899,1.125,2.341,2.477,3.582,3.752l3.834,3.866l7.613,7.786c0.77,0.787,0.765,2.045,0,2.829l-7.616,7.783l-3.832,3.867
						l-1.918,1.932l-0.479,0.483l-0.12,0.121l-0.06,0.06c-0.021,0.022,0.133-0.14,0.061-0.064l-0.014,0.016l-0.028,0.032
						l-0.227,0.253c-0.279,0.327-0.66,0.699-0.855,0.989l-0.621,0.874l-0.588,1.003l-0.486,1.056
						c-0.147,0.358-0.255,0.731-0.389,1.095c-0.453,1.482-0.634,3.046-0.534,4.592c0.099,1.545,0.479,3.069,1.116,4.473
						c0.306,0.709,0.707,1.372,1.14,2.009c0.238,0.304,0.447,0.63,0.701,0.921l0.392,0.427l0.195,0.215l0.097,0.108l0.048,0.054
						l0.024,0.027l0.012,0.013c-0.033-0.03,0.09,0.087-0.07-0.065l1.013,0.909c0.325,0.281,0.584,0.428,0.873,0.657
						c0.597,0.405,1.288,0.826,1.987,1.126c1.403,0.638,2.926,1.018,4.47,1.117c3.087,0.201,6.257-0.73,8.687-2.672
						c1.125-0.898,2.477-2.34,3.752-3.582l3.865-3.834l7.788-7.611l0.007-0.007c0.786-0.768,2.042-0.761,2.821,0.007l11.941,11.787
						l1.493,1.473l0.746,0.737l0.702,0.627l0.391,0.349c0.121,0.095,0.229,0.16,0.343,0.243l0.67,0.481
						c0.526,0.285,1.018,0.632,1.577,0.85c1.074,0.525,2.24,0.844,3.417,1.032c1.178,0.212,2.386,0.179,3.568,0.059
						c1.191-0.117,2.337-0.483,3.441-0.916c1.097-0.466,2.108-1.103,3.047-1.832c0.228-0.191,0.441-0.401,0.663-0.598l0.332-0.299
						l0.271-0.301l0.701-0.78l0.471-0.662c0.644-0.911,1.251-2.004,1.615-3.122c0.229-0.551,0.33-1.142,0.489-1.716
						c0.075-0.591,0.212-1.175,0.214-1.774c0.092-1.191-0.026-2.393-0.276-3.558c-0.225-1.177-0.692-2.291-1.241-3.351
						C97.94,79.959,97.172,79.025,96.365,78.133z M99.346,75.152c1.098,1.149,2.127,2.387,2.893,3.796
						c0.764,1.4,1.401,2.889,1.74,4.456c0.367,1.556,0.54,3.167,0.437,4.767c-0.005,0.803-0.162,1.594-0.269,2.388
						c-0.192,0.779-0.34,1.571-0.631,2.322c-0.505,1.542-1.236,2.94-2.192,4.315l-0.771,1.028l-0.706,0.776l-0.176,0.194
						l-0.088,0.097l-0.044,0.048l-0.101,0.107l-0.028,0.025l-0.446,0.404c-0.3,0.266-0.592,0.542-0.902,0.796
						c-1.27,0.984-2.649,1.831-4.135,2.451c-1.492,0.586-3.045,1.049-4.644,1.206c-1.591,0.162-3.211,0.175-4.788-0.124
						c-1.575-0.271-3.129-0.729-4.563-1.444c-0.739-0.313-1.403-0.768-2.093-1.171l-1.023-0.757l-0.497-0.384l-0.387-0.354
						l-0.849-0.785l-0.737-0.746l-1.473-1.493L61.086,85.127h2.828l-7.611,7.788l-3.834,3.865c-1.321,1.291-2.416,2.55-4.102,3.95
						c-3.238,2.623-7.486,3.923-11.634,3.683c-2.076-0.116-4.134-0.61-6.04-1.458c-0.968-0.417-1.846-0.927-2.749-1.536
						c-0.432-0.321-0.937-0.672-1.298-0.983l-1.007-0.916l-0.099-0.096l-0.016-0.018l-0.033-0.036l-0.066-0.072l-0.131-0.145
						l-0.262-0.29l-0.521-0.582c-0.338-0.396-0.627-0.833-0.939-1.25c-0.581-0.864-1.111-1.769-1.522-2.728
						c-0.848-1.905-1.342-3.961-1.458-6.037c-0.118-2.076,0.142-4.17,0.766-6.154c0.177-0.489,0.333-0.986,0.534-1.465l0.665-1.411
						l0.797-1.34c0.3-0.446,0.647-0.891,0.976-1.33c0.337-0.445,0.62-0.701,0.932-1.061l0.229-0.252l0.193-0.202l0.121-0.12
						l0.483-0.479l1.932-1.918l3.867-3.832l7.783-7.616v2.828l-7.786-7.613l-3.866-3.834c-1.291-1.321-2.55-2.416-3.95-4.102
						c-2.622-3.238-3.922-7.486-3.682-11.632c0.116-2.076,0.61-4.133,1.458-6.038c0.417-0.968,0.927-1.845,1.536-2.748
						c0.32-0.432,0.671-0.936,0.983-1.297l0.987-1.096c2.962-2.939,7.023-4.75,11.18-4.964c2.076-0.117,4.171,0.143,6.156,0.767
						c0.489,0.177,0.986,0.333,1.465,0.534l1.411,0.665l1.34,0.798c0.446,0.3,0.891,0.647,1.33,0.976
						c0.445,0.337,0.701,0.62,1.061,0.932l0.252,0.229l0.202,0.193l0.12,0.121l0.479,0.483l1.917,1.932l3.834,3.866l7.613,7.786
						h-2.828l7.613-7.786l3.834-3.866c1.321-1.291,2.416-2.55,4.102-3.95c3.238-2.622,7.486-3.922,11.632-3.682
						c2.076,0.116,4.133,0.61,6.038,1.458c0.968,0.417,1.845,0.927,2.748,1.536c0.432,0.32,0.936,0.671,1.297,0.983l1.013,0.909
						l0.099,0.097l0.016,0.018l0.033,0.036l0.066,0.072l0.131,0.145l0.262,0.29l0.521,0.583c0.338,0.396,0.627,0.833,0.939,1.251
						c0.581,0.864,1.111,1.77,1.522,2.729c0.848,1.905,1.342,3.962,1.458,6.038c0.117,2.076-0.143,4.171-0.767,6.156
						c-0.177,0.489-0.333,0.986-0.534,1.465l-0.665,1.411l-0.798,1.34c-0.3,0.446-0.647,0.891-0.976,1.33
						c-0.337,0.445-0.62,0.701-0.932,1.061l-0.229,0.252l-0.193,0.202l-0.121,0.12l-0.483,0.479l-1.932,1.917l-3.866,3.834
						l-7.786,7.613v-2.828L99.346,75.152z"/>
				</g>
				<g>
					<path d="M38.812,36.691c0,0,0.798,0.749,2.195,2.058c1.382,1.325,3.384,3.19,5.737,5.478c2.349,2.291,5.121,4.933,8.035,7.819
						c2.915,2.885,6.025,5.963,9.134,9.041c3.078,3.109,6.156,6.219,9.041,9.133c2.889,2.911,5.528,5.686,7.82,8.035
						c2.289,2.351,4.152,4.355,5.477,5.737c1.31,1.397,2.058,2.196,2.058,2.196c0.567,0.605,0.536,1.555-0.069,2.121
						c-0.58,0.543-1.48,0.534-2.053,0c0,0-0.798-0.748-2.196-2.058c-1.382-1.325-3.386-3.188-5.737-5.477
						c-2.349-2.291-5.124-4.931-8.035-7.82c-2.915-2.886-6.024-5.963-9.133-9.041c-3.078-3.11-6.155-6.219-9.041-9.134
						c-2.886-2.914-5.528-5.686-7.819-8.035c-2.288-2.352-4.153-4.355-5.478-5.737c-1.31-1.397-2.058-2.195-2.058-2.195
						c-0.567-0.605-0.536-1.554,0.068-2.121C37.339,36.147,38.239,36.156,38.812,36.691z"/>
				</g>
				<g>
					<path d="M88.309,38.812c0,0-0.748,0.798-2.058,2.195c-1.325,1.382-3.189,3.385-5.477,5.737
						c-2.291,2.349-4.932,5.122-7.819,8.035c-2.885,2.915-5.963,6.025-9.04,9.135c-3.11,3.078-6.219,6.155-9.135,9.04
						c-2.913,2.888-5.686,5.528-8.035,7.819c-2.352,2.288-4.355,4.152-5.737,5.477c-1.397,1.31-2.195,2.058-2.195,2.058
						c-0.605,0.567-1.554,0.536-2.121-0.068c-0.544-0.58-0.534-1.48,0-2.053c0,0,0.748-0.798,2.058-2.195
						c1.325-1.382,3.189-3.385,5.477-5.737c2.291-2.349,4.932-5.122,7.819-8.035c2.885-2.915,5.963-6.025,9.04-9.135
						c3.11-3.078,6.219-6.155,9.135-9.04c2.913-2.888,5.686-5.528,8.035-7.819c2.352-2.288,4.355-4.152,5.737-5.477
						c1.397-1.31,2.195-2.058,2.195-2.058c0.605-0.567,1.554-0.536,2.121,0.068C88.853,37.339,88.844,38.239,88.309,38.812z"/>
				</g>
			</g>
		</g>
	</g>
</g>
<g id="Layer_1">
</g>
</svg>
