<?xml version="1.0" encoding="iso-8859-1"?>
<!-- Generator: Adobe Illustrator 19.2.0, SVG Export Plug-In . SVG Version: 6.00 Build 0)  -->
<!DOCTYPE svg PUBLIC "-//W3C//DTD SVG 1.1//EN" "http://www.w3.org/Graphics/SVG/1.1/DTD/svg11.dtd">
<svg version="1.1" xmlns="http://www.w3.org/2000/svg" xmlns:xlink="http://www.w3.org/1999/xlink" x="0px" y="0px"
	 viewBox="0 0 124.358 125.027" style="enable-background:new 0 0 124.358 125.027;" xml:space="preserve">
<g id="waso">
	<g id="waso_2_">
		<g>
			<path style="fill:#FFFFFF;" d="M38.6,107.276c16.75,18,36.75,15,49.75,15s34-13.25,34-13.25s-22-49-31.749-72.253
				s-23.356-34.247-46-34.247S2.6,20.882,2.6,43.526v42.375c0,14.567,10.074,26.375,22.5,26.375s25.502-12,25.502-26.375"/>
			<path d="M40.035,105.883c0.677,0.639,1.368,1.359,2.033,1.932c0.661,0.59,1.326,1.177,2.044,1.739
				c1.397,1.147,2.856,2.205,4.374,3.162c1.509,0.971,3.092,1.813,4.7,2.592c1.609,0.779,3.282,1.421,4.982,1.976
				c3.399,1.12,6.943,1.827,10.555,2.206c3.614,0.375,7.29,0.428,11.021,0.404l5.66-0.1l2.891-0.024
				c0.318-0.01,0.925-0.017,1.326-0.04c0.404-0.04,0.777-0.047,1.209-0.102c3.44-0.385,6.969-1.411,10.415-2.65
				c3.453-1.254,6.853-2.758,10.196-4.394c1.668-0.825,3.334-1.664,4.981-2.537c1.641-0.87,3.296-1.785,4.861-2.711l0.001-0.001
				l-0.757,2.511c-2.854-6.185-5.729-12.357-8.537-18.561l-8.384-18.629l-8.309-18.67c-1.374-3.118-2.75-6.235-4.085-9.373
				l-2.007-4.707l-0.989-2.331c-0.339-0.773-0.673-1.58-1.016-2.325c-2.71-6.006-6.022-11.807-10.279-16.662
				c-4.237-4.872-9.54-8.662-15.552-10.826C55.369,5.581,48.784,4.863,42.24,5.144c-3.082,0.194-6.33,0.758-9.362,1.707
				c-3.049,0.967-5.999,2.267-8.744,3.92c-5.488,3.303-10.203,7.912-13.527,13.375C7.263,29.59,5.325,35.885,5.152,42.258
				l-0.03,1.195l0.001,1.271l0.005,2.553l0.011,5.105l0.022,10.211l0.037,20.421c0.01,1.703-0.034,3.445,0.083,4.939
				c0.109,1.515,0.35,3.086,0.718,4.586c0.734,3.017,1.998,5.891,3.716,8.431c3.4,5.09,8.983,8.672,14.956,8.789
				c1.548,0.05,2.958-0.072,4.467-0.382c1.486-0.305,2.952-0.795,4.366-1.422c2.84-1.248,5.43-3.1,7.709-5.27
				c2.269-2.186,4.166-4.781,5.518-7.637c1.397-2.839,2.191-5.961,2.37-9.148l0.001-0.011c0.047-0.828,0.756-1.462,1.584-1.415
				c0.773,0.043,1.376,0.671,1.416,1.426c0.177,3.626-0.534,7.289-1.875,10.679c-1.381,3.381-3.409,6.482-5.902,9.155
				c-2.484,2.688-5.504,4.883-8.841,6.501c-1.674,0.801-3.436,1.451-5.273,1.887c-1.811,0.436-3.811,0.678-5.665,0.64
				c-3.844-0.069-7.661-1.201-10.929-3.154c-3.284-1.939-6.053-4.623-8.175-7.699c-2.138-3.072-3.629-6.544-4.503-10.138
				c-0.438-1.807-0.717-3.61-0.85-5.49C0.013,87.255,0.009,86.541,0,85.567l0.001-2.553l0.037-20.421l0.022-10.211l0.011-5.105
				l0.005-2.553l0.005-1.281l0.038-1.357c0.244-7.239,2.436-14.397,6.203-20.553c3.75-6.178,9.042-11.364,15.209-15.089
				c3.085-1.864,6.403-3.336,9.839-4.429C34.839,0.937,38.34,0.3,42.049,0.067c7.026-0.31,14.253,0.429,21.068,2.921
				c6.82,2.454,12.927,6.857,17.6,12.267c4.72,5.415,8.204,11.588,11.078,17.975l8.019,18.792l8.08,18.74l16.279,37.444l0.019,0.045
				c0.397,0.912,0.048,1.961-0.777,2.466l-0.002,0.001c-1.651,1.07-3.272,2.051-4.936,3.024c-1.657,0.97-3.335,1.907-5.044,2.789
				c-3.414,1.773-6.907,3.421-10.537,4.84c-3.637,1.4-7.395,2.624-11.474,3.188c-0.505,0.075-1.079,0.114-1.616,0.167
				c-0.543,0.032-0.883,0.038-1.511,0.058l-2.785,0.051l-5.691,0.157c-3.834,0.09-7.742,0.026-11.654-0.439
				c-3.905-0.462-7.832-1.234-11.593-2.584c-3.759-1.331-7.376-3.131-10.637-5.417c-1.633-1.137-3.203-2.36-4.661-3.698
				c-0.734-0.652-1.448-1.362-2.154-2.08c-0.722-0.714-1.299-1.403-1.956-2.105c-0.754-0.807-0.712-2.073,0.095-2.827
				c0.775-0.724,1.973-0.714,2.735,0.003L40.035,105.883z"/>
		</g>
		<g>
			
				<ellipse transform="matrix(0.9963 -0.086 0.086 0.9963 -6.4003 2.5562)" style="fill:#FFFFFF;" cx="26.477" cy="75.585" rx="11.124" ry="12.452"/>
			<path d="M39.284,74.559c0,0,0.015,0.289,0.044,0.831c0.007,0.136,0.015,0.288,0.023,0.456c-0.006,0.198-0.012,0.414-0.019,0.648
				c-0.008,0.475-0.04,1.007-0.127,1.563c-0.137,1.134-0.456,2.508-1.101,3.985c-0.64,1.473-1.62,3.058-3.076,4.471
				c-1.433,1.424-3.425,2.598-5.738,3.157c-0.284,0.09-0.584,0.11-0.88,0.164l-0.448,0.068l-0.225,0.033l-0.305,0.017
				c-0.511,0.02-0.981,0.063-1.72-0.008c-0.703-0.026-1.292-0.17-1.924-0.289c-0.607-0.18-1.24-0.331-1.823-0.604
				c-1.205-0.471-2.312-1.19-3.316-2.023c-1.016-0.827-1.89-1.828-2.626-2.918c-1.485-2.185-2.321-4.785-2.55-7.403
				c-0.014-0.788-0.075-1.123-0.02-1.918c0.021-0.346,0.031-0.704,0.068-1.039l0.145-0.977c0.242-1.29,0.597-2.566,1.17-3.743
				c1.09-2.368,2.835-4.43,4.995-5.775c1.07-0.681,2.237-1.194,3.433-1.481c0.592-0.175,1.197-0.242,1.791-0.319l0.111-0.014
				l0.056-0.007l0.028-0.004l0.124-0.007l0.191-0.004l0.379-0.008c0.271,0.003,0.458-0.033,0.803,0.001
				c1.296,0.059,2.359,0.289,3.407,0.646c0.521,0.167,1.002,0.408,1.484,0.617c0.452,0.263,0.921,0.485,1.328,0.777
				c1.673,1.115,2.918,2.486,3.812,3.813c0.9,1.329,1.463,2.62,1.804,3.709c0.191,0.541,0.312,1.036,0.4,1.47
				c0.107,0.431,0.172,0.802,0.203,1.106c0.079,0.605,0.121,0.928,0.121,0.928L39.284,74.559z M35.817,74.78
				c0,0-0.034-0.251-0.097-0.722c-0.021-0.238-0.073-0.526-0.158-0.859c-0.067-0.338-0.16-0.721-0.309-1.137
				c-0.26-0.842-0.695-1.832-1.379-2.84c-0.678-1.008-1.617-2.034-2.84-2.849c-0.296-0.22-0.639-0.368-0.963-0.567
				c-0.348-0.143-0.692-0.325-1.063-0.44c-0.72-0.257-1.572-0.41-2.264-0.453c-0.15-0.035-0.465-0.001-0.698,0l-0.379,0.015
				l-0.19,0.007c-0.096,0.006,0.104-0.007,0.077-0.004l-0.019,0.003l-0.039,0.006l-0.078,0.013c-0.416,0.068-0.841,0.113-1.251,0.25
				c-0.833,0.212-1.641,0.588-2.39,1.086c-1.511,0.976-2.769,2.502-3.546,4.283c-0.415,0.881-0.655,1.849-0.823,2.822l-0.096,0.738
				c-0.021,0.239-0.018,0.461-0.032,0.692c-0.054,0.36,0.036,1.182,0.039,1.551c0.218,1.986,0.882,3.916,2.001,5.488
				c1.084,1.586,2.575,2.826,4.196,3.506c0.395,0.203,0.822,0.294,1.228,0.434c0.416,0.077,0.854,0.195,1.2,0.205l0.273,0.032
				l0.137,0.018l0.194-0.004l0.77-0.014l0.096-0.002l0.048-0.001l0.024,0c0.033-0.001-0.196,0.011-0.09,0.004l0.152-0.021
				l0.303-0.04c0.2-0.034,0.407-0.031,0.598-0.093c1.565-0.344,2.965-1.091,4.016-2.092c1.066-0.984,1.828-2.136,2.336-3.232
				c0.515-1.097,0.789-2.141,0.912-3.012c0.084-0.444,0.111-0.814,0.125-1.127c0.013-0.159,0.024-0.307,0.035-0.442
				c-0.004-0.166-0.008-0.317-0.012-0.452c-0.016-0.543-0.024-0.832-0.024-0.832L35.817,74.78z"/>
		</g>
		<ellipse transform="matrix(0.9963 -0.086 0.086 0.9963 -6.3648 2.6451)" cx="27.527" cy="75.218" rx="3.968" ry="4.442"/>
		<g>
			<path style="fill:#FFFFFF;" d="M120.6,108.193c0,0-31.249-0.167-53.999-20.667"/>
			<path d="M120.576,109.693c0,0-0.235-0.005-0.677-0.014c-0.458-0.009-1.112-0.039-1.93-0.087c-0.824-0.042-1.814-0.133-2.954-0.23
				c-1.133-0.131-2.418-0.24-3.805-0.454c-1.393-0.177-2.892-0.428-4.474-0.718c-1.588-0.258-3.235-0.671-4.955-1.023
				c-1.695-0.455-3.469-0.847-5.23-1.398c-1.762-0.547-3.566-1.063-5.318-1.742c-0.882-0.321-1.764-0.642-2.643-0.962
				c-0.861-0.367-1.719-0.733-2.57-1.095c-0.846-0.374-1.705-0.704-2.519-1.105c-0.812-0.407-1.614-0.809-2.403-1.205
				c-0.784-0.406-1.577-0.763-2.312-1.191c-0.734-0.431-1.452-0.854-2.15-1.264c-0.699-0.412-1.379-0.812-2.036-1.199
				c-0.645-0.408-1.241-0.846-1.828-1.243c-1.162-0.812-2.246-1.532-3.173-2.216c-0.895-0.729-1.675-1.364-2.317-1.887
				c-1.285-1.048-2.019-1.648-2.019-1.648c-0.855-0.698-0.983-1.957-0.285-2.813c0.698-0.855,1.957-0.983,2.813-0.285
				c0.005,0.004,0.011,0.009,0.016,0.013l0.134,0.113c0,0,0.684,0.576,1.88,1.584c0.598,0.505,1.324,1.119,2.157,1.822
				c0.867,0.662,1.884,1.359,2.972,2.149c0.55,0.386,1.107,0.813,1.713,1.211c0.62,0.378,1.26,0.77,1.918,1.172
				c0.658,0.403,1.335,0.817,2.026,1.24c0.693,0.421,1.447,0.772,2.189,1.173c0.748,0.391,1.508,0.789,2.277,1.192
				c0.772,0.398,1.591,0.726,2.396,1.098c0.81,0.362,1.627,0.727,2.447,1.094c0.84,0.321,1.683,0.644,2.526,0.967
				c1.673,0.683,3.405,1.209,5.096,1.766c1.69,0.561,3.399,0.968,5.03,1.437c1.657,0.367,3.245,0.796,4.778,1.071
				c1.527,0.306,2.975,0.575,4.32,0.769c1.34,0.231,2.578,0.356,3.672,0.502c1.095,0.111,2.052,0.216,2.837,0.269
				c0.789,0.06,1.4,0.098,1.805,0.113c0.422,0.016,0.646,0.024,0.646,0.024l0.038,0.001c0.828,0.031,1.474,0.727,1.443,1.555
				C122.074,109.068,121.392,109.708,120.576,109.693z"/>
		</g>
		<path style="fill:none;stroke:#000000;stroke-width:3;stroke-linecap:round;stroke-linejoin:round;stroke-miterlimit:10;" d="
			M82.767,75.83c0.623,4.254-0.084,7.645-0.084,7.645"/>
		<path style="fill:none;stroke:#000000;stroke-width:3;stroke-linecap:round;stroke-linejoin:round;stroke-miterlimit:10;" d="
			M91.485,79.42c0.565,3.589-0.187,6.466-0.187,6.466"/>
	</g>
</g>
<g id="Layer_1">
</g>
</svg>
