<?xml version="1.0" encoding="iso-8859-1"?>
<!-- Generator: Adobe Illustrator 19.2.0, SVG Export Plug-In . SVG Version: 6.00 Build 0)  -->
<!DOCTYPE svg PUBLIC "-//W3C//DTD SVG 1.1//EN" "http://www.w3.org/Graphics/SVG/1.1/DTD/svg11.dtd">
<svg version="1.1" xmlns="http://www.w3.org/2000/svg" xmlns:xlink="http://www.w3.org/1999/xlink" x="0px" y="0px"
	 viewBox="0 0 140 140" style="enable-background:new 0 0 140 140;" xml:space="preserve">
<g id="weka">
	<g id="weka_6_">
		<path style="fill:#FFFFFF;stroke:#000000;stroke-width:5;stroke-linecap:round;stroke-linejoin:round;stroke-miterlimit:10;" d="
			M130.413,69.919v30c0,16.569-13.431,30-30,30h-30c-33.137,0-60-26.863-60-60V27.585c0-9.757,6.716-17.667,15-17.667
			s15,7.91,15,17.667c0-9.757,6.716-17.667,15-17.667s15,7.91,15,17.667c0,0,5.333-17.667,30-17.667c16.569,0,30,13.431,30,30
			V69.919z"/>
		<g>
			<ellipse style="fill:#FFFFFF;" cx="51.091" cy="58.7" rx="19.072" ry="16.03"/>
			<path d="M72.659,58.85c0,0-0.024,0.431-0.069,1.239c0.007,0.346-0.126,1.052-0.249,1.772c-0.104,0.775-0.379,1.477-0.63,2.346
				c-0.618,1.664-1.612,3.605-3.186,5.46c-1.559,1.859-3.687,3.614-6.29,4.936c-2.593,1.332-5.647,2.25-8.932,2.539
				c-0.411,0.018-0.825,0.036-1.241,0.054l-0.627,0.023l-0.315,0.011l-0.394-0.014c-0.38-0.019-0.762-0.038-1.147-0.058
				l-0.584-0.032l-0.674-0.085c-0.45-0.06-0.902-0.121-1.357-0.182c-0.443-0.076-0.862-0.183-1.297-0.276
				c-0.869-0.164-1.715-0.466-2.576-0.733c-3.386-1.211-6.709-3.224-9.213-6.211c-1.235-1.49-2.338-3.161-3.024-5.047
				c-0.705-1.87-1.077-3.88-1.086-5.891c0.029-1.804,0.463-4.072,1.199-5.847c0.719-1.857,1.846-3.489,3.094-4.933
				c2.537-2.889,5.83-4.817,9.173-5.953c0.847-0.255,1.678-0.547,2.533-0.701c0.425-0.087,0.845-0.192,1.267-0.261
				c0.425-0.055,0.848-0.109,1.269-0.163c0.839-0.139,1.68-0.11,2.506-0.162l0.155-0.006l0.077-0.003l0.16,0.001l0.284,0.009
				l0.565,0.017c0.377,0.013,0.752,0.026,1.125,0.039c0.828,0.101,1.681,0.162,2.456,0.314c0.769,0.172,1.541,0.276,2.269,0.521
				c0.735,0.215,1.459,0.421,2.146,0.704c0.347,0.133,0.69,0.265,1.03,0.396c0.329,0.159,0.655,0.316,0.978,0.472
				c2.575,1.263,4.71,2.939,6.3,4.734c1.606,1.791,2.63,3.7,3.269,5.347c0.593,1.671,0.848,3.063,0.935,4.012
				c0.068,0.954,0.104,1.463,0.104,1.463L72.659,58.85z M67.663,58.7c0,0-0.016-0.352-0.045-1.013
				c-0.036-0.66-0.19-1.624-0.561-2.816c-0.43-1.171-1.101-2.57-2.232-3.984c-1.126-1.41-2.721-2.809-4.749-3.919
				c-0.254-0.139-0.51-0.279-0.769-0.42c-0.272-0.118-0.547-0.237-0.824-0.357c-0.545-0.266-1.137-0.448-1.739-0.637
				c-0.592-0.222-1.233-0.312-1.865-0.475c-0.635-0.141-1.246-0.187-1.886-0.299c-0.368-0.021-0.739-0.042-1.112-0.064l-0.565-0.03
				l-0.284-0.015c-0.088-0.002,0.079,0,0.05,0.001l-0.032,0.002l-0.065,0.003l-0.13,0.006c-0.692,0.051-1.401,0.015-2.101,0.139
				c-0.352,0.045-0.705,0.09-1.061,0.135c-0.353,0.058-0.701,0.149-1.055,0.221c-0.714,0.123-1.398,0.375-2.101,0.582
				c-2.741,0.993-5.384,2.631-7.273,4.926c-0.93,1.143-1.756,2.394-2.236,3.771c-0.502,1.433-0.734,2.594-0.759,4.246
				c0.046,1.444,0.34,2.864,0.872,4.201c0.513,1.348,1.363,2.559,2.307,3.657c1.922,2.198,4.535,3.751,7.232,4.669
				c0.69,0.195,1.359,0.435,2.058,0.549c0.343,0.066,0.693,0.154,1.026,0.205c0.326,0.039,0.65,0.078,0.973,0.117l0.481,0.063
				l0.573,0.023c0.385,0.013,0.767,0.027,1.148,0.04l0.142,0.005l0.071,0.002l0.036,0.001c0.036,0.001-0.18-0.005-0.074-0.003
				l0.253-0.013l0.503-0.025c0.334-0.016,0.666-0.032,0.996-0.048c2.627-0.256,5.031-1.009,7.03-2.057
				c2-1.051,3.601-2.372,4.759-3.717c1.163-1.35,1.865-2.718,2.315-3.871c0.159-0.583,0.394-1.142,0.429-1.539
				c0.07-0.436,0.185-0.704,0.188-1.172c0.052-0.807,0.079-1.238,0.079-1.238L67.663,58.7z"/>
		</g>
		
			<line style="fill:none;stroke:#000000;stroke-width:5;stroke-linecap:round;stroke-linejoin:round;stroke-miterlimit:10;" x1="61.467" y1="96.668" x2="67.795" y2="109.668"/>
		
			<line style="fill:none;stroke:#000000;stroke-width:5;stroke-linecap:round;stroke-linejoin:round;stroke-miterlimit:10;" x1="80.627" y1="96.668" x2="86.955" y2="109.668"/>
		
			<line style="fill:none;stroke:#000000;stroke-width:5;stroke-linecap:round;stroke-linejoin:round;stroke-miterlimit:10;" x1="99.786" y1="96.668" x2="106.114" y2="109.668"/>
	</g>
</g>
<g id="Layer_1">
</g>
</svg>
