<?xml version="1.0" encoding="iso-8859-1"?>
<!-- Generator: Adobe Illustrator 19.2.0, SVG Export Plug-In . SVG Version: 6.00 Build 0)  -->
<!DOCTYPE svg PUBLIC "-//W3C//DTD SVG 1.1//EN" "http://www.w3.org/Graphics/SVG/1.1/DTD/svg11.dtd">
<svg version="1.1" xmlns="http://www.w3.org/2000/svg" xmlns:xlink="http://www.w3.org/1999/xlink" x="0px" y="0px"
	 viewBox="0 0 125 125.114" style="enable-background:new 0 0 125 125.114;" xml:space="preserve">
<g id="ike">
	<g id="ike_2_">
		<g>
			<g>
				<path style="fill:#FFFFFF;" d="M107.5,96.718c8.284,0,15,5.797,15,12.949c0,7.151-6.716,12.949-15,12.949s-15-5.797-15-12.949
					c0,7.151-6.716,12.949-15,12.949s-15-5.797-15-12.949c0,7.151-6.716,12.949-15,12.949s-15-5.797-15-12.949
					c0,7.151-6.716,12.949-15,12.949s-15-5.797-15-12.949c0-7.151,6.716-12.949,15-12.949"/>
				<path d="M107.566,95.219l1.031-0.001l0.517,0.001l0.583,0.049c0.388,0.037,0.783,0.064,1.168,0.115l1.112,0.209
					c1.473,0.323,2.937,0.785,4.3,1.493c1.366,0.69,2.688,1.532,3.814,2.626c1.128,1.079,2.167,2.305,2.913,3.734
					c0.758,1.415,1.298,2.971,1.54,4.591c0.047,0.405,0.073,0.813,0.105,1.221l0.022,0.306l0.005,0.077l0.001,0.019l-0.004,0.145
					l-0.001,0.032l-0.004,0.129l-0.018,0.515c0.016,0.591-0.148,1.628-0.31,2.446c-0.37,1.608-1.067,3.115-1.94,4.48
					c-0.869,1.378-1.997,2.55-3.222,3.57c-1.222,1.033-2.604,1.841-4.045,2.485c-1.436,0.669-2.969,1.077-4.512,1.363
					c-0.776,0.12-1.555,0.232-2.339,0.251l-0.588,0.031l-0.147,0.007l-0.037,0.002l-0.143-0.003l-0.064-0.003l-0.257-0.011
					l-1.029-0.043c-0.748-0.075-1.676-0.162-2.422-0.332l-1.155-0.256c-0.38-0.108-0.757-0.232-1.132-0.354
					c-1.493-0.52-2.946-1.195-4.261-2.11c-1.31-0.909-2.54-1.972-3.533-3.259c-0.99-1.277-1.843-2.695-2.34-4.263
					c-0.507-1.556-0.753-3.197-0.674-4.815h4c-0.004,0.537-0.003,1.08-0.026,1.622c-0.076,0.535-0.135,1.079-0.242,1.611
					c-0.241,1.06-0.582,2.1-1.052,3.08c-0.481,0.973-1.063,1.893-1.739,2.728c-0.67,0.841-1.423,1.613-2.244,2.29
					c-0.811,0.693-1.693,1.298-2.624,1.799c-0.923,0.521-1.896,0.944-2.89,1.286c-0.994,0.353-2.022,0.587-3.055,0.765
					c-0.519,0.066-1.038,0.156-1.559,0.195l-0.783,0.039l-0.392,0.018l-0.196,0.009l-0.098,0.004l-0.049,0.002l-0.158,0
					l-1.372-0.066c-0.485-0.034-1.088-0.127-1.625-0.197c-1.074-0.185-2.072-0.414-3.076-0.768c-0.995-0.342-1.968-0.765-2.89-1.286
					c-0.931-0.501-1.813-1.107-2.624-1.799c-0.822-0.677-1.574-1.449-2.244-2.29c-0.677-0.835-1.258-1.755-1.739-2.728
					c-0.47-0.98-0.811-2.02-1.052-3.08c-0.107-0.532-0.167-1.076-0.242-1.611c-0.023-0.542-0.022-1.084-0.026-1.622h4
					c-0.004,0.537-0.003,1.08-0.026,1.622c-0.076,0.535-0.135,1.079-0.242,1.611c-0.241,1.06-0.582,2.1-1.052,3.08
					c-0.481,0.973-1.063,1.893-1.739,2.728c-0.67,0.841-1.423,1.613-2.244,2.29c-0.811,0.693-1.693,1.298-2.624,1.799
					c-0.923,0.521-1.896,0.944-2.89,1.286c-0.994,0.353-2.022,0.587-3.055,0.765c-0.519,0.066-1.038,0.156-1.559,0.195l-0.783,0.039
					l-0.392,0.018l-0.196,0.009l-0.098,0.004l-0.049,0.002l-0.158,0l-1.372-0.066c-0.485-0.034-1.088-0.127-1.625-0.197
					c-1.074-0.185-2.072-0.414-3.076-0.768c-0.995-0.342-1.968-0.765-2.89-1.286c-0.931-0.501-1.813-1.107-2.624-1.799
					c-0.822-0.677-1.574-1.449-2.244-2.29c-0.677-0.835-1.258-1.755-1.739-2.728c-0.47-0.98-0.811-2.02-1.052-3.08
					c-0.107-0.532-0.167-1.076-0.242-1.611c-0.023-0.542-0.022-1.084-0.026-1.622h4c0.079,1.618-0.168,3.259-0.674,4.815
					c-0.497,1.567-1.351,2.985-2.34,4.263c-0.993,1.287-2.223,2.35-3.533,3.259c-1.315,0.915-2.768,1.59-4.261,2.11
					c-1.493,0.541-3.064,0.781-4.624,0.937l-1.176,0.05l-0.294,0.011l-0.073,0.003l-0.177-0.004l-0.129-0.007l-0.514-0.029
					c-0.36-0.027-0.648-0.021-1.066-0.076l-1.241-0.171c-1.584-0.292-3.087-0.696-4.532-1.366c-1.44-0.644-2.822-1.452-4.045-2.485
					c-1.224-1.02-2.353-2.192-3.222-3.57c-0.874-1.365-1.571-2.872-1.94-4.48c-0.148-0.808-0.309-1.619-0.309-2.441l-0.021-0.614
					l-0.005-0.153l-0.001-0.038l0.005-0.162l0.005-0.064l0.021-0.257l0.091-1.04c0.255-1.815,0.795-3.271,1.552-4.712
					c0.746-1.429,1.785-2.654,2.913-3.734c1.126-1.094,2.449-1.936,3.814-2.626c1.364-0.707,2.827-1.17,4.3-1.493
					c1.475-0.347,2.989-0.388,4.476-0.375v3c-1.254,0.104-2.498,0.257-3.685,0.62c-1.183,0.351-2.337,0.802-3.372,1.441
					c-1.044,0.615-2.005,1.356-2.815,2.215c-0.805,0.856-1.531,1.79-2,2.833c-0.484,1.007-0.801,2.194-0.902,3.108l-0.04,1.016
					l-0.009,0.257l-0.002,0.064l-0.001,0.016c-0.001,0.034,0.007-0.232,0.004-0.113l0.003,0.026l0.01,0.104l0.039,0.414
					c0.018,0.555,0.171,1.092,0.286,1.628c0.287,1.066,0.783,2.073,1.41,3c0.618,0.938,1.448,1.745,2.346,2.455
					c0.894,0.723,1.926,1.285,3,1.732c1.059,0.47,2.244,0.738,3.359,0.919l0.802,0.098c0.262,0.038,0.664,0.029,0.989,0.045
					l0.515,0.016l0.129,0.004l0.032,0.001c0.103,0.002-0.122-0.002-0.094-0.002l0.014-0.001l0.055-0.003l0.221-0.011l0.882-0.04
					c1.165-0.126,2.332-0.308,3.429-0.7c1.103-0.36,2.176-0.832,3.13-1.469c0.97-0.61,1.871-1.334,2.605-2.188
					c0.741-0.843,1.387-1.774,1.833-2.794c0.444-1.021,0.701-2.111,0.826-3.242c0.122-1.104,1.116-1.901,2.22-1.779
					c0.941,0.104,1.658,0.84,1.775,1.739l0.005,0.041l0.146,1.119c0.095,0.364,0.158,0.731,0.261,1.088
					c0.232,0.709,0.519,1.397,0.898,2.04c0.373,0.646,0.8,1.266,1.309,1.826c0.499,0.565,1.06,1.087,1.676,1.541
					c0.308,0.228,0.608,0.464,0.949,0.648c0.328,0.201,0.646,0.416,1.001,0.575c0.68,0.363,1.404,0.654,2.145,0.887
					c0.729,0.242,1.522,0.42,2.252,0.538c0.372,0.037,0.674,0.105,1.101,0.134l1.372,0.054c-0.215-0.005-0.054-0.002-0.1-0.003
					l0.009,0l0.018-0.001l0.037-0.002l0.074-0.003l0.147-0.006l0.294-0.012l0.589-0.021c0.391-0.025,0.777-0.095,1.166-0.136
					c0.771-0.125,1.534-0.299,2.272-0.542c0.741-0.232,1.465-0.524,2.145-0.887c0.355-0.159,0.673-0.374,1.001-0.575
					c0.341-0.185,0.641-0.421,0.949-0.648c0.616-0.453,1.176-0.975,1.676-1.541c0.509-0.56,0.935-1.18,1.309-1.826
					c0.38-0.644,0.667-1.331,0.898-2.04c0.103-0.357,0.166-0.724,0.261-1.088l0.146-1.119c0.144-1.105,1.156-1.883,2.26-1.74
					c0.927,0.121,1.624,0.855,1.74,1.74l0.146,1.119c0.095,0.364,0.158,0.731,0.261,1.088c0.232,0.709,0.519,1.397,0.898,2.04
					c0.373,0.646,0.8,1.266,1.309,1.826c0.499,0.565,1.06,1.087,1.676,1.541c0.308,0.228,0.608,0.464,0.949,0.648
					c0.328,0.201,0.646,0.416,1.001,0.575c0.68,0.363,1.404,0.654,2.145,0.887c0.729,0.242,1.522,0.42,2.252,0.538
					c0.372,0.037,0.674,0.105,1.101,0.134l1.372,0.054c-0.215-0.005-0.054-0.002-0.1-0.003l0.009,0l0.018-0.001l0.037-0.002
					l0.074-0.003l0.147-0.006l0.294-0.012l0.589-0.021c0.391-0.025,0.777-0.095,1.166-0.136c0.771-0.125,1.534-0.299,2.272-0.542
					c0.741-0.232,1.465-0.524,2.145-0.887c0.355-0.159,0.673-0.374,1.001-0.575c0.341-0.185,0.641-0.421,0.949-0.648
					c0.616-0.453,1.176-0.975,1.676-1.541c0.509-0.56,0.935-1.18,1.309-1.826c0.38-0.644,0.667-1.331,0.898-2.04
					c0.103-0.357,0.166-0.724,0.261-1.088l0.146-1.119l0.005-0.039c0.143-1.102,1.153-1.879,2.255-1.735
					c0.938,0.122,1.641,0.874,1.74,1.775c0.125,1.131,0.382,2.221,0.826,3.242c0.446,1.02,1.092,1.951,1.833,2.794
					c0.734,0.854,1.636,1.578,2.605,2.188c0.955,0.638,2.027,1.109,3.13,1.469l0.834,0.258l0.856,0.19
					c0.592,0.133,1.04,0.168,1.653,0.246l1.029,0.047l0.257,0.012l0.064,0.003l0.016,0.001c0.029,0.001-0.197-0.005-0.095-0.002
					l0.028-0.001l0.11-0.004l0.442-0.014c0.592,0.006,1.175-0.068,1.759-0.139c1.156-0.188,2.311-0.451,3.38-0.923
					c1.074-0.447,2.107-1.009,3-1.732c0.898-0.71,1.728-1.517,2.346-2.455c0.627-0.928,1.123-1.935,1.41-3
					c0.102-0.526,0.251-0.837,0.285-1.623l0.043-0.513l0.011-0.128l0.003-0.032c0.004-0.119-0.003,0.144-0.003,0.112l-0.001-0.013
					l-0.002-0.052l-0.008-0.208l-0.026-0.834c-0.114-1.108-0.43-2.196-0.914-3.228c-0.47-1.043-1.195-1.977-2-2.833
					c-0.81-0.859-1.771-1.6-2.815-2.215c-1.034-0.639-2.188-1.091-3.372-1.441l-0.899-0.237l-0.873-0.163l-0.438-0.085l-0.512-0.046
					l-1.027-0.09L107.566,95.219z"/>
			</g>
		</g>
		<path style="fill:#FFFFFF;stroke:#000000;stroke-width:5;stroke-miterlimit:10;" d="M92.5,16.541c16.569,0,30,13.431,30,30v30.75
			c0,16.569-13.431,30-30,30h-60c-16.569,0-30-13.431-30-30v-30.75c0-16.569,13.431-30,30-30c0,0,5.75,55.5,29.75,55.5
			S92.5,16.541,92.5,16.541z"/>
		<g>
			<circle style="fill:#FFFFFF;" cx="49.312" cy="18.978" r="8.188"/>
			<path d="M59.248,19.066c0,0-0.011,0.201-0.032,0.577c-0.008,0.102-0.005,0.182-0.024,0.331c-0.022,0.151-0.045,0.317-0.071,0.495
				c-0.045,0.371-0.135,0.748-0.249,1.153c-0.235,0.816-0.606,1.8-1.272,2.785c-0.656,0.983-1.572,1.993-2.796,2.786
				c-1.219,0.79-2.73,1.37-4.38,1.544c-0.205,0.028-0.414,0.024-0.623,0.036c-0.235,0.002-0.361,0.029-0.69,0.007
				c-0.366-0.029-0.665-0.024-1.175-0.115c-0.952-0.129-1.737-0.403-2.578-0.766c-1.637-0.75-3.095-1.986-4.136-3.549
				c-0.515-0.786-0.909-1.655-1.192-2.561c-0.269-0.913-0.389-1.864-0.404-2.812c0.032-0.573,0.009-0.786,0.101-1.377
				c0.058-0.526,0.184-0.975,0.302-1.435c0.284-0.906,0.678-1.774,1.192-2.561c1.041-1.563,2.499-2.8,4.136-3.549
				c0.821-0.361,1.672-0.643,2.532-0.76c0.427-0.086,0.856-0.094,1.279-0.122l0.079-0.004l0.04-0.002l0.119,0.001l0.132,0.005
				l0.263,0.009c0.187,0.011,0.322,0.002,0.548,0.03c0.92,0.106,1.692,0.264,2.426,0.548c0.742,0.255,1.41,0.621,2.028,1.003
				c1.224,0.794,2.14,1.803,2.796,2.786c0.666,0.984,1.037,1.968,1.272,2.785c0.116,0.411,0.202,0.782,0.243,1.112
				c0.055,0.327,0.094,0.606,0.099,0.834c0.024,0.456,0.037,0.699,0.037,0.699L59.248,19.066z M55.75,18.978
				c0,0-0.008-0.158-0.022-0.455c-0.014-0.295-0.059-0.732-0.206-1.264c-0.148-0.529-0.373-1.173-0.804-1.819
				c-0.42-0.648-1.017-1.309-1.8-1.86c-0.401-0.258-0.83-0.519-1.315-0.698c-0.47-0.211-1.028-0.315-1.473-0.4
				c-0.116-0.026-0.33-0.027-0.492-0.041l-0.263-0.017l-0.132-0.009c-0.079-0.002,0.088,0.001,0.067,0.001l-0.013,0.001
				l-0.027,0.001l-0.053,0.002c-0.284,0.016-0.575,0.003-0.862,0.058c-0.582,0.056-1.155,0.236-1.718,0.459
				c-0.564,0.23-1.09,0.568-1.589,0.95c-0.488,0.401-0.911,0.885-1.282,1.41c-0.359,0.536-0.632,1.128-0.838,1.746
				c-0.082,0.316-0.177,0.639-0.207,0.913c-0.066,0.199-0.07,0.794-0.094,1.022c0.024,0.658,0.111,1.311,0.301,1.935
				c0.206,0.618,0.479,1.21,0.838,1.746c0.372,0.525,0.795,1.009,1.282,1.41c0.499,0.383,1.025,0.72,1.589,0.95
				c0.543,0.22,1.182,0.409,1.673,0.453c0.203,0.051,0.625,0.051,0.966,0.066c0.167-0.008,0.533-0.028,0.782-0.057
				c1.096-0.153,2.074-0.563,2.862-1.105c0.783-0.551,1.38-1.212,1.8-1.86c0.431-0.646,0.656-1.289,0.804-1.819
				c0.074-0.274,0.127-0.507,0.142-0.681c0.016-0.091,0.03-0.176,0.043-0.254c0.014-0.08,0.012-0.211,0.019-0.297
				c0.017-0.376,0.026-0.577,0.026-0.577L55.75,18.978z"/>
		</g>
		<g>
			<circle style="fill:#FFFFFF;" cx="49.312" cy="39.355" r="8.188"/>
			<path d="M59.248,39.444c0,0-0.011,0.201-0.032,0.577c-0.008,0.102-0.005,0.182-0.024,0.331c-0.022,0.151-0.045,0.317-0.071,0.495
				c-0.045,0.371-0.135,0.748-0.249,1.153c-0.235,0.816-0.606,1.8-1.272,2.785c-0.656,0.983-1.572,1.993-2.796,2.786
				c-1.219,0.79-2.73,1.37-4.38,1.544c-0.205,0.028-0.414,0.024-0.623,0.036c-0.235,0.002-0.361,0.029-0.69,0.007
				c-0.366-0.029-0.665-0.024-1.175-0.115c-0.952-0.129-1.737-0.403-2.578-0.766c-1.637-0.75-3.095-1.986-4.136-3.549
				c-0.515-0.786-0.909-1.655-1.192-2.561c-0.269-0.913-0.389-1.864-0.404-2.812c0.032-0.573,0.009-0.786,0.101-1.377
				c0.058-0.526,0.184-0.975,0.302-1.435c0.284-0.906,0.678-1.774,1.192-2.561c1.041-1.563,2.499-2.8,4.136-3.549
				c0.821-0.361,1.672-0.643,2.532-0.76c0.427-0.086,0.856-0.094,1.279-0.122l0.079-0.004l0.04-0.002l0.119,0.001l0.132,0.005
				l0.263,0.009c0.187,0.011,0.322,0.002,0.548,0.03c0.92,0.106,1.692,0.264,2.426,0.548c0.742,0.255,1.41,0.621,2.028,1.003
				c1.224,0.794,2.14,1.803,2.796,2.786c0.666,0.984,1.037,1.968,1.272,2.785c0.116,0.411,0.202,0.782,0.243,1.112
				c0.055,0.327,0.094,0.606,0.099,0.834c0.024,0.456,0.037,0.699,0.037,0.699L59.248,39.444z M55.75,39.355
				c0,0-0.008-0.158-0.022-0.455c-0.014-0.295-0.059-0.732-0.206-1.264c-0.148-0.529-0.373-1.173-0.804-1.819
				c-0.42-0.648-1.017-1.309-1.8-1.86c-0.401-0.258-0.83-0.519-1.315-0.698c-0.47-0.211-1.028-0.315-1.473-0.4
				c-0.116-0.026-0.33-0.027-0.492-0.041L49.374,32.8l-0.132-0.009c-0.079-0.002,0.088,0.001,0.067,0.001l-0.013,0.001l-0.027,0.001
				l-0.053,0.002c-0.284,0.016-0.575,0.003-0.862,0.058c-0.582,0.056-1.155,0.236-1.718,0.459c-0.564,0.23-1.09,0.568-1.589,0.95
				c-0.488,0.401-0.911,0.885-1.282,1.41c-0.359,0.536-0.632,1.128-0.838,1.746c-0.082,0.316-0.177,0.639-0.207,0.913
				c-0.066,0.199-0.07,0.794-0.094,1.022c0.024,0.658,0.111,1.311,0.301,1.935c0.206,0.618,0.479,1.21,0.838,1.746
				c0.372,0.525,0.795,1.009,1.282,1.41c0.499,0.383,1.025,0.72,1.589,0.95c0.543,0.22,1.182,0.409,1.673,0.453
				c0.203,0.051,0.625,0.051,0.966,0.066c0.167-0.008,0.533-0.028,0.782-0.057c1.096-0.153,2.074-0.563,2.862-1.105
				c0.783-0.551,1.38-1.212,1.8-1.86c0.431-0.646,0.656-1.289,0.804-1.819c0.074-0.274,0.127-0.507,0.142-0.681
				c0.016-0.091,0.03-0.176,0.043-0.254c0.014-0.08,0.012-0.211,0.019-0.297c0.017-0.376,0.026-0.577,0.026-0.577L55.75,39.355z"/>
		</g>
		<g>
			<circle style="fill:#FFFFFF;" cx="75.562" cy="18.978" r="8.188"/>
			<path d="M85.248,19.053c0,0-0.009,0.201-0.026,0.577c0.001,0.165-0.032,0.454-0.085,0.808c-0.04,0.358-0.124,0.726-0.232,1.124
				c-0.222,0.8-0.576,1.766-1.22,2.737c-0.633,0.972-1.529,1.96-2.709,2.778c-1.182,0.808-2.664,1.419-4.306,1.633
				c-0.204,0.033-0.412,0.034-0.621,0.051c-0.235,0.007-0.361,0.039-0.689,0.022c-0.367-0.019-0.664-0.003-1.179-0.084
				c-0.96-0.109-1.755-0.363-2.614-0.71c-0.839-0.352-1.625-0.851-2.359-1.431c-0.722-0.598-1.355-1.314-1.9-2.1
				c-0.532-0.797-0.944-1.68-1.242-2.604c-0.284-0.931-0.417-1.904-0.44-2.876c0.037-0.601,0.017-0.783,0.117-1.405
				c0.065-0.545,0.198-1.003,0.324-1.471c0.299-0.924,0.71-1.807,1.242-2.604c0.545-0.786,1.178-1.502,1.9-2.1
				c0.734-0.58,1.52-1.079,2.359-1.431c0.838-0.345,1.701-0.607,2.567-0.704c0.43-0.076,0.861-0.074,1.284-0.092l0.079-0.003
				l0.04-0.001l0.119,0.002l0.132,0.009l0.263,0.017c0.186,0.016,0.322,0.012,0.546,0.045c0.914,0.126,1.676,0.302,2.398,0.6
				c0.729,0.27,1.381,0.648,1.98,1.039c1.181,0.818,2.077,1.806,2.709,2.778c0.644,0.971,0.997,1.937,1.22,2.737
				c0.109,0.403,0.191,0.766,0.227,1.088c0.051,0.32,0.087,0.592,0.089,0.815c0.019,0.445,0.03,0.682,0.03,0.682L85.248,19.053z
				 M82.25,18.978c0,0-0.01-0.164-0.029-0.472c-0.019-0.306-0.072-0.758-0.232-1.307c-0.161-0.546-0.404-1.207-0.857-1.867
				c-0.443-0.659-1.061-1.341-1.887-1.868c-0.419-0.25-0.865-0.498-1.363-0.662c-0.483-0.196-1.051-0.282-1.501-0.347
				c-0.117-0.021-0.331-0.017-0.493-0.026l-0.263-0.009l-0.132-0.005c-0.079-0.002,0.088,0.002,0.066,0.002l-0.013,0.001
				l-0.027,0.002l-0.053,0.004c-0.284,0.026-0.573,0.023-0.857,0.089c-0.576,0.076-1.137,0.276-1.683,0.515
				c-1.086,0.506-2.054,1.338-2.749,2.379c-0.341,0.525-0.597,1.103-0.788,1.702c-0.074,0.306-0.163,0.621-0.186,0.876
				c-0.059,0.168-0.06,0.795-0.079,0.994c0.014,0.634,0.089,1.265,0.264,1.871c0.191,0.599,0.447,1.177,0.788,1.702
				c0.694,1.041,1.662,1.873,2.749,2.379c0.526,0.236,1.154,0.445,1.637,0.509c0.199,0.061,0.622,0.071,0.962,0.097
				c0.167,0.003,0.534-0.008,0.784-0.027c1.104-0.114,2.113-0.491,2.937-1.015c0.826-0.527,1.443-1.21,1.887-1.868
				c0.453-0.659,0.696-1.321,0.857-1.867c0.08-0.281,0.139-0.523,0.159-0.71c0.035-0.185,0.069-0.356,0.072-0.569
				c0.021-0.376,0.032-0.577,0.032-0.577L82.25,18.978z"/>
		</g>
		<g>
			<circle style="fill:#FFFFFF;" cx="75.562" cy="39.355" r="8.188"/>
			<path d="M85.248,39.431c0,0-0.009,0.201-0.026,0.577c0.001,0.165-0.032,0.454-0.085,0.808c-0.04,0.358-0.124,0.726-0.232,1.124
				c-0.222,0.8-0.576,1.766-1.22,2.737c-0.633,0.972-1.529,1.96-2.709,2.778c-1.182,0.808-2.664,1.419-4.306,1.633
				c-0.204,0.033-0.412,0.034-0.621,0.051c-0.235,0.007-0.361,0.039-0.689,0.022c-0.367-0.019-0.664-0.003-1.179-0.084
				c-0.96-0.109-1.755-0.363-2.614-0.71c-0.839-0.352-1.625-0.851-2.359-1.431c-0.722-0.598-1.355-1.314-1.9-2.1
				c-0.532-0.797-0.944-1.68-1.242-2.604c-0.284-0.931-0.417-1.904-0.44-2.876c0.037-0.601,0.017-0.783,0.117-1.405
				c0.065-0.545,0.198-1.003,0.324-1.471c0.299-0.924,0.71-1.807,1.242-2.604c0.545-0.786,1.178-1.502,1.9-2.1
				c0.734-0.58,1.52-1.079,2.359-1.431c0.838-0.345,1.701-0.607,2.567-0.704c0.43-0.076,0.861-0.074,1.284-0.092l0.079-0.003
				l0.04-0.001l0.119,0.002l0.132,0.009l0.263,0.017c0.186,0.016,0.322,0.012,0.546,0.045c0.914,0.126,1.676,0.302,2.398,0.6
				c0.729,0.27,1.381,0.648,1.98,1.039c1.181,0.818,2.077,1.806,2.709,2.778c0.644,0.971,0.997,1.937,1.22,2.737
				c0.109,0.403,0.191,0.766,0.227,1.088c0.051,0.32,0.087,0.592,0.089,0.815c0.019,0.445,0.03,0.682,0.03,0.682L85.248,39.431z
				 M82.25,39.355c0,0-0.01-0.164-0.029-0.472c-0.019-0.306-0.072-0.758-0.232-1.307c-0.161-0.546-0.404-1.207-0.857-1.867
				c-0.443-0.659-1.061-1.341-1.887-1.868c-0.419-0.25-0.865-0.498-1.363-0.662c-0.483-0.196-1.051-0.282-1.501-0.347
				c-0.117-0.021-0.331-0.017-0.493-0.026l-0.263-0.009l-0.132-0.005c-0.079-0.002,0.088,0.002,0.066,0.002l-0.013,0.001
				l-0.027,0.002L75.466,32.8c-0.284,0.026-0.573,0.023-0.857,0.089c-0.576,0.076-1.137,0.276-1.683,0.515
				c-1.086,0.506-2.054,1.338-2.749,2.379c-0.341,0.525-0.597,1.103-0.788,1.702c-0.074,0.306-0.163,0.621-0.186,0.876
				c-0.059,0.168-0.06,0.795-0.079,0.994c0.014,0.634,0.089,1.265,0.264,1.871c0.191,0.599,0.447,1.177,0.788,1.702
				c0.694,1.041,1.662,1.873,2.749,2.379c0.526,0.236,1.154,0.445,1.637,0.509c0.199,0.061,0.622,0.071,0.962,0.097
				c0.167,0.003,0.534-0.008,0.784-0.027c1.104-0.114,2.113-0.491,2.937-1.015c0.826-0.527,1.443-1.21,1.887-1.868
				c0.453-0.659,0.696-1.321,0.857-1.867c0.08-0.281,0.139-0.523,0.159-0.71c0.035-0.185,0.069-0.356,0.072-0.569
				c0.021-0.376,0.032-0.577,0.032-0.577L82.25,39.355z"/>
		</g>
		<g>
			<g>
				<path style="fill:#FFFFFF;" d="M62.5,81.042c-18.472,0-33.5-15.028-33.5-33.5v-36c0-4.971,4.029-9,9-9s9,4.029,9,9v36
					c0,8.547,6.953,15.5,15.5,15.5S78,56.089,78,47.542v-36c0-4.971,4.029-9,9-9s9,4.029,9,9v36
					C96,66.014,80.972,81.042,62.5,81.042z"/>
				<path d="M62.399,83.04c0,0-0.346-0.017-1.015-0.049c-0.335-0.016-0.751-0.036-1.245-0.06c-0.505-0.038-1.037-0.012-1.759-0.142
					c-2.848-0.333-6.821-1.121-11.472-3.359c-2.339-1.074-4.72-2.665-7.149-4.583c-2.36-2.009-4.672-4.459-6.738-7.393
					c-1.993-2.978-3.704-6.436-4.826-10.309c-0.236-0.979-0.569-1.951-0.727-2.973c-0.16-1.021-0.339-2.053-0.481-3.101
					c-0.06-1.057-0.121-2.126-0.182-3.207c-0.037-1.055-0.022-2.055-0.035-3.101c-0.053-8.306-0.11-17.305-0.171-26.822
					c-0.007-1.19-0.014-2.387-0.022-3.593c-0.001-0.603-0.003-1.208-0.005-1.814l-0.002-0.911l0.043-1.036
					c0.029-0.356,0.103-0.833,0.168-1.243c0.081-0.401,0.184-0.763,0.282-1.146c0.121-0.371,0.261-0.738,0.396-1.105
					c0.167-0.354,0.331-0.711,0.513-1.059c0.757-1.377,1.803-2.6,3.061-3.568c2.499-1.961,5.927-2.792,9.079-2.192
					c3.256,0.574,6.142,2.643,7.817,5.506c0.838,1.427,1.374,3.053,1.516,4.719c0.021,0.396,0.055,0.877,0.053,1.206l-0.005,0.984
					l-0.01,1.974c-0.013,2.636-0.025,5.291-0.038,7.963c-0.007,5.343-0.1,10.75-0.161,16.201c-0.034,2.725-0.067,5.462-0.101,8.206
					l-0.003,0.257l-0.002,0.129c-0.002-0.006,0.002,0.196-0.004,0.018l0.02,0.515l0.039,1.03c0.107,0.561,0.107,1.055,0.275,1.646
					c0.22,1.169,0.703,2.267,1.217,3.341c1.156,2.085,2.841,3.909,4.914,5.132c2.041,1.284,4.453,1.882,6.859,1.943
					c0.443-0.051,1.427-0.031,1.871-0.152l0.825-0.131l0.871-0.228c0.591-0.12,1.134-0.396,1.703-0.586
					c0.532-0.28,1.098-0.494,1.595-0.837c2.077-1.221,3.765-3.044,4.926-5.131c0.518-1.074,1.005-2.173,1.229-3.344
					c0.167-0.571,0.186-1.172,0.288-1.754l0.033-0.889l0.02-0.444l-0.005-0.514c-0.027-2.744-0.055-5.481-0.082-8.206
					c-0.054-5.451-0.108-10.859-0.162-16.201c-0.027-2.671-0.053-5.327-0.079-7.963l-0.02-1.974l-0.01-0.984L75.5,11.581
					l0.007-0.249l0.012-0.245l0.023-0.49c0.029-0.377,0.111-0.897,0.18-1.335c0.097-0.413,0.195-0.815,0.314-1.216
					c0.265-0.791,0.589-1.563,1.011-2.278c1.658-2.875,4.573-4.972,7.808-5.557c0.404-0.057,0.806-0.146,1.212-0.163l0.609-0.033
					L86.981,0l0.37,0.014l0.475,0.025l0.243,0.014l0.335,0.044c0.439,0.064,0.917,0.123,1.287,0.234
					c1.575,0.381,3.056,1.099,4.321,2.075c2.543,1.938,4.185,4.955,4.439,8.074c0.02,0.379,0.044,0.799,0.049,1.142l-0.006,0.911
					c-0.004,0.607-0.008,1.211-0.013,1.814c-0.008,1.206-0.017,2.403-0.025,3.593c-0.066,9.518-0.128,18.516-0.186,26.822
					c-0.004,0.519-0.007,1.036-0.011,1.549l-0.005,0.768l-0.003,0.383l-0.01,0.305l-0.011,0.19c-0.058,1.015-0.116,2.018-0.173,3.01
					c-0.139,1.062-0.322,2.144-0.488,3.193c-0.164,1.056-0.494,2.005-0.732,2.992C95.714,61.03,94,64.491,92.004,67.47
					c-2.07,2.935-4.401,5.371-6.764,7.375c-2.428,1.917-4.81,3.509-7.148,4.583c-4.638,2.239-8.666,3.028-11.387,3.352
					c-1.363,0.183-2.423,0.153-3.131,0.212c-0.709,0.033-1.076,0.05-1.076,0.05L62.399,83.04z M62.5,79.042
					c0,0,0.325-0.018,0.955-0.053c0.627-0.059,1.57-0.028,2.777-0.2c2.411-0.299,5.971-1.017,10.066-3.017
					c2.068-0.954,4.163-2.384,6.309-4.084c2.072-1.799,4.097-3.985,5.893-6.592c1.72-2.654,3.183-5.715,4.124-9.124
					c0.189-0.855,0.486-1.732,0.601-2.597c0.126-0.867,0.253-1.745,0.382-2.634c0.043-0.993,0.087-1.997,0.132-3.012l0.008-0.191
					l0.004-0.095c-0.004,0.196-0.002,0-0.003,0.019l-0.003-0.383l-0.005-0.768c-0.004-0.514-0.007-1.03-0.011-1.549
					c-0.058-8.306-0.12-17.305-0.186-26.822c-0.008-1.19-0.017-2.387-0.025-3.593c-0.004-0.603-0.008-1.208-0.013-1.814
					l-0.006-0.911l-0.035-0.684c-0.152-1.757-1.088-3.442-2.531-4.528c-0.716-0.544-1.546-0.939-2.425-1.146
					c-0.236-0.075-0.391-0.069-0.576-0.11L87.8,5.126l-0.231-0.012l-0.475-0.023l-0.119-0.006c0.02,0-0.212-0.008,0.014-0.001
					l-0.171,0.01L86.475,5.11c-0.23,0.002-0.452,0.064-0.68,0.086c-1.804,0.304-3.452,1.485-4.4,3.097
					c-0.243,0.4-0.421,0.834-0.579,1.275l-0.18,0.676c-0.02,0.208-0.066,0.331-0.095,0.605l-0.042,0.855l-0.01,0.984l-0.02,1.974
					c-0.026,2.636-0.053,5.291-0.079,7.963c-0.053,5.343-0.107,10.75-0.162,16.201c-0.027,2.725-0.055,5.462-0.082,8.206
					l-0.005,0.515l-0.032,0.585L80.036,49.3c-0.134,0.769-0.198,1.554-0.422,2.305c-0.337,1.532-0.987,2.972-1.706,4.355
					c-1.54,2.716-3.754,5.062-6.465,6.635c-0.655,0.431-1.386,0.724-2.086,1.07c-0.738,0.257-1.455,0.588-2.222,0.752l-1.141,0.285
					l-1.228,0.184c-0.918,0.147-1.332,0.094-2.267,0.157c-3.113-0.032-6.272-0.803-8.949-2.439
					c-2.714-1.571-4.932-3.917-6.477-6.634c-0.723-1.383-1.376-2.824-1.717-4.358c-0.223-0.731-0.307-1.622-0.435-2.413
					l-0.065-1.028l-0.032-0.514l-0.009-0.625c-0.034-2.744-0.068-5.481-0.101-8.206c-0.061-5.451-0.154-10.859-0.161-16.201
					c-0.013-2.671-0.026-5.327-0.038-7.963l-0.01-1.974l-0.005-0.984c-0.002-0.327-0.026-0.499-0.03-0.756
					c-0.072-0.945-0.373-1.856-0.843-2.667c-0.93-1.623-2.608-2.833-4.391-3.147C37.37,4.773,35.47,5.241,34.02,6.351
					c-0.724,0.55-1.331,1.25-1.77,2.036c-0.441,0.754-0.704,1.734-0.779,2.445l-0.041,0.79l-0.002,0.911
					c-0.002,0.607-0.003,1.211-0.005,1.814c-0.007,1.206-0.014,2.403-0.022,3.593c-0.061,9.518-0.118,18.516-0.171,26.822
					c0,1.029-0.028,2.086-0.004,3.062c0.041,0.949,0.082,1.888,0.123,2.816c0.131,0.919,0.261,1.828,0.389,2.725
					c0.122,0.9,0.415,1.753,0.606,2.617c0.942,3.412,2.408,6.476,4.131,9.131c1.801,2.609,3.845,4.779,5.919,6.573
					c2.146,1.7,4.241,3.13,6.308,4.084c4.082,2.001,7.697,2.719,9.981,3.01c0.555,0.122,1.178,0.105,1.659,0.144
					c0.494,0.026,0.91,0.048,1.245,0.066c0.67,0.036,1.015,0.054,1.015,0.054L62.5,79.042z"/>
			</g>
		</g>
		<g>
			<circle style="fill:#FFFFFF;stroke:#000000;stroke-width:3;stroke-miterlimit:10;" cx="36.75" cy="90.707" r="6.5"/>
			<circle style="fill:#FFFFFF;stroke:#000000;stroke-width:3;stroke-miterlimit:10;" cx="88.25" cy="90.707" r="6.5"/>
			<circle style="fill:#FFFFFF;stroke:#000000;stroke-width:3;stroke-miterlimit:10;" cx="62.5" cy="93.709" r="6.5"/>
		</g>
	</g>
</g>
<g id="Layer_1">
</g>
</svg>
