<?xml version="1.0" encoding="iso-8859-1"?>
<!-- Generator: Adobe Illustrator 19.2.0, SVG Export Plug-In . SVG Version: 6.00 Build 0)  -->
<!DOCTYPE svg PUBLIC "-//W3C//DTD SVG 1.1//EN" "http://www.w3.org/Graphics/SVG/1.1/DTD/svg11.dtd">
<svg version="1.1" xmlns="http://www.w3.org/2000/svg" xmlns:xlink="http://www.w3.org/1999/xlink" x="0px" y="0px"
	 viewBox="0 0 140 140" style="enable-background:new 0 0 140 140;" xml:space="preserve">
<g id="ijo">
	<g id="ijo_1_">
		<path style="fill:#FFFFFF;stroke:#000000;stroke-width:5;stroke-miterlimit:10;" d="M40.413,129.91c-16.569,0-30-13.431-30-30
			c0-8.284,3.358-15.784,8.787-21.213l58.476-58.359C83.178,13.953,91.323,9.91,100.413,9.91c16.569,0,30,13.431,30,30v60
			c0,16.569-13.431,30-30,30H40.413z"/>
		
			<ellipse transform="matrix(0.9397 -0.342 0.342 0.9397 -14.7343 21.2581)" style="fill:#FFFFFF;stroke:#000000;stroke-width:5;stroke-miterlimit:10;" cx="52.913" cy="52.41" rx="40" ry="40"/>
		<g>
			<path style="fill:none;stroke:#000000;stroke-width:4;stroke-miterlimit:10;" d="M50.681,14.114L64.535,52.18
				c2.147,5.899-0.74,12.366-6.449,14.443l0,0c-5.709,2.078-12.077-1.02-14.224-6.919L30.007,21.639"/>
			
				<ellipse transform="matrix(0.9397 -0.342 0.342 0.9397 -19.3213 14.1815)" style="fill:none;stroke:#000000;stroke-width:3;stroke-miterlimit:10;" cx="30.553" cy="61.879" rx="8.25" ry="8.25"/>
			
				<ellipse transform="matrix(0.9397 -0.342 0.342 0.9397 -10.8993 28.7688)" style="fill:none;stroke:#000000;stroke-width:3;stroke-miterlimit:10;" cx="76.128" cy="45.291" rx="8.25" ry="8.25"/>
		</g>
		<path style="fill:none;stroke:#000000;stroke-width:4;stroke-miterlimit:10;" d="M11.096,105.655
			c3.906-5.945,10.635-9.869,18.28-9.869c12.071,0,21.857,9.786,21.857,21.857c0,4.498-1.359,8.679-3.688,12.154"/>
		<path style="fill:none;stroke:#000000;stroke-width:3;stroke-miterlimit:10;" d="M15.119,115.144
			c1.819-5.16,6.738-8.858,12.521-8.858c7.33,0,13.272,5.942,13.272,13.272c0,2.731-0.825,5.27-2.24,7.38
			c-0.758,1.131-1.686,2.139-2.747,2.988"/>
		<g>
			<path d="M83.64,78.749l17.296,16.707c0.596,0.576,0.612,1.525,0.037,2.121c-0.56,0.58-1.478,0.609-2.076,0.079L80.921,81.683
				c-0.826-0.734-0.9-1.998-0.167-2.824c0.734-0.826,1.998-0.9,2.824-0.167C83.598,78.709,83.622,78.731,83.64,78.749z"/>
		</g>
		<g>
			<path d="M89.419,68.746l22.776,13.814c0.708,0.43,0.934,1.352,0.505,2.061c-0.419,0.691-1.311,0.922-2.012,0.533l-23.278-12.95
				c-0.965-0.537-1.313-1.755-0.776-2.721c0.537-0.965,1.755-1.313,2.721-0.776C89.374,68.719,89.4,68.734,89.419,68.746z"/>
		</g>
	</g>
</g>
<g id="Layer_1">
</g>
</svg>
