<?xml version="1.0" encoding="iso-8859-1"?>
<!-- Generator: Adobe Illustrator 19.2.0, SVG Export Plug-In . SVG Version: 6.00 Build 0)  -->
<!DOCTYPE svg PUBLIC "-//W3C//DTD SVG 1.1//EN" "http://www.w3.org/Graphics/SVG/1.1/DTD/svg11.dtd">
<svg version="1.1" xmlns="http://www.w3.org/2000/svg" xmlns:xlink="http://www.w3.org/1999/xlink" x="0px" y="0px"
	 viewBox="0 0 140 140" style="enable-background:new 0 0 140 140;" xml:space="preserve">
<g id="mani">
	<g id="mani_1_">
		<path style="fill:#FFFFFF;stroke:#000000;stroke-width:5;stroke-linecap:round;stroke-linejoin:round;stroke-miterlimit:10;" d="
			M100.413,9.919c16.569,0,30,13.431,30,30v60c0,16.569-13.431,30-30,30h-60c-16.569,0-30-13.431-30-30c0,0,0-21,0-30v-6.013
			c0-2.781,0.167-7.486,4.001-11.319c5.092-5.092,29.065-24.887,43.32-36.924c6.012-5.077,7.054-5.577,12.804-5.577L100.413,9.919z"
			/>
		<g>
			<path d="M101.901,28.919H64.938l1.347-0.521l-39.524,36l0.653-1.478l0.25,40.999l-2.25-2.25h38.975l-1.515,0.587l39.524-36
				l-0.735,1.663L101.901,28.919z M105.913,26.919l0.25,40.999c0.004,0.652-0.273,1.24-0.719,1.649l-0.016,0.015l-39.524,36
				c-0.43,0.392-0.976,0.586-1.515,0.587H25.413H25.4c-1.235,0-2.236-1.001-2.236-2.236l0-0.014l0.25-40.999l0-0.012
				c0.004-0.579,0.258-1.104,0.653-1.466l39.524-36c0.382-0.348,0.867-0.521,1.347-0.521h38.975c1.1,0,1.993,0.888,2,1.987
				L105.913,26.919z"/>
		</g>
		
			<line style="fill:none;stroke:#000000;stroke-width:4;stroke-linecap:round;stroke-linejoin:round;stroke-miterlimit:10;" x1="35.746" y1="65.419" x2="95.08" y2="65.419"/>
		
			<line style="fill:none;stroke:#000000;stroke-width:4;stroke-linecap:round;stroke-linejoin:round;stroke-miterlimit:10;" x1="64.663" y1="90.252" x2="64.663" y2="40.586"/>
		
			<line style="fill:none;stroke:#000000;stroke-width:4;stroke-linecap:round;stroke-linejoin:round;stroke-miterlimit:10;" x1="38.955" y1="91.127" x2="90.371" y2="39.711"/>
	</g>
</g>
<g id="Layer_1">
</g>
</svg>
