<?xml version="1.0" encoding="iso-8859-1"?>
<!-- Generator: Adobe Illustrator 19.2.0, SVG Export Plug-In . SVG Version: 6.00 Build 0)  -->
<!DOCTYPE svg PUBLIC "-//W3C//DTD SVG 1.1//EN" "http://www.w3.org/Graphics/SVG/1.1/DTD/svg11.dtd">
<svg version="1.1" xmlns="http://www.w3.org/2000/svg" xmlns:xlink="http://www.w3.org/1999/xlink" x="0px" y="0px"
	 viewBox="0 0 125 125.25" style="enable-background:new 0 0 125 125.25;" xml:space="preserve">
<g id="sama">
	<g id="sama_2_">
		<g>
			<g>
				<path style="fill:#FFFFFF;" d="M73.569,6.829C81.531,5.403,88,2.999,95.697,2.999c10.943,0,16.46,6.212,16.46,13.875l0,0
					c0,7.663-5.885,13.875-16.46,13.875c-7.41,0-12.066-3.408-20.263-5.448"/>
				<path d="M73.199,4.864c0,0,0.351-0.079,1.009-0.227c0.672-0.151,1.563-0.366,2.777-0.678c1.21-0.314,2.68-0.696,4.366-1.134
					c1.705-0.435,3.645-0.954,5.84-1.378c2.191-0.426,4.63-0.806,7.263-0.921c0.329-0.009,0.661-0.018,0.994-0.027l0.343-0.004
					l0.236,0.007l0.474,0.014c0.645,0.025,1.231,0.012,2.02,0.111c0.746,0.076,1.509,0.145,2.226,0.305
					c0.365,0.07,0.731,0.141,1.099,0.212l1.101,0.314c2.933,0.838,5.936,2.534,8.14,5.159c2.202,2.618,3.435,6.058,3.535,9.387
					l0.026,0.626l0.006,0.156l0.003,0.078l-0.005,0.191l-0.012,0.269l-0.049,1.076c-0.112,0.891-0.226,1.831-0.46,2.623
					c-0.423,1.645-1.098,3.25-2.063,4.652c-1.879,2.848-4.692,4.897-7.57,6.018c-2.886,1.172-5.83,1.541-8.523,1.552l-0.254,0.007
					l-0.304-0.008l-0.458-0.016c-0.319-0.019-0.573-0.013-0.94-0.053c-0.696-0.064-1.385-0.128-2.003-0.239
					c-1.269-0.19-2.463-0.485-3.575-0.804c-2.225-0.645-4.109-1.42-5.733-2.072c-1.623-0.659-3.006-1.187-4.147-1.616
					c-1.141-0.426-2.042-0.723-2.661-0.912c-0.619-0.19-0.949-0.292-0.949-0.292l-0.065-0.02c-1.056-0.325-1.648-1.444-1.323-2.5
					c0.309-1.005,1.346-1.588,2.354-1.362c0,0,0.365,0.083,1.048,0.238c0.683,0.154,1.684,0.403,2.932,0.765
					c1.251,0.349,2.744,0.854,4.402,1.425c1.66,0.564,3.477,1.2,5.409,1.706c0.968,0.243,1.967,0.457,3.003,0.576
					c0.53,0.078,1.019,0.101,1.52,0.138c0.23,0.026,0.583,0.013,0.872,0.023l0.458,0.01l0.115,0.002l0.058,0.001l0.029,0.001
					c-0.134-0.002-0.022-0.001-0.045-0.002l0.208-0.01c2.238-0.024,4.544-0.416,6.666-1.257c2.128-0.829,4.013-2.234,5.276-4.108
					c0.655-0.923,1.104-1.991,1.401-3.109c0.18-0.582,0.215-1.075,0.319-1.603l0.056-1.076l0.014-0.269l0.002-0.034
					c-0.001,0.044,0.005-0.146-0.002,0.09l-0.003-0.056l-0.006-0.113l-0.024-0.451c-0.091-2.414-0.961-4.657-2.407-6.372
					c-1.466-1.706-3.495-2.909-5.731-3.543l-0.833-0.243l-0.858-0.174c-0.575-0.141-1.12-0.186-1.662-0.256
					c-0.497-0.09-1.196-0.094-1.818-0.126l-0.473-0.02l-0.236-0.01c0.175,0.003,0.033,0.001,0.065,0.002l-0.027,0l-0.055,0.001
					l-0.11,0.001c-0.292,0.003-0.582,0.006-0.871,0.009c-2.309,0.029-4.511,0.301-6.562,0.634c-4.1,0.693-7.628,1.546-10.144,1.986
					c-1.242,0.229-2.289,0.404-2.942,0.503c-0.667,0.102-1.022,0.156-1.022,0.156c-1.093,0.166-2.113-0.584-2.28-1.677
					C71.5,6.074,72.186,5.094,73.199,4.864z"/>
			</g>
			<g>
				<path style="fill:#FFFFFF;" d="M49.063,25.419c-7.953,2.051-12.619,5.33-19.761,5.33c-10.391,0-16.46-6.212-16.46-13.875l0,0
					c0-7.663,7.816-13.875,16.46-13.875c6.116,0,13.291,2.432,21.85,3.855"/>
				<path d="M49.591,27.348c0,0-0.338,0.107-0.972,0.307c-0.66,0.207-1.464,0.484-2.611,0.916c-1.125,0.431-2.491,0.955-4.095,1.606
					c-1.605,0.645-3.47,1.4-5.671,2.027c-2.216,0.611-4.711,1.107-7.502,1.034c-0.304-0.009-0.611-0.019-0.919-0.028
					c-0.298-0.004-0.618-0.018-0.998-0.065c-0.715-0.089-1.483-0.126-2.172-0.286c-0.706-0.138-1.422-0.261-2.133-0.493
					c-0.356-0.108-0.715-0.207-1.071-0.327l-1.061-0.422c-0.719-0.255-1.393-0.671-2.094-1.016c-0.659-0.438-1.363-0.815-1.977-1.35
					c-1.29-0.972-2.416-2.221-3.353-3.599c-0.954-1.375-1.633-2.951-2.065-4.573c-0.242-0.81-0.346-1.642-0.465-2.472
					c-0.034-0.416-0.047-0.832-0.067-1.248l-0.013-0.312l-0.006-0.156l0.012-0.293l0.032-0.53l0.032-0.53
					c0.007-0.092,0.007-0.168,0.02-0.274l0.056-0.349c0.077-0.465,0.163-0.931,0.257-1.393c0.253-0.829,0.475-1.66,0.855-2.421
					c0.32-0.794,0.777-1.496,1.202-2.217c0.492-0.664,0.956-1.359,1.525-1.941c2.17-2.453,4.931-4.113,7.749-5.188
					c1.425-0.502,2.871-0.878,4.315-1.054c0.361-0.045,0.72-0.09,1.076-0.134c0.36-0.015,0.717-0.029,1.073-0.044L29.078,0.5
					c0.112-0.002,0.123-0.009,0.318-0.006l0.232,0.007c0.31,0.011,0.617,0.021,0.922,0.032c2.763,0.185,5.047,0.635,7.198,1.094
					c2.13,0.453,4.022,0.951,5.694,1.363c1.662,0.407,3.11,0.763,4.303,1.055c2.375,0.569,3.734,0.836,3.734,0.836
					c1.084,0.213,1.791,1.264,1.578,2.349c-0.203,1.035-1.171,1.726-2.202,1.601l-0.032-0.004c0,0-1.441-0.178-3.927-0.591
					c-2.484-0.396-6.001-1.16-10.084-1.922c-2.014-0.376-4.282-0.714-6.386-0.79c-0.303-0.005-0.609-0.01-0.916-0.015l-0.232-0.004
					c0.04,0.001-0.104,0.007-0.147,0.01l-0.402,0.022l-0.811,0.04l-0.814,0.117c-1.095,0.139-2.181,0.464-3.263,0.832
					c-2.129,0.812-4.209,2.068-5.754,3.802c-0.419,0.409-0.723,0.895-1.081,1.347c-0.279,0.493-0.612,0.965-0.814,1.489
					c-0.267,0.499-0.394,1.049-0.573,1.565c-0.039,0.233-0.086,0.463-0.141,0.694l-0.043,0.173
					c-0.012,0.069-0.013,0.171-0.021,0.255l-0.035,0.53l-0.035,0.53l-0.004,0.066l-0.002,0.033c-0.005,0.152,0.004-0.17,0.004-0.127
					l0.007,0.109l0.013,0.218l0.049,0.872c0.097,0.569,0.158,1.145,0.334,1.688c0.302,1.096,0.752,2.144,1.403,3.055
					c0.637,0.914,1.385,1.757,2.291,2.419c0.414,0.373,0.93,0.627,1.385,0.945c0.515,0.236,0.979,0.549,1.52,0.729l0.782,0.313
					l0.811,0.242c0.529,0.184,1.088,0.284,1.635,0.4c0.556,0.144,1.061,0.152,1.582,0.239c0.238,0.043,0.539,0.062,0.858,0.071
					c0.308,0.014,0.614,0.028,0.919,0.041c2.084,0.089,4.182-0.205,6.068-0.673c1.903-0.488,3.692-1.105,5.326-1.656
					c1.631-0.557,3.097-1.058,4.327-1.406c1.204-0.353,2.27-0.628,2.892-0.77c0.647-0.151,0.993-0.231,0.993-0.231
					c1.077-0.251,2.152,0.419,2.403,1.496C51.177,26.009,50.575,27.034,49.591,27.348z"/>
			</g>
			<g>
				<path style="fill:#FFFFFF;" d="M24.877,15.971c0,0,4.96,2.268,10.972,2.268"/>
				<path d="M25.695,14.146c0,0,0.135,0.065,0.371,0.179c0.252,0.115,0.622,0.282,1.082,0.462c0.914,0.37,2.177,0.799,3.465,1.131
					c1.287,0.337,2.599,0.565,3.587,0.678c0.494,0.064,0.906,0.093,1.195,0.11c0.289,0.021,0.454,0.032,0.454,0.032l0.077,0.005
					c0.826,0.059,1.448,0.776,1.389,1.602c-0.055,0.778-0.701,1.375-1.466,1.393c0,0-0.187,0.004-0.514,0.01
					c-0.328,0.009-0.796,0.017-1.356-0.004c-1.121-0.028-2.612-0.152-4.083-0.401c-1.472-0.242-2.923-0.594-4.003-0.923
					c-0.541-0.159-0.992-0.315-1.312-0.428c-0.332-0.126-0.522-0.197-0.522-0.197c-1.035-0.391-1.557-1.547-1.166-2.582
					c0.391-1.035,1.547-1.557,2.582-1.166c0.055,0.021,0.109,0.044,0.162,0.069L25.695,14.146z"/>
			</g>
			<g>
				<path style="fill:#FFFFFF;" d="M100.123,15.945c0,0-5.073,2.32-11.222,2.32"/>
				<path d="M100.941,17.77c0,0-0.194,0.073-0.532,0.202c-0.327,0.115-0.787,0.275-1.339,0.438
					c-1.103,0.337-2.585,0.698-4.088,0.947c-1.502,0.255-3.025,0.383-4.17,0.413c-0.572,0.022-1.05,0.015-1.385,0.006
					c-0.334-0.006-0.525-0.01-0.525-0.01c-0.828-0.016-1.486-0.699-1.471-1.527c0.015-0.781,0.624-1.411,1.388-1.467l0.083-0.006
					c0,0,0.169-0.012,0.465-0.033c0.296-0.017,0.718-0.047,1.224-0.112c1.011-0.114,2.355-0.346,3.674-0.69
					c1.32-0.338,2.614-0.776,3.551-1.154c0.471-0.185,0.85-0.355,1.109-0.473c0.242-0.117,0.381-0.184,0.381-0.184l0.057-0.027
					c0.996-0.481,2.194-0.063,2.674,0.934c0.481,0.996,0.063,2.194-0.934,2.674C101.05,17.726,100.994,17.75,100.941,17.77z"/>
			</g>
		</g>
		<path style="fill:#FFFFFF;stroke:#000000;stroke-width:5;stroke-linecap:round;stroke-linejoin:round;stroke-miterlimit:10;" d="
			M92.5,26.75H81.249c0-13.393-8.395-24.25-18.75-24.25s-18.75,10.857-18.75,24.25H32.5c-16.569,0-30,13.431-30,30v6
			c0,33.137,26.863,60,60,60s60-26.863,60-60v-6C122.5,40.181,109.069,26.75,92.5,26.75z"/>
		<g>
			<path d="M81.898,4.107c0,0,0.27,0.263,0.742,0.722c0.231,0.212,0.537,0.565,0.874,0.92c0.353,0.364,0.679,0.787,1.073,1.244
				c0.365,0.473,0.775,0.978,1.16,1.547c0.4,0.559,0.786,1.172,1.174,1.815c0.372,0.651,0.756,1.327,1.09,2.042
				c0.355,0.705,0.66,1.449,0.952,2.197c0.292,0.749,0.535,1.515,0.764,2.274c0.203,0.765,0.405,1.52,0.541,2.263
				c0.164,0.738,0.247,1.465,0.348,2.151c0.064,0.69,0.146,1.342,0.159,1.947c0.013,0.303,0.026,0.592,0.039,0.868
				c-0.009,0.295-0.018,0.576-0.026,0.839c-0.016,0.459-0.029,0.859-0.04,1.188c-0.022,0.659-0.035,1.035-0.035,1.035
				c-0.038,1.104-0.963,1.969-2.067,1.931s-1.969-0.963-1.931-2.067c0.001-0.025,0.003-0.059,0.005-0.084
				c0,0,0.028-0.376,0.078-1.033c0.025-0.329,0.055-0.728,0.09-1.185c0.009-0.114,0.018-0.232,0.027-0.354l0.014-0.185l0.007-0.094
				l0.004-0.048l0.002-0.024c-0.006,0.211-0.002,0.055-0.003,0.101l0-0.006l0-0.011c-0.001-0.239-0.002-0.49-0.003-0.752
				c0.012-0.525-0.039-1.091-0.066-1.692c-0.065-0.597-0.106-1.232-0.225-1.878c-0.09-0.651-0.24-1.313-0.388-1.988
				c-0.173-0.668-0.356-1.346-0.585-2.011c-0.228-0.664-0.466-1.328-0.753-1.959c-0.266-0.641-0.581-1.248-0.883-1.836
				c-0.318-0.58-0.636-1.136-0.969-1.645c-0.318-0.518-0.664-0.978-0.969-1.413C81.766,8.518,81.476,8.105,81.2,7.8
				c-0.283-0.322-0.484-0.591-0.728-0.835c-0.453-0.479-0.711-0.753-0.711-0.753c-0.569-0.602-0.542-1.552,0.06-2.121
				C80.407,3.537,81.324,3.55,81.898,4.107z"/>
		</g>
		<g>
			<path d="M34.279,27.076c0,0-0.012-0.368-0.032-1.012c-0.01-0.322-0.023-0.713-0.037-1.162c-0.007-0.272-0.014-0.562-0.022-0.867
				c0.012-0.251,0.024-0.516,0.037-0.792c0.011-0.523,0.092-1.226,0.155-1.912c0.098-0.677,0.178-1.383,0.336-2.107
				c0.131-0.727,0.325-1.466,0.521-2.215c0.219-0.744,0.454-1.494,0.734-2.229c0.281-0.733,0.573-1.463,0.915-2.156
				c0.321-0.702,0.69-1.367,1.048-2.007c0.372-0.633,0.744-1.236,1.128-1.788c0.37-0.561,0.764-1.06,1.115-1.527
				c0.376-0.449,0.698-0.878,1.025-1.224c0.322-0.349,0.586-0.668,0.833-0.904c0.48-0.483,0.754-0.759,0.754-0.759
				c0.583-0.587,1.533-0.591,2.12-0.007c0.571,0.567,0.59,1.48,0.054,2.071l-0.053,0.058c0,0-0.234,0.257-0.643,0.706
				c-0.211,0.218-0.433,0.515-0.707,0.836c-0.279,0.318-0.547,0.714-0.864,1.125c-0.293,0.429-0.625,0.884-0.929,1.394
				c-0.319,0.502-0.624,1.049-0.928,1.62c-0.29,0.578-0.591,1.175-0.845,1.804c-0.275,0.62-0.502,1.271-0.721,1.922
				c-0.218,0.652-0.394,1.316-0.558,1.971c-0.141,0.661-0.285,1.309-0.37,1.946c-0.113,0.631-0.153,1.256-0.214,1.834
				c-0.023,0.576-0.073,1.065-0.063,1.647c-0.001,0.276-0.002,0.541-0.003,0.793l0,0.024l0,0.012
				c-0.001-0.066,0.002,0.156-0.002-0.147l0,0.006l0.003,0.047l0.007,0.092l0.013,0.181c0.009,0.119,0.017,0.234,0.026,0.346
				c0.033,0.448,0.062,0.838,0.086,1.159c0.048,0.643,0.075,1.01,0.075,1.01c0.083,1.102-0.744,2.062-1.845,2.144
				s-2.062-0.744-2.144-1.845C34.282,27.136,34.28,27.102,34.279,27.076z"/>
		</g>
	</g>
</g>
<g id="Layer_1">
</g>
</svg>
