<?xml version="1.0" encoding="iso-8859-1"?>
<!-- Generator: Adobe Illustrator 19.2.0, SVG Export Plug-In . SVG Version: 6.00 Build 0)  -->
<!DOCTYPE svg PUBLIC "-//W3C//DTD SVG 1.1//EN" "http://www.w3.org/Graphics/SVG/1.1/DTD/svg11.dtd">
<svg version="1.1" xmlns="http://www.w3.org/2000/svg" xmlns:xlink="http://www.w3.org/1999/xlink" x="0px" y="0px"
	 viewBox="0 0 65.264 125.184" style="enable-background:new 0 0 65.264 125.184;" xml:space="preserve">
<g id="tu">
	<g id="tu_2_">
		<g>
			<path style="fill:#FFFFFF;" d="M61.766,62.593c0-10.312-7.533-20.002-16.829-20.002c9.329,0,17.829-9.696,17.829-19.998
				c0-11.046-8.954-20-20-20c-1.501,0-8.375,0-10,0c-16.569,0-30,13.431-30,30v60c0,16.569,13.431,30,30,30c1.891,0,8.462,0,10,0
				c11.046,0,20-8.954,20-20c0-10.085-8.375-20-17.215-19.997C54.266,82.596,61.766,72.691,61.766,62.593z"/>
			<path d="M59.268,62.705l-0.07-1.801c-0.052-0.537-0.133-0.997-0.188-1.502c-0.072-0.501-0.217-1.037-0.318-1.555
				c-0.105-0.525-0.306-1.024-0.438-1.543c-0.129-0.522-0.37-1.004-0.546-1.511c-0.169-0.512-0.446-0.973-0.666-1.462
				c-0.211-0.497-0.521-0.933-0.78-1.403c-0.247-0.48-0.579-0.897-0.877-1.342c-0.286-0.457-0.653-0.841-0.988-1.256
				c-0.324-0.43-0.727-0.77-1.09-1.16c-0.355-0.404-0.787-0.701-1.185-1.053c-0.389-0.37-0.858-0.601-1.282-0.921
				c-0.424-0.323-0.907-0.518-1.361-0.792c-0.463-0.253-0.963-0.404-1.447-0.621c-0.495-0.173-1.01-0.277-1.52-0.431l-1.575-0.262
				v-3c5.508-0.524,10.199-4.454,12.847-9.234c1.312-2.411,2.194-5.056,2.419-7.732l0.038-1.003l0.023-0.501l-0.024-0.445
				c-0.044-0.757-0.058-1.596-0.19-2.145l-0.143-0.925l-0.251-0.973c-0.138-0.66-0.393-1.283-0.625-1.914
				c-0.957-2.514-2.57-4.76-4.563-6.557c-1.992-1.802-4.393-3.159-6.987-3.846c-0.649-0.165-1.294-0.351-1.964-0.419l-0.994-0.149
				l-1.007-0.045c-0.629-0.049-1.429-0.038-2.198-0.036l-2.308,0.005l-4.616,0.01l-1.154,0.003l-0.288,0.001l-0.144,0
				c-0.141,0.003,0.112-0.004,0.059-0.002l-0.072,0.004l-0.576,0.03L29.915,5.34c-2.621,0.323-5.416,1.022-7.994,2.116
				c-2.577,1.122-4.949,2.676-7.077,4.501c-2.149,1.812-3.932,4.031-5.391,6.417c-0.776,1.172-1.326,2.467-1.922,3.733l-0.716,1.975
				c-0.254,0.653-0.363,1.351-0.556,2.024l-0.258,1.018l-0.153,1.039c-0.081,0.695-0.258,1.379-0.268,2.082l-0.102,2.1
				c-0.026,0.72-0.004,1.525-0.008,2.283l0.021,9.232l0.042,18.464l-0.04,18.464l-0.021,9.232l-0.005,2.308l0,0.144l0,0.072
				c0.003,0.146-0.005-0.118-0.003-0.064l0.014,0.288l0.028,0.576l0.056,1.153c0.024,0.376,0.025,0.786,0.067,1.135l0.158,0.986
				l0.149,0.987l0.071,0.494l0.131,0.508c0.557,2.75,1.684,5.355,3.061,7.786c0.378,0.59,0.692,1.222,1.116,1.781l1.255,1.689
				c0.931,1.047,1.835,2.129,2.911,3.035c4.132,3.816,9.5,6.2,15.07,6.89c0.692,0.124,1.402,0.094,2.102,0.152l1.054,0.059
				l1.148,0.006l4.616,0.01l2.308,0.005l1.154,0.003l0.577,0.001l0.144,0l0.072,0c0.14-0.003-0.11,0.004-0.058,0.002l0.288-0.014
				l1.153-0.056l0.575-0.028l0.459-0.078c0.611-0.1,1.219-0.163,1.882-0.364c2.589-0.658,5.071-1.865,7.093-3.644
				c2.036-1.755,3.675-3.968,4.75-6.432c1.042-2.49,1.489-5.169,1.349-7.913c-0.123-2.632-0.949-5.303-2.211-7.756
				c-0.616-1.237-1.41-2.374-2.234-3.487c-0.898-1.041-1.82-2.089-2.901-2.929c-1.054-0.882-2.215-1.604-3.44-2.174l-0.936-0.388
				c-0.315-0.121-0.642-0.182-0.965-0.28c-0.645-0.226-1.309-0.252-1.981-0.387l0-3c0.511-0.1,1.017-0.157,1.511-0.275
				c0.488-0.166,0.986-0.248,1.455-0.456c0.462-0.229,0.95-0.356,1.383-0.651c0.439-0.27,0.896-0.486,1.298-0.823
				c0.415-0.306,0.845-0.581,1.221-0.948c0.391-0.34,0.784-0.675,1.127-1.075c0.358-0.379,0.723-0.749,1.038-1.174
				c0.332-0.406,0.663-0.811,0.942-1.262c0.295-0.436,0.596-0.867,0.837-1.34c0.257-0.461,0.54-0.906,0.747-1.395
				c0.219-0.481,0.474-0.944,0.64-1.448c0.172-0.499,0.405-0.976,0.527-1.49c0.128-0.511,0.328-1.002,0.426-1.518
				c0.1-0.514,0.241-1.023,0.313-1.54c0.059-0.518,0.142-1.035,0.189-1.553l0.06-1.555L59.268,62.705z M64.266,62.593l-0.101,1.976
				c-0.067,0.654-0.174,1.302-0.263,1.952c-0.103,0.647-0.277,1.279-0.416,1.918c-0.139,0.639-0.372,1.251-0.57,1.872
				c-0.185,0.626-0.483,1.21-0.725,1.813c-0.235,0.607-0.564,1.172-0.86,1.751c-0.285,0.584-0.644,1.13-0.995,1.678
				c-0.338,0.556-0.742,1.071-1.143,1.585c-0.383,0.527-0.826,1.01-1.274,1.488c-0.427,0.494-0.912,0.941-1.411,1.37
				c-0.476,0.451-1.014,0.84-1.552,1.225c-0.518,0.406-1.104,0.734-1.682,1.062c-0.563,0.348-1.205,0.578-1.815,0.844
				c-0.598,0.289-1.282,0.41-1.914,0.612c-0.643,0.182-1.328,0.234-1.984,0.344c-0.671,0.043-1.348,0.012-2.01,0.012
				c-0.828,0-1.499-0.672-1.498-1.499c0-0.799,0.626-1.452,1.414-1.496l0.084-0.005c3.482-0.189,6.972,0.976,9.757,2.923
				c2.841,1.911,5.146,4.502,6.827,7.449c1.7,2.929,2.827,6.254,3.054,9.777c0.231,3.395-0.354,6.937-1.683,10.13
				c-1.367,3.188-3.464,6.05-6.081,8.32c-2.601,2.296-5.795,3.891-9.152,4.755c-0.815,0.245-1.736,0.376-2.646,0.506l-0.681,0.096
				l-0.577,0.031l-1.152,0.061l-0.288,0.015l-0.418,0.006l-0.577,0.001l-1.154,0.003l-2.308,0.005l-4.616,0.01l-1.159-0.001
				l-1.251-0.058c-0.832-0.06-1.673-0.036-2.498-0.172c-6.637-0.783-13.058-3.612-18.004-8.131
				c-1.281-1.081-2.376-2.355-3.484-3.607l-1.509-2.008c-0.504-0.669-0.895-1.414-1.345-2.12c-1.666-2.896-3.012-6.016-3.705-9.305
				l-0.156-0.61l-0.103-0.646l-0.199-1.295l-0.19-1.296c-0.047-0.415-0.048-0.777-0.074-1.168l-0.061-1.152l-0.03-0.576
				l-0.015-0.288l-0.005-0.425l-0.005-2.308L0.04,80.787L0,62.323l0.042-18.464l0.021-9.232c0.008-0.78-0.01-1.515,0.019-2.332
				l0.131-2.51c0.025-0.838,0.223-1.661,0.33-2.491l0.195-1.242l0.309-1.219c0.229-0.806,0.379-1.637,0.68-2.42l0.87-2.36
				c0.708-1.517,1.39-3.055,2.314-4.456c1.755-2.845,3.903-5.472,6.468-7.627c2.544-2.168,5.384-4.001,8.464-5.325
				c3.1-1.289,6.312-2.125,9.81-2.498l2.305-0.111l0.576-0.028L32.953,0l0.288,0.001l1.154,0.003l4.616,0.01l2.308,0.005
				c0.77,0.003,1.51-0.01,2.416,0.051l1.298,0.071l1.288,0.192c0.864,0.102,1.702,0.334,2.542,0.556
				c6.714,1.842,12.373,7.012,14.855,13.492c0.299,0.814,0.612,1.623,0.796,2.473l0.313,1.264l0.205,1.356
				c0.167,0.965,0.16,1.67,0.204,2.448l0.014,0.288l0.007,0.144l0.003,0.072c-0.001-0.09,0.003,0.203,0.003,0.203l-0.036,0.652
				l-0.079,1.302c-0.342,3.461-1.543,6.759-3.319,9.659c-0.423,0.738-0.955,1.409-1.443,2.103c-0.561,0.641-1.08,1.315-1.69,1.909
				c-0.609,0.595-1.202,1.202-1.887,1.717c-0.648,0.552-1.363,1.023-2.083,1.483c-0.708,0.472-1.497,0.836-2.257,1.217
				c-0.815,0.289-1.581,0.67-2.432,0.85c-1.639,0.523-3.4,0.622-5.1,0.569l-0.03-0.001c-0.828-0.026-1.479-0.717-1.453-1.545
				c0.025-0.806,0.685-1.444,1.483-1.454c0.666-0.007,1.342-0.028,2.019-0.009c0.665,0.094,1.345,0.159,2.007,0.299
				c0.647,0.183,1.324,0.316,1.955,0.558c0.619,0.262,1.284,0.462,1.872,0.791c0.584,0.333,1.215,0.615,1.75,1.02
				c0.545,0.391,1.132,0.745,1.625,1.198c0.508,0.437,1.041,0.859,1.483,1.358c0.456,0.488,0.944,0.955,1.341,1.491
				c0.409,0.525,0.853,1.032,1.202,1.599c0.358,0.561,0.75,1.106,1.044,1.703c0.301,0.592,0.656,1.162,0.898,1.782
				c0.249,0.616,0.558,1.211,0.752,1.849c0.204,0.634,0.441,1.259,0.587,1.91c0.143,0.657,0.317,1.283,0.428,1.969
				c0.095,0.687,0.206,1.414,0.27,2.072l0.093,1.8L64.266,62.593z"/>
		</g>
		<g>
			<path d="M20.009,88.419l8.786-0.113l4.393-0.057l1.098-0.014l1.19,0.038c0.447,0.05,0.927,0.109,1.373,0.186
				c0.42,0.103,0.848,0.186,1.26,0.321c3.308,1.032,6.195,3.528,7.522,6.82c0.674,1.615,0.96,3.466,0.847,5.146
				c-0.109,1.802-0.643,3.566-1.54,5.081c-1.778,3.063-4.932,5.261-8.412,5.849c-0.435,0.061-0.868,0.154-1.307,0.163
				c-0.434,0.025-0.904,0.052-1.239,0.047l-2.197,0.015l-1.098,0.008l-0.549,0.004l-0.137,0.001l-0.242-0.004l-0.274-0.011
				c-0.608-0.006-1.775-0.121-2.581-0.341c-3.451-0.803-6.535-3.166-8.131-6.411c-0.807-1.607-1.245-3.42-1.254-5.219l-0.006-4.393
				L17.465,60.39L17.45,42.818l0.068-17.572l0.068-1.153c0.065-0.456,0.131-0.928,0.223-1.366c0.199-0.824,0.465-1.631,0.824-2.395
				c0.717-1.529,1.757-2.889,3.016-3.983c1.258-1.096,2.735-1.928,4.313-2.438c0.788-0.257,1.602-0.429,2.422-0.525
				c0.822-0.093,1.683-0.093,2.312-0.084l2.059,0.018l1.029,0.009l0.515,0.004l0.359,0.014l0.257,0.015l0.514,0.03
				c0.175,0.011,0.429,0.054,0.639,0.082c0.447,0.06,0.882,0.136,1.266,0.248c0.401,0.095,0.796,0.208,1.18,0.36
				c0.391,0.13,0.77,0.288,1.138,0.476c2.969,1.409,5.355,4.065,6.308,7.255c0.231,0.796,0.391,1.611,0.457,2.434l0.029,0.618
				l0.012,0.309l0.001,0.039l-0.002,0.139l-0.004,0.064l-0.008,0.128l-0.031,0.514c-0.008,0.164-0.018,0.337-0.058,0.578
				c-0.122,0.917-0.317,1.702-0.603,2.474c-0.283,0.773-0.64,1.521-1.087,2.206c-1.747,2.78-4.659,4.73-7.834,5.343
				c-0.397,0.07-0.798,0.119-1.197,0.174c-0.401,0.028-0.803,0.039-1.205,0.055l-2.068-0.015l-4.118-0.035l-8.235-0.07
				c-0.932-0.008-1.681-0.77-1.673-1.702c0.008-0.922,0.755-1.665,1.673-1.673l8.235-0.07l4.118-0.035l2.05-0.02l0.851-0.054
				l0.838-0.137c2.213-0.467,4.197-1.87,5.34-3.767c0.297-0.466,0.524-0.973,0.703-1.49c0.187-0.516,0.297-1.076,0.359-1.519
				c0.026-0.097,0.035-0.267,0.04-0.445l0.022-0.514l0.006-0.129l0.003-0.064c-0.005,0.197-0.002,0.047-0.003,0.088l-0.001-0.013
				l-0.002-0.026l-0.015-0.205l-0.025-0.41c-0.053-0.545-0.171-1.077-0.328-1.599c-0.658-2.082-2.283-3.831-4.283-4.736
				c-0.246-0.124-0.501-0.225-0.765-0.304c-0.256-0.101-0.522-0.169-0.792-0.226c-0.277-0.079-0.52-0.109-0.753-0.139
				c-0.13-0.015-0.214-0.044-0.381-0.053l-0.514-0.021l-0.257-0.01l-0.129-0.005l-0.032-0.001l-0.016-0.001
				c-0.096-0.002,0.113,0.002,0.086,0.002l-0.064,0.001l-0.515,0.004l-1.029,0.009l-2.059,0.018
				c-0.742,0.002-1.258,0.02-1.798,0.088c-0.542,0.074-1.075,0.195-1.587,0.374c-1.027,0.353-1.978,0.913-2.776,1.634
				c-0.799,0.72-1.443,1.599-1.875,2.563c-0.217,0.483-0.369,0.987-0.488,1.499c-0.04,0.234-0.063,0.444-0.11,0.665l-0.044,0.903
				l0.068,17.572L22.07,60.39l-0.047,35.145l-0.006,4.393c-0.008,1.132,0.246,2.241,0.736,3.258
				c0.961,2.049,2.928,3.628,5.178,4.181c0.292,0.089,0.543,0.123,0.788,0.162c0.199,0.058,0.615,0.069,0.974,0.09l0.274,0.015
				l0.034,0.002c0.105,0.003-0.105-0.002-0.071-0.001l0.069,0l0.137,0.001l0.549,0.004l1.098,0.008l2.197,0.015
				c0.398,0.01,0.659-0.013,0.956-0.022c0.295,0.006,0.581-0.064,0.872-0.095c2.317-0.347,4.427-1.795,5.622-3.78
				c0.612-0.997,0.953-2.113,1.047-3.229c0.098-1.24-0.077-2.353-0.501-3.453c-0.831-2.183-2.767-3.92-5.026-4.664
				c-0.281-0.099-0.577-0.152-0.863-0.239l-0.798-0.142l-1.005-0.062l-1.098-0.014l-4.393-0.057l-8.786-0.113
				c-0.932-0.012-1.678-0.777-1.666-1.709C18.355,89.168,19.098,88.431,20.009,88.419z"/>
		</g>
	</g>
</g>
<g id="Layer_1">
</g>
</svg>
