<?xml version="1.0" encoding="iso-8859-1"?>
<!-- Generator: Adobe Illustrator 19.2.0, SVG Export Plug-In . SVG Version: 6.00 Build 0)  -->
<!DOCTYPE svg PUBLIC "-//W3C//DTD SVG 1.1//EN" "http://www.w3.org/Graphics/SVG/1.1/DTD/svg11.dtd">
<svg version="1.1" xmlns="http://www.w3.org/2000/svg" xmlns:xlink="http://www.w3.org/1999/xlink" x="0px" y="0px"
	 viewBox="0 0 140 140" style="enable-background:new 0 0 140 140;" xml:space="preserve">
<g id="open">
	<g id="open_3_">
		<g>
			<path style="fill:#FFFFFF;" d="M10.413,122.585V69.919V43.921c0-19.003,13.431-34.003,30-34.003c29.667,0,30,27.44,30,36.004
				c0-8.564,0.333-36.004,30-36.004c16.569,0,30,14.333,30,34.003v25.997v52.666H10.413z"/>
			<path d="M8.139,122.585L8.233,76.93L8.28,54.102l0.012-5.707l0.006-2.853l0.003-1.427l0-0.178l0.01-0.272l0.016-0.356
				l0.033-0.713l0.066-1.425c0.019-0.473,0.035-0.943,0.119-1.467l0.412-3.058l0.667-2.938c0.217-0.98,0.591-1.92,0.881-2.882
				c1.319-3.796,3.225-7.402,5.699-10.599c2.471-3.195,5.516-5.977,9.01-8.079c3.483-2.113,7.434-3.494,11.494-3.991
				c1.01-0.148,2.037-0.142,3.055-0.214c0.278-0.009,0.458-0.036,0.817-0.029l0.713,0.022l1.426,0.045
				c0.954,0.032,2.017,0.167,3.02,0.249c0.999,0.148,1.99,0.286,2.979,0.486c3.942,0.819,7.854,2.331,11.192,4.789
				c1.661,1.224,3.191,2.634,4.518,4.209c1.315,1.584,2.443,3.305,3.388,5.104c1.903,3.602,3.032,7.496,3.721,11.391
				c0.685,3.898,0.894,7.857,0.876,11.712l0,0.001h-4c-0.028-3.857,0.171-7.82,0.848-11.725c0.681-3.902,1.802-7.805,3.704-11.421
				c0.945-1.805,2.074-3.533,3.391-5.125c1.327-1.585,2.863-3.002,4.53-4.233c3.348-2.475,7.277-3.997,11.233-4.827
				c0.992-0.197,1.991-0.346,2.987-0.49c0.998-0.082,1.998-0.219,2.994-0.25l1.495-0.048l0.747-0.023l0.047-0.001l0.162,0.003
				l0.089,0.005l0.178,0.009l0.356,0.018l1.426,0.073c0.485,0.035,0.923,0.018,1.47,0.123c1.042,0.172,2.115,0.303,3.13,0.532
				c0.988,0.275,1.984,0.527,2.963,0.832l2.862,1.132l2.726,1.423c3.535,2.081,6.624,4.868,9.109,8.088
				c2.49,3.221,4.381,6.868,5.673,10.693c0.683,1.907,1.099,3.881,1.51,5.853l0.398,2.99c0.139,0.997,0.12,2.002,0.185,3.003
				l0.06,1.496l0.004,1.428l0.007,2.856l0.015,5.711l0.06,22.844l0.12,45.689l0,0.003c0,1.369-1.11,2.478-2.478,2.478l0,0
				c-10,0.039-20-0.002-30-0.019l-30-0.062l-60-0.124l-0.009,0C9.15,124.856,8.137,123.838,8.139,122.585z M12.682,120.306
				l57.731-0.119l30-0.062c10-0.017,20-0.058,30-0.019l-2.478,2.478l0-0.003l0.12-45.689l0.06-22.844l0.015-5.711l0.007-2.856
				l0.004-1.428l-0.05-1.357c-0.057-0.897-0.026-1.805-0.15-2.695l-0.34-2.673c-0.363-1.754-0.716-3.515-1.315-5.201
				c-1.125-3.387-2.77-6.594-4.922-9.41c-2.148-2.816-4.804-5.233-7.827-7.035l-2.33-1.233l-2.444-0.981
				c-0.837-0.261-1.688-0.477-2.531-0.724c-0.839-0.192-1.662-0.287-2.493-0.449c-0.387-0.097-0.908-0.088-1.371-0.124l-1.425-0.081
				l-0.594-0.032l-0.68,0.019l-1.36,0.036c-0.907,0.022-1.797,0.145-2.697,0.21c-0.886,0.126-1.775,0.252-2.649,0.42
				c-3.483,0.716-6.816,2-9.619,4.052c-1.397,1.024-2.687,2.195-3.813,3.525c-1.117,1.338-2.09,2.806-2.918,4.368
				c-1.669,3.124-2.709,6.624-3.353,10.207c-0.642,3.599-0.854,7.271-0.847,11.025c0.002,1.105-0.892,2.002-1.996,2.004
				c-1.105,0.002-2.002-0.892-2.004-1.996v-0.008v-0.001c0.017-3.751-0.185-7.421-0.816-11.022
				c-0.633-3.585-1.663-7.089-3.324-10.224c-0.824-1.567-1.794-3.042-2.909-4.388c-1.126-1.336-2.414-2.517-3.812-3.55
				c-2.806-2.068-6.144-3.373-9.636-4.102c-0.874-0.177-1.771-0.299-2.652-0.433c-0.893-0.067-1.719-0.186-2.666-0.215l-1.426-0.039
				l-0.713-0.019c-0.116-0.002-0.411,0.023-0.607,0.033c-0.877,0.073-1.763,0.061-2.633,0.194c-3.492,0.442-6.886,1.638-9.903,3.486
				c-6.074,3.68-10.564,9.765-12.866,16.537c-0.252,0.861-0.59,1.696-0.777,2.575l-0.587,2.63l-0.344,2.598
				c-0.076,0.416-0.09,0.897-0.108,1.375l-0.06,1.425l-0.03,0.713l-0.015,0.356l-0.004,0.089l-0.002,0.045
				c-0.002,0.098,0.001-0.084,0.001-0.049l0,0.178l0.003,1.427l0.006,2.853l0.012,5.707l0.047,22.828L12.682,120.306z"/>
		</g>
		
			<line style="fill:none;stroke:#000000;stroke-width:4;stroke-linecap:round;stroke-linejoin:round;stroke-miterlimit:10;" x1="50.08" y1="54.251" x2="90.746" y2="54.251"/>
		
			<line style="fill:none;stroke:#000000;stroke-width:4;stroke-linecap:round;stroke-linejoin:round;stroke-miterlimit:10;" x1="50.08" y1="72.251" x2="90.746" y2="72.251"/>
		<g>
			<path style="fill:#FFFFFF;" d="M95.869,91.509c6.515,4.072,10.544,9.697,10.544,15.91c0,12.426-16.118,22.5-36,22.5
				s-36-10.074-36-22.5c0-6.213,4.029-11.838,10.544-15.91"/>
			<path d="M96.966,89.836c0,0,0.441,0.279,1.268,0.802c0.893,0.617,2.155,1.476,3.605,2.806c1.435,1.338,3.123,3.113,4.529,5.598
				c0.703,1.235,1.337,2.647,1.754,4.23c0.425,1.56,0.625,3.362,0.536,5.082c-0.158,3.711-1.681,7.441-4.16,10.553
				c-2.462,3.127-5.736,5.688-9.383,7.664c-7.316,3.972-16.049,5.81-24.702,5.847c-4.305-0.024-8.687-0.487-12.851-1.445
				c-4.176-0.968-8.2-2.416-11.851-4.402c-3.647-1.976-6.921-4.537-9.383-7.664c-2.479-3.094-4.004-6.884-4.158-10.511l-0.022-0.674
				l-0.005-0.167l-0.002-0.083l0.002-0.171l0.014-0.286l0.028-0.568l0.014-0.283l0.04-0.345c0.095-0.943,0.261-1.758,0.467-2.546
				c0.417-1.583,1.051-2.995,1.754-4.23c1.406-2.485,3.094-4.26,4.529-5.598c1.452-1.332,2.718-2.191,3.57-2.782
				c0.874-0.554,1.34-0.85,1.34-0.85c0.932-0.591,2.167-0.315,2.758,0.617c0.577,0.911,0.327,2.11-0.553,2.716l-0.085,0.058
				c0,0-0.402,0.276-1.155,0.793c-0.729,0.542-1.8,1.345-3.002,2.503c-1.184,1.163-2.535,2.683-3.571,4.649
				c-0.523,0.977-0.972,2.06-1.244,3.236c-0.134,0.59-0.244,1.208-0.294,1.751l-0.028,0.212l-0.009,0.281l-0.018,0.569l-0.009,0.287
				c-0.002,0.094,0.001-0.087,0.002-0.058l0.002,0.03l0.003,0.061l0.007,0.121l0.025,0.488c0.16,2.614,1.28,5.382,3.303,7.834
				c2.003,2.465,4.804,4.605,8.001,6.33c3.207,1.723,6.831,3.014,10.628,3.872c3.818,0.851,7.752,1.251,11.758,1.255
				c3.978-0.002,7.956-0.404,11.758-1.255c3.796-0.858,7.421-2.149,10.628-3.872c3.197-1.725,5.999-3.865,8.001-6.33
				c2.022-2.433,3.145-5.263,3.3-7.792c0.18-2.706-0.504-5.055-1.562-7.02c-1.036-1.966-2.387-3.485-3.571-4.649
				c-1.205-1.16-2.278-1.963-2.967-2.48c-0.8-0.548-1.227-0.84-1.227-0.84l-0.006-0.004c-0.911-0.624-1.144-1.869-0.52-2.781
				C94.856,89.506,96.061,89.265,96.966,89.836z"/>
		</g>
		
			<line style="fill:none;stroke:#000000;stroke-width:4;stroke-linecap:round;stroke-linejoin:round;stroke-miterlimit:10;" x1="54.08" y1="106.585" x2="86.746" y2="106.585"/>
		<g>
			<path d="M72.413,45.922l0.25,60.33c0.005,1.243-0.998,2.254-2.241,2.259c-1.243,0.005-2.254-0.998-2.259-2.241v-0.019l0.25-60.33
				c0.005-1.105,0.904-1.996,2.008-1.992C71.52,43.935,72.408,44.826,72.413,45.922z"/>
		</g>
	</g>
</g>
<g id="Layer_1">
</g>
</svg>
