<?xml version="1.0" encoding="iso-8859-1"?>
<!-- Generator: Adobe Illustrator 19.2.0, SVG Export Plug-In . SVG Version: 6.00 Build 0)  -->
<!DOCTYPE svg PUBLIC "-//W3C//DTD SVG 1.1//EN" "http://www.w3.org/Graphics/SVG/1.1/DTD/svg11.dtd">
<svg version="1.1" xmlns="http://www.w3.org/2000/svg" xmlns:xlink="http://www.w3.org/1999/xlink" x="0px" y="0px"
	 viewBox="0 0 140 140" style="enable-background:new 0 0 140 140;" xml:space="preserve">
<g id="ma">
	<g id="ma_1_">
		<path style="fill:#FFFFFF;stroke:#000000;stroke-width:5;stroke-miterlimit:10;" d="M43.913,53.419
			c-21.884,3.526-33.499,16.634-33.499,39.001s18.132,37.498,40.5,37.498h19.5c33.137,0,60-26.863,60-60V42.921
			c0-19.669-9.182-32.497-25.997-30C85.913,15.668,88.913,46.169,43.913,53.419z"/>
		<g>
			<ellipse style="fill:#FFFFFF;" cx="45.578" cy="62.084" rx="23.167" ry="17.5"/>
			<path d="M20.416,61.951c0,0,0.041-0.5,0.117-1.437c0.011-0.118,0.022-0.244,0.033-0.376c0.031-0.157,0.063-0.322,0.096-0.495
				c0.072-0.345,0.151-0.721,0.235-1.128c0.073-0.422,0.221-0.805,0.369-1.224c0.157-0.415,0.288-0.873,0.498-1.322
				c0.793-1.822,2.137-3.843,4.075-5.688c1.932-1.848,4.44-3.515,7.385-4.758c2.947-1.236,6.317-2.068,9.923-2.348
				c0.922-0.026,1.775-0.09,2.787-0.081c0.442,0.013,0.887,0.026,1.334,0.038c0.441,0.005,0.897,0.025,1.392,0.088
				c0.968,0.101,1.956,0.188,2.902,0.379c0.478,0.089,0.964,0.155,1.443,0.267c0.477,0.122,0.957,0.245,1.438,0.368
				c0.972,0.217,1.911,0.594,2.879,0.904c0.931,0.412,1.905,0.752,2.81,1.272c1.861,0.927,3.622,2.161,5.222,3.635
				c3.255,2.864,5.565,7.316,5.639,12.038l-0.104,1.651c-0.001,0.226-0.063,0.548-0.121,0.857l-0.178,0.924
				c-0.103,0.64-0.304,1.171-0.49,1.722l-0.283,0.823c-0.106,0.269-0.242,0.522-0.363,0.783c-0.462,1.061-1.087,2.013-1.718,2.951
				c-0.703,0.877-1.406,1.75-2.217,2.495c-1.588,1.521-3.343,2.813-5.216,3.778c-0.91,0.541-1.89,0.902-2.829,1.335
				c-0.975,0.329-1.923,0.728-2.905,0.963c-0.487,0.13-0.973,0.26-1.456,0.389c-0.485,0.119-0.977,0.191-1.462,0.287
				c-0.968,0.21-1.941,0.295-2.901,0.397c-0.959,0.126-1.915,0.088-2.855,0.136l-0.176,0.005l-0.088,0.002l-0.163-0.001l-0.33-0.012
				l-0.657-0.024c-0.436-0.016-0.87-0.032-1.3-0.048c-0.929-0.098-1.876-0.19-2.772-0.323c-0.876-0.181-1.75-0.306-2.588-0.533
				c-1.681-0.433-3.284-0.96-4.761-1.63c-2.966-1.312-5.474-3.052-7.387-4.96c-1.92-1.906-3.237-3.966-4.006-5.812
				c-0.748-1.858-1.052-3.431-1.156-4.502c-0.066-1.078-0.102-1.653-0.102-1.653L20.416,61.951z M24.411,62.084
				c0,0,0.031,0.425,0.09,1.223c0.083,0.794,0.323,1.95,0.889,3.348c0.598,1.386,1.618,2.976,3.153,4.529
				c1.536,1.548,3.619,3.02,6.153,4.146c1.26,0.577,2.644,1.033,4.101,1.414c0.726,0.201,1.491,0.305,2.252,0.47
				c0.759,0.111,1.505,0.185,2.288,0.281c0.431,0.017,0.864,0.034,1.3,0.051l0.656,0.026l0.33,0.013
				c0.082,0.001-0.065,0-0.036-0.001l0.039-0.002l0.077-0.004l0.155-0.008c0.824-0.062,1.667-0.033,2.502-0.163
				c0.838-0.105,1.687-0.189,2.523-0.39c0.419-0.092,0.847-0.158,1.264-0.269c0.415-0.119,0.832-0.239,1.25-0.359
				c0.844-0.22,1.638-0.596,2.465-0.894c0.78-0.397,1.61-0.717,2.349-1.196c1.544-0.854,2.951-1.943,4.182-3.176
				c1.244-1.226,2.262-2.65,2.969-4.184c0.089-0.192,0.196-0.377,0.273-0.573l0.2-0.597c0.136-0.397,0.296-0.803,0.339-1.159
				l0.119-0.55c0.043-0.181,0.096-0.349,0.101-0.626l0.097-1.35c-0.003-3.337-1.455-6.659-3.934-9.207
				c-1.219-1.279-2.62-2.426-4.176-3.318c-0.745-0.5-1.58-0.841-2.368-1.259c-0.834-0.317-1.637-0.714-2.491-0.953
				c-0.425-0.127-0.847-0.254-1.268-0.38c-0.424-0.118-0.858-0.191-1.283-0.29c-0.858-0.219-1.694-0.302-2.523-0.407
				c-0.401-0.066-0.844-0.094-1.298-0.109c-0.447-0.021-0.891-0.042-1.333-0.063c-0.755-0.015-1.647,0.053-2.448,0.073
				c-3.271,0.242-6.294,1.096-8.84,2.301c-2.555,1.195-4.636,2.741-6.155,4.349c-1.516,1.614-2.51,3.243-3.084,4.653
				c-0.153,0.349-0.232,0.701-0.345,1.018c-0.104,0.32-0.216,0.624-0.241,0.881c-0.05,0.261-0.096,0.503-0.139,0.724
				c-0.024,0.11-0.046,0.215-0.067,0.315c-0.008,0.129-0.015,0.252-0.022,0.368c-0.049,0.939-0.075,1.44-0.075,1.44L24.411,62.084z"
				/>
		</g>
		<g>
			<path style="fill:#FFFFFF;" d="M61.911,9.919"/>
		</g>
		<g>
			<path style="fill:#FFFFFF;" d="M70.411,24.418c0-8.56-3.809-14.499-8.503-14.499s-8.5,5.939-8.5,14.499
				c0-8.56-3.806-13.499-8.5-13.499h0.003c-4.694,0-8.5,4.938-8.5,13.499c0-8.56-3.806-14.499-8.5-14.499s-8.5,5.939-8.5,14.499
				s3.806,14.499,8.5,14.499l3.167,0.001c2.577,0,4.667,2.421,4.667,4.999v4.667V60.75c0,4.694,4.104,8.5,9.167,8.5
				s9.167-3.806,9.167-8.5V48.583v-4.667c0-2.577,2.089-4.999,4.667-4.999l3.167-0.001C66.606,38.917,70.411,32.978,70.411,24.418z"
				/>
			<path d="M68.162,24.482c-0.019-0.753-0.008-1.588-0.077-2.211c-0.031-0.659-0.142-1.363-0.237-2.05
				c-0.128-0.68-0.267-1.357-0.456-2.012c-0.187-0.653-0.397-1.299-0.668-1.9c-0.119-0.313-0.269-0.601-0.423-0.886
				c-0.14-0.297-0.311-0.563-0.484-0.826c-0.334-0.539-0.733-0.995-1.144-1.405c-0.208-0.199-0.432-0.362-0.648-0.536
				c-0.233-0.118-0.446-0.312-0.686-0.384c-0.458-0.253-0.944-0.293-1.431-0.354c0.002,0.019-0.833,0.012-0.839,0.082
				c-0.086,0.025-0.174,0.041-0.267,0.051l-0.361,0.136c-0.252,0.061-0.478,0.243-0.726,0.353c-0.231,0.164-0.47,0.321-0.695,0.514
				c-0.444,0.398-0.879,0.849-1.248,1.385c-0.191,0.262-0.38,0.527-0.538,0.825c-0.171,0.285-0.339,0.575-0.476,0.89
				c-0.307,0.605-0.551,1.258-0.773,1.92c-0.225,0.664-0.39,1.353-0.551,2.046c-0.132,0.702-0.279,1.405-0.348,2.125
				c-0.107,0.715-0.124,1.443-0.178,2.17l0,0.003h-3c-0.084-0.694-0.113-1.392-0.227-2.07c-0.056-0.339-0.08-0.685-0.16-1.016
				l-0.207-0.997l-0.251-0.972c-0.074-0.328-0.203-0.629-0.3-0.944c-0.093-0.318-0.231-0.609-0.355-0.907
				c-0.116-0.304-0.263-0.584-0.414-0.859c-0.137-0.287-0.303-0.547-0.475-0.799c-0.156-0.268-0.338-0.503-0.522-0.734
				c-0.17-0.25-0.384-0.438-0.578-0.65c-0.191-0.218-0.426-0.36-0.629-0.551c-0.228-0.142-0.442-0.31-0.674-0.431
				c-0.236-0.108-0.46-0.248-0.709-0.309c-0.237-0.099-0.487-0.145-0.737-0.19c-0.246-0.065-0.509-0.033-0.762-0.07l0-4l0.003,0
				c1.099-0.004,1.993,0.883,1.997,1.982c0.004,1.006-0.739,1.84-1.707,1.977l-0.29,0.041c-0.252,0.036-0.516,0.004-0.761,0.07
				c-0.25,0.045-0.499,0.09-0.736,0.19c-0.248,0.061-0.472,0.201-0.708,0.309c-0.232,0.12-0.446,0.289-0.674,0.43
				c-0.203,0.191-0.438,0.333-0.629,0.551c-0.194,0.212-0.408,0.4-0.578,0.65c-0.184,0.232-0.367,0.466-0.522,0.734
				c-0.172,0.252-0.337,0.512-0.475,0.799c-0.151,0.275-0.298,0.555-0.414,0.859c-0.124,0.297-0.262,0.588-0.356,0.906
				c-0.097,0.315-0.226,0.616-0.3,0.943l-0.251,0.972l-0.207,0.997c-0.081,0.33-0.105,0.676-0.161,1.015
				c-0.113,0.678-0.143,1.375-0.227,2.069l-0.001,0.006h-3c-0.148-3.074-0.722-6.162-2.068-8.711
				c-0.671-1.26-1.556-2.35-2.555-3.037c-0.501-0.332-1.016-0.582-1.539-0.666c-0.525-0.12-1.002-0.103-1.66,0.045
				c-0.088,0.036-0.174,0.06-0.267,0.079l-0.367,0.168c-0.25,0.091-0.478,0.285-0.72,0.423c-0.454,0.372-0.915,0.77-1.293,1.31
				c-0.791,1.027-1.385,2.314-1.832,3.673c-0.88,2.752-1.081,5.78-0.864,8.826c0.205,2.883,1.003,5.902,2.557,8.021
				c0.78,1.031,1.727,1.828,2.703,2.085c0.123,0.029,0.244,0.061,0.365,0.098l0.373,0.031c0.067,0.006,0.112,0.017,0.198,0.022
				l0.306,0.003l0.612,0.005l1.224,0.011l0.612,0.005l0.306,0.003l0.275,0.009l0.153,0.01c0.121,0.011,0.161,0.004,0.348,0.03
				l0.534,0.087c0.356,0.069,0.607,0.16,0.906,0.258c0.562,0.22,1.099,0.494,1.568,0.843c0.957,0.679,1.682,1.585,2.207,2.584
				c0.511,1.004,0.795,2.152,0.792,3.302l-0.021,2.448l-0.043,9.792l-0.008,2.448l-0.004,1.224l-0.002,0.612l0,0.153l0,0.076
				l0,0.038c0.003,0.108-0.004-0.105-0.002-0.069l0.016,0.306c0.013,0.193,0.015,0.431,0.037,0.587
				c0.029,0.126,0.053,0.251,0.073,0.377c0.053,0.255,0.141,0.585,0.246,0.863c0.196,0.585,0.531,1.119,0.892,1.627
				c0.76,1.003,1.821,1.791,3.018,2.275c0.604,0.222,1.227,0.418,1.876,0.481c0.663,0.094,1.253,0.089,2.023-0.006
				c0.522-0.07,1.211-0.253,1.792-0.48c0.58-0.267,1.15-0.56,1.635-0.962c0.991-0.769,1.741-1.793,2.141-2.9
				c0.216-0.55,0.335-1.129,0.355-1.714l0.022-0.469l0.007-0.612l0.013-1.224c0.004-1.632,0.078-3.264,0.117-4.896
				c0.118-3.264,0.116-6.528,0.118-9.792l0.008-0.405l0.016-0.306c0.018-0.233,0.072-0.641,0.13-0.917
				c0.126-0.553,0.297-1.094,0.545-1.597c0.473-1.017,1.199-1.904,2.099-2.612c0.907-0.696,2.041-1.191,3.249-1.31
				c0.69-0.052,0.994-0.027,1.422-0.032l1.224,0.002l1.068,0.001l0.61-0.047l0.153-0.012c0.039-0.006,0.05-0.018,0.076-0.026
				l0.137-0.046c0.158-0.014,0.44-0.154,0.692-0.245c0.244-0.145,0.503-0.259,0.739-0.45c0.965-0.71,1.806-1.806,2.435-3.066
				c1.263-2.55,1.708-5.618,1.723-8.634L68.162,24.482z M72.411,24.418c-0.056,3.483-0.581,7.045-2.218,10.379
				c-0.826,1.651-1.964,3.263-3.628,4.502c-0.868,0.611-1.733,1.102-2.963,1.377c-0.698,0.173-1.03,0.16-1.443,0.2l-0.076,0.006
				l-0.232,0.008l-0.153,0l-0.306,0.001l-0.612,0.001l-1.224,0.002c-0.388,0-0.901,0-1.025,0.016
				c-0.418,0.044-0.84,0.22-1.225,0.514c-0.375,0.304-0.722,0.707-0.929,1.176c-0.116,0.229-0.184,0.474-0.242,0.714
				c-0.018,0.125-0.028,0.12-0.047,0.293l-0.015,0.306l-0.004,0.076c-0.003,0.101,0.001-0.095,0.001-0.061l0,0.038l0,0.153
				c0.003,3.264,0,6.528,0.118,9.792c0.039,1.632,0.113,3.264,0.117,4.896l0.013,1.224l0.007,0.612
				c0.005,0.201-0.019,0.506-0.033,0.753c-0.064,1.043-0.3,2.08-0.694,3.043c-0.758,1.948-2.158,3.565-3.798,4.709
				c-0.816,0.591-1.729,1.013-2.652,1.371c-0.952,0.331-1.851,0.565-2.954,0.669c-0.851,0.077-1.905,0.085-2.858-0.058
				c-0.976-0.112-1.928-0.399-2.846-0.754c-1.826-0.75-3.469-1.976-4.675-3.587c-0.585-0.814-1.105-1.693-1.434-2.658
				c-0.175-0.486-0.303-0.949-0.409-1.491l-0.126-0.831c-0.027-0.248-0.028-0.42-0.043-0.633l-0.018-0.305l-0.005-0.413
				l-0.002-0.612l-0.004-1.224l-0.008-2.448l-0.043-9.792l-0.021-2.448c-0.013-0.482-0.138-0.959-0.373-1.406
				c-0.482-0.894-1.361-1.501-2.148-1.498l-0.153-0.008l-0.038-0.002c0.042,0.001-0.147-0.005,0.084,0.002L31,41.024l-0.306,0.003
				l-0.612,0.005l-1.224,0.01l-0.612,0.005L27.94,41.05l-0.412-0.022c-0.282-0.019-0.566-0.038-0.846-0.071l-0.825-0.188
				c-2.207-0.592-3.851-2.079-5.038-3.61c-1.186-1.567-1.953-3.287-2.514-5.021c-0.562-1.754-0.858-3.476-1.022-5.308
				c-0.155-1.743-0.159-3.478,0.043-5.256c0.189-1.764,0.535-3.531,1.123-5.264c0.583-1.731,1.439-3.428,2.698-4.945
				c1.282-1.511,2.897-2.854,5.343-3.316c0.934-0.174,2.134-0.177,3.186,0.131c1.077,0.26,2.035,0.79,2.854,1.405
				c1.631,1.262,2.725,2.88,3.509,4.531c1.554,3.334,1.95,6.876,1.873,10.302c-0.019,0.828-0.705,1.485-1.534,1.466
				c-0.804-0.018-1.446-0.671-1.466-1.466l0-0.007c-0.024-0.777-0.082-1.556-0.026-2.343c0.023-0.393,0.014-0.786,0.066-1.182
				l0.123-1.188l0.222-1.186c0.068-0.396,0.198-0.788,0.296-1.183c0.094-0.396,0.241-0.785,0.378-1.176
				c0.127-0.393,0.295-0.778,0.474-1.162c0.162-0.388,0.364-0.765,0.583-1.138c0.2-0.379,0.458-0.735,0.719-1.09
				c0.242-0.364,0.559-0.691,0.857-1.026c0.293-0.339,0.667-0.625,1.004-0.933c0.375-0.275,0.755-0.553,1.17-0.781
				c0.424-0.217,0.84-0.449,1.304-0.591C42.53,9.253,43,9.145,43.477,9.058c0.472-0.108,0.956-0.098,1.435-0.138l0,4l-0.003,0
				l-0.176-0.001c-1.106-0.004-2-0.905-1.995-2.011c0.004-1.106,0.905-2,2.011-1.995c0.052,0,0.109,0.003,0.16,0.007
				c0.479,0.04,0.963,0.031,1.435,0.139c0.476,0.087,0.947,0.195,1.395,0.374c0.464,0.142,0.88,0.375,1.305,0.591
				c0.415,0.228,0.794,0.506,1.17,0.782c0.337,0.309,0.712,0.594,1.004,0.934c0.298,0.335,0.615,0.662,0.857,1.026
				c0.262,0.355,0.519,0.712,0.719,1.091c0.219,0.373,0.421,0.75,0.583,1.139c0.179,0.384,0.347,0.769,0.473,1.163
				c0.137,0.391,0.284,0.78,0.378,1.177c0.098,0.395,0.229,0.787,0.296,1.184l0.222,1.186l0.123,1.188
				c0.051,0.395,0.042,0.789,0.066,1.182c0.056,0.787-0.003,1.566-0.026,2.344l-0.001,0.037c-0.025,0.828-0.717,1.479-1.544,1.454
				c-0.809-0.024-1.449-0.688-1.454-1.491l0-0.003c0.002-0.81-0.029-1.621,0.035-2.437c0.026-0.815,0.135-1.631,0.235-2.448
				c0.14-0.815,0.298-1.629,0.525-2.437c0.226-0.807,0.484-1.613,0.83-2.4c0.154-0.398,0.349-0.786,0.554-1.172
				c0.188-0.391,0.421-0.767,0.665-1.141c0.471-0.752,1.062-1.46,1.734-2.117c0.341-0.324,0.727-0.622,1.113-0.912
				c0.428-0.252,0.821-0.549,1.304-0.732l0.708-0.296c0.281-0.08,0.567-0.154,0.854-0.219c0.733-0.163,0.684-0.107,1.446-0.186
				c1.038,0.034,2.113,0.183,3.044,0.619c0.495,0.171,0.9,0.459,1.344,0.702c0.4,0.282,0.803,0.572,1.16,0.891
				c0.705,0.645,1.332,1.349,1.838,2.098c0.262,0.372,0.513,0.749,0.718,1.14c0.223,0.386,0.436,0.776,0.607,1.176
				c0.383,0.791,0.676,1.604,0.936,2.42c0.263,0.817,0.447,1.644,0.62,2.471c0.137,0.832,0.282,1.646,0.346,2.523
				c0.101,0.907,0.098,1.613,0.135,2.396L72.411,24.418z"/>
		</g>
		<g>
			<path style="fill:#FFFFFF;" d="M46.08,102.585c0,0,45-6.333,57.667-49"/>
			<path d="M45.787,100.607c0,0,0.286-0.046,0.821-0.133c0.546-0.095,1.359-0.249,2.391-0.479c2.064-0.457,5.013-1.217,8.466-2.411
				c1.729-0.588,3.578-1.296,5.505-2.114c1.929-0.813,3.923-1.762,5.948-2.813c2.015-1.069,4.067-2.235,6.069-3.548
				c2.026-1.278,3.975-2.734,5.884-4.235c0.951-0.755,1.858-1.564,2.781-2.345c0.874-0.835,1.78-1.631,2.616-2.484
				c1.68-1.698,3.265-3.439,4.679-5.221c1.432-1.768,2.7-3.569,3.834-5.319c0.544-0.89,1.099-1.741,1.591-2.59
				c0.47-0.863,0.923-1.696,1.359-2.497c0.445-0.796,0.776-1.607,1.143-2.353c0.347-0.755,0.714-1.455,0.97-2.152
				c0.536-1.382,1.073-2.562,1.397-3.578c0.679-2.022,1.067-3.177,1.067-3.177l0.028-0.083c0.264-0.785,1.114-1.207,1.898-0.944
				c0.778,0.261,1.2,1.101,0.95,1.88c0,0-0.39,1.211-1.071,3.33c-0.327,1.065-0.869,2.308-1.414,3.761
				c-0.261,0.732-0.634,1.471-0.988,2.267c-0.374,0.787-0.714,1.64-1.169,2.482c-0.447,0.846-0.913,1.727-1.395,2.639
				c-0.506,0.899-1.076,1.802-1.638,2.744c-1.169,1.855-2.48,3.767-3.964,5.647c-1.466,1.894-3.109,3.749-4.856,5.557
				c-0.869,0.908-1.81,1.758-2.72,2.647c-0.958,0.834-1.903,1.695-2.892,2.502c-1.984,1.603-4.014,3.157-6.119,4.523
				c-2.082,1.403-4.214,2.651-6.31,3.796c-2.105,1.127-4.178,2.144-6.183,3.02c-2.003,0.88-3.926,1.644-5.726,2.282
				c-3.595,1.294-6.675,2.13-8.859,2.643c-1.092,0.258-1.96,0.435-2.563,0.547c-0.616,0.107-0.944,0.164-0.944,0.164
				c-1.088,0.19-2.124-0.539-2.313-1.627c-0.19-1.088,0.539-2.124,1.627-2.313c0.004-0.001,0.009-0.001,0.013-0.002L45.787,100.607z
				"/>
		</g>
		<circle cx="66.636" cy="110.415" r="2.605"/>
		<circle cx="85.334" cy="103.407" r="2.605"/>
		<circle cx="101.667" cy="91.316" r="2.605"/>
		<circle cx="110.194" cy="76.425" r="2.605"/>
	</g>
</g>
<g id="Layer_1">
</g>
</svg>
