<?xml version="1.0" encoding="iso-8859-1"?>
<!-- Generator: Adobe Illustrator 19.2.0, SVG Export Plug-In . SVG Version: 6.00 Build 0)  -->
<!DOCTYPE svg PUBLIC "-//W3C//DTD SVG 1.1//EN" "http://www.w3.org/Graphics/SVG/1.1/DTD/svg11.dtd">
<svg version="1.1" xmlns="http://www.w3.org/2000/svg" xmlns:xlink="http://www.w3.org/1999/xlink" x="0px" y="0px"
	 viewBox="0 0 140 140" style="enable-background:new 0 0 140 140;" xml:space="preserve">
<g id="nasa">
	<g id="nasa_3_">
		<path style="fill:#FFFFFF;stroke:#000000;stroke-width:5;stroke-miterlimit:10;" d="M63.15,119.491
			c-5.502,6.385-13.647,10.428-22.737,10.428c-16.569,0-30-13.431-30-30v-30c0-33.137,26.863-60,60-60h30h15
			c8.284,0,15,6.25,15,12.999c0,6.751-6.309,13.999-17.001,13.999c10.942,0,17.001,6.002,17.001,13.999
			c0,7.253-6.559,11.998-17.001,11.998c0,0-8.999,5.671-16.665,13.338S63.15,119.491,63.15,119.491z"/>
		<g>
			
				<ellipse transform="matrix(0.9397 -0.342 0.342 0.9397 -25.2984 36.3415)" style="fill:#FFFFFF;stroke:#000000;stroke-width:5;stroke-miterlimit:10;" cx="90.402" cy="89.908" rx="40" ry="40"/>
			<g>
				
					<ellipse transform="matrix(0.9397 -0.342 0.342 0.9397 -22.8629 32.8634)" style="fill:none;stroke:#000000;stroke-width:4;stroke-miterlimit:10;" cx="81.757" cy="81.263" rx="12.232" ry="12.232"/>
				
					<ellipse transform="matrix(0.9397 -0.342 0.342 0.9397 -27.7338 39.8196)" style="fill:none;stroke:#000000;stroke-width:4;stroke-miterlimit:10;" cx="99.047" cy="98.553" rx="12.232" ry="12.232"/>
			</g>
		</g>
		<g>
			<path d="M115.354,39.417c0,0-7.928-0.028-19.819-0.071c-2.973-0.011-6.193-0.022-9.6-0.034
				c-3.432-0.016-6.954-0.045-10.555,0.184c-3.615,0.212-7.31,0.682-10.939,1.531c-3.634,0.831-7.16,2.161-10.356,4.005
				c-1.584,0.944-3.079,2.018-4.46,3.217c-1.346,1.233-2.644,2.524-3.73,3.985c-2.253,2.855-3.917,6.119-5.167,9.434
				c-1.253,3.319-2.093,6.698-2.702,9.948c-0.564,3.264-0.93,6.392-1.139,9.3c-0.118,1.452-0.154,2.854-0.231,4.182
				c-0.028,1.334-0.054,2.599-0.079,3.788c-0.013,2.413-0.024,4.517-0.033,6.25c-0.015,3.468-0.024,5.45-0.024,5.45
				c-0.005,1.105-0.904,1.996-2.009,1.991c-1.098-0.005-1.986-0.895-1.991-1.991c0,0-0.009-1.982-0.024-5.45
				c-0.006-1.736-0.014-3.843-0.022-6.261c0.015-1.226,0.03-2.531,0.047-3.907c0.067-1.377,0.092-2.825,0.202-4.338
				c0.191-3.024,0.543-6.303,1.11-9.758c0.615-3.449,1.478-7.078,2.818-10.727c1.337-3.64,3.16-7.322,5.716-10.628
				c1.234-1.681,2.717-3.201,4.271-4.638c1.59-1.404,3.315-2.66,5.13-3.758c3.654-2.149,7.626-3.657,11.587-4.595
				c3.964-0.958,7.914-1.48,11.714-1.732c3.817-0.269,7.486-0.262,10.865-0.271c3.406-0.012,6.627-0.024,9.6-0.034
				c11.891-0.043,19.819-0.071,19.819-0.071c1.381-0.005,2.504,1.11,2.509,2.491c0.005,1.381-1.11,2.504-2.491,2.509H115.354z"/>
		</g>
	</g>
</g>
<g id="Layer_1">
</g>
</svg>
