<?xml version="1.0" encoding="iso-8859-1"?>
<!-- Generator: Adobe Illustrator 19.2.0, SVG Export Plug-In . SVG Version: 6.00 Build 0)  -->
<!DOCTYPE svg PUBLIC "-//W3C//DTD SVG 1.1//EN" "http://www.w3.org/Graphics/SVG/1.1/DTD/svg11.dtd">
<svg version="1.1" xmlns="http://www.w3.org/2000/svg" xmlns:xlink="http://www.w3.org/1999/xlink" x="0px" y="0px"
	 viewBox="0 0 140 140" style="enable-background:new 0 0 140 140;" xml:space="preserve">
<g id="pimeja">
	<g id="pimeja_3_">
		<circle style="fill:#FFFFFF;" cx="70.739" cy="65.119" r="55.326"/>
		<path style="fill:none;stroke:#000000;stroke-width:5;stroke-linecap:round;stroke-linejoin:round;stroke-miterlimit:10;" d="
			M15.413,64.794c0-30.376,24.624-55,55-55s55,24.624,55,55"/>
		<g>
			<path style="fill:#FFFFFF;stroke:#000000;stroke-width:5;stroke-linecap:round;stroke-linejoin:round;stroke-miterlimit:10;" d="
				M88.053,79.749c0-11.704,9.488-21.191,21.191-21.191s21.191,9.488,21.191,21.191l-0.045,20.295c0,16.569-13.431,30-30,30h-60
				c-16.569,0-30-13.431-30-30V79.749c0-11.704,9.488-21.191,21.191-21.191s21.191,9.488,21.191,21.191
				c0-9.742,7.898-17.64,17.64-17.64S88.053,70.007,88.053,79.749z"/>
		</g>
		<g>
			<path d="M101.154,61.617l-2.699-1.407l-2.749-1.601l-2.629-1.704l-2.545-1.825l-2.455-1.942l-2.36-2.056l-2.259-2.166
				l-2.15-2.275l-2.034-2.38l-1.909-2.482l-1.776-2.58l-1.633-2.675l-1.48-2.764l-1.316-2.847l-1.141-2.923L69.062,25h2.877
				l-0.956,2.99l-1.141,2.923l-1.316,2.847l-1.48,2.764l-1.633,2.675l-1.776,2.58l-1.909,2.482l-2.034,2.38l-2.15,2.275
				l-2.259,2.166l-2.36,2.056L50.47,55.08l-2.545,1.825l-2.629,1.704l-2.708,1.58l-2.783,1.45c-0.98,0.51-2.187,0.13-2.698-0.85
				c-0.51-0.98-0.13-2.187,0.85-2.698c0.009-0.005,0.018-0.009,0.028-0.014l0.095-0.047l2.641-1.308l2.578-1.433l2.51-1.555
				l2.435-1.672l2.355-1.785l2.268-1.895l2.175-2.002l2.074-2.106l1.965-2.206l1.849-2.304l1.724-2.397l1.589-2.487l1.445-2.571
				l1.292-2.65l1.128-2.723l0.955-2.787c0.272-0.794,1.137-1.218,1.931-0.945c0.459,0.157,0.797,0.52,0.945,0.945l0.955,2.787
				l1.128,2.723l1.292,2.65l1.445,2.571l1.589,2.487l1.724,2.397l1.849,2.304l1.965,2.206l2.074,2.106l2.175,2.002l2.268,1.895
				l2.355,1.785l2.435,1.672l2.51,1.555l2.537,1.412l2.725,1.35c0.99,0.489,1.397,1.689,0.907,2.679
				c-0.489,0.99-1.689,1.397-2.679,0.907C101.183,61.632,101.163,61.622,101.154,61.617z"/>
		</g>
		<path style="fill:none;stroke:#000000;stroke-width:4;stroke-linecap:round;stroke-linejoin:round;stroke-miterlimit:10;" d="
			M30.509,58.32c3.182-19.165,19.837-33.777,39.904-33.777c20.114,0,36.799,14.68,39.926,33.91"/>
	</g>
</g>
<g id="Layer_1">
</g>
</svg>
