<?xml version="1.0" encoding="iso-8859-1"?>
<!-- Generator: Adobe Illustrator 19.2.0, SVG Export Plug-In . SVG Version: 6.00 Build 0)  -->
<!DOCTYPE svg PUBLIC "-//W3C//DTD SVG 1.1//EN" "http://www.w3.org/Graphics/SVG/1.1/DTD/svg11.dtd">
<svg version="1.1" xmlns="http://www.w3.org/2000/svg" xmlns:xlink="http://www.w3.org/1999/xlink" x="0px" y="0px"
	 viewBox="0 0 140 140" style="enable-background:new 0 0 140 140;" xml:space="preserve">
<g id="jelo">
	<g id="jelo_3_">
		<circle style="fill:#FFFFFF;" cx="71.05" cy="64.26" r="54.629"/>
		<g>
			<path style="fill:#FFFFFF;stroke:#000000;stroke-width:5;stroke-linecap:round;stroke-linejoin:round;stroke-miterlimit:10;" d="
				M88.053,79.912c0-11.704,9.488-21.191,21.191-21.191s21.191,9.488,21.191,21.191l-0.045,20.295c0,16.569-13.431,30-30,30h-60
				c-16.569,0-30-13.431-30-30V79.912c0-11.704,9.488-21.191,21.191-21.191s21.191,9.488,21.191,21.191
				c0-9.742,7.898-17.64,17.64-17.64S88.053,70.169,88.053,79.912z"/>
		</g>
		<path style="fill:none;stroke:#000000;stroke-width:5;stroke-linecap:round;stroke-linejoin:round;stroke-miterlimit:10;" d="
			M15.413,64.956c0-30.376,24.624-55,55-55s55,24.624,55,55"/>
		
			<line style="fill:none;stroke:#000000;stroke-width:4;stroke-linecap:round;stroke-linejoin:round;stroke-miterlimit:10;" x1="18.288" y1="50.706" x2="122.538" y2="50.706"/>
		
			<line style="fill:none;stroke:#000000;stroke-width:4;stroke-linecap:round;stroke-linejoin:round;stroke-miterlimit:10;" x1="24.038" y1="36.206" x2="116.788" y2="36.206"/>
		
			<line style="fill:none;stroke:#000000;stroke-width:4;stroke-linecap:round;stroke-linejoin:round;stroke-miterlimit:10;" x1="37.185" y1="21.705" x2="103.641" y2="21.705"/>
	</g>
</g>
<g id="Layer_1">
</g>
</svg>
