<?xml version="1.0" encoding="iso-8859-1"?>
<!-- Generator: Adobe Illustrator 19.2.0, SVG Export Plug-In . SVG Version: 6.00 Build 0)  -->
<!DOCTYPE svg PUBLIC "-//W3C//DTD SVG 1.1//EN" "http://www.w3.org/Graphics/SVG/1.1/DTD/svg11.dtd">
<svg version="1.1" xmlns="http://www.w3.org/2000/svg" xmlns:xlink="http://www.w3.org/1999/xlink" x="0px" y="0px"
	 viewBox="0 0 140 140" style="enable-background:new 0 0 140 140;" xml:space="preserve">
<g id="ken">
	<g id="ken_1_">
		<g>
			<path style="fill:#FFFFFF;" d="M42.538,40.096c9.596,0,17.375,6.132,17.375,13.697c0,10.286-10.577,18.624-23.625,18.624
				c-14.29,0-25.875-12.585-25.875-26.876v-0.122c0-19.606,17.573-35.5,39.25-35.5h20.75c33.137,0,60,26.863,60,60s-26.863,60-60,60
				c-31.204,0-56.5-20.5-56.5-46.125c0-7.875,2.117-12.46,7.75-16.125"/>
			<path d="M42.598,38.597c0,0,0.456,0.001,1.34,0.002c0.879,0.008,2.427,0.12,4.198,0.482c1.799,0.412,4.014,1.108,6.379,2.516
				c2.316,1.424,4.879,3.63,6.416,7.094c0.748,1.727,1.189,3.714,1.099,5.857c-0.022,0.444-0.044,0.892-0.067,1.346
				c-0.091,0.543-0.183,1.092-0.276,1.647c-0.08,0.577-0.26,1.061-0.414,1.581c-0.165,0.513-0.299,1.047-0.543,1.538
				c-0.788,2.063-2.102,3.953-3.643,5.683c-1.545,1.741-3.431,3.245-5.533,4.486c-4.19,2.526-9.308,3.928-14.696,4.063l-0.506,0.021
				c0.079,0.006-0.251-0.002-0.259-0.004l-0.117-0.006l-0.235-0.013l-0.943-0.051c-0.644-0.046-1.219-0.029-1.991-0.175
				c-0.729-0.119-1.463-0.238-2.202-0.358c-0.698-0.174-1.383-0.373-2.081-0.564c-2.747-0.862-5.456-2.106-7.903-3.843
				c-4.874-3.46-8.945-8.524-11.045-14.634c-1.064-3.036-1.679-6.304-1.704-9.646L7.87,45.47l0.009-0.285L7.895,44.9l0.031-0.572
				l0.063-1.147c0.053-0.775,0.043-1.498,0.219-2.388c0.141-0.853,0.283-1.709,0.425-2.568c0.131-0.869,0.426-1.636,0.636-2.462
				c1.779-6.547,5.738-12.529,10.871-17.31c5.256-4.645,11.714-8.2,18.801-9.821c3.511-0.944,7.192-1.203,10.848-1.317
				c3.473-0.004,6.97-0.007,10.49-0.011c3.541,0.001,7.104,0.001,10.684,0.002l2.675,0.068l2.845,0.211
				c1.868,0.2,3.715,0.433,5.559,0.791c7.369,1.377,14.548,4.109,21.029,8.06c6.483,3.947,12.244,9.118,16.913,15.137
				c4.67,6.018,8.243,12.894,10.442,20.166c2.227,7.249,2.991,14.962,2.512,22.341c-0.945,15.098-7.577,29.237-17.572,39.432
				c-9.943,10.275-23.052,16.588-36.003,18.351c-3.247,0.488-6.441,0.626-9.662,0.623c-0.762-0.017-1.52-0.034-2.276-0.05
				c-0.796-0.049-1.588-0.098-2.378-0.147c-0.797-0.035-1.551-0.145-2.323-0.216c-0.768-0.073-1.531-0.161-2.287-0.282
				c-3.033-0.408-5.985-1.036-8.834-1.827c-2.851-0.783-5.605-1.729-8.221-2.857c-10.506-4.428-18.922-11.385-24.237-19.134
				c-2.701-3.847-4.566-7.909-5.828-11.796c-1.212-3.912-1.765-7.673-1.855-11.066c-0.009-0.424-0.018-0.843-0.026-1.256
				c0.01-0.404,0.019-0.803,0.029-1.196c0.031-0.756,0.074-1.634,0.163-2.381c0.154-1.533,0.416-3.001,0.834-4.352
				c0.822-2.708,2.207-4.872,3.535-6.313c1.346-1.447,2.545-2.292,3.338-2.849c0.818-0.508,1.24-0.77,1.24-0.77
				c0.938-0.582,2.169-0.294,2.751,0.644c0.542,0.873,0.329,2-0.459,2.621l-0.111,0.088c0,0-0.327,0.258-0.959,0.758
				c-0.609,0.51-1.506,1.276-2.397,2.422c-0.915,1.125-1.793,2.646-2.31,4.723c-0.28,1.028-0.485,2.196-0.585,3.493
				c-0.064,0.665-0.081,1.254-0.1,2.005c-0.002,0.361-0.004,0.728-0.006,1.1c0.015,0.363,0.031,0.731,0.046,1.104
				c0.11,2.981,0.583,6.275,1.66,9.714c1.123,3.416,2.767,7.004,5.189,10.433c4.751,6.903,12.393,13.245,22.078,17.303
				c2.409,1.035,4.953,1.902,7.591,2.62c2.635,0.726,5.37,1.303,8.184,1.675c0.701,0.112,1.409,0.192,2.122,0.257
				c0.709,0.063,1.435,0.168,2.136,0.195c0.707,0.043,1.416,0.087,2.129,0.131c0.755,0.015,1.513,0.03,2.273,0.045
				c2.864-0.007,5.867-0.135,8.821-0.591c11.87-1.64,23.863-7.451,32.96-16.887c4.567-4.682,8.368-10.26,11.12-16.395
				c2.753-6.11,4.477-12.873,4.886-19.634c0.433-6.94-0.285-13.864-2.332-20.517c-2.02-6.635-5.252-12.93-9.518-18.443
				c-4.259-5.514-9.523-10.261-15.448-13.885c-5.924-3.627-12.484-6.139-19.226-7.414c-1.681-0.333-3.391-0.548-5.076-0.735
				l-2.496-0.195l-2.667-0.073c-3.536-0.007-7.054-0.015-10.551-0.022c-3.519-0.004-7.017-0.007-10.49-0.011
				c-3.273,0.108-6.523,0.313-9.632,1.151c-6.275,1.411-11.955,4.554-16.559,8.589c-4.477,4.171-7.903,9.32-9.422,14.91
				c-0.174,0.691-0.452,1.393-0.544,2.067c-0.117,0.676-0.233,1.349-0.349,2.02c-0.157,0.626-0.158,1.45-0.21,2.205l-0.065,1.147
				l-0.033,0.572l-0.016,0.285c-0.006,0.175-0.002-0.078-0.001,0.001c-0.001,0.049,0,0.094,0.003,0.136
				c0.017,2.755,0.521,5.458,1.399,7.982c1.724,5.085,5.138,9.326,9.153,12.193c2.017,1.442,4.238,2.452,6.471,3.164
				c0.565,0.156,1.126,0.311,1.685,0.465c0.538,0.091,1.073,0.181,1.605,0.27c0.483,0.125,1.186,0.121,1.8,0.165l0.942,0.053
				l0.235,0.013l0.117,0.007c0.07,0.004-0.182-0.003-0.025-0.002l0.429-0.016c4.573-0.061,8.883-1.231,12.341-3.242
				c1.745-0.976,3.29-2.159,4.527-3.502c1.235-1.335,2.281-2.764,2.928-4.282c0.208-0.363,0.309-0.757,0.449-1.135
				c0.127-0.378,0.295-0.765,0.341-1.106c0.082-0.35,0.163-0.696,0.244-1.039c0.039-0.446,0.078-0.887,0.116-1.322
				c0.111-1.379-0.124-2.766-0.597-3.981c-0.456-1.235-1.214-2.298-2.016-3.217c-0.791-0.938-1.725-1.673-2.613-2.325
				c-1.836-1.245-3.659-1.95-5.163-2.389c-1.565-0.388-2.629-0.582-3.514-0.659c-0.881-0.069-1.336-0.105-1.336-0.105
				c-0.826-0.065-1.444-0.787-1.379-1.614C41.161,39.195,41.823,38.599,42.598,38.597z"/>
		</g>
		<path style="fill:none;stroke:#000000;stroke-width:3;stroke-linecap:round;stroke-linejoin:round;stroke-miterlimit:10;" d="
			M14.926,84.43c12.626,1.112,39.114,1.18,59.301,0.494"/>
		<path style="fill:none;stroke:#000000;stroke-width:3;stroke-linecap:round;stroke-linejoin:round;stroke-miterlimit:10;" d="
			M17.104,98.118c11.774,1.037,36.474,1.1,55.298,0.461"/>
		<g>
			<path d="M55.653,63.756c0,0,0.388,0.124,1.114,0.356c0.369,0.128,0.799,0.234,1.351,0.453c0.551,0.22,1.185,0.473,1.895,0.756
				c0.675,0.326,1.421,0.687,2.235,1.081c0.773,0.468,1.661,0.894,2.513,1.507c1.768,1.127,3.598,2.668,5.39,4.551
				c1.785,1.891,3.465,4.221,4.742,6.959c1.281,2.729,2.145,5.87,2.338,9.18c0.022,0.414,0.043,0.829,0.065,1.246l0.002,0.039
				c-0.001,0.065,0.005-0.09-0.002,0.155l-0.004,0.072l-0.008,0.144l-0.016,0.289l-0.033,0.579c-0.06,0.788-0.037,1.506-0.226,2.423
				c-0.166,0.862-0.254,1.789-0.51,2.607c-0.252,0.823-0.463,1.668-0.762,2.482c-1.175,3.279-3.102,6.302-5.45,8.883
				c-2.354,2.585-5.151,4.722-8.134,6.372c-0.761,0.383-1.488,0.833-2.271,1.151c-0.778,0.326-1.553,0.651-2.323,0.974
				c-1.585,0.515-3.146,1.052-4.739,1.352c-0.395,0.088-0.788,0.176-1.18,0.263c-0.393,0.078-0.791,0.114-1.184,0.173
				c-0.787,0.099-1.565,0.226-2.339,0.294c-0.776,0.036-1.544,0.071-2.303,0.105l-0.567,0.025l-0.141,0.006l-0.187,0.001
				l-0.266-0.006c-0.354-0.008-0.706-0.016-1.056-0.024c-3.021-0.102-5.763-0.575-8.271-1.273c-5.012-1.389-8.79-3.674-11.216-5.486
				c-1.205-0.928-2.104-1.72-2.694-2.285c-0.584-0.571-0.895-0.876-0.895-0.876c-0.789-0.772-0.803-2.038-0.03-2.827
				c0.767-0.784,2.022-0.802,2.812-0.045l0.079,0.076c0,0,0.273,0.262,0.784,0.752c0.516,0.486,1.305,1.166,2.362,1.967
				c2.132,1.559,5.462,3.539,9.901,4.725c2.196,0.584,4.698,1.044,7.27,1.13c0.349,0.009,0.701,0.018,1.055,0.027l0.266,0.007
				l0.067,0.002c-0.079-0.002,0.013-0.003,0.013-0.003l0.126-0.006l0.504-0.022c0.675-0.028,1.358-0.057,2.048-0.085
				c0.687-0.059,1.377-0.174,2.076-0.257c0.348-0.051,0.703-0.079,1.051-0.147l1.044-0.233c1.414-0.256,2.789-0.735,4.194-1.178
				c0.679-0.283,1.361-0.567,2.048-0.853c0.692-0.273,1.326-0.675,1.997-1.005c2.621-1.439,5.062-3.297,7.099-5.518
				c2.032-2.218,3.68-4.789,4.675-7.549c0.254-0.686,0.426-1.396,0.646-2.087c0.226-0.697,0.262-1.36,0.414-2.034
				c0.165-0.619,0.159-1.473,0.217-2.228l0.059-1.034l-0.04-1.049c-0.115-2.786-0.793-5.444-1.847-7.791
				c-1.053-2.352-2.465-4.39-3.963-6.1c-1.517-1.694-3.088-3.116-4.636-4.167c-0.743-0.568-1.516-0.991-2.189-1.446
				c-0.714-0.389-1.37-0.746-1.963-1.069c-0.6-0.275-1.136-0.521-1.602-0.734c-0.464-0.217-0.944-0.365-1.289-0.503
				c-0.715-0.267-1.096-0.409-1.096-0.409c-0.776-0.29-1.171-1.154-0.881-1.93C54.071,63.908,54.896,63.516,55.653,63.756z"/>
		</g>
		<ellipse transform="matrix(0.9713 -0.2379 0.2379 0.9713 -7.2882 20.9556)" cx="83.163" cy="40.669" rx="4.5" ry="3.25"/>
		<g>
			<path d="M99.445,36.245c0,0,0.016,0.597,0.011,1.653c-0.071,0.588-0.109,1.352-0.268,2.149c-0.085,0.396-0.175,0.818-0.27,1.262
				c-0.117,0.439-0.288,0.887-0.443,1.363c-0.35,0.934-0.794,1.932-1.391,2.915c-0.578,0.994-1.303,1.979-2.163,2.9
				c-0.412,0.478-0.912,0.883-1.379,1.334c-0.496,0.417-1.023,0.813-1.561,1.2c-1.115,0.716-2.298,1.379-3.567,1.844l-0.952,0.344
				c-0.322,0.098-0.652,0.172-0.976,0.257c-0.647,0.187-1.309,0.287-1.967,0.376c-1.298,0.183-2.656,0.189-3.849,0.083
				c-1.313-0.114-2.468-0.375-3.577-0.727c-1.098-0.349-2.098-0.786-2.976-1.265c-1.769-0.945-3.018-2.067-3.838-2.871
				c-0.403-0.414-0.704-0.751-0.897-0.992c-0.197-0.237-0.301-0.363-0.301-0.363c-0.53-0.637-0.442-1.584,0.195-2.113
				c0.598-0.497,1.469-0.45,2.011,0.085l0.036,0.036c0,0,0.388,0.385,1.114,0.99c0.37,0.294,0.822,0.647,1.375,0.995
				c0.546,0.36,1.198,0.702,1.914,1.051c0.721,0.342,1.533,0.64,2.413,0.864c0.867,0.223,1.855,0.373,2.782,0.436
				c1.045,0.066,2.024,0.004,3.058-0.137c0.511-0.075,1.025-0.152,1.524-0.308c0.251-0.069,0.507-0.125,0.756-0.203l0.735-0.274
				c0.989-0.346,1.908-0.859,2.785-1.402c0.416-0.304,0.839-0.596,1.237-0.909c0.369-0.347,0.779-0.644,1.108-1.012
				c0.683-0.71,1.312-1.437,1.808-2.199c0.518-0.748,0.913-1.519,1.235-2.247c0.148-0.371,0.291-0.726,0.426-1.064
				c0.109-0.349,0.212-0.68,0.309-0.99c0.186-0.621,0.25-1.134,0.365-1.576c0.115-1.042,0.181-1.637,0.181-1.637
				c0.091-0.825,0.834-1.419,1.659-1.328c0.756,0.084,1.318,0.714,1.337,1.454L99.445,36.245z"/>
		</g>
		<ellipse transform="matrix(0.9713 -0.2379 0.2379 0.9713 -13.6385 25.3431)" cx="98.163" cy="69.168" rx="4.5" ry="3.25"/>
		<g>
			<path d="M114.445,64.744c0,0,0.016,0.597,0.011,1.653c-0.071,0.588-0.109,1.352-0.268,2.149c-0.085,0.396-0.175,0.818-0.27,1.262
				c-0.117,0.439-0.288,0.887-0.443,1.363c-0.35,0.934-0.794,1.932-1.391,2.915c-0.578,0.994-1.303,1.979-2.163,2.9
				c-0.412,0.478-0.912,0.883-1.379,1.334c-0.496,0.417-1.023,0.813-1.561,1.2c-1.115,0.716-2.298,1.379-3.567,1.844l-0.952,0.344
				c-0.322,0.098-0.652,0.172-0.976,0.257c-0.647,0.187-1.309,0.287-1.967,0.376c-1.298,0.183-2.656,0.189-3.849,0.083
				c-1.313-0.114-2.468-0.375-3.577-0.727c-1.098-0.349-2.098-0.786-2.976-1.265c-1.769-0.945-3.018-2.067-3.838-2.871
				c-0.403-0.413-0.704-0.751-0.897-0.992c-0.197-0.237-0.301-0.363-0.301-0.363c-0.53-0.637-0.442-1.584,0.195-2.113
				c0.598-0.497,1.469-0.45,2.011,0.085l0.036,0.036c0,0,0.388,0.385,1.114,0.99c0.37,0.294,0.822,0.647,1.375,0.995
				c0.546,0.36,1.198,0.702,1.914,1.051c0.721,0.342,1.533,0.64,2.413,0.864c0.867,0.223,1.855,0.373,2.782,0.436
				c1.045,0.066,2.024,0.004,3.058-0.137c0.511-0.075,1.025-0.152,1.524-0.308c0.251-0.069,0.507-0.125,0.756-0.203l0.735-0.274
				c0.989-0.346,1.908-0.859,2.785-1.402c0.416-0.304,0.839-0.596,1.237-0.909c0.369-0.347,0.779-0.644,1.108-1.012
				c0.683-0.71,1.312-1.437,1.808-2.199c0.518-0.748,0.913-1.519,1.235-2.247c0.148-0.371,0.291-0.726,0.426-1.064
				c0.109-0.349,0.212-0.68,0.309-0.99c0.186-0.621,0.25-1.134,0.365-1.576c0.115-1.042,0.181-1.637,0.181-1.637
				c0.091-0.825,0.834-1.419,1.659-1.328c0.756,0.084,1.318,0.714,1.337,1.454L114.445,64.744z"/>
		</g>
	</g>
</g>
<g id="Layer_1">
</g>
</svg>
