<?xml version="1.0" encoding="iso-8859-1"?>
<!-- Generator: Adobe Illustrator 19.2.0, SVG Export Plug-In . SVG Version: 6.00 Build 0)  -->
<!DOCTYPE svg PUBLIC "-//W3C//DTD SVG 1.1//EN" "http://www.w3.org/Graphics/SVG/1.1/DTD/svg11.dtd">
<svg version="1.1" xmlns="http://www.w3.org/2000/svg" xmlns:xlink="http://www.w3.org/1999/xlink" x="0px" y="0px"
	 viewBox="0 0 125 125" style="enable-background:new 0 0 125 125;" xml:space="preserve">
<g id="ona">
	<g id="ona_2_">
		<path style="fill:#FFFFFF;stroke:#000000;stroke-width:5;stroke-miterlimit:10;" d="M122.5,72.5c0,27.614-22.386,50-50,50h-20
			c-27.614,0-50-22.386-50-50v-20c0-27.614,22.386-50,50-50h20c27.614,0,50,22.386,50,50V72.5z"/>
		<line style="fill:none;stroke:#000000;stroke-width:4;stroke-miterlimit:10;" x1="54.221" y1="47.191" x2="54.221" y2="2.521"/>
		<line style="fill:none;stroke:#000000;stroke-width:4;stroke-miterlimit:10;" x1="70.779" y1="2.521" x2="70.779" y2="47.191"/>
		<g>
			<g>
				<g>
					<path d="M27.825,86.887l-0.157-19.433l-0.013-2.429l0.009-0.659c0.012-0.228,0.034-0.532,0.065-0.774
						c0.064-0.487,0.157-0.972,0.295-1.443c0.532-1.898,1.658-3.556,3.04-4.833c1.388-1.281,3.034-2.217,4.773-2.811
						c1.733-0.592,3.594-0.861,5.376-0.8c1.855,0.06,3.65,0.438,5.357,1.158c1.699,0.713,3.281,1.775,4.564,3.181
						c1.281,1.4,2.227,3.194,2.551,5.141c0.077,0.485,0.13,0.976,0.13,1.466l-0.006,1.249l-0.023,2.429
						c-0.024,3.239-0.143,6.478-0.122,9.717l-0.013,9.717h-3v0l-0.154-17.944l-0.012-2.243l-0.003-0.561l0.005-0.612
						c-0.003-0.155,0.027-0.467,0.046-0.702c0.031-0.236,0.059-0.461,0.105-0.689c0.342-1.824,1.276-3.485,2.51-4.758
						c2.482-2.575,5.968-3.784,9.352-3.796c3.384,0.012,6.87,1.221,9.352,3.796c1.234,1.273,2.169,2.933,2.51,4.758
						c0.086,0.454,0.139,0.915,0.151,1.376l0.005,0.627l-0.003,0.561l-0.012,2.243l-0.154,17.944l0,0h-3l-0.013-9.717
						c0.021-3.239-0.098-6.478-0.122-9.717l-0.023-2.429c-0.001-0.783-0.055-1.681,0.124-2.715c0.324-1.947,1.27-3.742,2.551-5.141
						c2.584-2.818,6.279-4.221,9.903-4.339l0.341-0.008l0.357,0c0.209,0.005,0.385,0.003,0.642,0.022
						c0.492,0.028,0.93,0.072,1.385,0.141c0.904,0.133,1.798,0.348,2.668,0.645c1.739,0.594,3.385,1.53,4.773,2.811
						c1.382,1.278,2.507,2.935,3.04,4.833c0.27,0.927,0.392,1.97,0.368,2.875l-0.013,2.429l-0.157,19.433h-3l-0.157-19.433
						l-0.013-2.429c0.004-0.715-0.091-1.294-0.278-1.921c-0.376-1.22-1.126-2.345-2.123-3.257c-0.999-0.91-2.23-1.611-3.557-2.053
						c-0.664-0.221-1.352-0.382-2.051-0.48c-0.345-0.052-0.714-0.083-1.031-0.1c-0.146-0.014-0.375-0.013-0.571-0.019l-0.152-0.004
						c0.024,0-0.07,0.002-0.099,0.002l-0.266,0.005c-2.822,0.062-5.65,1.178-7.476,3.16c-0.902,0.987-1.542,2.161-1.776,3.413
						c-0.119,0.564-0.113,1.295-0.119,2.129l-0.023,2.429c-0.024,3.239-0.143,6.478-0.122,9.717l-0.013,9.717h-3v0l-0.154-17.944
						l-0.012-2.243l-0.003-0.561l-0.002-0.28l-0.01-0.215c-0.012-0.286-0.053-0.569-0.112-0.848
						c-0.241-1.115-0.836-2.166-1.681-3.036c-1.7-1.756-4.304-2.697-6.875-2.678c-2.57-0.019-5.174,0.922-6.875,2.678
						c-0.846,0.869-1.44,1.92-1.681,3.036c-0.032,0.138-0.051,0.284-0.074,0.418c-0.009,0.137-0.034,0.197-0.037,0.416l-0.012,0.28
						l-0.001,0.229l-0.003,0.561l-0.012,2.243l-0.154,17.944v0h-3l-0.013-9.717c0.021-3.239-0.098-6.478-0.122-9.717l-0.023-2.429
						l-0.016-1.18c-0.005-0.319-0.049-0.636-0.103-0.949c-0.235-1.253-0.875-2.426-1.776-3.413c-0.909-0.983-2.077-1.771-3.366-2.3
						c-1.28-0.537-2.711-0.824-4.092-0.859c-1.454-0.039-2.85,0.15-4.187,0.596c-1.327,0.442-2.558,1.143-3.557,2.053
						c-0.997,0.911-1.747,2.037-2.123,3.257c-0.097,0.304-0.161,0.616-0.211,0.931l-0.049,0.435l-0.012,0.303l-0.005,0.252
						l-0.013,2.429l-0.157,19.433H27.825z"/>
				</g>
			</g>
		</g>
		<path style="fill:none;stroke:#000000;stroke-width:4;stroke-miterlimit:10;" d="M107.301,70.854
			c0,9.339-9.187,16.91-20.521,16.91H38.22c-11.333,0-20.521-7.571-20.521-16.91V64.09c0-9.339,9.187-16.91,20.521-16.91h48.56
			c11.333,0,20.521,7.571,20.521,16.91V70.854z"/>
	</g>
</g>
<g id="Layer_1">
</g>
</svg>
