<?xml version="1.0" encoding="iso-8859-1"?>
<!-- Generator: Adobe Illustrator 19.2.0, SVG Export Plug-In . SVG Version: 6.00 Build 0)  -->
<!DOCTYPE svg PUBLIC "-//W3C//DTD SVG 1.1//EN" "http://www.w3.org/Graphics/SVG/1.1/DTD/svg11.dtd">
<svg version="1.1" xmlns="http://www.w3.org/2000/svg" xmlns:xlink="http://www.w3.org/1999/xlink" x="0px" y="0px"
	 viewBox="0 0 140 140" style="enable-background:new 0 0 140 140;" xml:space="preserve">
<g id="tan">
	<g id="tan_1_">
		<g>
			<ellipse style="fill:#FFFFFF;" cx="70.413" cy="89.141" rx="60.125" ry="40.542"/>
			<path d="M132.787,89.225c0,0-0.011,0.312-0.031,0.915c-0.01,0.302-0.023,0.677-0.039,1.122c-0.052,0.496-0.111,1.07-0.179,1.72
				c-0.33,2.537-1.085,6.208-3.228,10.389c-2.083,4.181-5.546,8.756-10.423,12.862c-4.857,4.124-11.074,7.801-18.301,10.551
				c-7.223,2.753-15.452,4.61-24.249,5.187c-2.209,0.135-4.409,0.225-6.713,0.195c-2.151-0.03-4.534-0.123-6.83-0.334
				c-4.609-0.403-9.297-1.143-13.968-2.336c-9.305-2.403-18.706-6.45-26.637-13.05c-3.928-3.306-7.487-7.254-10.062-11.912
				c-1.281-2.325-2.316-4.812-3.017-7.407c-0.366-1.293-0.61-2.622-0.799-3.955c-0.067-0.671-0.164-1.339-0.203-2.011L8.04,89.057
				l0.076-1.869c0.04-0.645,0.142-1.376,0.216-2.059c0.201-1.364,0.449-2.666,0.823-3.962c0.716-2.587,1.762-5.062,3.054-7.373
				c2.595-4.63,6.166-8.543,10.099-11.814c7.942-6.529,17.33-10.502,26.607-12.838c9.323-2.312,18.654-2.866,27.387-2.366
				c8.764,0.521,16.961,2.319,24.172,5.016c7.213,2.695,13.429,6.319,18.292,10.399c4.884,4.062,8.363,8.601,10.466,12.759
				c2.161,4.147,2.941,7.842,3.28,10.329c0.071,0.628,0.133,1.182,0.187,1.661c0.02,0.481,0.037,0.886,0.05,1.212
				c0.025,0.652,0.038,0.989,0.038,0.989L132.787,89.225z M128.288,89.141c0,0-0.01-0.286-0.03-0.841
				c-0.009-0.278-0.02-0.622-0.034-1.032c-0.044-0.407-0.095-0.879-0.152-1.414c-0.279-2.121-0.908-5.269-2.772-8.9
				c-1.809-3.636-4.865-7.715-9.315-11.465c-4.427-3.763-10.198-7.196-16.99-9.781c-6.785-2.588-14.587-4.357-22.943-4.905
				c-8.367-0.569-17.29,0.125-26.13,2.346c-8.793,2.265-17.618,6.108-24.855,12.145c-3.585,3.018-6.766,6.575-9.01,10.646
				c-1.118,2.033-2.007,4.18-2.606,6.399c-0.314,1.099-0.521,2.255-0.679,3.356c-0.052,0.557-0.136,1.062-0.171,1.661l-0.064,1.87
				l0.072,1.633c0.036,0.572,0.126,1.139,0.184,1.708c0.169,1.132,0.38,2.261,0.703,3.363c0.613,2.212,1.514,4.347,2.643,6.366
				c2.265,4.043,5.458,7.565,9.048,10.548c7.248,5.965,16.06,9.734,24.826,11.932c4.401,1.095,8.832,1.766,13.191,2.12
				c2.189,0.185,4.259,0.257,6.505,0.276c2.095,0.012,4.239-0.039,6.31-0.159c8.323-0.492,16.093-2.201,22.866-4.734
				c6.778-2.53,12.547-5.91,16.981-9.629c4.457-3.706,7.53-7.749,9.358-11.362c1.882-3.597,2.536-6.77,2.824-8.84
				c0.061-0.512,0.114-0.964,0.16-1.355c0.018-0.445,0.033-0.82,0.046-1.122c0.025-0.604,0.037-0.915,0.037-0.915L128.288,89.141z"
				/>
		</g>
		<g>
			<path style="fill:#FFFFFF;" d="M70.413,36.421c-27.959,0-50.625,12.595-50.625,28.131c0,12.26,14.12,22.683,33.813,26.536
				L60.6,82.15l9.814-12.533l9.814,12.533l6.998,8.938c19.693-3.853,33.813-14.275,33.813-26.536
				C121.038,49.015,98.373,36.421,70.413,36.421z"/>
			<path d="M70.441,38.42c-2.316,0.036-4.475,0.086-6.703,0.281c-2.219,0.17-4.431,0.427-6.624,0.782
				c-2.198,0.329-4.37,0.796-6.517,1.338c-2.151,0.53-4.26,1.2-6.336,1.935c-4.144,1.487-8.117,3.409-11.675,5.836
				c-3.518,2.44-6.666,5.447-8.528,9.011c-0.928,1.773-1.523,3.66-1.708,5.574c-0.039,0.238-0.022,0.48-0.037,0.72l-0.013,0.36
				l-0.007,0.18l-0.004,0.09l-0.001,0.022c-0.013-0.349-0.002-0.082-0.005-0.153l0.004,0.053l0.125,1.704
				c0.016,0.292,0.038,0.578,0.105,0.763l0.154,0.639c0.098,0.426,0.157,0.848,0.363,1.318l0.503,1.376l0.686,1.322
				c0.2,0.453,0.507,0.861,0.787,1.281c0.297,0.411,0.529,0.857,0.873,1.243c0.666,0.782,1.285,1.597,2.065,2.303
				c0.378,0.359,0.722,0.748,1.126,1.086l1.216,1.012c0.393,0.349,0.82,0.666,1.262,0.966l1.303,0.926
				c0.896,0.584,1.825,1.13,2.745,1.686c0.964,0.492,1.905,1.023,2.886,1.487c0.998,0.433,1.97,0.918,2.988,1.312
				c1.026,0.377,2.027,0.81,3.067,1.157c1.044,0.334,2.073,0.712,3.13,1.012c1.062,0.286,2.116,0.599,3.183,0.866l3.226,0.726
				l0.002,0l-2.448,0.912l17.206-21.162c0.707-0.87,1.985-1.002,2.855-0.294c0.107,0.087,0.21,0.192,0.294,0.294l17.206,21.162
				l-2.448-0.912l0.002,0l3.226-0.726c1.068-0.267,2.122-0.58,3.183-0.866c1.057-0.3,2.086-0.679,3.13-1.012
				c1.04-0.346,2.041-0.78,3.067-1.157c1.018-0.394,1.99-0.879,2.988-1.312c0.981-0.464,1.922-0.995,2.886-1.487
				c0.919-0.555,1.849-1.101,2.745-1.686l1.303-0.926c0.442-0.3,0.869-0.617,1.262-0.966l1.216-1.012
				c0.404-0.338,0.748-0.727,1.126-1.086c0.779-0.706,1.398-1.521,2.065-2.303c0.343-0.386,0.576-0.832,0.873-1.243
				c0.28-0.42,0.587-0.828,0.787-1.281l0.686-1.322l0.503-1.376c0.201-0.452,0.278-0.929,0.38-1.4
				c0.085-0.473,0.257-0.937,0.251-1.42l0.109-1.436l0.004-0.045c0.002,0.043-0.001-0.128,0.004,0.091l-0.001-0.027l-0.004-0.107
				l-0.008-0.213l-0.015-0.427c-0.017-0.265-0.006-0.613-0.045-0.81c-0.105-0.827-0.253-1.815-0.567-2.742
				c-0.267-0.938-0.68-1.844-1.133-2.734c-1.862-3.564-5.009-6.571-8.528-9.011c-3.558-2.427-7.531-4.349-11.675-5.836
				c-2.076-0.735-4.184-1.405-6.336-1.935c-2.147-0.542-4.319-1.009-6.517-1.338c-2.193-0.355-4.405-0.612-6.624-0.782
				c-2.218-0.195-4.447-0.246-6.675-0.281L70.441,38.42z M70.413,34.421c2.326,0.018,4.655,0.056,6.977,0.242
				c2.323,0.161,4.642,0.413,6.949,0.769c2.308,0.339,4.602,0.795,6.883,1.314c2.283,0.515,4.537,1.18,6.768,1.921
				c4.457,1.5,8.795,3.487,12.817,6.121c2.004,1.328,3.918,2.837,5.666,4.57c1.746,1.731,3.33,3.699,4.555,5.944
				c0.603,1.125,1.157,2.294,1.544,3.539c0.427,1.23,0.681,2.496,0.854,3.927c0.053,0.366,0.042,0.591,0.065,0.894l0.023,0.426
				l0.012,0.213l0.006,0.107l0.003,0.171l-0.004,0.062l-0.135,1.972c-0.012,0.663-0.212,1.294-0.332,1.939
				c-0.138,0.642-0.26,1.29-0.509,1.891c-0.221,0.611-0.437,1.227-0.672,1.831l-0.875,1.717c-0.272,0.588-0.642,1.101-0.991,1.63
				c-0.363,0.516-0.679,1.08-1.087,1.552c-0.799,0.961-1.574,1.954-2.479,2.79c-0.444,0.428-0.863,0.89-1.33,1.286l-1.405,1.179
				c-0.461,0.406-0.947,0.77-1.445,1.114l-1.48,1.057c-1.007,0.663-2.042,1.277-3.071,1.898c-1.061,0.55-2.106,1.139-3.182,1.652
				c-1.088,0.48-2.158,1.012-3.262,1.445c-2.197,0.899-4.444,1.643-6.707,2.307c-1.139,0.298-2.274,0.622-3.417,0.897l-3.447,0.744
				l-0.002,0l-0.032,0.006c-0.944,0.19-1.872-0.199-2.416-0.919L68.839,70.85h3.149L55.569,92.629
				c-0.58,0.769-1.529,1.096-2.414,0.92l-0.034-0.007l-0.002,0l-3.447-0.744c-1.144-0.275-2.278-0.599-3.417-0.897
				c-2.263-0.664-4.51-1.408-6.707-2.307c-1.104-0.433-2.174-0.965-3.262-1.445c-1.075-0.513-2.121-1.102-3.182-1.652
				c-1.029-0.621-2.063-1.235-3.071-1.898l-1.48-1.057c-0.498-0.344-0.984-0.708-1.445-1.114l-1.405-1.179
				c-0.466-0.396-0.886-0.859-1.33-1.286c-0.905-0.836-1.68-1.83-2.479-2.79c-0.408-0.472-0.724-1.036-1.087-1.552
				c-0.35-0.529-0.719-1.042-0.991-1.63l-0.875-1.717c-0.235-0.604-0.451-1.219-0.672-1.831c-0.244-0.583-0.383-1.286-0.526-1.973
				c-0.125-0.66-0.328-1.446-0.325-1.958l-0.12-1.704l-0.004-0.053l-0.008-0.206l0.001-0.031l0.006-0.123l0.012-0.247l0.026-0.493
				c0.025-0.328,0.02-0.659,0.073-0.984c0.298-2.619,1.162-5.133,2.39-7.367c1.225-2.245,2.809-4.213,4.555-5.944
				c1.749-1.733,3.663-3.242,5.666-4.57c4.023-2.634,8.36-4.621,12.817-6.121c2.231-0.741,4.485-1.406,6.768-1.921
				c2.281-0.52,4.575-0.975,6.883-1.314c2.306-0.356,4.625-0.608,6.949-0.769c2.313-0.186,4.711-0.225,6.949-0.242L70.413,34.421z"
				/>
		</g>
		<g>
			<path d="M59.038,41.68c0,0,0.015,0.809,0.042,2.224c0.013,0.708,0.03,1.567,0.048,2.553c0.015,0.212,0.03,0.43,0.045,0.655
				c0.022,0.25,0.028,0.555,0.065,0.781c0.105,0.423,0.109,0.827,0.275,1.335c0.226,0.993,0.676,2.013,1.27,3.01
				c0.595,0.998,1.389,1.955,2.359,2.77c1.922,1.653,4.564,2.684,7.272,2.675l1.098-0.054c0.38-0.028,0.618-0.098,0.934-0.133
				c0.608-0.117,1.295-0.282,1.9-0.525c1.24-0.463,2.376-1.144,3.34-1.963c0.97-0.815,1.763-1.772,2.359-2.77
				c0.593-0.996,1.044-2.017,1.27-3.01c0.163-0.485,0.184-0.979,0.284-1.433c0.047-0.47,0.072-0.89,0.101-1.337
				c0.019-0.986,0.035-1.845,0.048-2.553c0.027-1.415,0.042-2.224,0.042-2.224c0.021-1.105,0.933-1.983,2.038-1.962
				c1.078,0.02,1.941,0.894,1.962,1.962c0,0,0.015,0.809,0.042,2.224c0.013,0.708,0.03,1.567,0.048,2.553
				c-0.009,0.537-0.022,1.167-0.067,1.797c-0.098,0.632-0.144,1.31-0.339,1.988c-0.293,1.379-0.873,2.814-1.672,4.216
				c-0.801,1.402-1.873,2.764-3.221,3.908c-1.336,1.153-2.918,2.12-4.656,2.782c-0.875,0.347-1.753,0.577-2.722,0.766
				c-0.481,0.072-1.037,0.169-1.462,0.2l-1.325,0.068c-1.886-0.015-3.774-0.369-5.51-1.034c-1.738-0.662-3.319-1.629-4.656-2.782
				c-1.349-1.144-2.421-2.505-3.221-3.908c-0.799-1.402-1.379-2.837-1.672-4.216c-0.191-0.656-0.254-1.424-0.348-2.087
				c-0.032-0.322-0.024-0.558-0.037-0.83c-0.007-0.298-0.015-0.588-0.022-0.868c0.019-0.986,0.035-1.845,0.048-2.553
				c0.027-1.415,0.042-2.224,0.042-2.224c0.021-1.105,0.933-1.983,2.038-1.962C58.154,39.738,59.017,40.611,59.038,41.68z"/>
		</g>
		<g>
			<ellipse style="fill:#FFFFFF;" cx="70.413" cy="26.794" rx="29.944" ry="16.639"/>
			<path d="M102.847,27.019c0,0-0.057,0.58-0.164,1.669c-0.165,0.685-0.369,1.69-0.748,2.613c-0.206,0.438-0.427,0.909-0.664,1.411
				c-0.245,0.496-0.596,0.945-0.924,1.457c-1.387,1.973-3.471,3.931-6.106,5.577c-2.632,1.655-5.804,3.03-9.358,4.026
				c-3.555,0.99-7.487,1.647-11.662,1.84c-1.066,0.019-2.053,0.071-3.221,0.06c-1.039-0.036-2.044-0.027-3.146-0.101
				c-2.252-0.155-4.484-0.396-6.73-0.839c-4.493-0.858-9.129-2.255-13.403-4.905c-2.121-1.33-4.18-2.943-5.859-5.095l-1.151-1.724
				c-0.326-0.624-0.619-1.278-0.917-1.923c-0.231-0.682-0.414-1.394-0.604-2.096c-0.057-0.361-0.086-0.73-0.125-1.097l-0.051-0.551
				l-0.023-0.275l-0.011-0.138l-0.005-0.069c0.003-0.124-0.014,0.179,0.005-0.294l0.167-1.757c0.179-0.775,0.375-1.584,0.623-2.321
				c0.294-0.648,0.583-1.305,0.907-1.933l1.143-1.736c1.671-2.169,3.726-3.801,5.846-5.15c4.273-2.684,8.91-4.131,13.416-5.03
				c4.498-0.881,9.017-1.112,13.097-0.91c4.279,0.211,8.183,0.878,11.754,1.91c3.559,1.033,6.731,2.435,9.363,4.113
				c2.633,1.67,4.711,3.648,6.09,5.635c0.326,0.516,0.674,0.968,0.917,1.467c0.234,0.505,0.453,0.978,0.657,1.419
				c0.359,0.905,0.53,1.752,0.706,2.407c0.148,1.375,0.191,2.111,0.191,2.111L102.847,27.019z M97.857,26.794
				c0,0-0.062-0.425-0.112-1.229c-0.129-0.39-0.211-0.885-0.433-1.449c-0.129-0.279-0.268-0.579-0.416-0.899
				c-0.148-0.322-0.41-0.632-0.621-0.982c-0.946-1.36-2.496-2.888-4.666-4.264c-2.161-1.38-4.907-2.612-8.068-3.528
				c-3.149-0.919-6.77-1.527-10.501-1.714c-3.925-0.193-7.912,0.028-12.004,0.821c-4.048,0.799-8.184,2.126-11.705,4.352
				c-1.744,1.106-3.353,2.416-4.527,3.942l-0.776,1.178l-0.578,1.228c-0.108,0.37-0.186,0.698-0.327,1.043l-0.164,1.725
				c0.022-0.438,0.009-0.098,0.015-0.186l0.004,0.04l0.009,0.08l0.016,0.16l0.028,0.32c0.02,0.213,0.023,0.429,0.048,0.643
				l0.346,1.268l0.568,1.238l0.768,1.19c1.166,1.544,2.77,2.872,4.514,3.998c3.52,2.261,7.657,3.637,11.718,4.478
				c2.043,0.42,4.095,0.649,6.04,0.803c0.997,0.077,2.077,0.078,3.093,0.12c0.888,0.01,1.932-0.052,2.87-0.072
				c3.835-0.204,7.428-0.823,10.593-1.784c3.166-0.952,5.913-2.212,8.073-3.615c2.168-1.399,3.713-2.948,4.65-4.322
				c0.209-0.353,0.469-0.667,0.614-0.992c0.146-0.323,0.282-0.625,0.409-0.907c0.08-0.146,0.114-0.267,0.131-0.374
				c0.029-0.11,0.057-0.215,0.083-0.316c0.065-0.203,0.124-0.387,0.177-0.552c0.091-1.09,0.139-1.671,0.139-1.671L97.857,26.794z"/>
		</g>
	</g>
</g>
<g id="Layer_1">
</g>
</svg>
