<?xml version="1.0" encoding="iso-8859-1"?>
<!-- Generator: Adobe Illustrator 19.2.0, SVG Export Plug-In . SVG Version: 6.00 Build 0)  -->
<!DOCTYPE svg PUBLIC "-//W3C//DTD SVG 1.1//EN" "http://www.w3.org/Graphics/SVG/1.1/DTD/svg11.dtd">
<svg version="1.1" xmlns="http://www.w3.org/2000/svg" xmlns:xlink="http://www.w3.org/1999/xlink" x="0px" y="0px"
	 viewBox="0 0 140 140" style="enable-background:new 0 0 140 140;" xml:space="preserve">
<g id="mama">
	<g id="mama_3_">
		<g>
			<path style="fill:#FFFFFF;" d="M68.58,48.161c10.217,0,18.5,7.76,18.5,17.333s-8.283,17.333-18.5,17.333s-18.5-7.76-18.5-17.333
				c0,9.573-8.283,17.333-18.5,17.333s-18.5-7.76-18.5-17.333c0-9.576,7.333-17.333,22.499-17.333
				c-15.665,0-25.165-6.242-25.165-18.121c0-10.56,6-20.122,21.122-20.122h38.878c33.137,0,60,26.863,60,60v30
				c0,16.569-13.431,30-30,30h-60H32.35c-10.528,0-19.063-7.534-19.063-18.062c0-4.948,1.485-9.247,3.976-13.845
				c3.482-6.426,8.149-14.426,8.149-14.426"/>
			<path d="M68.675,46.163l1.317,0.068c0.225,0.015,0.427,0.014,0.671,0.043l0.753,0.104c0.496,0.079,1.017,0.128,1.489,0.241
				l1.412,0.346c1.853,0.557,3.678,1.266,5.33,2.299c1.647,1.028,3.198,2.237,4.503,3.697c1.298,1.461,2.411,3.096,3.245,4.883
				c0.802,1.801,1.331,3.719,1.575,5.681l0.084,1.477l0.019,0.369l0.005,0.092l0.001,0.023l-0.003,0.129l-0.002,0.041l-0.007,0.165
				l-0.028,0.659c0.008,0.811-0.184,1.923-0.344,2.941c-0.432,1.934-1.149,3.796-2.121,5.518c-0.991,1.713-2.262,3.242-3.688,4.595
				c-1.432,1.356-3.094,2.438-4.837,3.339c-1.756,0.892-3.656,1.45-5.574,1.841c-0.969,0.148-1.938,0.31-2.918,0.316l-0.733,0.031
				l-0.183,0.007l-0.046,0.002l-0.149-0.003l-0.082-0.004l-0.329-0.017l-1.318-0.066c-0.467-0.039-1.009-0.129-1.509-0.197
				l-0.764-0.114L63.728,84.5c-0.475-0.121-0.956-0.22-1.425-0.364l-1.392-0.481c-1.819-0.727-3.593-1.619-5.148-2.835
				c-1.552-1.207-2.976-2.596-4.133-4.203c-1.147-1.61-2.067-3.386-2.685-5.273c-0.579-1.9-0.862-3.876-0.866-5.849l0-0.121
				c-0.002-1.106,0.892-2.004,1.998-2.007c1.106-0.003,2.004,0.892,2.007,1.998c0,0.042-0.001,0.089-0.004,0.13l0,0.004
				c0.02,2.062-0.28,4.136-0.908,6.118c-0.613,1.993-1.658,3.825-2.89,5.488c-1.237,1.667-2.747,3.129-4.449,4.308
				c-1.698,1.177-3.55,2.162-5.527,2.782c-1.966,0.625-4.017,1.062-6.085,1.1l-0.387,0.021l-0.194,0.01l-0.048,0.003l-0.163-0.004
				l-0.086-0.004l-0.689-0.029l-0.689-0.029c-0.224-0.006-0.455-0.017-0.742-0.06l-1.629-0.221c-0.535-0.086-1.02-0.226-1.531-0.339
				c-2.006-0.523-3.977-1.268-5.758-2.367c-1.784-1.08-3.448-2.391-4.839-3.974c-1.38-1.589-2.525-3.388-3.366-5.333
				c-0.86-1.94-1.302-4.054-1.457-6.16l-0.039-0.793l-0.018-0.397l-0.004-0.099l0.003-0.169l0.003-0.043l0.011-0.172l0.085-1.376
				c0.134-1.029,0.285-2.231,0.594-3.204c0.555-2.037,1.446-4.024,2.725-5.727c1.264-1.701,2.782-3.218,4.513-4.367
				c1.724-1.141,3.563-2.089,5.475-2.697c1.895-0.687,3.847-1.048,5.787-1.322c0.971-0.108,1.941-0.167,2.91-0.249l2.893-0.032v4
				l-0.007,0c-4.374,0.082-8.856-0.245-13.247-1.575c-2.178-0.719-4.352-1.606-6.349-2.945c-1.984-1.343-3.77-3.089-5.124-5.157
				c-1.386-2.058-2.193-4.451-2.599-6.812c-0.252-1.191-0.262-2.372-0.336-3.559l0.051-1.687c-0.002-0.493,0.098-1.165,0.154-1.75
				c0.292-2.387,0.834-4.653,1.8-6.87c0.972-2.194,2.335-4.254,4.045-5.994c0.446-0.415,0.85-0.881,1.338-1.245l1.446-1.116
				c1.029-0.634,2.051-1.298,3.159-1.752c1.076-0.551,2.219-0.853,3.339-1.243l1.71-0.394l0.856-0.191l0.858-0.116l1.718-0.219
				c0.572-0.059,1.14-0.059,1.71-0.09c0.561-0.019,1.159-0.056,1.69-0.057l1.589-0.001l6.356-0.006l25.424-0.016l3.178,0.003
				l1.589,0.001l0.859,0.009l0.794,0.021c1.059,0.028,2.099,0.039,3.249,0.147c1.126,0.079,2.25,0.165,3.335,0.325
				c4.382,0.546,8.707,1.559,12.877,3.017c8.35,2.898,16.035,7.639,22.418,13.733c6.386,6.087,11.523,13.504,14.838,21.696
				c1.667,4.088,2.899,8.355,3.666,12.703c0.215,1.084,0.357,2.178,0.489,3.274c0.162,1.093,0.232,2.194,0.316,3.295
				c0.166,2.194,0.167,4.445,0.169,6.524l0.015,25.424l0.001,1.589l-0.003,0.923l-0.04,0.794l-0.079,1.587
				c-0.018,0.27-0.015,0.516-0.051,0.806l-0.127,0.887c-0.181,1.176-0.315,2.391-0.642,3.476l-0.43,1.671
				c-0.136,0.559-0.374,1.087-0.558,1.631c-1.549,4.33-4.03,8.317-7.215,11.629c-3.172,3.328-7.082,5.944-11.363,7.632
				c-2.142,0.835-4.364,1.488-6.636,1.839c-1.136,0.179-2.272,0.368-3.423,0.383l-1.721,0.084c-0.568,0.023-1.07,0.006-1.608,0.011
				l-25.424-0.015l-25.424-0.015l-12.712-0.008l-3.291-0.006l-1.587-0.072c-0.247-0.002-0.558-0.04-0.872-0.083l-0.929-0.122
				c-2.42-0.37-4.67-1.069-6.832-2.144c-4.29-2.138-7.849-5.871-9.683-10.376c-0.938-2.239-1.428-4.655-1.482-7.047
				c-0.009-0.312-0.04-0.571-0.03-0.926l0.021-0.797c0.032-0.616,0.075-1.223,0.141-1.795c0.131-1.163,0.341-2.316,0.62-3.444
				c0.555-2.262,1.4-4.405,2.376-6.422c0.488-1.015,1.004-1.984,1.579-2.946l1.611-2.74c2.14-3.658,4.314-7.297,6.529-10.913
				l0.004-0.006c0.577-0.942,1.809-1.239,2.752-0.661c0.9,0.551,1.207,1.705,0.731,2.628c-1.953,3.763-3.948,7.503-5.976,11.224
				l-1.515,2.794c-0.481,0.875-0.93,1.794-1.354,2.691c-0.843,1.807-1.528,3.641-1.955,5.504c-0.216,0.931-0.372,1.869-0.466,2.813
				c-0.049,0.482-0.071,0.932-0.092,1.374l-0.01,0.791c-0.004,0.174,0.022,0.444,0.03,0.661c0.039,1.842,0.414,3.653,1.119,5.32
				c1.375,3.348,4.012,6.143,7.311,7.788c1.632,0.816,3.478,1.373,5.243,1.643l0.646,0.091c0.21,0.034,0.424,0.068,0.707,0.072
				l1.587,0.07l3.065-0.003l12.712-0.008l25.424-0.015l25.424-0.015c0.521-0.006,1.079,0.011,1.569-0.013l1.453-0.077
				c0.974-0.006,1.929-0.175,2.886-0.326c1.915-0.293,3.78-0.853,5.583-1.55c3.604-1.413,6.907-3.613,9.584-6.42
				c2.689-2.793,4.784-6.153,6.093-9.796c0.154-0.459,0.365-0.9,0.475-1.372l0.361-1.407c0.293-0.948,0.366-1.85,0.526-2.764
				l0.113-0.684c0.034-0.235,0.033-0.521,0.051-0.779l0.081-1.587l0.041-0.793c-0.006,0.224-0.002,0.005-0.003,0.029l0-0.099
				l0-0.199l0-0.397l0.001-1.589l0.015-25.424c0-2.156,0-4.148-0.15-6.18c-0.076-1.012-0.137-2.026-0.287-3.031
				c-0.121-1.008-0.248-2.015-0.446-3.011c-0.7-3.997-1.827-7.918-3.355-11.678c-3.038-7.529-7.748-14.375-13.644-19.959
				c-5.884-5.598-12.96-9.943-20.633-12.588c-3.832-1.332-7.805-2.254-11.831-2.748c-1.013-0.149-2.002-0.219-2.99-0.289
				c-0.96-0.097-2.039-0.109-3.099-0.135l-0.794-0.019l-0.73-0.006l-1.589,0.001l-3.178,0.003l-25.424-0.016l-6.356-0.006
				l-1.589-0.001c-0.528,0-0.988,0.036-1.486,0.05c-0.487,0.026-0.981,0.021-1.462,0.071l-1.434,0.183l-0.717,0.091l-0.694,0.158
				l-1.388,0.312c-0.875,0.318-1.799,0.541-2.611,0.97c-0.864,0.342-1.615,0.852-2.397,1.314l-1.07,0.827
				c-0.368,0.263-0.652,0.618-0.986,0.918c-1.259,1.28-2.277,2.797-3.029,4.475c-0.741,1.668-1.191,3.567-1.418,5.378
				c-0.041,0.469-0.131,0.845-0.133,1.413l-0.052,1.489c0.057,0.927,0.035,1.874,0.223,2.764c0.285,1.799,0.834,3.529,1.81,5.006
				c0.946,1.493,2.225,2.771,3.714,3.85c1.497,1.079,3.257,1.865,5.074,2.532c3.706,1.212,7.746,1.806,11.835,1.912l0.007,0
				c1.104,0,1.999,0.895,1.999,1.999c0,1.064-0.832,1.934-1.88,1.995l-0.118,0.007l-2.618,0.148
				c-0.858,0.116-1.722,0.206-2.572,0.338c-1.682,0.331-3.353,0.697-4.903,1.303c-1.583,0.543-3.014,1.355-4.328,2.267
				c-1.317,0.919-2.39,2.086-3.285,3.346c-0.905,1.261-1.498,2.714-1.867,4.223c-0.226,0.79-0.262,1.428-0.37,2.216l-0.049,1.378
				l-0.006,0.172l-0.002,0.043l-0.001,0.022c0.006-0.239,0.003-0.056,0.004-0.104l0.005,0.073l0.019,0.292l0.036,0.583
				c0.136,1.545,0.458,3.086,1.113,4.505c0.637,1.421,1.496,2.745,2.536,3.925c1.063,1.161,2.296,2.169,3.643,3.006
				c1.34,0.856,2.847,1.432,4.383,1.854c0.385,0.087,0.784,0.211,1.155,0.272l1.1,0.17c0.166,0.038,0.393,0.051,0.629,0.061
				l0.688,0.036l0.688,0.036l0.086,0.005l0.022,0.001c0.113,0.003-0.13-0.003-0.098-0.002l0.038-0.002l0.151-0.006l0.301-0.011
				c1.614,0.02,3.207-0.296,4.746-0.736c1.549-0.436,2.997-1.174,4.336-2.05c0.685-0.424,1.291-0.947,1.916-1.453
				c0.566-0.565,1.158-1.11,1.644-1.748c0.998-1.245,1.849-2.624,2.405-4.124c0.56-1.497,0.879-3.082,0.956-4.699l0-0.003h4
				c0.062,1.547,0.333,3.07,0.823,4.526c0.539,1.44,1.28,2.797,2.19,4.04c0.924,1.237,2.067,2.302,3.301,3.232
				c1.241,0.932,2.641,1.634,4.084,2.2l1.104,0.375c0.372,0.113,0.756,0.183,1.133,0.279l0.567,0.136l0.542,0.073
				c0.372,0.045,0.697,0.117,1.106,0.151l1.318,0.058l0.329,0.015l0.082,0.004l0.021,0.001c0.03,0.001-0.189-0.005-0.087-0.003
				l0.037-0.002l0.146-0.008l0.585-0.031c0.783-0.009,1.552-0.134,2.324-0.24c1.522-0.304,3.036-0.72,4.427-1.417
				c1.389-0.683,2.731-1.496,3.881-2.54c1.145-1.04,2.171-2.218,2.975-3.536c0.783-1.329,1.371-2.762,1.746-4.256
				c0.105-0.721,0.293-1.333,0.313-2.288l0.043-0.658l0.011-0.165l0.003-0.041c0.003-0.103-0.002,0.117-0.002,0.088l-0.001-0.018
				l-0.004-0.072l-0.017-0.289l-0.058-1.157c-0.192-1.533-0.6-3.032-1.221-4.452c-0.654-1.407-1.534-2.705-2.564-3.878
				c-1.038-1.172-2.29-2.145-3.616-2.984c-1.332-0.844-2.817-1.422-4.329-1.86l-1.153-0.272c-0.383-0.09-0.744-0.109-1.115-0.172
				l-0.553-0.083c-0.192-0.024-0.432-0.023-0.645-0.036l-1.318-0.057c-1.104-0.047-1.96-0.98-1.912-2.084
				c0.047-1.104,0.98-1.96,2.084-1.912L68.675,46.163z"/>
		</g>
		
			<line style="fill:none;stroke:#000000;stroke-width:3.5;stroke-linecap:round;stroke-linejoin:round;stroke-miterlimit:10;" x1="27.405" y1="26.495" x2="61.696" y2="21.336"/>
		
			<line style="fill:none;stroke:#000000;stroke-width:3.5;stroke-linecap:round;stroke-linejoin:round;stroke-miterlimit:10;" x1="32.464" y1="34.037" x2="66.754" y2="28.879"/>
		<ellipse transform="matrix(0.9031 -0.4295 0.4295 0.9031 -41.2225 32.0956)" cx="50.496" cy="107.375" rx="3.534" ry="2.615"/>
	</g>
</g>
<g id="Layer_1">
</g>
</svg>
