<?xml version="1.0" encoding="iso-8859-1"?>
<!-- Generator: Adobe Illustrator 19.2.0, SVG Export Plug-In . SVG Version: 6.00 Build 0)  -->
<!DOCTYPE svg PUBLIC "-//W3C//DTD SVG 1.1//EN" "http://www.w3.org/Graphics/SVG/1.1/DTD/svg11.dtd">
<svg version="1.1" xmlns="http://www.w3.org/2000/svg" xmlns:xlink="http://www.w3.org/1999/xlink" x="0px" y="0px"
	 viewBox="0 0 140 140" style="enable-background:new 0 0 140 140;" xml:space="preserve">
<g id="tenpo">
	<g id="tenpo_1_">
		<path style="fill:#FFFFFF;stroke:#000000;stroke-width:5;stroke-miterlimit:10;" d="M130.413,99.919c0,16.569-13.431,30-30,30h-60
			c-16.569,0-30-13.431-30-30v-60c0-16.569,13.431-30,30-30h60c16.569,0,30,13.431,30,30V99.919z"/>
		<g>
			<path d="M10.413,53.544c0,0,1.089-0.035,2.996-0.097c1.906-0.04,4.63-0.139,7.898-0.184c0.234-0.002,0.471-0.005,0.71-0.007
				c0.208,0.007,0.419,0.015,0.631,0.022c0.436,0.023,0.82,0.004,1.371,0.093c1.061,0.111,2.056,0.337,3.064,0.631
				c2.015,0.617,4.034,1.67,5.781,3.18c1.753,1.496,3.254,3.415,4.294,5.611c1.045,2.192,1.617,4.659,1.63,7.126l-0.048,0.917
				c-0.021,0.281-0.018,0.523-0.058,0.836c-0.101,0.638-0.172,1.314-0.322,1.914c-0.287,1.196-0.667,2.369-1.203,3.459
				c-1.04,2.196-2.541,4.114-4.294,5.611c-1.748,1.509-3.766,2.562-5.781,3.18c-1.012,0.297-2.014,0.519-2.998,0.624
				c-0.488,0.086-0.975,0.077-1.451,0.101c-0.238,0.008-0.473,0.016-0.706,0.024c-0.209-0.003-0.416-0.006-0.621-0.009
				c-3.268-0.045-5.991-0.143-7.898-0.184c-1.906-0.062-2.996-0.097-2.996-0.097v-3c0,0,1.089-0.035,2.996-0.097
				c1.906-0.04,4.63-0.139,7.898-0.184c0.204-0.003,0.41-0.007,0.618-0.01c0.183-0.013,0.368-0.027,0.555-0.04
				c0.372-0.033,0.756-0.028,1.134-0.114c0.767-0.105,1.54-0.307,2.318-0.558c1.549-0.528,3.067-1.4,4.41-2.565
				c1.339-1.169,2.476-2.659,3.255-4.347c0.404-0.838,0.679-1.738,0.892-2.652c0.11-0.453,0.133-0.866,0.218-1.3
				c0.032-0.225,0.03-0.531,0.047-0.792l0.034-0.715c0.008-1.893-0.41-3.773-1.192-5.459c-0.778-1.688-1.916-3.178-3.255-4.347
				c-1.343-1.165-2.861-2.037-4.41-2.565c-0.782-0.254-1.561-0.451-2.252-0.551c-0.316-0.084-0.803-0.089-1.214-0.122
				c-0.212-0.014-0.422-0.028-0.63-0.042c-0.178-0.003-0.354-0.005-0.528-0.008c-3.268-0.045-5.991-0.143-7.898-0.184
				c-1.906-0.062-2.996-0.097-2.996-0.097V53.544z"/>
		</g>
		<g>
			<path d="M86.788,9.919c0,0,0.035,1.089,0.097,2.996c0.04,1.906,0.139,4.63,0.184,7.898c0.002,0.234,0.005,0.471,0.007,0.71
				c-0.007,0.208-0.015,0.419-0.022,0.631c-0.023,0.436-0.004,0.82-0.093,1.371c-0.111,1.061-0.337,2.056-0.631,3.064
				c-0.617,2.015-1.67,4.034-3.18,5.781c-1.496,1.753-3.415,3.254-5.611,4.294c-2.192,1.045-4.659,1.617-7.126,1.63l-0.917-0.048
				c-0.281-0.021-0.523-0.018-0.836-0.058c-0.638-0.101-1.314-0.172-1.914-0.322c-1.196-0.287-2.369-0.667-3.459-1.203
				c-2.196-1.04-4.114-2.541-5.611-4.294c-1.509-1.748-2.562-3.766-3.18-5.781c-0.297-1.012-0.519-2.014-0.624-2.998
				c-0.086-0.488-0.077-0.975-0.101-1.451c-0.008-0.238-0.016-0.473-0.024-0.706c0.003-0.209,0.006-0.416,0.009-0.621
				c0.045-3.268,0.143-5.991,0.184-7.898c0.062-1.906,0.097-2.996,0.097-2.996h3c0,0,0.035,1.089,0.097,2.996
				c0.04,1.906,0.139,4.63,0.184,7.898c0.003,0.204,0.007,0.41,0.01,0.618c0.013,0.183,0.027,0.368,0.04,0.555
				c0.033,0.372,0.028,0.756,0.114,1.134c0.105,0.767,0.307,1.54,0.558,2.318c0.528,1.549,1.4,3.067,2.565,4.41
				c1.169,1.339,2.659,2.476,4.347,3.255c0.838,0.404,1.738,0.679,2.652,0.892c0.453,0.11,0.866,0.133,1.3,0.218
				c0.225,0.032,0.531,0.03,0.792,0.047l0.715,0.034c1.893,0.008,3.773-0.41,5.459-1.192c1.688-0.778,3.178-1.916,4.347-3.255
				c1.165-1.343,2.037-2.861,2.565-4.41c0.254-0.782,0.451-1.561,0.551-2.252c0.084-0.316,0.089-0.803,0.122-1.214
				c0.014-0.212,0.028-0.422,0.042-0.63c0.003-0.178,0.005-0.354,0.008-0.528c0.045-3.268,0.143-5.991,0.184-7.898
				c0.062-1.906,0.097-2.996,0.097-2.996H86.788z"/>
		</g>
		<g>
			<g>
				<path d="M130.413,86.294c0,0-1.089,0.035-2.996,0.097c-1.906,0.04-4.63,0.139-7.898,0.184c-0.234,0.002-0.471,0.005-0.71,0.007
					c-0.208-0.007-0.419-0.015-0.631-0.022c-0.436-0.023-0.82-0.004-1.371-0.093c-1.061-0.111-2.056-0.337-3.064-0.631
					c-2.015-0.617-4.034-1.67-5.781-3.18c-1.753-1.496-3.254-3.415-4.294-5.611c-0.535-1.091-0.915-2.264-1.203-3.459
					c-0.149-0.597-0.21-1.213-0.314-1.821c-0.041-0.305-0.043-0.615-0.065-0.922l-0.025-0.462l-0.012-0.231l-0.006-0.116
					l-0.003-0.058l-0.001-0.029l0.001-0.13c0.036-0.553,0.048-1.067,0.103-1.652c0.101-0.638,0.172-1.314,0.322-1.914
					c0.287-1.196,0.667-2.369,1.203-3.459c1.04-2.196,2.541-4.114,4.294-5.611c1.748-1.509,3.766-2.562,5.781-3.18
					c1.012-0.297,2.014-0.519,2.998-0.624c0.488-0.086,0.975-0.077,1.451-0.101c0.238-0.008,0.473-0.016,0.706-0.024
					c0.209,0.003,0.416,0.006,0.621,0.009c3.268,0.045,5.991,0.143,7.898,0.184c1.906,0.062,2.996,0.097,2.996,0.097v3
					c0,0-1.089,0.035-2.996,0.097c-1.906,0.04-4.63,0.139-7.898,0.184c-0.204,0.003-0.41,0.007-0.618,0.01
					c-0.183,0.013-0.368,0.027-0.555,0.04c-0.372,0.033-0.756,0.028-1.134,0.114c-0.767,0.105-1.54,0.307-2.318,0.558
					c-1.549,0.528-3.067,1.4-4.41,2.565c-1.339,1.169-2.476,2.659-3.255,4.347c-0.404,0.838-0.679,1.738-0.892,2.652
					c-0.11,0.453-0.133,0.866-0.218,1.3c-0.044,0.497-0.055,1.075-0.084,1.609c0.005-0.195,0.002-0.041,0.004-0.079l0.001,0.022
					l0.002,0.044l0.004,0.088l0.009,0.177l0.016,0.354c0.015,0.235,0.009,0.473,0.039,0.707c0.082,0.463,0.115,0.937,0.226,1.393
					c0.213,0.914,0.488,1.814,0.892,2.652c0.778,1.688,1.916,3.178,3.255,4.347c1.343,1.165,2.861,2.037,4.41,2.565
					c0.782,0.254,1.561,0.451,2.252,0.551c0.316,0.084,0.803,0.089,1.214,0.122c0.212,0.014,0.422,0.028,0.63,0.042
					c0.178,0.003,0.354,0.005,0.528,0.008c3.268,0.045,5.991,0.143,7.898,0.184c1.906,0.062,2.996,0.097,2.996,0.097V86.294z"/>
			</g>
			<g>
				<path d="M54.038,129.919c0,0-0.035-1.089-0.097-2.996c-0.04-1.906-0.139-4.63-0.184-7.898c-0.002-0.234-0.005-0.471-0.007-0.71
					c0.007-0.208,0.015-0.419,0.022-0.631c0.023-0.436,0.004-0.82,0.093-1.371c0.111-1.061,0.337-2.056,0.631-3.064
					c0.617-2.015,1.67-4.034,3.18-5.781c1.496-1.753,3.415-3.254,5.611-4.294c2.192-1.045,4.659-1.617,7.126-1.63l0.917,0.048
					c0.281,0.021,0.523,0.018,0.836,0.058c0.638,0.101,1.314,0.172,1.914,0.322c1.196,0.287,2.369,0.667,3.459,1.203
					c2.196,1.04,4.114,2.541,5.611,4.294c1.509,1.748,2.562,3.766,3.18,5.781c0.297,1.012,0.519,2.014,0.624,2.998
					c0.086,0.488,0.077,0.975,0.101,1.451c0.008,0.238,0.016,0.473,0.024,0.706c-0.003,0.209-0.006,0.416-0.009,0.621
					c-0.045,3.268-0.143,5.991-0.184,7.898c-0.062,1.906-0.097,2.996-0.097,2.996h-3c0,0-0.035-1.089-0.097-2.996
					c-0.04-1.906-0.139-4.63-0.184-7.898c-0.003-0.204-0.007-0.41-0.01-0.618c-0.013-0.183-0.027-0.368-0.04-0.555
					c-0.033-0.372-0.028-0.756-0.114-1.134c-0.105-0.767-0.307-1.54-0.558-2.318c-0.528-1.549-1.4-3.067-2.565-4.41
					c-1.169-1.339-2.659-2.476-4.347-3.255c-0.838-0.404-1.738-0.679-2.652-0.892c-0.453-0.11-0.866-0.133-1.3-0.218
					c-0.225-0.032-0.531-0.03-0.792-0.047l-0.715-0.034c-1.893-0.008-3.773,0.41-5.459,1.192c-1.688,0.778-3.178,1.916-4.347,3.255
					c-1.165,1.343-2.037,2.861-2.565,4.41c-0.254,0.782-0.451,1.561-0.551,2.252c-0.084,0.316-0.089,0.803-0.123,1.214
					c-0.014,0.212-0.028,0.422-0.042,0.63c-0.003,0.178-0.005,0.354-0.008,0.528c-0.045,3.268-0.143,5.991-0.184,7.898
					c-0.062,1.906-0.097,2.996-0.097,2.996H54.038z"/>
			</g>
		</g>
		<circle style="fill:#FFFFFF;stroke:#000000;stroke-width:4;stroke-miterlimit:10;" cx="70.413" cy="69.919" r="18.5"/>
	</g>
</g>
<g id="Layer_1">
</g>
</svg>
