<?xml version="1.0" encoding="iso-8859-1"?>
<!-- Generator: Adobe Illustrator 19.2.0, SVG Export Plug-In . SVG Version: 6.00 Build 0)  -->
<!DOCTYPE svg PUBLIC "-//W3C//DTD SVG 1.1//EN" "http://www.w3.org/Graphics/SVG/1.1/DTD/svg11.dtd">
<svg version="1.1" xmlns="http://www.w3.org/2000/svg" xmlns:xlink="http://www.w3.org/1999/xlink" x="0px" y="0px"
	 viewBox="0 0 125.132 124.814" style="enable-background:new 0 0 125.132 124.814;" xml:space="preserve">
<g id="mu">
	<g id="mu_1_">
		<g>
			<path style="fill:#FFFFFF;" d="M55.425,19.314c5.214,0.797,8.862,4.96,8.073,9.401c-0.906,5.099-5.525,7.563-10.739,6.766"/>
			<path d="M55.714,17.842c0,0,0.109,0.012,0.314,0.034c0.223,0.037,0.463,0.021,0.927,0.13c0.459,0.095,1.011,0.224,1.582,0.423
				c0.585,0.192,1.238,0.459,1.903,0.85c0.675,0.373,1.362,0.871,2.04,1.469c0.664,0.616,1.311,1.349,1.834,2.229
				c0.511,0.885,0.931,1.889,1.135,2.979c0.192,1.113,0.187,2.192-0.047,3.389l-0.151,0.638c-0.05,0.214-0.169,0.539-0.256,0.801
				c-0.181,0.578-0.429,1.018-0.667,1.509c-0.525,0.943-1.22,1.767-1.971,2.463c-0.769,0.68-1.616,1.191-2.447,1.57
				c-0.836,0.364-1.652,0.617-2.411,0.757c-0.757,0.158-1.459,0.198-2.07,0.198c-0.614,0.007-1.139-0.041-1.569-0.087
				c-0.432-0.033-0.758-0.129-0.985-0.163c-0.225-0.044-0.345-0.067-0.345-0.067c-0.813-0.159-1.343-0.947-1.184-1.759
				c0.144-0.736,0.803-1.24,1.53-1.211l0.108,0.004c0,0,0.393,0.015,1.061,0.009c0.334-0.007,0.737-0.021,1.188-0.087
				c0.451-0.059,0.949-0.16,1.468-0.303c0.523-0.137,1.055-0.358,1.577-0.634c0.518-0.286,0.998-0.66,1.452-1.074
				c0.431-0.439,0.809-0.944,1.118-1.51c0.125-0.287,0.306-0.609,0.371-0.869c0.044-0.153,0.098-0.231,0.146-0.443l0.143-0.64
				c0.093-0.519,0.14-1.211,0.036-1.797c-0.118-0.603-0.315-1.194-0.6-1.742c-0.303-0.539-0.669-1.038-1.068-1.483
				c-0.418-0.428-0.853-0.812-1.306-1.11c-0.446-0.304-0.886-0.554-1.29-0.753c-0.415-0.21-0.756-0.335-1.036-0.441
				c-0.269-0.112-0.631-0.19-0.806-0.249c-0.198-0.057-0.303-0.087-0.303-0.087c-0.799-0.231-1.26-1.065-1.029-1.864
				C54.312,18.209,55.001,17.765,55.714,17.842z"/>
		</g>
		<g>
			<path style="fill:#FFFFFF;" d="M52.758,35.481c5.214,0.797,8.456,5.393,7.667,9.833c-0.906,5.099-6.286,7.131-11.5,6.333"/>
			<path d="M53.056,34.011c0,0,0.111,0.013,0.319,0.036c0.104,0.012,0.232,0.026,0.383,0.044c0.144,0.011,0.321,0.037,0.571,0.103
				c0.236,0.059,0.498,0.123,0.782,0.194c0.271,0.082,0.545,0.185,0.848,0.291c0.599,0.224,1.258,0.541,1.923,0.982
				c0.667,0.437,1.347,0.988,1.975,1.669c0.647,0.665,1.202,1.492,1.665,2.406c0.456,0.92,0.777,1.957,0.922,3.043
				c0.164,1.073,0.076,2.258-0.137,3.291c-0.259,1.143-0.701,2.179-1.338,3.122c-0.63,0.935-1.439,1.706-2.283,2.302
				c-0.842,0.608-1.743,1.007-2.594,1.308c-0.857,0.292-1.679,0.47-2.436,0.576c-1.517,0.21-2.769,0.092-3.625-0.006
				c-0.859-0.115-1.334-0.241-1.334-0.241l-0.033-0.009c-0.803-0.214-1.281-1.039-1.067-1.842c0.188-0.707,0.85-1.162,1.554-1.115
				c0,0,0.403,0.027,1.098,0.024c0.693,0.007,1.685-0.072,2.803-0.313c1.115-0.236,2.35-0.726,3.35-1.507
				c0.504-0.384,0.934-0.852,1.273-1.377c0.342-0.51,0.595-1.147,0.722-1.74c0.131-0.707,0.205-1.321,0.109-1.987
				c-0.09-0.647-0.239-1.288-0.503-1.876c-0.28-0.575-0.579-1.135-0.966-1.602c-0.371-0.478-0.791-0.88-1.215-1.211
				c-0.428-0.325-0.848-0.596-1.239-0.812c-0.199-0.1-0.386-0.195-0.558-0.281c-0.164-0.067-0.315-0.128-0.451-0.183
				c-0.12-0.06-0.282-0.108-0.436-0.15c-0.146-0.043-0.269-0.079-0.37-0.109c-0.201-0.059-0.308-0.091-0.308-0.091
				c-0.798-0.235-1.254-1.072-1.019-1.869C51.651,34.369,52.343,33.929,53.056,34.011z"/>
		</g>
		<g>
			<path style="fill:#FFFFFF;" d="M49.092,51.647c5.214,0.797,8.789,4.893,8,9.333c-0.906,5.099-5.286,7.797-10.5,7"/>
			<path d="M49.38,50.175c0,0,0.108,0.011,0.312,0.033c0.221,0.036,0.462,0.021,0.921,0.128c0.455,0.093,1.005,0.22,1.573,0.417
				c0.582,0.189,1.233,0.452,1.897,0.84c0.674,0.369,1.36,0.866,2.036,1.463c0.664,0.614,1.306,1.35,1.825,2.23
				c0.506,0.886,0.916,1.892,1.111,2.977c0.188,1.105,0.168,2.186-0.059,3.353l-0.148,0.635c-0.051,0.216-0.162,0.529-0.245,0.787
				c-0.17,0.564-0.407,1.004-0.628,1.489c-0.496,0.935-1.146,1.771-1.861,2.49c-0.739,0.697-1.552,1.255-2.373,1.66
				c-0.821,0.401-1.634,0.68-2.392,0.842c-0.757,0.178-1.462,0.233-2.076,0.242c-0.617,0.017-1.144-0.027-1.576-0.071
				c-0.434-0.03-0.76-0.127-0.988-0.16c-0.225-0.044-0.345-0.067-0.345-0.067c-0.813-0.157-1.344-0.943-1.187-1.756
				c0.142-0.736,0.8-1.241,1.527-1.214l0.114,0.004c0,0,0.388,0.014,1.045,0.004c0.328-0.01,0.724-0.027,1.165-0.099
				c0.441-0.064,0.925-0.175,1.43-0.328c0.507-0.15,1.022-0.381,1.522-0.675c0.502-0.295,0.953-0.696,1.395-1.122
				c0.414-0.458,0.775-0.983,1.078-1.564c0.121-0.296,0.296-0.623,0.362-0.894c0.044-0.156,0.097-0.246,0.145-0.453l0.14-0.637
				c0.095-0.538,0.149-1.217,0.046-1.803c-0.112-0.6-0.302-1.185-0.58-1.728c-0.59-1.069-1.44-1.981-2.344-2.565
				c-0.443-0.3-0.88-0.548-1.282-0.745c-0.413-0.208-0.752-0.331-1.032-0.437c-0.27-0.111-0.628-0.189-0.803-0.247
				c-0.196-0.057-0.301-0.087-0.301-0.087c-0.799-0.231-1.26-1.065-1.029-1.864C47.98,50.543,48.667,50.099,49.38,50.175z"/>
		</g>
		<g>
			<path style="fill:#FFFFFF;" d="M85.099,22.023c-5.228-0.706-10.174,3.615-10.174,8.125c0,5.167,4.939,7.432,10.167,8.138"/>
			<path d="M84.942,23.514c0,0-0.113-0.003-0.326-0.007c-0.257-0.011-0.383,0.016-0.736,0.04c-0.643,0.042-1.551,0.25-2.558,0.696
				c-1.008,0.44-2.084,1.223-2.939,2.259c-0.855,1.03-1.45,2.338-1.455,3.564l-0.002,0.057c-0.001-0.017,0,0.078-0.002-0.03
				l0.001,0.042l0.004,0.169c0.004,0.098,0.002,0.259,0.012,0.305c0.012,0.129,0.022,0.266,0.051,0.434
				c0.053,0.314,0.123,0.618,0.236,0.899c0.219,0.565,0.534,1.084,0.96,1.543c0.848,0.919,2.036,1.623,3.141,2.078
				c1.11,0.456,2.113,0.778,2.829,0.952c0.721,0.179,1.134,0.282,1.134,0.282c0.809,0.199,1.304,1.016,1.104,1.826
				c-0.172,0.701-0.813,1.165-1.506,1.148c0,0-0.478-0.013-1.318-0.113c-0.835-0.117-2.049-0.271-3.483-0.751
				c-1.414-0.49-3.153-1.199-4.687-2.716c-0.753-0.754-1.444-1.706-1.868-2.802c-0.222-0.543-0.37-1.114-0.472-1.684
				c-0.051-0.275-0.086-0.587-0.111-0.907c-0.017-0.177-0.012-0.243-0.019-0.371l-0.006-0.169l-0.001-0.157l0.004-0.112
				c0.059-2.415,1.164-4.54,2.532-6.035c1.374-1.525,3.046-2.478,4.554-3.021c1.519-0.549,2.894-0.614,3.825-0.578
				c0.437,0.01,0.932,0.081,1.095,0.116c0.209,0.04,0.32,0.061,0.32,0.061c0.817,0.155,1.353,0.943,1.198,1.759
				C86.315,23.024,85.665,23.531,84.942,23.514z"/>
		</g>
		<g>
			<path style="fill:#FFFFFF;" d="M85.092,38.285c-5.228-0.706-10.671,3.379-11.167,7.862c-0.569,5.147,4.606,8.341,9.833,9.047"/>
			<path d="M84.933,39.777c0,0-0.117-0.003-0.336-0.009c-0.256-0.009-0.399,0.014-0.77,0.037c-0.674,0.038-1.634,0.249-2.72,0.684
				c-1.086,0.431-2.27,1.196-3.269,2.219c-0.995,1.015-1.774,2.334-1.915,3.594c-0.005,0.012-0.048,0.464-0.041,0.544
				c-0.004,0.12-0.002,0.268,0.01,0.438c0.026,0.319,0.078,0.631,0.168,0.932c0.188,0.597,0.479,1.172,0.893,1.688
				c0.82,1.037,1.983,1.862,3.073,2.402c1.096,0.542,2.091,0.912,2.804,1.103c0.712,0.204,1.13,0.297,1.13,0.297
				c0.811,0.181,1.322,0.986,1.141,1.798c-0.16,0.715-0.803,1.196-1.509,1.177l-0.033-0.001c0,0-0.509-0.014-1.394-0.145
				c-0.879-0.145-2.152-0.376-3.609-0.982c-1.437-0.613-3.154-1.508-4.588-3.168c-0.706-0.824-1.336-1.839-1.696-2.997
				c-0.182-0.576-0.295-1.179-0.35-1.784c-0.025-0.293-0.038-0.609-0.027-0.955c0.014-0.385,0.013-0.399,0.062-0.848
				c0.335-2.471,1.681-4.47,3.176-5.87c1.508-1.423,3.234-2.292,4.776-2.795c1.551-0.505,2.942-0.567,3.894-0.526
				c0.445,0.011,0.943,0.084,1.12,0.119c0.215,0.041,0.33,0.062,0.33,0.062c0.817,0.154,1.354,0.941,1.2,1.757
				C86.312,39.287,85.658,39.796,84.933,39.777z"/>
		</g>
		<g>
			<path style="fill:#FFFFFF;" d="M83.758,55.147c-5.228-0.706-11.005,2.184-11.5,6.667c-0.569,5.147,2.918,8.857,8.146,9.562"/>
			<path d="M83.589,56.638c0,0-0.112-0.003-0.323-0.01c-0.244-0.013-0.422,0.008-0.784,0.016c-0.682,0.018-1.659,0.151-2.776,0.458
				c-1.113,0.305-2.363,0.869-3.419,1.693c-1.056,0.822-1.855,1.913-2.013,3.048l-0.015,0.107l-0.008,0.053l-0.004,0.027
				c-0.002,0.022,0.015-0.175,0.007-0.086l-0.001,0.01l-0.001,0.021l-0.023,0.335c-0.011,0.21-0.042,0.477-0.036,0.639
				c0.018,0.3,0.009,0.595,0.071,0.946c0.098,0.667,0.258,1.307,0.544,1.869c0.277,0.563,0.605,1.088,1.012,1.524
				c0.387,0.453,0.845,0.814,1.291,1.124c0.459,0.293,0.906,0.543,1.324,0.74c0.419,0.195,0.804,0.336,1.13,0.436
				c0.319,0.116,0.589,0.167,0.766,0.223c0.179,0.05,0.275,0.077,0.275,0.077l0.142,0.04c0.797,0.223,1.262,1.049,1.039,1.846
				c-0.198,0.708-0.874,1.154-1.582,1.088c0,0-0.125-0.012-0.36-0.034c-0.234-0.033-0.584-0.03-1.02-0.129
				c-0.44-0.076-0.971-0.193-1.577-0.384c-0.605-0.187-1.28-0.457-1.98-0.847c-0.694-0.399-1.431-0.893-2.11-1.556
				c-0.698-0.638-1.326-1.457-1.814-2.387c-0.505-0.924-0.847-1.976-1.004-3.051c-0.095-0.521-0.118-1.117-0.127-1.71
				c-0.003-0.285,0.021-0.464,0.03-0.701l0.019-0.336l0.011-0.139l0.008-0.056l0.017-0.113l0.035-0.225
				c0.198-1.205,0.707-2.333,1.365-3.261c0.662-0.931,1.471-1.665,2.293-2.255c1.663-1.172,3.417-1.731,4.914-2.039
				c1.508-0.299,2.792-0.253,3.675-0.185c0.422,0.031,0.86,0.103,1.033,0.14c0.207,0.041,0.317,0.063,0.317,0.063
				c0.815,0.161,1.346,0.953,1.185,1.768C84.968,56.158,84.313,56.661,83.589,56.638z"/>
		</g>
		<g>
			<path style="fill:#FFFFFF;" d="M100.925,20.981c23.667,27,21.667,71.333,21.667,71.333c0,16.569-13.431,30-30,30h-60
				c-16.569,0-30-13.431-30-30c0,0-3-34,24.667-71.667c0,0,10.591-10.333,14.591-8.667s8.485,0.265,7.076,9.966
				c-1.409,9.701-17.371,75.368,12.777,72.034c30.147-3.333,32.147-68.667,31.814-74.667
				C93.183,13.314,100.925,20.981,100.925,20.981z"/>
			<path d="M102.463,19.702c0.77,0.926,1.545,1.822,2.311,2.773c0.747,1.002,1.54,1.993,2.246,3.009
				c1.413,2.025,2.751,4.1,3.961,6.245c2.458,4.269,4.543,8.736,6.29,13.32c3.514,9.17,5.663,18.783,6.854,28.467
				c0.576,4.849,0.919,9.718,0.996,14.616c0.016,1.227,0.017,2.451-0.013,3.7l-0.174,3.656l-0.291,2.002
				c-0.109,0.662-0.178,1.353-0.363,1.966c-0.334,1.256-0.597,2.535-1.094,3.741c-1.743,4.897-4.644,9.391-8.488,12.894
				c-3.804,3.529-8.441,6.203-13.479,7.529l-1.89,0.484c-0.635,0.137-1.282,0.21-1.923,0.316c-1.281,0.245-2.58,0.289-3.877,0.348
				l-0.97,0.045h-0.9h-1.8H86.26H71.863H43.069H35.87h-1.8h-0.9h-0.45l-0.351-0.008l-0.225-0.011l-1.797-0.091l-0.899-0.045
				l-0.996-0.138l-2.003-0.303c-0.675-0.093-1.273-0.301-1.912-0.448c-0.626-0.173-1.267-0.3-1.88-0.515l-1.832-0.669l-0.914-0.34
				l-0.88-0.421l-1.756-0.848c-0.574-0.304-1.117-0.663-1.677-0.994c-0.548-0.348-1.129-0.648-1.635-1.058
				c-4.221-3.016-7.811-6.971-10.185-11.605c-2.384-4.62-3.661-9.81-3.687-15.004l0.01,0.219c-0.065-0.948-0.089-1.746-0.094-2.598
				c-0.02-0.842,0.002-1.673,0.023-2.504c0.009-0.833,0.052-1.66,0.106-2.485c0.059-0.824,0.075-1.656,0.17-2.474
				c0.163-1.641,0.296-3.288,0.549-4.914l0.339-2.446l0.435-2.428l0.443-2.426l0.544-2.403c0.369-1.601,0.712-3.208,1.186-4.78
				c0.46-1.575,0.847-3.173,1.369-4.728l1.563-4.666c0.542-1.547,1.185-3.057,1.774-4.587l0.903-2.287l1.021-2.235l2.052-4.466
				l2.296-4.343l1.149-2.171c0.392-0.718,0.838-1.405,1.255-2.11l2.543-4.2c0.41-0.709,0.862-1.39,1.336-2.057l1.392-2.02
				l2.787-4.038l0.106-0.154l0.163-0.156c1.698-1.623,3.385-3.09,5.209-4.527c1.828-1.42,3.708-2.786,6.002-3.915
				c0.59-0.274,1.19-0.541,1.895-0.749c0.705-0.202,1.457-0.397,2.451-0.361c0.498,0.024,1.037,0.107,1.604,0.319l0.763,0.279
				l0.59,0.177l0.751,0.199c1.04,0.289,2.382,0.534,3.87,1.496c0.364,0.21,0.709,0.566,1.044,0.865
				c0.302,0.34,0.597,0.716,0.835,1.093c0.197,0.38,0.424,0.783,0.558,1.163c0.12,0.375,0.245,0.762,0.338,1.135
				c0.528,2.896,0.122,5.251-0.235,7.56l-1.221,6.549c-0.807,4.328-1.554,8.65-2.179,12.984c-1.234,8.655-2.095,17.388-1.761,25.973
				c0.195,4.271,0.692,8.533,1.911,12.426c1.197,3.876,3.29,7.348,6.424,8.923c1.559,0.791,3.354,1.17,5.261,1.144
				c0.473,0.012,0.956-0.028,1.44-0.069l0.181-0.013l0.091-0.007l0.045-0.003c-0.059,0.01,0.196-0.026-0.121,0.021l0.408-0.073
				l0.816-0.146c0.533-0.102,1.113-0.183,1.608-0.303l1.282-0.433l0.645-0.203c0.216-0.074,0.438-0.203,0.657-0.301l1.321-0.624
				c0.446-0.198,0.836-0.514,1.259-0.762c0.408-0.277,0.849-0.496,1.232-0.816c1.564-1.225,3.072-2.57,4.36-4.174
				c2.643-3.135,4.751-6.829,6.493-10.707C83.085,69.09,84.47,65,85.625,60.834c1.161-4.168,2.052-8.424,2.851-12.704
				c0.778-4.285,1.391-8.609,1.913-12.947c0.5-4.337,0.879-8.709,1.04-13.043l0.038-1.607c0.002-0.268,0.002-0.531-0.007-0.77
				l-0.015-0.877c0.007-0.374,0.047-0.91,0.17-1.365c0.056-0.238,0.176-0.538,0.3-0.804c0.178-0.31,0.349-0.599,0.67-0.889
				c0.58-0.576,1.497-0.862,2.089-0.849c0.613-0.01,1.106,0.101,1.493,0.229c1.551,0.539,2.484,1.272,3.473,1.999
				c0.963,0.747,1.812,1.493,2.692,2.355l0.065,0.064L102.463,19.702z M99.471,22.362c-0.699-0.663-1.5-1.356-2.278-1.939
				c-0.776-0.588-1.683-1.153-2.239-1.315c-0.136-0.05-0.196-0.031-0.134-0.036c0.038,0.008,0.402-0.062,0.585-0.26
				c0.101-0.115,0.147-0.152,0.175-0.23c0.024-0.012,0.023-0.058,0.021-0.026c-0.012,0.082-0.016,0.099-0.028,0.277l0.023,0.781
				c0.015,0.313,0.018,0.603,0.021,0.888l0.015,1.71c-0.018,4.509-0.259,8.967-0.618,13.432c-0.349,4.464-0.925,8.91-1.667,13.338
				c-0.728,4.431-1.708,8.829-2.904,13.187c-1.208,4.354-2.663,8.668-4.538,12.854c-1.88,4.177-4.178,8.254-7.238,11.89
				c-3.057,3.617-6.908,6.818-11.775,8.416l-1.876,0.583c-0.578,0.135-1.098,0.205-1.649,0.31l-0.816,0.146l-0.408,0.073
				c-0.351,0.05-0.131,0.016-0.224,0.029l-0.058,0.005l-0.116,0.009l-0.232,0.018c-0.618,0.053-1.236,0.1-1.871,0.089
				c-2.508,0.034-5.175-0.474-7.562-1.695c-2.39-1.221-4.364-3.124-5.782-5.219c-1.439-2.101-2.403-4.371-3.127-6.644
				c-1.421-4.563-1.925-9.172-2.139-13.721c-0.189-4.554-0.031-9.07,0.305-13.551c0.339-4.482,0.865-8.93,1.503-13.351
				c0.638-4.421,1.398-8.816,2.212-13.183l1.211-6.493c0.354-2.033,0.565-4.146,0.278-5.622c-0.046-0.16-0.099-0.299-0.135-0.453
				c-0.046-0.141-0.117-0.211-0.153-0.332c-0.062-0.083-0.116-0.143-0.167-0.223c-0.096-0.045-0.108-0.131-0.235-0.184
				c-0.37-0.264-1.229-0.531-2.316-0.797l-0.852-0.226l-0.995-0.309l-0.794-0.291c0.047,0.019,0.038,0.013-0.016,0.006
				c-0.29-0.03-1.193,0.223-1.994,0.624c-1.682,0.82-3.422,2.044-5.076,3.34c-1.652,1.298-3.304,2.738-4.802,4.171l0.269-0.309
				l-2.689,3.9l-1.345,1.949c-0.458,0.643-0.895,1.301-1.289,1.985l-2.452,4.049c-0.402,0.679-0.834,1.341-1.211,2.033l-1.105,2.091
				l-2.212,4.182l-1.973,4.297l-0.984,2.15l-0.866,2.198c-0.565,1.47-1.185,2.92-1.705,4.406l-1.5,4.478
				c-0.502,1.492-0.87,3.024-1.312,4.533c-0.456,1.507-0.783,3.046-1.136,4.577l-0.521,2.299L6.55,73.574l-0.416,2.318l-0.322,2.33
				c-0.243,1.551-0.366,3.111-0.522,4.668c-0.091,0.779-0.104,1.557-0.16,2.336c-0.052,0.779-0.093,1.557-0.1,2.331
				c-0.02,0.776-0.041,1.552-0.022,2.317c0.001,0.755,0.032,1.564,0.075,2.22l0.009,0.141l0.001,0.079
				c0.028,4.409,1.108,8.781,3.12,12.691c2.002,3.922,5.055,7.267,8.623,9.824c0.424,0.353,0.922,0.598,1.385,0.894
				c0.474,0.278,0.931,0.587,1.416,0.844l1.486,0.714l0.742,0.36l0.774,0.284l1.548,0.568c0.517,0.184,1.061,0.283,1.59,0.432
				c0.529,0.12,1.071,0.314,1.588,0.377l1.555,0.24c0.262,0.04,0.511,0.089,0.784,0.123l0.899,0.045l1.797,0.091l0.225,0.011
				l0.056,0.003c0.132,0.004-0.117-0.001-0.07-0.001h0.112h0.45h0.9h1.8h7.199h28.794H86.26h3.599h1.8h0.9l0.827-0.043
				c1.1-0.053,2.202-0.08,3.284-0.295c0.542-0.091,1.091-0.147,1.627-0.263l1.596-0.413c4.259-1.112,8.177-3.382,11.4-6.369
				c3.262-2.963,5.71-6.774,7.182-10.909c0.429-1.016,0.636-2.101,0.926-3.16c0.167-0.537,0.201-1.049,0.291-1.569l0.248-1.557
				l0.169-3.534c0.027-1.15,0.027-2.326,0.012-3.498c-0.074-4.699-0.405-9.417-0.962-14.099c-0.535-4.686-1.287-9.346-2.312-13.94
				c-1.005-4.597-2.222-9.149-3.794-13.571c-1.565-4.422-3.428-8.736-5.68-12.831c-1.127-2.047-2.374-4.02-3.688-5.944
				c-0.653-0.961-1.355-1.85-2.029-2.782C100.956,24.147,100.2,23.254,99.471,22.362z"/>
		</g>
		<g>
			<path style="fill:#FFFFFF;" d="M40.258,17.314c0,0-10.424,9.402-15,0.667c-3.667-7,4-12.667,12.167-14.667
				c9.344-2.288,18.833,0.333,18.833,8.333s-2.667,20.333-5.333,32c-2.667,11.667-12.667,46.333,12,46.333s22.333-61,22.333-71
				s6-11.666,8.667-11.666s7.333,0,7.333,11.333s-1.333,37.666-9.333,57.666S75.592,99.647,61.258,99.647s-25.667-7-26.333-30
				C34.258,46.647,41.925,26.981,40.258,17.314z"/>
			<path d="M38.008,21.95c-0.281,0.163-0.563,0.356-0.882,0.524c-0.856,0.444-1.856,0.901-3.072,1.266
				c-1.214,0.349-2.687,0.637-4.423,0.413c-1.724-0.194-3.66-1.141-4.956-2.583c-0.682-0.705-1.183-1.499-1.643-2.319l-0.044-0.077
				l-0.075-0.152l-0.061-0.128l-0.122-0.256c-0.072-0.139-0.181-0.403-0.283-0.669c-0.216-0.538-0.343-1.003-0.465-1.532
				c-0.502-2.083-0.146-4.608,0.971-6.595c1.094-2.014,2.708-3.574,4.473-4.843C31,2.499,35.264,0.929,40.032,0.254
				c2.387-0.315,4.913-0.378,7.541,0.045c1.312,0.215,2.651,0.551,3.982,1.105c1.329,0.543,2.657,1.311,3.839,2.392
				c1.177,1.077,2.173,2.501,2.732,4.092c0.278,0.791,0.475,1.613,0.554,2.428c0.104,0.81,0.074,1.681,0.053,2.261
				c-0.085,2.742-0.399,5.488-0.805,8.221c-0.821,5.482-2.009,11.059-3.314,16.793c-0.662,2.873-1.333,5.753-2.07,8.723
				c-0.733,2.934-1.456,5.876-2.079,8.877c-1.229,5.975-2.186,12.247-1.664,18.429c0.278,3.059,0.948,6.113,2.426,8.617
				c1.457,2.511,3.776,4.3,6.645,5.097c1.422,0.42,2.961,0.604,4.532,0.636c1.599,0.028,2.956-0.129,4.354-0.632
				c2.76-0.958,5.101-3.107,6.917-5.761c1.831-2.654,3.198-5.756,4.297-8.976c1.095-3.23,1.927-6.602,2.595-10.031
				c1.321-6.868,2.018-13.955,2.401-21.088c0.387-7.146,0.398-14.314,0.304-21.56l-0.02-1.412c-0.015-0.425,0.004-0.968,0.021-1.481
				c0.053-0.997,0.169-2.008,0.387-3.027c0.429-2.023,1.297-4.143,2.885-5.87c1.573-1.74,3.797-2.874,6.116-3.21
				c0.292-0.045,0.591-0.073,0.895-0.093l0.443-0.014l0.357-0.001c0.505,0.001,1.068,0.02,1.669,0.101
				c1.192,0.146,2.563,0.604,3.667,1.444c1.118,0.828,1.895,1.913,2.431,2.96c0.54,1.055,0.843,2.11,1.077,3.129
				c0.448,2.044,0.55,3.991,0.558,5.899c-0.023,3.638-0.172,7.292-0.403,10.871c-0.469,7.188-1.246,14.298-2.43,21.271
				c-1.167,6.973-2.715,13.82-4.897,20.393c-2.236,6.558-4.77,12.888-8.603,18.61c-1.934,2.828-4.284,5.465-7.152,7.479
				c-2.854,2.036-6.187,3.264-9.429,3.892c-3.259,0.636-6.452,0.77-9.537,0.784c-3.132-0.012-6.329-0.326-9.356-1.155
				c-3.034-0.828-5.936-2.198-8.396-4.098c-2.45-1.911-4.436-4.295-5.882-6.841c-2.914-5.126-3.994-10.608-4.489-15.675
				c-0.238-2.557-0.294-5.022-0.317-7.398c-0.012-2.412,0.05-4.715,0.184-6.96c0.519-8.966,1.882-16.647,2.954-22.892
				c1.116-6.241,1.862-11.094,2-14.279C38.008,22.212,38.003,22.081,38.008,21.95z M42.722,16.889c0,0,0.017,0.131,0.051,0.39
				c0.029,0.257,0.095,0.65,0.118,1.142c0.084,1,0.098,2.441-0.041,4.236c-0.258,3.598-1.208,8.571-2.393,14.782
				c-1.171,6.211-2.617,13.697-3.257,22.35c-0.164,2.157-0.259,4.406-0.285,6.68c-0.026,2.31,0.016,4.67,0.237,7.042
				c0.438,4.736,1.461,9.718,3.934,14.077c1.22,2.179,2.87,4.119,4.878,5.681c2.021,1.547,4.416,2.682,7.027,3.389
				c2.629,0.706,5.405,0.984,8.312,0.989c2.952-0.003,5.921-0.133,8.776-0.683c2.851-0.549,5.57-1.554,7.933-3.227
				c2.378-1.649,4.395-3.918,6.138-6.474c3.439-5.163,5.984-11.325,7.97-17.636c1.996-6.345,3.397-13.02,4.426-19.838
				c1.041-6.818,1.67-13.795,2.004-20.834c0.164-3.535,0.241-7.035,0.203-10.572c-0.025-1.675-0.154-3.336-0.502-4.805
				c-0.342-1.467-0.93-2.704-1.601-3.178c-0.334-0.258-0.719-0.42-1.312-0.511c-0.538-0.079-1.534-0.101-2.037-0.053
				c-1.262,0.126-2.466,0.669-3.4,1.545c-0.942,0.882-1.638,2.166-2.059,3.646c-0.426,1.499-0.602,3.081-0.588,4.861
				c0.212,14.487-0.074,29.173-2.761,43.442c-0.694,3.564-1.562,7.099-2.734,10.559c-1.181,3.451-2.656,6.854-4.792,9.961
				c-1.071,1.547-2.318,3.014-3.792,4.286c-1.476,1.267-3.21,2.304-5.085,2.973c-1.846,0.685-3.963,0.911-5.775,0.857
				c-1.844-0.045-3.719-0.266-5.554-0.811c-1.831-0.525-3.622-1.388-5.163-2.587c-1.554-1.185-2.819-2.706-3.771-4.328
				c-1.908-3.277-2.653-6.85-2.98-10.264c-0.313-3.434-0.169-6.787,0.129-10.05c0.295-3.266,0.788-6.447,1.37-9.551
				c0.583-3.103,1.268-6.134,1.945-9.077c0.665-2.908,1.284-5.84,1.886-8.682c1.193-5.701,2.261-11.216,2.955-16.488
				c0.345-2.643,0.586-5.194,0.618-7.647c0.009-0.717,0.018-1.142-0.041-1.608c-0.042-0.464-0.155-0.889-0.295-1.294
				c-0.288-0.805-0.767-1.494-1.412-2.088c-1.295-1.191-3.246-1.909-5.236-2.222c-2.004-0.32-4.079-0.277-6.059-0.008
				c-3.958,0.551-7.643,1.97-10.312,3.873c-1.327,0.95-2.371,2.047-2.941,3.124c-0.575,1.083-0.691,2.075-0.466,3.079
				c0.056,0.241,0.138,0.532,0.214,0.707c0.033,0.094,0.059,0.189,0.161,0.388l0.123,0.256l0.061,0.127
				c-0.01-0.019,0.064,0.131-0.014-0.026l0.027,0.044c0.28,0.479,0.549,0.934,0.858,1.24c0.603,0.653,1.193,0.925,1.905,1.035
				c1.454,0.208,3.216-0.457,4.488-1.114c1.306-0.674,2.274-1.369,2.899-1.836c0.303-0.24,0.533-0.421,0.686-0.543
				c0.132-0.113,0.2-0.17,0.2-0.17l0.122-0.104c1.027-0.875,2.568-0.752,3.443,0.275C42.478,15.994,42.664,16.435,42.722,16.889z"/>
		</g>
		<g>
			<path d="M16.113,71.157c0.992,0.343,1.826,0.717,2.683,1.165c0.846,0.44,1.668,0.923,2.463,1.449
				c1.595,1.046,3.061,2.297,4.391,3.688c1.323,1.395,2.528,2.933,3.48,4.625c0.958,1.687,1.734,3.484,2.27,5.346l0.196,0.699
				l0.049,0.175l0.038,0.156l0.018,0.082l0.071,0.328c0.099,0.387,0.18,0.999,0.252,1.538c0.096,1.033,0.095,2.071-0.022,3.089
				c-0.239,2.033-0.848,3.966-1.701,5.723c-0.836,1.771-1.924,3.364-3.098,4.851c-0.585,0.747-1.225,1.444-1.887,2.117
				c-0.673,0.679-1.328,1.3-2.13,1.934l-0.001,0.001c-0.56,0.527-1.43,0.52-1.982-0.001l-0.041-0.039
				c-1.145-1.086-1.967-2.13-2.784-3.294c-0.809-1.142-1.532-2.334-2.177-3.566c-0.635-1.236-1.197-2.505-1.704-3.795l-0.706-1.954
				l-0.593-1.988c-0.211-0.66-0.319-1.343-0.481-2.015c-0.159-0.673-0.296-1.349-0.39-2.031l-0.317-2.042l-0.2-2.053
				c-0.163-1.368-0.133-2.74-0.206-4.112c0.005-0.812,0.015-1.339,0.065-2.076c0.079-0.734,0.126-1.496,0.265-2.19
				c0.204-1.422,0.601-2.813,1.051-4.178c0.486-1.356,1.083-2.669,1.782-3.923c0.719-1.242,1.524-2.428,2.42-3.537
				c0.913-1.093,1.905-2.11,2.953-3.053c2.114-1.868,4.446-3.444,6.938-4.693c1.249-0.619,2.534-1.161,3.866-1.612
				c0.664-0.228,1.346-0.427,2.047-0.596c0.725-0.153,1.401-0.304,2.352-0.311c0.827-0.006,1.501,0.66,1.507,1.486
				c0.006,0.785-0.594,1.433-1.362,1.501l-0.146,0.013c-0.373,0.032-0.997,0.177-1.552,0.346c-0.574,0.181-1.156,0.376-1.731,0.61
				c-1.152,0.458-2.283,1.005-3.374,1.619c-2.184,1.222-4.234,2.681-6.027,4.38c-1.782,1.709-3.318,3.635-4.5,5.746
				c-0.577,1.063-1.065,2.168-1.46,3.307c-0.36,1.149-0.687,2.312-0.843,3.514c-0.117,0.606-0.132,1.168-0.199,1.748
				c-0.033,0.581-0.06,1.379-0.067,1.887c0.056,1.269,0.006,2.55,0.143,3.812l0.16,1.898l0.269,1.881
				c0.078,0.63,0.195,1.251,0.334,1.867c0.138,0.616,0.239,1.243,0.402,1.852l0.471,1.834l0.575,1.8
				c0.416,1.188,0.881,2.358,1.412,3.496l0.829,1.689c0.314,0.538,0.592,1.106,0.934,1.624c0.634,1.044,1.408,2.127,2.111,2.934
				l-2.023-0.04l0,0c0.523-0.568,1.109-1.241,1.631-1.893c0.528-0.664,1.024-1.352,1.51-2.038c0.967-1.378,1.778-2.842,2.426-4.33
				c0.649-1.489,1.091-3.024,1.262-4.548c0.068-0.763,0.088-1.52,0.031-2.27c-0.052-0.347-0.055-0.628-0.167-1.112l-0.066-0.329
				l-0.017-0.082l-0.004-0.021l-0.002-0.01c-0.015-0.067,0.018,0.08,0.014,0.061l-0.01-0.037l-0.04-0.149l-0.158-0.595
				c-0.431-1.585-1.065-3.103-1.852-4.539c-0.795-1.429-1.722-2.798-2.819-4.038c-1.081-1.254-2.339-2.358-3.657-3.387
				c-0.664-0.508-1.357-0.983-2.071-1.419c-0.703-0.427-1.473-0.856-2.148-1.163l-0.069-0.032c-0.754-0.343-1.087-1.232-0.744-1.986
				C14.58,71.245,15.391,70.91,16.113,71.157z"/>
		</g>
		<g>
			<path d="M13.793,85.315c0,0,0.942-0.359,2.364-0.641c0.356-0.07,0.74-0.155,1.149-0.209c0.408-0.057,0.838-0.141,1.284-0.178
				c0.891-0.099,1.842-0.192,2.796-0.218c0.953-0.035,1.907-0.034,2.803,0.018c0.896,0.036,1.733,0.118,2.452,0.225
				c1.438,0.193,2.402,0.504,2.402,0.504l0.098,2.998c0,0-0.942,0.374-2.364,0.661c-0.711,0.154-1.541,0.291-2.432,0.385
				c-0.891,0.11-1.843,0.174-2.796,0.201c-0.953,0.036-1.908,0.006-2.804-0.035c-0.448-0.008-0.882-0.063-1.293-0.094
				c-0.411-0.028-0.8-0.087-1.16-0.134c-1.437-0.188-2.401-0.485-2.401-0.485L13.793,85.315z"/>
		</g>
	</g>
</g>
<g id="Layer_1">
</g>
</svg>
