<?xml version="1.0" encoding="iso-8859-1"?>
<!-- Generator: Adobe Illustrator 19.2.0, SVG Export Plug-In . SVG Version: 6.00 Build 0)  -->
<!DOCTYPE svg PUBLIC "-//W3C//DTD SVG 1.1//EN" "http://www.w3.org/Graphics/SVG/1.1/DTD/svg11.dtd">
<svg version="1.1" xmlns="http://www.w3.org/2000/svg" xmlns:xlink="http://www.w3.org/1999/xlink" x="0px" y="0px"
	 viewBox="0 0 140 140" style="enable-background:new 0 0 140 140;" xml:space="preserve">
<g id="tawa">
	<g id="tawa_3_">
		<g>
			<ellipse style="fill:#FFFFFF;" cx="70.413" cy="82.549" rx="60.125" ry="47.208"/>
			<path d="M132.787,82.622c0,0-0.01,0.33-0.028,0.97c-0.009,0.32-0.021,0.718-0.035,1.19c-0.009,0.467-0.088,1.094-0.143,1.757
				c-0.263,2.668-0.891,6.473-2.681,11.051c-1.824,4.527-4.823,9.758-9.47,14.667c-4.616,4.913-10.776,9.539-18.228,13.032
				c-7.436,3.507-16.128,5.923-25.484,6.704c-2.351,0.165-4.692,0.288-7.147,0.246c-1.17-0.031-2.316-0.033-3.575-0.13
				c-0.617-0.039-1.236-0.077-1.857-0.116c-0.61-0.062-1.221-0.123-1.834-0.185c-4.901-0.502-9.865-1.495-14.756-3.045
				c-9.763-3.056-19.368-8.349-26.915-16.253c-3.737-3.956-6.96-8.535-9.167-13.654c-2.269-5.086-3.403-10.707-3.429-16.305
				c0.021-2.683,0.335-5.644,0.92-8.334c0.572-2.738,1.464-5.399,2.595-7.934c2.23-5.096,5.47-9.642,9.216-13.563
				c7.564-7.833,17.158-13.047,26.889-16.032c9.762-3.056,19.74-3.762,29.022-3.116c9.306,0.723,17.966,3.076,25.388,6.524
				c7.438,3.434,13.599,8.005,18.227,12.874c4.659,4.865,7.678,10.064,9.524,14.572c1.811,4.545,2.465,8.387,2.736,10.99
				c0.156,1.305,0.178,2.312,0.198,2.991c0.023,0.678,0.035,1.028,0.035,1.028L132.787,82.622z M128.288,82.549
				c0,0-0.009-0.311-0.028-0.912c-0.014-0.602-0.026-1.496-0.16-2.655c-0.227-2.312-0.785-5.722-2.378-9.799
				c-1.633-4.042-4.315-8.759-8.564-13.25c-4.218-4.492-9.909-8.785-16.867-12.047c-6.941-3.275-15.108-5.554-23.929-6.292
				c-1.097-0.06-2.169-0.153-3.307-0.192c-0.575-0.013-1.153-0.026-1.732-0.04l-0.87-0.02l-0.813,0.017
				c-1.135,0.03-2.279,0.033-3.424,0.126l-1.725,0.108l-1.728,0.175c-4.62,0.474-9.291,1.41-13.878,2.865
				c-9.16,2.863-18.104,7.832-25.002,15.069c-3.416,3.621-6.326,7.769-8.296,12.35c-1.001,2.279-1.783,4.657-2.275,7.094
				c-0.506,2.477-0.757,4.797-0.775,7.404c0.06,4.969,1.08,9.93,3.136,14.46c1.993,4.557,4.921,8.673,8.345,12.259
				c6.916,7.166,15.849,12.055,24.976,14.847c4.571,1.42,9.221,2.322,13.815,2.765l1.717,0.164l1.686,0.095
				c1.095,0.084,2.296,0.083,3.457,0.106c1.08,0.033,2.236-0.03,3.339-0.034c1.114-0.031,2.217-0.117,3.316-0.172
				c8.771-0.68,16.906-2.895,23.833-6.111c6.944-3.202,12.636-7.441,16.865-11.889c4.261-4.448,6.963-9.132,8.619-13.155
				c1.614-4.044,2.197-7.491,2.433-9.738c0.049-0.572,0.125-1.031,0.138-1.509c0.017-0.472,0.031-0.87,0.042-1.19
				c0.023-0.64,0.034-0.97,0.034-0.97L128.288,82.549z"/>
		</g>
		<g>
			<g>
				<path style="fill:#FFFFFF;" d="M97.547,34.224c1.849-10.778-3.94-21.917-14.175-23.725c-14.098-2.49-27.676,6.179-37.466,23.845
					c-7.219,13.027-5.053,47.996-5.053,47.996s12.3-13.551,32.21-10.667c16.105,2.333,21.158,9.334,37.263,8.335
					c11.979-0.743,20.211-8.335,20.211-20.168c0-9.665-7.423-16.499-16.579-16.499C113.959,43.342,96.767,38.772,97.547,34.224z"/>
				<path d="M95.569,33.929c0.306-2.492,0.249-4.858-0.222-7.225c-0.438-2.346-1.269-4.609-2.483-6.599
					c-1.214-1.984-2.755-3.736-4.617-4.996c-0.926-0.633-1.922-1.148-2.966-1.53c-0.525-0.184-1.058-0.342-1.601-0.469l-0.777-0.153
					l-0.979-0.152c-2.307-0.325-4.775-0.316-7.131,0.053c-2.372,0.373-4.694,1.097-6.907,2.115
					c-4.428,2.05-8.385,5.224-11.765,8.954c-1.704,1.858-3.257,3.87-4.716,5.959c-1.436,2.077-2.845,4.309-3.985,6.497
					c-0.296,0.588-0.471,1.043-0.713,1.6c-0.206,0.58-0.448,1.137-0.626,1.738c-0.391,1.179-0.731,2.394-1.019,3.633
					c-0.589,2.473-1.023,5.017-1.367,7.583c-0.68,5.137-1.009,10.36-1.201,15.592c-0.08,2.617-0.146,5.238-0.167,7.862
					c-0.007,2.618-0.037,5.26,0.025,7.857l-2.608-0.915l0,0c1.049-1.141,2.072-2.058,3.188-2.979
					c1.105-0.906,2.255-1.753,3.448-2.538c2.393-1.558,4.954-2.867,7.634-3.888c5.352-2.07,11.204-2.916,16.95-2.474
					c0.72,0.037,1.432,0.144,2.149,0.215c0.796,0.105,1.385,0.223,2.088,0.333c1.321,0.193,2.795,0.549,4.172,0.853
					c2.755,0.662,5.447,1.544,8.053,2.506c2.61,0.956,5.134,1.969,7.654,2.782c2.52,0.815,5.049,1.428,7.635,1.728
					c2.573,0.306,5.237,0.265,7.82,0.118c2.575-0.206,5.051-0.795,7.334-1.78c2.275-0.994,4.298-2.436,5.898-4.214
					c1.621-1.769,2.741-3.917,3.445-6.205c0.712-2.279,0.919-4.799,0.785-7.21c-0.14-2.315-0.876-4.617-2.07-6.604
					c-1.201-1.998-2.955-3.67-5.03-4.84c-2.087-1.161-4.498-1.742-6.937-1.793l-0.053-0.001c-0.156-0.003-0.317-0.028-0.461-0.066
					c-0.84-0.227-1.623-0.458-2.427-0.704c-0.798-0.245-1.593-0.501-2.385-0.768c-1.582-0.544-3.166-1.099-4.738-1.752
					c-1.572-0.658-3.134-1.374-4.698-2.335c-0.78-0.494-1.566-1.038-2.34-1.84c-0.383-0.408-0.774-0.882-1.092-1.549
					c-0.321-0.644-0.528-1.565-0.377-2.473L95.569,33.929z M99.707,34.595c0.02-0.099-0.035-0.182-0.003-0.091
					c0.022,0.077,0.136,0.258,0.306,0.449c0.344,0.391,0.884,0.824,1.471,1.218c1.189,0.799,2.59,1.49,4.016,2.119
					c1.434,0.626,2.914,1.207,4.424,1.714c0.754,0.257,1.513,0.503,2.276,0.739c0.757,0.234,1.54,0.466,2.276,0.667l-0.514-0.067
					c3.041-0.047,6.12,0.627,8.908,1.989c2.784,1.36,5.263,3.452,7.027,6.071c1.805,2.606,2.801,5.69,3.064,8.837
					c0.227,3.052-0.148,6.08-1.085,9.031c-0.949,2.933-2.61,5.672-4.783,7.869c-2.171,2.207-4.824,3.848-7.609,4.952
					c-2.782,1.122-5.739,1.685-8.626,1.88c-2.887,0.15-5.724,0.171-8.6-0.183c-2.86-0.35-5.69-0.992-8.387-1.856
					c-2.703-0.855-5.276-1.87-7.82-2.78c-2.546-0.906-5.067-1.745-7.64-2.381c-2.488-0.591-5.251-1.126-7.784-1.384
					c-5.177-0.519-10.455,0.11-15.378,1.879c-2.467,0.866-4.833,2.028-7.082,3.383c-2.227,1.339-4.434,2.963-6.2,4.701l0,0
					c-0.522,0.625-1.451,0.708-2.076,0.186c-0.312-0.261-0.489-0.624-0.523-0.999l-0.009-0.102c-0.232-2.679-0.424-5.32-0.519-7.985
					c-0.11-2.66-0.172-5.323-0.154-7.99c0.014-5.333,0.242-10.677,0.838-16.033c0.302-2.678,0.698-5.359,1.277-8.04
					c0.283-1.34,0.625-2.681,1.037-4.019c0.184-0.67,0.449-1.336,0.675-2.004c0.261-0.663,0.573-1.439,0.86-2.035
					c1.254-2.522,2.64-4.789,4.16-7.089c1.514-2.279,3.205-4.453,5.051-6.51c3.676-4.109,8.082-7.744,13.245-10.182
					c2.578-1.21,5.338-2.097,8.185-2.565c2.864-0.461,5.733-0.508,8.662-0.115l0.98,0.146c0.464,0.081,0.772,0.158,1.165,0.239
					c0.742,0.181,1.473,0.408,2.191,0.672c1.431,0.542,2.791,1.267,4.036,2.139c2.488,1.751,4.524,4.057,5.958,6.64
					c1.445,2.581,2.355,5.399,2.784,8.262c0.394,2.846,0.32,5.837-0.264,8.554L99.707,34.595z"/>
			</g>
			<g>
				<path style="fill:#FFFFFF;" d="M40.855,82.341c0,0-1.061-25.433,23.053-35.333c22.736-9.334,22.7-16.739,34.735-22.667
					c9.474-4.667,18.513-0.499,21.792,4.001c6.316,8.667,4.735,27.666-23.055,29.668C68.708,60.075,52.854,58.008,40.855,82.341z"/>
				<path d="M39.355,82.392c0,0-0.004-0.239-0.013-0.702c0-0.448,0.012-1.105,0.06-1.955c0.108-1.695,0.341-4.175,1.057-7.258
					c0.72-3.073,1.892-6.78,4.033-10.683c2.132-3.887,5.297-7.954,9.661-11.321c2.172-1.685,4.624-3.191,7.289-4.457
					c1.369-0.631,2.615-1.181,3.968-1.775c0.66-0.297,1.35-0.582,1.999-0.895c0.644-0.315,1.292-0.632,1.945-0.951
					c5.27-2.565,10.425-5.848,15.13-10.142c2.388-2.12,4.799-4.536,7.71-6.628c0.72-0.526,1.454-1.038,2.226-1.5
					c0.753-0.496,1.541-0.926,2.336-1.349l0.595-0.322l0.345-0.183l0.289-0.137l0.578-0.274l0.686-0.29
					c0.91-0.375,1.793-0.676,2.731-0.92c3.713-0.997,7.781-0.949,11.529,0.237c1.877,0.584,3.677,1.441,5.333,2.582
					c0.827,0.573,1.62,1.216,2.354,1.963c0.365,0.376,0.723,0.765,1.055,1.199l0.125,0.161l0.062,0.081l0.098,0.141l0.185,0.269
					l0.374,0.548c0.589,0.953,1.054,1.835,1.417,2.768c0.386,0.927,0.662,1.888,0.901,2.853c0.452,1.937,0.596,3.935,0.453,5.911
					c-0.27,3.956-1.843,7.813-4.329,10.794c-2.475,3.002-5.687,5.151-8.994,6.601c-3.323,1.449-6.75,2.33-10.121,2.823
					c-0.844,0.106-1.684,0.231-2.52,0.316c-0.837,0.07-1.67,0.139-2.5,0.208c-1.607,0.089-3.199,0.177-4.773,0.264
					c-3.14,0.159-6.213,0.315-9.203,0.466c-5.952,0.331-11.538,0.75-16.488,1.79c-4.957,1.01-9.197,2.792-12.483,5.094
					c-3.288,2.307-5.655,4.992-7.415,7.335c-1.759,2.356-2.9,4.405-3.695,5.782c-0.745,1.413-1.143,2.167-1.143,2.167l-0.03,0.056
					c-0.385,0.73-1.288,1.009-2.018,0.625C39.655,83.423,39.367,82.917,39.355,82.392z M39.509,81.678c0,0,0.402-0.795,1.155-2.286
					c0.811-1.464,1.971-3.637,3.818-6.207c1.849-2.551,4.387-5.553,8.027-8.204c3.631-2.648,8.377-4.713,13.65-5.877
					c5.276-1.202,11.018-1.72,17.014-2.161c2.989-0.209,6.06-0.424,9.199-0.644c1.564-0.121,3.144-0.244,4.74-0.368
					c0.769-0.079,1.541-0.158,2.317-0.237c0.773-0.094,1.541-0.225,2.317-0.335c3.084-0.507,6.13-1.37,8.951-2.663
					c2.814-1.294,5.36-3.118,7.217-5.459c1.864-2.33,2.961-5.205,3.114-8.186c0.079-1.486-0.056-2.995-0.424-4.443
					c-0.196-0.719-0.412-1.435-0.712-2.111c-0.269-0.693-0.643-1.345-0.939-1.891l-0.353-0.538l-0.181-0.272
					c0.008,0.01-0.081-0.119,0.006,0.006l-0.037-0.049l-0.074-0.098c-0.191-0.264-0.421-0.521-0.657-0.774
					c-0.478-0.506-1.035-0.977-1.631-1.406c-1.196-0.857-2.559-1.543-3.989-2.014c-2.864-0.96-5.984-1.06-8.91-0.331
					c-0.726,0.173-1.472,0.415-2.145,0.679l-0.498,0.196l-0.582,0.264l-0.291,0.132l-0.22,0.116l-0.532,0.277
					c-0.713,0.363-1.421,0.732-2.088,1.158c-0.688,0.393-1.345,0.836-1.991,1.292c-2.595,1.788-4.945,4.048-7.473,6.225
					c-5.032,4.447-10.701,7.926-16.243,10.502c-0.698,0.327-1.392,0.651-2.081,0.973c-0.687,0.316-1.358,0.58-2.03,0.87
					c-1.323,0.564-2.626,1.12-3.908,1.667c-2.447,1.107-4.687,2.425-6.674,3.907c-3.987,2.958-6.908,6.56-8.923,10.068
					c-2.02,3.52-3.174,6.926-3.896,9.767c-0.72,2.85-0.981,5.16-1.11,6.718c-0.059,0.781-0.081,1.377-0.089,1.772
					c0,0.381-0.001,0.578-0.001,0.578L39.509,81.678z"/>
			</g>
		</g>
	</g>
</g>
<g id="Layer_1">
</g>
</svg>
