<?xml version="1.0" encoding="iso-8859-1"?>
<!-- Generator: Adobe Illustrator 19.2.0, SVG Export Plug-In . SVG Version: 6.00 Build 0)  -->
<!DOCTYPE svg PUBLIC "-//W3C//DTD SVG 1.1//EN" "http://www.w3.org/Graphics/SVG/1.1/DTD/svg11.dtd">
<svg version="1.1" xmlns="http://www.w3.org/2000/svg" xmlns:xlink="http://www.w3.org/1999/xlink" x="0px" y="0px"
	 viewBox="0 0 271.022 153.5" style="enable-background:new 0 0 271.022 153.5;" xml:space="preserve">
<g id="Layer_1_1_">
	<g id="e-wide">
		<g>
			<path style="fill:#FFFFFF;" d="M239.741,114.494c20.688,0,24.451,8.172,24.451,18.253S260.429,151,239.741,151h-50.112"/>
			<path d="M239.767,112.494c0,0,0.471,0,1.354,0c0.872,0.001,2.272,0.029,3.96,0.136c1.708,0.124,3.792,0.326,6.189,0.832
				c2.382,0.524,5.137,1.332,7.88,3.087c1.356,0.883,2.691,2.028,3.786,3.464c1.114,1.421,1.96,3.105,2.529,4.867
				c0.559,1.765,0.867,3.602,0.996,5.431c0.071,0.923,0.096,1.82,0.096,2.762l-0.003,0.653l-0.022,0.723
				c-0.015,0.486-0.049,0.95-0.085,1.432c-0.165,1.913-0.511,3.921-1.279,5.902c-0.754,1.975-1.973,3.895-3.557,5.431
				c-1.579,1.542-3.456,2.714-5.383,3.544c-1.931,0.842-3.918,1.405-5.894,1.801c-3.943,0.777-7.918,0.947-11.669,0.931
				c-3.709-0.005-7.358-0.01-10.89-0.015c-3.532-0.015-6.946-0.029-10.184-0.042c-3.238-0.001-6.299-0.06-9.124-0.09
				c-5.651-0.057-10.36-0.141-13.657-0.219c-3.296-0.08-5.18-0.125-5.18-0.125v-4c0,0,1.884-0.046,5.18-0.125
				c3.296-0.078,8.006-0.161,13.657-0.219c2.826-0.03,5.887-0.088,9.124-0.09c3.238-0.013,6.652-0.027,10.184-0.042
				c3.532-0.005,7.182-0.01,10.89-0.015c3.658,0.033,7.252-0.122,10.713-0.785c3.424-0.665,6.673-1.893,8.83-4
				c2.178-2.073,3.182-5.064,3.484-8.274c0.276-3.258,0.161-6.541-0.639-9.182c-0.793-2.665-2.381-4.645-4.389-5.984
				c-1.994-1.361-4.274-2.138-6.346-2.642c-2.086-0.497-3.991-0.737-5.566-0.892c-1.599-0.141-2.789-0.198-3.682-0.222
				c-0.883-0.023-1.354-0.035-1.354-0.035L239.767,112.494z"/>
		</g>
		<g>
			<path style="fill:#FFFFFF;" d="M241.74,90.672c20.688,0,24.451,8.172,24.451,18.253s-3.763,18.253-24.451,18.253h-50.112"/>
			<path d="M241.766,88.672c0,0,0.471-0.013,1.354-0.038c0.872-0.031,2.276-0.016,3.969,0.063c1.712,0.102,3.811,0.253,6.22,0.767
				c2.396,0.521,5.173,1.325,7.953,3.093c2.784,1.715,5.314,4.837,6.389,8.443c0.552,1.788,0.847,3.641,0.962,5.479
				c0.063,0.928,0.084,1.828,0.072,2.774l-0.013,0.653l-0.032,0.726c-0.022,0.488-0.062,0.953-0.105,1.436
				c-0.191,1.917-0.568,3.925-1.357,5.899c-0.771,1.97-2.006,3.878-3.598,5.396c-1.587,1.525-3.467,2.675-5.393,3.485
				c-1.931,0.821-3.913,1.364-5.885,1.739c-3.936,0.735-7.894,0.877-11.639,0.796c-3.709-0.042-7.358-0.084-10.89-0.124
				c-7.064-0.09-13.657-0.174-19.308-0.246c-11.302-0.201-18.837-0.335-18.837-0.335v-3c0,0,7.535-0.134,18.837-0.335
				c5.651-0.072,12.244-0.156,19.308-0.246c3.532-0.04,7.182-0.082,10.89-0.124c3.664-0.032,7.274-0.215,10.743-0.92
				c3.432-0.704,6.689-1.978,8.829-4.12c2.163-2.109,3.122-5.108,3.365-8.312c0.213-3.252,0.086-6.521-0.735-9.115
				c-0.796-2.624-2.347-4.541-4.315-5.872c-1.957-1.347-4.215-2.128-6.273-2.636c-2.074-0.489-3.964-0.781-5.535-0.957
				c-1.594-0.169-2.78-0.24-3.674-0.295c-0.882-0.047-1.353-0.073-1.353-0.073L241.766,88.672z"/>
		</g>
		<g>
			<path style="fill:#FFFFFF;" d="M241.74,66.85c20.688,0,24.451,8.172,24.451,18.253s-3.763,18.253-24.451,18.253h-50.112"/>
			<path d="M241.766,64.85c0,0,0.471-0.013,1.354-0.038c0.872-0.031,2.276-0.016,3.969,0.063c1.712,0.102,3.811,0.253,6.22,0.767
				c2.396,0.521,5.173,1.325,7.953,3.093c2.784,1.715,5.314,4.837,6.389,8.443c0.552,1.788,0.847,3.641,0.962,5.479
				c0.063,0.928,0.084,1.828,0.072,2.774l-0.013,0.653l-0.032,0.726c-0.022,0.488-0.062,0.953-0.105,1.436
				c-0.191,1.917-0.568,3.925-1.357,5.899c-0.771,1.97-2.006,3.878-3.598,5.396c-1.587,1.525-3.467,2.675-5.393,3.485
				c-1.931,0.821-3.913,1.363-5.885,1.739c-3.936,0.735-7.894,0.877-11.639,0.796c-3.709-0.042-7.358-0.084-10.89-0.124
				c-7.064-0.09-13.657-0.174-19.308-0.246c-11.302-0.201-18.837-0.335-18.837-0.335v-3c0,0,7.535-0.134,18.837-0.335
				c5.651-0.072,12.244-0.156,19.308-0.246c3.532-0.04,7.182-0.082,10.89-0.124c3.664-0.032,7.274-0.215,10.743-0.92
				c3.432-0.704,6.689-1.978,8.829-4.121c2.163-2.109,3.122-5.108,3.365-8.312c0.213-3.252,0.086-6.521-0.735-9.115
				c-0.796-2.624-2.347-4.541-4.315-5.872c-1.957-1.347-4.215-2.128-6.273-2.636c-2.074-0.489-3.964-0.781-5.535-0.957
				c-1.594-0.169-2.78-0.239-3.674-0.295c-0.882-0.047-1.353-0.073-1.353-0.073L241.766,64.85z"/>
		</g>
		<g>
			<path style="fill:#FFFFFF;" d="M241.74,43.028c20.688,0,24.451,8.172,24.451,18.253s-3.763,18.253-24.451,18.253h-50.112"/>
			<path d="M241.766,41.028c0,0,0.471-0.013,1.354-0.038c0.872-0.031,2.276-0.016,3.969,0.063c1.712,0.102,3.811,0.253,6.22,0.767
				c2.396,0.521,5.173,1.325,7.953,3.093c2.784,1.715,5.314,4.837,6.389,8.443c0.552,1.788,0.847,3.641,0.962,5.479
				c0.063,0.928,0.084,1.828,0.072,2.774l-0.013,0.653l-0.032,0.726c-0.022,0.488-0.062,0.953-0.105,1.436
				c-0.191,1.917-0.568,3.925-1.357,5.899c-0.771,1.97-2.006,3.878-3.598,5.396c-1.587,1.525-3.467,2.675-5.393,3.485
				c-1.931,0.821-3.913,1.364-5.885,1.739c-3.936,0.735-7.894,0.877-11.639,0.796c-3.709-0.042-7.358-0.084-10.89-0.124
				c-7.064-0.09-13.657-0.174-19.308-0.246c-11.302-0.201-18.837-0.335-18.837-0.335v-3c0,0,7.535-0.134,18.837-0.335
				c5.651-0.072,12.244-0.156,19.308-0.246c3.532-0.04,7.182-0.082,10.89-0.124c3.664-0.032,7.274-0.215,10.743-0.92
				c3.432-0.704,6.689-1.978,8.829-4.121c2.163-2.109,3.122-5.108,3.365-8.312c0.213-3.252,0.086-6.521-0.735-9.115
				c-0.796-2.624-2.347-4.541-4.315-5.872c-1.957-1.347-4.215-2.128-6.273-2.636c-2.074-0.489-3.964-0.781-5.535-0.957
				c-1.594-0.169-2.78-0.24-3.674-0.295c-0.882-0.047-1.353-0.073-1.353-0.073L241.766,41.028z"/>
		</g>
		<path style="fill:#FFFFFF;stroke:#000000;stroke-width:5;stroke-miterlimit:10;" d="M151.671,151h63.937
			c16.551,0,25.965-8.311,25.965-18.562V95.312v12.375V70.562c0-8.043,3.939-16.83,6.801-18.603
			c2.862-1.773,20.148-6.147,20.148-18.728V21.062c0-10.252-0.409-18.562-16.959-18.562h-71.11h1.852H38.42
			C5.319,2.5,2.5,19.121,2.5,39.625v74.25C2.5,134.378,5.319,151,38.42,151h143.885"/>
	</g>
</g>
<g id="Layer_1">
</g>
</svg>
