<?xml version="1.0" encoding="iso-8859-1"?>
<!-- Generator: Adobe Illustrator 19.2.0, SVG Export Plug-In . SVG Version: 6.00 Build 0)  -->
<!DOCTYPE svg PUBLIC "-//W3C//DTD SVG 1.1//EN" "http://www.w3.org/Graphics/SVG/1.1/DTD/svg11.dtd">
<svg version="1.1" xmlns="http://www.w3.org/2000/svg" xmlns:xlink="http://www.w3.org/1999/xlink" x="0px" y="0px"
	 viewBox="0 0 125.011 124.98" style="enable-background:new 0 0 125.011 124.98;" xml:space="preserve">
<g id="pona">
	<g id="pona_1_">
		<ellipse style="fill:#FFFFFF;" cx="71.353" cy="40.748" rx="38.75" ry="10.251"/>
		<g>
			<path style="fill:#FFFFFF;" d="M11.993,38.498c-14.5-14.75-4.75-36,11.5-36c13,0,21,12.539,21,25.539
				c0-11.968,6.5-23.671,18-23.671c12.5,0,18,11.703,18,23.671c0-12.999,8.75-25.539,21.25-25.539
				c11.598,0,20.769,11.519,20.769,24.519l-0.019,35.481c0,33.137-26.863,60-60,60s-60-26.863-60-60c0,0-0.5-28.25,22-28.25
				c19.25,0,25.001,10.499,42.252,10.499c16.75,0,25.545-5.541,30.751-9.5"/>
			<path d="M10.52,39.852c-0.622-0.666-1.219-1.202-1.868-2.01c-0.664-0.75-1.216-1.532-1.771-2.313
				c-1.068-1.6-1.99-3.313-2.707-5.127c-1.399-3.64-1.887-7.664-1.364-11.576c0.54-3.908,2.088-7.697,4.558-10.832
				c2.447-3.14,5.822-5.629,9.665-6.928c1.915-0.658,3.936-0.994,5.946-1.047l0.377-0.016L23.451,0l0.164,0.001l0.166,0.006
				l0.664,0.023l0.333,0.012l0.395,0.035l0.79,0.075c1.018,0.121,1.992,0.306,2.971,0.567c1.945,0.524,3.814,1.335,5.523,2.381
				c1.703,1.057,3.24,2.344,4.592,3.776c1.349,1.439,2.474,3.046,3.441,4.72c0.96,1.679,1.752,3.437,2.36,5.248
				c0.618,1.808,1.033,3.671,1.312,5.543c0.277,1.874,0.39,3.766,0.33,5.651h-4l0-0.001c-0.108-2.937,0.207-5.891,0.884-8.786
				c0.713-2.885,1.827-5.713,3.461-8.313c1.617-2.601,3.857-4.932,6.614-6.588c1.375-0.826,2.879-1.466,4.44-1.876
				c1.584-0.414,3.114-0.609,4.81-0.6l1.041,0.038l1.245,0.115c0.792,0.106,1.568,0.245,2.346,0.438
				c1.549,0.39,3.064,0.989,4.464,1.789c2.804,1.608,5.089,3.979,6.672,6.625c1.605,2.646,2.635,5.515,3.274,8.408
				c0.604,2.904,0.857,5.841,0.75,8.751l0,0l-4,0c-0.064-4.597,0.811-9.233,2.744-13.466c1.931-4.211,4.849-8.116,8.837-10.86
				c1.989-1.361,4.231-2.402,6.599-3.025c1.187-0.295,2.397-0.502,3.616-0.595c0.623-0.031,1.186-0.072,1.861-0.051l0.819,0.025
				l0.977,0.083c4.961,0.501,9.478,2.987,12.836,6.363c3.385,3.385,5.738,7.629,7.041,12.133c0.661,2.254,1.03,4.586,1.154,6.929
				c0.021,0.575,0.036,1.198,0.037,1.735l-0.001,1.614l-0.002,3.229l-0.014,25.829l-0.002,3.229l0,0.807l-0.009,0.869l-0.041,1.614
				c-0.003,1.048-0.109,2.214-0.193,3.351c-0.063,1.152-0.243,2.244-0.374,3.361c-0.621,4.439-1.699,8.823-3.273,13.024
				c-3.131,8.409-8.095,16.117-14.425,22.467c-6.354,6.327-14.062,11.288-22.473,14.416c-8.399,3.129-17.539,4.351-26.406,3.687
				c-9.002-0.675-17.77-3.257-25.612-7.646c-7.829-4.369-14.734-10.402-20.04-17.635C6.836,92.3,3.086,83.926,1.273,75.137
				c-0.903-4.408-1.307-8.855-1.271-13.394c0.166-4.586,0.93-9.052,2.463-13.419c1.54-4.317,3.986-8.592,7.792-11.697
				c1.883-1.545,4.07-2.747,6.368-3.519c2.299-0.784,4.692-1.14,7.039-1.199c4.505-0.075,9.102,0.492,13.441,1.721
				c4.368,1.211,8.42,3.112,12.299,4.839c3.881,1.736,7.717,3.171,11.741,3.811c1.999,0.323,4.065,0.468,6.082,0.464
				c2.196-0.001,4.219-0.058,6.29-0.255c2.083-0.156,4.134-0.502,6.172-0.896c2.024-0.447,4.03-0.975,5.973-1.679
				c3.886-1.415,7.535-3.374,10.925-5.86c0.668-0.49,1.607-0.346,2.097,0.322c0.477,0.65,0.353,1.555-0.268,2.055l-0.013,0.01
				c-3.437,2.758-7.334,5.128-11.516,6.732c-2.087,0.818-4.235,1.446-6.401,1.982c-2.175,0.482-4.367,0.906-6.574,1.131
				c-1.095,0.154-2.224,0.213-3.343,0.303c-1.135,0.098-2.168,0.09-3.257,0.14c-2.286,0.054-4.531-0.076-6.788-0.398
				c-4.513-0.636-8.836-2.191-12.83-3.901c-4.006-1.708-7.818-3.405-11.781-4.43c-3.967-1.052-8.012-1.456-12.111-1.382
				c-3.913,0.098-7.623,1.313-10.491,3.72c-2.892,2.384-4.916,5.854-6.225,9.617c-1.302,3.767-1.981,7.893-2.09,11.905
				c-0.02,4.069,0.342,8.243,1.175,12.271c1.669,8.081,5.115,15.778,10.002,22.428c4.882,6.657,11.242,12.209,18.442,16.229
				c7.185,4.037,15.332,6.412,23.491,7.026c8.298,0.62,16.613-0.511,24.361-3.385c7.732-2.877,14.825-7.441,20.676-13.264
				c5.826-5.847,10.392-12.939,13.272-20.67c1.448-3.863,2.437-7.892,3.009-11.976c0.119-1.02,0.291-2.055,0.341-3.054
				c0.074-1.01,0.175-1.988,0.18-3.094l0.041-1.614l0.008-0.745l0-0.807l0.002-3.229l0.014-25.829l0.002-3.229l0.001-1.614
				c-0.001-0.539-0.015-0.993-0.031-1.493c-0.105-1.954-0.41-3.903-0.963-5.781c-1.083-3.755-3.053-7.271-5.769-9.981
				c-2.694-2.718-6.19-4.547-9.828-4.973c-3.719-0.447-7.508,0.504-10.649,2.628c-3.163,2.097-5.721,5.23-7.45,8.787
				c-1.746,3.556-2.727,7.537-2.829,11.545l-0.001,0.051c-0.028,1.104-0.946,1.976-2.05,1.948c-1.086-0.028-1.948-0.919-1.949-1.999
				l0,0c-0.117-2.624-0.442-5.23-1.115-7.713c-0.642-2.485-1.601-4.862-2.943-6.909c-1.347-2.037-3.027-3.767-5.055-4.89
				c-1.011-0.562-2.098-0.979-3.235-1.252c-0.568-0.134-1.155-0.232-1.736-0.305l-0.823-0.072l-1.034-0.026
				c-1.07-0.011-2.314,0.114-3.408,0.398c-1.12,0.281-2.194,0.723-3.198,1.31c-2.019,1.166-3.719,2.928-5.112,4.961
				c-1.386,2.045-2.415,4.396-3.116,6.858c-0.734,2.458-1.107,5.041-1.225,7.64l0,0.001c0.019,1.104-0.861,2.013-1.965,2.032
				c-1.087,0.018-1.987-0.835-2.031-1.916l-0.005-0.116c-0.066-1.661-0.253-3.313-0.569-4.934c-0.314-1.623-0.783-3.206-1.347-4.741
				c-1.143-3.062-2.845-5.894-5.045-8.153c-2.175-2.283-4.883-3.946-7.854-4.7c-0.369-0.1-0.749-0.163-1.122-0.249
				c-0.376-0.049-0.769-0.123-1.13-0.158l-0.534-0.047l-0.267-0.026l-0.331-0.009L23.63,5.003l-0.166-0.004l-0.042-0.001
				c0.144,0.002,0.03,0.001,0.057,0.002L23.461,5L23.39,5.003l-0.287,0.012c-1.531,0.028-3.052,0.266-4.496,0.752
				c-2.892,0.955-5.482,2.816-7.409,5.248c-1.925,2.433-3.225,5.39-3.735,8.495c-0.494,3.114-0.155,6.338,0.874,9.359
				c0.533,1.507,1.244,2.958,2.092,4.34c0.447,0.682,0.898,1.362,1.382,1.966c0.417,0.612,1.099,1.312,1.655,1.97l0.043,0.051
				c0.713,0.843,0.608,2.105-0.235,2.818C12.456,40.705,11.244,40.624,10.52,39.852z"/>
		</g>
		<g>
			<path style="fill:#FFFFFF;" d="M24.994,57.996c9.5-5.5,19.25,5.999,38.001,6.416c14.996,0.333,29.67-9.913,36.749-5.166
				c9.249,6.201,5.499,37.248-38.501,37.248S16.893,62.686,24.994,57.996z"/>
			<path d="M24.006,56.105c0,0,0.183-0.094,0.537-0.277c0.269-0.149,1.099-0.54,1.959-0.805c1.743-0.607,4.579-0.887,7.67-0.196
				c3.109,0.639,6.429,2.021,10.142,3.424c3.715,1.402,7.873,2.824,12.553,3.588c2.34,0.382,4.786,0.583,7.353,0.551
				c2.441-0.054,5.096-0.402,7.754-0.97c2.675-0.564,5.411-1.344,8.23-2.205c2.825-0.854,5.721-1.815,8.855-2.576
				c1.572-0.371,3.206-0.698,4.975-0.809c1.759-0.084,3.728,0.004,5.666,0.88c0.242,0.098,0.477,0.215,0.705,0.355l0.344,0.201
				l0.171,0.102c-0.094-0.071,0.226,0.155,0.212,0.148l0.059,0.046l0.471,0.367c0.154,0.118,0.306,0.229,0.529,0.46
				c0.872,0.836,1.445,1.614,1.934,2.467c0.983,1.701,1.529,3.537,1.804,5.368c0.283,1.837,0.241,3.68,0.007,5.482
				c-0.227,1.805-0.677,3.573-1.328,5.256c-1.249,3.397-3.283,6.446-5.709,9.054c-4.89,5.257-11.396,8.496-17.879,10.366
				c-3.256,0.957-6.55,1.608-9.812,1.989c-3.263,0.435-6.495,0.576-9.665,0.605l-0.297,0.005l-0.351-0.009l-0.577-0.016
				l-1.149-0.032c-0.771-0.028-1.511-0.027-2.298-0.079c-1.581-0.147-3.18-0.192-4.699-0.429c-0.765-0.103-1.525-0.205-2.281-0.307
				c-0.755-0.112-1.502-0.281-2.246-0.418c-1.492-0.249-2.942-0.677-4.379-1.039c-2.846-0.866-5.59-1.865-8.103-3.201
				c-2.509-1.331-4.819-2.876-6.831-4.634c-3.984-3.567-6.744-7.852-8.138-12.002c-0.713-2.07-1.138-4.088-1.346-5.98
				c-0.178-1.898-0.138-3.664,0.045-5.258c0.196-1.596,0.582-3.017,1.019-4.239c0.505-1.216,1.02-2.241,1.648-3.023
				c0.151-0.196,0.282-0.383,0.428-0.551c0.161-0.163,0.312-0.315,0.451-0.456c0.273-0.283,0.524-0.508,0.772-0.669
				c0.47-0.325,0.713-0.492,0.713-0.492L24.006,56.105z M26.063,59.842c0.011,0.043-0.386,0.16-1.059,1.051
				c-0.347,0.42-0.68,1.121-1.027,1.968c-0.296,0.891-0.583,1.964-0.721,3.233c-0.125,1.269-0.14,2.704,0.025,4.264
				c0.196,1.557,0.572,3.228,1.189,4.942c1.207,3.441,3.555,6.975,6.969,9.96c1.736,1.464,3.723,2.791,5.925,3.937
				c2.202,1.154,4.659,2.024,7.225,2.789c1.309,0.314,2.616,0.698,3.992,0.914c0.684,0.12,1.365,0.271,2.062,0.369
				c0.7,0.089,1.404,0.178,2.112,0.268c1.419,0.213,2.831,0.231,4.268,0.364c0.726,0.045,1.51,0.04,2.268,0.062l1.15,0.024
				l0.577,0.012l0.227,0.005l0.281-0.007c2.998-0.074,6.05-0.135,9.088-0.53c3.048-0.329,6.089-0.908,9.057-1.753
				c5.925-1.648,11.656-4.508,15.812-8.918c2.067-2.187,3.777-4.709,4.814-7.471c0.546-1.368,0.919-2.794,1.108-4.224
				c0.197-1.426,0.246-2.87,0.044-4.241c-0.189-1.369-0.584-2.679-1.199-3.767c-0.288-0.55-0.709-1.048-0.968-1.337
				c-0.035-0.075-0.202-0.206-0.364-0.332l-0.468-0.372l-0.058-0.047c-0.051-0.04,0.223,0.164,0.087,0.067l-0.086-0.049l-0.17-0.101
				c-0.108-0.075-0.227-0.136-0.355-0.184c-1.97-0.934-5.004-0.538-7.828,0.112c-2.874,0.663-5.757,1.578-8.626,2.415
				c-2.871,0.843-5.738,1.631-8.608,2.205c-2.881,0.578-5.708,0.935-8.592,0.967c-2.757-0.001-5.452-0.246-7.988-0.64
				c-5.084-0.814-9.546-2.338-13.331-3.753c-3.791-1.417-6.993-2.654-9.55-3.14c-2.563-0.518-4.38-0.252-5.541,0.153
				c-0.606,0.211-0.859,0.314-1.288,0.547c-0.352,0.187-0.534,0.283-0.534,0.283L26.063,59.842z"/>
		</g>
		<path style="fill:#FFFFFF;stroke:#000000;stroke-width:4;stroke-linecap:round;stroke-linejoin:round;stroke-miterlimit:10;" d="
			M36.746,72.603c0,0,11.999,7.615,26.749,7.615s23-7.275,23-7.275"/>
	</g>
</g>
<g id="Layer_1">
</g>
</svg>
