<?xml version="1.0" encoding="iso-8859-1"?>
<!-- Generator: Adobe Illustrator 19.2.0, SVG Export Plug-In . SVG Version: 6.00 Build 0)  -->
<!DOCTYPE svg PUBLIC "-//W3C//DTD SVG 1.1//EN" "http://www.w3.org/Graphics/SVG/1.1/DTD/svg11.dtd">
<svg version="1.1" xmlns="http://www.w3.org/2000/svg" xmlns:xlink="http://www.w3.org/1999/xlink" x="0px" y="0px"
	 viewBox="0 0 124.644 125.376" style="enable-background:new 0 0 124.644 125.376;" xml:space="preserve">
<g id="nasin">
	<g>
		<path style="fill:#FFFFFF;" d="M43.237,118.633c-13.35,5.969-29.181,1.683-36.947-10.649
			c-8.539-13.558-1.713-35.401,12.662-40.901c-6.25-1.824-11.75-8.5-10.75-15.25c1.482-10.007,11.626-13.874,25.376-11.874
			c-7.626-11.876,0.374-24.375,17.457-22.126l13.667,1.355l3.328,27.645L43.237,118.633z"/>
		<path d="M43.972,120.493l-2.608,1.071c-0.979,0.306-1.968,0.644-2.951,0.907c-0.979,0.202-1.951,0.463-2.942,0.61
			c-0.996,0.109-1.986,0.307-2.991,0.336c-2.004,0.112-4.025,0.072-6.02-0.203l-1.497-0.208c-0.498-0.076-0.985-0.212-1.478-0.316
			l-1.474-0.341l-1.442-0.461c-0.973-0.278-1.902-0.679-2.832-1.078c-0.948-0.36-1.819-0.884-2.72-1.349
			c-0.91-0.449-1.718-1.076-2.58-1.611c-0.843-0.565-1.607-1.241-2.412-1.861c-0.762-0.671-1.479-1.395-2.218-2.095
			c-0.666-0.768-1.345-1.529-1.988-2.317l-0.886-1.243l-0.441-0.623l-0.22-0.312l-0.055-0.078l-0.014-0.02l-0.093-0.16l-0.021-0.038
			l-0.085-0.154l-1.356-2.471c-0.414-1-0.811-2.013-1.198-3.027c-0.294-0.998-0.528-1.989-0.787-2.987
			c-0.219-1-0.312-2.018-0.468-3.028c-0.154-1.011-0.111-2.029-0.171-3.044c-0.079-1.018,0.067-2.023,0.108-3.035
			c0.028-1.016,0.213-2.009,0.371-3.007c0.084-0.498,0.151-0.999,0.25-1.494l0.373-1.467l0.378-1.467
			c0.138-0.485,0.329-0.955,0.492-1.433c0.343-0.951,0.653-1.914,1.126-2.814c0.461-0.903,0.815-1.855,1.379-2.708
			c0.544-0.86,1.004-1.768,1.626-2.581c0.627-0.808,1.197-1.657,1.879-2.424c0.711-0.745,1.389-1.519,2.138-2.229
			c0.797-0.665,1.577-1.35,2.397-1.985c0.879-0.567,1.754-1.142,2.646-1.685l2.868-1.325l0.194,4.751
			c-1.211-0.397-2.402-0.855-3.465-1.509c-1.089-0.613-2.081-1.359-3.011-2.166c-0.91-0.83-1.776-1.709-2.508-2.704
			c-0.755-0.974-1.397-2.042-1.934-3.168c-0.525-1.133-0.947-2.328-1.19-3.58c-0.142-0.618-0.189-1.265-0.254-1.899
			c0.012-0.645-0.053-1.288,0.046-1.93l0.109-0.961l0.007-0.06l0.035-0.18l0.023-0.098l0.046-0.196l0.093-0.392
			c0.137-0.537,0.201-0.998,0.462-1.669c0.414-1.287,0.979-2.393,1.646-3.448c0.373-0.503,0.705-1.039,1.124-1.501
			c0.433-0.448,0.839-0.926,1.301-1.334c0.479-0.387,0.947-0.792,1.441-1.151l1.54-0.971l1.615-0.781
			c0.544-0.238,1.105-0.414,1.656-0.621c0.549-0.223,1.121-0.32,1.68-0.48c0.56-0.162,1.125-0.273,1.691-0.36
			c1.13-0.23,2.262-0.31,3.391-0.418c1.126-0.026,2.255-0.108,3.37-0.056c0.558,0.018,1.119,0.019,1.675,0.052l1.663,0.134
			c1.111,0.075,2.199,0.277,3.299,0.399l-1.509,2.343l-0.832-1.495c-0.279-0.497-0.563-0.991-0.753-1.54l-0.635-1.606
			c-0.186-0.546-0.294-1.123-0.441-1.684l-0.204-0.848l-0.097-0.874c-0.048-0.585-0.151-1.166-0.146-1.756l0.091-1.776
			c0.031-0.592,0.218-1.17,0.326-1.756c0.073-0.289,0.109-0.589,0.203-0.873l0.317-0.842c0.227-0.555,0.391-1.143,0.73-1.645
			c0.307-0.516,0.597-1.049,0.933-1.547l1.142-1.399c0.366-0.487,0.863-0.827,1.296-1.246l0.676-0.598
			c0.237-0.182,0.493-0.333,0.74-0.5c0.501-0.319,0.995-0.667,1.513-0.958l1.61-0.748c0.533-0.276,1.094-0.437,1.655-0.608
			c0.561-0.169,1.122-0.355,1.688-0.505l1.716-0.306c0.574-0.101,1.149-0.217,1.723-0.227c1.144-0.045,2.313-0.207,3.446-0.103
			l1.713,0.09l1.56,0.107c2.119,0.149,4.234,0.343,6.349,0.539c2.116,0.178,4.226,0.43,6.338,0.645l0.008,0.001
			c1.171,0.119,2.067,1.04,2.201,2.162c0.276,2.304,0.484,4.616,0.725,6.924c0.228,2.31,0.415,4.624,0.624,6.936l1.224,13.875
			l0.009,0.104c0.02,0.229-0.015,0.456-0.091,0.658c-1.12,2.962-2.214,5.932-3.268,8.917l-1.578,4.478l-1.514,4.5l-1.442,4.524
			l-1.371,4.549l-2.726,9.104c-0.444,1.521-0.931,3.027-1.4,4.539c-0.465,1.514-0.979,3.01-1.466,4.516
			c-0.484,1.507-1.015,2.998-1.521,4.497l-1.554,4.486c-1.046,2.987-2.122,5.964-3.228,8.93c-1.104,2.967-2.255,5.918-3.448,8.854
			l-0.033,0.08C44.879,119.896,44.462,120.29,43.972,120.493z M41.611,117.105c0.796-2.751,1.616-5.495,2.485-8.221
			c0.96-3.017,1.95-6.023,2.97-9.02l1.545-4.489c0.527-1.492,1.029-2.993,1.578-4.478c0.546-1.486,1.065-2.981,1.633-4.459
			c0.564-1.479,1.11-2.965,1.699-4.436l3.472-8.846l1.728-4.426l1.657-4.451l1.585-4.475l1.521-4.497
			c1.012-2.999,1.984-6.011,2.93-9.033l-0.081,0.762l-2.104-13.769c-0.345-2.296-0.713-4.588-1.04-6.886
			c-0.314-2.299-0.661-4.595-0.939-6.898l2.208,2.163c-2.114-0.204-4.231-0.372-6.342-0.612c-2.112-0.223-4.224-0.447-6.331-0.718
			l-3.073-0.355c-0.981-0.176-1.941-0.093-2.918-0.14c-0.493-0.035-0.965,0.031-1.443,0.079l-1.439,0.137
			c-0.467,0.088-0.925,0.208-1.391,0.307c-0.466,0.101-0.939,0.191-1.366,0.382l-1.326,0.489c-0.422,0.197-0.816,0.442-1.23,0.657
			c-0.202,0.114-0.418,0.214-0.612,0.34l-0.547,0.422c-0.348,0.297-0.779,0.522-1.072,0.875l-0.949,1.005
			c-0.27,0.37-0.501,0.767-0.76,1.148c-0.29,0.366-0.416,0.817-0.614,1.233l-0.281,0.634c-0.084,0.215-0.118,0.448-0.175,0.672
			c-0.084,0.456-0.255,0.896-0.28,1.365l-0.095,1.404c-0.015,0.47,0.073,0.944,0.1,1.416c0.022,0.236,0.033,0.474,0.069,0.709
			l0.18,0.698c0.129,0.463,0.212,0.937,0.373,1.393l0.551,1.35c0.156,0.46,0.41,0.884,0.657,1.31l0.724,1.285l0.011,0.019
			c0.424,0.753,0.158,1.706-0.595,2.13c-0.292,0.165-0.615,0.225-0.925,0.193c-1.036-0.105-2.073-0.26-3.11-0.306l-1.554-0.087
			c-0.517-0.018-1.033-0.004-1.549-0.008c-1.035-0.033-2.052,0.092-3.072,0.16c-1.006,0.145-2.017,0.258-2.988,0.504
			c-0.494,0.096-0.979,0.214-1.445,0.375c-0.466,0.16-0.961,0.258-1.399,0.467c-0.445,0.194-0.908,0.357-1.339,0.569l-1.26,0.679
			l-1.152,0.802c-0.359,0.292-0.685,0.616-1.032,0.915c-0.327,0.319-0.593,0.687-0.897,1.021c-0.289,0.346-0.493,0.753-0.75,1.119
			c-0.44,0.784-0.805,1.63-1.015,2.402c-0.148,0.329-0.225,0.942-0.326,1.452l-0.073,0.397l-0.036,0.198l-0.018,0.099l-0.005,0.025
			l-0.002,0.012c0.01-0.054-0.025,0.139,0.021-0.118l-0.002,0.04l-0.034,0.645c-0.057,0.426,0.034,0.862,0.033,1.29
			c0.082,0.428,0.105,0.862,0.226,1.286c0.194,0.854,0.522,1.69,0.925,2.493c0.416,0.799,0.91,1.57,1.498,2.274
			c0.563,0.723,1.241,1.356,1.935,1.954c0.714,0.574,1.464,1.106,2.266,1.518c0.788,0.448,1.625,0.744,2.452,1.021
			c1.332,0.446,2.05,1.887,1.604,3.219c-0.228,0.68-0.715,1.201-1.315,1.487l-0.095,0.045l-2.225,1.054l-2.081,1.353
			c-0.65,0.52-1.272,1.085-1.915,1.617c-0.603,0.584-1.15,1.235-1.733,1.843c-0.558,0.635-1.022,1.36-1.543,2.03
			C9.833,78,9.46,78.786,9.003,79.508c-0.476,0.714-0.759,1.542-1.148,2.307c-0.399,0.764-0.649,1.595-0.957,2.401
			c-0.142,0.407-0.314,0.805-0.435,1.219l-0.331,1.253l-0.335,1.252c-0.088,0.422-0.146,0.851-0.221,1.276
			c-0.142,0.852-0.317,1.701-0.341,2.563c-0.036,0.858-0.185,1.72-0.116,2.576c0.05,0.853-0.009,1.722,0.119,2.565
			c0.13,0.84,0.19,1.698,0.365,2.527c0.213,0.815,0.398,1.653,0.62,2.453c0.286,0.735,0.562,1.47,0.821,2.219l1.303,2.48
			l0.082,0.155l0.021,0.039c-0.033-0.056,0.089,0.154-0.072-0.122l0.011,0.016l0.046,0.066l0.182,0.264l0.363,0.529l0.723,1.062
			c0.531,0.669,1.091,1.317,1.635,1.979c0.615,0.594,1.204,1.218,1.835,1.797c0.674,0.529,1.302,1.119,2.007,1.607
			c0.725,0.459,1.39,1.015,2.16,1.404c0.759,0.404,1.485,0.874,2.291,1.188c0.786,0.354,1.57,0.716,2.399,0.964l1.226,0.421
			l1.259,0.312c0.421,0.096,0.837,0.225,1.263,0.297l1.284,0.2c1.712,0.274,3.455,0.329,5.191,0.277
			c0.871,0.009,1.732-0.145,2.601-0.205c0.865-0.098,1.715-0.303,2.576-0.446c0.832-0.196,1.626-0.443,2.447-0.653L41.611,117.105z"
			/>
	</g>
	<g>
		<path style="fill:#FFFFFF;" d="M122.201,72.996v27.92c0,12.104-9.812,21.917-21.917,21.917H56.451
			c-12.104,0-21.917-9.812-21.917-21.917v-27.92c0-24.208,19.625-43.833,43.833-43.833S122.201,48.787,122.201,72.996z"/>
		<path d="M124.603,72.996c0,0,0.01,4.784,0.029,13.156c0.004,4.22,0.008,9.345,0.013,15.224c-0.051,0.75-0.036,1.418-0.142,2.268
			c-0.136,0.857-0.219,1.784-0.433,2.618c-0.393,1.677-0.924,3.383-1.719,5.022c-1.556,3.28-3.887,6.455-7.072,8.883
			c-0.4,0.299-0.802,0.6-1.206,0.903c-0.414,0.288-0.858,0.537-1.29,0.807c-0.852,0.566-1.805,0.97-2.738,1.43
			c-1.918,0.794-3.953,1.468-6.095,1.748c-1.063,0.206-2.15,0.231-3.244,0.287c-1.068,0.04-1.998,0.014-3.015,0.024
			c-1.997,0.003-4.025,0.007-6.081,0.01c-8.223-0.012-16.894-0.024-25.864-0.037c-2.243-0.012-4.504-0.025-6.781-0.037l-1.711-0.016
			l-0.981-0.014l-0.858-0.051l-0.859-0.051l-0.43-0.026l-0.492-0.07l-1.99-0.315c-5.011-1.092-9.745-3.739-13.158-7.676
			c-1.712-1.948-3.158-4.156-4.167-6.569c-1.004-2.412-1.618-4.985-1.828-7.59l-0.081-1.958l0.015-1.794l0.034-3.582l0.068-7.174
			c0.013-4.784,0.025-9.568,0.038-14.333l0.002-0.893l0.005-0.323l0.012-0.223l0.023-0.446l0.094-1.782l0.094-1.779
			c0.047-0.601,0.174-1.246,0.258-1.866l0.288-1.875c0.091-0.626,0.179-1.253,0.353-1.842c0.305-1.197,0.61-2.391,0.915-3.583
			c2.977-9.379,8.817-17.682,16.399-23.233c0.935-0.71,1.858-1.428,2.874-2c1-0.593,1.962-1.246,2.984-1.778
			c1.038-0.504,2.07-1.006,3.098-1.505c1.027-0.502,2.124-0.823,3.175-1.238l1.588-0.584l1.627-0.427
			c1.086-0.263,2.15-0.608,3.239-0.793c1.092-0.171,2.178-0.34,3.257-0.509l0.808-0.125l0.813-0.047
			c0.541-0.03,1.081-0.059,1.619-0.088c0.538-0.029,1.074-0.057,1.608-0.085l0.4-0.021l0.2-0.01c-0.064-0.003,0.199-0.002,0.207,0
			l0.095,0.004l0.761,0.036c1.012,0.048,2.018,0.095,3.015,0.142c0.486,0.002,1.02,0.087,1.548,0.166
			c0.527,0.077,1.051,0.154,1.574,0.23c1.038,0.169,2.103,0.265,3.068,0.555c0.984,0.25,1.96,0.497,2.928,0.743
			c0.972,0.233,1.879,0.644,2.808,0.954c1.873,0.597,3.584,1.487,5.286,2.296c0.87,0.372,1.634,0.916,2.434,1.374
			c0.784,0.486,1.585,0.927,2.328,1.437c0.725,0.537,1.441,1.068,2.148,1.593c0.353,0.263,0.705,0.525,1.054,0.785
			c0.342,0.268,0.65,0.573,0.974,0.856c1.271,1.156,2.558,2.235,3.611,3.482c0.549,0.601,1.091,1.194,1.624,1.777
			c0.516,0.598,0.957,1.243,1.427,1.848c3.718,4.892,5.914,9.853,7.297,14.033c1.225,4.239,1.759,7.683,1.924,10.038
			C124.534,71.737,124.603,72.996,124.603,72.996z M119.799,72.996c0,0-0.052-1.13-0.15-3.249c-0.124-2.116-0.582-5.205-1.635-9.025
			c-1.211-3.762-3.157-8.235-6.474-12.668c-0.42-0.548-0.81-1.136-1.272-1.677c-0.478-0.529-0.963-1.066-1.456-1.611
			c-0.937-1.138-2.099-2.111-3.236-3.166c-0.29-0.257-0.564-0.538-0.872-0.782c-0.314-0.236-0.63-0.473-0.948-0.712
			c-0.635-0.479-1.278-0.965-1.928-1.455c-0.668-0.466-1.391-0.865-2.096-1.31c-0.72-0.418-1.403-0.924-2.189-1.259
			c-1.535-0.736-3.071-1.563-4.763-2.107c-0.838-0.284-1.653-0.671-2.532-0.884c-0.874-0.228-1.755-0.458-2.644-0.69
			c-0.891-0.279-1.78-0.348-2.68-0.506c-0.449-0.072-0.901-0.144-1.354-0.217c-0.451-0.075-0.898-0.16-1.414-0.167
			c-0.997-0.054-2.002-0.108-3.014-0.163l-0.76-0.041l-0.095-0.005c-0.056-0.004,0.143,0.006,0.016,0.004l-0.182,0.009l-0.364,0.018
			c-0.485,0.023-0.972,0.046-1.461,0.07l-1.471,0.068l-0.739,0.035l-0.734,0.111c-0.98,0.146-1.967,0.292-2.96,0.44
			c-0.991,0.158-1.956,0.473-2.945,0.701l-1.482,0.373l-1.445,0.524c-0.956,0.373-1.959,0.649-2.894,1.102
			c-0.938,0.447-1.88,0.897-2.827,1.349c-0.934,0.477-1.81,1.07-2.727,1.601c-0.933,0.51-1.775,1.163-2.631,1.804
			C46.48,44.505,41.12,52.08,38.359,60.63c-0.282,1.088-0.565,2.179-0.848,3.271c-0.167,0.546-0.241,1.092-0.321,1.637l-0.249,1.639
			c-0.074,0.554-0.191,1.076-0.234,1.657l-0.086,1.78l-0.086,1.782l-0.022,0.446l-0.011,0.223c-0.003,0.059,0.004-0.114,0.001,0.012
			l0,0.112l0.002,0.893c0.013,4.765,0.025,9.549,0.038,14.333l0.068,7.174l0.034,3.582l0.019,1.785l0.1,1.613
			c0.217,2.139,0.758,4.23,1.611,6.183c0.858,1.953,2.077,3.725,3.495,5.283c2.826,3.155,6.705,5.199,10.711,6.005l1.427,0.206
			c0.121,0.017,0.23,0.041,0.361,0.053l0.431,0.018l0.86,0.036l0.859,0.036l0.734-0.008l1.711-0.016
			c2.278-0.012,4.539-0.025,6.781-0.037c8.97-0.013,17.641-0.026,25.864-0.037c2.056,0.003,4.083,0.007,6.081,0.01
			c0.979-0.007,2.033,0.022,2.929-0.014c0.869-0.049,1.737-0.052,2.578-0.221c1.702-0.207,3.31-0.749,4.836-1.366
			c0.737-0.371,1.502-0.674,2.176-1.13c0.343-0.215,0.7-0.406,1.029-0.635l0.96-0.717c2.547-1.918,4.407-4.448,5.658-7.048
			c0.643-1.299,1.063-2.656,1.386-3.988c0.177-0.665,0.211-1.27,0.336-1.893c0.07-0.276,0.059-0.709,0.087-1.062
			c0.019-0.37,0.039-0.737,0.058-1.1c0.018-5.782,0.034-10.823,0.046-14.975C119.789,77.78,119.799,72.996,119.799,72.996z"/>
	</g>
	<g>
		<g>
			<circle style="fill:#FFFFFF;" cx="64.701" cy="16.166" r="13.667"/>
			<path d="M80.615,16.28c0,0-0.021,0.335-0.062,0.962c-0.015,0.166-0.011,0.311-0.044,0.546c-0.036,0.238-0.076,0.498-0.119,0.778
				c-0.048,0.277-0.088,0.589-0.158,0.892c-0.079,0.294-0.162,0.606-0.25,0.935c-0.385,1.302-0.987,2.87-2.062,4.433
				c-1.058,1.563-2.533,3.152-4.471,4.43c-1.938,1.265-4.342,2.197-6.976,2.485c-0.327,0.047-0.661,0.04-0.995,0.061l-0.503,0.02
				l-0.252,0.009l-0.325-0.013c-0.606-0.043-1.131-0.032-1.917-0.171c-1.49-0.191-2.772-0.622-4.116-1.193
				c-1.321-0.58-2.55-1.392-3.694-2.325c-1.122-0.964-2.127-2.082-2.985-3.324c-0.839-1.257-1.486-2.649-1.958-4.105
				c-0.199-0.739-0.408-1.479-0.499-2.243c-0.061-0.379-0.125-0.758-0.133-1.143l-0.032-0.575l-0.015-0.287l-0.007-0.144
				l-0.004-0.072l-0.002-0.036c0.001-0.057-0.004,0.077,0.001-0.137c0.037-0.698-0.004-1.262,0.135-2.142
				c0.083-0.84,0.278-1.573,0.461-2.321c0.448-1.473,1.057-2.898,1.866-4.201c0.832-1.285,1.812-2.467,2.946-3.471
				c1.15-0.978,2.394-1.838,3.741-2.461c1.352-0.595,2.753-1.06,4.171-1.254c0.703-0.143,1.411-0.155,2.108-0.203l0.131-0.007
				l0.065-0.004L64.692,0l0.155,0.004l0.22,0.011l0.439,0.022c0.31,0.023,0.541,0.012,0.909,0.062
				c0.714,0.108,1.483,0.184,2.095,0.37c0.321,0.084,0.639,0.167,0.955,0.249c0.307,0.11,0.612,0.22,0.914,0.328
				c1.214,0.427,2.289,1.064,3.284,1.707c1.964,1.344,3.427,3.004,4.457,4.62c1.049,1.614,1.615,3.214,1.969,4.534
				c0.174,0.666,0.302,1.264,0.356,1.795c0.078,0.527,0.133,0.975,0.133,1.342c0.025,0.731,0.038,1.121,0.038,1.121L80.615,16.28z
				 M76.118,16.166c0,0-0.021-0.28-0.059-0.805c-0.003-0.264-0.059-0.583-0.129-0.956c-0.046-0.378-0.157-0.799-0.297-1.266
				c-0.286-0.926-0.715-2.043-1.497-3.15c-0.767-1.107-1.829-2.236-3.215-3.136c-0.706-0.427-1.462-0.835-2.297-1.132
				c-0.813-0.345-1.766-0.507-2.544-0.635c-0.202-0.04-0.554-0.036-0.826-0.056l-0.439-0.022l-0.22-0.011
				C64.473,4.994,64.729,5,64.695,5l-0.023,0.001l-0.045,0.002l-0.091,0.004c-0.483,0.027-0.979,0.005-1.466,0.098
				c-0.99,0.096-1.966,0.402-2.925,0.781c-0.966,0.377-1.874,0.934-2.739,1.575c-0.848,0.668-1.605,1.47-2.271,2.359
				c-0.648,0.903-1.154,1.917-1.522,2.987c-0.151,0.545-0.325,1.102-0.39,1.598c-0.125,0.439-0.134,1.224-0.191,1.864
				c0.006-0.193,0.002-0.038,0.004-0.074l0.001,0.027l0.003,0.054l0.005,0.107l0.01,0.215l0.019,0.43
				c-0.002,0.288,0.048,0.571,0.091,0.853c0.056,0.572,0.216,1.121,0.351,1.676c0.345,1.087,0.812,2.133,1.43,3.083
				c0.64,0.931,1.373,1.797,2.231,2.505c0.871,0.686,1.794,1.291,2.786,1.711c0.494,0.207,0.996,0.396,1.503,0.534l0.763,0.192
				c0.251,0.061,0.477,0.072,0.713,0.115c0.405,0.097,1.083,0.099,1.657,0.13l0.111,0.005l0.055,0.003l0.028,0.001
				c0.032,0.001-0.175-0.005-0.076-0.003l0.189-0.013l0.375-0.024c0.248-0.022,0.498-0.014,0.741-0.057
				c1.951-0.259,3.703-0.979,5.113-1.936c1.411-0.967,2.462-2.166,3.2-3.326c0.756-1.158,1.15-2.307,1.404-3.252
				c0.058-0.239,0.113-0.465,0.164-0.677c0.042-0.207,0.052-0.383,0.08-0.556c0.026-0.17,0.05-0.327,0.072-0.471
				c0.023-0.147,0.018-0.356,0.027-0.502c0.023-0.628,0.036-0.964,0.036-0.964L76.118,16.166z"/>
		</g>
		<g>
			<circle style="fill:#FFFFFF;" cx="93.035" cy="16.166" r="13.667"/>
			<path d="M109.198,16.293c0,0-0.022,0.335-0.063,0.962c-0.015,0.167-0.011,0.308-0.045,0.549
				c-0.037,0.243-0.077,0.509-0.121,0.795c-0.049,0.282-0.091,0.603-0.162,0.911c-0.08,0.298-0.165,0.615-0.255,0.95
				c-0.387,1.323-1.007,2.916-2.124,4.481c-1.091,1.57-2.608,3.156-4.586,4.403c-1.98,1.229-4.393,2.146-7.032,2.413
				c-0.328,0.044-0.662,0.034-0.996,0.052l-0.503,0.016l-0.252,0.007l-0.325-0.013c-0.606-0.043-1.131-0.032-1.917-0.171
				c-1.49-0.191-2.772-0.622-4.116-1.193c-1.321-0.58-2.55-1.392-3.694-2.325c-1.122-0.964-2.127-2.082-2.985-3.324
				c-0.839-1.257-1.486-2.649-1.958-4.105c-0.199-0.739-0.408-1.479-0.499-2.243c-0.061-0.379-0.125-0.758-0.133-1.143l-0.032-0.575
				l-0.015-0.287l-0.007-0.144l-0.004-0.072l-0.002-0.036c0.001-0.057-0.004,0.077,0.001-0.137c0.043-0.697,0.009-1.262,0.155-2.139
				c0.089-0.837,0.29-1.567,0.479-2.312c0.454-1.468,1.086-2.877,1.915-4.155c0.849-1.262,1.845-2.41,2.976-3.389
				c1.15-0.951,2.389-1.782,3.723-2.379c1.332-0.584,2.712-1.042,4.108-1.231c0.693-0.141,1.389-0.151,2.075-0.198l0.129-0.007
				l0.064-0.004l0.032-0.002l0.143,0.003l0.221,0.007l0.439,0.015c0.308,0.018,0.546,0.002,0.906,0.047
				c0.701,0.097,1.456,0.16,2.065,0.335c0.318,0.078,0.634,0.155,0.948,0.232c0.305,0.105,0.608,0.208,0.909,0.311
				c1.205,0.411,2.291,1.002,3.297,1.621c1.987,1.288,3.496,2.91,4.572,4.507c1.101,1.593,1.704,3.199,2.077,4.531
				c0.186,0.671,0.325,1.275,0.388,1.811c0.087,0.533,0.15,0.987,0.155,1.359c0.036,0.742,0.055,1.137,0.055,1.137L109.198,16.293z
				 M104.202,16.166c0,0-0.015-0.274-0.042-0.789c0.003-0.259-0.046-0.572-0.107-0.94c-0.037-0.372-0.138-0.787-0.265-1.249
				c-0.266-0.915-0.659-2.025-1.389-3.153c-0.72-1.126-1.738-2.292-3.1-3.249c-0.695-0.451-1.441-0.905-2.284-1.219
				c-0.819-0.367-1.778-0.553-2.587-0.704c-0.209-0.045-0.555-0.046-0.829-0.072l-0.439-0.03l-0.22-0.015
				c-0.11-0.003,0.119,0.002,0.087,0.002l-0.023,0.001l-0.046,0.002l-0.093,0.004c-0.494,0.028-1,0.007-1.498,0.103
				c-1.011,0.1-2.008,0.414-2.987,0.804c-0.979,0.403-1.893,0.99-2.758,1.657c-0.85,0.693-1.592,1.528-2.241,2.44
				c-0.628,0.929-1.11,1.958-1.473,3.033c-0.145,0.549-0.313,1.108-0.372,1.607c-0.119,0.441-0.121,1.226-0.171,1.866
				c0.006-0.193,0.002-0.038,0.004-0.074l0.001,0.027l0.003,0.054l0.005,0.107l0.01,0.215l0.019,0.43
				c-0.002,0.288,0.048,0.571,0.091,0.853c0.056,0.572,0.216,1.121,0.351,1.676c0.345,1.087,0.812,2.133,1.43,3.083
				c0.64,0.931,1.373,1.797,2.231,2.505c0.871,0.686,1.794,1.291,2.786,1.711c0.494,0.207,0.996,0.396,1.503,0.534l0.763,0.192
				c0.251,0.061,0.477,0.072,0.713,0.115c0.405,0.097,1.083,0.099,1.657,0.13l0.111,0.005l0.055,0.003l0.028,0.001
				c0.032,0.001-0.175-0.006-0.076-0.004l0.188-0.015l0.375-0.029c0.248-0.025,0.498-0.02,0.739-0.066
				c1.945-0.281,3.687-1.014,5.057-2.008c1.371-0.997,2.38-2.2,3.085-3.353c0.714-1.155,1.09-2.28,1.342-3.203
				c0.056-0.234,0.11-0.455,0.16-0.663c0.041-0.202,0.049-0.37,0.076-0.537c0.025-0.164,0.048-0.315,0.07-0.454
				c0.022-0.142,0.017-0.354,0.027-0.5c0.022-0.628,0.034-0.964,0.034-0.964L104.202,16.166z"/>
		</g>
	</g>
	<g>
		<path d="M122.882,64.092c0,0-0.279,0.227-0.803,0.654c-0.262,0.213-0.585,0.476-0.964,0.785c-0.418,0.302-0.897,0.648-1.435,1.036
			c-0.539,0.401-1.147,0.787-1.811,1.205c-0.657,0.432-1.383,0.873-2.177,1.307c-0.395,0.223-0.802,0.453-1.221,0.69
			c-0.429,0.217-0.869,0.44-1.322,0.67c-0.899,0.475-1.879,0.892-2.896,1.341c-1.011,0.467-2.104,0.843-3.214,1.292
			c-1.129,0.391-2.292,0.817-3.506,1.185c-2.424,0.758-5.019,1.425-7.733,1.952c-2.716,0.512-5.54,0.954-8.429,1.204
			c-2.897,0.293-5.803,0.4-8.799,0.408c-2.829-0.043-5.884-0.18-8.742-0.5c-1.444-0.127-2.866-0.362-4.275-0.545
			c-1.399-0.259-2.792-0.446-4.14-0.76c-2.717-0.522-5.289-1.287-7.713-2.04c-2.41-0.807-4.663-1.653-6.687-2.578
			c-1.015-0.454-1.984-0.898-2.876-1.387c-0.907-0.455-1.745-0.934-2.522-1.403c-0.789-0.445-1.502-0.908-2.154-1.349
			c-0.66-0.427-1.258-0.831-1.775-1.233c-0.524-0.392-0.996-0.734-1.393-1.051c-0.388-0.33-0.718-0.611-0.985-0.838
			c-0.534-0.455-0.818-0.698-0.818-0.698c-0.63-0.537-0.705-1.483-0.168-2.112c0.519-0.608,1.419-0.699,2.047-0.221l0.081,0.062
			c0,0,0.275,0.21,0.791,0.605c0.257,0.197,0.574,0.44,0.947,0.726c0.389,0.267,0.836,0.573,1.336,0.916
			c0.491,0.354,1.064,0.709,1.695,1.083c0.622,0.387,1.303,0.793,2.06,1.181c0.743,0.411,1.543,0.829,2.414,1.223
			c0.854,0.423,1.772,0.831,2.741,1.233c1.926,0.828,4.08,1.577,6.381,2.289c2.318,0.664,4.779,1.312,7.37,1.806
			c1.285,0.291,2.619,0.457,3.954,0.695c1.348,0.162,2.706,0.379,4.088,0.488c2.782,0.285,5.49,0.389,8.419,0.413
			c2.763-0.001,5.622-0.069,8.37-0.331c2.764-0.217,5.464-0.618,8.057-1.085c2.588-0.498,5.071-1.067,7.39-1.728
			c1.162-0.321,2.272-0.699,3.352-1.043c1.058-0.4,2.106-0.73,3.067-1.148c0.97-0.398,1.902-0.777,2.761-1.192
			c0.434-0.199,0.857-0.392,1.269-0.58c0.401-0.207,0.791-0.407,1.168-0.602c0.763-0.378,1.457-0.763,2.084-1.142
			c0.638-0.367,1.222-0.705,1.707-1.04c0.501-0.326,0.947-0.618,1.336-0.871c0.395-0.289,0.732-0.534,1.004-0.733
			c0.545-0.398,0.836-0.611,0.836-0.611c0.669-0.489,1.608-0.344,2.097,0.325C123.618,62.689,123.494,63.591,122.882,64.092z"/>
	</g>
	<g>
		<path d="M122.882,82.591c0,0-0.279,0.227-0.803,0.654c-0.262,0.213-0.585,0.476-0.964,0.785c-0.418,0.302-0.897,0.648-1.435,1.036
			c-0.539,0.401-1.147,0.787-1.811,1.205c-0.657,0.432-1.383,0.873-2.177,1.307c-0.395,0.223-0.802,0.453-1.221,0.69
			c-0.429,0.217-0.869,0.44-1.322,0.67c-0.899,0.475-1.879,0.892-2.896,1.341c-1.011,0.467-2.104,0.843-3.214,1.292
			c-1.129,0.391-2.292,0.817-3.506,1.185c-2.424,0.758-5.019,1.425-7.733,1.952c-2.716,0.512-5.54,0.954-8.429,1.204
			c-2.897,0.293-5.803,0.4-8.799,0.408c-2.829-0.043-5.884-0.18-8.742-0.5c-1.444-0.127-2.866-0.362-4.275-0.545
			c-1.399-0.259-2.792-0.446-4.14-0.76c-2.717-0.522-5.289-1.287-7.713-2.04c-2.41-0.807-4.663-1.653-6.687-2.578
			c-1.015-0.454-1.984-0.898-2.876-1.387c-0.907-0.455-1.745-0.934-2.522-1.403c-0.789-0.445-1.502-0.908-2.154-1.349
			c-0.66-0.427-1.258-0.831-1.775-1.233c-0.524-0.392-0.996-0.734-1.393-1.051c-0.388-0.33-0.718-0.611-0.985-0.838
			c-0.534-0.455-0.818-0.698-0.818-0.698c-0.63-0.537-0.705-1.483-0.168-2.112c0.519-0.608,1.419-0.699,2.047-0.221l0.081,0.062
			c0,0,0.275,0.21,0.791,0.605c0.257,0.197,0.574,0.44,0.947,0.726c0.389,0.267,0.836,0.573,1.336,0.916
			c0.491,0.354,1.064,0.709,1.695,1.083c0.622,0.387,1.303,0.793,2.06,1.181c0.743,0.411,1.543,0.829,2.414,1.223
			c0.854,0.423,1.772,0.831,2.741,1.233c1.926,0.828,4.08,1.577,6.381,2.289c2.318,0.664,4.779,1.312,7.37,1.806
			c1.285,0.291,2.619,0.457,3.954,0.695c1.348,0.162,2.706,0.379,4.088,0.488c2.782,0.285,5.49,0.389,8.419,0.413
			c2.763-0.001,5.622-0.069,8.37-0.331c2.764-0.217,5.464-0.618,8.057-1.085c2.588-0.498,5.071-1.067,7.39-1.728
			c1.162-0.321,2.272-0.699,3.352-1.043c1.058-0.4,2.106-0.73,3.067-1.148c0.97-0.398,1.902-0.777,2.761-1.192
			c0.434-0.199,0.857-0.392,1.269-0.58c0.401-0.207,0.791-0.407,1.168-0.602c0.763-0.378,1.457-0.763,2.084-1.142
			c0.638-0.367,1.222-0.705,1.707-1.04c0.501-0.326,0.947-0.618,1.336-0.871c0.395-0.289,0.732-0.534,1.004-0.733
			c0.545-0.398,0.836-0.611,0.836-0.611c0.669-0.489,1.608-0.344,2.097,0.325C123.618,81.188,123.494,82.09,122.882,82.591z"/>
	</g>
</g>
<g id="Layer_1">
</g>
</svg>
