<?xml version="1.0" encoding="iso-8859-1"?>
<!-- Generator: Adobe Illustrator 19.2.0, SVG Export Plug-In . SVG Version: 6.00 Build 0)  -->
<!DOCTYPE svg PUBLIC "-//W3C//DTD SVG 1.1//EN" "http://www.w3.org/Graphics/SVG/1.1/DTD/svg11.dtd">
<svg version="1.1" xmlns="http://www.w3.org/2000/svg" xmlns:xlink="http://www.w3.org/1999/xlink" x="0px" y="0px"
	 viewBox="0 0 125.105 126.121" style="enable-background:new 0 0 125.105 126.121;" xml:space="preserve">
<g id="suli">
	<g id="suli_2_">
		<circle style="fill:#FFFFFF;" cx="33.081" cy="92.285" r="29.767"/>
		<g>
			<path style="fill:#FFFFFF;" d="M2.544,92.595V59.593c0-33.137,24.233-56.998,54.125-56.998l27.063,0h38.812
				c0,0-11.75,7.25-11.75,30l-0.001,60c0,16.569-9.749,30-25.562,30H50.544"/>
			<path d="M0.044,92.595L0.013,69.282l-0.008-5.828L0.001,60.54L0,59.812l0-0.182l0.009-0.299l0.016-0.364l0.065-1.456L0.22,54.6
				c0.031-0.49,0.021-0.959,0.087-1.467l0.206-1.531l0.421-3.062c0.077-0.508,0.13-1.025,0.228-1.525l0.348-1.478l0.7-2.956
				c0.126-0.49,0.215-0.99,0.372-1.472l0.489-1.44c0.678-1.911,1.223-3.872,2.139-5.693L6.466,31.2l0.316-0.693l0.379-0.661
				l0.76-1.322l1.524-2.642c0.537-0.862,1.165-1.667,1.745-2.502c0.597-0.824,1.172-1.665,1.79-2.472l2.01-2.301l1.007-1.149
				l0.504-0.574l0.554-0.526l2.23-2.091l1.117-1.043c0.379-0.34,0.802-0.629,1.201-0.945l2.431-1.855
				c0.788-0.651,1.674-1.16,2.54-1.697l2.605-1.603c1.786-0.977,3.65-1.818,5.483-2.708l2.87-1.056l1.436-0.525
				c0.477-0.18,0.956-0.355,1.455-0.464l2.961-0.76c0.987-0.251,1.969-0.531,2.983-0.645l3.02-0.457l1.51-0.223l1.523-0.078
				c4.14-0.289,7.944-0.19,11.841-0.204l11.656,0.005l46.625,0.021c1.415,0.001,2.562,1.149,2.562,2.564
				c0,0.893-0.457,1.678-1.15,2.137l-0.066,0.043c-0.139,0.09-0.505,0.374-0.772,0.592c-0.283,0.264-0.582,0.494-0.857,0.784
				c-0.566,0.544-1.099,1.147-1.615,1.765c-1.034,1.242-1.906,2.641-2.721,4.071c-1.584,2.897-2.714,6.091-3.421,9.401
				c-0.217,0.816-0.305,1.67-0.465,2.502l-0.214,1.257l-0.127,1.276c-0.076,0.852-0.192,1.698-0.237,2.555l-0.084,2.578
				c-0.071,3.497-0.023,7.148-0.04,10.715l-0.021,43.039l-0.003,5.38l-0.001,1.345l-0.006,0.766l-0.025,0.672
				c-0.048,0.912-0.035,1.756-0.133,2.725c-0.109,0.975-0.208,1.957-0.337,2.925l-0.545,2.821c-0.233,0.931-0.507,1.855-0.762,2.781
				c-0.282,0.92-0.655,1.816-0.982,2.724c-1.458,3.58-3.549,6.968-6.311,9.801c-2.749,2.834-6.186,5.075-9.952,6.367l-2.863,0.813
				l-2.922,0.483c-0.978,0.074-1.958,0.114-2.937,0.166c-0.949,0.028-1.808-0.002-2.716,0l-10.76-0.066l-10.76-0.152
				c-3.587-0.063-7.173-0.15-10.76-0.268c-1.105-0.036-1.971-0.961-1.935-2.065c0.035-1.058,0.892-1.898,1.935-1.935
				c3.587-0.117,7.173-0.205,10.76-0.268l10.76-0.152l10.76-0.066c0.885-0.011,1.82,0.002,2.663-0.03l2.433-0.138l2.386-0.396
				l2.312-0.659c3.027-1.044,5.763-2.829,8.005-5.142c2.248-2.311,4.003-5.132,5.244-8.189c0.275-0.781,0.598-1.542,0.84-2.336
				c0.216-0.803,0.454-1.6,0.658-2.407l0.473-2.462l0.282-2.419c0.09-0.814,0.081-1.769,0.127-2.647l0.025-0.672l0.002-0.579
				l-0.001-1.345l-0.002-5.38l-0.019-43.039c0.014-3.606-0.038-7.129,0.031-10.804l0.09-2.799c0.049-0.933,0.172-1.867,0.255-2.801
				l0.141-1.4L109,23.072c0.176-0.928,0.278-1.865,0.517-2.785c0.791-3.7,2.063-7.35,3.917-10.751
				c0.954-1.686,1.988-3.341,3.248-4.862c0.63-0.76,1.288-1.502,2.013-2.202c0.345-0.36,0.751-0.688,1.128-1.03
				c0.431-0.345,0.76-0.628,1.374-1.028l1.346,4.744L75.919,5.179L64.263,5.184c-3.872,0.013-7.844-0.066-11.461,0.201l-1.387,0.067
				l-1.371,0.209l-2.742,0.416c-0.923,0.097-1.811,0.359-2.706,0.589l-2.685,0.688c-0.453,0.096-0.886,0.257-1.318,0.422
				l-1.299,0.479l-2.601,0.953c-1.654,0.816-3.343,1.573-4.961,2.457l-2.355,1.456c-0.785,0.486-1.59,0.942-2.299,1.538l-2.2,1.683
				c-0.361,0.287-0.747,0.545-1.089,0.854l-1.012,0.946l-2.028,1.888l-0.505,0.474l-0.457,0.521l-0.915,1.042l-1.834,2.08
				c-0.563,0.733-1.084,1.499-1.629,2.246c-0.528,0.759-1.107,1.484-1.597,2.269l-1.391,2.405l-0.698,1.201l-0.35,0.6l-0.287,0.633
				l-1.153,2.531c-0.849,1.654-1.34,3.457-1.97,5.202l-0.455,1.317c-0.145,0.441-0.225,0.902-0.342,1.351l-0.65,2.714L6.19,47.975
				c-0.089,0.452-0.133,0.904-0.202,1.356l-0.386,2.71l-0.198,1.355c-0.064,0.453-0.057,0.961-0.089,1.44l-0.137,2.911l-0.069,1.455
				l-0.017,0.364l-0.004,0.091l-0.002,0.045c0.005-0.22,0.001-0.035,0.002-0.072l0,0.182L5.086,60.54l-0.004,2.914l-0.008,5.828
				L5.044,92.595c-0.002,1.381-1.123,2.499-2.503,2.497C1.16,95.09,0.042,93.975,0.044,92.595z"/>
		</g>
		<g>
			<path style="fill:#FFFFFF;" d="M22.21,120.428V82.095c0-23.833,13.333-37.167,37.333-37.167c8.652,0,17.666,4.514,17.666,13.166
				c0,11.167-7.666,9.501-13.041,14.834c-9.558,9.484,4.375,34.333-0.458,43.499c0,0-2.333,7.168-26,7.168
				c-19.422,0-35.167-13.543-35.167-30.25"/>
			<path d="M19.71,120.428l0.202-23.615l0.073-11.808l0.019-2.991c0.034-0.999,0.021-1.93,0.101-2.995
				c0.095-2.089,0.344-4.094,0.676-6.135c0.702-4.051,1.899-8.083,3.851-11.8c1.917-3.724,4.594-7.11,7.864-9.769
				c1.628-1.334,3.374-2.517,5.215-3.515c1.846-0.985,3.771-1.796,5.734-2.457c3.934-1.318,8.016-1.985,12.076-2.261
				c1.016-0.062,2.032-0.116,3.047-0.121c1.006-0.031,2.049-0.018,3.138,0.069c2.116,0.168,4.219,0.573,6.256,1.267
				c2.034,0.691,4.01,1.674,5.779,3.041c1.763,1.359,3.313,3.15,4.279,5.28c0.484,1.06,0.819,2.191,0.997,3.334
				c0.187,1.113,0.18,2.375,0.136,3.312c-0.058,1.147-0.197,2.21-0.474,3.335c-0.277,1.111-0.715,2.239-1.359,3.282
				c-0.641,1.046-1.509,1.953-2.426,2.68c-0.923,0.723-1.885,1.273-2.806,1.759c-1.844,0.952-3.54,1.706-4.942,2.71
				c-0.711,0.505-1.325,1.025-1.918,1.676c-0.457,0.509-0.936,1.232-1.272,1.946c-0.714,1.459-1.024,3.196-1.129,4.983
				c-0.188,3.604,0.43,7.407,1.166,11.193c0.751,3.802,1.686,7.623,2.41,11.608c0.351,1.997,0.656,4.036,0.724,6.198
				c0.042,2.144-0.055,4.506-1.269,6.924l0.161-0.38l-0.101,0.268l-0.07,0.152l-0.136,0.272c-0.09,0.165-0.173,0.289-0.263,0.434
				c-0.179,0.293-0.358,0.488-0.544,0.732c-0.373,0.423-0.755,0.833-1.153,1.153c-0.393,0.354-0.798,0.65-1.207,0.923
				c-0.406,0.3-0.822,0.527-1.238,0.763c-1.667,0.923-3.369,1.597-5.077,2.085l-1.282,0.369c-0.427,0.109-0.855,0.194-1.283,0.292
				c-0.856,0.198-1.711,0.38-2.565,0.5c-1.711,0.314-3.414,0.469-5.119,0.657c-1.698,0.1-3.403,0.263-5.094,0.279l-2.539,0.052
				l-0.635,0.013l-0.675-0.013l-1.244-0.027c-1.825-0.096-3.553-0.259-5.29-0.553c-1.73-0.306-3.455-0.67-5.138-1.193
				c-6.739-2.014-13.043-5.796-17.767-11.193c-2.337-2.708-4.272-5.805-5.568-9.184c-1.33-3.363-1.979-6.998-1.987-10.614
				c-0.003-1.381,1.114-2.502,2.494-2.505c1.372-0.003,2.488,1.099,2.505,2.467l0,0.038c0.037,2.993,0.589,5.976,1.717,8.756
				c1.088,2.797,2.751,5.361,4.718,7.665c3.991,4.589,9.445,7.917,15.353,9.698c1.474,0.466,2.991,0.786,4.514,1.062
				c1.523,0.266,3.092,0.409,4.567,0.498l1.235,0.031l0.565,0.014l0.605-0.011l2.42-0.043c1.617-0.009,3.208-0.161,4.81-0.248
				c1.582-0.172,3.174-0.31,4.718-0.592c0.785-0.107,1.546-0.269,2.303-0.441l1.136-0.253l1.101-0.315
				c1.47-0.411,2.872-0.943,4.105-1.603c0.306-0.167,0.621-0.327,0.88-0.52c0.283-0.18,0.55-0.366,0.772-0.566
				c0.255-0.189,0.432-0.396,0.614-0.581c0.061-0.087,0.172-0.193,0.202-0.257l0.064-0.092l0.004-0.005
				c-0.002,0.006,0.01-0.015-0.002,0.013c-0.017,0.04-0.032,0.082-0.044,0.124l0.161-0.381c0.609-1.11,0.832-2.813,0.824-4.573
				c-0.007-1.775-0.228-3.649-0.512-5.534c-0.577-3.781-1.449-7.628-2.136-11.564c-0.671-3.941-1.284-7.99-0.981-12.263
				c0.172-2.126,0.594-4.335,1.598-6.432c0.518-1.058,1.115-2.006,1.978-2.958c0.735-0.803,1.63-1.563,2.528-2.189
				c1.817-1.278,3.751-2.109,5.399-2.962c1.661-0.851,2.953-1.758,3.727-3.018c0.789-1.239,1.137-2.964,1.222-4.656
				c0.039-1.027,0.031-1.743-0.1-2.575c-0.127-0.8-0.36-1.572-0.696-2.301c-1.334-2.945-4.38-5.051-7.741-6.192
				c-1.688-0.583-3.479-0.935-5.284-1.083c-0.872-0.073-1.799-0.093-2.76-0.065c-0.954,0.002-1.903,0.05-2.851,0.105
				c-3.788,0.237-7.536,0.882-11.068,2.074c-3.53,1.186-6.849,2.925-9.645,5.294c-2.812,2.346-5.085,5.291-6.73,8.583
				c-1.675,3.28-2.709,6.9-3.304,10.602c-0.278,1.846-0.489,3.757-0.549,5.601c-0.063,0.899-0.04,1.938-0.062,2.906l0.018,2.912
				l0.073,11.808l0.202,23.615c0.012,1.381-1.098,2.51-2.479,2.521c-1.381,0.012-2.51-1.098-2.521-2.479
				C19.71,120.461,19.71,120.438,19.71,120.428z"/>
		</g>
	</g>
</g>
<g id="Layer_1">
</g>
</svg>
