<?xml version="1.0" encoding="iso-8859-1"?>
<!-- Generator: Adobe Illustrator 19.2.0, SVG Export Plug-In . SVG Version: 6.00 Build 0)  -->
<!DOCTYPE svg PUBLIC "-//W3C//DTD SVG 1.1//EN" "http://www.w3.org/Graphics/SVG/1.1/DTD/svg11.dtd">
<svg version="1.1" xmlns="http://www.w3.org/2000/svg" xmlns:xlink="http://www.w3.org/1999/xlink" x="0px" y="0px"
	 viewBox="0 0 140 140" style="enable-background:new 0 0 140 140;" xml:space="preserve">
<g id="lukin">
	<g id="lukin_1_">
		<g>
			<path style="fill:#FFFFFF;" d="M96.411,9.919c19.003,0,34.003,13.431,34.003,30c0,29.667-27.44,30-36.004,30
				c8.563,0,36.004,0.333,36.004,30c0,16.569-14.333,30-34.003,30H70.413c-33.137,0-60-26.863-60-60s26.863-60,60-60H96.411z"/>
			<path d="M96.459,7.725l1.624,0.029l1.745,0.101c1.155,0.096,2.282,0.225,3.416,0.413c2.261,0.37,4.495,0.933,6.666,1.691
				c4.346,1.496,8.458,3.773,11.992,6.8c3.531,3.017,6.486,6.803,8.411,11.115c0.962,2.153,1.675,4.424,2.105,6.751
				c0.216,1.164,0.35,2.34,0.435,3.52l0.059,1.772c-0.014,0.625-0.013,1.082-0.039,1.683c-0.101,2.344-0.339,4.602-0.837,6.893
				c-0.484,2.276-1.203,4.534-2.214,6.682c-0.998,2.152-2.301,4.185-3.858,5.998c-1.551,1.819-3.374,3.395-5.339,4.702
				c-3.943,2.624-8.389,4.186-12.838,5.069c-4.46,0.867-8.986,1.066-13.377,0.974l-0.003,0v-4c7.268-0.147,14.946,0.482,22,3.707
				c3.504,1.595,6.813,3.89,9.417,6.885c2.614,2.982,4.478,6.582,5.566,10.308c0.551,1.864,0.938,3.76,1.176,5.658
				c0.236,1.923,0.347,3.742,0.338,5.741l-0.037,1.35l-0.12,1.521c-0.113,0.984-0.244,1.944-0.445,2.906
				c-0.388,1.918-0.961,3.799-1.709,5.606c-2.981,7.27-8.826,13.128-15.697,16.581c-3.431,1.765-7.13,2.935-10.888,3.623
				c-1.884,0.324-3.783,0.527-5.685,0.623c-1.949,0.061-3.686,0.04-5.492,0.046l-21.538,0.021l-0.673,0.001l-0.738-0.012
				l-1.346-0.033l-1.35-0.036l-1.428-0.105c-0.953-0.069-1.91-0.133-2.829-0.268c-0.927-0.13-1.862-0.203-2.78-0.391
				c-3.695-0.606-7.338-1.543-10.858-2.823c-7.046-2.542-13.62-6.361-19.322-11.206c-5.708-4.837-10.542-10.706-14.17-17.251
				c-3.641-6.537-6.089-13.734-7.202-21.131c-0.556-3.695-0.752-7.457-0.635-11.17l0.04-1.348l0.11-1.425
				c0.073-0.951,0.138-1.906,0.276-2.823c0.211-1.857,0.545-3.698,0.917-5.529c1.549-7.317,4.483-14.323,8.518-20.601
				c4.04-6.277,9.199-11.828,15.177-16.292c5.981-4.457,12.758-7.839,19.919-9.914c3.58-1.036,7.25-1.766,10.957-2.14
				c1.855-0.162,3.713-0.297,5.575-0.307c1.863-0.043,3.609-0.005,5.418-0.012l21.538,0.048L96.459,7.725z M96.411,12.112
				l-21.538,0.048c-1.779,0.014-3.624-0.015-5.35,0.035c-1.73,0.016-3.453,0.151-5.173,0.307c-3.436,0.363-6.833,1.055-10.143,2.029
				c-6.62,1.953-12.882,5.104-18.391,9.261c-5.507,4.161-10.246,9.323-13.942,15.138c-3.691,5.817-6.358,12.286-7.744,19.031
				c-0.332,1.688-0.631,3.384-0.815,5.095c-0.126,0.859-0.174,1.696-0.235,2.535l-0.095,1.259l-0.032,1.343
				c-0.088,3.46,0.088,6.897,0.609,10.302c1.038,6.8,3.299,13.404,6.657,19.406c3.344,6.009,7.8,11.395,13.054,15.829
				c5.248,4.441,11.291,7.934,17.757,10.254c3.23,1.169,6.573,2.02,9.963,2.569c1.688,0.265,3.42,0.503,5.08,0.605l1.256,0.1
				l1.341,0.039l1.346,0.035l0.608,0.012l0.673,0.001l21.538,0.021c1.784-0.001,3.637,0.018,5.276-0.031
				c1.684-0.083,3.359-0.258,5.014-0.539c3.299-0.6,6.521-1.613,9.481-3.13c5.936-2.97,10.857-7.937,13.353-13.993
				c0.626-1.508,1.107-3.075,1.434-4.674c0.17-0.796,0.281-1.615,0.376-2.413l0.099-1.163l0.039-1.341
				c0.036-3.29-0.305-6.748-1.216-9.889c-0.894-3.168-2.393-6.101-4.491-8.546c-2.09-2.449-4.748-4.428-7.746-5.861
				c-2.993-1.451-6.285-2.375-9.659-2.988c-3.388-0.606-6.845-0.835-10.386-0.879l-0.055-0.001c-1.104-0.014-1.989-0.92-1.975-2.024
				c0.014-1.104,0.92-1.989,2.024-1.975l0.006,0l0.003,0c4.266-0.05,8.439-0.386,12.467-1.306c4.013-0.897,7.866-2.36,11.105-4.62
				c3.237-2.252,5.811-5.285,7.424-8.863c0.818-1.781,1.409-3.684,1.808-5.646c0.411-1.947,0.605-4.017,0.674-5.999
				c0.02-0.482,0.015-1.108,0.023-1.566l-0.042-1.475c-0.068-0.981-0.173-1.959-0.348-2.927c-0.349-1.935-0.932-3.828-1.728-5.633
				c-1.59-3.611-3.991-6.899-7.005-9.554c-3.001-2.668-6.553-4.75-10.374-6.136c-1.914-0.685-3.892-1.2-5.903-1.546
				c-1.002-0.175-2.027-0.299-3.03-0.391l-1.497-0.101l-1.624-0.042L96.411,12.112z"/>
		</g>
		<g>
			<path d="M33.205,42.589c0,0,0.794,0.754,2.184,2.074c0.695,0.659,1.54,1.458,2.508,2.375c0.987,0.867,2.1,1.845,3.315,2.911
				c1.188,1.094,2.611,2.134,4.04,3.313c0.713,0.595,1.476,1.161,2.269,1.721c0.786,0.568,1.589,1.149,2.406,1.74
				c0.826,0.575,1.701,1.1,2.566,1.665c0.866,0.565,1.747,1.127,2.677,1.614c0.922,0.501,1.833,1.042,2.779,1.52
				c0.957,0.45,1.918,0.903,2.879,1.355c1.958,0.81,3.922,1.612,5.928,2.179c0.497,0.154,0.992,0.308,1.485,0.461
				c0.503,0.119,1.003,0.238,1.5,0.356c0.996,0.23,1.968,0.498,2.956,0.64c0.983,0.161,1.94,0.357,2.893,0.482
				c0.955,0.113,1.89,0.223,2.8,0.33c1.833,0.156,3.564,0.3,5.182,0.365c3.225,0.166,5.941,0.177,7.845,0.195
				c1.906,0.022,2.995,0.035,2.995,0.035l0.019,0c1.104,0.013,1.989,0.919,1.977,2.023c-0.013,1.095-0.905,1.974-1.996,1.977
				c0,0-1.101,0.002-3.028,0.006c-1.928-0.022-4.689-0.049-8.025-0.235c-0.832-0.028-1.702-0.097-2.604-0.186
				c-0.901-0.09-1.831-0.145-2.789-0.271c-0.957-0.13-1.94-0.263-2.945-0.4c-1.004-0.149-2.024-0.374-3.063-0.564
				c-1.043-0.171-2.083-0.473-3.141-0.737c-0.528-0.136-1.06-0.272-1.594-0.41c-0.525-0.172-1.052-0.345-1.582-0.519
				c-2.134-0.647-4.221-1.536-6.29-2.437c-1.012-0.498-2.024-0.996-3.032-1.492c-0.992-0.523-1.942-1.107-2.904-1.653
				c-0.972-0.533-1.884-1.136-2.779-1.741c-0.894-0.605-1.8-1.173-2.649-1.785c-0.836-0.627-1.659-1.243-2.464-1.847
				c-0.812-0.595-1.591-1.195-2.313-1.818c-1.453-1.24-2.889-2.332-4.101-3.484c-1.234-1.123-2.365-2.153-3.368-3.065
				c-0.953-0.935-1.784-1.75-2.469-2.421c-1.367-1.343-2.147-2.111-2.147-2.111c-0.592-0.58-0.601-1.53-0.021-2.121
				C31.674,42.042,32.612,42.029,33.205,42.589z"/>
		</g>
		<g>
			<path d="M27.47,75.521c0,0,0.328-0.391,0.902-1.077c0.296-0.342,0.611-0.759,1.071-1.234c0.446-0.47,0.932-1.024,1.496-1.583
				c0.581-0.539,1.169-1.163,1.869-1.747c0.692-0.593,1.42-1.22,2.236-1.798c0.784-0.618,1.674-1.15,2.555-1.722
				c0.918-0.513,1.845-1.048,2.825-1.479c0.479-0.239,0.971-0.448,1.469-0.635c0.497-0.188,0.982-0.41,1.485-0.559
				c0.499-0.162,0.994-0.323,1.483-0.482c0.496-0.131,0.985-0.261,1.467-0.389c0.965-0.237,1.906-0.435,2.799-0.589
				c0.894-0.15,1.739-0.287,2.52-0.37c1.562-0.198,2.863-0.29,3.77-0.347c0.908-0.054,1.427-0.085,1.427-0.085
				c0.827-0.049,1.538,0.581,1.587,1.408c0.049,0.827-0.581,1.538-1.408,1.587c-0.005,0-0.01,0.001-0.015,0.001l-0.044,0.002
				c0,0-0.501,0.022-1.378,0.061c-0.876,0.041-2.126,0.111-3.606,0.276c-2.961,0.302-6.869,1.012-10.42,2.625
				c-0.898,0.377-1.748,0.854-2.593,1.306c-0.811,0.513-1.633,0.982-2.362,1.542c-0.758,0.517-1.44,1.09-2.09,1.629
				c-0.658,0.529-1.217,1.11-1.768,1.603c-0.532,0.511-0.979,1.008-1.398,1.433c-0.416,0.411-0.766,0.854-1.059,1.184
				c-0.584,0.676-0.918,1.063-0.918,1.063c-0.451,0.522-1.241,0.58-1.763,0.129C27.093,76.824,27.033,76.044,27.47,75.521z"/>
		</g>
		<g>
			<path d="M45.529,88.727c0,0,0.355-0.52,0.976-1.43c0.321-0.454,0.66-1.008,1.161-1.639c0.487-0.625,1.012-1.358,1.632-2.107
				c0.644-0.726,1.286-1.559,2.069-2.354c0.772-0.805,1.583-1.657,2.507-2.458c0.88-0.847,1.899-1.6,2.903-2.402
				c1.056-0.734,2.119-1.496,3.26-2.138c0.554-0.348,1.127-0.661,1.711-0.949c0.582-0.289,1.146-0.616,1.74-0.858
				c0.588-0.257,1.171-0.512,1.747-0.765c0.588-0.219,1.168-0.436,1.739-0.649c1.147-0.404,2.27-0.759,3.34-1.053
				c1.072-0.29,2.087-0.559,3.031-0.754c0.941-0.221,1.807-0.389,2.575-0.527c0.768-0.149,1.437-0.268,1.989-0.35
				c1.104-0.176,1.735-0.276,1.735-0.276c0.818-0.13,1.587,0.427,1.717,1.246s-0.427,1.587-1.246,1.717
				c-0.003,0.001-0.007,0.001-0.01,0.002l-0.044,0.006c0,0-0.614,0.09-1.688,0.247c-0.539,0.072-1.187,0.18-1.928,0.314
				c-0.744,0.124-1.579,0.275-2.48,0.476c-0.909,0.175-1.874,0.42-2.895,0.682c-1.018,0.267-2.079,0.588-3.161,0.954
				c-0.537,0.193-1.083,0.389-1.636,0.587c-0.539,0.228-1.085,0.459-1.635,0.692c-0.559,0.217-1.081,0.516-1.625,0.777
				c-0.546,0.259-1.081,0.543-1.597,0.859c-1.065,0.58-2.057,1.276-3.046,1.942c-0.939,0.736-1.897,1.42-2.729,2.203
				c-0.872,0.734-1.643,1.527-2.379,2.275c-0.746,0.737-1.364,1.523-1.983,2.2c-0.593,0.698-1.084,1.369-1.549,1.947
				c-0.465,0.563-0.835,1.146-1.155,1.588c-0.632,0.902-0.994,1.417-0.994,1.417c-0.396,0.565-1.176,0.702-1.741,0.306
				C45.282,90.063,45.144,89.291,45.529,88.727z"/>
		</g>
		<g>
			
				<ellipse style="fill:none;stroke:#000000;stroke-width:4;stroke-linecap:round;stroke-linejoin:round;stroke-miterlimit:10;" cx="79.038" cy="38.418" rx="24.875" ry="21"/>
			
				<circle style="fill:none;stroke:#000000;stroke-width:3;stroke-linecap:round;stroke-linejoin:round;stroke-miterlimit:10;" cx="79.038" cy="38.418" r="6.875"/>
		</g>
	</g>
</g>
<g id="Layer_1">
</g>
</svg>
