<?xml version="1.0" encoding="iso-8859-1"?>
<!-- Generator: Adobe Illustrator 19.2.0, SVG Export Plug-In . SVG Version: 6.00 Build 0)  -->
<!DOCTYPE svg PUBLIC "-//W3C//DTD SVG 1.1//EN" "http://www.w3.org/Graphics/SVG/1.1/DTD/svg11.dtd">
<svg version="1.1" xmlns="http://www.w3.org/2000/svg" xmlns:xlink="http://www.w3.org/1999/xlink" x="0px" y="0px"
	 viewBox="0 0 124.75 125.25" style="enable-background:new 0 0 124.75 125.25;" xml:space="preserve">
<g id="moli">
	<g id="moli_1_">
		<rect x="46.252" y="27.907" style="fill:#FFFFFF;" width="76.498" height="42.468"/>
		<path style="fill:#FFFFFF;stroke:#000000;stroke-width:5;stroke-miterlimit:10;" d="M116.044,70.417
			c-3.558,29.599-27.518,52.333-56.544,52.333c-31.48,0-57-26.919-57-60.125S28.02,2.5,59.5,2.5
			c19.456,0,36.635,10.282,46.921,25.976"/>
		<g>
			
				<line style="fill:none;stroke:#000000;stroke-width:3.5;stroke-miterlimit:10;" x1="75.625" y1="56.417" x2="122.75" y2="56.417"/>
			<g>
				<path d="M71.25,68.625l51.5-0.25l-2,2V28.5l2,2H70.406H57.321h-6.543H49.96h-0.204h-0.051c0.196-0.005,0.025,0,0.056,0
					l-0.102,0.005l-0.408,0.022l-1.633,0.087l-0.408,0.022l-0.353,0.062l-0.706,0.119c-0.473,0.094-0.936,0.117-1.42,0.258
					c-3.876,0.944-7.568,2.83-10.472,5.632l-1.089,1.047l-0.986,1.147l-0.495,0.572l-0.437,0.618l-0.877,1.234
					c-1.036,1.729-2.009,3.517-2.619,5.45c-0.711,1.898-1.052,3.908-1.319,5.913l-0.076,1.519l-0.038,0.76l-0.01,0.19l-0.005,0.095
					c-0.001-0.027,0,0.127-0.004-0.048l0.002,0.051l0.02,0.408c0.069,1.066,0.053,2.248,0.244,3.152l0.209,1.446l0.356,1.473
					c0.194,0.997,0.588,1.933,0.904,2.893c0.143,0.487,0.404,0.926,0.599,1.392c0.221,0.454,0.394,0.933,0.652,1.367
					c0.521,0.864,0.964,1.779,1.588,2.576c1.104,1.698,2.542,3.133,4.005,4.509l1.185,0.932l0.591,0.469l0.635,0.405l1.267,0.814
					l1.34,0.682c0.872,0.504,1.847,0.768,2.768,1.16c0.476,0.153,0.964,0.265,1.445,0.402c0.482,0.132,0.961,0.279,1.46,0.334
					l1.481,0.239c0.493,0.086,0.998,0.066,1.496,0.107l0.75,0.041l0.375,0.021c0.108-0.002-0.095,0.006-0.055,0.004l0.051-0.002
					l0.102-0.005l0.204-0.01l1.634-0.077c0.575-0.004,1.023-0.101,1.5-0.173c0.476-0.079,0.948-0.133,1.429-0.225l1.462-0.376
					l0.731-0.187l0.709-0.26l1.421-0.515l1.367-0.65c0.935-0.391,1.757-0.993,2.638-1.488c3.349-2.254,6.22-5.291,8.129-8.86
					c0.452-0.904,0.934-1.796,1.255-2.756c0.405-0.93,0.645-1.911,0.909-2.886c0.159-0.482,0.204-0.987,0.293-1.483
					c0.073-0.499,0.185-0.994,0.229-1.496c0.037-1.031,0.156-1.959,0.133-3.09l0.06-13.086l0-0.008
					c0.004-0.967,0.784-1.746,1.75-1.742h47.125c0.966,0,1.75,0.784,1.75,1.75c0,0.966-0.784,1.75-1.75,1.75H75.625l1.75-1.75
					l0.06,13.086c0.034,1.052-0.076,2.299-0.121,3.447c-0.047,0.583-0.165,1.159-0.246,1.739c-0.098,0.577-0.154,1.164-0.327,1.725
					c-0.291,1.135-0.57,2.275-1.022,3.357c-0.369,1.115-0.907,2.155-1.425,3.204c-2.173,4.146-5.437,7.674-9.29,10.313
					c-1.008,0.592-1.962,1.282-3.038,1.754l-1.582,0.766l-1.647,0.619l-0.825,0.307l-0.85,0.23l-1.704,0.451
					c-0.588,0.119-1.2,0.202-1.799,0.3c-0.601,0.092-1.226,0.203-1.745,0.209c-4.568,0.354-9.494-0.453-13.678-2.599l-1.573-0.807
					l-1.488-0.951l-0.742-0.479l-0.693-0.544l-1.383-1.094c-1.717-1.596-3.377-3.281-4.666-5.244
					c-0.717-0.931-1.244-1.983-1.84-2.99c-0.296-0.506-0.503-1.056-0.758-1.583c-0.228-0.538-0.52-1.051-0.691-1.612
					c-0.373-1.108-0.815-2.196-1.048-3.345l-0.408-1.707l-0.259-1.792c-0.218-1.245-0.186-2.256-0.26-3.365l-0.02-0.408
					l-0.002-0.051c-0.005-0.209,0-0.089-0.001-0.15l0.005-0.109l0.01-0.219l0.041-0.874l0.092-1.748
					c0.297-2.313,0.705-4.63,1.52-6.828c0.714-2.232,1.828-4.311,3.038-6.311l1.015-1.435l0.511-0.715l0.573-0.668l1.15-1.332
					l1.267-1.223c3.39-3.259,7.724-5.502,12.308-6.607c0.565-0.161,1.199-0.217,1.796-0.326l0.909-0.141l0.454-0.068l0.409-0.022
					l1.633-0.087l0.408-0.022l0.311-0.011h0.204h0.818h6.543h13.086h52.343c1.105,0,2,0.895,2,2v41.875v0.01
					c0,1.099-0.891,1.99-1.99,1.99l-0.01,0l-51.5-0.25c-0.966-0.005-1.746-0.792-1.742-1.758
					C69.513,69.406,70.292,68.63,71.25,68.625z"/>
			</g>
		</g>
		<g>
			
				<line style="fill:#FFFFFF;stroke:#000000;stroke-width:4;stroke-linecap:round;stroke-linejoin:round;stroke-miterlimit:10;" x1="37.749" y1="44.375" x2="58.749" y2="65.375"/>
			
				<line style="fill:#FFFFFF;stroke:#000000;stroke-width:4;stroke-linecap:round;stroke-linejoin:round;stroke-miterlimit:10;" x1="58.749" y1="44.375" x2="37.749" y2="65.375"/>
		</g>
	</g>
</g>
<g id="Layer_1">
</g>
</svg>
