<?xml version="1.0" encoding="iso-8859-1"?>
<!-- Generator: Adobe Illustrator 19.2.0, SVG Export Plug-In . SVG Version: 6.00 Build 0)  -->
<!DOCTYPE svg PUBLIC "-//W3C//DTD SVG 1.1//EN" "http://www.w3.org/Graphics/SVG/1.1/DTD/svg11.dtd">
<svg version="1.1" xmlns="http://www.w3.org/2000/svg" xmlns:xlink="http://www.w3.org/1999/xlink" x="0px" y="0px"
	 viewBox="0 0 125 124.769" style="enable-background:new 0 0 125 124.769;" xml:space="preserve">
<g id="poki">
	<g id="poki_2_">
		<g>
			<path style="fill:#FFFFFF;" d="M11.665,43.944c0,0-1.501,4.666-2.001,30.333c-0.506,25.995,23.654,48,52.833,48
				s53.508-20.675,52.833-48c-0.667-27-2.001-30.666-2.001-30.666"/>
			<path d="M13.581,44.516c-0.016,0.056-0.016,0.059-0.096,0.443c-0.066,0.366-0.166,0.926-0.263,1.7
				c-0.204,1.534-0.43,3.849-0.622,6.819c-0.193,2.971-0.355,6.598-0.473,10.767c-0.046,2.086-0.094,4.307-0.146,6.647
				c-0.018,1.15-0.036,2.329-0.054,3.536c0.009,0.617,0.019,1.241,0.028,1.872c0.003,0.642,0.08,1.178,0.114,1.782
				c0.2,2.378,0.632,4.923,1.34,7.444c0.721,2.527,1.722,5.07,3.002,7.559c2.555,4.982,6.271,9.728,10.903,13.769
				c4.631,4.041,10.194,7.349,16.272,9.578c6.057,2.239,12.698,3.381,19.199,3.336c6.682-0.011,13.213-1.171,19.316-3.395
				c6.086-2.216,11.66-5.502,16.26-9.56c4.603-4.055,8.238-8.854,10.656-13.893c2.417-5.04,3.701-10.264,3.96-15.146
				c0.113-1.219,0.067-2.419,0.087-3.592c-0.026-1.234-0.052-2.44-0.077-3.615c-0.06-2.341-0.116-4.561-0.17-6.648
				c-0.127-4.173-0.288-7.804-0.474-10.779c-0.185-2.973-0.389-5.298-0.584-6.833c-0.18-1.532-0.393-2.298-0.311-2.015
				c-0.378-1.038,0.157-2.186,1.195-2.563c1.038-0.378,2.186,0.157,2.563,1.195c0.107,0.275,0.325,1.18,0.561,2.847
				c0.24,1.66,0.49,4.045,0.733,7.075c0.244,3.029,0.47,6.696,0.673,10.9c0.091,2.102,0.187,4.34,0.289,6.698
				c0.04,1.175,0.081,2.38,0.123,3.614c-0.005,1.294,0.053,2.624-0.055,3.978c-0.236,5.419-1.604,11.275-4.247,16.92
				c-2.642,5.644-6.624,11.03-11.7,15.505c-5.06,4.492-11.155,8.105-17.784,10.544c-6.61,2.446-13.829,3.728-20.903,3.762
				c-7.256,0.033-14.377-1.242-21.019-3.706c-6.628-2.456-12.696-6.089-17.766-10.542c-5.085-4.441-9.135-9.731-11.918-15.295
				c-1.394-2.781-2.481-5.625-3.257-8.455c-0.764-2.845-1.215-5.623-1.419-8.385c-0.035-0.684-0.109-1.418-0.105-2.039
				c-0.003-0.631-0.006-1.255-0.009-1.873c0.034-1.261,0.068-2.492,0.1-3.693c0.094-2.359,0.183-4.597,0.266-6.7
				c0.194-4.208,0.423-7.879,0.675-10.911c0.25-3.032,0.525-5.422,0.775-7.08c0.118-0.824,0.245-1.48,0.336-1.932
				c0.09-0.432,0.207-0.843,0.193-0.786c0.316-1.059,1.43-1.661,2.488-1.345C13.295,42.343,13.897,43.457,13.581,44.516z"/>
		</g>
		<g>
			<path style="fill:#FFFFFF;" d="M122.5,29.444c0-14.82-26.863-26.833-60-26.833s-60,12.014-60,26.833
				c0,9.461,10.959,17.773,27.5,22.551v22.949c0,16.569,13.431,30,30,30h5c16.569,0,30-13.431,30-30V51.994
				C111.541,47.217,122.5,38.905,122.5,29.444z"/>
			<path d="M120.004,29.585l-0.083-1.393c-0.073-0.321-0.125-0.636-0.181-0.965l-0.316-1.09l-0.431-1.07
				c-0.65-1.413-1.602-2.747-2.722-3.977c-2.243-2.472-5.142-4.514-8.232-6.228c-3.094-1.728-6.436-3.104-9.846-4.284
				c-3.418-1.173-6.936-2.113-10.5-2.861c-7.132-1.493-14.44-2.277-21.76-2.447c-3.652-0.079-7.36-0.036-10.981,0.168
				c-3.654,0.203-7.298,0.56-10.911,1.087c-7.218,1.062-14.357,2.776-21.035,5.464c-3.313,1.375-6.543,2.957-9.413,4.946
				c-2.877,1.959-5.431,4.341-7.042,7.087c-0.794,1.373-1.308,2.83-1.482,4.308l-0.03,0.556l-0.017,0.278l-0.009,0.139l-0.005,0.07
				L5.002,29.41c-0.004-0.068,0.005,0.202-0.009-0.145l0.092,1.397l0.023,0.349l0.061,0.243l0.112,0.48l0.096,0.484l0.192,0.538
				c0.939,2.927,3.241,5.538,5.86,7.744c2.666,2.207,5.76,4.035,8.998,5.587c3.243,1.556,6.638,2.881,10.119,3.982l0.008,0.002
				c0.867,0.255,1.433,1.043,1.445,1.902l0,0.02l0.244,18.14l0.037,4.535l0.001,0.142l0.001,0.071l0,0.035
				c0.003,0.115-0.004-0.117-0.002-0.08l0.016,0.283l0.033,0.566l0.066,1.132l0.071,1.125l0.169,0.989
				c0.131,0.663,0.168,1.31,0.362,1.986l0.536,2.019c0.199,0.666,0.48,1.307,0.713,1.962c0.216,0.663,0.532,1.284,0.845,1.906
				c0.561,1.277,1.348,2.43,2.076,3.612l1.256,1.664c0.392,0.577,0.92,1.041,1.37,1.569c1.905,2.011,4.056,3.83,6.497,5.161
				c2.422,1.34,5.008,2.423,7.728,2.984c0.667,0.194,1.367,0.226,2.048,0.351l1.028,0.157c0.345,0.034,0.693,0.036,1.039,0.056
				c0.702,0.027,1.367,0.078,2.098,0.091l2.268-0.006l2.268,0.006l0.142,0l0.071,0c0.125-0.003-0.13,0.004-0.091,0.002l0.035-0.002
				l0.283-0.014l0.566-0.027l1.132-0.054c0.372-0.022,0.768-0.027,1.119-0.063l0.98-0.156c0.658-0.125,1.299-0.146,1.974-0.341
				c2.72-0.561,5.306-1.644,7.728-2.984c2.441-1.331,4.592-3.149,6.497-5.161c0.45-0.528,0.978-0.992,1.37-1.569l1.256-1.664
				c0.727-1.182,1.515-2.336,2.076-3.612c1.22-2.494,2.1-5.175,2.465-7.943l0.169-1.033l0.064-1.045
				c0.034-0.707,0.096-1.374,0.113-2.114l0.037-4.535L93,51.995l0-0.017c0.012-0.904,0.621-1.661,1.445-1.904l0.001,0
				c1.457-0.496,2.929-0.952,4.354-1.519c0.717-0.272,1.439-0.531,2.136-0.843c0.701-0.303,1.411-0.588,2.103-0.905l2.065-0.965
				c0.68-0.334,1.34-0.699,2.012-1.046c0.68-0.334,1.299-0.754,1.952-1.125c0.657-0.367,1.261-0.799,1.879-1.212
				c0.63-0.401,1.208-0.854,1.787-1.306c0.6-0.432,1.142-0.912,1.683-1.393c0.567-0.461,1.043-0.988,1.542-1.497
				c0.527-0.492,0.905-1.072,1.364-1.601c0.42-0.55,0.768-1.134,1.136-1.703l0.446-0.891l0.225-0.444l0.159-0.46l0.329-0.913
				l0.191-0.933l0.102-0.464l0.025-0.471L120,29.444L120.004,29.585z M125,29.444l-0.104,1.419l-0.062,0.708l-0.149,0.69
				l-0.314,1.376l-0.479,1.308l-0.246,0.651l-0.31,0.61l-0.633,1.212c-0.484,0.752-0.968,1.515-1.511,2.208
				c-0.571,0.661-1.093,1.389-1.723,1.973c-0.61,0.611-1.208,1.24-1.87,1.77c-0.645,0.557-1.29,1.114-1.98,1.591
				c-0.678,0.499-1.357,0.996-2.07,1.424c-0.704,0.444-1.4,0.906-2.13,1.29c-0.727,0.389-1.432,0.831-2.177,1.173
				c-0.739,0.357-1.47,0.732-2.214,1.072l-2.248,0.969c-0.755,0.305-1.522,0.573-2.282,0.86c-0.758,0.296-1.531,0.535-2.3,0.787
				c-1.532,0.527-3.094,0.934-4.643,1.382l-0.002,0L97,51.995l0.244,18.14l0.037,4.535c-0.004,0.771-0.058,1.612-0.088,2.416
				l-0.062,1.218l-0.173,1.209c-0.136,0.802-0.192,1.621-0.4,2.409l-0.593,2.373c-0.223,0.784-0.532,1.541-0.797,2.312
				c-0.249,0.779-0.601,1.515-0.956,2.251c-0.644,1.505-1.532,2.88-2.378,4.277c-0.965,1.318-1.917,2.648-3.059,3.821
				c-2.225,2.379-4.752,4.519-7.616,6.11c-2.844,1.6-5.897,2.883-9.105,3.567c-0.78,0.223-1.662,0.293-2.489,0.438l-1.261,0.186
				c-0.4,0.041-0.761,0.046-1.143,0.07l-1.132,0.06l-0.566,0.03l-0.283,0.015l-0.41,0.006l-2.268,0.006l-2.268-0.006
				c-0.779-0.016-1.623-0.075-2.432-0.114c-0.408-0.026-0.817-0.035-1.224-0.078l-1.214-0.185c-0.805-0.146-1.627-0.204-2.416-0.429
				c-3.209-0.684-6.261-1.967-9.105-3.567c-2.864-1.591-5.391-3.731-7.616-6.11c-1.142-1.173-2.095-2.504-3.059-3.821
				c-0.845-1.397-1.734-2.772-2.378-4.277c-0.355-0.735-0.707-1.471-0.956-2.251c-0.265-0.771-0.574-1.529-0.797-2.312l-0.593-2.373
				c-0.208-0.783-0.273-1.655-0.409-2.479L27.86,78.19l-0.055-1.139l-0.049-1.133l-0.024-0.566l-0.012-0.283l-0.001-0.399
				l0.037-4.535L28,51.995l1.445,1.921l-0.008-0.003c-3.686-0.993-7.344-2.183-10.888-3.745c-3.53-1.58-6.994-3.451-10.143-5.942
				c-0.755-0.673-1.564-1.262-2.267-2.017l-1.082-1.088l-1.001-1.196c-1.293-1.627-2.464-3.456-3.162-5.561
				c-0.093-0.26-0.192-0.512-0.278-0.78L0.413,32.7l-0.185-0.889L0.144,31.37l-0.028-0.349l-0.11-1.396
				c-0.013-0.376-0.002-0.134-0.004-0.232l0.002-0.053l0.005-0.105l0.01-0.21l0.022-0.421l0.052-0.841
				c0.253-2.238,1.024-4.37,2.093-6.231c1.071-1.867,2.414-3.489,3.865-4.929c1.455-1.441,3.023-2.716,4.666-3.832
				c3.268-2.276,6.786-4.003,10.357-5.499c7.178-2.915,14.665-4.724,22.207-5.863c3.774-0.564,7.569-0.948,11.37-1.172
				c3.835-0.222,7.6-0.294,11.414-0.189C73.675,0.251,81.28,1.088,88.763,2.68c3.741,0.798,7.45,1.8,11.092,3.063
				c3.637,1.273,7.227,2.76,10.652,4.684c3.416,1.918,6.724,4.215,9.505,7.289c1.383,1.533,2.633,3.27,3.542,5.258l0.61,1.529
				c0.163,0.529,0.309,1.067,0.457,1.602c0.115,0.588,0.209,1.196,0.295,1.794l0.079,1.403L125,29.444z"/>
		</g>
		<g>
			<path d="M101.246,28.853c0,0-0.009,0.169-0.026,0.496c0.002,0.228-0.085,1.054-0.282,1.833c-0.19,0.779-0.533,1.698-1.064,2.679
				c-0.545,0.966-1.28,1.982-2.21,2.963c-1.858,1.972-4.472,3.762-7.618,5.286c-3.15,1.521-6.845,2.785-10.946,3.704
				c-4.101,0.923-8.607,1.522-13.386,1.72c-1.201,0.051-2.391,0.074-3.647,0.069c-1.172-0.009-2.439-0.047-3.707-0.111
				c-2.508-0.132-5.066-0.382-7.654-0.776c-5.167-0.801-10.485-2.114-15.593-4.529c-2.545-1.21-5.044-2.729-7.247-4.827
				c-1.091-1.056-2.102-2.285-2.865-3.742c-0.764-1.447-1.25-3.15-1.252-4.884c0.036-0.602,0.02-0.679,0.085-1.194
				c0.072-0.462,0.14-0.97,0.266-1.353c0.107-0.414,0.235-0.817,0.4-1.2c0.144-0.397,0.331-0.762,0.522-1.126
				c0.769-1.451,1.783-2.671,2.877-3.719c2.209-2.081,4.709-3.583,7.255-4.776c5.109-2.382,10.422-3.662,15.581-4.432
				c5.165-0.766,10.216-0.926,14.963-0.768c4.781,0.172,9.269,0.743,13.368,1.641c4.096,0.895,7.789,2.135,10.94,3.635
				c3.146,1.503,5.764,3.276,7.627,5.233c0.932,0.974,1.67,1.983,2.219,2.945c0.535,0.976,0.882,1.893,1.075,2.669
				c0.191,0.775,0.276,1.395,0.289,1.812c0.022,0.418,0.033,0.633,0.033,0.633L101.246,28.853z M97,28.735
				c0,0-0.007-0.122-0.022-0.359c0-0.238-0.054-0.588-0.159-1.044c-0.109-0.456-0.316-1.014-0.658-1.656
				c-0.363-0.636-0.869-1.352-1.57-2.095c-1.395-1.493-3.588-3.038-6.383-4.39c-2.798-1.353-6.198-2.529-10.031-3.387
				c-3.828-0.863-8.099-1.433-12.616-1.621c-4.548-0.196-9.345,0.038-14.223,0.774c-4.861,0.748-9.847,2.004-14.4,4.166
				c-2.268,1.071-4.41,2.414-6.12,4.048c-1.71,1.633-2.824,3.614-2.817,5.566c0.009,1.952,1.134,3.915,2.849,5.532
				c1.715,1.617,3.86,2.942,6.128,3.997c4.553,2.128,9.535,3.351,14.387,4.068c4.847,0.721,9.693,0.874,14.179,0.724
				c4.52-0.161,8.772-0.704,12.599-1.542c3.828-0.834,7.226-1.985,10.025-3.318c2.796-1.331,4.992-2.858,6.392-4.336
				c0.704-0.736,1.214-1.446,1.58-2.077c0.346-0.638,0.557-1.193,0.669-1.647c0.195-0.652,0.185-1.567,0.195-1.519L97,28.735z"/>
		</g>
		<g>
			<path d="M25.647,28.126c0,0,0.277-0.075,0.795-0.217c0.512-0.143,1.28-0.353,2.29-0.586c1.997-0.462,4.835-1.087,8.281-1.607
				c3.443-0.524,7.472-1.023,11.804-1.332c4.331-0.313,8.959-0.477,13.586-0.51c2.303,0.018,4.622,0.052,6.904,0.143
				c2.277,0.078,4.516,0.205,6.682,0.353c4.332,0.304,8.362,0.8,11.805,1.319c3.445,0.514,6.29,1.137,8.278,1.593
				c0.994,0.228,1.769,0.437,2.298,0.583c0.528,0.142,0.81,0.219,0.81,0.219c0.8,0.216,1.274,1.039,1.058,1.839
				c-0.207,0.766-0.971,1.233-1.738,1.082l-0.04-0.008c0,0-0.276-0.055-0.794-0.159c-0.515-0.11-1.278-0.249-2.248-0.428
				c-1.94-0.364-4.735-0.776-8.106-1.19c-1.686-0.204-3.517-0.394-5.459-0.557c-1.942-0.165-3.994-0.295-6.116-0.433
				c-2.124-0.124-4.321-0.226-6.556-0.281c-2.229-0.068-4.496-0.076-6.778-0.075c-4.543-0.013-9.086,0.103-13.333,0.368
				c-4.246,0.266-8.205,0.572-11.574,1.002c-3.368,0.417-6.169,0.837-8.097,1.202c-0.953,0.177-1.722,0.319-2.253,0.434
				c-0.527,0.107-0.808,0.164-0.808,0.164c-0.812,0.165-1.605-0.359-1.77-1.171C24.412,29.096,24.892,28.334,25.647,28.126z"/>
		</g>
	</g>
</g>
<g id="Layer_1">
</g>
</svg>
