<?xml version="1.0" encoding="iso-8859-1"?>
<!-- Generator: Adobe Illustrator 19.2.0, SVG Export Plug-In . SVG Version: 6.00 Build 0)  -->
<!DOCTYPE svg PUBLIC "-//W3C//DTD SVG 1.1//EN" "http://www.w3.org/Graphics/SVG/1.1/DTD/svg11.dtd">
<svg version="1.1" xmlns="http://www.w3.org/2000/svg" xmlns:xlink="http://www.w3.org/1999/xlink" x="0px" y="0px"
	 viewBox="0 0 140 140" style="enable-background:new 0 0 140 140;" xml:space="preserve">
<g id="nanpa">
	<g id="nanpa_1_">
		<g>
			<g>
				<path style="fill:#FFFFFF;" d="M68.157,110.842c5.157,11.257,16.522,19.076,29.714,19.076c18.041,0,32.667-14.625,32.667-32.667
					c0-13.106-7.718-24.409-18.857-29.613L72.669,28.995C67.512,17.738,56.147,9.919,42.955,9.919
					c-18.041,0-32.667,14.625-32.667,32.667c0,13.106,7.718,24.409,18.857,29.613L68.157,110.842z"/>
				<path d="M69.945,109.945l0.894,1.748c0.298,0.588,0.618,1.035,0.922,1.561c0.286,0.511,0.661,1.009,1.012,1.51
					c0.344,0.509,0.709,1.001,1.11,1.466c1.54,1.906,3.284,3.658,5.244,5.127c1.95,1.48,4.069,2.73,6.302,3.717
					c2.228,1.003,4.591,1.685,6.991,2.093l0.899,0.162l0.909,0.098c0.607,0.048,1.209,0.166,1.82,0.16l0.914,0.029l0.457,0.015
					l0.228,0.008l0.114,0.004l0.057,0.002l0.029,0.001c-0.042,0.001,0.133-0.002-0.086,0.003l1.96-0.107
					c1.372-0.018,2.46-0.272,3.626-0.442c0.574-0.061,1.165-0.238,1.753-0.392l1.764-0.46c2.288-0.811,4.558-1.72,6.606-3.038
					c2.116-1.205,3.961-2.815,5.731-4.469c1.658-1.768,3.245-3.626,4.453-5.733c1.316-2.041,2.224-4.306,3.026-6.586
					c0.186-0.575,0.307-1.171,0.465-1.755c0.129-0.591,0.349-1.162,0.407-1.768c0.147-1.201,0.441-2.386,0.436-3.604
					c0.221-2.385,0.013-4.976-0.369-7.238c-0.398-2.387-1.104-4.722-2.096-6.928c-0.981-2.21-2.221-4.305-3.688-6.23
					c-1.46-1.932-3.195-3.648-5.076-5.164c-1.888-1.511-3.951-2.801-6.136-3.835l-0.018-0.009c-0.258-0.122-0.491-0.29-0.683-0.48
					L71.028,30.652c-0.203-0.202-0.365-0.441-0.479-0.686c-1.02-2.206-2.297-4.293-3.799-6.206
					c-1.506-1.907-3.212-3.673-5.144-5.161c-1.92-1.499-4.015-2.772-6.231-3.787c-2.21-1.031-4.563-1.744-6.961-2.186l-0.899-0.174
					l-0.91-0.107c-0.608-0.054-1.21-0.178-1.823-0.178l-0.916-0.038l-0.458-0.02l-0.229-0.01l-0.115-0.005l-0.057-0.003
					l-0.029-0.001c0.039-0.001-0.128,0.001,0.081-0.004l-1.961,0.09c-1.37,0.006-2.469,0.248-3.646,0.408
					c-0.581,0.056-1.176,0.228-1.768,0.377l-1.78,0.445c-2.31,0.793-4.606,1.687-6.684,2.995c-2.146,1.195-4.025,2.801-5.83,4.457
					c-1.694,1.77-3.318,3.636-4.563,5.758c-0.311,0.529-0.667,1.034-0.945,1.581l-0.8,1.66l-0.398,0.831l-0.315,0.866l-0.635,1.729
					c-0.19,0.583-0.313,1.187-0.475,1.779c-0.132,0.599-0.355,1.179-0.415,1.793c-0.152,1.218-0.45,2.42-0.448,3.655
					c-0.226,2.426-0.023,5.024,0.364,7.345c0.4,2.424,1.113,4.795,2.118,7.037c0.992,2.246,2.249,4.375,3.736,6.332
					c1.481,1.964,3.24,3.71,5.149,5.254c1.916,1.539,4.011,2.852,6.23,3.907l0.012,0.006c0.207,0.098,0.395,0.234,0.549,0.386
					l39.012,38.644c0.153,0.151,0.276,0.321,0.369,0.502L69.945,109.945z M66.511,112.027L27.738,73.619l0.561,0.391
					c-2.512-1.191-4.88-2.675-7.045-4.414c-2.158-1.743-4.141-3.718-5.816-5.936c-1.682-2.21-3.103-4.618-4.225-7.159
					c-1.134-2.537-1.941-5.221-2.396-7.962c-0.459-2.836-0.652-5.5-0.413-8.296c0.009-1.392,0.327-2.755,0.509-4.131
					c0.075-0.693,0.316-1.352,0.467-2.029c0.182-0.67,0.327-1.352,0.542-2.012c0.913-2.62,1.977-5.208,3.474-7.555
					c1.392-2.411,3.199-4.548,5.107-6.565c2.02-1.904,4.144-3.733,6.564-5.123c2.351-1.502,4.95-2.56,7.58-3.478l2.023-0.532
					c0.675-0.176,1.34-0.37,2.064-0.458c1.413-0.218,2.889-0.489,4.145-0.501l1.96-0.108l2.2,0.064c0.699,0,1.39,0.124,2.085,0.183
					l1.041,0.115L49.196,8.3c2.75,0.48,5.457,1.276,8.006,2.431c2.555,1.14,4.974,2.579,7.196,4.281
					c2.232,1.692,4.222,3.694,5.968,5.881c1.744,2.192,3.231,4.589,4.422,7.13l-0.479-0.685l39.129,38.526l-0.701-0.488
					c2.547,1.211,4.947,2.72,7.139,4.486c2.186,1.771,4.193,3.776,5.888,6.026c1.702,2.243,3.139,4.685,4.272,7.262
					c1.146,2.572,1.96,5.294,2.418,8.071c0.144,0.68,0.223,1.406,0.296,2.132c0.077,0.723,0.168,1.47,0.169,2.095l0.035,0.981
					l0.017,0.491l0.01,0.335l-0.013,0.263l-0.107,2.106c-0.012,1.409-0.334,2.79-0.521,4.183c-0.077,0.701-0.321,1.369-0.475,2.054
					c-0.185,0.679-0.334,1.368-0.552,2.036l-0.726,1.982l-0.366,0.989l-0.453,0.953l-0.919,1.899
					c-0.317,0.627-0.718,1.208-1.075,1.813c-1.43,2.426-3.274,4.571-5.217,6.59c-2.055,1.905-4.214,3.731-6.664,5.111
					c-2.382,1.492-5.007,2.536-7.659,3.436l-2.038,0.518c-0.68,0.171-1.349,0.36-2.079,0.442c-1.424,0.208-2.911,0.467-4.165,0.467
					l-1.961,0.091l-2.21-0.082c-0.7-0.006-1.392-0.136-2.088-0.201l-1.042-0.125l-1.031-0.199c-2.748-0.513-5.444-1.341-7.976-2.524
					c-2.537-1.168-4.932-2.632-7.125-4.352c-2.203-1.71-4.155-3.726-5.868-5.915c-0.444-0.536-0.85-1.1-1.233-1.682
					c-0.391-0.577-0.794-1.133-1.144-1.769c-0.345-0.61-0.756-1.254-1.04-1.839L66.511,112.027z"/>
			</g>
		</g>
		<g>
			<path style="fill:#FFFFFF;" d="M42.955,75.252"/>
		</g>
		<g>
			<path style="fill:#FFFFFF;" d="M70.288,99.919c0,16.569-13.431,30-30,30s-30-13.431-30-30s13.431-30,30-30c19.75,0,19.75,0,30,0
				C70.288,78.669,70.288,91.246,70.288,99.919z"/>
			<path d="M72.286,100.02l-0.112,2.675c-0.047,0.901-0.243,1.927-0.367,2.885c-0.103,0.997-0.409,1.878-0.618,2.817
				c-0.196,0.937-0.536,1.83-0.859,2.729c-1.306,3.587-3.26,6.94-5.741,9.854c-2.48,2.912-5.476,5.4-8.835,7.269
				c-3.362,1.861-7.066,3.112-10.872,3.676c-0.476,0.07-0.95,0.165-1.428,0.213l-1.441,0.087l-1.442,0.082l-0.18,0.01l-0.09,0.005
				l-0.206-0.005l-0.334-0.014l-0.669-0.028l-1.337-0.056l-0.67-0.029l-0.743-0.101c-0.983-0.148-2.004-0.255-2.952-0.472
				c-3.788-0.775-7.409-2.312-10.658-4.395c-3.251-2.086-6.129-4.755-8.428-7.859c-2.308-3.096-4.06-6.605-5.144-10.313
				c-0.231-0.937-0.497-1.868-0.691-2.813l-0.421-2.864c-0.071-0.961-0.094-1.925-0.139-2.887l-0.014-0.361l-0.007-0.18l0.003-0.165
				l0.002-0.042l0.005-0.084l0.039-0.668l0.079-1.336c0.011-0.848,0.204-1.884,0.354-2.862c0.082-0.491,0.151-0.99,0.248-1.472
				l0.368-1.397l0.372-1.394c0.128-0.463,0.324-0.905,0.484-1.359c0.348-0.897,0.639-1.816,1.098-2.664
				c1.62-3.484,3.865-6.667,6.59-9.361c2.739-2.68,5.953-4.863,9.443-6.415c3.49-1.555,7.255-2.471,11.052-2.711
				c0.935-0.031,1.937-0.104,2.816-0.093l2.677,0.004l5.354,0.009L59.58,67.95l10.708-0.031l2.016-0.006l-0.016,2.006
				c-0.079,10,0.004,20,0,30L72.286,100.02z M68.288,99.919c-0.004-10,0.079-20,0-30l2,2L59.58,71.887l-10.708,0.017l-5.354,0.009
				l-2.677,0.004c-0.907-0.01-1.685,0.087-2.533,0.121c-3.318,0.269-6.576,1.122-9.581,2.523c-3.006,1.398-5.757,3.336-8.084,5.691
				c-2.313,2.37-4.196,5.146-5.531,8.156c-0.388,0.73-0.613,1.527-0.9,2.297c-0.129,0.39-0.297,0.769-0.397,1.168l-0.294,1.198
				l-0.299,1.196c-0.071,0.394-0.112,0.781-0.172,1.171c-0.104,0.788-0.268,1.507-0.269,2.449c-0.224,3.376,0.137,6.625,1.09,9.779
				c1.861,6.29,6.068,11.804,11.549,15.381c2.742,1.781,5.798,3.109,9.008,3.781c0.788,0.188,1.552,0.252,2.327,0.404l0.58,0.101
				l0.666,0.041l1.336,0.079l0.668,0.039l0.334,0.02l0.042,0.002c0.122,0.003-0.119-0.001-0.081-0.002l0.077-0.003l0.154-0.007
				l1.232-0.053l1.233-0.048c0.409-0.034,0.813-0.112,1.221-0.165c3.257-0.425,6.441-1.436,9.356-2.983
				c2.912-1.555,5.532-3.656,7.72-6.138c2.188-2.483,3.933-5.359,5.12-8.455c0.293-0.776,0.609-1.546,0.788-2.359
				c0.188-0.799,0.491-1.613,0.572-2.398c0.11-0.81,0.298-1.537,0.362-2.416l0.158-2.673L68.288,99.919z"/>
		</g>
		<g>
			<path style="fill:#FFFFFF;" d="M70.538,39.919c0-16.569,13.431-30,30-30s30,13.431,30,30s-13.431,30-30,30c-19.75,0-19.75,0-30,0
				C70.538,61.169,70.538,48.591,70.538,39.919z"/>
			<path d="M68.541,39.818l0.112-2.675c0.047-0.901,0.243-1.927,0.367-2.885c0.103-0.997,0.409-1.878,0.618-2.817
				c0.196-0.937,0.536-1.83,0.859-2.729c1.306-3.587,3.26-6.94,5.741-9.854c2.48-2.912,5.476-5.4,8.835-7.269
				c3.362-1.861,7.066-3.112,10.872-3.676c0.476-0.07,0.95-0.165,1.428-0.213l1.441-0.087l1.442-0.082l0.18-0.01l0.09-0.005
				l0.206,0.005l0.334,0.014l0.669,0.028l1.337,0.056l0.67,0.029l0.743,0.101c0.983,0.148,2.004,0.255,2.952,0.472
				c3.788,0.775,7.409,2.312,10.658,4.395c3.251,2.086,6.129,4.755,8.428,7.859c2.308,3.096,4.06,6.605,5.144,10.313
				c0.231,0.937,0.497,1.868,0.691,2.813l0.421,2.864c0.071,0.961,0.094,1.925,0.139,2.887l0.014,0.361l0.007,0.18l-0.003,0.165
				l-0.002,0.042l-0.005,0.084l-0.039,0.668l-0.079,1.336c-0.011,0.848-0.204,1.884-0.354,2.862
				c-0.082,0.491-0.151,0.99-0.248,1.472l-0.368,1.397l-0.372,1.394c-0.128,0.463-0.324,0.905-0.484,1.359
				c-0.348,0.897-0.639,1.816-1.098,2.664c-1.62,3.484-3.865,6.667-6.59,9.361c-2.739,2.68-5.953,4.863-9.443,6.415
				c-3.49,1.555-7.255,2.471-11.052,2.711c-0.935,0.031-1.937,0.104-2.816,0.093l-2.677-0.004l-5.354-0.009l-10.708-0.017
				l-10.708,0.031l-2.016,0.006l0.016-2.006c0.079-10-0.004-20,0-30L68.541,39.818z M72.538,39.919c0.004,10-0.079,20,0,30l-2-2
				l10.708,0.031l10.708-0.017l5.354-0.009l2.677-0.004c0.907,0.01,1.685-0.087,2.533-0.121c3.318-0.269,6.576-1.122,9.581-2.523
				c3.006-1.398,5.757-3.336,8.084-5.691c2.313-2.37,4.196-5.146,5.531-8.156c0.388-0.73,0.613-1.527,0.9-2.297
				c0.129-0.39,0.297-0.769,0.397-1.168l0.294-1.198l0.299-1.196c0.071-0.394,0.112-0.781,0.172-1.171
				c0.104-0.788,0.268-1.507,0.269-2.449c0.224-3.376-0.137-6.625-1.09-9.779c-1.861-6.29-6.068-11.804-11.549-15.381
				c-2.742-1.781-5.798-3.109-9.008-3.781c-0.788-0.188-1.552-0.252-2.327-0.404l-0.58-0.101l-0.666-0.041l-1.336-0.079
				l-0.668-0.039l-0.334-0.02l-0.042-0.002c-0.122-0.003,0.119,0.001,0.081,0.002l-0.077,0.003l-0.154,0.007l-1.232,0.053
				l-1.233,0.048c-0.409,0.034-0.813,0.112-1.221,0.165c-3.257,0.425-6.441,1.436-9.356,2.983c-2.912,1.555-5.532,3.656-7.72,6.138
				c-2.188,2.483-3.933,5.359-5.12,8.455c-0.293,0.776-0.609,1.546-0.788,2.359c-0.188,0.799-0.491,1.613-0.572,2.398
				c-0.11,0.81-0.298,1.537-0.362,2.416l-0.158,2.673L72.538,39.919z"/>
		</g>
	</g>
</g>
<g id="Layer_1">
</g>
</svg>
