<?xml version="1.0" encoding="iso-8859-1"?>
<!-- Generator: Adobe Illustrator 19.2.0, SVG Export Plug-In . SVG Version: 6.00 Build 0)  -->
<!DOCTYPE svg PUBLIC "-//W3C//DTD SVG 1.1//EN" "http://www.w3.org/Graphics/SVG/1.1/DTD/svg11.dtd">
<svg version="1.1" xmlns="http://www.w3.org/2000/svg" xmlns:xlink="http://www.w3.org/1999/xlink" x="0px" y="0px"
	 viewBox="0 0 140 140" style="enable-background:new 0 0 140 140;" xml:space="preserve">
<g id="sona">
	<g id="sona_1_">
		<circle style="fill:#FFFFFF;" cx="82.374" cy="65.63" r="32.211"/>
		<path style="fill:none;" d="M129.913,96.652c0,15.875-11.07,32.767-27.5,32.767l-46-0.67l-10-3.352l-8.333,2.682
			c-16.43,0-27.167-15.551-27.167-31.426V39.163c0-15.875,13.32-28.744,29.75-28.744h59.5c16.43,0,29.75,12.869,29.75,28.744V96.652
			z"/>
		<g>
			<path style="fill:#FFFFFF;" d="M88.643,48.897c0,0,6.833,6.167,2.333,10.667s-11.979-10.728-16.812-5.895s11.31,19.573,3.5,26.75
				c-9.25,8.5-21.5-15.75-32.688-10.188c-15.409,7.66-26.104,59.688,20.562,59.688h34.875c16.569,0,30-13.431,30-30v-60
				c0-16.569-13.431-30-30-30h-60c-16.569,0-30,13.431-30,30v58.999c0,12.499,7.507,23.179,18.375,27.688
				c0,0,0.539,0.221,0.688,0.281c2.303,0.899,4.504,1.281,7.125,1.281c3.166,0,6.164-0.72,8.84-2.005"/>
			<path d="M89.317,48.158c0,0,0.12,0.106,0.355,0.315c0.224,0.207,0.55,0.517,0.956,0.952c0.407,0.434,0.881,1.004,1.395,1.738
				c0.502,0.741,1.056,1.65,1.448,2.858c0.393,1.177,0.583,2.811-0.092,4.429c-0.34,0.811-0.802,1.502-1.482,2.196
				c-0.075,0.07-0.108,0.111-0.218,0.205c-0.115,0.096-0.24,0.202-0.357,0.282c-0.227,0.158-0.476,0.306-0.751,0.422
				c-0.547,0.237-1.18,0.347-1.765,0.318c-1.182-0.066-2.134-0.508-2.974-0.978c-0.844-0.479-1.593-1.042-2.326-1.628
				c-1.46-1.164-2.863-2.472-4.371-3.561c-0.743-0.532-1.54-1.01-2.212-1.196c-0.707-0.163-0.946-0.101-1.411,0.289l-0.086,0.084
				c-0.067,0.069,0.045-0.052,0.006-0.007l-0.07,0.078c-0.033,0.04-0.125,0.133-0.109,0.129c-0.001,0.01-0.004,0.018-0.01,0.024
				c-0.042,0.077-0.113,0.188-0.143,0.313c-0.085,0.242-0.106,0.603-0.074,1.018c0.08,0.85,0.405,1.883,0.825,2.928
				c0.852,2.113,2.052,4.341,3.19,6.771c1.107,2.445,2.34,5.072,2.643,8.379c0.137,1.631-0.104,3.545-1.062,5.2
				c-0.48,0.835-1.04,1.531-1.787,2.194l-0.439,0.372c-0.198,0.15-0.404,0.313-0.603,0.446c-0.39,0.26-0.804,0.502-1.249,0.702
				c-0.886,0.405-1.881,0.652-2.867,0.703c-0.986,0.046-1.947-0.084-2.838-0.314c-1.79-0.469-3.317-1.29-4.75-2.164
				c-2.85-1.776-5.353-3.874-7.969-5.797c-2.584-1.896-5.342-3.78-8.141-4.369c-1.386-0.278-2.702-0.177-3.93,0.397l-0.116,0.053
				c-0.098,0.05,0.007-0.012-0.06,0.026l-0.291,0.159c-0.188,0.104-0.413,0.218-0.529,0.306l-0.427,0.278l-0.462,0.341
				c-0.607,0.479-1.204,1.001-1.757,1.598c-2.237,2.371-4.004,5.428-5.363,8.695c-1.358,3.279-2.303,6.819-2.81,10.463
				c-0.476,3.647-0.475,7.408,0.114,11.09c0.582,3.68,1.835,7.268,3.809,10.424c1.989,3.145,4.742,5.797,8.036,7.71
				c3.299,1.907,7.076,3.124,11.032,3.766c1.979,0.319,4.001,0.516,6.051,0.586c2.015,0.052,4.199,0.033,6.359,0.037
				c8.648,0,17.44,0,26.34,0h3.343h0.837l0.774-0.014c0.568-0.01,1.126-0.026,1.587-0.074c1.979-0.147,4.061-0.53,6.017-1.13
				c3.932-1.227,7.621-3.337,10.654-6.194c3.048-2.839,5.447-6.391,6.933-10.308c0.755-1.953,1.266-4.002,1.542-6.084
				c0.144-1.04,0.227-2.091,0.24-3.144c0.029-1.048,0.008-2.268,0.015-3.394c0-9.188,0-18.413,0-27.637s0-18.449,0-27.637v-1.722
				l-0.039-1.656c-0.069-0.985-0.164-2.027-0.345-3.071c-0.349-2.071-0.932-4.098-1.734-6.032c-1.627-3.856-4.117-7.349-7.263-10.08
				c-3.125-2.755-6.87-4.761-10.847-5.844c-1.986-0.547-4.031-0.87-6.083-0.949c-0.989-0.036-2.127-0.032-3.246-0.03h-3.343
				c-8.9,0-17.692,0-26.34,0s-17.152,0-25.475,0c-1.019,0.002-2.036,0.005-3.049,0.007c-0.498,0.02-1.076,0.011-1.507,0.055
				c-0.456,0.045-0.888,0.051-1.362,0.121c-1.874,0.213-3.714,0.618-5.482,1.201c-3.539,1.165-6.787,3.051-9.517,5.45
				c-5.5,4.792-8.768,11.632-9.27,18.447c-0.082,0.865-0.084,1.675-0.098,2.583c0,0.924,0,1.845,0,2.761c0,1.833,0,3.649,0,5.448
				c0,3.599,0,7.13,0,10.589c0,13.837,0,26.52,0,37.762c0,0.687,0,1.368,0,2.044l0.019,1.032l0.049,0.912
				c0.084,1.226,0.25,2.458,0.486,3.634c0.466,2.364,1.251,4.566,2.217,6.572c1.956,4.013,4.714,7.177,7.611,9.462
				c1.45,1.147,2.928,2.095,4.383,2.867c0.727,0.388,1.454,0.722,2.162,1.027l0.515,0.217l0.544,0.207
				c0.301,0.113,0.654,0.225,0.971,0.321c1.3,0.371,2.536,0.587,3.729,0.665c0.6,0.043,1.166,0.058,1.729,0.051
				c0.494-0.002,1.033-0.037,1.502-0.081c1.919-0.171,3.361-0.572,4.312-0.887c0.953-0.316,1.432-0.526,1.432-0.526
				c1.011-0.445,2.192,0.015,2.636,1.026c0.413,0.94,0.045,2.027-0.822,2.532l-0.082,0.047c0,0-0.549,0.317-1.679,0.811
				c-1.135,0.465-2.868,1.124-5.248,1.479c-0.604,0.084-1.205,0.154-1.917,0.192c-0.643,0.038-1.345,0.053-2.072,0.035
				c-1.46-0.038-3.12-0.194-4.839-0.678c-0.435-0.124-0.846-0.244-1.309-0.408c-0.201-0.073-0.404-0.146-0.609-0.22
				c-0.213-0.085-0.427-0.17-0.644-0.256c-0.845-0.345-1.707-0.725-2.574-1.168c-1.732-0.884-3.513-1.962-5.221-3.332
				c-3.428-2.704-6.69-6.447-9.005-11.196c-1.145-2.373-2.07-4.98-2.622-7.771c-0.28-1.398-0.474-2.82-0.575-4.307l-0.058-1.133
				l-0.019-1.032c0-0.707,0-1.419-0.001-2.138c0-11.242,0-23.926,0-37.762c0-3.459,0-6.99,0-10.589c0-1.799,0-3.616,0-5.448
				c0-0.916,0-1.837,0-2.761c0.012-0.94,0.019-1.989,0.113-2.981c0.593-8.056,4.466-16.155,10.955-21.806
				c3.223-2.832,7.061-5.062,11.25-6.442c2.093-0.691,4.27-1.17,6.485-1.421c0.544-0.078,1.145-0.1,1.716-0.148
				c0.596-0.049,1.055-0.036,1.59-0.057c1.056-0.003,2.114-0.006,3.176-0.009c8.324,0,16.827,0,25.475,0s17.44,0,26.34,0h3.343
				c1.113,0,2.21-0.009,3.458,0.035c2.42,0.094,4.839,0.474,7.19,1.121c4.707,1.282,9.135,3.657,12.825,6.908
				c3.711,3.226,6.656,7.347,8.579,11.911c0.949,2.288,1.641,4.688,2.052,7.137c0.21,1.216,0.332,2.459,0.412,3.764l0.041,1.786
				v1.722c0,9.188,0,18.413,0,27.637s0,18.449,0,27.637c-0.007,1.17,0.016,2.247-0.016,3.493c-0.017,1.241-0.115,2.482-0.284,3.711
				c-0.327,2.461-0.933,4.885-1.825,7.197c-1.759,4.635-4.594,8.829-8.191,12.181c-3.581,3.37-7.94,5.87-12.595,7.319
				c-2.347,0.714-4.704,1.16-7.188,1.343c-0.654,0.058-1.213,0.071-1.763,0.082l-0.901,0.015h-0.837h-3.343c-8.9,0-17.692,0-26.34,0
				c-8.544,0.23-18.118-0.526-25.865-5.332c-3.861-2.349-7.132-5.64-9.414-9.421c-2.272-3.793-3.614-7.981-4.189-12.134
				c-0.582-4.161-0.49-8.301,0.106-12.277c0.572-3.981,1.609-7.825,3.117-11.433c1.52-3.598,3.463-7.007,6.18-9.88
				c0.674-0.72,1.427-1.383,2.222-2.002l0.614-0.449l0.692-0.443c0.251-0.163,0.423-0.245,0.622-0.356l0.291-0.158l0.239-0.117
				l0.186-0.085c1.981-0.937,4.329-1.084,6.32-0.651c2.01,0.423,3.745,1.254,5.315,2.157c1.57,0.912,2.989,1.921,4.346,2.929
				c2.705,2.013,5.177,4.077,7.686,5.641c1.246,0.772,2.508,1.42,3.698,1.727c1.198,0.316,2.242,0.271,3.177-0.159
				c2.149-1.075,3.142-2.869,2.961-5.199c-0.162-2.329-1.179-4.789-2.221-7.101c-1.058-2.339-2.246-4.587-3.192-6.998
				c-0.461-1.215-0.89-2.471-1.021-3.951c-0.049-0.743-0.026-1.56,0.258-2.402c0.134-0.423,0.336-0.816,0.599-1.211l0.239-0.316
				c0.095-0.12,0.108-0.123,0.166-0.19l0.071-0.078c0.006-0.009,0.169-0.177,0.153-0.155l0.221-0.201
				c0.603-0.528,1.427-0.97,2.305-1.116c0.878-0.148,1.706-0.021,2.388,0.192c1.365,0.447,2.324,1.135,3.207,1.785
				c1.728,1.328,3.084,2.676,4.408,3.784c0.656,0.552,1.293,1.051,1.893,1.439c0.598,0.388,1.176,0.628,1.568,0.667
				c0.391,0.019,0.59-0.018,0.995-0.369c0.35-0.324,0.709-0.783,0.896-1.193c0.407-0.843,0.387-1.776,0.179-2.649
				c-0.449-1.766-1.447-3.073-2.059-3.89c-0.32-0.414-0.582-0.715-0.758-0.91c-0.173-0.185-0.261-0.279-0.261-0.279l-0.045-0.048
				c-0.377-0.403-0.355-1.035,0.048-1.412C88.351,47.821,88.936,47.822,89.317,48.158z"/>
		</g>
	</g>
</g>
<g id="Layer_1">
</g>
</svg>
