<?xml version="1.0" encoding="iso-8859-1"?>
<!-- Generator: Adobe Illustrator 19.2.0, SVG Export Plug-In . SVG Version: 6.00 Build 0)  -->
<!DOCTYPE svg PUBLIC "-//W3C//DTD SVG 1.1//EN" "http://www.w3.org/Graphics/SVG/1.1/DTD/svg11.dtd">
<svg version="1.1" xmlns="http://www.w3.org/2000/svg" xmlns:xlink="http://www.w3.org/1999/xlink" x="0px" y="0px"
	 viewBox="0 0 140 140" style="enable-background:new 0 0 140 140;" xml:space="preserve">
<g id="sin">
	<g id="sin_1_">
		<g>
			<path style="fill:#FFFFFF;" d="M130.58,68.586c0-5.891-4.776-10.667-10.667-10.667c-0.277,0-0.549,0.021-0.821,0.041
				c1.746-1.899,2.821-4.425,2.821-7.208c0-5.891-4.776-10.667-10.667-10.667s-10.667,4.776-10.667,10.667
				c0,1.821,0.459,3.534,1.263,5.034c-3.92,2.958-6.597,8.844-6.597,15.632c0,6.113,2.168,11.499,5.462,14.671
				c-0.076,0.545-0.129,1.097-0.129,1.663c0,6.627,5.373,12,12,12c6.627,0,12-5.373,12-12c0-3.351-1.376-6.378-3.591-8.555
				C126.375,78.659,130.58,74.114,130.58,68.586z"/>
			<path d="M128.083,68.712l-0.044-1.095c-0.047-0.236-0.075-0.465-0.109-0.709l-0.204-0.817l-0.281-0.795
				c-0.122-0.253-0.208-0.526-0.349-0.772c-0.148-0.24-0.254-0.51-0.429-0.736c-0.167-0.23-0.31-0.481-0.503-0.693
				c-0.179-0.224-0.349-0.459-0.56-0.657c-0.197-0.212-0.399-0.421-0.628-0.6c-0.214-0.199-0.446-0.374-0.686-0.543
				c-0.466-0.358-0.985-0.648-1.527-0.897c-0.263-0.151-0.55-0.235-0.832-0.35c-0.279-0.128-0.58-0.17-0.874-0.27
				c-0.294-0.107-0.603-0.124-0.91-0.196l-0.232-0.051c-0.056,0.001,0.072-0.002,0.057-0.002l-0.004,0l-0.009-0.001l-0.017-0.001
				l-0.034-0.003l-0.069-0.006l-0.138-0.012l-0.551-0.048l-0.009-0.001c-0.875-0.075-1.523-0.846-1.447-1.72
				c0.025-0.295,0.134-0.569,0.295-0.793c0.494-0.685,0.89-1.419,1.197-2.173c0.292-0.761,0.507-1.538,0.594-2.328
				c0.036-0.395,0.073-0.788,0.066-1.182c0.004-0.098-0.005-0.197-0.008-0.295l-0.006-0.147l-0.001-0.037l-0.001-0.018l0-0.009
				c-0.001-0.026,0.005,0.193,0.002,0.095l-0.009-0.091l-0.075-0.726c-0.016-0.274-0.07-0.413-0.11-0.58
				c-0.048-0.169-0.062-0.319-0.119-0.504c-0.119-0.368-0.212-0.74-0.38-1.087c-0.28-0.714-0.698-1.361-1.156-1.962
				c-0.443-0.617-1.017-1.125-1.603-1.592c-0.601-0.456-1.269-0.801-1.945-1.113c-0.7-0.255-1.415-0.477-2.16-0.547
				c-0.183-0.038-0.371-0.032-0.558-0.041l-0.46-0.021c-0.465,0.023-1.051,0.028-1.283,0.095c-0.293,0.026-0.659,0.12-1.025,0.211
				c-0.356,0.105-0.711,0.225-1.052,0.375c-0.691,0.287-1.332,0.684-1.941,1.13c-0.59,0.473-1.116,1.022-1.594,1.618
				c-0.442,0.617-0.87,1.268-1.135,1.994c-0.299,0.712-0.523,1.469-0.608,2.257c-0.137,0.771-0.128,1.603-0.038,2.4
				c0.094,0.806,0.29,1.613,0.583,2.404l0.002,0.004l0.069,0.19c0.23,0.633,0.013,1.321-0.487,1.717
				c-0.48,0.38-0.946,0.784-1.374,1.24c-0.427,0.455-0.832,0.939-1.197,1.459c-0.737,1.034-1.35,2.176-1.843,3.374
				c-0.992,2.399-1.496,5.023-1.569,7.654l-0.012,0.494l-0.005,0.216l0.006,0.262c0.012,0.341,0.007,0.719,0.032,1.03
				c0.034,0.629,0.098,1.282,0.183,1.937c0.092,0.651,0.211,1.295,0.352,1.935c0.151,0.637,0.324,1.267,0.525,1.887
				c0.814,2.469,2.114,4.782,3.894,6.524l0.011,0.011c0.283,0.276,0.43,0.639,0.439,1.006l0.007,0.282l0.031,1.335l0.001,0.082
				l0,0.021l0,0.01c-0.001-0.034,0.002,0.09-0.002-0.073l0.007,0.047l0.023,0.19l0.044,0.38c0.036,0.237,0.045,0.542,0.102,0.724
				c0.181,0.746,0.416,1.616,0.808,2.375c0.159,0.396,0.421,0.743,0.605,1.121c0.258,0.339,0.452,0.716,0.744,1.024
				c0.51,0.671,1.159,1.213,1.791,1.746c0.682,0.473,1.373,0.934,2.144,1.224c0.749,0.333,1.54,0.553,2.342,0.683
				c0.405,0.048,0.805,0.118,1.215,0.106l0.305,0.008l0.152,0.005l0.038,0.001l0.019,0.001l0.01,0
				c0.113-0.003-0.144,0.004-0.113,0.003l0.095-0.007l0.762-0.05l0.375-0.023l0.26-0.051l0.52-0.085
				c0.378-0.112,0.785-0.181,1.158-0.331c0.766-0.254,1.481-0.639,2.159-1.072c0.665-0.452,1.313-0.948,1.846-1.559
				c0.563-0.584,1.013-1.263,1.43-1.958c0.392-0.71,0.711-1.466,0.915-2.259c0.128-0.39,0.179-0.8,0.271-1.203
				c0.027-0.414,0.109-0.818,0.107-1.247c0.019-0.848-0.032-1.656-0.217-2.496c-0.175-0.827-0.438-1.648-0.816-2.43
				c-0.361-0.792-0.837-1.54-1.38-2.258l-0.011-0.014c-0.583-0.56-0.602-1.486-0.043-2.069c0.167-0.174,0.368-0.298,0.582-0.371
				l0.363-0.122l0.804-0.271l0.768-0.316l0.73-0.367l0.688-0.422l0.649-0.462l0.6-0.514c0.18-0.194,0.368-0.372,0.554-0.553
				l0.503-0.591c0.308-0.416,0.585-0.844,0.841-1.283c0.24-0.449,0.444-0.911,0.608-1.387c0.061-0.245,0.154-0.478,0.219-0.72
				l0.159-0.734l0.092-0.746l0.024-0.753L128.083,68.712z M133.08,68.586l-0.068,1.204c-0.048,0.399-0.115,0.797-0.177,1.194
				c-0.165,0.789-0.38,1.567-0.685,2.312c-0.317,0.74-0.695,1.448-1.128,2.12c-0.224,0.33-0.464,0.65-0.704,0.967
				c-0.26,0.302-0.534,0.591-0.802,0.882l-0.875,0.801c-0.311,0.243-0.625,0.482-0.946,0.708l-1.01,0.602
				c-0.353,0.17-0.701,0.346-1.056,0.502l-1.099,0.381c-0.376,0.094-0.747,0.196-1.122,0.269l-1.135,0.147l-1.134,0.016l0.902-2.563
				l0.017,0.015c1.802,1.434,3.21,3.432,3.999,5.687c0.389,1.114,0.657,2.334,0.725,3.521c0.051,0.589,0.007,1.201,0.005,1.804
				c-0.067,0.6-0.105,1.211-0.235,1.806c-0.241,1.195-0.651,2.356-1.187,3.457c-0.549,1.093-1.227,2.129-2.06,3.031
				c-0.8,0.932-1.757,1.717-2.766,2.417c-1.038,0.659-2.145,1.215-3.317,1.594c-0.579,0.212-1.181,0.327-1.784,0.477l-0.989,0.145
				l-0.495,0.064l-0.387,0.019l-0.763,0.027l-0.095,0.003l-0.137,0.003l-0.014-0.001l-0.029-0.002l-0.057-0.003l-0.229-0.014
				l-0.458-0.03c-0.611-0.02-1.214-0.136-1.816-0.241c-1.195-0.248-2.369-0.622-3.453-1.178c-1.103-0.521-2.085-1.251-3.012-2.018
				c-0.884-0.819-1.717-1.698-2.354-2.717c-0.357-0.48-0.604-1.032-0.902-1.545c-0.231-0.55-0.502-1.081-0.658-1.656
				c-0.385-1.128-0.568-2.268-0.662-3.535c-0.032-0.32-0.002-0.528-0.006-0.798l0.006-0.383l0.004-0.191l0.002-0.048
				c-0.004-0.171,0-0.055,0-0.097l0.002-0.014l0.004-0.027l0.016-0.108l0.266-1.71l0.445,1.287l-0.013-0.014
				c-2.23-2.186-3.721-4.911-4.66-7.744c-0.23-0.712-0.429-1.431-0.6-2.157c-0.161-0.727-0.295-1.459-0.399-2.195
				c-0.095-0.733-0.17-1.473-0.209-2.242c-0.027-0.386-0.021-0.71-0.033-1.068l-0.006-0.262l0.004-0.309l0.013-0.555
				c0.084-2.96,0.646-5.927,1.794-8.706c0.572-1.389,1.288-2.731,2.176-3.976c0.44-0.625,0.932-1.219,1.464-1.783
				c0.531-0.565,1.121-1.082,1.741-1.569l-0.418,1.907l-0.003-0.005c-0.622-0.925-1.111-1.956-1.437-3.048
				c-0.317-1.102-0.5-2.227-0.48-3.395c-0.01-1.156,0.172-2.32,0.492-3.447c0.317-1.134,0.856-2.193,1.469-3.202
				c0.636-0.999,1.438-1.886,2.324-2.68c0.915-0.756,1.896-1.458,2.996-1.941c0.542-0.25,1.109-0.456,1.68-0.633
				c0.574-0.159,1.147-0.316,1.823-0.399c0.724-0.122,1.115-0.111,1.619-0.149l0.091-0.005l0.177-0.003l0.056,0.003l0.224,0.011
				L112,37.625c0.299,0.019,0.598,0.026,0.894,0.083c1.193,0.141,2.35,0.497,3.461,0.941c1.092,0.493,2.134,1.1,3.045,1.872
				c0.902,0.775,1.744,1.63,2.401,2.621c0.675,0.974,1.208,2.047,1.567,3.17c0.205,0.554,0.319,1.134,0.445,1.706
				c0.063,0.286,0.089,0.623,0.125,0.933c0.032,0.314,0.069,0.653,0.057,0.867l-0.001,0.73l0,0.091l0.001,0.131l-0.002,0.027
				l-0.004,0.054l-0.015,0.217c-0.011,0.145-0.017,0.289-0.036,0.433c-0.056,0.577-0.16,1.149-0.302,1.709
				c-0.293,1.117-0.725,2.192-1.314,3.165c-0.583,0.976-1.308,1.849-2.127,2.599l-1.162-2.514l0.546-0.103l0.136-0.026l0.068-0.013
				l0.034-0.006l0.017-0.003l0.009-0.002l0.004-0.001l0.066-0.002l0.316-0.023c0.422-0.012,0.852-0.068,1.278-0.028
				c0.427,0.027,0.863,0.033,1.285,0.122c0.424,0.078,0.86,0.132,1.275,0.264c0.84,0.23,1.665,0.549,2.44,0.965
				c0.398,0.193,0.774,0.425,1.133,0.684c0.374,0.239,0.719,0.516,1.057,0.806c0.352,0.275,0.659,0.596,0.973,0.914
				c0.324,0.309,0.58,0.677,0.862,1.025c0.289,0.344,0.503,0.74,0.753,1.113c0.243,0.378,0.426,0.791,0.637,1.189
				c0.197,0.405,0.336,0.837,0.497,1.258c0.135,0.43,0.241,0.87,0.357,1.306c0.09,0.477,0.162,0.973,0.229,1.461l0.068,1.098
				L133.08,68.586z"/>
		</g>
		<g>
			<ellipse style="fill:#FFFFFF;" cx="85.416" cy="69.919" rx="23.833" ry="30.167"/>
			<path d="M111.247,69.999c0,0-0.017,0.665-0.048,1.911c-0.008,0.312-0.017,0.659-0.026,1.042
				c-0.019,0.392-0.081,0.856-0.127,1.337c-0.105,0.97-0.192,2.107-0.454,3.299c-0.117,0.604-0.227,1.244-0.37,1.909
				c-0.18,0.658-0.368,1.346-0.564,2.063c-0.173,0.725-0.458,1.448-0.733,2.206c-0.273,0.758-0.55,1.547-0.938,2.323
				c-1.398,3.156-3.491,6.569-6.622,9.613c-0.397,0.374-0.78,0.771-1.203,1.134c-0.441,0.346-0.885,0.696-1.334,1.049l-0.68,0.529
				l-0.74,0.466c-0.498,0.309-1.001,0.621-1.508,0.935c-0.533,0.273-1.085,0.525-1.636,0.789l-0.833,0.391l-0.881,0.304
				c-0.592,0.196-1.186,0.408-1.794,0.587c-0.623,0.127-1.251,0.256-1.884,0.385c-0.629,0.16-1.282,0.173-1.935,0.217l-0.983,0.059
				l-0.494,0.028c0.122,0.005-0.237-0.002-0.219-0.004l-0.055-0.004l-0.109-0.007l-0.219-0.014
				c-0.584-0.047-1.172-0.094-1.764-0.141c-0.272-0.005-0.658-0.1-0.998-0.161l-1.048-0.219l-1.045-0.238l-0.959-0.339
				c-0.633-0.245-1.297-0.423-1.904-0.732c-0.608-0.304-1.219-0.609-1.832-0.916c-0.6-0.327-1.152-0.734-1.729-1.102
				c-2.235-1.566-4.291-3.439-5.933-5.638c-1.664-2.173-3.106-4.54-4.134-7.089c-2.236-5.04-2.938-10.623-2.922-16.053l0.017-2.035
				l0.008-0.997c0.014-0.338,0.055-0.688,0.082-1.031l0.186-2.075c0.095-0.681,0.224-1.352,0.336-2.028
				c0.181-1.362,0.618-2.668,0.932-4.002c0.471-1.285,0.83-2.616,1.426-3.852c1.037-2.538,2.477-4.897,4.142-7.058
				c1.638-2.193,3.706-4.036,5.936-5.579c2.224-1.568,4.775-2.646,7.373-3.266c2.578-0.661,5.367-0.637,7.715-0.331
				c0.669,0.117,1.333,0.234,1.992,0.349c0.619,0.166,1.21,0.36,1.809,0.541l0.889,0.281l0.843,0.37
				c0.557,0.251,1.12,0.486,1.659,0.751c0.514,0.308,1.023,0.613,1.527,0.915l0.751,0.457l0.691,0.521
				c0.456,0.349,0.907,0.695,1.355,1.038c0.427,0.363,0.814,0.76,1.215,1.134c3.162,3.051,5.225,6.514,6.606,9.685
				c0.38,0.783,0.648,1.577,0.913,2.341c0.266,0.763,0.543,1.49,0.708,2.219c0.19,0.72,0.372,1.41,0.546,2.07
				c0.139,0.667,0.245,1.307,0.358,1.912c0.256,1.206,0.33,2.302,0.429,3.25c0.118,0.947,0.139,1.756,0.142,2.412
				c0.047,1.31,0.073,2.009,0.073,2.009L111.247,69.999z M107.249,69.919c0,0-0.028-0.63-0.08-1.81
				c-0.026-0.591-0.074-1.317-0.22-2.161c-0.126-0.845-0.228-1.823-0.507-2.886c-0.404-2.156-1.285-4.687-2.596-7.392
				c-1.324-2.697-3.231-5.536-5.851-8c-1.273-1.279-2.807-2.328-4.434-3.311c-0.425-0.208-0.853-0.418-1.285-0.63l-0.651-0.322
				l-0.686-0.239c-0.459-0.159-0.921-0.318-1.386-0.479c-0.447-0.098-0.897-0.197-1.35-0.296c-0.405-0.135-1.017-0.163-1.592-0.211
				l-0.868-0.072l-0.436-0.036c-0.15-0.005,0.143,0.001,0.095,0.002l-0.048,0.002l-0.096,0.005l-0.193,0.01
				c-0.515,0.022-1.034,0.044-1.555,0.066c-0.522,0.025-1.034,0.165-1.558,0.239c-2.075,0.385-4.192,1.087-6.121,2.29
				c-1.934,1.169-3.801,2.63-5.378,4.445c-1.593,1.789-3.046,3.803-4.151,6.046c-0.632,1.083-1.033,2.283-1.547,3.44
				c-0.362,1.212-0.854,2.398-1.099,3.656c-0.143,0.622-0.307,1.247-0.436,1.872l-0.291,1.879c-0.046,0.316-0.106,0.624-0.141,0.949
				l-0.071,0.995l-0.142,1.95c0.009,0.647,0.044,1.295,0.1,1.94c0.042,0.646,0.104,1.289,0.228,1.925l0.311,1.907
				c0.136,0.628,0.304,1.249,0.453,1.87c0.257,1.255,0.759,2.437,1.131,3.644c0.525,1.152,0.935,2.346,1.57,3.424
				c2.277,4.422,5.629,8.161,9.541,10.401c0.498,0.261,0.97,0.565,1.474,0.791c0.508,0.213,1.013,0.424,1.516,0.635
				c0.498,0.22,1.035,0.31,1.542,0.474l0.765,0.222l0.726,0.106c0.24,0.036,0.478,0.075,0.714,0.121
				c0.247,0.039,0.438,0.11,0.763,0.108c0.593,0.028,1.182,0.057,1.767,0.085l0.219,0.014l0.109,0.007l0.055,0.003
				c0.054,0.003-0.269-0.011-0.11-0.007l0.38-0.028l0.755-0.052c0.502-0.032,1.003-0.044,1.488-0.162
				c0.49-0.088,0.976-0.174,1.459-0.261c0.473-0.133,0.936-0.294,1.402-0.433l0.694-0.216l0.66-0.301
				c0.44-0.199,0.876-0.396,1.308-0.591c0.411-0.245,0.818-0.488,1.222-0.729l0.605-0.358l0.56-0.424
				c0.373-0.279,0.743-0.556,1.109-0.83c0.354-0.292,0.676-0.619,1.011-0.921c2.65-2.471,4.527-5.36,5.834-8.072
				c0.362-0.663,0.621-1.35,0.881-2.009c0.261-0.658,0.535-1.285,0.703-1.924c0.193-0.63,0.379-1.234,0.556-1.811
				c0.132-0.591,0.257-1.154,0.377-1.689c0.273-1.077,0.361-2.015,0.482-2.837c0.053-0.416,0.122-0.78,0.152-1.152
				c0.021-0.382,0.04-0.73,0.057-1.041c0.068-1.245,0.104-1.909,0.104-1.909L107.249,69.919z"/>
		</g>
		<g>
			<ellipse style="fill:#FFFFFF;" cx="68.248" cy="69.919" rx="23.833" ry="30.167"/>
			<path d="M94.075,69.999c0,0-0.016,0.665-0.045,1.911c-0.007,0.312-0.015,0.66-0.024,1.042c-0.019,0.392-0.08,0.856-0.124,1.338
				c-0.103,0.971-0.188,2.108-0.448,3.3c-0.116,0.604-0.225,1.244-0.367,1.91c-0.179,0.658-0.366,1.347-0.561,2.065
				c-0.171,0.726-0.45,1.452-0.72,2.212c-0.269,0.761-0.54,1.552-0.924,2.332c-1.379,3.169-3.448,6.611-6.588,9.673
				c-0.397,0.377-0.78,0.776-1.204,1.143c-0.441,0.349-0.887,0.702-1.337,1.058l-0.681,0.534l-0.743,0.47
				c-0.503,0.307-1.01,0.616-1.522,0.928c-0.537,0.271-1.094,0.52-1.649,0.78l-0.839,0.386l-0.887,0.299
				c-0.595,0.195-1.196,0.393-1.807,0.564c-0.627,0.118-1.258,0.237-1.893,0.356c-0.632,0.147-1.284,0.164-1.938,0.203l-0.984,0.055
				l-0.494,0.025c0.123,0.005-0.237-0.002-0.22-0.004l-0.055-0.005l-0.109-0.009l-0.219-0.019c-0.584-0.05-1.172-0.099-1.763-0.149
				c-0.599-0.055-1.368-0.247-2.045-0.378l-1.048-0.227l-0.963-0.329c-0.633-0.246-1.296-0.428-1.903-0.74
				c-0.607-0.307-1.217-0.615-1.829-0.924c-0.598-0.329-1.154-0.73-1.728-1.104c-4.493-3.158-7.812-7.782-9.869-12.818
				c-0.589-1.233-0.919-2.569-1.388-3.847c-0.316-1.327-0.755-2.625-0.939-3.98c-0.596-2.669-0.708-5.409-0.815-8.131l0.062-2.034
				l0.031-0.996c0.022-0.337,0.071-0.686,0.105-1.028l0.209-2.066c0.098-0.679,0.231-1.347,0.345-2.021
				c0.108-0.675,0.238-1.346,0.43-2.002l0.498-1.99c0.455-1.286,0.807-2.617,1.392-3.855c0.999-2.549,2.405-4.928,4.046-7.115
				c1.619-2.211,3.648-4.113,5.879-5.693c2.234-1.584,4.799-2.699,7.428-3.293c0.663-0.126,1.315-0.312,1.981-0.376
				c0.668-0.055,1.332-0.109,1.992-0.163l0.248-0.019l0.124-0.009l0.062-0.005c-0.013-0.004,0.34,0.01,0.216,0.006l0.437,0.025
				l0.87,0.049c0.58,0.035,1.119,0.038,1.837,0.188c0.673,0.125,1.342,0.249,2.006,0.372c0.621,0.173,1.213,0.373,1.811,0.568
				l0.887,0.299l0.839,0.386c0.555,0.261,1.112,0.51,1.649,0.781c0.511,0.313,1.018,0.624,1.52,0.931l0.742,0.471l0.681,0.534
				c0.45,0.356,0.895,0.709,1.336,1.058c0.423,0.367,0.806,0.766,1.203,1.143c3.14,3.061,5.197,6.509,6.578,9.673
				c0.383,0.779,0.654,1.571,0.923,2.331c0.268,0.76,0.552,1.484,0.724,2.209c0.195,0.718,0.382,1.406,0.56,2.064
				c0.142,0.665,0.25,1.305,0.366,1.909c0.261,1.204,0.339,2.3,0.442,3.247c0.122,0.946,0.146,1.755,0.152,2.411
				c0.043,1.31,0.066,2.009,0.066,2.009L94.075,69.999z M90.086,69.919c0,0-0.03-0.63-0.087-1.81
				c-0.024-0.591-0.068-1.317-0.21-2.162c-0.123-0.846-0.22-1.825-0.494-2.889c-0.121-0.534-0.248-1.097-0.381-1.688
				c-0.179-0.577-0.365-1.181-0.56-1.81c-0.17-0.638-0.445-1.265-0.712-1.92c-0.264-0.657-0.528-1.341-0.895-2.002
				c-1.323-2.703-3.236-5.557-5.878-8.012c-1.28-1.282-2.864-2.268-4.491-3.239c-0.428-0.198-0.86-0.398-1.295-0.6l-0.654-0.305
				l-0.688-0.221c-0.458-0.15-0.92-0.301-1.384-0.453c-0.442-0.091-0.888-0.182-1.336-0.274c-0.396-0.127-1.011-0.15-1.586-0.191
				l-0.869-0.062l-0.437-0.031c-0.16-0.005,0.156,0.002,0.107,0.003l-0.048,0.002l-0.095,0.005l-0.191,0.009
				c-0.51,0.021-1.023,0.041-1.539,0.062c-0.517,0.023-1.024,0.162-1.543,0.234c-2.045,0.411-4.147,1.076-6.067,2.263
				c-3.928,2.201-7.344,5.9-9.682,10.321c-0.643,1.081-1.052,2.281-1.581,3.438c-0.382,1.209-0.866,2.403-1.104,3.666
				c-0.14,0.625-0.301,1.252-0.427,1.879l-0.267,1.888c-0.038,0.318-0.091,0.627-0.118,0.952l-0.049,0.996l-0.097,1.951
				c0.062,5.16,1.124,10.393,3.573,14.803c1.128,2.246,2.649,4.231,4.27,5.996c1.608,1.793,3.519,3.201,5.468,4.315
				c0.502,0.255,0.97,0.565,1.476,0.789c0.509,0.21,1.015,0.419,1.52,0.627c0.499,0.218,1.037,0.304,1.544,0.467l0.762,0.233
				l0.724,0.117l0.714,0.127c0.248,0.038,0.439,0.109,0.764,0.106c0.593,0.026,1.182,0.051,1.768,0.076l0.22,0.009l0.11,0.005
				l0.055,0.002c0.054,0.003-0.27-0.011-0.11-0.007l0.379-0.03l0.755-0.057c0.501-0.037,1.003-0.045,1.485-0.176
				c0.486-0.097,0.969-0.194,1.449-0.289c0.466-0.153,0.929-0.305,1.388-0.456l0.688-0.221l0.654-0.305
				c0.435-0.202,0.867-0.402,1.295-0.6c1.623-0.977,3.206-1.96,4.486-3.243c2.642-2.454,4.543-5.313,5.868-8.013
				c1.301-2.717,2.152-5.258,2.549-7.415c0.275-1.076,0.365-2.014,0.487-2.836c0.054-0.416,0.124-0.78,0.154-1.152
				c0.022-0.382,0.041-0.73,0.059-1.041c0.07-1.245,0.108-1.908,0.108-1.908L90.086,69.919z"/>
		</g>
		<g>
			<circle style="fill:#FFFFFF;" cx="42.58" cy="69.919" r="32.333"/>
			<path d="M76.911,70.02c0,0-0.037,0.792-0.107,2.278c-0.028,0.379-0.014,0.768-0.081,1.261c-0.071,0.495-0.15,1.035-0.234,1.618
				c-0.094,0.579-0.162,1.221-0.302,1.869c-0.161,0.637-0.332,1.314-0.513,2.03c-0.793,2.829-2.041,6.25-4.33,9.682
				c-2.251,3.432-5.415,6.951-9.617,9.81c-4.203,2.829-9.441,4.95-15.235,5.674c-0.72,0.116-1.457,0.107-2.192,0.164l-1.109,0.061
				l-0.557,0.03c0.079,0.003-0.182-0.001-0.182-0.001l-0.065-0.003l-0.131-0.006l-0.262-0.012c-1.415-0.082-2.75-0.051-4.378-0.341
				c-3.179-0.37-6.109-1.31-9.077-2.536c-2.942-1.253-5.688-3.031-8.257-5.075c-2.532-2.105-4.747-4.622-6.66-7.382
				c-1.863-2.8-3.295-5.899-4.342-9.137l-0.645-2.473c-0.249-0.819-0.3-1.677-0.457-2.516c-0.135-0.843-0.279-1.686-0.294-2.541
				l-0.069-1.279l-0.033-0.64l-0.016-0.32l-0.008-0.16l-0.004-0.08c0-0.083-0.006,0.073-0.001-0.206l0.128-2.376
				c0.034-0.408,0.015-0.765,0.092-1.215l0.196-1.312l0.203-1.31c0.058-0.443,0.143-0.869,0.262-1.274l0.645-2.473
				c1.047-3.238,2.479-6.336,4.342-9.137c1.912-2.759,4.128-5.277,6.66-7.382c2.57-2.044,5.315-3.823,8.257-5.075
				c2.939-1.223,5.962-2.175,9.012-2.528c1.511-0.285,3.032-0.272,4.524-0.353l0.28-0.012l0.14-0.006l0.07-0.003l0.18,0.005
				l0.521,0.03l1.038,0.059c0.705,0.056,1.342,0.04,2.089,0.155c1.472,0.252,2.997,0.385,4.332,0.804
				c0.684,0.181,1.363,0.361,2.037,0.539c0.658,0.226,1.303,0.477,1.946,0.714c2.58,0.934,4.887,2.262,7.02,3.627
				c4.202,2.859,7.366,6.378,9.617,9.81c2.29,3.432,3.537,6.853,4.33,9.682c0.181,0.716,0.352,1.393,0.513,2.03
				c0.138,0.642,0.202,1.256,0.295,1.821c0.084,0.567,0.162,1.091,0.233,1.571c0.068,0.481,0.058,0.924,0.087,1.317
				c0.073,1.577,0.112,2.418,0.112,2.418L76.911,70.02z M72.913,69.919c0,0-0.041-0.744-0.118-2.138
				c-0.028-0.347-0.017-0.74-0.082-1.164c-0.067-0.423-0.14-0.886-0.219-1.385c-0.087-0.498-0.141-1.04-0.268-1.605
				c-0.147-0.56-0.303-1.156-0.468-1.785c-0.719-2.486-1.828-5.493-3.869-8.498c-1.998-3.009-4.811-6.087-8.533-8.539
				c-1.89-1.166-3.917-2.311-6.183-3.091c-0.563-0.2-1.131-0.402-1.704-0.605c-0.59-0.147-1.184-0.294-1.783-0.443
				c-1.206-0.367-2.385-0.417-3.596-0.638c-0.6-0.098-1.344-0.079-2.016-0.125l-1.039-0.046l-0.522-0.023
				c-0.123-0.003,0.094,0,0.05,0.002l-0.061,0.004l-0.122,0.007l-0.244,0.015c-1.299,0.095-2.624,0.086-3.931,0.36
				c-2.645,0.331-5.247,1.204-7.775,2.286c-2.531,1.112-4.877,2.689-7.075,4.473c-2.154,1.851-4.05,4.027-5.683,6.41
				c-1.585,2.421-2.789,5.091-3.674,7.869l-0.537,2.123c-0.105,0.356-0.171,0.706-0.209,1.051l-0.155,1.04l-0.163,1.039
				c-0.067,0.331-0.051,0.774-0.08,1.156l-0.112,2.377c0.008-0.23,0.004-0.024,0.007-0.058l0.003,0.069l0.007,0.137l0.014,0.274
				l0.027,0.549l0.051,1.098c0.001,0.736,0.126,1.458,0.237,2.181c0.133,0.718,0.157,1.459,0.374,2.159L14,78.578
				c0.886,2.778,2.089,5.448,3.674,7.869c1.632,2.383,3.528,4.559,5.683,6.41c2.198,1.784,4.544,3.361,7.075,4.473
				c0.605,0.338,1.279,0.506,1.91,0.768c0.644,0.229,1.267,0.515,1.933,0.656c0.656,0.174,1.308,0.347,1.957,0.519
				c0.648,0.166,1.277,0.217,1.91,0.336c1.19,0.269,2.7,0.277,4.077,0.371L42.625,100l0.486-0.023l0.967-0.043
				c0.641-0.044,1.286-0.019,1.914-0.115c5.052-0.571,9.646-2.356,13.366-4.786c3.722-2.452,6.534-5.53,8.533-8.539
				c2.041-3.005,3.15-6.012,3.869-8.498c0.165-0.629,0.321-1.225,0.468-1.785c0.125-0.558,0.175-1.074,0.261-1.557
				c0.078-0.483,0.151-0.929,0.217-1.338c0.066-0.412,0.058-0.859,0.088-1.22c0.08-1.485,0.123-2.278,0.123-2.278L72.913,69.919z"/>
		</g>
		<circle style="fill:#FFFFFF;stroke:#000000;stroke-width:3;stroke-miterlimit:10;" cx="50.746" cy="54.252" r="6.833"/>
		<circle style="fill:#FFFFFF;stroke:#000000;stroke-width:2.5;stroke-miterlimit:10;" cx="25.247" cy="85.085" r="4.333"/>
		<g>
			<path d="M12.761,60.828c0,0,0.735,0.93,2.174,2.51c1.428,1.577,3.56,3.763,6.29,6.15c1.369,1.186,2.9,2.409,4.596,3.555
				c1.695,1.137,3.556,2.228,5.564,2.975c1.996,0.746,4.152,1.202,6.176,0.876c0.516-0.034,0.991-0.226,1.489-0.339
				c0.461-0.22,0.963-0.342,1.394-0.641l0.671-0.39l0.625-0.487l0.315-0.24l0.04-0.03c0.032-0.028-0.206,0.196-0.096,0.091
				l0.02-0.021l0.081-0.083l0.162-0.167l0.325-0.334c0.093-0.104,0.257-0.241,0.264-0.306c0.081-0.159,0.171-0.304,0.279-0.445
				c0.088-0.181,0.161-0.402,0.253-0.598c0.114-0.189,0.105-0.439,0.172-0.653c0.067-0.215,0.087-0.453,0.089-0.698
				c0.062-0.471-0.016-0.988-0.047-1.494c-0.115-0.52-0.168-1.037-0.35-1.563c-0.606-2.099-1.666-4.154-2.843-6.051
				c-2.372-3.808-5.138-7.103-7.58-9.832c-2.452-2.731-4.602-4.927-6.137-6.427c-0.774-0.741-1.382-1.324-1.796-1.721
				c-0.415-0.383-0.636-0.588-0.636-0.588l1.983-2.251c0,0,0.24,0.211,0.69,0.608c0.436,0.398,1.075,0.982,1.888,1.725
				c1.6,1.509,3.88,3.67,6.429,6.463c2.54,2.798,5.426,6.161,8.019,10.242c1.284,2.046,2.498,4.288,3.278,6.885
				c0.219,0.633,0.322,1.341,0.464,2.023c0.065,0.721,0.163,1.432,0.09,2.198c-0.008,0.375-0.041,0.754-0.138,1.139
				c-0.097,0.381-0.122,0.772-0.296,1.141c-0.153,0.374-0.286,0.743-0.473,1.114c-0.233,0.378-0.482,0.752-0.741,1.113
				c-0.141,0.212-0.23,0.269-0.342,0.396l-0.322,0.336l-0.161,0.168l-0.08,0.084l-0.158,0.152l-0.053,0.041l-0.424,0.325
				l-0.853,0.643l-0.935,0.541c-0.606,0.389-1.315,0.597-1.975,0.877c-0.698,0.174-1.387,0.41-2.096,0.466
				c-2.844,0.412-5.544-0.238-7.876-1.129c-2.353-0.905-4.389-2.135-6.223-3.386c-1.83-1.261-3.446-2.577-4.88-3.842
				c-2.875-2.528-4.983-4.897-6.443-6.564c-1.447-1.671-2.228-2.71-2.228-2.71L12.761,60.828z"/>
		</g>
	</g>
</g>
<g id="Layer_1">
</g>
</svg>
