<?xml version="1.0" encoding="iso-8859-1"?>
<!-- Generator: Adobe Illustrator 19.2.0, SVG Export Plug-In . SVG Version: 6.00 Build 0)  -->
<!DOCTYPE svg PUBLIC "-//W3C//DTD SVG 1.1//EN" "http://www.w3.org/Graphics/SVG/1.1/DTD/svg11.dtd">
<svg version="1.1" xmlns="http://www.w3.org/2000/svg" xmlns:xlink="http://www.w3.org/1999/xlink" x="0px" y="0px"
	 viewBox="0 0 140 140" style="enable-background:new 0 0 140 140;" xml:space="preserve">
<g id="kulupu">
	<g id="kulupu_3_">
		<path style="fill:#FFFFFF;" d="M31.311,122.133c10.5,8,12.051,7.223,21.275,5.362c2.975,2.638,10.59,2.367,13.724-0.264
			c1.501,2.903,10.231,4.201,13.532,0.008c2.219,2.895,14.219,6.395,25.219-13.855s0-26.25,0-26.25H38.663L31.311,122.133z"/>
		<path style="fill:#FFFFFF;stroke:#000000;stroke-width:4;stroke-miterlimit:10;" d="M78.304,127.669c2.83,2,6.174,2,6.174,2
			c8.524,0,15.434-6.716,15.434-15v-21.75h-4.999h-49v22c0,8.284-6.716,15-15,15h-5.5c-8.284,0-15-6.716-15-15v-22.5
			c0-8.284,6.716-15,15-15h5v-27.5c0-22.091,17.909-40,40-40s40,17.909,40,40v27.5h5c8.284,0,15,6.716,15,15v22.5
			c0,8.284-6.716,15-15,15h-5.5c-5.156,0-9.705-2.602-12.405-6.564"/>
		<path style="fill:none;stroke:#000000;stroke-width:4;stroke-miterlimit:10;" d="M60.013,92.919v21.75c0,8.284-6.91,15-15.434,15
			c0,0-3.087,0.125-5.916-1.875"/>
		<path style="fill:none;stroke:#000000;stroke-width:4;stroke-miterlimit:10;" d="M73.313,92.919v21.75c0,8.284-6.91,15-15.434,15
			c0,0-3.344,0-6.174-2"/>
		<path style="fill:none;stroke:#000000;stroke-width:4;stroke-miterlimit:10;" d="M86.612,92.919v21.75c0,8.284-6.91,15-15.434,15
			c0,0-3.344,0-6.174-2"/>
		<path style="fill:none;stroke:#000000;stroke-width:4;stroke-miterlimit:10;" d="M47.419,77.419V51.246
			c0-12.699,10.295-22.994,22.994-22.994s22.994,10.295,22.994,22.994v26.173H47.419z"/>
		<line style="fill:none;stroke:#000000;stroke-width:4;stroke-miterlimit:10;" x1="52.586" y1="36.752" x2="93.407" y2="77.419"/>
		<line style="fill:none;stroke:#000000;stroke-width:4;stroke-miterlimit:10;" x1="88.24" y1="36.752" x2="47.419" y2="77.419"/>
	</g>
</g>
<g id="Layer_1">
</g>
</svg>
