<?xml version="1.0" encoding="iso-8859-1"?>
<!-- Generator: Adobe Illustrator 19.2.0, SVG Export Plug-In . SVG Version: 6.00 Build 0)  -->
<!DOCTYPE svg PUBLIC "-//W3C//DTD SVG 1.1//EN" "http://www.w3.org/Graphics/SVG/1.1/DTD/svg11.dtd">
<svg version="1.1" xmlns="http://www.w3.org/2000/svg" xmlns:xlink="http://www.w3.org/1999/xlink" x="0px" y="0px"
	 viewBox="0 0 125.045 125.25" style="enable-background:new 0 0 125.045 125.25;" xml:space="preserve">
<g id="kule">
	<g id="kule_1_">
		<circle style="fill:#FFFFFF;" cx="63.471" cy="56.943" r="54.051"/>
		<g>
			<path style="fill:#FFFFFF;stroke:#000000;stroke-width:5;stroke-linecap:round;stroke-linejoin:round;stroke-miterlimit:10;" d="
				M80.162,72.455c0-11.704,9.488-21.191,21.191-21.191s21.191,9.488,21.191,21.191L122.5,92.75c0,16.569-13.431,30-30,30h-60
				c-16.569,0-30-13.431-30-30V72.455c0-11.704,9.488-21.191,21.191-21.191s21.191,9.488,21.191,21.191
				c0-9.742,7.898-17.64,17.64-17.64S80.162,62.713,80.162,72.455z"/>
		</g>
		<path style="fill:none;stroke:#000000;stroke-width:5;stroke-linecap:round;stroke-linejoin:round;stroke-miterlimit:10;" d="
			M7.522,57.5c0-30.376,24.624-55,55-55s55,24.624,55,55"/>
		<g>
			
				<line style="fill:none;stroke:#000000;stroke-width:4;stroke-linecap:round;stroke-linejoin:round;stroke-miterlimit:10;" x1="72.364" y1="55.75" x2="96.601" y2="13.77"/>
			
				<line style="fill:none;stroke:#000000;stroke-width:4;stroke-linecap:round;stroke-linejoin:round;stroke-miterlimit:10;" x1="62.175" y1="54.749" x2="62.175" y2="3.249"/>
			
				<line style="fill:none;stroke:#000000;stroke-width:4;stroke-linecap:round;stroke-linejoin:round;stroke-miterlimit:10;" x1="51.986" y1="55.75" x2="28.19" y2="14.534"/>
		</g>
	</g>
</g>
<g id="Layer_1">
</g>
</svg>
