<?xml version="1.0" encoding="iso-8859-1"?>
<!-- Generator: Adobe Illustrator 19.2.0, SVG Export Plug-In . SVG Version: 6.00 Build 0)  -->
<!DOCTYPE svg PUBLIC "-//W3C//DTD SVG 1.1//EN" "http://www.w3.org/Graphics/SVG/1.1/DTD/svg11.dtd">
<svg version="1.1" xmlns="http://www.w3.org/2000/svg" xmlns:xlink="http://www.w3.org/1999/xlink" x="0px" y="0px"
	 viewBox="0 0 140 140" style="enable-background:new 0 0 140 140;" xml:space="preserve">
<g id="e">
	<g id="e_3_">
		<g>
			<path style="fill:#FFFFFF;" d="M109.494,100.419c10.355,0,18.75,6.604,18.75,14.75s-8.395,14.75-18.75,14.75H84.411"/>
			<path d="M109.574,98.42c0,0,0.304,0.005,0.875,0.015c0.285,0.005,0.638,0.011,1.051,0.018c0.466,0.045,1.001,0.096,1.6,0.153
				c1.19,0.144,2.552,0.407,4.124,0.867c1.545,0.506,3.294,1.143,5.033,2.222c1.746,1.05,3.514,2.474,5.024,4.367
				c1.503,1.882,2.72,4.291,3.159,7.006c0.121,0.673,0.128,1.369,0.186,2.062l-0.048,1.03l-0.024,0.438
				c-0.002,0.135-0.016,0.295-0.055,0.499c-0.234,1.565-0.6,2.924-1.233,4.202c-1.2,2.59-3.098,4.8-5.312,6.453
				c-2.211,1.672-4.709,2.862-7.263,3.614c-2.537,0.76-5.216,1.054-7.64,1.049c-4.563-0.047-8.822-0.033-12.473-0.121
				c-3.651-0.074-6.693-0.144-8.822-0.236c-2.13-0.089-3.346-0.14-3.346-0.14v-4c0,0,1.217-0.051,3.346-0.14
				c2.13-0.092,5.172-0.161,8.822-0.236c3.651-0.088,7.91-0.074,12.473-0.121c2.136-0.004,4.188-0.215,6.252-0.812
				c2.041-0.584,4.008-1.515,5.691-2.769c1.695-1.24,3.05-2.846,3.875-4.601c0.098-0.221,0.22-0.434,0.302-0.659l0.224-0.679
				c0.197-0.472,0.193-0.831,0.32-1.239l0.038-0.153l0.016-0.219l0.033-0.437l0.033-0.436l0.016-0.217l0.008-0.108l0.004-0.054
				c-0.002,0.06,0.007-0.172-0.003,0.127l-0.001-0.022c-0.045-0.459-0.022-0.923-0.097-1.372c-0.256-1.806-1.036-3.485-2.105-4.885
				c-1.065-1.409-2.408-2.522-3.748-3.406c-1.337-0.904-2.747-1.464-3.995-1.927c-1.262-0.417-2.438-0.685-3.357-0.829
				c-0.458-0.07-0.866-0.132-1.222-0.186c-0.412-0.026-0.763-0.048-1.048-0.066c-0.569-0.036-0.873-0.055-0.873-0.055L109.574,98.42
				z"/>
		</g>
		<g>
			<path style="fill:#FFFFFF;" d="M110.495,81.169c10.355,0,18.75,6.604,18.75,14.75s-8.395,14.75-18.75,14.75H85.412"/>
			<path d="M110.575,79.17c0,0,0.305-0.005,0.876-0.013c0.286-0.003,0.638-0.007,1.053-0.012c0.468,0.038,1.006,0.082,1.608,0.131
				c1.197,0.126,2.573,0.351,4.161,0.797c1.557,0.504,3.321,1.138,5.08,2.22c1.766,1.05,3.568,2.472,5.083,4.4
				c1.524,1.903,2.725,4.361,3.141,7.105c0.115,0.68,0.116,1.383,0.166,2.082l0.002,0.033l-0.007,0.188l-0.004,0.054l-0.008,0.108
				l-0.016,0.217l-0.033,0.436l-0.033,0.437c-0.006,0.135-0.023,0.294-0.064,0.5c-0.149,0.739-0.258,1.577-0.511,2.213l-0.345,1.015
				c-0.126,0.334-0.294,0.648-0.443,0.972c-1.233,2.578-3.155,4.756-5.38,6.374c-2.222,1.636-4.72,2.785-7.263,3.497
				c-2.527,0.732-5.182,0.947-7.584,0.899c-4.563-0.098-8.822-0.189-12.473-0.267c-3.651-0.109-6.693-0.199-8.822-0.263
				c-2.13-0.08-3.346-0.126-3.346-0.126v-3c0,0,1.217-0.046,3.346-0.126c2.13-0.063,5.172-0.154,8.822-0.263
				c3.651-0.078,7.91-0.17,12.473-0.267c2.158-0.047,4.234-0.338,6.308-0.962c2.052-0.624,4.02-1.596,5.691-2.885
				c1.684-1.276,3.015-2.913,3.807-4.681c0.44-0.867,0.638-1.847,0.779-2.578l0.033-0.151l0.012-0.219l0.023-0.438l0.037-0.704
				c-0.052-0.454-0.035-0.91-0.117-1.352c-0.279-1.777-1.076-3.406-2.123-4.786c-1.061-1.374-2.369-2.489-3.689-3.373
				c-1.318-0.902-2.713-1.464-3.948-1.93c-1.246-0.431-2.408-0.737-3.319-0.9c-0.455-0.078-0.861-0.148-1.214-0.208
				c-0.412-0.038-0.762-0.07-1.047-0.096c-0.569-0.054-0.872-0.083-0.872-0.083L110.575,79.17z"/>
		</g>
		<g>
			<path style="fill:#FFFFFF;" d="M110.495,61.919c10.355,0,18.75,6.604,18.75,14.75s-8.395,14.75-18.75,14.75H85.412"/>
			<path d="M110.575,59.92c0,0,0.305-0.005,0.876-0.013c0.286-0.003,0.638-0.007,1.053-0.012c0.468,0.038,1.006,0.082,1.608,0.131
				c1.197,0.126,2.573,0.351,4.161,0.797c1.557,0.504,3.321,1.138,5.08,2.22c1.766,1.05,3.568,2.472,5.083,4.4
				c1.524,1.903,2.725,4.361,3.141,7.105c0.115,0.68,0.116,1.383,0.166,2.082l0.002,0.033l-0.007,0.188l-0.004,0.054l-0.008,0.108
				l-0.016,0.217l-0.033,0.436l-0.033,0.437c-0.006,0.135-0.023,0.294-0.064,0.5c-0.149,0.739-0.258,1.577-0.511,2.213l-0.345,1.015
				c-0.126,0.334-0.294,0.648-0.443,0.972c-1.233,2.578-3.155,4.756-5.38,6.374c-2.222,1.636-4.72,2.785-7.263,3.497
				c-2.527,0.732-5.182,0.947-7.584,0.899c-4.563-0.098-8.822-0.189-12.473-0.267c-3.651-0.109-6.693-0.199-8.822-0.263
				c-2.13-0.08-3.346-0.126-3.346-0.126v-3c0,0,1.217-0.046,3.346-0.126c2.13-0.063,5.172-0.154,8.822-0.263
				c3.651-0.078,7.91-0.17,12.473-0.267c2.158-0.047,4.234-0.338,6.308-0.962c2.052-0.624,4.02-1.596,5.691-2.885
				c1.684-1.276,3.015-2.913,3.807-4.681c0.44-0.867,0.638-1.847,0.779-2.578l0.033-0.151l0.012-0.219l0.023-0.438l0.037-0.704
				c-0.052-0.454-0.035-0.91-0.117-1.352c-0.279-1.777-1.076-3.406-2.123-4.786c-1.061-1.374-2.369-2.489-3.689-3.373
				c-1.318-0.902-2.713-1.464-3.948-1.93c-1.246-0.431-2.408-0.737-3.319-0.9c-0.455-0.078-0.861-0.148-1.214-0.208
				c-0.412-0.038-0.762-0.07-1.047-0.096c-0.569-0.054-0.872-0.083-0.872-0.083L110.575,59.92z"/>
		</g>
		<g>
			<path style="fill:#FFFFFF;" d="M110.495,42.669c10.355,0,18.75,6.604,18.75,14.75s-8.395,14.75-18.75,14.75H85.412"/>
			<path d="M110.575,40.67c0,0,0.305-0.005,0.876-0.013c0.286-0.003,0.638-0.007,1.053-0.012c0.468,0.038,1.006,0.082,1.608,0.131
				c1.197,0.126,2.573,0.351,4.161,0.797c1.557,0.504,3.321,1.138,5.08,2.22c1.766,1.05,3.568,2.472,5.083,4.4
				c1.524,1.903,2.725,4.361,3.141,7.105c0.115,0.68,0.116,1.383,0.166,2.082l0.002,0.033l-0.007,0.188l-0.004,0.054l-0.008,0.108
				l-0.016,0.217l-0.033,0.436l-0.033,0.437c-0.006,0.135-0.023,0.294-0.064,0.5c-0.149,0.739-0.258,1.577-0.511,2.213l-0.345,1.015
				c-0.126,0.334-0.294,0.648-0.443,0.972c-1.233,2.578-3.155,4.756-5.38,6.374c-2.222,1.636-4.72,2.785-7.263,3.497
				c-2.527,0.732-5.182,0.947-7.584,0.899c-4.563-0.098-8.822-0.189-12.473-0.267c-3.651-0.109-6.693-0.199-8.822-0.263
				c-2.13-0.08-3.346-0.126-3.346-0.126v-3c0,0,1.217-0.046,3.346-0.126c2.13-0.063,5.172-0.154,8.822-0.263
				c3.651-0.078,7.91-0.17,12.473-0.267c2.158-0.047,4.234-0.338,6.308-0.962c2.052-0.624,4.02-1.596,5.691-2.885
				c1.684-1.276,3.015-2.913,3.807-4.681c0.44-0.867,0.638-1.847,0.779-2.578l0.033-0.151l0.012-0.219l0.023-0.438l0.037-0.704
				c-0.052-0.454-0.035-0.91-0.117-1.352c-0.279-1.777-1.076-3.406-2.123-4.786c-1.061-1.374-2.369-2.489-3.689-3.373
				c-1.318-0.902-2.713-1.464-3.948-1.93c-1.246-0.431-2.408-0.737-3.319-0.9c-0.455-0.078-0.861-0.148-1.214-0.208
				c-0.412-0.038-0.762-0.07-1.047-0.096c-0.569-0.054-0.872-0.083-0.872-0.083L110.575,40.67z"/>
		</g>
		<path style="fill:#FFFFFF;stroke:#000000;stroke-width:5;stroke-miterlimit:10;" d="M77.076,129.919h18.335
			c8.284,0,15-6.716,15-15v-30v10v-30c0-6.499,8.483-12.684,9.915-14.116c1.432-1.432,10.085-5.884,10.085-16.05v-9.833
			c0-8.284-6.716-15-15-15H91.483H80.745h-40.33c-16.569,0-30,13.431-30,30v60c0,16.569,13.431,30,30,30h40.33"/>
	</g>
</g>
<g id="Layer_1">
</g>
</svg>
