<?xml version="1.0" encoding="iso-8859-1"?>
<!-- Generator: Adobe Illustrator 19.2.0, SVG Export Plug-In . SVG Version: 6.00 Build 0)  -->
<!DOCTYPE svg PUBLIC "-//W3C//DTD SVG 1.1//EN" "http://www.w3.org/Graphics/SVG/1.1/DTD/svg11.dtd">
<svg version="1.1" xmlns="http://www.w3.org/2000/svg" xmlns:xlink="http://www.w3.org/1999/xlink" x="0px" y="0px"
	 viewBox="0 0 125.045 125.127" style="enable-background:new 0 0 125.045 125.127;" xml:space="preserve">
<g id="akesi">
	<g id="akesi_2_">
		<g>
			<path style="fill:#FFFFFF;" d="M19.741,53.329c-1.101-1.918-1.755-4.318-1.755-6.924c0-6.282,2.719-11.5,7.413-11.5
				s9.587,5.218,9.587,11.5c-0.67-6.417,2.173-14.069,7.519-14.394c4.478-0.272,8.894,4.811,9.481,11.144
				c0,0,0.417-15.5,11.856-15.5c6.5,0,11.769,7.052,11.769,15.75c0,19.606-12.198,30.125-33.875,30.125s-39.25-15.894-39.25-35.5
				s17.573-35.5,39.25-35.5h20.75c33.137,0,60,26.863,60,60s-26.863,60-60,60c-31.204,0-56.5-20.651-56.5-46.125
				c0-6.048,1.426-11.824,4.018-17.116"/>
			<path d="M19.303,53.571c-0.498-0.653-0.956-1.422-1.305-2.197c-0.366-0.781-0.628-1.608-0.845-2.45
				c-0.2-0.85-0.326-1.698-0.385-2.595c-0.023-0.39-0.04-0.832-0.031-1.274c0.007-0.43,0.024-0.862,0.057-1.295
				c0.126-1.729,0.475-3.48,1.216-5.164c0.363-0.842,0.836-1.666,1.433-2.435c0.614-0.756,1.367-1.454,2.268-1.982
				c0.897-0.529,1.934-0.871,2.974-0.977c0.28-0.031,0.473-0.04,0.823-0.044c0.206,0.008,0.376,0.006,0.692,0.04
				c0.57,0.052,1.021,0.151,1.515,0.282c1.931,0.529,3.542,1.652,4.829,2.978c2.549,2.679,3.869,6.414,3.44,9.941l0.001,0.006
				c0.055,0.545-0.343,1.03-0.887,1.085c-0.511,0.051-0.971-0.296-1.07-0.789l-0.038-0.192c-0.292-1.473-0.344-2.981-0.27-4.488
				c0.104-1.504,0.362-3.013,0.855-4.483c0.484-1.47,1.187-2.915,2.24-4.215c1.032-1.295,2.55-2.432,4.37-2.869
				c0.464-0.104,0.882-0.174,1.397-0.196l0.265-0.006l0.369,0.011c0.269,0.007,0.484,0.039,0.712,0.067
				c0.904,0.125,1.755,0.418,2.534,0.796c1.553,0.78,2.793,1.923,3.776,3.19c0.983,1.273,1.71,2.691,2.211,4.166
				c0.474,1.483,0.77,3.014,0.779,4.547l0.001,0.01l-2.495,0.082c0.072-2.919,0.54-5.686,1.538-8.456
				c0.999-2.712,2.687-5.487,5.47-7.233c1.373-0.86,2.95-1.409,4.527-1.633c0.397-0.077,0.788-0.084,1.183-0.118l0.296-0.02
				c-0.011-0.004,0.183-0.006,0.208-0.005l0.127,0c0.181,0.003,0.313-0.005,0.534,0.008c0.946,0.044,1.693,0.188,2.515,0.414
				c3.233,0.912,5.787,3.17,7.541,5.717c1.751,2.584,2.817,5.535,3.212,8.545c0.109,0.752,0.168,1.508,0.204,2.264l0.015,0.567
				l0.004,0.328l-0.006,0.254l-0.026,1.016c-0.003,0.65-0.081,1.447-0.12,2.163c-0.06,0.729-0.146,1.437-0.23,2.155
				c-0.4,2.86-1.088,5.722-2.219,8.451c-1.144,2.721-2.724,5.291-4.707,7.511c-3.97,4.477-9.394,7.336-14.9,8.767
				c-5.525,1.53-11.185,1.867-16.754,1.643c-5.734-0.289-11.293-1.685-16.49-4.06c-5.186-2.365-9.91-5.818-13.716-10.151
				c-3.834-4.306-6.63-9.595-7.991-15.27c-0.693-2.841-0.994-5.743-0.945-8.695l0.028-1.016c0.013-0.346,0.055-0.745,0.082-1.115
				c0.049-0.765,0.142-1.494,0.251-2.211c0.199-1.447,0.524-2.873,0.899-4.283c1.568-5.629,4.557-10.81,8.481-15.061
				c3.936-4.249,8.766-7.613,14.041-9.904c5.281-2.286,10.997-3.511,16.724-3.659c1.469-0.048,2.758-0.021,4.131-0.029l4.065-0.002
				l8.13-0.003l4.065-0.002l1.016,0l0.508,0L63,0.012l2.032,0.051c1.359,0.049,2.863,0.174,4.262,0.31
				c1.401,0.18,2.806,0.33,4.192,0.607c5.572,0.955,10.983,2.754,16.09,5.167c10.187,4.906,18.985,12.615,25.196,22.058
				c6.261,9.418,9.79,20.607,10.218,31.894c0.479,11.272-2.225,22.711-7.679,32.606c-5.438,9.922-13.647,18.275-23.421,23.959
				c-4.877,2.866-10.169,5.002-15.634,6.456c-5.487,1.379-11.13,2.117-16.805,1.993c-11.194-0.143-22.493-2.936-32.343-8.523
				c-4.918-2.791-9.485-6.271-13.38-10.443c-3.879-4.171-7.142-9.007-9.265-14.375C4.315,86.441,3.262,80.582,3.5,74.861
				c0.214-5.83,1.726-11.503,4.258-16.671c0.608-1.24,2.105-1.753,3.345-1.145c1.24,0.608,1.753,2.104,1.145,3.344
				c-2.23,4.564-3.541,9.602-3.714,14.614C8.335,80.12,9.269,85.161,11.17,89.878c1.877,4.724,4.788,9.028,8.288,12.777
				c3.514,3.749,7.674,6.911,12.183,9.456c9.045,5.105,19.458,7.668,29.919,7.796c5.168,0.12,10.373-0.559,15.392-1.815
				c5.008-1.331,9.86-3.281,14.335-5.908c8.967-5.206,16.516-12.87,21.51-21.969c5.009-9.095,7.496-19.519,7.067-29.919
				c-0.389-10.371-3.611-20.627-9.357-29.284c-5.698-8.678-13.782-15.773-23.133-20.286C82.682,8.51,77.718,6.85,72.6,5.971
				c-1.273-0.258-2.565-0.393-3.852-0.561c-0.646-0.089-1.27-0.107-1.906-0.165c-0.642-0.042-1.241-0.118-1.939-0.12l-2.032-0.052
				l-0.444-0.011l-0.508,0l-1.016,0l-4.065-0.002l-8.13-0.003l-4.065-0.002c-1.336,0.007-2.759-0.019-3.999,0.024
				C35.537,5.206,30.463,6.294,25.79,8.311c-4.667,2.023-8.918,4.988-12.354,8.692c-3.426,3.708-5.998,8.18-7.346,13.001
				c-0.32,1.208-0.602,2.429-0.772,3.668c-0.096,0.624-0.174,1.238-0.212,1.827c-0.023,0.306-0.06,0.581-0.073,0.911l-0.029,1.016
				c-0.055,2.464,0.159,5.003,0.732,7.434c1.136,4.876,3.454,9.494,6.716,13.384c3.251,3.9,7.389,7.099,12.012,9.342
				c4.604,2.263,9.757,3.532,14.843,3.855c5.241,0.26,10.54-0.212,15.462-1.62c4.915-1.427,9.394-4.036,12.54-7.795
				c3.171-3.747,4.886-8.562,5.519-13.57c0.065-0.628,0.135-1.267,0.18-1.889c0.024-0.637,0.088-1.191,0.085-1.896l0.014-1.016
				l0.001-0.434l-0.004-0.449c-0.02-0.597-0.055-1.195-0.132-1.786c-0.299-2.359-1.012-4.672-2.211-6.642
				c-1.177-1.969-2.873-3.592-4.864-4.285c-0.471-0.172-1.061-0.307-1.467-0.356c-0.116-0.019-0.323-0.024-0.481-0.037l-0.127-0.008
				c-0.06-0.004,0.05-0.001-0.046-0.001l-0.212,0.001c-0.281,0.007-0.571-0.016-0.843,0.023c-1.114,0.08-2.172,0.369-3.14,0.878
				c-1.942,1.015-3.454,2.988-4.47,5.261c-1.014,2.264-1.644,4.881-1.875,7.369l-0.009,0.097c-0.064,0.686-0.672,1.19-1.358,1.127
				c-0.613-0.057-1.081-0.549-1.128-1.142l-0.001-0.009c-0.259-1.276-0.609-2.519-1.154-3.669c-0.519-1.155-1.183-2.232-1.973-3.156
				c-0.79-0.919-1.708-1.699-2.695-2.166c-0.489-0.237-0.99-0.407-1.485-0.475c-0.122-0.014-0.257-0.035-0.341-0.034
				c-0.055-0.002-0.08-0.01-0.159-0.01l-0.265,0.006c-0.189,0.006-0.472,0.036-0.698,0.082c-0.952,0.189-1.836,0.799-2.618,1.646
				c-0.776,0.855-1.402,1.95-1.905,3.118c-0.978,2.362-1.478,5.031-1.465,7.697l-1.996,0.104l0-0.005
				c-0.224-1.483-0.656-2.886-1.306-4.166c-0.65-1.277-1.501-2.437-2.52-3.373c-1.001-0.949-2.189-1.656-3.382-2.005
				c-0.286-0.079-0.63-0.149-0.867-0.169c-0.086-0.019-0.321-0.024-0.52-0.031c-0.053,0.004-0.267-0.005-0.388,0.009
				c-0.573,0.034-1.114,0.186-1.625,0.455c-1.019,0.538-1.901,1.572-2.553,2.81c-0.646,1.246-1.078,2.68-1.349,4.158
				c-0.067,0.37-0.119,0.745-0.163,1.122c-0.04,0.366-0.079,0.733-0.108,1.152c-0.066,0.722-0.064,1.492-0.02,2.242
				c0.043,0.755,0.153,1.51,0.315,2.258c0.17,0.758,0.377,1.472,0.68,2.226c0.104,0.258-0.022,0.551-0.28,0.655
				c-0.215,0.086-0.454,0.014-0.588-0.162L19.303,53.571z"/>
		</g>
		<path style="fill:none;stroke:#000000;stroke-width:3;stroke-linecap:round;stroke-linejoin:round;stroke-miterlimit:10;" d="
			M8.986,79.178c11.36,1.391,35.262,2.265,53.5,2.265"/>
		<path style="fill:none;stroke:#000000;stroke-width:3;stroke-linecap:round;stroke-linejoin:round;stroke-miterlimit:10;" d="
			M8.986,90.428c11.36,1.391,35.262,2.265,53.5,2.265"/>
		<path style="fill:none;stroke:#000000;stroke-width:4;stroke-linecap:round;stroke-linejoin:round;stroke-miterlimit:10;" d="
			M62.486,70.031v34.662c-14.715,0-33.118-0.569-45.645-1.519"/>
		<g>
			
				<circle style="fill:none;stroke:#000000;stroke-width:4;stroke-linecap:round;stroke-linejoin:round;stroke-miterlimit:10;" cx="90.484" cy="77.864" r="15.333"/>
			<g>
				<path d="M91.234,62.531c0,0,0.15,0.474,0.344,1.303c0.198,0.829,0.436,2.014,0.66,3.436c0.444,2.844,0.741,6.635,0.745,10.427
					c0.01,3.792-0.278,7.583-0.728,10.427c-0.225,1.422-0.468,2.607-0.67,3.436c-0.196,0.829-0.351,1.303-0.351,1.303
					c-0.135,0.414-0.58,0.641-0.994,0.506c-0.248-0.081-0.43-0.276-0.506-0.506c0,0-0.154-0.474-0.351-1.303
					c-0.202-0.829-0.445-2.014-0.67-3.436c-0.45-2.844-0.737-6.635-0.728-10.427c0.004-3.792,0.301-7.583,0.745-10.427
					c0.224-1.422,0.462-2.607,0.66-3.436c0.194-0.829,0.344-1.303,0.344-1.303c0.131-0.414,0.574-0.643,0.988-0.512
					C90.974,62.098,91.159,62.297,91.234,62.531z"/>
			</g>
		</g>
	</g>
</g>
<g id="Layer_1">
</g>
</svg>
