<?xml version="1.0" encoding="iso-8859-1"?>
<!-- Generator: Adobe Illustrator 19.2.0, SVG Export Plug-In . SVG Version: 6.00 Build 0)  -->
<!DOCTYPE svg PUBLIC "-//W3C//DTD SVG 1.1//EN" "http://www.w3.org/Graphics/SVG/1.1/DTD/svg11.dtd">
<svg version="1.1" xmlns="http://www.w3.org/2000/svg" xmlns:xlink="http://www.w3.org/1999/xlink" x="0px" y="0px"
	 viewBox="0 0 140 140" style="enable-background:new 0 0 140 140;" xml:space="preserve">
<g id="pini">
	<g id="pini_1_">
		<g>
			<g>
				<path style="fill:#FFFFFF;" d="M90.443,120.671c18.5,7.998,37.999,9.248,37.999,9.248s8.251-48.25-9.011-66.742H21.395
					c-17.262,18.492-9.011,66.742-9.011,66.742s19.499-1.25,37.999-9.248H90.443z"/>
				<path d="M91.201,118.82c1.511,0.585,3.055,1.268,4.54,1.771l2.241,0.802l2.293,0.738c1.522,0.512,3.083,0.912,4.625,1.364
					c1.559,0.398,3.112,0.82,4.685,1.165c1.565,0.376,3.146,0.688,4.724,1.008c1.582,0.302,3.168,0.583,4.758,0.835
					c1.591,0.25,3.185,0.467,4.779,0.672l2.389,0.273c0.789,0.085,1.605,0.156,2.351,0.21l-2.379,1.88
					c0.217-1.35,0.412-2.782,0.584-4.184c0.172-1.41,0.331-2.824,0.466-4.241c0.276-2.833,0.485-5.673,0.623-8.514
					c0.283-5.681,0.269-11.37-0.12-17.007c-0.118-1.406-0.218-2.815-0.391-4.211c-0.14-1.402-0.358-2.788-0.554-4.177
					c-0.246-1.377-0.47-2.761-0.783-4.117c-0.273-1.369-0.645-2.705-1.008-4.04l-0.606-1.979l-0.696-1.935
					c-0.215-0.654-0.518-1.26-0.776-1.891c-0.253-0.634-0.548-1.242-0.862-1.837c-0.584-1.22-1.284-2.359-2.011-3.467
					c-0.391-0.531-0.753-1.089-1.161-1.6l-1.271-1.489l1.789,0.777L94.922,65.67l-24.509-0.036l-49.018-0.073l1.743-0.757
					l-1.273,1.495c-0.409,0.514-0.771,1.073-1.162,1.605c-0.727,1.111-1.427,2.253-2.01,3.475c-0.314,0.597-0.608,1.206-0.861,1.841
					c-0.257,0.632-0.559,1.239-0.774,1.894l-0.694,1.938l-0.604,1.981c-0.362,1.337-0.733,2.674-1.004,4.044
					c-0.312,1.357-0.534,2.742-0.779,4.12c-0.195,1.391-0.411,2.777-0.55,4.18c-0.172,1.396-0.27,2.806-0.387,4.212
					c-0.382,5.638-0.39,11.328-0.1,17.009c0.142,2.841,0.354,5.681,0.633,8.513c0.137,1.416,0.298,2.83,0.471,4.24
					c0.173,1.402,0.371,2.834,0.589,4.183l-2.395-1.892c0.746-0.055,1.562-0.127,2.35-0.213l2.389-0.275
					c1.593-0.203,3.185-0.437,4.774-0.694c1.588-0.261,3.172-0.552,4.751-0.864c1.575-0.33,3.153-0.65,4.715-1.036
					c1.569-0.357,3.119-0.781,4.676-1.184c1.539-0.456,3.097-0.861,4.615-1.378l2.288-0.745l2.259-0.817
					c1.517-0.522,2.974-1.177,4.465-1.759l0.089-0.035c0.252-0.098,0.518-0.144,0.773-0.144l40.059,0.173
					c0.254,0.001,0.497,0.048,0.721,0.134L91.201,118.82z M90.055,122.673l-39.671,0.171l0.862-0.178
					c-1.551,0.623-3.078,1.321-4.651,1.879l-2.349,0.872l-2.372,0.795c-1.576,0.55-3.184,0.985-4.778,1.471
					c-1.607,0.431-3.21,0.888-4.831,1.258c-1.614,0.404-3.243,0.74-4.869,1.085c-1.63,0.327-3.264,0.632-4.904,0.907
					c-1.641,0.271-3.286,0.518-4.937,0.733l-2.486,0.294c-0.837,0.093-1.651,0.169-2.537,0.236c-1.171,0.089-2.201-0.734-2.391-1.87
					l-0.004-0.022c-0.247-1.496-0.446-2.921-0.631-4.379c-0.183-1.451-0.352-2.902-0.497-4.354
					c-0.295-2.905-0.521-5.816-0.676-8.734c-0.314-5.834-0.326-11.697,0.054-17.567c0.117-1.467,0.215-2.935,0.391-4.401
					c0.141-1.467,0.363-2.932,0.565-4.397c0.254-1.462,0.485-2.925,0.814-4.38c0.286-1.459,0.679-2.906,1.068-4.351l0.651-2.157
					l0.757-2.135c0.236-0.716,0.569-1.407,0.855-2.11c0.281-0.705,0.61-1.395,0.964-2.077c0.658-1.38,1.458-2.71,2.307-4.009
					c0.456-0.633,0.882-1.285,1.368-1.9l1.527-1.801c0.421-0.496,1.019-0.753,1.622-0.757l0.121,0l49.018-0.073l24.509-0.036
					l24.509,0.046l0.118,0c0.667,0.001,1.27,0.307,1.672,0.777l1.528,1.807c0.486,0.616,0.913,1.27,1.369,1.905
					c0.848,1.301,1.649,2.635,2.306,4.017c0.353,0.683,0.683,1.374,0.963,2.081c0.285,0.704,0.618,1.396,0.854,2.113l0.755,2.138
					l0.649,2.16c0.387,1.447,0.779,2.895,1.064,4.355c0.327,1.456,0.558,2.921,0.81,4.383c0.201,1.466,0.421,2.931,0.561,4.399
					c0.174,1.467,0.271,2.935,0.386,4.403c0.374,5.871,0.355,11.735,0.034,17.569c-0.158,2.918-0.387,5.829-0.685,8.733
					c-0.147,1.453-0.317,2.903-0.502,4.354c-0.187,1.458-0.387,2.883-0.636,4.378l-0.003,0.018
					c-0.191,1.149-1.237,1.947-2.376,1.862c-0.885-0.068-1.699-0.145-2.536-0.239l-2.486-0.297
					c-1.652-0.213-3.294-0.477-4.933-0.756c-1.638-0.284-3.269-0.6-4.897-0.936c-1.624-0.355-3.249-0.701-4.86-1.114
					c-1.618-0.381-3.217-0.841-4.822-1.277c-1.591-0.491-3.195-0.93-4.768-1.485l-2.368-0.802l-2.367-0.888
					C92.786,123.857,91.45,123.248,90.055,122.673z"/>
			</g>
			<g>
				<path d="M23.639,104.789c0,0,0.013-0.156,0.038-0.447c0.028-0.306,0.073-0.748,0.143-1.287c0.131-1.091,0.369-2.632,0.737-4.465
					c0.197-0.914,0.396-1.907,0.674-2.942c0.246-1.043,0.568-2.128,0.909-3.248c0.318-1.127,0.768-2.256,1.162-3.424
					c0.469-1.141,0.916-2.315,1.448-3.455c0.568-1.124,1.049-2.291,1.702-3.355c0.619-1.081,1.204-2.159,1.907-3.126
					c0.665-0.989,1.304-1.95,2.03-2.78c0.707-0.841,1.315-1.688,2.027-2.345c0.68-0.684,1.304-1.311,1.857-1.867
					c0.596-0.511,1.138-0.934,1.575-1.293c0.88-0.711,1.383-1.118,1.383-1.118c0.858-0.694,2.117-0.56,2.81,0.299
					c0.694,0.858,0.56,2.117-0.299,2.81c-0.009,0.007-0.018,0.014-0.027,0.021l-0.184,0.142c0,0-0.45,0.348-1.239,0.956
					c-0.394,0.305-0.873,0.676-1.422,1.101c-0.504,0.483-1.073,1.027-1.693,1.621c-0.653,0.562-1.215,1.32-1.873,2.059
					c-0.676,0.726-1.277,1.588-1.907,2.475c-0.666,0.861-1.227,1.843-1.824,2.824c-0.63,0.961-1.102,2.042-1.66,3.071
					c-0.524,1.049-0.97,2.141-1.439,3.2c-0.396,1.091-0.851,2.142-1.178,3.202c-0.35,1.052-0.682,2.072-0.941,3.057
					c-0.291,0.976-0.503,1.916-0.713,2.78c-0.395,1.733-0.659,3.192-0.807,4.21c-0.08,0.514-0.13,0.903-0.16,1.163
					c-0.031,0.275-0.047,0.422-0.047,0.422l-0.004,0.035c-0.093,0.823-0.835,1.415-1.658,1.323
					C24.156,106.317,23.57,105.595,23.639,104.789z"/>
			</g>
			<g>
				<path d="M114.199,105.05c0,0-0.017-0.147-0.047-0.422c-0.031-0.261-0.08-0.649-0.16-1.163c-0.148-1.018-0.413-2.477-0.807-4.21
					c-0.21-0.864-0.422-1.803-0.713-2.78c-0.259-0.985-0.591-2.005-0.941-3.057c-0.327-1.06-0.782-2.111-1.178-3.202
					c-0.47-1.059-0.916-2.151-1.439-3.2c-0.558-1.03-1.029-2.111-1.66-3.071c-0.597-0.981-1.158-1.963-1.824-2.824
					c-0.63-0.887-1.232-1.749-1.907-2.475c-0.658-0.739-1.22-1.497-1.873-2.059c-0.62-0.594-1.189-1.138-1.693-1.621
					c-0.549-0.425-1.028-0.796-1.422-1.101c-0.788-0.609-1.239-0.956-1.239-0.956l-0.176-0.136c-0.873-0.674-1.035-1.929-0.36-2.803
					c0.674-0.873,1.929-1.035,2.803-0.36c0.009,0.007,0.026,0.02,0.034,0.027c0,0,0.503,0.406,1.383,1.118
					c0.437,0.359,0.978,0.782,1.575,1.293c0.553,0.556,1.177,1.183,1.857,1.867c0.712,0.657,1.32,1.504,2.027,2.345
					c0.726,0.83,1.365,1.79,2.03,2.78c0.703,0.967,1.288,2.045,1.907,3.126c0.654,1.064,1.134,2.231,1.702,3.355
					c0.532,1.14,0.979,2.314,1.448,3.455c0.393,1.168,0.844,2.297,1.162,3.424c0.341,1.12,0.663,2.205,0.909,3.248
					c0.279,1.035,0.477,2.029,0.674,2.942c0.368,1.833,0.606,3.374,0.737,4.465c0.07,0.539,0.115,0.981,0.143,1.287
					c0.025,0.292,0.038,0.447,0.038,0.447c0.071,0.825-0.54,1.552-1.366,1.623c-0.811,0.07-1.528-0.52-1.619-1.325L114.199,105.05z"
					/>
			</g>
		</g>
		<g>
			<path style="fill:#FFFFFF;" d="M100.413,9.919c-16.565,0-29.993,13.397-30,29.926c-0.007-16.529-13.435-29.926-30-29.926
				c-16.569,0-30,13.404-30,29.938s13.431,29.938,30,29.938c1.357,0,2.69-0.099,4-0.273v34.452c0,14.33,11.641,25.946,26,25.946
				c14.359,0,26-11.616,26-25.946V69.521c1.309,0.174,2.643,0.273,4,0.273c16.569,0,30-13.404,30-29.938
				S116.981,9.919,100.413,9.919z M70.413,43.349"/>
			<g>
				<path d="M100.539,12.416L97.6,12.523l-2.573,0.348c-0.867,0.173-1.748,0.415-2.625,0.613c-0.863,0.258-1.706,0.586-2.563,0.871
					c-0.835,0.343-1.643,0.752-2.47,1.12c-0.796,0.429-1.564,0.91-2.353,1.359c-0.747,0.512-1.471,1.06-2.213,1.585l-2.051,1.796
					l-1.861,1.997l-1.658,2.172c-0.475,0.777-0.979,1.538-1.439,2.325c-0.395,0.821-0.833,1.624-1.199,2.46
					c-0.307,0.859-0.654,1.705-0.936,2.572c-0.221,0.885-0.48,1.763-0.679,2.653c-0.134,0.904-0.294,1.804-0.416,2.71l-0.152,2.741
					l-0.003,0.06c-0.061,1.103-1.005,1.948-2.108,1.886c-1.046-0.058-1.86-0.918-1.889-1.946c-0.072-2.828-0.5-5.629-1.318-8.328
					c-0.884-2.678-2.185-5.201-3.8-7.497c-1.621-2.3-3.654-4.279-5.867-5.978c-2.205-1.728-4.734-2.989-7.335-3.948
					c-1.293-0.522-2.657-0.809-4.004-1.145c-1.375-0.187-2.74-0.475-4.135-0.466l-1.04-0.043l-0.26-0.011l-0.13-0.006l-0.065-0.003
					l-0.032-0.001c-0.038,0,0.216-0.006,0.092-0.003l-0.566,0.03l-2.265,0.121c-0.711,0.072-1.321,0.208-1.987,0.301
					c-0.328,0.059-0.65,0.082-0.984,0.167L33.711,13.3c-1.358,0.289-2.64,0.822-3.941,1.292c-1.242,0.61-2.517,1.157-3.669,1.932
					c-2.352,1.449-4.514,3.231-6.315,5.333c-1.8,2.09-3.388,4.397-4.485,6.942c-1.09,2.538-1.874,5.217-2.192,7.974
					c-0.095,0.686-0.087,1.383-0.139,2.074l-0.029,0.519l-0.015,0.26l-0.008,0.13l-0.004,0.065l-0.002,0.032
					c-0.007-0.242-0.001-0.047-0.002-0.092l0.048,1.133c0.047,0.733,0.03,1.561,0.13,2.217l0.289,1.965
					c0.531,2.691,1.427,5.366,2.707,7.835c1.335,2.445,3.01,4.701,4.972,6.691c1.973,1.984,4.29,3.602,6.752,4.922
					c2.461,1.347,5.175,2.171,7.922,2.716c0.694,0.103,1.383,0.261,2.083,0.325l2.109,0.138c1.404,0.091,2.811-0.008,4.225-0.164
					l0.001,0l0.012-0.001c1.11-0.126,2.113,0.672,2.239,1.782c0.008,0.067,0.012,0.136,0.013,0.202l0.244,18.81l0.071,9.405
					l0.034,4.702l0.009,1.176l0.002,0.294l0,0.037c-0.001-0.041,0.003,0.144-0.002-0.083l0.004,0.073l0.008,0.147l0.034,0.587
					l0.068,1.174l0.034,0.587c0.016,0.189,0.055,0.339,0.081,0.511c0.128,0.669,0.196,1.325,0.352,2.005l0.551,2.058l0.742,1.997
					c0.287,0.648,0.618,1.278,0.919,1.92c1.34,2.504,3.136,4.762,5.272,6.632c4.264,3.765,9.894,5.865,15.577,5.866l2.222-0.109
					c0.758-0.054,1.351-0.201,2.036-0.285c0.328-0.034,0.667-0.105,1.013-0.206l1.03-0.262c0.697-0.14,1.35-0.423,2.019-0.656
					c2.652-0.995,5.122-2.476,7.256-4.347c4.278-3.734,7.163-9.051,7.845-14.709c0.322-2.706,0.207-6.005,0.263-9.107l0.071-9.405
					l0.244-18.81l0-0.001c0-1.104,0.895-2,2-2c0.075,0,0.149,0.004,0.222,0.012l0.042,0.005c0.955,0.112,1.909,0.18,2.859,0.197
					l0.712,0.003l0.089-0.001l0.044,0l0.022,0c0.03,0-0.182,0.005-0.081,0.002l0.191-0.012l0.383-0.025l1.53-0.099
					c1.075-0.022,1.894-0.253,2.814-0.387c0.894-0.1,1.821-0.438,2.732-0.663c1.82-0.528,3.575-1.257,5.253-2.131
					c0.85-0.416,1.62-0.977,2.435-1.452c0.786-0.523,1.513-1.134,2.274-1.691c0.709-0.624,1.393-1.276,2.088-1.915
					c0.619-0.713,1.273-1.395,1.871-2.123c0.541-0.772,1.149-1.498,1.644-2.299c0.458-0.823,1.014-1.59,1.399-2.45
					c0.838-1.683,1.535-3.438,2.007-5.253c0.211-0.914,0.5-1.811,0.587-2.749c0.124-0.93,0.309-1.852,0.302-2.794l0.06-1.406
					l0.016-0.351l0.002-0.044l0.001-0.022c-0.003-0.121,0.005,0.14,0.004,0.104l-0.005-0.096l-0.01-0.191l-0.04-0.766
					c-0.059-1.01-0.071-2.097-0.256-2.918c-0.146-0.882-0.238-1.758-0.52-2.673c-0.229-0.907-0.448-1.818-0.811-2.683l-0.483-1.317
					c-0.176-0.433-0.403-0.844-0.6-1.268l-0.61-1.264l-0.734-1.197c-0.25-0.395-0.473-0.808-0.742-1.191l-0.846-1.121
					c-0.531-0.774-1.183-1.449-1.815-2.139c-1.264-1.38-2.702-2.596-4.221-3.689c-0.738-0.579-1.585-0.994-2.369-1.505
					c-0.805-0.477-1.677-0.829-2.51-1.256c-0.859-0.368-1.753-0.654-2.626-0.991c-0.899-0.258-1.812-0.471-2.715-0.716l-2.777-0.432
					l-2.811-0.144L100.539,12.416z M100.413,7.419l3.315,0.164l3.285,0.5c1.073,0.276,2.153,0.53,3.217,0.837
					c1.038,0.386,2.095,0.729,3.114,1.163c0.992,0.492,2.021,0.918,2.977,1.476c0.935,0.592,1.931,1.097,2.81,1.772
					c1.803,1.286,3.507,2.721,5.008,4.351c0.748,0.818,1.508,1.626,2.141,2.539l0.993,1.333c0.316,0.454,0.586,0.941,0.879,1.411
					l0.859,1.423l0.724,1.498c0.233,0.503,0.495,0.993,0.702,1.507l0.573,1.562c0.419,1.03,0.684,2.107,0.952,3.184
					c0.313,1.048,0.46,2.207,0.628,3.345c0.214,1.191,0.208,2.156,0.268,3.186l0.038,0.766l0.009,0.191l0.005,0.096l0.003,0.152
					l-0.001,0.026l-0.003,0.052l-0.023,0.414l-0.095,1.657c-0.021,1.108-0.243,2.197-0.412,3.29
					c-0.132,1.101-0.474,2.159-0.747,3.231c-0.595,2.13-1.446,4.182-2.465,6.14c-0.475,0.997-1.128,1.896-1.688,2.844
					c-0.597,0.926-1.313,1.771-1.967,2.655c-0.71,0.84-1.483,1.628-2.225,2.44c-0.817,0.737-1.629,1.481-2.468,2.19
					c-0.893,0.642-1.753,1.33-2.677,1.924c-0.953,0.546-1.864,1.17-2.856,1.641c-1.965,0.98-4.012,1.803-6.134,2.36
					c-1.078,0.239-2.098,0.573-3.245,0.686c-1.104,0.139-2.292,0.36-3.268,0.346l-1.533,0.055l-0.383,0.014l-0.192,0.007l-0.309,0
					L99.4,71.82c-1.093-0.051-2.179-0.16-3.251-0.317l2.264-1.982l0,0.001l0.244,18.81l0.071,9.405
					c-0.022,3.162,0.18,6.153-0.161,9.684c-0.368,3.403-1.387,6.748-3.006,9.774c-1.602,3.033-3.756,5.768-6.323,8.039
					c-2.565,2.273-5.545,4.08-8.754,5.302c-0.808,0.29-1.603,0.623-2.444,0.807l-1.248,0.323c-0.408,0.117-0.835,0.209-1.287,0.266
					c-0.867,0.124-1.815,0.303-2.619,0.361l-2.474,0.127c-3.432-0.028-6.864-0.659-10.072-1.884
					c-3.209-1.221-6.188-3.029-8.754-5.302c-2.567-2.271-4.721-5.007-6.323-8.039c-0.368-0.774-0.757-1.54-1.098-2.326l-0.878-2.418
					l-0.63-2.493c-0.182-0.849-0.278-1.757-0.41-2.633c-0.077-0.461-0.097-0.856-0.107-1.24l-0.051-1.175l-0.025-0.587l-0.012-0.413
					l0.002-0.294l0.009-1.176l0.034-4.702l0.071-9.405l0.244-18.81l2.264,1.982l-0.001,0c-1.584,0.223-3.206,0.38-4.824,0.328
					l-2.422-0.09c-0.806-0.052-1.604-0.203-2.408-0.302c-3.188-0.517-6.354-1.431-9.236-2.944c-2.887-1.479-5.607-3.324-7.946-5.596
					c-2.327-2.277-4.33-4.881-5.939-7.726c-1.557-2.883-2.66-5.968-3.346-9.2l-0.397-2.519c-0.124-0.839-0.111-1.533-0.173-2.307
					l-0.067-1.132l-0.005-0.162l0.002-0.038l0.003-0.077l0.007-0.153l0.014-0.307l0.028-0.613c0.052-0.817,0.048-1.639,0.152-2.451
					c0.355-3.264,1.256-6.453,2.539-9.471c1.289-3.026,3.141-5.782,5.268-8.272c2.119-2.512,4.719-4.59,7.511-6.299
					c1.376-0.901,2.886-1.557,4.368-2.258c1.542-0.561,3.071-1.166,4.68-1.508l1.193-0.3c0.399-0.097,0.835-0.139,1.252-0.209
					c0.831-0.116,1.71-0.269,2.503-0.339l2.266-0.107l0.567-0.027l0.163-0.003l0.038,0.002l0.077,0.004l0.153,0.009l0.306,0.017
					l1.225,0.071c1.638,0.033,3.249,0.382,4.859,0.648c1.583,0.415,3.175,0.798,4.686,1.432c3.042,1.176,5.93,2.785,8.441,4.857
					c2.513,2.056,4.791,4.414,6.591,7.115c1.793,2.701,3.195,5.641,4.194,8.718c0.914,3.106,1.373,6.324,1.414,9.55h-4l0.148-3.132
					c0.126-1.037,0.299-2.071,0.451-3.106c0.217-1.023,0.501-2.033,0.754-3.049c0.314-0.998,0.7-1.974,1.051-2.961
					c0.416-0.96,0.882-1.9,1.324-2.851c0.504-0.917,1.06-1.809,1.593-2.713c0.599-0.86,1.232-1.698,1.852-2.546l2.095-2.355
					c0.769-0.715,1.532-1.44,2.315-2.143c0.836-0.637,1.662-1.294,2.516-1.91c0.896-0.553,1.779-1.134,2.694-1.657
					c0.947-0.463,1.882-0.961,2.848-1.388c0.99-0.368,1.97-0.775,2.974-1.103c1.026-0.271,2.032-0.573,3.08-0.809
					c1.076-0.177,2.185-0.372,3.244-0.511l2.935-0.188L100.413,7.419z"/>
			</g>
		</g>
		<g>
			<path d="M48.059,43.658c0,0,0.154-0.083,0.443-0.238c0.289-0.152,0.702-0.391,1.289-0.662c1.154-0.543,2.776-1.308,4.826-2.022
				c2.041-0.723,4.482-1.428,7.16-1.918c2.673-0.517,5.581-0.784,8.498-0.814c0.797,0.011,1.386,0.014,2.162,0.057
				c0.749,0.033,1.481,0.084,2.189,0.153c1.43,0.122,2.825,0.344,4.164,0.594c2.679,0.497,5.118,1.208,7.154,1.937
				c2.043,0.715,3.673,1.485,4.809,2.015c0.57,0.262,1.002,0.504,1.3,0.659c0.297,0.157,0.455,0.241,0.455,0.241
				c0.734,0.388,1.014,1.298,0.626,2.032c-0.349,0.659-1.118,0.952-1.803,0.723l-0.039-0.013c0,0-0.646-0.215-1.776-0.591
				c-1.123-0.386-2.753-0.861-4.708-1.374c-1.959-0.502-4.256-1.009-6.735-1.367c-1.238-0.194-2.524-0.312-3.828-0.424
				c-0.658-0.056-1.307-0.091-1.945-0.113c-0.611-0.033-1.416-0.024-2.013-0.032c-1.33,0.003-2.661,0.047-3.969,0.153
				c-1.306,0.115-2.596,0.227-3.835,0.42c-2.484,0.349-4.781,0.852-6.739,1.347c-1.951,0.505-3.587,0.989-4.689,1.371
				c-1.14,0.388-1.791,0.61-1.791,0.61l-0.007,0.002c-0.787,0.268-1.642-0.152-1.91-0.939C47.107,44.762,47.423,44,48.059,43.658z"
				/>
		</g>
	</g>
</g>
<g id="Layer_1">
</g>
</svg>
