<?xml version="1.0" encoding="iso-8859-1"?>
<!-- Generator: Adobe Illustrator 19.2.0, SVG Export Plug-In . SVG Version: 6.00 Build 0)  -->
<!DOCTYPE svg PUBLIC "-//W3C//DTD SVG 1.1//EN" "http://www.w3.org/Graphics/SVG/1.1/DTD/svg11.dtd">
<svg version="1.1" xmlns="http://www.w3.org/2000/svg" xmlns:xlink="http://www.w3.org/1999/xlink" x="0px" y="0px"
	 viewBox="0 0 125.014 125.117" style="enable-background:new 0 0 125.014 125.117;" xml:space="preserve">
<g id="namako">
	<g id="namako_2_">
		<g>
			<path style="fill:#FFFFFF;" d="M45.749,23.879c2.5-13.75,14.463-21.728,23.5-21.375c16,0.625,7.789,25.498,6.25,28.375
				c6.946-6.946,16.739-9.615,23.026-3.402c5.973,5.902,4.224,15.277-3.026,22.152c3.75-2,10.903-3.5,15-3.5
				c8.768,0,11.999,6.25,11.999,16.5c0,33.137-26.863,60-60,60s-60-26.863-60-60c0-23.748,15.558-39.998,34.75-39.998
				S73,39.879,73,70.634"/>
			<path d="M43.79,23.476c0.118-0.702,0.227-1.396,0.418-2.202c0.181-0.78,0.381-1.502,0.623-2.242
				c0.472-1.469,1.053-2.91,1.762-4.29c1.432-2.752,3.314-5.276,5.551-7.446c2.23-2.181,4.858-3.958,7.735-5.264
				c2.877-1.296,6.057-2.109,9.412-2.026c0.525,0.033,0.688,0.032,1.222,0.097c0.467,0.047,0.886,0.126,1.311,0.204
				c0.854,0.181,1.715,0.443,2.551,0.816c1.677,0.731,3.22,1.972,4.289,3.463c1.084,1.489,1.734,3.144,2.13,4.756
				c0.402,1.619,0.537,3.221,0.551,4.785c0.016,3.129-0.436,6.125-1.099,9.04c-0.348,1.455-0.754,2.888-1.221,4.306
				c-0.235,0.709-0.482,1.415-0.755,2.121c-0.296,0.726-0.541,1.362-1.007,2.228l-0.001,0.002l-3.178-2.358
				c3.082-3.328,6.994-6.075,11.679-7.326c2.327-0.628,4.883-0.796,7.393-0.268c2.509,0.51,4.902,1.77,6.757,3.491l0.349,0.322
				l0.332,0.342l0.273,0.29l0.334,0.392c0.458,0.538,0.8,1.021,1.153,1.575c0.687,1.084,1.234,2.268,1.601,3.501
				c0.729,2.47,0.781,5.083,0.255,7.481c-0.516,2.407-1.51,4.622-2.769,6.603c-1.294,1.962-2.828,3.717-4.561,5.21l-0.003,0.003
				l-2.317-3.216c1.881-0.931,3.721-1.509,5.575-2.044c1.855-0.514,3.721-0.908,5.615-1.238c1.881-0.311,3.864-0.528,5.889-0.469
				c2.12,0.066,4.315,0.396,6.382,1.518c2.072,1.079,3.693,2.958,4.67,4.917c1.008,1.968,1.542,4.005,1.87,5.992
				c0.328,1.993,0.439,3.956,0.453,5.893l-0.061,2.833c-0.016,0.913-0.126,1.933-0.187,2.894
				c-0.668,7.671-2.746,15.166-6.128,22.063c-3.366,6.896-8.036,13.151-13.687,18.339c-5.639,5.199-12.237,9.355-19.369,12.178
				c-7.13,2.818-14.785,4.345-22.448,4.376c-3.757,0.033-7.679-0.277-11.439-0.935c-3.776-0.656-7.493-1.662-11.085-3.001
				c-7.191-2.668-13.856-6.718-19.582-11.807c-5.73-5.089-10.518-11.233-14.043-18.041c-3.523-6.805-5.806-14.267-6.609-21.893
				c-0.188-1.906-0.331-3.818-0.349-5.734l-0.018-0.718L0,62.576l0.007-0.345l0.027-1.38c0.018-0.916,0.099-1.954,0.162-2.917
				c0.351-3.843,1.059-7.682,2.311-11.374c2.431-7.38,6.913-14.259,13.209-19.096c3.121-2.434,6.681-4.309,10.441-5.572
				c3.786-1.224,7.717-1.834,11.724-1.741c0.467,0.02,0.902,0.023,1.396,0.057l1.538,0.137c1.003,0.132,1.978,0.248,2.952,0.469
				c1.95,0.383,3.862,0.959,5.701,1.706c3.692,1.463,7.086,3.62,10.024,6.228c5.896,5.244,9.927,12.187,12.301,19.445
				c2.426,7.282,3.276,14.921,3.208,22.44c-0.01,1.105-0.914,1.992-2.018,1.982c-1.091-0.01-1.971-0.895-1.982-1.982
				c-0.07-7.182-1.108-14.34-3.407-21.018c-2.269-6.665-6.015-12.825-11.207-17.322c-5.174-4.514-11.8-7.114-18.646-7.152
				c-3.352-0.059-6.793,0.467-10.004,1.521c-3.211,1.09-6.251,2.695-8.929,4.796c-5.388,4.177-9.342,10.132-11.524,16.698
				c-1.124,3.279-1.768,6.727-2.096,10.205c-0.054,0.872-0.13,1.669-0.151,2.592l-0.03,1.38l-0.007,0.345l0.009,0.279l0.017,0.661
				c0.015,1.765,0.149,3.525,0.321,5.279c0.738,7.017,2.838,13.872,6.078,20.132c3.242,6.261,7.649,11.918,12.923,16.602
				c5.271,4.685,11.402,8.411,18.014,10.863c3.303,1.231,6.719,2.155,10.192,2.759c3.489,0.604,6.929,0.886,10.53,0.859
				c7.061-0.044,14.087-1.469,20.63-4.072c6.545-2.609,12.599-6.441,17.768-11.231c5.17-4.787,9.472-10.517,12.581-16.841
				c3.118-6.311,5.047-13.231,5.674-20.219c0.055-0.875,0.16-1.686,0.179-2.613l0.066-2.685c-0.007-1.741-0.106-3.464-0.373-5.103
				c-0.262-1.638-0.695-3.2-1.368-4.514c-0.681-1.319-1.562-2.331-2.66-3.139c-1.093-0.79-2.586-1.338-4.128-1.482
				c-1.653-0.163-3.35,0.025-5.105,0.253c-1.741,0.241-3.48,0.614-5.169,1.088c-1.682,0.468-3.348,1.071-4.737,1.838
				c-0.964,0.533-2.177,0.183-2.71-0.781c-0.434-0.785-0.282-1.735,0.309-2.348l0.084-0.086l0.003-0.003
				c1.34-1.44,2.549-2.975,3.466-4.645c0.947-1.645,1.627-3.41,1.921-5.18c0.288-1.767,0.25-3.527-0.261-5.129
				c-0.251-0.801-0.617-1.557-1.077-2.26c-0.219-0.34-0.503-0.72-0.74-0.985l-0.181-0.216l-0.277-0.286l-0.219-0.233l-0.235-0.22
				c-1.247-1.181-2.739-1.989-4.392-2.358c-1.652-0.379-3.449-0.287-5.24,0.091c-1.793,0.392-3.568,1.128-5.241,2.088
				c-1.69,0.941-3.259,2.135-4.737,3.45l-0.155,0.138c-0.818,0.728-2.072,0.655-2.8-0.163c-0.589-0.662-0.652-1.61-0.222-2.333
				l0-0.001c0.183-0.41,0.432-1.122,0.626-1.739c0.207-0.641,0.402-1.297,0.581-1.957c0.36-1.322,0.666-2.663,0.913-4.008
				c0.515-2.68,0.826-5.397,0.723-7.996c-0.111-2.575-0.616-5.094-1.869-6.742c-0.615-0.825-1.386-1.43-2.334-1.838
				c-0.473-0.204-0.989-0.359-1.535-0.47c-0.28-0.045-0.564-0.097-0.811-0.117c-0.175-0.034-0.729-0.053-0.917-0.066
				c-2.379-0.089-4.901,0.484-7.24,1.516c-2.353,1.023-4.525,2.508-6.46,4.248c-1.93,1.753-3.577,3.826-4.869,6.107
				c-0.661,1.133-1.216,2.33-1.685,3.562c-0.237,0.607-0.451,1.258-0.628,1.862c-0.187,0.575-0.356,1.285-0.523,1.985
				c-0.257,1.075-1.336,1.738-2.411,1.481c-1.028-0.246-1.679-1.243-1.51-2.27L43.79,23.476z"/>
		</g>
		
			<line style="fill:none;stroke:#000000;stroke-width:4;stroke-linecap:round;stroke-linejoin:round;stroke-miterlimit:10;" x1="34.758" y1="40.53" x2="36.34" y2="60.107"/>
		
			<line style="fill:none;stroke:#000000;stroke-width:4;stroke-linecap:round;stroke-linejoin:round;stroke-miterlimit:10;" x1="13.889" y1="60.924" x2="28.735" y2="67.839"/>
		
			<line style="fill:none;stroke:#000000;stroke-width:4;stroke-linecap:round;stroke-linejoin:round;stroke-miterlimit:10;" x1="23.784" y1="90.918" x2="32.852" y2="76.406"/>
		
			<line style="fill:none;stroke:#000000;stroke-width:4;stroke-linecap:round;stroke-linejoin:round;stroke-miterlimit:10;" x1="56.242" y1="91.895" x2="43.442" y2="75.235"/>
		
			<line style="fill:none;stroke:#000000;stroke-width:4;stroke-linecap:round;stroke-linejoin:round;stroke-miterlimit:10;" x1="60.108" y1="58.113" x2="46.128" y2="64.839"/>
	</g>
</g>
<g id="Layer_1">
</g>
</svg>
