<?xml version="1.0" encoding="iso-8859-1"?>
<!-- Generator: Adobe Illustrator 19.2.0, SVG Export Plug-In . SVG Version: 6.00 Build 0)  -->
<!DOCTYPE svg PUBLIC "-//W3C//DTD SVG 1.1//EN" "http://www.w3.org/Graphics/SVG/1.1/DTD/svg11.dtd">
<svg version="1.1" xmlns="http://www.w3.org/2000/svg" xmlns:xlink="http://www.w3.org/1999/xlink" x="0px" y="0px"
	 viewBox="0 0 125 125" style="enable-background:new 0 0 125 125;" xml:space="preserve">
<g id="monsi">
	<g id="monsi_2_">
		<path style="fill:#FFFFFF;stroke:#000000;stroke-width:5;stroke-linecap:round;stroke-linejoin:round;stroke-miterlimit:10;" d="
			M2.5,62.5V36.503C2.5,17.5,15.931,2.5,32.5,2.5c29.667,0,30,27.44,30,36.004c0-8.564,0.333-36.004,30-36.004
			c16.569,0,30,14.333,30,34.003V62.5v30c0,16.569-13.431,30-30,30h-60c-16.569,0-30-13.431-30-30V62.5z"/>
		<g>
			<path style="fill:#FFFFFF;" d="M22.298,47.375c9.019-10.433,23.664-17.217,40.197-17.217c16.646,0,31.378,6.878,40.381,17.432"/>
			<path d="M21.009,46.191c0,0,0.228-0.27,0.657-0.776c0.433-0.504,1.017-1.251,1.974-2.191c0.911-0.969,2.056-2.017,3.417-3.193
				c1.376-1.153,2.98-2.402,4.85-3.583c0.93-0.599,1.907-1.209,2.959-1.77c1.029-0.605,2.142-1.131,3.28-1.689
				c2.296-1.064,4.777-2.084,7.434-2.845c2.641-0.814,5.437-1.433,8.306-1.846c0.719-0.095,1.44-0.19,2.164-0.285
				c0.727-0.06,1.456-0.12,2.187-0.18c0.73-0.071,1.464-0.106,2.199-0.117c0.761-0.017,1.412-0.051,2.265-0.053
				c2.734,0.046,5.867,0.233,8.695,0.675c2.865,0.443,5.661,1.057,8.297,1.891c1.331,0.372,2.6,0.867,3.848,1.324
				c1.226,0.517,2.435,1.001,3.57,1.563c1.139,0.557,2.244,1.098,3.272,1.705c1.05,0.564,2.02,1.187,2.95,1.786
				c1.863,1.193,3.459,2.451,4.829,3.611c1.352,1.184,2.5,2.248,3.377,3.194c0.916,0.906,1.542,1.708,1.989,2.233
				c0.443,0.528,0.679,0.81,0.679,0.81c0.62,0.74,0.523,1.843-0.217,2.463c-0.702,0.588-1.729,0.531-2.363-0.107l-0.083-0.084
				c0,0-0.238-0.242-0.685-0.695c-0.446-0.454-1.088-1.126-1.975-1.915c-1.725-1.62-4.38-3.746-7.86-5.833
				c-0.873-0.517-1.779-1.057-2.763-1.538c-0.96-0.523-1.995-0.981-3.056-1.454c-2.133-0.92-4.441-1.757-6.882-2.443
				c-2.428-0.732-5.012-1.212-7.642-1.615c-0.661-0.084-1.324-0.168-1.989-0.252c-0.664-0.082-1.314-0.105-1.973-0.163
				c-1.272-0.132-2.754-0.113-4.148-0.158L60.6,32.7c-0.677,0.005-1.352,0.033-2.023,0.095c-0.672,0.051-1.343,0.101-2.012,0.152
				c-0.665,0.084-1.329,0.167-1.989,0.25c-2.634,0.379-5.217,0.862-7.65,1.575c-2.446,0.668-4.752,1.508-6.895,2.406
				c-1.06,0.474-2.102,0.918-3.063,1.439c-0.985,0.479-1.899,1.006-2.772,1.523c-1.745,1.034-3.279,2.086-4.608,3.063
				c-1.306,0.999-2.437,1.917-3.268,2.703c-0.855,0.744-1.552,1.461-2.016,1.931c-0.467,0.47-0.717,0.72-0.717,0.72
				c-0.682,0.686-1.791,0.689-2.477,0.007C20.46,47.918,20.428,46.881,21.009,46.191z"/>
		</g>
		
			<line style="fill:none;stroke:#000000;stroke-width:4;stroke-linecap:round;stroke-linejoin:round;stroke-miterlimit:10;" x1="37.167" y1="71.833" x2="87.833" y2="71.833"/>
		
			<line style="fill:none;stroke:#000000;stroke-width:4;stroke-linecap:round;stroke-linejoin:round;stroke-miterlimit:10;" x1="32.5" y1="86.833" x2="92.5" y2="86.833"/>
	</g>
</g>
<g id="Layer_1">
</g>
</svg>
